<?xml version="1.0" encoding="utf-8"?>
<!-- Generator: Adobe Illustrator 25.0.0, SVG Export Plug-In . SVG Version: 6.00 Build 0)  -->
<svg version="1.1" id="Layer_1" xmlns="http://www.w3.org/2000/svg" xmlns:xlink="http://www.w3.org/1999/xlink" x="0px" y="0px"
	 viewBox="0 0 250 250" style="enable-background:new 0 0 250 250;" xml:space="preserve">
<style type="text/css">
	.st0{fill:#231F20;}
</style>
<path class="st0" d="M241.01,122H132.24l76.91-76.91c1.17-1.17,1.17-3.07,0-4.24c-1.17-1.17-3.07-1.17-4.24,0L128,117.76V8.99
	c0-1.66-1.34-3-3-3c-1.66,0-3,1.34-3,3v108.77L45.09,40.85c-1.17-1.17-3.07-1.17-4.24,0c-1.17,1.17-1.17,3.07,0,4.24L117.76,122
	H8.99c-1.66,0-3,1.34-3,3c0,1.66,1.34,3,3,3h108.77l-76.91,76.91c-1.17,1.17-1.17,3.07,0,4.24c0.59,0.59,1.35,0.88,2.12,0.88
	s1.54-0.29,2.12-0.88L122,132.24v108.77c0,1.66,1.34,3,3,3c1.66,0,3-1.34,3-3V132.24l76.91,76.91c0.59,0.59,1.35,0.88,2.12,0.88
	s1.54-0.29,2.12-0.88c1.17-1.17,1.17-3.07,0-4.24L132.24,128h108.77c1.66,0,3-1.34,3-3C244.01,123.34,242.67,122,241.01,122z"/>
</svg>
