<svg id="Layer_1" data-name="Layer 1" xmlns="http://www.w3.org/2000/svg" viewBox="0 0 250 250"><path d="M111.35,6.69c-1.91,0-3.72.91-4.89,3.75s-1.22,7.31-.39,10.58a13.1,13.1,0,0,0,3.45,6.2c2.47,2.41,6.09,4.41,8.73,1.66a8.74,8.74,0,0,0,1-9.71c-1.76-2.93-4.44-2.46-6.7-2.81a3,3,0,0,1-2.19-1,6,6,0,0,1-.47-5.21A3.71,3.71,0,0,1,113,8.44c9.56,0,22,16.85,22,29.74,0,2.62-.59,4.8-2.74,4.8-7.62,0-13-11.18-22-11.18-2.3,0-4.08,1.46-4.08,4.59,0,13.17,28.7,21.56,29,36.44.05,2.55-.76,4.5-3.33,4.37-7.64-.4-11.22-16.51-19.38-16.51-3.7,0-6.87,4.66-6.87,12.67a25.33,25.33,0,0,0,2.3,11,14.65,14.65,0,0,0,3.82,4.86c2,1.62,4.59,2.4,6.58.32a8.75,8.75,0,0,0,1-9.72,6.88,6.88,0,0,0-3.1-2.65c-1.17-.55-2.39-.87-3.57-1.4a7.09,7.09,0,0,1-3.15-2.55c-2.29-3.53-.23-11.4,3.47-11.4,6.71,0,15,22.34,26,22.34,3.76,0,5.64-2.69,5.64-6.11,0-14.85-29.07-22.1-29.07-37.24,0-1.89.64-3,1.93-3,6.87,0,12,14.6,22,14.6,2.14,0,4.83-1.31,4.83-7C144.2,32,122,6.69,111.35,6.69Z"/><path d="M138.65,243.31c1.91,0,3.72-.91,4.89-3.75s1.22-7.31.39-10.58a13.1,13.1,0,0,0-3.45-6.2c-2.47-2.41-6.09-4.41-8.73-1.66a8.74,8.74,0,0,0-.95,9.71c1.76,2.93,4.44,2.46,6.7,2.81a3,3,0,0,1,2.19,1,6,6,0,0,1,.47,5.21,3.71,3.71,0,0,1-3.17,1.67c-9.56,0-22-16.85-22-29.74,0-2.62.59-4.8,2.74-4.8,7.62,0,13,11.18,22,11.18,2.3,0,4.08-1.46,4.08-4.59,0-13.17-28.7-21.56-29-36.44-.05-2.55.76-4.5,3.33-4.37,7.64.4,11.22,16.51,19.38,16.51,3.7,0,6.87-4.66,6.87-12.67a25.33,25.33,0,0,0-2.3-11,14.65,14.65,0,0,0-3.82-4.86c-2-1.62-4.59-2.4-6.58-.32a8.75,8.75,0,0,0-.95,9.72,6.88,6.88,0,0,0,3.1,2.65c1.17.55,2.39.87,3.57,1.4a7.09,7.09,0,0,1,3.15,2.55c2.29,3.53.23,11.4-3.47,11.4-6.71,0-15-22.34-26-22.34-3.76,0-5.64,2.69-5.64,6.11,0,14.85,29.07,22.1,29.07,37.24,0,1.89-.64,3-1.93,3-6.87,0-12-14.6-22-14.6-2.14,0-4.83,1.31-4.83,7C105.8,218.05,128,243.31,138.65,243.31Z"/><path d="M199,31.69c-1.35-1.35-3.28-2-6.12-.81a18.45,18.45,0,0,0-7.75,7.21,13.26,13.26,0,0,0-1.95,6.82c.05,3.46,1.19,7.43,5,7.35a8.76,8.76,0,0,0,7.55-6.2c.81-3.31-1.41-4.88-2.76-6.71a3,3,0,0,1-.81-2.29,6,6,0,0,1,3.35-4A3.7,3.7,0,0,1,199,34.1c6.75,6.76,3.62,27.47-5.49,36.57-1.85,1.86-3.81,3-5.33,1.47-5.39-5.39-1.3-17.12-7.68-23.49-1.63-1.63-3.91-1.86-6.12.36-9.32,9.31,5,35.53-5.28,46.26-1.76,1.84-3.71,2.65-5.44.74-5.12-5.69,3.74-19.61-2-25.37-2.62-2.62-8.15-1.57-13.81,4.09a25.27,25.27,0,0,0-6.14,9.39,14.7,14.7,0,0,0-.74,6.13c.28,2.56,1.56,4.94,4.43,4.88a8.73,8.73,0,0,0,7.54-6.2,6.87,6.87,0,0,0-.31-4.07c-.44-1.21-1.08-2.3-1.53-3.51a7,7,0,0,1-.43-4c.87-4.11,7.9-8.23,10.52-5.61,4.74,4.75-5.21,26.39,2.6,34.21,2.66,2.65,5.89,2.08,8.31-.34,10.5-10.5-4.93-36.18,5.77-46.89,1.34-1.33,2.57-1.65,3.48-.74,4.86,4.86-1.87,18.77,5.23,25.87,1.51,1.52,4.34,2.49,8.35-1.53C204.37,72.77,206.52,39.2,199,31.69Z"/><path d="M51,218.31c1.35,1.35,3.28,2,6.12.81a18.45,18.45,0,0,0,7.75-7.21,13.26,13.26,0,0,0,2-6.82c0-3.46-1.19-7.43-5-7.35a8.76,8.76,0,0,0-7.55,6.2c-.81,3.31,1.41,4.88,2.76,6.71a3,3,0,0,1,.81,2.29,6,6,0,0,1-3.35,4,3.7,3.7,0,0,1-3.43-1.06c-6.75-6.76-3.62-27.47,5.49-36.57,1.85-1.86,3.81-3,5.33-1.47,5.39,5.39,1.3,17.12,7.68,23.49,1.63,1.63,3.91,1.86,6.12-.36,9.32-9.31-5-35.53,5.28-46.26,1.76-1.84,3.71-2.65,5.44-.74,5.12,5.69-3.74,19.61,2,25.37,2.62,2.62,8.15,1.57,13.81-4.09a25.27,25.27,0,0,0,6.14-9.39,14.7,14.7,0,0,0,.74-6.13c-.28-2.56-1.56-4.94-4.43-4.88a8.73,8.73,0,0,0-7.54,6.2,6.87,6.87,0,0,0,.31,4.07c.44,1.21,1.08,2.3,1.53,3.51a7,7,0,0,1,.43,4c-.87,4.11-7.9,8.23-10.52,5.61-4.74-4.75,5.21-26.39-2.6-34.21-2.66-2.65-5.89-2.08-8.31.34-10.5,10.5,4.93,36.18-5.77,46.89-1.34,1.33-2.57,1.65-3.48.74-4.86-4.86,1.87-18.77-5.23-25.87-1.51-1.52-4.34-2.49-8.35,1.53C45.63,177.23,43.48,210.8,51,218.31Z"/><path d="M243.31,111.35c0-1.91-.91-3.72-3.75-4.89s-7.31-1.22-10.58-.39a13.1,13.1,0,0,0-6.2,3.45c-2.41,2.47-4.41,6.09-1.66,8.73a8.74,8.74,0,0,0,9.71,1c2.93-1.76,2.46-4.44,2.81-6.7a3,3,0,0,1,1-2.19,6,6,0,0,1,5.21-.47,3.71,3.71,0,0,1,1.67,3.17c0,9.56-16.85,22-29.74,22-2.62,0-4.8-.59-4.8-2.74,0-7.62,11.18-13,11.18-22,0-2.3-1.46-4.08-4.59-4.08-13.17,0-21.56,28.7-36.44,29-2.55.05-4.5-.76-4.37-3.33.4-7.64,16.51-11.22,16.51-19.38,0-3.7-4.66-6.87-12.67-6.87a25.33,25.33,0,0,0-11,2.3,14.65,14.65,0,0,0-4.86,3.82c-1.62,2-2.4,4.59-.32,6.58a8.75,8.75,0,0,0,9.72,1,6.88,6.88,0,0,0,2.65-3.1c.55-1.17.87-2.39,1.4-3.57a7.09,7.09,0,0,1,2.55-3.15c3.53-2.29,11.4-.23,11.4,3.47,0,6.71-22.34,15-22.34,26,0,3.76,2.69,5.64,6.11,5.64,14.85,0,22.1-29.07,37.24-29.07,1.89,0,3,.64,3,1.93,0,6.87-14.6,12-14.6,22,0,2.14,1.31,4.83,7,4.83C218.05,144.2,243.31,122,243.31,111.35Z"/><path d="M6.69,138.65c0,1.91.91,3.72,3.75,4.89s7.31,1.22,10.58.39a13.1,13.1,0,0,0,6.2-3.45c2.41-2.47,4.41-6.09,1.66-8.73a8.74,8.74,0,0,0-9.71-.95c-2.93,1.76-2.46,4.44-2.81,6.7a3,3,0,0,1-1,2.19,6,6,0,0,1-5.21.47A3.71,3.71,0,0,1,8.44,137c0-9.56,16.85-22,29.74-22,2.62,0,4.8.59,4.8,2.74,0,7.62-11.18,13-11.18,22,0,2.3,1.46,4.08,4.59,4.08,13.17,0,21.56-28.7,36.44-29,2.55-.05,4.5.76,4.37,3.33-.4,7.64-16.51,11.22-16.51,19.38,0,3.7,4.66,6.87,12.67,6.87a25.33,25.33,0,0,0,11-2.3,14.65,14.65,0,0,0,4.86-3.82c1.62-2,2.4-4.59.32-6.58a8.75,8.75,0,0,0-9.72-.95,6.88,6.88,0,0,0-2.65,3.1c-.55,1.17-.87,2.39-1.4,3.57a7.09,7.09,0,0,1-2.55,3.15c-3.53,2.29-11.4.23-11.4-3.47,0-6.71,22.34-15,22.34-26,0-3.76-2.69-5.64-6.11-5.64-14.85,0-22.1,29.07-37.24,29.07-1.89,0-3-.64-3-1.93,0-6.87,14.6-12,14.6-22,0-2.14-1.31-4.83-7-4.83C32,105.8,6.69,128,6.69,138.65Z"/><path d="M218.31,199c1.35-1.35,2-3.28.81-6.12a18.45,18.45,0,0,0-7.21-7.75,13.26,13.26,0,0,0-6.82-1.95c-3.46.05-7.43,1.19-7.35,5a8.76,8.76,0,0,0,6.2,7.55c3.31.81,4.88-1.41,6.71-2.76a3,3,0,0,1,2.29-.81,6,6,0,0,1,4,3.35A3.7,3.7,0,0,1,215.9,199c-6.76,6.75-27.47,3.62-36.57-5.49-1.86-1.85-3-3.81-1.47-5.33,5.39-5.39,17.12-1.3,23.49-7.68,1.63-1.63,1.86-3.91-.36-6.12-9.31-9.32-35.53,5-46.26-5.28-1.84-1.76-2.65-3.71-.74-5.44,5.69-5.12,19.61,3.74,25.37-2,2.62-2.62,1.57-8.15-4.09-13.81a25.27,25.27,0,0,0-9.39-6.14,14.7,14.7,0,0,0-6.13-.74c-2.56.28-4.94,1.56-4.88,4.43a8.73,8.73,0,0,0,6.2,7.54,6.87,6.87,0,0,0,4.07-.31c1.21-.44,2.3-1.08,3.51-1.53a7,7,0,0,1,4-.43c4.11.87,8.23,7.9,5.61,10.52-4.75,4.74-26.39-5.21-34.21,2.6-2.65,2.66-2.08,5.89.34,8.31,10.5,10.5,36.18-4.93,46.89,5.77,1.33,1.34,1.65,2.57.74,3.48-4.86,4.86-18.77-1.87-25.87,5.23-1.52,1.51-2.49,4.34,1.53,8.35C177.23,204.37,210.8,206.52,218.31,199Z"/><path d="M31.69,51c-1.35,1.35-2,3.28-.81,6.12a18.45,18.45,0,0,0,7.21,7.75,13.26,13.26,0,0,0,6.82,2c3.46,0,7.43-1.19,7.35-5a8.76,8.76,0,0,0-6.2-7.55c-3.31-.81-4.88,1.41-6.71,2.76a3,3,0,0,1-2.29.81,6,6,0,0,1-4-3.35,3.7,3.7,0,0,1,1.06-3.43c6.76-6.75,27.47-3.62,36.57,5.49,1.86,1.85,3,3.81,1.47,5.33-5.39,5.39-17.12,1.3-23.49,7.68-1.63,1.63-1.86,3.91.36,6.12,9.31,9.32,35.53-5,46.26,5.28,1.84,1.76,2.65,3.71.74,5.44-5.69,5.12-19.61-3.74-25.37,2C68,91,69.07,96.57,74.73,102.23a25.27,25.27,0,0,0,9.39,6.14,14.7,14.7,0,0,0,6.13.74c2.56-.28,4.94-1.56,4.88-4.43a8.73,8.73,0,0,0-6.2-7.54,6.87,6.87,0,0,0-4.07.31c-1.21.44-2.3,1.08-3.51,1.53a7,7,0,0,1-4,.43c-4.11-.87-8.23-7.9-5.61-10.52,4.75-4.74,26.39,5.21,34.21-2.6,2.65-2.66,2.08-5.89-.34-8.31-10.5-10.5-36.18,4.93-46.89-5.77C57.36,70.87,57,69.64,58,68.73c4.86-4.86,18.77,1.87,25.87-5.23,1.52-1.51,2.49-4.34-1.53-8.35C72.77,45.63,39.2,43.48,31.69,51Z"/></svg>