<?xml version="1.0" encoding="utf-8"?>
<!-- Generator: Adobe Illustrator 25.0.1, SVG Export Plug-In . SVG Version: 6.00 Build 0)  -->
<svg version="1.1" id="Layer_1" xmlns="http://www.w3.org/2000/svg" xmlns:xlink="http://www.w3.org/1999/xlink" x="0px" y="0px"
	 viewBox="0 0 250 250" style="enable-background:new 0 0 250 250;" xml:space="preserve">
<path d="M201,140.2c0,2.2,1.4,5.1,7.3,5.1c14.1-0.1,40.6-23.4,40.6-34.6c0-2-1-3.9-3.9-5.1c-3-1.2-7.7-1.3-11.1-0.4
	c-2.5,0.6-4.7,1.8-6.5,3.6c-2.5,2.6-4.6,6.4-1.7,9.1c2.9,2.4,6.9,2.8,10.2,1c3.1-1.8,2.6-4.7,2.9-7c0-0.9,0.4-1.7,1-2.3
	c1.6-1,3.7-1.2,5.5-0.5c1.1,0.7,1.8,2,1.8,3.3c0,10-17.7,23.1-31.2,23.1c-2.7,0-5-0.6-5-2.9c0-8,11.7-13.6,11.7-23.1
	c0-2.4-1.5-4.3-4.8-4.3c-13.8,0-22.6,30.1-38.2,30.4c-2.7,0.1-4.7-0.8-4.6-3.5c0.4-8,17.3-11.8,17.3-20.3c0-3.9-4.9-7.2-13.3-7.2
	c-1.8,0-3.5,0.1-5.3,0.4c0.2-0.2,0.4-0.3,0.5-0.5c11-11-5.2-37.9,6-49.1c1.4-1.4,2.7-1.7,3.6-0.8c5.1,5.1-2,19.7,5.5,27.1
	c1.6,1.6,4.5,2.6,8.8-1.6c9.9-10,12.1-45.2,4.3-53.1c-1.4-1.4-3.4-2.1-6.4-0.8c-3.4,1.7-6.2,4.3-8.1,7.6c-1.3,2.2-2,4.6-2,7.1
	c0.1,3.6,1.2,7.8,5.2,7.7c3.7-0.4,6.8-2.9,7.9-6.5c0.8-3.5-1.5-5.1-2.9-7c-0.6-0.6-0.9-1.5-0.8-2.4c0.5-1.9,1.8-3.4,3.5-4.2
	c1.3-0.3,2.7,0.1,3.7,1.1c7.1,7.1,3.8,28.8-5.8,38.3c-1.9,1.9-4,3.1-5.6,1.5c-5.6-5.6-1.4-17.9-8-24.6c-1.7-1.7-4.1-1.9-6.4,0.4
	c-9.8,9.8,5.2,37.2-5.5,48.5c-1.8,1.9-3.9,2.8-5.7,0.8c-5.4-6,3.9-20.6-2.1-26.6c-2.7-2.7-8.5-1.6-14.5,4.3
	c-1.3,1.2-2.4,2.6-3.4,4.1c0-0.2,0-0.4,0-0.6c0-15.6-30.5-23.2-30.5-39c0-2,0.7-3.1,2-3.1c7.2,0,12.6,15.3,23.1,15.3
	c2.2,0,5.1-1.4,5.1-7.3C145.1,27.5,121.9,1,110.7,1c-2,0-3.9,1-5.1,3.9c-1.2,3-1.3,7.7-0.4,11.1c0.6,2.5,1.8,4.7,3.6,6.5
	c2.6,2.5,6.4,4.6,9.1,1.7c2.4-2.9,2.8-6.9,1-10.2c-1.8-3.1-4.7-2.6-7-2.9c-0.9,0-1.7-0.4-2.3-1c-1-1.6-1.2-3.7-0.5-5.5
	c0.7-1.1,1.9-1.8,3.3-1.8c10,0,23.1,17.7,23.1,31.2c0,2.7-0.6,5-2.9,5c-8,0-13.6-11.7-23.1-11.7c-2.4,0-4.3,1.5-4.3,4.8
	c0,13.8,30.1,22.6,30.4,38.2c0.1,2.7-0.8,4.7-3.5,4.6c-8-0.4-11.8-17.3-20.3-17.3c-3.9,0-7.2,4.9-7.2,13.3c0,1.8,0.1,3.6,0.5,5.3
	c-0.1-0.2-0.3-0.3-0.4-0.5c-11-11-37.9,5.2-49.1-6c-1.4-1.4-1.8-2.7-0.8-3.6c5.1-5.1,19.7,2,27.1-5.5c1.6-1.6,2.6-4.5-1.6-8.8
	c-10-10-45.2-12.2-53.1-4.3c-1.4,1.4-2.1,3.4-0.8,6.4c1.7,3.4,4.3,6.2,7.6,8.1c2.1,1.3,4.6,2.1,7.1,2.1c3.6,0,7.8-1.2,7.7-5.2
	c-0.4-3.7-2.9-6.8-6.5-7.9c-3.5-0.8-5.1,1.5-7,2.9c-0.6,0.6-1.5,0.9-2.4,0.8c-1.9-0.5-3.4-1.8-4.2-3.5c-0.3-1.3,0.1-2.7,1.1-3.6
	c7.1-7.1,28.8-3.8,38.3,5.8c1.9,1.9,3.1,4,1.5,5.6c-5.6,5.6-17.9,1.4-24.6,8c-1.7,1.7-1.9,4.1,0.4,6.4c9.8,9.8,37.2-5.2,48.5,5.5
	c1.9,1.8,2.8,3.9,0.8,5.7c-6,5.4-20.6-3.9-26.6,2.1c-2.8,2.7-1.7,8.5,4.3,14.4c1.2,1.3,2.6,2.4,4,3.4c-0.2,0-0.4,0-0.6,0
	c-15.6,0-23.2,30.5-39,30.5c-2,0-3.1-0.7-3.1-2c0-7.2,15.3-12.6,15.3-23.1c0-2.2-1.4-5.1-7.3-5.1C27.5,104.9,1,128.1,1,139.3
	c0,2,1,3.9,3.9,5.1s7.7,1.3,11.1,0.4c2.5-0.6,4.7-1.8,6.5-3.6c2.5-2.6,4.6-6.4,1.7-9.1c-2.9-2.4-6.9-2.8-10.2-1
	c-3.1,1.8-2.6,4.7-2.9,7c0,0.9-0.4,1.7-1,2.3c-1.6,1-3.7,1.2-5.5,0.5c-1.1-0.7-1.8-2-1.8-3.3c0-10,17.7-23.1,31.2-23.1
	c2.7,0,5,0.6,5,2.9c0,8-11.7,13.6-11.7,23.1c0,2.4,1.5,4.3,4.8,4.3c13.8,0,22.6-30.1,38.2-30.4c2.7-0.1,4.7,0.8,4.6,3.5
	c-0.4,8-17.3,11.8-17.3,20.3c0,3.9,4.9,7.2,13.3,7.2c1.8,0,3.6-0.1,5.3-0.5c-0.2,0.1-0.3,0.3-0.5,0.4c-11,11,5.2,37.9-6,49.1
	c-1.4,1.4-2.7,1.7-3.6,0.8c-5.1-5.1,2-19.7-5.5-27.1c-1.6-1.6-4.5-2.6-8.8,1.6c-10,10-12.3,45.2-4.4,53.1c1.4,1.4,3.4,2.1,6.4,0.8
	c3.4-1.7,6.2-4.3,8.1-7.6c1.3-2.1,2.1-4.6,2.1-7.1c0-3.6-1.2-7.8-5.2-7.7c-3.7,0.4-6.8,2.9-7.9,6.5c-0.8,3.5,1.5,5.1,2.9,7
	c0.6,0.6,0.9,1.5,0.8,2.4c-0.5,1.9-1.8,3.4-3.5,4.2c-1.3,0.3-2.7-0.1-3.6-1.1c-7.1-7.1-3.8-28.8,5.8-38.3c1.9-1.9,4-3.1,5.6-1.5
	c5.6,5.6,1.4,17.9,8,24.6c1.7,1.7,4.1,1.9,6.4-0.4c9.8-9.8-5.2-37.2,5.5-48.5c1.8-1.9,3.9-2.8,5.7-0.8c5.4,6-3.9,20.6,2.1,26.6
	c2.7,2.7,8.5,1.6,14.5-4.3c1.3-1.2,2.4-2.5,3.4-4c0,0.2,0,0.3,0,0.5c0,15.6,30.5,23.2,30.5,39c0,2-0.7,3.1-2,3.1
	c-7.2,0-12.6-15.3-23.1-15.3c-2.2,0-5.1,1.4-5.1,7.3c0,14.1,23.3,40.6,34.5,40.6c2,0,3.9-1,5.1-3.9c1.2-3,1.3-7.7,0.4-11.1
	c-0.6-2.5-1.8-4.7-3.6-6.5c-2.6-2.5-6.4-4.6-9.1-1.7c-2.4,2.9-2.8,6.9-1,10.2c1.8,3.1,4.7,2.6,7,2.9c0.9,0,1.7,0.4,2.3,1
	c1,1.6,1.2,3.7,0.5,5.5c-0.7,1.1-2,1.8-3.3,1.8c-10,0-23.1-17.7-23.1-31.2c0-2.7,0.6-5,2.9-5c8,0,13.6,11.7,23.1,11.7
	c2.4,0,4.3-1.5,4.3-4.8c0-13.8-30.1-22.6-30.4-38.2c-0.1-2.7,0.8-4.7,3.5-4.6c8,0.4,11.8,17.3,20.3,17.3c3.9,0,7.2-4.9,7.2-13.3
	c0-1.7-0.1-3.5-0.4-5.2c0.1,0.2,0.3,0.3,0.4,0.5c11,11,37.9-5.2,49.1,6c1.4,1.4,1.7,2.7,0.8,3.6c-5.1,5.1-19.7-2-27.1,5.5
	c-1.6,1.6-2.6,4.5,1.6,8.8c10,9.9,45.2,12.1,53.1,4.3c1.4-1.4,2.1-3.4,0.8-6.4c-1.7-3.4-4.3-6.2-7.6-8.1c-2.2-1.3-4.6-2-7.1-2
	c-3.6,0.1-7.8,1.2-7.7,5.2c0.4,3.7,2.9,6.8,6.5,7.9c3.5,0.8,5.1-1.5,7-2.9c0.6-0.6,1.5-0.9,2.4-0.8c1.9,0.5,3.4,1.8,4.2,3.5
	c0.3,1.3-0.1,2.7-1.1,3.7c-7.1,7.1-28.8,3.8-38.3-5.8c-1.9-1.9-3.1-4-1.5-5.6c5.6-5.6,17.9-1.4,24.6-8c1.7-1.7,1.9-4.1-0.4-6.4
	c-9.8-9.8-37.2,5.2-48.5-5.5c-1.9-1.8-2.8-3.9-0.8-5.7c6-5.4,20.6,3.9,26.6-2.1c2.7-2.7,1.6-8.5-4.3-14.5c-1.2-1.3-2.6-2.4-4-3.4
	c0.2,0,0.3,0,0.5,0c15.6,0,23.2-30.5,39-30.5c2,0,3.1,0.7,3.1,2C216.3,124.4,201,129.7,201,140.2z M167.8,139.7
	c0,1.2,0.3,2.3,0.8,3.1c-0.2-0.1-0.4-0.2-0.7-0.3c-2.1-0.7-4.3-1-6.4-0.8c-2.7,0.3-5.2,1.6-5.1,4.6c0.4,3.7,2.9,6.8,6.5,7.9
	c1.4,0.3,2.9,0.2,4.3-0.3c1.3-0.5,2.4-1.1,3.7-1.6c1.3-0.6,2.8-0.7,4.2-0.5c4.3,0.9,8.6,8.3,5.9,11c-5,5-27.7-5.5-35.9,2.7
	c-0.9,0.9-1.4,1.8-1.7,2.8c-0.1-0.3-0.2-0.6-0.4-0.9c-1-2-2.3-3.7-4-5.1c-2.1-1.7-4.8-2.5-6.9-0.3c-2.4,2.9-2.8,6.9-1,10.2
	c0.8,1.2,1.9,2.2,3.2,2.8c1.2,0.6,2.5,0.9,3.7,1.5c1.3,0.6,2.5,1.5,3.3,2.7c2.4,3.7,0.2,11.9-3.6,11.9c-7,0-15.7-23.4-27.3-23.4
	c-1.2,0-2.3,0.3-3.1,0.8c0.1-0.2,0.2-0.5,0.3-0.7c0.7-2.1,1-4.3,0.8-6.4c-0.3-2.7-1.6-5.2-4.6-5.1c-3.7,0.4-6.8,2.9-7.9,6.5
	c-0.3,1.4-0.2,2.9,0.3,4.3c0.5,1.3,1.1,2.4,1.6,3.7c0.6,1.3,0.7,2.8,0.5,4.2c-0.9,4.3-8.3,8.6-11,5.9c-5-5,5.5-27.7-2.7-35.9
	c-0.9-0.9-1.9-1.4-2.9-1.7c0.3-0.1,0.5-0.2,0.8-0.3c2-1,3.7-2.3,5.1-4c1.7-2.1,2.5-4.8,0.3-6.9c-2.9-2.4-6.9-2.8-10.2-1
	c-1.2,0.8-2.2,1.9-2.8,3.2c-0.6,1.2-0.9,2.5-1.5,3.7c-0.6,1.3-1.5,2.5-2.7,3.3c-3.7,2.4-11.9,0.2-11.9-3.6c0-7,23.4-15.7,23.4-27.3
	c0-1.3-0.3-2.3-0.8-3.2c0.3,0.1,0.5,0.2,0.8,0.3c2.1,0.7,4.3,1,6.4,0.8c2.7-0.3,5.2-1.6,5.1-4.6c-0.4-3.7-2.9-6.8-6.5-7.9
	c-1.4-0.3-2.9-0.2-4.3,0.3c-1.3,0.5-2.4,1.1-3.7,1.6c-1.3,0.6-2.8,0.7-4.2,0.5c-4.3-0.9-8.6-8.3-5.9-11c5-5,27.7,5.5,35.9-2.7
	c0.9-0.9,1.4-1.9,1.7-2.9c0.1,0.3,0.2,0.6,0.4,0.8c1,2,2.3,3.7,4,5.1c2.1,1.7,4.8,2.5,6.9,0.3c2.4-2.9,2.8-6.9,1-10.2
	c-0.8-1.2-1.9-2.2-3.2-2.8c-1.2-0.6-2.5-0.9-3.7-1.5c-1.3-0.6-2.5-1.5-3.3-2.7c-2.4-3.7-0.2-11.9,3.6-11.9c7,0,15.7,23.4,27.3,23.4
	c1.3,0,2.3-0.3,3.2-0.8c-0.1,0.3-0.2,0.5-0.3,0.8c-0.7,2.1-1,4.3-0.8,6.4c0.3,2.7,1.6,5.2,4.6,5.1c3.7-0.4,6.8-2.9,7.9-6.5
	c0.3-1.4,0.2-2.9-0.3-4.3c-0.5-1.3-1.1-2.4-1.6-3.7c-0.6-1.3-0.7-2.8-0.5-4.2c0.9-4.3,8.3-8.6,11-5.9c5,5-5.5,27.7,2.7,35.9
	c0.9,0.9,1.9,1.5,2.9,1.7c-0.3,0.1-0.7,0.3-1,0.4c-2,1-3.7,2.3-5.1,4c-1.7,2.1-2.5,4.8-0.3,6.9c2.9,2.4,6.9,2.8,10.2,1
	c1.2-0.8,2.2-1.9,2.8-3.2c0.6-1.2,0.9-2.5,1.5-3.7c0.6-1.3,1.5-2.5,2.7-3.3c3.7-2.4,11.9-0.2,11.9,3.6
	C191.2,119.5,167.8,128.2,167.8,139.7z"/>
</svg>
