<svg id="Layer_1" data-name="Layer 1" xmlns="http://www.w3.org/2000/svg" viewBox="0 0 205.48 204.65"><defs><style>.cls-1{fill:#fff;}</style></defs><title>asterisk</title><g id="q4Aaoy.tif"><path d="M117.81,169.52c-1.53-7.39-2.31-14.72-3.09-22.06-.2-1.91-.45-3.83-.69-5.74-.49,4.78-1,9.54-1.5,14.32-.27,2.45-.62,4.91-1.07,7.36-.57,3.12-1.28,6.24-2.16,9.36a59.21,59.21,0,0,1-8.58,18.79c-1.59,2.23-3.42,4.31-5.15,6.46l-.13-.09C85,208.44,71.31,212.12,59.8,206.6A25.1,25.1,0,0,1,51,199.83a24.79,24.79,0,0,1-5.37-13.62c-.7-7.54,1.46-14.87,6-22a39,39,0,0,1,6.48-7.57c6.72-6.25,14.47-9.68,22.67-11.88a111,111,0,0,1,16.39-3c4.49-.53,9-1,13.48-1.52l2.66-.3a2.15,2.15,0,0,1,.55,0c0-.13,0-.27,0-.4a1,1,0,0,0-1-1c-.65-.08-1.31-.2-2-.29-6.88-.85-13.74-1.59-20.63-2.57a108.37,108.37,0,0,1-21.68-5.37c-.67-.24-1.34-.49-2-.75q-2.24.93-4.42,2a72.78,72.78,0,0,0-11.12,6.79,50.47,50.47,0,0,0-5.23,4.46A93.22,93.22,0,0,0,38,151a62.66,62.66,0,0,0-12.85,26.88c-2.48,12.4-1.12,23.61,4.71,33.28,1.35,2.25,3,4.26,4.56,6.38.14.2.26.4.39.6l1.46,1.46c1.08.8,2.17,1.57,3.22,2.39,9.21,7.18,20.09,10.57,33.23,8.81A56.8,56.8,0,0,0,95.6,222a63.32,63.32,0,0,0,9.2-7.11c.23-.22.5-.39.75-.59l3.78-3.78c.6-.71,1.2-1.43,1.81-2.14A81.49,81.49,0,0,0,119.35,197a78.23,78.23,0,0,0,4.29-8.28A99.49,99.49,0,0,1,117.81,169.52Zm15.91-28.68a.71.71,0,0,0,0,.2l0-.2c0-.11,0-.23,0-.34A.42.42,0,0,0,133.72,140.84ZM220,46.74a50,50,0,0,0-5.21-7,29,29,0,0,0-4.58-3.87,45.06,45.06,0,0,0-11.57-6.38A44.37,44.37,0,0,0,184,26.59a46.86,46.86,0,0,0-18.57,3.74,69.91,69.91,0,0,0-17.63,10.54,79.49,79.49,0,0,0-9.31,8.94,70.11,70.11,0,0,0-9.85,14.62q-1.41,2.73-2.58,5.51T124,75.34c.38,1.09.74,2.19,1.07,3.3a148.69,148.69,0,0,1,5.14,26.27q.79,7.13,1.64,14.25c.13,1.12.18,1.18,1.3,1.32l.18,0c3.6.44,7.2.88,10.8,1.25a159.31,159.31,0,0,1,23.36,4,103,103,0,0,1,12.69,4.1c.73-.27,1.46-.54,2.18-.83a73.46,73.46,0,0,0,7.07-3.26,69.25,69.25,0,0,0,11.85-7.8,75.66,75.66,0,0,0,9.27-9.07,63.44,63.44,0,0,0,14.41-29C227.43,67.47,225.83,56.37,220,46.74Zm-16,32.73a36.55,36.55,0,0,1-6.5,15.61,46.18,46.18,0,0,1-6.68,7.23c-5.28,4.87-11.38,7.7-17.75,9.81a86.15,86.15,0,0,1-15.9,3.55c-6.61.87-13.2,1.57-19.8,2.34-.29,0-.58,0-.87.08-.58.11-.73-.16-.7-.67.07-1.14.09-2.27.19-3.42a203.56,203.56,0,0,1,2.73-20.89,75.58,75.58,0,0,1,6.7-20.46,46.88,46.88,0,0,1,7.29-10.73c7.27-7.23,13.37-10.87,20.34-12.37a25.61,25.61,0,0,1,17.08,1.89,24.26,24.26,0,0,1,9.33,7.45C203.7,64.66,205.26,71.52,204.05,79.47Z" transform="translate(-20.59 -26.58)"/></g><g id="q4Aaoy.tif-2" data-name="q4Aaoy.tif"><path d="M113.82,140c.06.59.14,1.18.21,1.77,0-.31.07-.63.1-.94C114.19,140.18,114.16,140,113.82,140Zm-.34-84.52A50.36,50.36,0,0,0,109,50.21a91.87,91.87,0,0,0-8.17-7.76A63,63,0,0,0,74,29.6a52.05,52.05,0,0,0-19.4-.47,40,40,0,0,0-13.88,5.18c-2.25,1.35-4.26,3-6.38,4.56l-.61.4-1.46,1.46c-.73,1-1.44,2-2.2,3a2.27,2.27,0,0,1-.18.25C22.68,53.15,19.29,64,21.05,77.17a56.75,56.75,0,0,0,8.77,22.92,62.78,62.78,0,0,0,7.11,9.2c.22.24.39.5.59.75l3.78,3.79c.71.6,1.43,1.19,2.14,1.8a80.17,80.17,0,0,0,23,13.91c2.52-1,5.08-1.95,7.67-2.74a148.58,148.58,0,0,1,26.26-5.14q7.14-.8,14.26-1.64c1.13-.13,1.18-.18,1.32-1.33.44-3.65.89-7.3,1.27-11a159.27,159.27,0,0,1,4-23.36c.79-3,1.69-6,2.74-9A74.34,74.34,0,0,0,113.48,55.43Zm-2.43,63.19-.48-.05q-7.39-.75-14.78-1.54a103.08,103.08,0,0,1-16.73-3.24,59.23,59.23,0,0,1-18.78-8.57c-2.23-1.6-4.31-3.43-6.46-5.15l.09-.13C43.39,89.45,39.71,75.8,45.23,64.29a27.25,27.25,0,0,1,3.93-6.07A23.08,23.08,0,0,1,52,55.46a24.26,24.26,0,0,1,11.85-5.14c.58-.1,1.18-.17,1.78-.23,7.53-.69,14.86,1.47,22,6a38.59,38.59,0,0,1,7.57,6.47c6.25,6.72,9.67,14.48,11.88,22.67a111.2,111.2,0,0,1,3,16.39c0,.31.07.63.11.94.58,5.07,1.14,10.14,1.71,15.21C112,118.61,111.88,118.71,111.05,118.62ZM221.5,169.91A69.54,69.54,0,0,0,211,152.27,77.75,77.75,0,0,0,202,143a69.73,69.73,0,0,0-14.62-9.85c-2.39-1.23-4.81-2.32-7.26-3.3A107.48,107.48,0,0,1,165,134c-7.38,1.54-14.72,2.31-22.05,3.1-2.64.28-5.28.65-7.91.95a1,1,0,0,0-1,1c-.05.47-.13.95-.2,1.42.1-.14.31-.18.59-.16,1.14.07,2.27.09,3.42.19a206.37,206.37,0,0,1,20.89,2.73c1.3.26,2.6.53,3.89.83l.22,0A70.81,70.81,0,0,1,179.18,150a46.56,46.56,0,0,1,10.73,7.29c5.32,5.35,8.69,10.05,10.69,14.94a31.15,31.15,0,0,1,1.68,5.39,25.61,25.61,0,0,1-1.89,17.08,24.31,24.31,0,0,1-7.46,9.34,25.24,25.24,0,0,1-11.14,4.6,30.8,30.8,0,0,1-9.43-.07,36.75,36.75,0,0,1-15.62-6.49,46.62,46.62,0,0,1-7.22-6.69c-4.87-5.27-7.7-11.38-9.81-17.75a86,86,0,0,1-3.55-15.9c-.87-6.6-1.57-13.2-2.35-19.8a8.5,8.5,0,0,0-.07-.87c-.53,4.26-1,8.52-1.54,12.78-.32,2.61-.66,5.23-1,7.84a109,109,0,0,1-5.37,21.69c-.66,1.81-1.37,3.6-2.16,5.35.74,1.74,1.56,3.46,2.46,5.18a68.87,68.87,0,0,0,7.8,11.85A75,75,0,0,0,143,215a63.44,63.44,0,0,0,29,14.41,50.4,50.4,0,0,0,18.85.47,41.19,41.19,0,0,0,14.3-5.35,51.28,51.28,0,0,0,7-5.2,30.62,30.62,0,0,0,3.87-4.59,45.64,45.64,0,0,0,9.18-24.5h0c0-.58.06-1.17.07-1.76A47,47,0,0,0,221.5,169.91Z" transform="translate(-20.59 -26.58)"/><path class="cls-1" d="M131.81,119.16c.13,1.12.18,1.18,1.3,1.32C131.89,120.37,131.84,120.32,131.81,119.16Z" transform="translate(-20.59 -26.58)"/><path class="cls-1" d="M133.74,141c-.53,4.26-1,8.52-1.54,12.78-.12-3.79-.22-7.59-.35-11.39a6.61,6.61,0,0,0,0-.89A.63.63,0,0,1,132,141a.77.77,0,0,1,.65-.18l1.08,0A.71.71,0,0,0,133.74,141Z" transform="translate(-20.59 -26.58)"/><g id="q4Aaoy.tif-3" data-name="q4Aaoy.tif"><path d="M113.82,140c.06.59.14,1.18.21,1.77,0-.31.07-.63.1-.94C114.19,140.18,114.16,140,113.82,140Z" transform="translate(-20.59 -26.58)"/><path class="cls-1" d="M131.81,119.16c.13,1.12.18,1.18,1.3,1.32C131.89,120.37,131.84,120.32,131.81,119.16Z" transform="translate(-20.59 -26.58)"/><path class="cls-1" d="M133.74,141c-.53,4.26-1,8.52-1.54,12.78-.12-3.79-.22-7.59-.35-11.39a6.61,6.61,0,0,0,0-.89A.63.63,0,0,1,132,141a.77.77,0,0,1,.65-.18l1.08,0A.71.71,0,0,0,133.74,141Z" transform="translate(-20.59 -26.58)"/></g></g></svg>