<?xml version="1.0" encoding="utf-8"?>
<!-- Generator: Adobe Illustrator 25.0.1, SVG Export Plug-In . SVG Version: 6.00 Build 0)  -->
<svg version="1.1" id="Layer_1" xmlns="http://www.w3.org/2000/svg" xmlns:xlink="http://www.w3.org/1999/xlink" x="0px" y="0px"
	 viewBox="0 0 250 250" style="enable-background:new 0 0 250 250;" xml:space="preserve">
<style type="text/css">
	.st0{fill:#FFFFFF;}
</style>
<g id="q4Aaoy.tif">
	<path d="M118.3,174c-1.8-8.9-2.8-17.8-3.7-26.6c-0.2-2.3-0.5-4.6-0.8-6.9c-0.6,5.8-1.2,11.5-1.8,17.3c-0.3,3-0.7,5.9-1.3,8.9
		c-0.7,3.8-1.5,7.5-2.6,11.3c-2.1,8.1-5.6,15.8-10.4,22.7c-1.9,2.7-4.1,5.2-6.2,7.8l-0.2-0.1c-12.6,12.7-29.1,17.1-43,10.5
		c-4.1-1.9-7.7-4.7-10.6-8.2c-3.8-4.7-6-10.4-6.5-16.4c-0.8-9.1,1.8-17.9,7.2-26.6c2.2-3.4,4.8-6.4,7.8-9.1
		c8.1-7.5,17.5-11.7,27.4-14.3c6.5-1.7,13.1-2.9,19.8-3.6c5.4-0.6,10.9-1.2,16.3-1.8l3.2-0.4c0.2,0,0.4,0,0.7,0c0-0.2,0-0.3,0-0.5
		c0-0.7-0.5-1.2-1.2-1.2c-0.8-0.1-1.6-0.2-2.4-0.3c-8.3-1-16.6-1.9-24.9-3.1c-8.9-1.3-17.7-3.4-26.2-6.5c-0.8-0.3-1.6-0.6-2.4-0.9
		c-1.8,0.7-3.6,1.6-5.3,2.4c-4.7,2.3-9.2,5.1-13.4,8.2c-2.2,1.6-4.3,3.4-6.3,5.4c-3.3,3.1-6.5,6.4-9.4,9.9
		c-7.7,9.4-13,20.5-15.5,32.4c-3,15-1.4,28.5,5.7,40.2c1.6,2.7,3.6,5.1,5.5,7.7c0.2,0.2,0.3,0.5,0.5,0.7l1.8,1.8
		c1.3,1,2.6,1.9,3.9,2.9c11.1,8.7,24.2,12.8,40.1,10.6c9.9-1.5,19.3-5.1,27.6-10.6c4-2.5,7.7-5.4,11.1-8.6c0.3-0.3,0.6-0.5,0.9-0.7
		l4.6-4.6c0.7-0.9,1.4-1.7,2.2-2.6c3.7-4.3,7-8.9,9.9-13.7c1.9-3.2,3.7-6.6,5.2-10C122.3,189.7,119.9,182,118.3,174z M137.5,139.4
		c0,0.1,0,0.2,0,0.2V139.4c0-0.1,0-0.3,0-0.4C137.5,139.1,137.5,139.3,137.5,139.4z M241.7,25.8c-1.8-3-3.9-5.8-6.3-8.4
		c-1.7-1.7-3.5-3.3-5.5-4.7c-4.3-3.2-9-5.8-14-7.7c-5.6-2.2-11.6-3.3-17.7-3.5c-7.7,0-15.3,1.5-22.4,4.5
		c-7.7,3.2-14.8,7.5-21.3,12.7c-4,3.3-7.8,6.9-11.2,10.8c-4.7,5.4-8.7,11.3-11.9,17.6c-1.1,2.2-2.2,4.4-3.1,6.6
		c-0.9,2.2-1.8,4.4-2.5,6.5c0.5,1.3,0.9,2.6,1.3,4c3,10.4,5.1,21,6.2,31.7c0.6,5.7,1.3,11.5,2,17.2c0.2,1.4,0.2,1.4,1.6,1.6h0.2
		c4.3,0.5,8.7,1.1,13,1.5c9.5,0.9,18.9,2.5,28.2,4.8c5.2,1.3,10.3,3,15.3,4.9c0.9-0.3,1.8-0.7,2.6-1c2.9-1.2,5.8-2.5,8.5-3.9
		c5.1-2.6,9.9-5.8,14.3-9.4c4-3.3,7.8-7,11.2-10.9c8.7-10,14.7-22,17.4-35C250.6,50.9,248.7,37.5,241.7,25.8z M222.4,65.3
		c-1.1,6.8-3.8,13.3-7.8,18.8c-2.4,3.2-5.1,6.1-8.1,8.7c-6.4,5.9-13.7,9.3-21.4,11.8c-6.2,2-12.7,3.5-19.2,4.3
		c-8,1-15.9,1.9-23.9,2.8c-0.3,0-0.7,0-1,0.1c-0.7,0.1-0.9-0.2-0.8-0.8c0.1-1.4,0.1-2.7,0.2-4.1c0.7-8.5,1.8-16.9,3.3-25.2
		c1.5-8.6,4.2-16.9,8.1-24.7c2.3-4.7,5.3-9.1,8.8-12.9c8.8-8.7,16.1-13.1,24.5-14.9c6.9-1.6,14.2-0.8,20.6,2.3c4.4,2,8.3,5.1,11.3,9
		C222,47.5,223.9,55.7,222.4,65.3L222.4,65.3z"/>
</g>
<g id="q4Aaoy.tif-2">
	<path d="M113.5,138.4c0.1,0.7,0.2,1.4,0.3,2.1c0-0.4,0.1-0.8,0.1-1.1C114,138.6,113.9,138.4,113.5,138.4z M113.1,36.4
		c-1.7-2.2-3.5-4.4-5.4-6.4c-3.1-3.3-6.4-6.4-9.9-9.4C88.4,13,77.3,7.7,65.5,5.1C57.8,3.5,49.8,3.3,42,4.6c-5.9,1-11.6,3.1-16.8,6.3
		c-2.7,1.6-5.1,3.6-7.7,5.5l-0.7,0.5l-1.8,1.8c-0.9,1.2-1.7,2.4-2.7,3.6c-0.1,0.1-0.1,0.2-0.2,0.3C3.5,33.6-0.6,46.7,1.6,62.6
		C3,72.4,6.6,81.9,12.1,90.2c2.5,4,5.4,7.7,8.6,11.1c0.3,0.3,0.5,0.6,0.7,0.9l4.6,4.6c0.9,0.7,1.7,1.4,2.6,2.2
		c8.2,7.1,17.6,12.8,27.8,16.8c3-1.2,6.1-2.4,9.3-3.3c10.4-3,21-5.1,31.7-6.2c5.7-0.6,11.5-1.3,17.2-2c1.4-0.2,1.4-0.2,1.6-1.6
		c0.5-4.4,1.1-8.8,1.5-13.3c0.9-9.5,2.5-18.9,4.8-28.2c1-3.6,2-7.2,3.3-10.9C122.8,51.7,118.5,43.6,113.1,36.4L113.1,36.4z
		 M110.2,112.6l-0.6-0.1c-5.9-0.6-11.9-1.2-17.8-1.9c-6.8-0.7-13.6-2.1-20.2-3.9c-8.1-2.1-15.8-5.6-22.7-10.3
		c-2.7-1.9-5.2-4.1-7.8-6.2l0.1-0.2C28.5,77.4,24.1,60.9,30.7,47c1.2-2.6,2.8-5.1,4.7-7.3c1-1.2,2.2-2.3,3.4-3.3
		C43,33,48,30.9,53.2,30.2c0.7-0.1,1.4-0.2,2.1-0.3c9.1-0.8,17.9,1.8,26.6,7.2c3.4,2.2,6.4,4.8,9.1,7.8c7.5,8.1,11.7,17.5,14.3,27.4
		c1.7,6.5,2.9,13.1,3.6,19.8c0,0.4,0.1,0.8,0.1,1.1c0.7,6.1,1.4,12.2,2.1,18.4C111.3,112.6,111.2,112.7,110.2,112.6L110.2,112.6z
		 M243.5,174.5c-3.1-7.7-7.4-14.9-12.7-21.3c-3.3-4-6.9-7.8-10.9-11.2c-5.4-4.7-11.3-8.7-17.6-11.9c-2.9-1.5-5.8-2.8-8.8-4
		c-6,2.1-12.1,3.8-18.2,5c-8.9,1.9-17.8,2.8-26.6,3.7c-3.2,0.3-6.4,0.8-9.5,1.1c-0.7,0-1.2,0.5-1.2,1.2c-0.1,0.6-0.2,1.1-0.2,1.7
		c0.1-0.2,0.4-0.2,0.7-0.2c1.4,0.1,2.7,0.1,4.1,0.2c8.5,0.7,16.9,1.8,25.2,3.3c1.6,0.3,3.1,0.6,4.7,1h0.3c6.8,1.6,13.5,4,19.7,7.2
		c4.7,2.3,9.1,5.3,12.9,8.8c6.4,6.5,10.5,12.1,12.9,18c0.9,2.1,1.6,4.3,2,6.5c1.6,6.9,0.8,14.2-2.3,20.6c-2,4.4-5.1,8.3-9,11.3
		c-4,2.9-8.6,4.8-13.4,5.6c-3.8,0.6-7.6,0.5-11.4-0.1c-6.8-1.1-13.3-3.8-18.9-7.8c-3.2-2.4-6.1-5.1-8.7-8.1
		c-5.9-6.4-9.3-13.7-11.8-21.4c-2-6.2-3.5-12.7-4.3-19.2c-1-8-1.9-15.9-2.8-23.9c0-0.4,0-0.7-0.1-1c-0.6,5.1-1.2,10.3-1.9,15.4
		c-0.4,3.1-0.8,6.3-1.2,9.5c-1.3,8.9-3.4,17.7-6.5,26.2c-0.8,2.2-1.7,4.3-2.6,6.5c0.9,2.1,1.9,4.2,3,6.3c2.6,5.1,5.8,9.9,9.4,14.3
		c3.3,4,7,7.8,10.9,11.2c10,8.7,22,14.7,35,17.4c7.5,1.6,15.2,1.8,22.7,0.6c6.1-1.1,12-3.2,17.3-6.5c3-1.8,5.8-3.9,8.4-6.3
		c1.7-1.7,3.3-3.5,4.7-5.5c6.5-8.6,10.4-18.8,11.1-29.6l0,0c0-0.7,0.1-1.4,0.1-2.1C248,189.2,246.5,181.6,243.5,174.5z"/>
	<path class="st0" d="M135.2,113.2c0.2,1.4,0.2,1.4,1.6,1.6C135.3,114.7,135.3,114.6,135.2,113.2z"/>
	<path class="st0" d="M137.6,139.6c-0.6,5.1-1.2,10.3-1.9,15.4c-0.1-4.6-0.3-9.2-0.4-13.7c0-0.4,0-0.7,0-1.1c0-0.2,0-0.4,0.2-0.6
		c0.2-0.2,0.5-0.3,0.8-0.2h1.3C137.5,139.4,137.5,139.5,137.6,139.6z"/>
	<g id="q4Aaoy.tif-3">
		<path d="M113.5,138.4c0.1,0.7,0.2,1.4,0.3,2.1c0-0.4,0.1-0.8,0.1-1.1C114,138.6,113.9,138.4,113.5,138.4z"/>
		<path class="st0" d="M135.2,113.2c0.2,1.4,0.2,1.4,1.6,1.6C135.3,114.7,135.3,114.6,135.2,113.2z"/>
		<path class="st0" d="M137.6,139.6c-0.6,5.1-1.2,10.3-1.9,15.4c-0.1-4.6-0.3-9.2-0.4-13.7c0-0.4,0-0.7,0-1.1c0-0.2,0-0.4,0.2-0.6
			c0.2-0.2,0.5-0.3,0.8-0.2h1.3C137.5,139.4,137.5,139.5,137.6,139.6z"/>
	</g>
</g>
</svg>
