<?xml version="1.0" encoding="utf-8"?>
<!-- Generator: Adobe Illustrator 25.0.1, SVG Export Plug-In . SVG Version: 6.00 Build 0)  -->
<svg version="1.1" id="Layer_1" xmlns="http://www.w3.org/2000/svg" xmlns:xlink="http://www.w3.org/1999/xlink" x="0px" y="0px"
	 viewBox="0 0 250 250" style="enable-background:new 0 0 250 250;" xml:space="preserve">
<path d="M0,166c0-30,0-60,0-90c1-3.3,2-6.6,3-9.9c0-0.3,0-0.6,0-0.9c3.4-2.5,5.1,1.8,7.9,1.9c-0.9,3.8,0.6,6.5,4.1,9
	c-0.4-1.7-0.6-2.7-1.1-4.6c3.9,4.3,7.1,7.9,10.3,11.5c0.4-0.3,0.8-0.6,1.1-0.8c-2.6-3.6-5-7.4-7.8-10.9c-1.6-2-3.7-3.5-5.5-5.3
	c0.2-1,0.5-1.9,0.8-3.1c3.9,2.8,7.7,5.5,11.4,8.1c-1.6-4.1-8.1-5.6-3.4-11.4c0.7-0.9,1.8-1.5,2.7-2.3c1.1-1,2.2-1.9,3.4-2.9
	c-3.1-2,0.3-3.6,0.3-5.4c0-0.7,0-1.5-0.3-2.1c-1.2-2.1-2.5-4.2-4.1-6.8c1.7,0.2,2.4,0.3,3.1,0.4c0.3-0.3,0.6-0.7,0.9-1
	c-2.2-2.2-4.2-4.7-6.7-6.4c-3-2-6.6-4.8-9.7-4.4c-2.6,0.3-3.9-0.7-5.8-1.5c-1.4-0.6-3-0.7-4.5-1C0,17.3,0,8.6,0,0
	c17.9,0,35.8,0,54.4,0c-0.5,2.5-1.3,6.2-1.1,6.3c5.2,1.5,3,6.9,5.5,10c1.6-4.1,3.1-8,4.5-11.6c1.5,2.6,3.4,5.8,6,10.2
	c0-5.6,0-9.9,0-14.3C72.9,0.3,76.5,0,80.2,0c20.4,0,40.9,0,61.3,0c8.9,0,17.7-0.1,26.6,0.1c1.7,0,4.7,1.4,4.7,2.1
	c0,2.8-1,5.5-1.5,8.1c2.1,1,3.9,1.8,4.4,2.1c0,4.7,0,8.5,0,11c2.9-0.1,4.8-0.2,6.6-0.3c0,0.6,0,1.1,0,2.7c0.9-1.4,1.3-2.1,1.7-2.7
	c0.8-0.4,2-1.4,2.4-1.2c2,1.2,3.9,4,5.7,3.9c5.9-0.3,7.5,3.5,9.1,7.7c0.8,2.1,1.8,4.2,2.8,6.2c0.2,0.4,1,0.5,1.5,0.5
	c0.3,0,1-0.6,0.9-0.8c-0.6-3-1.3-6-1.9-9c-0.5-2.5-1-5-1.6-8.2c0.9,1.1,1.4,1.7,1.8,2.3c2.8-4.1,5.9-0.5,8.8-0.3
	c1.1,0.1,2.3,0.2,3.4,0.3c0-1,0.2-2.1-0.1-3c-1.6-4.6,0.5-12.4,4.3-16.1c0.4-0.4-0.1-2.1-0.6-2.9c-0.4-0.6-1.6-0.8-2.4-1.2
	c7.9-1,15.6-1.2,23.2-0.9c7.2,0.3,9.3,3.3,8.4,10.7c-0.1,0.8-0.2,1.5-0.2,2.3c0,15.1,0,30.1,0,45.2c-1.7,0.9-2.2,3-3.4,3.4
	c-2,0.6-4.3,0.2-6.3,0.2c-0.4,2.1-0.8,4.6-1.5,8.3c-1.1-2.2-1.5-3.2-2.1-4.4c-3,3.1,5.9,7.9-2.1,9.8c-0.6,0.7-1.2,1.3-1.8,2
	c1.9,1.2,3.8,2.3,5.1,3.2c-1.8,1.1-4.5,2.6-7,4.2c-0.4,0.2-0.4,1-0.6,1.5c0.5,0,0.9-0.1,1.4-0.1c2.1,0.1,4.2,0.3,6.3,0.4
	c0,0.4-0.1,0.9-0.1,1.3c0.7-0.6,1.5-1.2,2.6-2.2c0.7,1.9,1.1,3.3,1.4,4.2c-3,2.6-5.8,5.1-8.7,7.6c0.2,0.3,0.4,0.7,0.6,1
	c2.3-0.8,4.7-1.6,6.9-2.4c-0.2,1.1-0.3,2.4-0.8,3.5c-0.5,1.1-1.4,2.1-2.1,3.2c0.4,0.2,0.8,0.5,1.2,0.7c0.8-1.5,1.4-3.2,2.5-4.3
	c1.3-1.4,3.1-2.7,4.8-3.2c1-0.3,3.4,1.2,3.5,2c0.2,1.9-0.4,4.1-1.1,5.9c-2.2,5.3-4.6,10.5-6.9,15.7c0.4,0.2,0.9,0.4,1.3,0.6
	c1.3-3,2.5-6,3.8-9c0.4,0,0.7,0.1,1.1,0.1c-0.5,3.1-1.1,6.3-1.6,9.4c0.2,0,0.4,0.1,0.6,0.1c1-3,1.9-6,3.1-9.7c0,32.6,0,64.4,0,96.3
	c-0.7-0.2-1.4-0.4-3.4-1c1.8,1.7,2.5,2.4,3.6,3.4c-1.7,0.2-4.1,0.9-4.3,0.5c-1.9-3.7-3.1,0.4-4.6,0.2c-0.4-0.3-0.7-0.5-1.1-0.8
	c-0.3,0-0.6-0.1-1-0.1l0.1,0.2c-0.4-1.1-0.8-2.1-1.1-3.2c0,0,0.1,0.2,0.1,0.2c-0.3-0.3-0.6-0.7-1-1c-0.4,0.7-0.7,1.4-1.1,2.1
	c0,0.3,0,0.5,0,0.8c0,0.3,0,0.6,0,0.9c-5.2,0.2-3.3,3.9-3,6.9c-3.1,0.3-6.2,4.5-9.3-0.5c1.3,3.1,2.7,6.2,4.1,9.6
	c-8.1-3.1-7.1,4-8.5,7.8c3.8,3.2,7.9,6.6,12,10.2c1,0.9,1.6,2.2,2.5,3.3c1,1.1,2.1,2,3.2,3c-53.4,0-106.7,0-160.1,0
	c-1.8-5.4-4.9-9.4-10.6-11.1c-3.5-1.1-6.9-2.7-10.4-4.1c0-0.3,0-0.6,0-0.9c-0.2-0.2-0.4-0.5-0.6-0.7c-0.1,0.3-0.2,0.6-0.3,0.9
	c-0.3,0-0.7,0.1-1,0.1c-1.1,0.3-2.1,0.7-3.2,0.8c-2.2,0.1-5-1.2-5.1,2.7c-2.3-0.5-2.5,4.2-5.4,2.2c-0.1-0.1-0.8,0.7-1.3,1
	c-3.9,2.1-2.6,5.9-3,9.2c-12,0-24,0-36,0c0-15.3,0-30.7,0-46c1.2-0.4,2.3-0.8,3.6-1.2c0.4,1.4,0.7,3.1,1.5,4.6
	c0.6,1.1,1.9,1.8,2.8,2.7c0.4,0.9,0.9,1.8,1.3,2.6c0.3-0.1,0.6-0.3,0.8-0.4c-0.4-0.8-0.8-1.5-1.2-2.3c-0.5-1.6-0.9-3.2-1.7-6.2
	c2.1,1.9,3.1,3.1,4.4,4.1c1.3,1,2.7,1.8,4.1,2.8c0.2-0.3,0.5-0.5,0.7-0.8c-2.6-3.2-5.1-6.4-8.3-10.4c2.6-0.2,4.9-0.4,8.1-0.6
	c0-1.5,0.6-3.7-0.1-5.2c-1.7-3.8-0.8-6.5,4.5-8.8c-1.8-2-3.4-3.8-5.2-5.7c0.1-1.2,0.9-4.1,0.3-4.5c-4-2.2-8.3-3.9-12.5-5.8
	C3,168.7,3,168.4,3,168.2C2,167.4,1,166.7,0,166z M134.2,34.9c-0.4-0.3-0.7-0.5-1.1-0.8c-1.3,0.3-2.5,0.8-3.8,0.8
	c-5.6-0.2-6.3,0.4-5.9,4.4c-3.1-0.6-6.5-1.2-10.5-1.9c0.5,2.2,0.7,3.2,1,4.2c-0.3,0.2-0.7,0.4-1,0.6c-4-5.2-8-10.4-12.1-15.7
	c0.8,3.4,2.4,6.3,4.4,9c1.5,2,3.4,3.4,1.1,6.2c-0.6,0.7,0.3,2.9,0.9,4.2c0.7,1.7,1.8,3.3,2.8,4.9c-1.6,0.8-3.1,1.5-4.6,2.3
	c0.7,0.9,1.6,2.1,2.7,3.5c-2.1,0-3.8,0-5.3,0c-0.3,0.5-0.3,0.7-0.4,0.8c0.9,0.4,1.8,0.8,3.1,1.4c-1.2,0.5-1.8,0.8-2.8,1.1
	c1.8,1.1,3.1,1.9,4.5,2.8c-1.2,0.5-2.1,1-3.4,1.6c1.8,0.9,3,1.6,4.5,2.4c-2.4,1.2-3.9,2.1-5.5,2.9c0.3,0.6,0.6,1.1,0.8,1.7
	c2.6-1.2,5.2-2.3,7.2-3.2c8.4,5.3,5.2,13.5,6.4,20.4c3-0.5,3.9-1.6,5.1-6.2l0,0c1.2-0.9,2.3-1.8,3.5-2.6c1.4-0.9,2.9-1.8,4.4-2.7
	c2.2,4,3,0.4,4.2-1.1c0.4,1,0.6,1.7,0.7,2c1.8-1.7,3.2-4.2,5.1-4.8c4.5-1.4,9.2-1.9,7.5-8.5c-0.2-0.8,0.3-1.8,0.5-2.8
	c0.5-2.7,0.9-5.5,1.4-8.5c2.4-3.7,5.2-8,8-12.3c-0.4-0.3-0.7-0.6-1.1-0.9c-1.4,1.3-3.3,2.3-4,3.9c-1.4,3.4-3,5.2-6,2.6
	c-0.2-1.6-0.8-3.1-1.8-3.9c-1.6-1.2-3.7-1.9-5.4-3c-1.6-1.1-2.9-2.5-4.3-3.7c-0.4-0.4-0.7-0.7-1.1-1.1
	C134.1,34.9,134.2,34.9,134.2,34.9z M183.6,177.5c3,2.4,3-0.4,3.4-2.1c0.4-2,0.4-4,0.6-5.8c2.3,1.2,5.3,3.4,5.7,3
	c2.2-2.2,3.8-5.1,6.1-8.5c2.6,1,6.6,2.6,10.2,4.1c-1.2-2.5-2.6-5.3-3.9-8.2c0.2-0.1,0.5-0.2,0.7-0.3c1.2,1.2,2.5,2.4,3.7,3.5
	c0.2-0.2,0.5-0.3,0.7-0.5c-0.6-2.2-1.3-4.3-1.9-6.4c0.4,0,1.3-0.1,2.1-0.1c-0.7-1.3-1.5-2.6-2.4-4.4c2.6,0.7,4.8,1.4,7.1,2.1
	c-2.7-2-2.2-6.3-5.7-7.6c-1.3-0.5-2.5-1.4-3.5-2c1.3-0.6,2.5-1,3.5-1.6c1.3-0.7,2.5-2.2,3.7-2.2c1.8,0,3.6,1.1,5.4,1.7
	c1.1,1.2,2.1,2.5,3.2,3.7c-1.4-8.9-8.7-13.1-13.9-18.9c-0.3-0.4-2.2-0.2-2.3,0.2c-0.3,0.8,0,1.8,0,2.8c-1.3-0.4-2.5-0.8-4.5-1.5
	c-0.3,0.5-1.3,2-2.4,3.9c-0.9-1-1.5-1.7-2.2-2.4c-0.3-0.4-0.5-0.7-0.8-1.1c-2.4-1.4-4.8-2.8-7-4.1c0,0.2-0.1,1.6-0.3,3.6
	c-1.7-2-2.9-3.5-4.8-5.8c0.6,3.7,1.1,6.4,1.7,10c-2.1-2.7-3.6-4.8-5.9-7.7c0.3,2.1,0.5,3.1,0.8,5.1c-1.4-1.7-2.2-2.7-2.6-3.2
	c-3.2,1.9-6.1,3.6-9,5.3c1.9,2.5,3.8,5,5.6,7.5c-3.3-0.5-6.3-1-10.7-1.7c4.1,5.8,7.4,10.3,10.7,14.9c-2.2,0.8-4.7,1.6-7.7,2.6
	c2.9,2.3,5.3,4.4,7.8,6.4c-0.2,0.1-0.4,0.2-0.6,0.3c2.7,1.7,5.5,3.5,8.1,5.2c1-0.5,2.5-1.1,5.2-2.4
	C186,169.9,184.8,173.7,183.6,177.5c-3.5,4.8-1.3,9.6-0.6,14.4c0.5,0,0.9,0,1.4,0C184.2,187.1,183.9,182.3,183.6,177.5z
	 M140.3,199.5c1.1-1.2,2.1-2.3,3.2-3.6c-6-3.2-9.1-7.7-8.4-13.4c-2,1.4-3.9,2.8-6.4,4.7c0.1-2.9,0.2-4.4,0.3-6.3
	c-1.9,0.8-3.2,1.2-4.4,1.8c-1.1,0.6-2.1,1.6-3.1,2.4c-0.8-1.1-1.7-2.2-2.3-3.4c-1-1.9-1.7-3.8-2.6-5.8c-0.5,0.2-0.9,0.3-1.4,0.5
	c-0.2,1.9-0.3,3.8-0.6,6.5c-5.7-4.8-5.1,0.8-6,2.7c-2-0.6-3.6-1-6.3-1.8c1.4,2.3,2.1,3.4,2.8,4.5c-0.2,0.2-0.4,0.3-0.5,0.5
	c-1-0.8-2.1-1.6-3.5-2.8c0.2,1.7,0.3,2.9,0.5,5.3c-2.7-2.3-4.5-3.8-6.3-5.3c-0.2,0.2-0.4,0.5-0.7,0.7c1.7,1.9,3.4,3.8,5.3,5.9
	c-1.5,0.5-3.1,1-5,1.6c1.6,1.1,2.6,1.9,3.7,2.7c-5.7,0.9-2.9,5-3.7,8.1c2.5,0.3,4.6,0.5,6.9,0.7c1.7,2.7,3.1,5.7,6.5,8.3
	c4.7,3.6,7.2,9.9,10.2,14.4c7.8,0.6,8.4-4.5,8.1-10c4.6,1.3,9.1,2.5,13.4,3.7c-0.4-5.2-0.8-10-1.3-16.1c0.5-0.3,2-1.1,3.5-2
	C141.8,202.6,141,200.9,140.3,199.5z M50.4,105.5c-0.4,0.2-0.9,0.5-1.3,0.7c-1.6-1.1-3.2-2.2-4.9-3.3c0,0.3,0,0.6,0,0.9
	c-1.7-0.2-3.3-0.3-5.7-0.6c1.3,2,2.3,3.3,3.2,4.6c-0.3,0.3-0.6,0.7-0.8,1c-1.4-0.9-2.8-1.8-4.9-3.1c1.1,2.1,1.8,3.6,3.1,6
	c-2.1-1.2-3.2-1.8-4.1-2.3c-0.1,1.4-0.3,2.9-0.4,4.5c0.6,0.1,2,0.3,4.9,0.6c-2.9,1.1-4.2,1.6-6.8,2.6c3.7,1.1,5.9,1.8,9.8,2.9
	c-3.1,3.1-5.6,5.7-8.2,8.3c2.9,0,5.8,0,8.6,0c0.1,0.3,0.2,0.6,0.3,0.9c-1.4,0.9-2.8,1.8-4.7,3.1c1.5,0,2.4,0,3.3,0
	c-1.1,1.5-2,2.7-3,3.9c0.2,0.3,0.5,0.7,0.7,1c1.7-0.9,3.4-1.8,6-3.2c-0.2,2-0.4,3.6-0.7,5.8c1-0.7,1.8-1.2,2.6-1.9
	c1-0.9,2-1.9,2.9-2.9c0.4,1.5,0.9,3,1.1,3.9c1.9-0.7,4-1.6,6.3-2.5c0.2,1.6,0.3,2.8,0.4,4.2c0.9-1.1,1.6-1.8,2.3-2.6
	c0.9,1.1,1.6,2.1,2.9,3.7c-0.1-1.6-0.2-2.4-0.4-4.6c3.5,3.2,6.1,5.6,8.7,7.9c0.2-0.5,0.4-1,0.7-1.7c1.1,1.9,2.1,3.4,3,5
	c0.2-0.1,0.4-0.2,0.6-0.3c-2.2-5.5-4.4-10.9-6.7-16.4c0.5-0.3,0.9-0.6,1.4-0.8c2,1.4,4,2.9,5.7,4.1c1-0.4,2.1-1,3.4-1.6
	c-2.8-1.8-4.4-2.9-6.1-4c0.2-0.3,0.3-0.5,0.5-0.8c2.8,0.7,5.6,1.4,9.1,2.2c-0.5-2.3-1.2-5.1-1.7-7.8c-0.2-0.8,0.1-2-0.4-2.5
	c-1.4-1.3-3-2.3-4.6-3.5c1.4-1.2,2.8-2.4,4.2-3.6c0.1-0.1,0.1-0.3,0.1-0.3c-1.2-0.7-2.4-1.3-3.5-1.9c-0.3,0.7-0.5,1.5-0.8,2.2
	c-0.8-1.1-1.6-2.1-2.3-3.1c2.5-2,4.8-4,7.4-6.1c-4.3-1.1-5.6,6.9-10.4,3.2c1-1.3,1.9-2.4,2.8-3.5c-0.1-0.4-0.2-0.9-0.4-1.3
	c-1.7,0.1-3.4,0.3-5.5,0.5c0.2-1.4,0.4-2.8,0.4-3c-1.9,0.4-3.9,1.4-5.8,1.1c-1-0.1-1.7-2.3-2.5-3.5c-1.4,3.8-3.7,4.7-7.1,2.3
	c-1.3-0.9-1.8-2.7-3.1-3.6c-0.7-0.5-2.1-0.1-2.5-0.1C48.7,99.7,49.6,102.6,50.4,105.5z M188.6,45.2c6.6-13.1,6.8-14.8,2.3-17.9
	c-1.3,3.2-2.6,6.5-3.9,9.8c-0.4-0.2-0.7-0.4-1.1-0.6C186.7,39,187.5,41.6,188.6,45.2z M135.7,98.8c0.4-0.1,0.7-0.2,1.1-0.3
	c-1.3-6.2-2.6-12.4-3.9-18.6c-0.5,0.1-1.1,0.3-1.6,0.4C132.8,86.5,134.3,92.6,135.7,98.8z"/>
</svg>
