<?xml version="1.0" encoding="utf-8"?>
<!-- Generator: Adobe Illustrator 24.0.0, SVG Export Plug-In . SVG Version: 6.00 Build 0)  -->
<svg version="1.1" id="Layer_1" xmlns="http://www.w3.org/2000/svg" xmlns:xlink="http://www.w3.org/1999/xlink" x="0px" y="0px"
	 viewBox="0 0 250 250" style="enable-background:new 0 0 250 250;" xml:space="preserve">
<path d="M239,134.9l11-3.4l-25.2-77.9l-11,3.8c-51.4,16.7-5.7,41.4-86.5,68.6c0.9-85.3,38.6-49.6,38.6-103.5V10.8H84.1v11.7
	c0,53.9,37.8,18.1,38.6,103.6c-81-26.9-35.4-52-86.2-68.7l-11.4-3.8L0,131.4l10.7,3.4c51.5,16.7,29.2-30.2,110.8-4.7
	c-50.7,68.8-60.5,17.6-92.2,60.9l-6.9,9.7l66.2,47.9l6.6-9.3c32-43.6-19.8-37.1,29.9-106.7c49.7,69.7-2,63.1,29.4,106.7l6.9,9.3
	l66.2-47.9l-6.9-9.3c-31.7-43.9-41.1,7.3-92.2-61.2C210.2,104.5,187.8,151.6,239,134.9z"/>
</svg>
