<?xml version="1.0" encoding="utf-8"?>
<!-- Generator: Adobe Illustrator 25.0.1, SVG Export Plug-In . SVG Version: 6.00 Build 0)  -->
<svg version="1.1" id="Layer_1" xmlns="http://www.w3.org/2000/svg" xmlns:xlink="http://www.w3.org/1999/xlink" x="0px" y="0px"
	 viewBox="0 0 250 250" style="enable-background:new 0 0 250 250;" xml:space="preserve">
<style type="text/css">
	.st0{fill:#231F20;}
</style>
<g>
	<path class="st0" d="M128.7,234.1c0.1-11.8,0.9-23.6,2-35.3c2-20.2,5.8-40.2,11.2-59.8c5.3-19.3,13-37.9,22.8-55.4
		c4.9-8.5,10.5-16.7,16.7-24.3c3.9-4.8,8.1-9.3,12.5-13.5c1.5,8.3,5.2,17,7.3,22.1l7-3.7c-1.9-4.6-2-24.4,1.2-37.4l3-11.9l-11.7,3.9
		c-11.2,3.8-33.5,9.6-44.3,9.5l-0.3,7.5c5.3,0,13.7,0.7,22.1,0.7c-3.6,4.2-7,8.6-10.1,13.1c-6,8.8-11.4,18.1-16,27.7
		c-9.1,19.2-15.3,39.3-19.4,59.7c-4,20.3-6.2,41-6.8,61.7c-0.1,5.3-0.2,10.7,0,16c-7.4-39-28.2-77-57.8-103.6h0.2
		c-0.5-0.5-1.1-0.9-1.6-1.3c6.2-0.4,14.9-0.2,21-2l-3.3-9.4c-4.4,2.2-27.8-1-41.1-3.2l-12.1-2l4.8,11.3
		c4.6,10.9,13.5,29.2,14.4,40.2l8-0.6c0.9-5.8-1.9-14.5-4-22.5c40.8,25.4,65,69.2,72.2,116.4c0.7,4.3,0.9,5.7,1.3,10
		c0.3,3.1,0.7,3.2,0.6,0.1c-0.2-5.5-0.2-8.1-0.1-13.5L128.7,234.1z"/>
	<path class="st0" d="M218.5,118.5l-11.2,0.7c-14,0.9-27.1,2.5-33.3-1l-2.8,7c0,0.1,0,0.2,0.1,0.2c4.3,2.3,8.9,3.9,13.7,4.7
		c0.1,0,0.2,0.1,0.1,0.2c0,0,0,0.1-0.1,0.1c-22.4,19.6-36.8,42.6-44.2,71.9c0,0.2,0.1,0.3,0.3,0.3c0.1,0,0.2,0,0.3-0.1
		c11.3-26.9,29.9-47.2,54.7-62.2c0.1-0.1,0.2,0,0.3,0.1c0,0,0,0.1,0,0.1c-0.3,6.3-0.2,12.7,0.3,19l7.3-0.2c-0.7-9.8,4.1-23.7,9-31.2
		L218.5,118.5z"/>
	<path class="st0" d="M76.8,45c2.1-4.2,3.5-10.4,5-15.3c21.8,29.2,33.1,66.9,35.9,103.3c0.1,1.7,0.6,1.6,0.7-0.1
		c1.3-20.3,1.4-41.1-3.2-61.2c-3.8-17.3-9.8-34.4-20.2-49.1c5.8,1.1,13.7,2,17.6,1.9v-4.9C100.5,18.7,82.1,6.3,71.5,0
		c0.6,12.7,3.1,36.1-0.5,43L76.8,45z"/>
</g>
</svg>
