<?xml version="1.0" encoding="utf-8"?>
<!-- Generator: Adobe Illustrator 24.3.0, SVG Export Plug-In . SVG Version: 6.00 Build 0)  -->
<svg version="1.1" id="Layer_1" xmlns="http://www.w3.org/2000/svg" xmlns:xlink="http://www.w3.org/1999/xlink" x="0px" y="0px"
	 viewBox="0 0 250 250" style="enable-background:new 0 0 250 250;" xml:space="preserve">
<style type="text/css">
	.st0{fill:#FFFFFF;}
</style>
<g>
	<g>
		<path class="st0" d="M-221.18,106.36c1.93,0,1.93-3,0-3C-223.11,103.36-223.12,106.36-221.18,106.36L-221.18,106.36z"/>
	</g>
</g>
<g>
	<g>
		<path d="M121.84,116.03c0.33-8.35-9.77-15.4-15.77-19.54c-7.45-5.15-16.44-6.13-24.39-10.22c-8.14-4.19-15.94-10.54-19.72-18.99
			c-1.86-4.17-4.46-7.95-6.6-11.98c-2.5-4.7-6.57-7.88-10.2-11.65c-6.92-7.18-11.46-16.34-20.02-21.86c-0.2-0.13-2.98-2.22-3.07-2.2
			c0.35-0.1-1.86,4.18-1.89,4.12c-0.3-0.72,7.75,1.75,7.94,1.84c9.1,4.4,17.7,10.28,24.53,17.73c6.43,7.01,13.07,13.88,19.42,20.95
			c7.75,8.64,13.68,18.54,19.52,28.5c2.9,4.95,6.37,9.09,10.43,13.11c3.73,3.69,6.4,8.3,10.91,11.11c2.42,1.51,6.74,1.27,8.64-1.11
			c4.14-5.22,3.01-11.72,2.38-17.99c-0.81-8.1-1.72-16.19-2-24.33c-0.28-8.17-0.06-16.36-0.08-24.53c-0.01-2.21-0.6-5.23-0.08-7.33
			c-0.05,0.22-1.26,0.98-0.12,0.33c1.08-0.34,2.17-0.62,3.28-0.84c-2.44-2.33-3.36-2.85-2.78-1.55c-0.12,1.11,1.03,3.22,1.31,4.4
			c0.45,1.93,0.73,3.85,0.9,5.82c0.31,3.49,0.29,7.01,0.27,10.51c-0.06,7.93-0.53,15.46-2.21,23.24c-1.3,6-2.56,11.67-6.16,16.73
			c-2.42,3.4-6.14,7.93-4.57,12.42c1.36,3.91,6.5,7.18,10.47,4.26c17.04-12.54,31.68-27.68,47.19-41.96
			c7.35-6.77,14.81-13.64,22.7-19.78c4.07-3.17,8.43-6.18,13.21-8.18c3.72-1.56,9.77-4.1,13.84-3.42c-1.66-1.66-3.32-3.32-4.98-4.98
			c0.71,3.17,3.04,6,4.99,8.56c0.85-3.25,1.7-6.5,2.56-9.75c-4.14,2.09-10.24,0.22-14.76,0.48c-5.93,0.34-11.94,1.61-17.29,4.23
			c-11.13,5.44-13.53,17.19-19.66,26.86c-3.02,4.76-6.38,10.09-11.13,13.25c-5.47,3.64-12.26,5.69-18.1,8.73
			c-10.44,5.43-22.64,10.57-29.35,20.82c-6.01,9.18-0.05,17.55,9.65,19.74c11.14,2.51,22.89-0.39,33.9-2.15
			c13.84-2.21,27.7-5.17,41.61-6.82c4.36-0.52,8.74-0.3,12.49,2.26c2.32,1.59,2.53,3.13,2.93,5.8c0.09,0.62,0.14,3.11,0.5,3.45
			c2.65-2.74,2.94-3.98,0.87-3.73c-1.01,0-2.01-0.04-3.01-0.12c-14.9-0.78-29.54-2.01-44.21-4.92c-7.26-1.44-14.49-3.13-21.65-5.01
			c-3.49-0.91-6.95-1.93-10.38-3.03c-2.23-0.72-7.83-1.49-9.14-3.43c0,2.4,0,4.8,0,7.2c0.52-0.98,2.01-2.23,0.54-1.54
			c-1.44,0.67,1.71,0.15,2.44,0.19c3.55,0.19,6.96,1.07,10.34,2.13c6.39,2.01,11.09,4.68,16.36,8.75c-1.09-2.68-2.18-5.37-3.28-8.05
			c0.11-0.28,0.22-0.56,0.33-0.84c-8.31,3.86-1.08,16.15,7.2,12.31c3.27-1.52,5.42-4.16,6.22-7.68c0.78-3.45-0.64-6.01-3.28-8.05
			c-7.88-6.08-16.71-10.15-26.59-11.95c-9.31-1.69-17.73-1.59-22.6,7.53c-1.15,2.16-1.44,5.06,0,7.2c3.99,5.9,9.51,7.27,15.95,9.42
			c6.9,2.31,13.95,4.12,21.02,5.81c13.9,3.32,27.93,5.59,42.14,7.08c6.21,0.65,12.36,0.81,18.58,1.14
			c6.1,0.32,13.33-0.56,15.71-7.19c1.64-4.56,0.13-12.29-2-16.58c-2.63-5.28-7.75-8.72-13.13-10.75
			c-12.34-4.67-27.21,0.37-39.66,2.47c-13.72,2.32-28.15,5.93-42.11,5.72c-0.94-0.01-7.2-0.87-7.01-1.1
			c0.3,0.78,0.59,1.56,0.89,2.34c-0.29,1.31-0.06,1.17,0.69-0.41c1.02-0.92,1.88-2.04,2.9-2.97c2.3-2.08,4.75-3.97,7.45-5.5
			c5.53-3.14,11.32-5.99,17.02-8.84c5.87-2.94,12.32-4.94,17.56-8.98c6.01-4.63,10.63-11.48,14.53-17.92
			c3.35-5.53,4.97-13.03,9.6-17.64c9.41-9.39,25.18-1.87,36.13-7.4c3.14-1.59,4.8-6.82,2.56-9.75c-0.91-1.19-3.23-3.7-3.55-5.15
			c-0.49-2.2-2.69-4.6-4.98-4.98c-10.33-1.72-22.22,2.71-30.96,8.06c-9.46,5.8-17.66,13.65-25.95,20.96
			c-17.13,15.1-32.58,32.2-51.02,45.77c3.49,1.42,6.98,2.84,10.47,4.26c-0.03-0.09-0.06-0.18-0.09-0.27c0,1.26,0,2.53,0,3.79
			c0.12-0.58,0.1-0.58-0.07,0.01c0.3-0.54,0.63-1.08,0.97-1.6c0.77-1.13,1.54-2.26,2.33-3.37c1.58-2.22,2.8-4.42,3.85-6.96
			c3.36-8.07,4.95-17.3,5.92-25.96c0.96-8.61,1.01-17.87,0.11-26.49c-0.72-6.9-1.97-17.85-9.65-20.58c-6.2-2.2-16.2,1.22-19.48,6.98
			c-3.45,6.06-1.72,15.45-1.72,22.03c0,9.45-0.02,18.85,0.79,28.27c0.38,4.36,0.85,8.71,1.29,13.06c0.23,2.29,0.33,4.55,0.45,6.84
			c0.02,0.67,0.07,1.34,0.13,2.01c-0.12,1.97,0.28,1.66,1.21-0.94c2.88-0.37,5.76-0.74,8.64-1.11c-1.95-1.21-3.15-3.59-4.6-5.3
			c-1.61-1.9-3.45-3.56-5.21-5.31c-3.79-3.77-6.25-8.21-8.86-12.83c-5.5-9.76-12.3-19.4-19.88-27.67
			c-3.42-3.73-7.15-7.16-10.62-10.85c-3.83-4.07-7.16-8.57-11.14-12.51c-7.54-7.45-17.17-13.7-26.84-18.01
			c-6.39-2.85-15.21-4.59-21.25,0.09c-8.51,6.58-1.48,16.89,5.26,21.25c8.54,5.54,13.34,15.64,20.62,22.67
			c1.61,1.55,3.45,3.02,4.71,4.9c1.52,2.28,2.5,4.95,4,7.28c3.18,4.93,4.96,10.27,8.81,14.8c7.23,8.5,16.68,14.79,27.16,18.48
			c2.74,0.96,5.33,2.42,8.1,3.23c2.73,0.79,4.64,1.41,7.06,2.97c2.42,1.56,4.74,3.29,6.82,5.28c0.72,0.69,1.44,1.42,2.1,2.17
			c0.98,1.09,1.15,2.31,1.21,0.76C107.22,125.2,121.48,125.19,121.84,116.03L121.84,116.03z"/>
	</g>
</g>
<g>
	<g>
		<path d="M113.76,119.2c-0.66,3.15-1.24,5.86-0.73,9.07c0.43,2.71,0.65,5.18,0.47,8c-0.43,6.81-3.59,14.67-6.77,20.69
			c-3.24,6.12-5.82,12.58-9.13,18.64c-3.45,6.32-8.58,11.54-12.9,17.25c-3.86,5.11-9.08,9.54-14.33,13.19
			c-4.65,3.23-12.86,10.14-18.83,6.94c-4.07-2.18-3.73-7.94-4.11-11.95c-0.6-6.28-3.78-16.4-0.06-22.1
			c3.06-4.69,9.26-8.5,13.57-11.92c6.27-4.99,12.83-9.58,19.21-14.42c5.81-4.4,11.41-8.97,16.65-14.03
			c2.64-2.55,5.16-5.12,8.11-7.27c2.62-1.91,4.93-4.43,8.23-4.76c10.62-1.05,12.23,11.37,12.73,19.13
			c0.33,5.09,0.55,10.17,1.52,15.19c1.47,7.61,4.18,14.88,6.34,22.3c1.01,3.49,2.35,6.84,2.94,10.43c0.62,3.7,1.76,6.76,3.85,9.89
			c4.11,6.15,9.01,11.57,15.69,14.96c6.68,3.39,14.08,4.66,21.5,5.18c4.16,0.29,8.27-0.31,12.35,0.71
			c3.93,0.98,7.67,2.72,11.44,4.16c8.58,3.27,12.29-10.51,3.79-13.75c-3.78-1.44-7.52-3.15-11.44-4.16
			c-4.26-1.1-8.4-1.06-12.75-1.08c-7.13-0.04-14.97-1.15-20.95-5.29c-2.61-1.81-4.61-4.13-6.43-6.7c-2.46-3.47-2.73-5.8-3.64-9.84
			c-1.72-7.66-4.91-15.14-7.01-22.73c-1.79-6.49-2.51-12.59-2.94-19.27c-0.39-5.97-0.94-12.04-3.24-17.61
			c-5.15-12.45-20.67-20.35-33.34-13.43c-2.88,1.58-5.87,4.2-8.51,6.19c-3.51,2.66-6.51,5.96-9.69,8.99
			c-6.33,6.02-13.31,11.19-20.34,16.35c-7,5.14-13.87,10.43-20.55,15.98c-5.14,4.27-10.42,8.88-11.9,15.7
			c-1.9,8.72,0.06,17.68,0.87,26.4c0.62,6.69,1.97,13.61,7.17,18.36c13.44,12.3,30.96,0.8,42.39-8.31
			c7.08-5.64,12.22-12.22,17.95-19.11c6.12-7.36,10.05-14.86,14.09-23.47c1.9-4.04,4.3-7.81,6.1-11.9c1.8-4.1,3.06-8.41,4.56-12.63
			c1.57-4.41,2.01-8.73,2.12-13.38c0.09-3.78-1.03-7.36-0.31-10.81C129.37,114.04,115.63,110.21,113.76,119.2L113.76,119.2z"/>
	</g>
</g>
<g>
	<g>
		<path d="M168.78,221.82c3.44-0.06,6.59,1.75,9.91,2.42c3.65,0.74,7.39,0.86,11.04,1.64c3.87,0.83,7.54,2.36,11.38,3.29
			c1.57,0.38,3.17,0.54,4.77,0.78c1.79,0.27,3.47,0.86,5.29,1c1.66,0.13,3.32,0.09,4.98,0.29c2,0.24,3.96,0.68,5.94,1.04
			c2.93,0.53,6.38,1.24,9.34,0.49c1.36-0.34,2.7-1.26,2.64-2.81c-0.06-1.54-1.5-2.41-2.78-2.9c-3.63-1.38-7.53-2.18-11.3-3.1
			c-1.98-0.48-3.98-0.9-5.93-1.48c-1.99-0.59-3.88-1.47-5.82-2.23c-0.42-0.17-0.86-0.31-1.28-0.48c0.54,0.22-0.19-0.1-0.28-0.14
			c-0.51-0.26-1-0.56-1.48-0.89c-0.47-0.32-0.89-0.68-1.28-1.09c0.09,0.09-0.39-0.42-0.28-0.37c0.03,0.14,0.02,0.1-0.04-0.11
			c0.07,0.19,0.05,0.38-0.07,0.56c-0.72,0.29-1.43,0.58-2.15,0.87c7.07,1.91,12.65,7.66,20.35,7.41c1.33-0.04,2.52-1.63,1.64-2.86
			c-3.8-5.35-10.15-6.88-15.68-9.78c-1.77-0.93-3.39,0.9-2.6,2.6c1.09,2.36,3.1,4.36,5.15,5.89c2.11,1.58,4.74,2.79,7.42,2.13
			c1.54-0.38,1.91-2.72,0.45-3.47c-1.07-0.55-2.13-1.1-3.24-1.58c-1.27-0.55-3.42-1.54-4.54-0.17c-0.7,0.85-0.83,2.42,0.38,2.99
			c1.48,0.68,2.85,1.52,4.07,2.59c0.28-1.06,0.56-2.12,0.84-3.18c-1.53,0.54-3.22,0.02-4.81,0.45c-1.97,0.52-1.63,3.01,0,3.67
			c0.33,0.13,0.67,0.23,1,0.35c0.17,0.06,0.64,0.35,0.48,0.11c0.55-0.95,1.09-1.91,1.64-2.86c-0.76,0.09-1.47,0.2-2.19,0.44
			c-1.82,0.61-1.78,3.04,0,3.67c0.73,0.26,1.91,0.27,2.44,0.84c0.28-1.06,0.56-2.12,0.84-3.18c-0.86,0.14-1.72,0.16-2.59,0.14
			c-2.46-0.08-2.42,3.64,0,3.8c0.96,0.07,1.89-0.04,2.82-0.25c1.27-0.29,1.66-1.75,1.14-2.79c-0.12-0.23-0.23-0.47-0.35-0.7
			c-1.09-2.19-4.37-0.27-3.28,1.92c0.12,0.23,0.23,0.47,0.35,0.7c0.38-0.93,0.76-1.86,1.14-2.79c-0.62,0.14-1.18,0.16-1.81,0.11
			c0,1.27,0,2.53,0,3.8c1.22,0.04,2.4-0.08,3.6-0.27c1.5-0.25,1.71-2.22,0.84-3.18c-1.1-1.2-2.67-1.31-4.12-1.82
			c0,1.22,0,2.44,0,3.67c0.39-0.13,0.78-0.26,1.18-0.31c1.27-0.15,2.58-1.56,1.64-2.86c-0.97-1.35-2.29-1.63-3.75-2.21
			c0,1.22,0,2.44,0,3.67c1.59-0.42,3.2,0.13,4.81-0.45c1.25-0.44,2-2.17,0.84-3.18c-1.47-1.29-3.07-2.37-4.84-3.19
			c0.13,1,0.26,1.99,0.38,2.99c-0.4,0.39-0.82,0.52-1.28,0.39c0.11,0.02,0.22,0.04,0.33,0.07c0.19,0.06,0.39,0.12,0.58,0.19
			c0.49,0.18,0.96,0.39,1.44,0.62c0.71,0.34,1.4,0.71,2.1,1.07c0.15-1.16,0.3-2.32,0.45-3.47c-1.61,0.4-3.45-0.91-4.63-1.86
			c-1.47-1.2-2.85-2.67-3.65-4.41c-0.87,0.87-1.73,1.73-2.6,2.6c4.74,2.49,11.06,3.83,14.32,8.42c0.55-0.95,1.09-1.91,1.64-2.86
			c-7.12,0.23-12.72-5.49-19.34-7.27c-0.76-0.21-1.78,0.12-2.15,0.87c-1.2,2.47,0.69,4.5,2.58,5.89c2.06,1.52,4.51,2.27,6.86,3.23
			c3.3,1.35,6.75,2.08,10.2,2.92c3.56,0.87,7.03,1.92,10.52,2.96c0.08,0.05,0.16,0.1,0.25,0.15c0.74-1.63,0.65-2.25-0.24-1.86
			c-0.15-0.01-0.61,0.09-0.76,0.1c-0.61,0.05-1.23,0.02-1.84-0.01c-1.74-0.09-3.46-0.35-5.18-0.67c-3.46-0.64-6.85-1.19-10.37-1.32
			c-1.58-0.06-2.97-0.47-4.51-0.77c-1.72-0.34-3.47-0.44-5.18-0.82c-3.7-0.84-7.22-2.29-10.91-3.18c-3.94-0.96-8.01-1.05-11.97-1.85
			c-3.68-0.75-7.09-2.62-10.92-2.55C166.33,218.06,166.32,221.87,168.78,221.82L168.78,221.82z"/>
	</g>
</g>
<g>
	<g>
		<path d="M233.93,227.57c-1.48-0.71-3-0.9-4.54-1.38c-1.6-0.5-3.03-1.64-4.41-2.55c-1.33-0.88-2.64-1.7-3.76-2.84
			c-1.01-1.02-1.88-2.16-2.77-3.28c-1.9-2.39-4.1-4.35-6.54-6.17c-2.52-1.89-5.35-3.51-8.46-4.19c-3.23-0.71-6.6-0.74-9.87-1.24
			c-3.29-0.51-6.64-0.19-9.92-0.77c-1.56-0.28-3.13-0.6-4.72-0.64c-1.71-0.05-3.43,0.03-5.14-0.01c-3.3-0.08-6.5-0.52-9.63-1.58
			c-5.5-1.85-9.53-6.04-12.7-10.77c-3.73-5.58-6.05-11.97-8.52-18.17c-1.24-3.13-2.71-6.17-3.91-9.3c-1.2-3.12-1.62-6.47-2.89-9.56
			c-2.24-5.43-3.99-11.31-3.16-17.26c0.1-0.71,0.3-1.71,0.71-2.2c0.22-0.26,0.24-0.29,0.51-0.33c0.18-0.03,0.69,0.02,1.02,0.12
			c2.13,0.59,3.86,2.23,5.12,3.99c2.82,3.95,4.34,8.73,5.38,13.42c1.47,6.66,4.39,12.87,7.24,19.03c2.74,5.92,4.68,12.24,7.73,18.01
			c1.34,2.53,2.89,4.65,5.39,6.12c2.24,1.31,4.77,2.07,7.24,2.77c2.92,0.83,5.8,1.82,8.73,2.6c3.33,0.89,6.7,1.28,10.11,1.69
			c6.84,0.83,13.52,2.12,20.05,4.38c2.91,1.01,5.73,2.36,8.1,4.36c2.37,2,4.35,4.42,6.34,6.79c1.9,2.27,3.42,4.55,4.73,7.21
			c0.46,0.94,1.01,1.84,1.33,2.84c0.12,0.36,0.13,0.73,0.23,1.08c0.06,0.22-0.25,0.43-0.05,0.18c0.17-0.22-0.19,0.13-0.32,0.18
			c-1.5,0.65-3.71,0.66-5.47,0.62c-2.39-0.05-3.7-0.28-6.12-0.97c-6.38-1.83-12.15-5.22-18.02-8.21c-2.94-1.5-6.02-2.72-9.07-3.96
			c-1.64-0.67-3.32-1.21-4.92-1.96c-0.91-0.43-1.89-0.9-2.68-1.55c-0.6-0.49-0.8-0.77-0.88-1.28c-0.61,0.8-1.22,1.6-1.83,2.41
			c0.42-0.04,0.85-0.08,1.27-0.12c1.02-0.1,1.9-0.8,1.9-1.9c0-0.95-0.87-2-1.9-1.9c-0.42,0.04-0.85,0.08-1.27,0.12
			c-1.32,0.13-2.05,1.1-1.83,2.41c0.35,2.16,2.49,3.62,4.27,4.58c1.92,1.03,3.98,1.76,6.01,2.53c0.97,0.37,1.89,0.78,3.22,1.33
			c1.76,0.72,3.52,1.44,5.22,2.3c3.22,1.61,6.37,3.35,9.6,4.92c5.21,2.52,10.76,4.88,16.62,5.07c4.12,0.13,11.19-0.3,9.87-6.24
			c-0.28-1.25-0.89-2.43-1.47-3.55c-0.66-1.3-1.24-2.63-2.01-3.87c-1.68-2.71-3.86-5.14-5.95-7.55c-2.24-2.58-4.7-4.97-7.66-6.71
			c-2.83-1.67-5.95-2.75-9.08-3.71c-7.16-2.18-14.4-3.1-21.8-4.03c-3.51-0.44-6.89-1.5-10.26-2.54c-2.65-0.82-5.37-1.48-7.96-2.46
			c-2.54-0.96-4.39-2.36-5.75-4.73c-1.76-3.06-3.02-6.36-4.29-9.64c-2.54-6.56-5.84-12.78-8.38-19.34
			c-2.17-5.62-2.98-11.62-5.35-17.17c-1.99-4.67-5.15-9.76-10.36-11.2c-2.37-0.66-4.73,0.03-5.99,2.22
			c-1.33,2.32-1.31,5.46-1.2,8.05c0.14,3.23,0.72,6.47,1.68,9.55c0.46,1.5,1.05,2.95,1.68,4.39c0.76,1.72,1.18,3.54,1.63,5.36
			c0.86,3.42,2.26,6.58,3.67,9.8c1.46,3.31,2.72,6.72,4.11,10.07c2.71,6.53,5.61,12.76,10.4,18.06c4.17,4.61,9.47,7.47,15.61,8.49
			c3.71,0.62,7.37,0.43,11.11,0.54c1.54,0.05,3.03,0.41,4.54,0.65c1.83,0.29,3.65,0.36,5.49,0.41c3.49,0.1,6.92,0.75,10.4,1.04
			c3.61,0.31,6.59,1.4,9.57,3.46c2.58,1.79,4.86,3.88,6.82,6.34c0.89,1.12,1.76,2.26,2.77,3.28c1.23,1.25,2.68,2.2,4.13,3.17
			c1.43,0.95,2.88,2.02,4.45,2.73c1.57,0.71,3.35,0.74,4.9,1.47C234.21,231.9,236.14,228.63,233.93,227.57L233.93,227.57z"/>
	</g>
</g>
<g>
	<g>
		<path d="M119.38,124.56c2.77,6.03,6.82,11.14,10.59,16.55c3.73,5.36,6.55,11.31,9.92,16.9c3.05,5.07,5.6,10.29,9.11,15.08
			c2.16,2.95,3.52,4.81,5.51,7.89c0.76,1.17,4.32,6.75,1.9,2.16c0.87,1.66,1.26,3.49,2.4,5.04c3.79,5.17,10.31,7.74,16.25,4.26
			c5.1-2.98,8.08-11.05,4.26-16.25c0.07,0.84-0.01,0.85-0.23,0.04c-0.44-1.16-0.91-2.31-1.43-3.44c-0.73-1.29-1.88-2.65-2.64-3.81
			c-1.95-2.96-3.99-5.73-6.05-8.61c-2.85-4-5.74-9.65-8.57-14.37c-3.21-5.35-5.91-11.06-9.43-16.2
			c-3.88-5.68-8.19-10.96-11.08-17.26c-2.68-5.83-11.1-7.27-16.25-4.26C117.66,111.8,116.69,118.71,119.38,124.56L119.38,124.56z"/>
	</g>
</g>
<g>
	<g>
		<path d="M161.16,187.47c1.34,1.8,1.82,4.76,2.98,7.13c1.35,2.75,3.34,5.2,5.34,7.51c4.23,4.91,9.46,9.55,15.02,12.89
			c5.61,3.36,12.02,4.91,18.01,7.41c2.56,1.07,4.63,2.57,6.87,4.16c0.05,0.04,2.24,1.76,1.7,1.3c0.44,0.37,2.13,2.42,1.09,0.65
			c3.01-5.24,6.02-10.49,9.03-15.73c1.94,0.07-1.16-0.62-1.76-0.83c-1.37-0.47-2.73-0.96-4.09-1.43c-2.48-0.85-4.97-1.62-7.46-2.44
			c-4.97-1.64-9.72-3.46-14.17-6.26c-8.63-5.42-14.51-14.92-20.29-23.06c-7.04-9.92-14.08-19.88-20.32-30.33
			c-2.97-4.97-5.87-10-9.14-14.79c-1.66-2.43-3.39-5-5.33-7.22c-0.59-0.67-1.19-1.29-1.86-1.88c-0.84-0.67-1.69-1.33-2.56-1.96
			c-1.27-1-0.76-0.26,1.55,2.21c-1.11-5.54-7.7-8.72-12.86-7.3c-5.77,1.59-8.41,7.31-7.3,12.86c1.19,5.93,6.43,8.33,9.26,12.35
			c3.87,5.49,7.2,11.32,10.65,17.07c7.11,11.86,15.22,23.13,23.28,34.35c7.26,10.11,14.86,20.17,25.77,26.61
			c5.77,3.41,12.24,5.7,18.58,7.78c5.77,1.89,11.93,4.95,18.04,5.18c8,0.31,12.93-9.09,9.03-15.73
			c-6.08-10.34-19.63-14.6-30.07-18.59c-5.16-1.98-9.26-5.16-13.13-9.07c-1.52-1.53-3.43-3.26-4.37-5.26
			c-1.27-2.7-1.61-5.66-3.45-8.13c-3.37-4.52-9.05-6.83-14.3-3.75C160.45,175.77,157.76,182.92,161.16,187.47L161.16,187.47z"/>
	</g>
</g>
<g>
	<g>
		<path d="M77.88,109.79c-4.1,1.37-8.46,0.9-12.73,0.9c-4.41,0-8.83,0.14-13.24-0.06c-4.12-0.18-8.16-0.96-12.29-1.06
			c-5.09-0.12-10.2,0-15.29,0c-7.95-0.01-7.96,12.35,0,12.36c5.09,0,10.2-0.1,15.29,0c4.7,0.09,9.33,1.01,14.04,1.12
			c8.68,0.2,19.17,1.46,27.49-1.34C88.66,119.19,85.45,107.25,77.88,109.79L77.88,109.79z"/>
	</g>
</g>
<g>
	<g>
		<path d="M121.74,180.89c-0.16,0.02-0.31,0.04-0.47,0.07c-1.29,0.19-2.81,1.7-2.99,2.99c-1.1,7.84-0.3,16.44-0.25,24.37
			c0.02,3.13,0.28,6.34,1.84,9.13c1.74,3.08,4.18,5.71,5.07,9.25c1.34,5.34,9.59,3.07,8.25-2.27c-1.48-5.87-6.57-9.96-6.61-16.11
			c-0.02-3.53,0.01-7.06,0.01-10.59c0-3.67-0.57-7.89-0.06-11.5c-1,1-1.99,1.99-2.99,2.99c0.16-0.02,0.31-0.04,0.47-0.07
			C129.45,188.35,127.14,180.11,121.74,180.89L121.74,180.89z"/>
	</g>
</g>
<g>
	<g>
		<path d="M133.72,236.87c-1.37-3.63-0.79-7.54-1.78-11.23c-0.2-0.75-0.61-1.4-0.87-2.12c-0.3-0.8-0.11-1.67-0.09-2.51
			c0.05-1.97,0.11-3.96-0.19-5.91c-0.59-3.82-2.33-7.36-3.05-11.17c-0.78-4.12-1.64-8.24-2.07-12.42c-0.2-1.91-0.25-3.82-0.32-5.74
			c-0.02-0.47-0.06-0.94-0.07-1.41c0-0.23,0-0.46,0.01-0.7c0.01-0.13,0.11-0.14,0.02-0.1c-0.07,0.03-0.76,0.47-0.78,0.49
			c-0.22,0.28-0.31-0.42,0.09,0.1c0.06,0.07,0.21,0.18,0.29,0.25c0.32,0.31,0.53,0.76,0.71,1.17c0.5,1.15,0.73,2.44,0.97,3.67
			c1.46,7.7,3,15.42,3.87,23.21c0.51,4.56,0.67,9.13,0.67,13.71c0,2.04-0.1,4.1,0.03,6.13c0.04,0.69,0.11,1.37,0.12,2.06
			c0,0.33-0.06,0.68-0.04,1.01c0.01,0.25-0.2,0.25-0.01,0.07c0.45-0.19,0.9-0.37,1.34-0.56c-1.01-0.09-1.95-1.57-2.65-2.18
			c-1.07-0.93-2.21-1.64-2.95-2.88c-1.56-2.6-3.17-5.26-4.49-8c-1.39-2.89-2.29-6.14-3.08-9.24c-0.84-3.31-0.81-6.74-0.8-10.13
			c0.01-1.57,0.02-3.15,0.01-4.72c0-1.51-0.12-2.95,0.34-4.41c0.76-2.38,1.1-4.97,2.19-7.23c0.43-0.88,0.9-1.62,1.76-2.12
			c1-0.57,1.4-0.51,2.54-0.1c0.93,0.33,1.39,0.48,1.72,1.41c0.45,1.24,0.65,2.66,0.74,3.97c0.25,3.63-0.16,7.31-0.16,10.95
			c0,1.91,0,3.83,0,5.74c0,1.01-0.02,2.02,0.02,3.03c0.03,0.9,0.15,1.82-0.05,2.7c1.22,0,2.44,0,3.67,0
			c-0.83-2.39-1.39-4.93-1.89-7.41c-0.5-2.49-0.88-4.95-1.96-7.27c-0.79-1.71-3.66-0.87-3.54,0.96c0.08,1.21,0.27,2.4,0.62,3.56
			c0.53,1.75,3.19,1.87,3.67,0c0.33-1.29,0.3-2.74,0.23-4.06c-0.07-1.31-0.15-3.13-1.23-4.06c-1.15-1-3.34-0.42-3.24,1.34
			c0.1,1.7-0.12,5.29,2.16,5.72c0.91,0.17,2.18-0.24,2.34-1.33c0.32-2.19,0.68-4.37,0.66-6.59c-0.01-1.31-1.66-2.54-2.86-1.64
			c-1,0.75-1.65,1.71-1.43,3.02c0.18,1.08,0.9,2.08,1.93,2.52c-0.31-0.55-0.63-1.09-0.94-1.64c-0.66,7.55-1.31,15.11-1.79,22.67
			c-0.23,3.68-0.14,7.34,0.67,10.95c0.42,1.88,0.79,4.87,2.72,5.81c1.35,0.66,2.74-0.15,2.86-1.64c0.1-1.22,0.1-2.43,0.09-3.66
			c-0.03-2.44-3.83-2.45-3.8,0c0.01,1.22,0.02,2.44-0.09,3.66c0.95-0.55,1.91-1.09,2.86-1.64c0.16,0.08,0.16,0.41,0.02-0.01
			c-0.04-0.13-0.12-0.25-0.17-0.38c-0.18-0.45-0.29-0.93-0.41-1.4c-0.29-1.18-0.58-2.38-0.76-3.58c-0.51-3.31-0.31-6.69-0.04-10.01
			c0.56-6.93,1.05-13.85,1.65-20.78c0.05-0.59-0.38-1.41-0.94-1.64c-0.58-0.24,0.4,0.36-0.49,1.03c-0.95-0.55-1.91-1.09-2.86-1.64
			c0.01,1.88-0.25,3.72-0.53,5.58c0.78-0.44,1.56-0.89,2.34-1.33c0.32,0.06,0.85,1.24,0.91,0.72c0.02-0.13-0.09-0.38-0.11-0.52
			c-0.04-0.21-0.07-0.54-0.09-0.82c-0.04-0.47-0.05-0.95-0.08-1.43c-1.08,0.45-2.16,0.9-3.24,1.34c0.25,0.21-0.12-0.1-0.12-0.21
			c0,0.19,0.12,0.44,0.15,0.63c0.08,0.46,0.1,1.02,0.11,1.52c0.01,0.54,0.01,1.09-0.02,1.63c-0.01,0.22-0.02,0.45-0.05,0.67
			c-0.02,0.18,0.06-0.22-0.04,0.18c1.22,0,2.44,0,3.67,0c-0.25-0.84-0.43-1.67-0.48-2.55c-1.18,0.32-2.36,0.64-3.54,0.96
			c0.97,2.09,1.18,4.51,1.65,6.74c0.5,2.35,1.02,4.76,1.81,7.03c0.58,1.66,3.22,1.95,3.67,0c0.44-1.96,0.17-4.03,0.17-6.02
			c0-2.23,0-4.46,0-6.7c0-4.07,0.55-8.24,0-12.28c-0.23-1.65-0.5-3.5-1.38-4.95c-0.8-1.32-2.15-1.96-3.55-2.47
			c-1.33-0.48-2.74-0.75-4.1-0.26c-1.58,0.56-2.92,1.51-3.89,2.88c-1.87,2.66-2.16,5.95-3.17,8.95c-0.64,1.9-0.66,3.69-0.65,5.68
			c0.01,2.12-0.02,4.24-0.01,6.35c0,4.28,0.45,8.32,1.72,12.42c0.63,2.04,1.2,4.09,2.05,6.07c0.78,1.83,1.74,3.58,2.75,5.29
			c0.93,1.57,1.75,3.28,2.79,4.78c1.06,1.51,2.61,2.44,3.89,3.73c1.2,1.21,2.58,2.49,4.39,2.54c1.84,0.04,2.49-1.78,2.65-3.3
			c0.12-1.21-0.07-2.42-0.1-3.63c-0.06-2.18,0-4.36,0-6.54c0-4.34-0.2-8.67-0.69-12.98c-0.94-8.18-2.47-16.32-4.06-24.39
			c-0.51-2.57-1.33-5.77-3.86-7.07c-1.35-0.69-3.02-0.68-4.04,0.55c-0.78,0.94-0.84,2.23-0.79,3.4c0.17,3.91,0.41,7.76,1.02,11.63
			c0.67,4.23,1.26,8.66,2.57,12.75c0.61,1.91,1.35,3.78,1.8,5.73c0.46,2.02,0.36,4.12,0.31,6.18c-0.02,0.85-0.13,1.68-0.01,2.53
			c0.14,1,0.67,1.8,1,2.74c0.63,1.79,0.58,3.87,0.74,5.74c0.18,2,0.44,3.98,1.15,5.87C130.91,240.15,134.59,239.17,133.72,236.87
			L133.72,236.87z"/>
	</g>
</g>
<g>
	<g>
		<path d="M81.61,109.6c-1.41-0.64-2.78-1.42-4.29-1.81c-1.5-0.39-2.94-0.71-4.39-1.26c-2.72-1.04-5.62-0.59-8.45-0.56
			c-2.45,0.02-2.45,3.81,0,3.8c2.67,0,5.46-0.27,8.11,0.08c1.97,0.26,3.49,1.23,4.9,2.59c0.77-1,1.54-1.99,2.3-2.99
			c-7.02-5.04-16.32-5.04-24.1-1.88c-2.19,0.89-4.24,1.31-6.59,1.57c-2.47,0.27-4.89,0.68-7.38,0.74
			c-4.76,0.12-9.46,0.65-14.23,0.61c-2.76-0.03-5.52,0-8.27-0.01c-2.74-0.01-5.41,0.52-8.14,0.57c-2.44,0.04-2.45,3.8,0,3.8
			c3.02,0.01,6-0.51,9.02-0.6c3.12-0.1,6.24-0.26,9.35-0.42c2.88-0.15,5.7-0.4,8.51-1.07c2.66-0.63,5.25-1.5,7.87-2.29
			c5.36-1.62,10.9-2.99,16.47-3.57c2.53-0.26,5.05-0.28,7.59-0.23c2.17,0.04,4.36,0.09,6.48,0.61c2.03,0.49,4.04,1.44,5.32,3.15
			c1.23,1.64,1.09,3.71,0.16,5.46c-2.48,4.68-8.18,5.58-12.98,6.11c-5.74,0.63-11.45,0.35-17.14-0.56
			c-6.03-0.97-12.09-1.82-18.11-2.87c-3.27-0.57-6.54-1.19-9.79-1.89c-3.26-0.71-6.43-1.74-9.61-2.72c-1.59-0.49-3.18-1.02-4.8-1.43
			c-1.73-0.44-3.83-1.01-5.06,0.65c-0.74,1,0.05,2.51,1.14,2.79c6.67,1.75,13.37,3.45,20.14,4.75c6.56,1.26,13.17,1.99,19.82,2.55
			c6.22,0.52,12.57,0.78,18.72-0.56c2.52-0.55,5.12-1.32,7.25-2.82c1.98-1.39,4.13-3.61,2.95-6.24c-1.28-2.83-5.52-3.05-8.17-3.13
			c-1.23-0.04-2.4,0.1-3.62,0.2c-0.76,0.06-2.19,0.23-2.56-0.22c-0.66-0.8-2.01-0.67-2.69,0c-0.79,0.78-0.65,1.9,0,2.69
			c1.33,1.62,3.84,1.46,5.7,1.29c2.26-0.21,4.51-0.27,6.72,0.3c0.29,0.08,0.96,0.18,1.18,0.45c0.03,0.03,0-0.13-0.09,0.09
			c-0.29,0.75-1.53,1.43-2.18,1.82c-1.98,1.18-4.47,1.73-6.78,2.15c-5.55,1-11.29,0.62-16.87,0.14c-6.01-0.51-11.98-1.16-17.91-2.28
			c-6.94-1.31-13.79-3.05-20.62-4.84c0.38,0.93,0.76,1.86,1.14,2.79c-0.31,0.24-0.62,0.49-0.93,0.73c-0.31,0.03-0.35,0.04-0.11,0.03
			c0.05,0.03,0.32,0.02,0.35,0.02c-0.15-0.01,0.65,0.13,0.83,0.17c0.82,0.18,1.63,0.42,2.44,0.66c1.83,0.55,3.66,1.14,5.49,1.7
			c6.08,1.88,12.31,3.06,18.58,4.12c6.17,1.04,12.37,2.02,18.56,2.91c6.11,0.88,12.24,0.96,18.35,0.08
			c5.32-0.77,10.73-2.33,13.67-7.22c1.21-2.02,1.81-4.42,1.37-6.76c-0.48-2.53-2.26-4.57-4.34-5.98c-3.88-2.64-8.89-2.62-13.39-2.68
			c-5.83-0.08-11.58,0.84-17.23,2.21c-3.19,0.77-6.32,1.7-9.45,2.67c-3.09,0.95-6.23,1.87-9.47,2.14c-3.58,0.3-7.19,0.4-10.78,0.53
			c-3.5,0.13-7,0.66-10.5,0.66c0,1.27,0,2.53,0,3.8c2.33-0.04,4.63-0.55,6.96-0.57c2.35-0.02,4.71,0,7.06,0
			c2.39,0,4.77,0.08,7.16-0.01c2.3-0.09,4.57-0.45,6.86-0.52c2.38-0.07,4.75-0.06,7.11-0.4c2.39-0.34,4.84-0.48,7.2-0.98
			c1.96-0.41,3.76-1.39,5.67-1.98c2.07-0.63,4.17-1.15,6.33-1.23c4.41-0.18,8.83,0.99,12.44,3.58c1.77,1.27,3.83-1.51,2.3-2.99
			c-1.76-1.7-3.79-3.06-6.24-3.51c-3.09-0.56-6.33-0.27-9.45-0.27c0,1.27,0,2.53,0,3.8c2.49-0.02,5.05-0.48,7.44,0.43
			c1.32,0.5,2.63,0.87,4,1.18c1.35,0.31,2.52,0.95,3.77,1.51c0.94,0.43,2.04,0.26,2.6-0.68C82.78,111.39,82.54,110.02,81.61,109.6
			L81.61,109.6z"/>
	</g>
</g>
<g>
	<g>
		<path d="M169.06,105.26c4.05-0.01,7.44-1.79,11.2-3.02c2.08-0.68,4.2-1.26,6.17-2.24c1.76-0.88,3.27-2.16,4.89-3.27
			c1.77-1.21,3.52-2.41,5.22-3.72c1.63-1.25,3.23-2.56,5.07-3.5c1.7-0.87,3.52-1.49,5.28-2.23c1.91-0.8,3.73-1.72,5.71-2.34
			c4.58-1.43,9.38-1.83,14.13-2.29c-0.55-0.95-1.09-1.91-1.64-2.86c-0.21,0.33-0.87,0.18-1.2,0.25c-0.74,0.17-1.47,0.53-2.19,0.77
			c-1.76,0.6-3.54,1.15-5.32,1.7c-3.45,1.07-6.9,2.15-10.41,3.03c-7.2,1.8-14.63,2.7-22,3.51c-7.49,0.82-14.97,1.51-22.49,1.96
			c-6.33,0.37-13.47,0.78-18.77,4.65c-1.51,1.1-2.95,2.31-4.2,3.7c-0.58,0.65-1.13,1.33-1.67,2.01c-0.63,0.79,0.16,0.04-0.52,0.5
			c-0.45,0.3-0.85,0.71-1.14,1.16c-0.89,1.35-0.81,3.08,0.15,4.39c0.68,0.93,1.55,0.94,2.64,1c1.16,0.07,2.32,0.14,3.48,0.21
			c2.44,0.15,2.43-3.65,0-3.8c-1.49-0.09-2.98-0.18-4.48-0.27c0.55,0.31,1.09,0.63,1.64,0.94c-0.06-0.09-0.26-0.33-0.27-0.48
			c0.02,0.2-0.08,0.22,0.03,0.07c0.23-0.3,0.63-0.42,0.89-0.68c0.2-0.2,0.36-0.47,0.53-0.69c0.97-1.24,2.02-2.39,3.2-3.44
			c2.18-1.94,4.54-3.26,7.36-4c6.18-1.63,12.7-1.43,19.03-1.92c6.65-0.52,13.31-1.3,19.92-2.12c6.71-0.83,13.42-1.83,19.95-3.62
			c3.48-0.95,6.92-2.04,10.37-3.12c1.69-0.53,3.41-1.35,5.14-1.72c1.58-0.34,2.68-0.6,3.61-2.07c0.73-1.14-0.2-3-1.64-2.86
			c-4.2,0.4-8.42,0.76-12.54,1.72c-3.99,0.93-7.63,2.76-11.4,4.29c-1.82,0.74-3.61,1.52-5.22,2.65c-1.77,1.24-3.43,2.63-5.17,3.9
			c-1.66,1.21-3.39,2.32-5.06,3.52c-1.7,1.23-3.43,2.13-5.43,2.8c-2.28,0.76-4.52,1.55-6.77,2.4c-2,0.75-3.95,1.33-6.1,1.34
			C166.61,101.46,166.61,105.26,169.06,105.26L169.06,105.26z"/>
	</g>
</g>
<g>
	<g>
		<path d="M178.41,97.51c-2.67,2.07-5.75,3.62-8.86,4.89c-1.55,0.63-3.12,1.21-4.69,1.77c-1.68,0.61-3.25,1.48-4.94,2.05
			c-3.19,1.08-6.27,2.4-9.49,3.39c-1.65,0.5-3.06,1.4-4.63,2.07c-1.37,0.58-2.88,0.65-4.15,1.49c-1.38,0.92-1.14,2.96,0.45,3.47
			c2.14,0.69,4.29-0.13,6.25-0.98c2.22-0.96,4.5-1.74,6.78-2.55c2.5-0.89,4.94-1.88,7.35-2.97c0.59-0.27,0.91-0.22,1.53-0.3
			c0.62-0.08,1.25-0.4,1.8-0.68c1.09-0.55,2.06-1.33,2.89-2.21c1.68-1.78-1-4.47-2.69-2.69c-0.63,0.67-1.47,1.5-2.39,1.75
			c-0.49,0.13-1.03,0.05-1.54,0.17c-0.56,0.14-1.02,0.43-1.54,0.67c-2.09,1-4.26,1.82-6.44,2.59c-2.09,0.74-4.23,1.42-6.26,2.3
			c-1.39,0.6-3.19,1.73-4.74,1.23c0.15,1.16,0.3,2.32,0.45,3.47c1.18-0.79,2.84-0.9,4.15-1.49c1.53-0.69,2.89-1.45,4.52-1.91
			c1.68-0.48,3.17-1.2,4.79-1.84c1.7-0.67,3.49-1.09,5.18-1.79c1.64-0.68,3.23-1.41,4.9-2.02c1.65-0.61,3.3-1.24,4.92-1.94
			c3.25-1.39,6.28-3.09,9.08-5.26c0.82-0.63,0.65-2.02,0-2.69C180.31,96.7,179.22,96.88,178.41,97.51L178.41,97.51z"/>
	</g>
</g>
<g>
	<g>
		<path d="M192.31,91.02c-1.72,1.3-3.7,2.04-5.47,3.25c-1.66,1.14-3.12,2.52-4.63,3.83c-3.27,2.82-6.99,4.95-10.48,7.47
			c-1.8,1.3-3.5,2.59-5.46,3.64c-0.84,0.45-1.53,1.1-2.34,1.6c-0.83,0.51-1.83,0.74-2.76,1.01c-1.92,0.54-3.89,0.94-5.77,1.6
			c-0.99,0.35-2.76,1.32-3.7,0.94c0.28,1.06,0.56,2.12,0.84,3.18c1.01-0.96,2.6-1.22,3.78-1.94c1.4-0.86,2.64-2.05,4.19-2.65
			c1.72-0.67,3.25-1.07,4.76-2.2c1.51-1.13,2.94-1.86,4.72-2.48c1.76-0.62,3.53-1.22,5.24-1.97c1.73-0.77,3.38-1.72,5.08-2.55
			c3.3-1.62,6.65-3.19,9.68-5.29c1.72-1.2,3.08-2.91,4.83-4.04c0.84-0.55,1.51-0.98,2.09-1.85c0.47-0.7,0.73-1.52,1.33-2.13
			c0.74-0.74,0.7-1.94,0-2.69c-1.67-1.78-4.84,0.46-6.39,1.37c-1.86,1.08-3.63,2.3-5.47,3.42c-4.18,2.56-8.66,4.61-13.15,6.55
			c-4.53,1.95-9.1,3.8-13.81,5.3c-5.4,1.73-10.95,2.93-16.22,5.07c-2.27,0.92-1.43,4.05,1.01,3.67c3.18-0.5,6.19-1.61,9.23-2.63
			c2.94-0.99,5.88-1.77,8.71-3.07c-0.32,0.09-0.64,0.17-0.96,0.26c5.31-0.27,10.51,0.71,15.34,2.95c2.21,1.02,4.14-2.25,1.92-3.28
			c-2.78-1.29-5.66-2.31-8.67-2.88c-1.49-0.28-3-0.48-4.51-0.57c-1.42-0.09-3.19-0.31-4.59,0.06c-1.39,0.37-2.73,1.17-4.12,1.61
			c-1.38,0.43-2.76,0.81-4.13,1.27c-3.04,1.02-6.05,2.14-9.23,2.63c0.34,1.22,0.67,2.44,1.01,3.67c4.41-1.79,9-2.92,13.56-4.25
			c4.53-1.32,8.96-2.95,13.3-4.77c6.9-2.9,13.58-5.98,19.9-9.99c1.24-0.78,2.48-1.55,3.76-2.26c0.53-0.29,1.07-0.59,1.63-0.83
			c-0.32,0.14,0.2-0.05,0.29-0.1c0.05-0.03,0.19-0.03,0.24-0.06c-0.29,0.21-1.21-0.27-1.35-0.42c0-0.9,0-1.79,0-2.69
			c-1.05,1.05-1.4,2.6-2.65,3.38c-1.54,0.97-2.72,2.42-4.15,3.54c-2.93,2.3-6.45,3.87-9.77,5.5c-1.63,0.8-3.23,1.67-4.86,2.47
			c-1.72,0.84-3.55,1.4-5.35,2.04c-1.78,0.63-3.42,1.29-4.95,2.43c-0.64,0.48-1.27,1-1.99,1.37c-0.75,0.39-1.6,0.53-2.39,0.82
			c-1.9,0.7-3.36,1.98-5.06,3.02c-1.51,0.92-3.23,1.29-4.55,2.53c-1.13,1.07-0.42,2.68,0.84,3.18c1.48,0.59,3.28-0.05,4.69-0.56
			c1.81-0.66,3.65-1.15,5.51-1.64c2.17-0.57,4.18-1.16,5.99-2.5c0.88-0.65,1.87-1.06,2.81-1.62c0.99-0.59,1.89-1.33,2.82-2.02
			c3.68-2.72,7.63-5,11.19-7.89c1.65-1.34,3.15-2.89,4.9-4.12c1.8-1.27,3.86-2.04,5.64-3.37c0.83-0.62,1.23-1.63,0.68-2.6
			C194.45,90.88,193.13,90.4,192.31,91.02L192.31,91.02z"/>
	</g>
</g>
<g>
	<g>
		<path d="M153.8,115.89c0.66-0.09,1.18-0.38,1.78-0.67c0.54-0.26,1.04-0.34,1.63-0.44c1.36-0.24,2.55-0.9,3.84-1.36
			c1.31-0.46,2.7-0.72,4.03-1.12c1.36-0.41,2.72-0.84,4.12-1.11c3.03-0.59,6.18-0.39,9.25-0.33c2.98,0.06,6.05-0.24,9,0.22
			c1.4,0.22,2.76,0.63,4.16,0.84c1.53,0.23,3.07,0.37,4.6,0.63c2.91,0.48,5.71,1.51,8.54,2.28c2.93,0.8,5.92,1.34,8.86,2.09
			c2.82,0.72,5.51,1.67,8.25,2.62c1.31,0.46,2.65,0.76,3.93,1.31c1.54,0.66,3.18,0.52,4.67,1.27c1.44,0.72,2.96,1,4.52,1.31
			c1.64,0.33,3.27,0.68,4.92,0.96c0.17-1.24,0.34-2.49,0.51-3.73c-4.99-0.36-9.81-2.12-14.59-3.5c-2.43-0.7-4.82-1.77-7.31-2.23
			c-1.18-0.22-2.39-0.33-3.56-0.61c-1.12-0.27-2.1-0.8-3.08-1.38c-4.29-2.54-8.71-4.41-13.75-4.72c-2.5-0.16-5.01-0.01-7.52-0.02
			c-2.72-0.01-5.43,0.06-8.14,0.22c-5.94,0.35-11.85,1.11-17.7,2.15c-2.13,0.38-1.61,3.78,0.51,3.73c2.69-0.06,5.14-0.98,7.69-1.72
			c2.64-0.76,5.29-1.51,7.93-2.3c5.29-1.58,10.55-2.14,16.03-2.62c2.56-0.22,4.87,0.11,7.34,0.78c2.56,0.7,5.16,1.28,7.72,1.96
			c5.17,1.39,9.37,4.51,13.95,7.13c2.61,1.49,5.34,2.76,8.13,3.89c1.34,0.54,2.69,1.05,4.03,1.6c0.67,0.28,1.34,0.58,2.03,0.8
			c0.21,0.07,0.45,0.16,0.68,0.19c0.2,0.02,0.5,0.27,0.28-0.06c0-0.64,0-1.28,0-1.92c-0.46,0.99-1.45,1.49-2.36,2
			c-1.09,0.61-2.15,1.2-3.31,1.65c-1.34,0.52-2.46,1.3-3.68,2.05c-1.43,0.88-3,1.49-4.51,2.19c-2.99,1.38-5.74,3.11-8.8,4.34
			c-2.99,1.2-6.06,2.31-9.24,2.91c-3.27,0.61-6.65,0.86-9.95,1.23c-3.57,0.41-7.14,0.77-10.72,1.02
			c-6.95,0.48-13.81,0.32-20.73-0.41c-3.75-0.39-7.52-0.85-11.19-1.74c-1.64-0.4-2.89-1.02-4.27-1.98c-1.39-0.97-2.9-1.67-4.48-2.27
			c0,1.22,0,2.44,0,3.67c6.29-0.94,12.65-1.26,19-1.03c2.45,0.09,2.44-3.71,0-3.8c-6.7-0.24-13.38,0.17-20.01,1.17
			c-0.81,0.12-1.4,1.07-1.4,1.83c0,0.89,0.6,1.53,1.4,1.83c2.64,1,4.7,2.98,7.4,3.87c2.95,0.97,6.16,1.34,9.23,1.75
			c6.7,0.88,13.41,1.4,20.17,1.17c6.69-0.23,13.34-0.99,19.98-1.78c3.24-0.39,6.48-0.68,9.63-1.58c2.88-0.82,5.67-1.94,8.42-3.09
			c3.02-1.27,5.76-3.04,8.75-4.38c1.37-0.61,2.69-1.25,3.95-2.07c1.26-0.82,2.5-1.26,3.83-1.9c1.99-0.95,4.44-2.15,5.75-3.97
			c0.82-1.14,0.91-2.43-0.19-3.42c-0.95-0.85-2.41-1.02-3.56-1.48c-2.79-1.11-5.61-2.17-8.32-3.46c-2.85-1.35-5.51-2.99-8.19-4.64
			c-2.63-1.62-5.32-3.18-8.25-4.22c-2.89-1.02-5.94-1.53-8.89-2.36c-3.28-0.92-6.39-1.54-9.81-1.24c-3.57,0.31-7.16,0.57-10.69,1.2
			c-3.64,0.65-7.14,1.88-10.69,2.91c-1.68,0.49-3.37,0.91-5.03,1.44c-1.65,0.52-3.28,1.03-5.02,1.07c0.17,1.24,0.34,2.49,0.51,3.73
			c10.21-1.82,20.58-2.51,30.95-2.27c5,0.12,9.16,1.87,13.41,4.36c2.16,1.27,4.26,1.75,6.71,2.15c2.45,0.4,4.71,1.38,7.08,2.09
			c5.4,1.6,10.84,3.49,16.49,3.9c2.11,0.15,2.63-3.37,0.51-3.73c-1.5-0.25-2.99-0.57-4.48-0.87c-1.35-0.28-2.81-0.43-4.06-1.02
			c-0.59-0.28-1.14-0.62-1.77-0.81c-0.69-0.21-1.4-0.2-2.1-0.31c-1.28-0.2-2.45-0.88-3.7-1.23c-2.91-0.81-5.68-2.02-8.6-2.81
			c-2.94-0.79-5.92-1.37-8.87-2.09c-2.94-0.72-5.8-1.78-8.76-2.44c-2.96-0.66-6-0.8-8.96-1.48c-3.06-0.71-6.16-0.57-9.28-0.58
			c-3.18,0-6.38-0.24-9.55,0.08c-3.31,0.33-6.36,1.48-9.57,2.26c-1.46,0.35-2.76,1.1-4.2,1.51c-0.75,0.21-1.54,0.24-2.28,0.5
			c-0.68,0.24-1.25,0.69-1.97,0.79c-1.01,0.15-1.58,1.44-1.33,2.34C151.76,115.65,152.77,116.04,153.8,115.89L153.8,115.89z"/>
	</g>
</g>
<g>
	<g>
		<path d="M241.48,125.1c-1.06,0.87-1.63,2.14-2.55,3.14c-1.06,1.15-2.11,2.32-3.18,3.47c-1.91,2.06-4.23,3.73-6.48,5.41
			c-2.26,1.68-4.67,3.33-7.35,4.26c-3.06,1.06-6.45,1.57-9.63,2.15c-6.79,1.23-13.64,0.91-20.48,0.34
			c-3.47-0.28-6.93-0.54-10.41-0.78c-3.4-0.23-6.74-0.91-10.07-1.6c-7.24-1.51-14.52-2.27-21.42-5.1c-0.17,1.24-0.34,2.49-0.51,3.73
			c4.02-0.02,7.96,0.71,11.92,1.29c4.32,0.63,8.66,1.14,13,1.66c4.14,0.49,8.27,1.05,12.41,1.61c4.11,0.56,8.21,0.9,12.28-0.07
			c2.24-0.53,1.49-3.51-0.51-3.73c-1.33-0.15-2.62-0.5-3.93-0.72c-1.01-0.17-2.26-0.09-3.2-0.52c-0.49,1.16-0.98,2.32-1.46,3.47
			c4.18,0.71,8.38,1.35,12.61,1.74c2.01,0.18,4,0.45,6.01,0.61c2.1,0.17,4.09-0.03,6.17-0.35c1.9-0.29,3.71-0.72,5.44-1.58
			c1.85-0.92,3.56-2.15,5.22-3.36c3.32-2.43,6.48-5.02,9.51-7.82c1.54-1.42,2.97-3.1,4.75-4.21c0.87-0.54,1.78-0.99,2.7-1.43
			c0.54-0.25,1.05-0.53,1.51-0.92c0.1-0.08,0.2-0.17,0.29-0.27c0.51-0.58,0.1,0.19-0.4-0.01c-0.44-0.44-0.89-0.89-1.33-1.33
			c0.42,1.97-2.6,4.1-3.9,5.12c-1.11,0.88-2.25,1.77-3.49,2.46c-1.23,0.68-2.68,0.6-3.84,1.46c-0.83,0.62-1.23,1.64-0.68,2.6
			c0.47,0.82,1.78,1.29,2.6,0.68c0.87-0.65,2.1-0.61,3.09-1.07c1.33-0.61,2.51-1.52,3.67-2.41c1.8-1.37,3.57-2.78,4.92-4.61
			c1.11-1.51,2.58-5.06,0.42-6.39c-1.07-0.66-2.37-0.43-3.29,0.35c-0.92,0.78-1.91,1.19-2.97,1.76c-2.41,1.29-4.25,3.19-6.23,5.03
			c-2.16,2.01-4.36,3.98-6.69,5.79c-2.23,1.73-4.53,3.47-6.99,4.85c-2.36,1.32-5.29,1.83-7.99,1.91c-3.21,0.1-6.51-0.49-9.7-0.81
			c-3.49-0.36-6.95-0.9-10.4-1.49c-0.93-0.16-1.87,0.17-2.24,1.1c-0.32,0.8-0.1,1.98,0.78,2.37c1.34,0.61,2.68,0.68,4.11,0.9
			c1.66,0.26,3.27,0.67,4.94,0.86c-0.17-1.24-0.34-2.49-0.51-3.73c-3.91,0.93-7.95,0.41-11.87-0.16c-4.09-0.6-8.19-1.09-12.3-1.58
			c-4.17-0.49-8.33-0.98-12.48-1.61c-3.96-0.6-7.93-1.3-11.95-1.28c-2.29,0.01-2.39,2.96-0.51,3.73c3.06,1.26,6.24,2.2,9.47,2.92
			c3.42,0.76,6.9,1.13,10.33,1.84c3.51,0.73,7.02,1.47,10.58,1.88c3.51,0.4,7.06,0.51,10.59,0.81c7.13,0.6,14.23,1.09,21.34,0.03
			c3.4-0.51,6.81-1.22,10.16-2.04c2.95-0.72,5.67-2.19,8.16-3.9c2.78-1.91,5.68-3.98,8.09-6.35c1.2-1.17,2.21-2.51,3.39-3.7
			c1.15-1.16,1.92-2.75,3.17-3.77c0.8-0.66,0.67-2.01,0-2.69C243.39,124.31,242.27,124.45,241.48,125.1L241.48,125.1z"/>
	</g>
</g>
<g>
	<g>
		<path d="M215.4,112.88c0.76,0.51,1.57,0.68,2.4,1.03c0.78,0.33,1.34,1.04,2.02,1.54c1.56,1.15,3.29,2.13,4.95,3.13
			c1.52,0.92,3.8-1.04,2.6-2.6c-1.04-1.36-2.39-1.98-3.9-2.7c-1.5-0.72-3.11-1.66-4.36-2.75c-0.77,1-1.54,1.99-2.3,2.99
			c1.13,0.75,2.4,1.07,3.68,1.46c1.3,0.4,2.45,1.13,3.74,1.56c0.34-1.22,0.67-2.44,1.01-3.67c-2.13-0.54-4.07-1.58-6.15-2.27
			c-2.01-0.67-4.06-1.25-6.02-2.06c-1.9-0.79-3.66-1.72-5.68-2.2c-1.91-0.46-3.89-0.7-5.85-0.83c-4.36-0.28-8.61,0.17-12.9,0.98
			c-4.4,0.83-8.84,1.49-13.16,2.7c-2.23,0.62-4.49,1.53-6.78,1.89c-1.68,0.26-2.96-0.57-4.32-1.49c-2.04-1.37-3.94,1.92-1.92,3.28
			c1.41,0.95,2.89,1.79,4.6,2c1.74,0.21,3.45-0.28,5.11-0.77c2.2-0.64,4.38-1.31,6.6-1.87c2.23-0.56,4.49-0.89,6.75-1.3
			c8.05-1.47,16.83-3.28,24.59,0.41c2.22,1.05,4.54,1.8,6.87,2.55c2.44,0.79,4.76,2,7.24,2.63c2.39,0.6,3.32-2.89,1.01-3.67
			c-1.15-0.38-2.19-1.04-3.35-1.43c-1.09-0.37-2.19-0.56-3.16-1.2c-1.78-1.18-3.94,1.56-2.3,2.99c1.31,1.14,2.84,2.11,4.35,2.95
			c0.58,0.33,1.21,0.58,1.81,0.87c0.41,0.2,1.23,0.49,1.5,0.85c0.87-0.87,1.73-1.73,2.6-2.6c-1.62-0.98-3.41-1.91-4.88-3.1
			c-0.66-0.54-1.24-1.15-2-1.55c-0.81-0.42-1.73-0.53-2.49-1.05C215.29,108.22,213.39,111.51,215.4,112.88L215.4,112.88z"/>
	</g>
</g>
<g>
	<g>
		<path d="M233.82,79.53c1.23-0.14,2.07-0.79,3.17-1.3c0.86-0.4,0.43-1.82-0.48-1.77c-2.12,0.11-4.23-0.24-6.33,0.2
			c-2.25,0.47-4.46,1.35-6.75,1.61c-1.01,0.12-2.03,0.1-3.04,0.19c-1.22,0.11-2.4,0.34-3.63,0.33c-2.26-0.03-4.43,0.02-6.69,0.27
			c-4.47,0.49-9.32-0.1-13.63,1.37c-4.34,1.48-9.07,1.2-13.42,2.73c-2.58,0.9-5.21,1.52-7.92,1.86c-2.46,0.31-4.97,1.11-7.45,1.06
			c0,0.63,0,1.27,0,1.9c2.03,0.01,4.1,0.14,6.12-0.07c1.92-0.2,3.79-0.69,5.71-0.92c1.9-0.23,3.81-0.45,5.72-0.68
			c0.78-0.09,1.54,0,2.29-0.26c0.82-0.27,1.52-0.83,2.41-0.89c1.22-0.08,1.22-1.98,0-1.9c-0.74,0.05-1.35,0.23-2.01,0.54
			c-0.91,0.42-1.49,0.49-2.46,0.57c-1.94,0.16-3.89,0.48-5.83,0.7c-1.95,0.22-3.86,0.73-5.82,0.94c-2.02,0.22-4.09,0.08-6.12,0.07
			c-1.22-0.01-1.22,1.87,0,1.9c2.22,0.05,4.34-0.65,6.52-0.94c2.26-0.3,4.49-0.6,6.69-1.2c2.26-0.62,4.4-1.51,6.72-1.91
			c2.22-0.38,4.47-0.59,6.69-0.98c1.15-0.2,2.22-0.56,3.33-0.9c1.17-0.37,2.43-0.42,3.65-0.54c2.34-0.23,4.68-0.17,7.01-0.36
			c2.21-0.17,4.4-0.55,6.62-0.51c1.18,0.02,2.35,0.12,3.53,0c1.1-0.11,2.18-0.29,3.29-0.34c2.5-0.12,4.81-0.74,7.23-1.35
			c1.22-0.31,2.39-0.61,3.65-0.62c1.32-0.01,2.63,0.12,3.94,0.05c-0.16-0.59-0.32-1.18-0.48-1.77c-0.71,0.33-1.41,0.95-2.21,1.04
			C232.61,77.76,232.6,79.67,233.82,79.53L233.82,79.53z"/>
	</g>
</g>
<g>
	<g>
		<path d="M231,77.63c-0.83-0.06-1.55,0.16-2.34,0.39c-1.06,0.31-2.18,0.46-3.28,0.58c-1.95,0.23-3.92,0.2-5.89,0.19
			c-4.17-0.03-8.26,0.35-12.41,0.53c-1.93,0.08-3.8,0.56-5.69,0.89c-1.85,0.32-3.76,0.32-5.6,0.73c-1.89,0.43-3.68,1.28-5.57,1.75
			c-1.89,0.47-3.79,0.97-5.71,1.27c-4.73,0.75-9.56,0.44-14.33,0.43c-1.22,0-1.23,1.9,0,1.9c4.07,0.01,8.15,0.22,12.21-0.17
			c3.86-0.36,7.96-1.22,11.6-2.58c1.81-0.68,3.49-0.99,5.41-1.17c1.96-0.19,3.86-0.65,5.8-0.96c2.1-0.34,4.28-0.28,6.41-0.47
			c1.99-0.18,3.96-0.28,5.96-0.27c2.3,0.02,4.62,0.12,6.91-0.08c1.07-0.09,2.13-0.25,3.19-0.42c1.1-0.18,2.22-0.72,3.33-0.64
			C232.22,79.62,232.22,77.72,231,77.63L231,77.63z"/>
	</g>
</g>
<g>
	<g>
		<path d="M234.15,81.06c-0.93-1.14-2.88-0.93-4.17-0.83c-2.05,0.16-4.1,0.05-6.16,0.15c0,0.32,0,0.63,0,0.95
			c2.28-0.27,4.57-0.57,6.83-0.94c1.22-0.2,3.03-0.07,3.35-1.61c0.06-0.31-0.14-0.58-0.46-0.6c-1.35-0.08-2.9,0.33-3.95,1.2
			c-0.18,0.15-0.19,0.52,0,0.67c1.22,0.99,3.05,1.34,4.59,1.27c0.62-0.03,0.61-0.9,0-0.95c-4.6-0.39-9.14,1.29-13.31,3.04
			c-4.81,2.01-9.65,3.93-14.53,5.76c-4.52,1.69-9.13,3.21-13.42,5.44c-2.05,1.07-4.03,2.28-5.88,3.68c-1.9,1.44-3.6,3.12-5.53,4.52
			c-1.52,1.11-3.1,2.15-4.66,3.2c-0.68,0.46-1.38,0.9-2.13,1.24c-0.41,0.18-1.26,0.6-1.66,0.21c-0.07,0.26-0.14,0.53-0.21,0.79
			c1.21-0.43,2.46-0.74,3.64-1.25c1.12-0.49,2.09-1.21,3.04-1.97c2.13-1.7,4.35-3.27,6.63-4.76c4.59-3,9.39-5.58,14.22-8.17
			c2.24-1.2,4.44-2.5,6.73-3.61c2.39-1.17,4.84-1.98,7.42-2.61c5.37-1.3,10.82-2.86,16.39-2.86c2.69,0,5.59-0.2,8.04-1.42
			c2.3-1.15,4.11-3.04,6.35-4.29c0.53-0.3,0.06-1.12-0.48-0.82c-1.96,1.09-3.59,2.67-5.51,3.82c-2.18,1.31-4.79,1.69-7.3,1.75
			c-1.34,0.03-2.66,0.02-4,0.16c-1.31,0.13-2.61,0.34-3.91,0.54c-2.74,0.42-5.42,1.1-8.1,1.78c-2.54,0.64-5.03,1.22-7.45,2.24
			c-2.33,0.99-4.54,2.23-6.75,3.46c-4.74,2.62-9.55,5.06-14.15,7.94c-2.52,1.58-5.05,3.22-7.4,5.05c-1.14,0.89-2.22,1.87-3.49,2.58
			c-1.3,0.72-2.79,1.04-4.18,1.53c-0.33,0.12-0.48,0.53-0.21,0.79c0.92,0.9,2.42,0.17,3.35-0.33c1.1-0.59,2.07-1.35,3.1-2.04
			c2.01-1.34,4.01-2.69,5.85-4.27c1.85-1.6,3.69-3.12,5.77-4.41c4.16-2.57,8.69-4.26,13.26-5.94c5.01-1.85,9.99-3.74,14.92-5.78
			c4.91-2.03,10.08-4.5,15.54-4.04c0-0.32,0-0.63,0-0.95c-1.26,0.06-2.91-0.17-3.92-0.99c0,0.22,0,0.45,0,0.67
			c0.85-0.7,2.2-0.98,3.28-0.92c-0.15-0.2-0.31-0.4-0.46-0.6c-0.13,0.65-0.74,0.7-1.3,0.76c-0.71,0.07-1.41,0.2-2.11,0.31
			c-1.94,0.31-3.9,0.56-5.85,0.79c-0.59,0.07-0.62,0.98,0,0.95c1.9-0.09,3.81,0.04,5.71-0.12c1.1-0.09,3.14-0.48,3.95,0.51
			C233.87,82.21,234.54,81.53,234.15,81.06L234.15,81.06z"/>
	</g>
</g>
<g>
	<g>
		<path d="M44.08,231.17c2.2-0.51,4.77-1.68,6.07-2.14c1.51-0.54,3.02-1.07,4.47-1.79c0.4-0.17,0.78-0.37,1.14-0.61
			c1.45-0.81,0.68-0.62-2.3,0.57c-3.02-7.3-6.05-14.6-9.07-21.9c0.38-0.15,0.76-0.31,1.13-0.46c1.35-0.55,0.44-0.16-2.74,1.16
			c-0.97,0.49-1.86,1.06-2.78,1.63c-2.41,1.48-2.92,1.68-5.43,2.5c2.27,8.25,4.55,16.5,6.82,24.74c11.95-4,21.53-17.19,16.56-30.04
			c-4.74-12.23-20.86-17.58-31.91-10.66c-11.68,7.32-13.59,26.18-1.88,34.16c5.99,4.09,12.89,4.47,19.63,2.41
			c2.58-0.79,5.12-1.47,7.64-2.45c1.78-0.69,3.8-1.28,5.44-2.3c-0.81,0.51,2.17-0.18-0.43,0c6.91-0.47,12.83-5.56,12.83-12.83
			c0-6.58-5.88-13.31-12.83-12.83c-5.02,0.34-8.02,1.66-12.61,3.51c-2.25,0.91-4.61,1.31-6.86,2.16c-1.62,0.51-1.95,0.67-0.96,0.5
			c4.08,0.25,5.9,3.13,5.46,8.62c0.49-1.51,0.47-1.68-0.07-0.5c1.32-2.19,0.23-1.58-3.24,1.85c-1.27,0.26-2.17,0.11-3.18-0.61
			c-0.99-1.82-1.38-3.83-1.18-6.04c-0.19,0.84-0.44,1.66-0.75,2.46c-0.16,0,1.06-2,1.53-2.16c-6.57,2.2-10.87,8.84-8.96,15.78
			c1.77,6.45,9.17,11.13,15.78,8.96c3.97-1.3,8.08-2.73,11.56-5.09c3.16-2.14-1.22,0.56,4.07-2.16c2.08-1.07,4-2.35,5.51-4.19
			c7.33-8.92,2.38-20.8-9.07-21.9c-4.13-0.4-7.01,1.46-10.65,2.93c-1.3,0.52-4.87,1.79-5.54,1.95c-6.75,1.57-10.75,9.29-8.96,15.78
			C30.19,229.12,37.31,232.75,44.08,231.17L44.08,231.17z"/>
	</g>
</g>
<g>
	<g>
		<path d="M89.79,186.83c-4.32,3.41-7.94,7.59-12.6,10.47c-4.96,3.07-10.36,4.09-16.22,3.62c-6.82-0.55-9.21-5.33-10.4-11.46
			c-1.08-5.55-1.11-12.6,2.92-16.96c3.32-3.59-2.05-8.98-5.38-5.38c-5.36,5.8-6.2,13.36-5.39,20.98c0.74,6.94,3.16,15.16,9.88,18.44
			c6.91,3.37,17.15,2.78,24.12-0.18c7.36-3.12,12.29-9.31,18.44-14.15C99,189.18,93.59,183.83,89.79,186.83L89.79,186.83z"/>
	</g>
</g>
<g>
	<g>
		<path d="M32.55,175.53c-3.04,1.91-5.19,4.73-6.6,8.02c-1.57,3.65-1.01,7.69-2.23,11.37c2.44,0.67,4.89,1.35,7.33,2.02
			c1.32-8.96,5.73-17.37,13.36-22.4c-1.73-1.73-3.47-3.47-5.2-5.2c-0.27,0.53-1.62,1.69-2.34,2.35c-0.45,0.41-2.74,2.54-1.85,1.67
			c-3.28,3.2-5.36,6.95-7.04,11.2c-1.8,4.55,5.55,6.53,7.33,2.02c1.31-3.3,2.96-6.05,5.6-8.33c1.67-1.44,3.84-3.07,4.85-5.07
			c1.61-3.17-1.82-7.43-5.2-5.2c-9.31,6.15-15.22,15.88-16.85,26.95c-0.7,4.74,5.76,6.78,7.33,2.02c1.66-5.01,0-11.5,5.33-14.84
			C40.53,179.51,36.72,172.92,32.55,175.53L32.55,175.53z"/>
	</g>
</g>
<g>
	<g>
		<path d="M77.27,116.17c0.21,0.01,0.41,0.02,0.62,0.03c-0.9-0.37-1.79-0.74-2.69-1.11c3.73,3.2-7.34,8.26-9.47,8.53
			c-7.17,0.9-14.94-0.57-21.98-1.83c-6.49-1.17-12.76-3.03-19.12-4.75c-3.25-0.88-6.64-1.26-9.85-2.24
			c-1.56-0.48-5.2-1.21-6.35-2.29c-3.57-3.35-8.95,2.02-5.38,5.38c2.45,2.3,6.54,3.27,9.7,4.25c4.77,1.48,9.83,2.27,14.66,3.63
			c10.27,2.89,21.07,5.04,31.75,5.61c8.74,0.46,17.39-1.9,22.81-9.36c3.05-4.2,1.2-13.15-4.71-13.43
			C72.38,108.34,72.39,115.94,77.27,116.17L77.27,116.17z"/>
	</g>
</g>
<g>
	<g>
		<path d="M78.32,113.63c2.97,7.28-5.69,11.21-11.79,11.46c-6.86,0.27-13.47-0.83-20.11-2.38c-6.27-1.46-12.63-3.74-18.74-5.82
			c-3.53-1.2-7.06-2.28-10.65-3.32c-1.49-0.43-2.94-0.93-4.39-1.48c-0.48-0.2-0.97-0.41-1.45-0.61c-1.12-0.5-1.19-0.44-0.21,0.17
			c-3.1-5.27-11.31-0.49-8.21,4.8c3.61,6.14,15.31,7.15,21.47,9.28c9.34,3.23,19.08,6.71,28.9,8.06c8.45,1.16,18.32,2.03,25.93-2.58
			c7.22-4.37,11.81-11.78,8.41-20.12C85.2,105.52,76,107.96,78.32,113.63L78.32,113.63z"/>
	</g>
</g>
<g>
	<g>
		<path d="M138.73,91.11c1.52-4.04,1.84-8.16,1.86-12.44c0.02-4.41,0.63-8.25,1.15-12.56c0.89-7.44,0.34-16.42-0.82-23.79
			c-1.35-8.53-3.6-17.51-8.61-24.68c-3.61-5.17-10.02-13.21-17.14-9.39c-6.37,3.41-8.47,12.78-10.66,19.07
			c-3.11,8.95-6.27,17.87-6.92,27.4c-0.57,8.37-0.02,17.72,2.64,25.71c1.91,5.76,5.41,15.31,11.11,18.4c4.24,2.3,8.73-2.29,6.5-6.5
			c-5.87-11.06-8.75-22.07-8.39-34.66c0.32-11.2,2.22-23.28,7.99-33.06c1.3-2.2,2.55-4.3,4.41-1.51c1.08,1.62,1.71,3.53,2.43,5.32
			c1.79,4.49,4.15,8.79,5.67,13.39c3.97,12.06,3.45,26.47,3.39,39.04c-0.03,6.12,9.48,6.12,9.5,0c0.07-16.01,0.19-33.3-6.39-48.16
			c-3.5-7.9-9.38-27.5-21.91-19.22c-4.93,3.26-7.76,10.5-9.73,15.8c-2.68,7.22-3.81,15.15-4.52,22.79
			c-1.5,16.15,1.8,30.84,9.35,45.07c2.17-2.17,4.33-4.33,6.5-6.5c-1.76-0.96-2.98-4.54-3.86-6.23c-1.52-2.9-2.78-5.84-3.61-9.01
			c-1.71-6.58-2.04-13.89-1.57-20.67c0.47-6.77,2.58-13.36,4.77-19.74c1.09-3.18,2.19-6.37,3.32-9.54c0.61-1.72,1.97-7.11,3.76-7.86
			c3.55-1.49,8.82,11.84,9.87,14.56c2.45,6.36,3.35,13.67,3.37,20.44c0.02,5.69,0.17,10.93-0.81,16.5
			c-1.15,6.58,0.58,13.09-1.83,19.51C127.41,94.31,136.6,96.79,138.73,91.11L138.73,91.11z"/>
	</g>
</g>
<g>
	<g>
		<path d="M148.65,85.16c1.12-6.07,1.98-12.22,3-18.34c1.04-6.24,2.48-12.24,1.49-18.63c-0.9-5.78-3.9-11.94-6.38-17.21
			c-2.69-5.72-6.02-11.01-9.47-16.28c-1.6-2.44-3.26-4.74-5.33-6.79c-1.71-1.69-3.27-3.83-5.61-4.65
			c-5.01-1.76-10.34,1.92-13.35,5.67c-3.46,4.31-5.86,9.9-8.28,14.85c-2.91,5.96-3.91,10.36-2.54,16.91c1.5,7.18,12.5,4.14,11-3.03
			c-0.91-4.35,0.86-7.24,2.87-11.09c1.74-3.33,3.34-7.9,5.9-10.68c0.55-0.68,1.21-1.2,2-1.57c-2.8-1.58-3.38-1.53-1.76,0.16
			c1.16,1.69,3.14,2.91,4.39,4.65c2.6,3.64,5.01,7.54,7.18,11.46c4.13,7.46,8.74,16.29,8.25,24.99c-0.5,8.83-2.76,17.92-4.35,26.56
			C136.33,89.31,147.32,92.38,148.65,85.16L148.65,85.16z"/>
	</g>
</g>
<g>
	<g>
		<path d="M143.08,48.17c-0.1,3.6,0.89,6.33,1.52,9.81c0.67,3.76,0.18,7.79,0.17,11.61c-0.01,3.06-0.35,5.58-1.44,8.48
			c-0.79,2.11-2.01,4.03-1.86,6.38c0.4,6.59,8.93,7.53,11.2,1.52c2.96-7.85,3.92-16.33,4.1-24.68c0.18-8.3-1.85-15.32-4.41-23.16
			c-5.01-15.29-13.04-28.01-27.72-35.41c-6.54-3.3-12.32,6.54-5.76,9.85c5.96,3.01,10.89,6.52,14.64,12.13
			c3.85,5.75,6.26,11.6,8.39,18.16c2.04,6.27,3.59,11.82,3.45,18.44c-0.16,7.44-1.06,14.66-3.7,21.65c3.73,0.51,7.47,1.01,11.2,1.52
			c-0.03-0.54,1.65-4.03,2.04-5.17c1.13-3.3,1.25-6.24,1.27-9.69c0.01-3.53,0.29-7.1,0.02-10.62c-0.29-3.71-1.81-7.11-1.7-10.8
			C154.7,40.83,143.3,40.84,143.08,48.17L143.08,48.17z"/>
	</g>
</g>
<g>
	<g>
		<path d="M126.88,233.44c-0.07,4.52-0.25,8.59,1.61,12.8c1.38,3.12,6.23,1.42,6.2-1.68c-0.02-2.59,0.61-5.11,0.55-7.75
			c-0.07-3.03-0.53-6.03-0.56-9.06c-0.03-3.64-5.77-4.66-6.53-0.88c-0.43,2.1-1.06,4.1-1.23,6.25c-0.22,2.74,0.41,5.56-0.01,8.29
			c1.85-0.49,3.71-0.98,5.56-1.47c-1.73-1.52-2.58-4.12-3.84-6.01c-1.4-2.11-2.9-4.04-4.04-6.32c-0.96-1.92-2.18-3.61-3.23-5.48
			c-1.4-2.49-1.71-5.49-2.3-8.25c-1.94-9.15-5.71-25.4,4.93-30.5c3.86-1.85,0.49-7.59-3.36-5.74c-5.16,2.47-7.96,7.6-9.67,12.93
			c-2.12,6.62,0.05,14.05,0.89,20.73c0.41,3.23,1.05,6.71,1.95,9.84c0.86,3.02,2.68,5.24,4.15,7.96c1.56,2.88,3.11,5.46,4.92,8.18
			c1.63,2.45,2.63,5.39,4.88,7.36c1.67,1.46,5.15,1.21,5.56-1.47c0.75-4.89,0.24-9.62,1.24-14.54c-2.18-0.29-4.36-0.59-6.53-0.88
			c0.03,3.03,0.49,6.02,0.56,9.06c0.06,2.63-0.58,5.15-0.55,7.75c2.07-0.56,4.13-1.12,6.2-1.68c-1.28-2.89-0.75-6.37-0.7-9.44
			C133.6,229.15,126.95,229.15,126.88,233.44L126.88,233.44z"/>
	</g>
</g>
<g>
	<g>
		<path d="M111.79,123.39c1.42,9.13,0.34,18.61-3.76,27.01c-4.06,8.32-8.37,16.48-12.75,24.64c-1.81,3.38-3.52,7.15-5.86,10.17
			c-3.02,3.9-7.28,6.69-11.41,9.34c-4.22,2.7-8.95,4.6-13.86,5.61c-2.14,0.44-11.83,0.87-12.4-2.51c-0.72-4.21-7.13-2.43-6.42,1.77
			c1.54,9.05,16.94,8.14,23.05,6.42c10.59-2.99,22.52-9.63,28.33-19.41c5.95-10.01,10.97-20.75,16.29-31.11
			c5.5-10.7,7.03-21.93,5.2-33.69C117.55,117.4,111.14,119.19,111.79,123.39L111.79,123.39z"/>
	</g>
</g>
<g>
	<g>
		<path d="M116.12,126.96c4.28,0,4.29-6.65,0-6.65C111.84,120.3,111.84,126.96,116.12,126.96L116.12,126.96z"/>
	</g>
</g>
<g>
	<g>
		<path d="M115,124.7c4.28,0,4.29-6.65,0-6.65C110.72,118.05,110.71,124.7,115,124.7L115,124.7z"/>
	</g>
</g>
<g>
	<g>
		<path d="M108.97,117.11c-0.62,2.59-2.58,4.42-4.04,6.56c-1.88,2.74-3.76,5.59-5.27,8.55c-2.39,4.69-5.28,8.95-8.92,12.82
			c-3.48,3.69-7.72,6.16-11.5,9.45c-4.51,3.93-8.66,7.95-14.2,10.39c-9.06,3.98-15.54,9.06-19.98,18
			c-4.38,8.83,0.07,18.18,8.8,21.67c3.98,1.59,5.7-4.84,1.77-6.42c-11.51-4.6-2.19-19.25,4.8-23.38c4-2.36,8.49-3.89,12.34-6.45
			c3.83-2.55,7.11-5.52,10.55-8.55c3.15-2.77,6.74-4.88,9.84-7.76c3.23-2.99,5.81-6.5,8.56-9.91c2.68-3.33,4.12-7.56,6.44-11.17
			c2.45-3.82,6.16-7.54,7.23-12.04C116.38,114.72,109.97,112.94,108.97,117.11L108.97,117.11z"/>
	</g>
</g>
<g>
	<g>
		<path d="M95.84,142.83c0.35-0.17,0.69-0.35,1.04-0.52c-1.67-0.96-3.34-1.91-5.01-2.87c0.2,1.74-8.42,6.82-9.79,7.64
			c-3.7,2.21-7.69,4.23-11.65,5.93c-6.89,2.95-15.08,6.07-20.26,11.69c-2.2,2.39-0.06,6.47,3.24,5.56
			c4.65-1.29,9.73-3.27,13.63-6.15c4.14-3.06,7.43-7.33,10.89-11.1c2.89-3.15-1.81-7.87-4.7-4.7c-3.02,3.3-5.89,7.02-9.37,9.86
			c-3.41,2.79-8.02,4.52-12.22,5.68c1.08,1.85,2.16,3.71,3.24,5.56c6.46-7.01,17.66-9.75,25.89-14.15c4.31-2.3,8.21-4.75,12.02-7.82
			c2.68-2.16,6.2-4.08,5.74-8c-0.3-2.55-2.58-4.08-5.01-2.87c-0.35,0.17-0.69,0.35-1.04,0.52C88.65,139,92.02,144.75,95.84,142.83
			L95.84,142.83z"/>
	</g>
</g>
</svg>
