<?xml version="1.0" encoding="utf-8"?>
<!-- Generator: Adobe Illustrator 25.0.1, SVG Export Plug-In . SVG Version: 6.00 Build 0)  -->
<svg version="1.1" id="Layer_1" xmlns="http://www.w3.org/2000/svg" xmlns:xlink="http://www.w3.org/1999/xlink" x="0px" y="0px"
	 viewBox="0 0 250 250" style="enable-background:new 0 0 250 250;" xml:space="preserve">
<style type="text/css">
	.st0{fill:#FFFFFF;stroke:#231F20;stroke-width:3;stroke-miterlimit:10;}
	.st1{fill:#231F20;}
	.st2{fill:none;stroke:#231F20;stroke-width:3;stroke-miterlimit:10;}
</style>
<g>
	<g>
		<path class="st0" d="M67.7,79.7"/>
	</g>
	<g>
		<path class="st1" d="M104.5,248.6c-2.7,0-5.8-0.6-8.7-2c-4.3-2.1-7.4-5.6-9-10.2c-2.7-7.9-2.7-25.3-2.6-39.2
			c0-6.1,0-11.5-0.2-15.1c-0.1-1.8-0.2-3.4-0.2-5c-0.2-5.5-0.4-9.5-1.8-10.7c-0.3-0.2-0.8-0.5-2-0.3c-3.6,0.5-5,2.5-8,6.7
			c-1,1.4-2.1,2.9-3.4,4.7c-2.6,3.3-5.3,7.4-8.1,11.7c-4.1,6.1-8.3,12.4-12.6,17.4c-3.5,4.1-15.7,17.5-23.7,18.4
			c-4.6,0.5-8.5-1.1-11.2-4.4c-2.9-3.6-3.8-8.8-2.2-13.6c2.8-8.4,18.7-27.2,20.7-29.4C34,174.9,56.3,149.1,61,141
			c1.6-2.8,3.2-5.3,4.7-7.5c2.6-3.9,4.8-7.3,4.6-9.1c-0.3-2.6-3.7-5.8-8.8-8.2c-1.2-0.6-4.6-1.7-8.8-3c-8.9-2.8-21.1-6.7-28.8-10.8
			C13.9,97,6.8,88,7.1,81.1c0.2-4.6,2.5-9.4,6-12.3c3-2.5,6.8-3.5,10.9-2.8c10.4,1.6,25.8,11.9,31.6,15.7c5.1,3.4,13.6,9.1,16.3,7.8
			c2.4-1.1,2.1-2.8,2.1-2.9C73.9,86.2,71,72,71.4,58.5c0.4-12.2,2-37.2,5.5-44c3.2-6.4,8.3-11.6,12.3-12.6
			c4.4-1.1,10.8-0.2,15.3,4.3c5,5,5.2,11,3.9,18.3c-0.2,1.2-0.5,2.7-0.8,4.4c-1.6,8.8-4.1,22.1-4.1,28.7c0,9.6,1.7,25.5,5.4,30.9
			c0.4,0.5,0.7,0.6,1,0.6c3.6,0.1,11.8-10.9,16.6-17.5c1.9-2.5,3.5-4.7,4.8-6.3c3.8-4.6,9.6-11.8,14.2-17.5c3-3.6,5.5-6.8,7.1-8.7
			c0.9-1,2-2.6,3.4-4.5c5.2-7,13.2-17.5,19.7-21.6c7.4-4.6,14.6-6.5,19.5-4.9c3.9,1.3,9.6,5.9,10.6,9.5c1,3.3,0.9,13.1-1.7,18
			c-2.1,3.9-8.3,10-13.7,15.3c-1.1,1.1-2.2,2.2-3.3,3.2l-2.6,2.6c-7.6,7.5-23.3,23.2-30.2,31.4c-4.5,5.4-9.4,9.9-13.2,13.5
			c-2.9,2.7-5.2,4.8-6.2,6.2c-0.7,1-1.4,2.7-1.2,3.9c0.1,0.6,0.6,1.1,1.3,1.5c1.7,1,7.1,3.3,12.7,5.8c5.6,2.5,11.5,5.1,14.4,6.6
			c2.3,1.2,6.7,3.1,11.8,5.3c7.9,3.4,17.7,7.7,24.1,11.2c2.2,1.2,4.7,2.5,7.4,3.9c9.9,5.2,22.2,11.7,27.9,16
			c7.4,5.6,10.7,14.8,9.4,20.1c-1.1,4.9-2.8,7.6-6.5,10.6c-8.7,7-30.6-4.4-39.2-10.7c-8.4-6.1-50.8-31.9-61.5-35
			c-3.6-1-7.2-2.4-10.3-3.7c-5.3-2.1-10.4-4.1-11.9-2.4c-1.1,1.3-2.2,2.1-3.2,2.9c-1.7,1.3-2.6,2.1-2.6,4c0,3.4,6,23.8,9.2,34
			c5.6,17.7,8.4,39.5,6.3,48.6c-1.8,8.1-7.1,14.8-13.3,17C108.2,248.3,106.4,248.6,104.5,248.6z M80.7,163.8c1.1,0,2,0.3,2.8,0.9
			c2.2,1.8,2.3,5.8,2.6,12.3c0.1,1.5,0.1,3.2,0.2,4.9c0.2,3.7,0.2,9.1,0.2,15.2c0,13.8-0.1,31,2.5,38.5c1.4,4,4.1,7,7.8,8.8
			c4.4,2.1,9.3,2.1,12,1.1c5.5-2,10.2-8,11.9-15.4c1.7-7.7-0.4-28.6-6.3-47.4c-2-6.2-9.3-30.4-9.3-34.7c0-3.1,1.7-4.4,3.5-5.8
			c0.9-0.7,1.9-1.5,2.9-2.6c2.6-2.9,7.8-0.8,14.4,1.8c3.1,1.2,6.5,2.6,10,3.6c10.9,3.1,53.8,29.2,62.3,35.3
			c8.8,6.4,29.3,16.5,36.4,10.7c2.9-2.3,4.6-4.4,5.7-9.3c1.1-4.6-2.1-12.9-8.6-17.8c-5.5-4.2-17.7-10.6-27.6-15.8
			c-2.7-1.4-5.2-2.7-7.4-3.9c-6.3-3.4-16.1-7.7-23.9-11.1c-5.1-2.2-9.6-4.2-11.9-5.4c-2.9-1.5-8.7-4-14.3-6.5
			c-5.7-2.5-11.1-4.9-12.9-5.9c-1.3-0.7-2.1-1.8-2.4-3c-0.6-2.5,1-5,1.5-5.7c1.1-1.6,3.5-3.8,6.5-6.6c3.8-3.6,8.6-8,13-13.3
			c7-8.4,22.8-24,30.4-31.6l2.6-2.6c1-1,2.1-2.1,3.3-3.2c5.3-5.2,11.4-11.2,13.3-14.8c2.2-4.2,2.4-13.4,1.5-16.3
			c-0.8-2.5-5.6-6.8-9.2-8c-3.2-1.1-9.5-0.4-17.5,4.6c-6.2,3.9-14.2,14.6-19.1,21.1c-1.4,1.9-2.6,3.5-3.5,4.5
			c-1.5,1.9-4.1,5.1-7.1,8.7c-4.6,5.7-10.4,12.9-14.3,17.5c-1.3,1.6-3,3.8-4.7,6.2c-7.7,10.4-14,18.4-18.4,18.4c0,0,0,0-0.1,0
			c-1.1,0-2.1-0.6-2.8-1.6c-4.7-6.9-5.7-25.6-5.7-32.2c0-6.8,2.5-20.2,4.1-29.1c0.3-1.7,0.6-3.2,0.8-4.4c1.4-8,0.5-12.6-3.2-16.3
			C99,4,93.4,3.2,89.7,4.1C86.9,4.8,82.1,9,78.9,15.5c-3,6-4.8,29.6-5.2,43.1c-0.4,13.5,2.5,27.6,2.6,27.7l0,0
			c0.2,1.2-0.2,4-3.4,5.4c-3.6,1.6-10.2-2.5-18.5-8c-5.7-3.8-20.7-13.8-30.7-15.4c-3.5-0.6-6.6,0.2-9.1,2.3c-3,2.4-5,6.6-5.1,10.6
			c-0.2,6,6.5,14.2,15.6,19.1c7.5,4,20.1,8,28.4,10.7c4.5,1.4,7.7,2.5,9.1,3.1c6,2.9,9.6,6.5,10.1,10c0.3,2.6-1.9,6-5,10.7
			c-1.4,2.2-3.1,4.6-4.6,7.3c-4.8,8.2-27.3,34.3-29.8,37c-3,3.2-17.7,21.1-20.3,28.6c-1.3,4-0.6,8.4,1.8,11.4
			c2.2,2.7,5.4,3.9,9.2,3.5c5.7-0.6,15.2-9.5,22.2-17.6c4.2-4.9,8.4-11.1,12.4-17.2c2.9-4.3,5.6-8.4,8.2-11.8
			c1.3-1.7,2.4-3.3,3.4-4.6c3.2-4.5,5-7,9.6-7.7C80.1,163.8,80.4,163.8,80.7,163.8z"/>
	</g>
	<g>
		<g>
			<path d="M100,113.4l-2.5,1.1c0.9,0,1.7,0,2.6,0l0,0.1c-0.9,0-1.8,0-2.6,0l1.7,2l-0.1,0.1l-1.6-2l0.4,2.5l-0.1,0l-0.5-2.6
				c-0.3,0.3-0.6,0.7-0.9,1l-0.8,1l-0.1,0l0.8-1c0.3-0.3,0.6-0.7,0.9-1l-2.5,1.1l0-0.1l2.5-1.1c-0.9,0-1.7,0-2.6,0l0-0.1
				c0.9,0,1.7,0,2.6,0l-1.7-2l0.1-0.1l1.6,2l-0.4-2.5l0.1,0l0.5,2.6c0.6-0.7,1.1-1.3,1.7-2l0.1,0c-0.6,0.6-1.1,1.3-1.7,1.9
				L100,113.4L100,113.4z"/>
			<polygon class="st1" points="97.6,117.7 97.2,115.4 95.7,117.1 95.1,116.7 96.2,115.5 94.7,116.2 94.4,115.6 95.9,114.9 
				94.3,115 94.5,114.3 96.7,114.3 95.2,112.5 95.8,112.1 96.9,113.4 96.6,111.7 97.2,111.6 97.6,113.9 99.1,112.2 99.7,112.5 
				98.6,113.7 100.2,113 100.4,113.6 98.9,114.3 100.5,114.3 100.4,114.9 98.1,114.9 99.6,116.7 99.1,117.1 98,115.8 98.2,117.5 			
				"/>
		</g>
	</g>
	<g>
		<circle cx="85.4" cy="110.6" r="1.4"/>
		<path class="st1" d="M85.4,112.6c-1.1,0-2-0.9-2-2s0.9-2,2-2s2,0.9,2,2S86.5,112.6,85.4,112.6z M85.4,109.8
			c-0.5,0-0.9,0.4-0.9,0.9c0,0.5,0.4,0.9,0.9,0.9s0.9-0.4,0.9-0.9C86.2,110.2,85.9,109.8,85.4,109.8z"/>
	</g>
	<g>
		<circle cx="103.5" cy="103.8" r="1.4"/>
		<path class="st1" d="M103.5,105.9c-1.1,0-2-0.9-2-2c0-1.1,0.9-2,2-2s2,0.9,2,2C105.5,105,104.6,105.9,103.5,105.9z M103.5,103
			c-0.5,0-0.9,0.4-0.9,0.9c0,0.5,0.4,0.9,0.9,0.9c0.5,0,0.9-0.4,0.9-0.9C104.4,103.4,104,103,103.5,103z"/>
	</g>
	<g>
		<path class="st2" d="M118.6,112.8"/>
	</g>
	<g>
		<path class="st1" d="M97.8,129.2c-5.2,0-10.4-3.6-12.8-9l1-0.5c2.4,5.2,7.3,8.6,12.3,8.4c4.3-0.2,7.1-2.9,8.2-4.1
			c4.5-5,3-11.5,2.8-12.3l1.1-0.3c0.2,0.8,1.8,7.9-3.1,13.3c-1.1,1.3-4.3,4.2-8.9,4.4C98.2,129.2,98,129.2,97.8,129.2z"/>
	</g>
</g>
</svg>
