<?xml version="1.0" encoding="iso-8859-1"?>
<!-- Generator: Adobe Illustrator 24.3.0, SVG Export Plug-In . SVG Version: 6.00 Build 0)  -->
<svg version="1.1" id="Layer_1" xmlns="http://www.w3.org/2000/svg" xmlns:xlink="http://www.w3.org/1999/xlink" x="0px" y="0px"
	 width="250px" height="250px" viewBox="0 0 250 250" enable-background="new 0 0 250 250" xml:space="preserve">
<path fill="#FFFFFF" stroke="#231F20" stroke-width="3" stroke-miterlimit="10" d="M80.299,89.015"/>
<path fill="#FFFFFF" stroke="#231F20" stroke-width="3" stroke-miterlimit="10" d="M274.403,197.355"/>
<path fill="none" stroke="#231F20" stroke-width="2" stroke-miterlimit="10" d="M86.804,94.955c0,0-2.645-12.368-2.258-24.361
	s1.934-32.497,4.642-37.913s6.964-9.672,10.059-10.445c3.095-0.774,8.511-0.387,12.38,3.482c3.869,3.869,4.256,8.511,3.095,15.088
	c-1.161,6.577-4.256,22.052-4.256,29.015s1.151,22.052,4.831,27.468c3.68,5.416,15.673-13.54,21.089-20.117
	c5.416-6.577,15.088-18.57,18.57-22.825c3.482-4.256,12.82-18.053,19.866-22.503c7.115-4.493,12.919-5.18,16.102-4.119
	c3.183,1.061,7.817,4.93,8.612,7.583c0.796,2.652,0.74,10.945-1.382,14.923c-2.122,3.978-9.548,10.874-14.587,15.914
	s-21.748,21.483-28.644,29.705s-14.862,14.186-16.974,17.24c-0.756,1.092-2.584,4.488,0.419,6.185
	c3.003,1.698,18.543,8.227,23.635,10.838c5.093,2.612,22.077,9.453,31.209,14.364c9.21,4.952,24.397,12.583,30.556,17.237
	c6.126,4.628,8.845,12.178,7.847,16.503c-0.998,4.324-2.452,6.355-5.322,8.649c-6.964,5.563-25.323-3.811-32.931-9.314
	c-7.624-5.514-44.574-27.942-53.888-30.603c-9.314-2.661-17.63-7.983-20.291-4.99c-2.661,2.994-5.322,3.326-5.322,6.653
	c0,3.326,5.726,22.568,8.03,29.893c4.993,15.873,7.147,34.444,5.484,41.762c-1.663,7.318-6.311,12.452-10.968,14.115
	s-15.187,0.383-18.513-9.264c-3.326-9.647-1.762-36.491-2.368-47.036c-0.581-10.1,0.04-15.501-4.617-14.835
	s-5.573,3.766-10.61,10.312c-5.43,7.056-11.677,17.963-17.997,25.281s-14.657,15.055-19.958,15.634
	c-8.618,0.942-12.973-7.318-10.644-14.303c2.328-6.985,15.788-23.006,17.846-25.252c2.058-2.245,21.675-24.955,25.791-32.065
	c4.116-7.11,8.607-12.163,8.232-15.062c-0.374-2.9-3.863-5.849-8.232-7.951c-3.389-1.63-22.735-6.655-32.676-12.005
	c-8.006-4.309-14.306-11.792-14.076-17.534c0.23-5.742,4.824-13.552,13.552-12.174c8.729,1.378,21.592,9.877,27.105,13.552
	c5.513,3.675,12.307,8.171,15.16,6.891C87.254,97.288,86.804,94.955,86.804,94.955z"/>
<g>
	<path stroke="#231F20" stroke-width="0.5" stroke-miterlimit="10" d="M108.476,118.376l-2.149,0.994
		c0.744-0.005,1.488-0.008,2.232-0.013l-0.016,0.068c-0.763,0.004-1.524,0.008-2.287,0.013l1.471,1.766l-0.069,0.046l-1.414-1.699
		l0.378,2.178l-0.08,0.022l-0.393-2.265c-0.26,0.302-0.52,0.604-0.779,0.906l-0.713,0.829l-0.062-0.032l0.712-0.828
		c0.249-0.288,0.497-0.577,0.744-0.865l-2.147,0.993l-0.026-0.059l2.147-0.992c-0.744,0.004-1.489,0.009-2.233,0.013l0.017-0.068
		c0.762-0.004,1.523-0.008,2.285-0.013l-1.47-1.766l0.069-0.046l1.418,1.704l-0.378-2.185l0.079-0.022l0.393,2.264
		c0.496-0.577,0.993-1.154,1.489-1.732l0.062,0.032c-0.485,0.564-0.97,1.128-1.456,1.692l2.15-0.993L108.476,118.376z"/>
</g>
<circle stroke="#231F20" stroke-miterlimit="10" cx="95.709" cy="115.945" r="1.252"/>
<circle stroke="#231F20" stroke-miterlimit="10" cx="111.474" cy="110.037" r="1.252"/>
<path fill="none" stroke="#231F20" stroke-width="3" stroke-miterlimit="10" d="M124.662,117.81"/>
<path fill="none" stroke="#231F20" stroke-miterlimit="10" d="M95.822,124.035c2.176,4.789,6.641,7.79,11.192,7.564
	c4.149-0.206,6.825-3.018,7.442-3.706c4.097-4.566,2.69-10.576,2.551-11.13"/>
<g>
</g>
<g>
</g>
<g>
</g>
<g>
</g>
<g>
</g>
<g>
</g>
</svg>
