<?xml version="1.0" encoding="utf-8"?>
<!-- Generator: Adobe Illustrator 25.0.1, SVG Export Plug-In . SVG Version: 6.00 Build 0)  -->
<svg version="1.1" id="Layer_1" xmlns="http://www.w3.org/2000/svg" xmlns:xlink="http://www.w3.org/1999/xlink" x="0px" y="0px"
	 viewBox="0 0 250 250" style="enable-background:new 0 0 250 250;" xml:space="preserve">
<style type="text/css">
	.st0{fill:#202020;}
</style>
<g id="Layer_2_1_">
	<g id="Layer_1-2">
		<path class="st0" d="M161.7,146.8c0.2,0.3,0.9,0.6,0.9,0.3l-1-0.9L161.7,146.8z"/>
		<path class="st0" d="M164.8,146.4c-0.5-0.9-1.3-1.6-2.3-2c0.9,0.9,0.4,0.7,1.5,1.8c0,0.3-0.6,0.2-1-0.1c0.2,0.3-0.5,0.2,0.1,0.8
			c1.1,0.2,1.3-0.2,0.9-1.1C164.3,146,164.6,146.2,164.8,146.4z"/>
		<path class="st0" d="M178.3,120.6l-0.2,0.1C178.2,120.7,178.2,120.7,178.3,120.6z"/>
		<path class="st0" d="M182.5,102.8c0,0.1,0.1,0.2,0.2,0.2C182.7,102.9,182.6,102.8,182.5,102.8z"/>
		<path class="st0" d="M184.1,99.8L184,100C184.2,99.9,184.2,99.9,184.1,99.8z"/>
		<path class="st0" d="M178.3,120.6l0.5-0.3C178.4,120.1,178.4,120.4,178.3,120.6z"/>
		<path class="st0" d="M164,141.4c0,0.1,0.1,0.3,0.2,0.4c0-0.1,0-0.2,0-0.3L164,141.4z"/>
		<path class="st0" d="M176.8,128.6v0.1c0.1,0.1,0.3,0.2,0.5,0.3L176.8,128.6z"/>
		<path class="st0" d="M174.7,134.5c0.1-0.1-0.9-0.6-1.3-0.8c0.4,0.2,0.6,0.4,0.6,0.6C174.2,134.3,174.4,134.4,174.7,134.5z"/>
		<path class="st0" d="M168.7,142.4v0.2C168.7,142.6,168.7,142.5,168.7,142.4z"/>
		<path class="st0" d="M178.5,124.5c0.1,0,0.3,0.1,0.4,0.1C178.7,124.5,178.6,124.5,178.5,124.5z"/>
		<path class="st0" d="M95.2,9.5V9.3C95.2,9.5,95.1,9.5,95.2,9.5z"/>
		<path class="st0" d="M87.9,4.6L87.9,4.6l0-0.7L87.9,4.6z"/>
		<path class="st0" d="M185.8,94L185.8,94C185.9,94.2,185.9,94.1,185.8,94z"/>
		<path class="st0" d="M171.9,42.5c-0.6,1-1.6-0.2-2.1,1.1C170.1,43.3,171.7,43.4,171.9,42.5z"/>
		<path class="st0" d="M164.2,141.3c0-0.1,0.1-0.2,0.1-0.2C164.3,141.2,164.2,141.3,164.2,141.3z"/>
		<path class="st0" d="M169.8,43.6L169.8,43.6v0.1V43.6z"/>
		<path class="st0" d="M184.5,80.5c-0.2,0-0.3,0.1-0.5,0.2C184.2,80.7,184.3,80.6,184.5,80.5z"/>
		<path class="st0" d="M183.6,90.6l0.1-0.2C183.7,90.4,183.6,90.5,183.6,90.6z"/>
		<path class="st0" d="M182.2,75.6c0.1-0.2,0.2-0.2,0-0.4l-0.1,0.1C182.3,75.3,182.4,75.4,182.2,75.6z"/>
		<path class="st0" d="M181.2,70.3l-0.2,0.1l0.1,0.2L181.2,70.3z"/>
		<path class="st0" d="M110,9.7c-0.1-0.3-0.1-0.7-0.1-1C109.9,9.5,109.1,9.7,110,9.7z"/>
		<path class="st0" d="M164.6,141.7c-0.2-0.2-0.3-0.3-0.3-0.4c0,0.1,0,0.1,0,0.2C164.3,141.6,164.4,141.7,164.6,141.7z"/>
		<path class="st0" d="M173.5,76.9v-0.8C173.4,76.3,173.4,76.6,173.5,76.9z"/>
		<path class="st0" d="M142.1,22.6h-0.2C142,22.6,142,22.7,142.1,22.6z"/>
		<path class="st0" d="M172.9,73.9c0.3-0.1,0.5-0.3,0.7-0.6c-0.1,0-0.2,0-0.3,0L172.9,73.9z"/>
		<path class="st0" d="M109.9,8.7L109.9,8.7z"/>
		<path class="st0" d="M104.6,10.8c0.7,0.1,0.4-1.4,0.7-2.2c0.9-0.4,0.3,1.1,0.6,1.9c0.6-0.4,1.1-1.7,1.5-1.6c0.1,0.2,0.1,0.4,0,0.6
			c0.7-1.1,1.7,0.2,2.6-1.2c0,0.1,0,0.2,0,0.4c0-0.7,0.1-1.3,0.2-2c0.3,0,0.8-0.8,0.8,0.2c-0.2-0.1-0.3,0.3-0.4,0.6l0.4-0.4
			c0.1,1.4-0.6,0.4-0.7,1.4c0.7-0.3,1.7-1.4,2.2-0.9c-0.1,1.4-1.3,0.3-0.8,1.6l-0.7-0.6c0.3,2.2-0.5-0.2-0.2,2.1
			c1,0.5,1.3-0.5,2.2,0c0.4-0.7,0.1-1.1,0.5-1.8c1.8-1,0.5,3.6,1.9,2.1c0.5-0.8,1-2.4,1.5-1.4l-0.6,1.4c1,0.4,1.1-2,1.9-0.8
			c-0.3,0.5-0.9,0.3-0.8,0.5c0.4,1.3,0.7-0.7,1.2-0.6l-0.2,1.3c0.3,0,0.6,0,0.9-0.1c0.3,0,0.6-0.1,0.9-0.1c0.6-0.1,1.3-0.2,1.9-0.1
			c-0.2,0.4-0.5,0.7-0.4,1.2c1.7-0.2,3.1,1.1,4.1,2.4l0.9-0.9c0.1,0.1,0,0.6-0.2,0.7c0.4,0.6,0.3-0.7,0.7-1c0.3,0,0.1,0.8-0.2,1
			c1.3-0.5,3.6-0.9,4,0.8l-0.3,0.2c0.5,0.8,1.9-1.7,2.1-0.4l-0.2,0.1c0.7,0.6,1.6,1,2.4,1.4c0.9,0.4,1.4,1.3,1.5,2.2
			c1.1-1.3,1.1,1.6,2.5-0.4c0.3,1.5-0.2,1.7,0.6,3.1c0.2,0.3,1.3-0.9,1.8-0.8l-0.7,1l1.3-0.7l-0.6,1.4h0.5c-0.1-0.3,0-0.7,0.2-0.9
			c0.9,0,0.9,1.7,0.5,2.2c0.6,0.1,1.3,0.1,2,0.2c-0.3,0.4-0.6,0.3-1,0.4c1.4-0.4-0.7,1.1,0.6,0.7c0.1-0.3,0.5-0.5,0.7-0.7
			c-0.1,0.8,0.5,1.5,1.2,1.6l-0.6,0.6c0.8,1,2.3,1.3,3.2,2.3c-0.1-0.6,1-1.6,1.4-1.4l-0.8,1.1c0.7-0.4,0-0.7,1.1-1
			c0.3,0.5-0.8,1.3-1.3,1.4l0.8,0.1c-0.2,0.3-0.5,0.4-0.9,0.7c0.7-0.4-0.1,1.7,1.1,0.9l-0.2,0.3c1,1,1.8,1,2.5,1.9
			c0.8-0.8,0.9-0.2,1.8-0.6c0.3,0.9,0.2,2.1,1,2.8c0.9,0.2,0.9-0.5,1.6-0.7c-0.7,0.7,0,1.4-0.9,1.5c0.7,0.8,1.7,1.4,2.7,1.8
			c0.2-0.4,0.3-0.7,0.6-0.8c0.3,0.1,0,0.8-0.4,1h-0.1c1.1,0.2,1.2,1.5,1.2,2.6c0,1.1,0,2.2,1.2,2.2H161l1.7,0.6
			c0.2,0.6-0.9,0.1-1.1,0.8c2.3,0.3,1,2.2,2.6,2.7c-0.7,0.5-0.9,1.5-0.3,2.2c0.1,0.1,0.2,0.2,0.3,0.3c0.3,0.3,0.6,0.7,0.8,1.1
			c0.2,0.4,0.2,0.9-0.1,1.3l0.6-0.4c0.8,0-0.2,0.5-0.2,0.8c0.5-0.3,0.4-0.6,0.8-0.6c1,1.2,1.5,2.6,1.6,4.1c0.1,1.5,0.1,3.2,0.4,4.6
			c0.2,1,3.7-0.7,2.5,1.2l-1.4,0.1c0.9,0.7,1.5,1.7,1.7,2.9c0.2,1.1,0.7,2.2,1.5,3c-0.3,0-0.7,0.1-0.8-0.1c-0.8,0.7,0.4,1.6,1.1,1.4
			c0,0.3-0.7,0.2-1,0.6c-0.4,0.6,1.5,0.8,0.6,1.2c-0.1,0.1-0.3-0.1-0.4-0.1c0.5,0.2,0.2,1.3,1.2,0.8c-0.3,0.9,0.8,1.4,0.3,2.1
			c1.3,0.2-0.3,1.5,1.4,1.2c-1.8,0.3-1.2,1.6-0.2,2c-0.6-0.1-0.5,0.5-1.2,0.5c0.1,0.5,0.6,0.9,1.1,0.9c0.1,0,0.2,0,0.3-0.1
			c-2,1.4,2,1.9-0.7,2.8c1.1,1.4,2,2.9,2.5,4.6c-1.8,0.1-0.3-1.7-2.1-1.5c0.8,1.4,2.4,2.1,2.1,3.6c-0.2,0.4-0.8-0.2-1.1-0.3
			c0.8,1.4,0,2.8,1,4.1c-0.2,0-0.4-0.1-0.5-0.3c0.1,0.2-0.3,0.6,0.5,0.6l-0.2-0.2c1.2-0.4,2.5,1,3.1,1.1c-2.3-0.4-0.6,1.3-3.5,0.6
			c0.3,0.3,0.7,0.4,1.1,0.3c-0.2,0.2-0.5,0.3-1.1,0.1c0.4,0.9,1.3,0.6,1.3,1.5c-0.4,0-0.5-0.2-1-0.3c0.8,0.4,1.5,0.9,1.2,1.6
			c-0.2,0-0.5,0-0.5-0.2c0,1.2,1.9,2.2,1.1,3.5c-1.7-0.5-0.6,0.4-2.1,0.4l0.4,0.8l0.7-0.2c-0.1,0.6,1,1.3,0.5,1.8l-0.6-0.5
			c0.1,0.4,0.1,0.8,0.2,1.2c0.2-0.2,0.4-0.4,0.6-0.6c0.7,0.7,1.9,0.1,1.4,0.9c-0.1-0.2-0.1,0.6-1,0.9l0,0c0.4,0.4,0.9,0.8,0.4,1.2
			c-0.5,0.1-1.6-0.3-1.9-0.3c1.2,0.5,0.1,1.5,1.4,2.1c-0.4-0.2-0.8-0.3-1.2-0.3l1,0.4c-0.4,0.2-0.5,0.3-1.1,0.1
			c-0.3,0.9,1.9,0,1,0.9c-0.1-0.1-0.2-0.1-0.4-0.3c-0.5,1,0.3,2.1-0.4,3c-1.5,0-0.2-0.9-1.5-0.8c0,1.4,1.2,3.2,0.6,4.5l0.2-0.2
			c2,0.7-1.2,0.8-0.4,1.7c-0.2-0.2-0.5-0.3-0.9-0.4c-0.6,0.8,0,2,0.3,3.5l-0.5-0.3c-0.6,0.4-0.6,1.3-1,1.8c0.5,0.3,0.3,0.6,1.1,0.7
			c-1.7,0.4-1.6,1.4-1.4,2.3c0.2,1,0.4,1.9-1.1,2.3c0-0.2-0.3-0.6-0.4-0.4v1.5c0.9,0.2,0.6,0,1.4,0c0.5,0.4,0.7,0.9,0.6,1.2
			c-0.4-0.8-1.4-0.5-2-0.4c0.3,0.1,0.5,0.2,0.8,0.3c-1.8,0.1,1.7,0.8,0.3,1.3l-0.4-0.2c0.1,0.4,0.5,1,0.3,1.3
			c-1-0.2-0.3-0.6-1.1-0.9c-0.2,0.5,1.4,1.8,0.2,1.9c-0.2-0.3-0.1-0.7-0.2-1c-1.4,0.1-1.1,0.2-1.4,0.5l0,0l-0.9,0.6l0.4-0.1
			c2.3,1.7-0.1,1.5,1.2,3.1c-1.2-1.6-0.9-0.6-1.9-1.1c-0.4,0.1-0.9,0.3-1.1,0c0.7,0.8-1,0.4,0,1.5c-0.4-0.1-0.2,0.4-1.1-0.1
			c0,0.6,0.7,0.2,1.1,0.4c0.8,1.4-2.4,1.2-1.3,3.1c0.2,1.3,1.2,2.1,1.3,3.4c-0.7,0-1.1-0.9-1.1-0.9c-0.5,0.1-0.9,0.6-0.8,1.2
			c0,0.1,0,0.1,0,0.2c-0.3-0.2-0.6-0.4-1-0.4c-0.1,0.4,1.1,0.9,0.3,1.1c-0.4-0.3-0.8-0.7-1.1-1.1c0.1,0.6,0.4,1.4,0.5,2
			c-0.7-0.2-0.7-0.8-1-1.1c-0.2,0.8,0,1.7,0.6,2.3l0.5-0.1c-0.1,0.2-0.9-0.4-0.9-0.6c-0.5-0.9,0.7-0.4,1-0.3v0.4
			c2.2,0.8,0.4-1.5,0.9-2l1.3,1.1l-0.8-1.3c0.5,0.1,1.3,0.4,1.4,0.9c1-0.1-0.3-0.7,0.8-0.7c0.1,0,0.2,0.1,0.2,0.2l-0.2-0.7
			c0.2,0.3,1.1,0.5,0.7,0.6c1.3-0.4-0.4-2,0.9-1.7l0,0.1c0.1-1.4-1-0.7-1.8-2.2l3,0.7l-1-0.7c0.2-0.2,0.5-0.2,0.7-0.1c0,0,0,0,0,0
			c-0.5-0.8-0.5-0.1-1.1-0.8c1.3-0.1,0.3-1.8,2.1-1.2c-0.7-0.6-0.9,0.3-1.2-0.6c2,0.7,0-0.9,1.1-1c0.9,0.6,0.2,0.9,1.3,0.7
			c-1.5-1.1,0.8-0.9,0.7-1.6c-1.3-0.6-0.1-1.3-0.2-2.2c0.4,0.2,1.4-1.2,2.2-1.8l0.2,0.1c-1.3-0.7-0.8-1.3-0.8-2
			c0.6,0.1,1.1,0.5,1.4,1l0.2-0.5c-0.4-0.2-0.6-0.6-0.6-1l1,0.5c0.2-0.8-0.7-1.9,0.3-2.6c-1-0.4-2.9-0.2-3.2-1.3
			c0.5,0.1,1.4,0.4,1.6,0.7c0-0.1-0.3-0.4,0-0.5l0.7,0.7c0.5-0.3-0.7-0.5-0.5-0.8c0.7,0.3,0.6-0.1,1.2,0.2c0,0.1-0.4,0.2-0.2,0.4
			c0.4-0.4,0.9-0.6,1.5-0.6c-0.4-0.1-1-0.3-1-0.6c0.2-0.7,1,0,1.5-0.3c-0.4-0.3,0.2-0.6-0.9-1c0.1-0.2,0.6-0.1,0.9-0.1
			c-0.4-0.5,0.3-1.8-1-1.7l-0.1,0.1c0,0,0,0,0-0.1l0,0c-0.8-1.5,1.3-2.4,1.2-3.7l0.4,0.1c-0.2-0.8,0.1-1.7-0.6-2.4
			c0-0.2,0.8-0.4,1.2-0.2c-0.2-0.6-0.6-0.8,0.2-1.5c0.6,0.7,0.6-0.1,0.4,0.7c0.5-0.7,1.1-0.7,0.2-1.7c0.9,0.5,1.4-0.3,1.1-0.7
			l-0.8,0.4c0-0.4,0.1-0.8,0.2-1.1l1.3,0.4c1-0.6,0.4-1.4-0.1-2.2s-0.8-1.4,0.6-1.8c-0.9-0.5-0.8,0.8-1.8,0.2
			c0.3-0.7,2.2-1.2,2.3-1.4c0.9-0.9-1.8-1.2-1.1-2.1c-0.5,0.1-1.8,0-2.1-0.7c0.3-0.7,2-0.7,2.4-0.2c0,0.2-0.1,0.2-0.3,0.2
			c0.1,0.2,0.3,0.6,0.9,0.3l-0.5-0.1c0.5-0.3,0.5-1.3,1.3-1c-0.4-0.6-0.8-0.3-1,0.1c0.8-0.9,0.1-1.4,0.6-2.4
			c-0.3,0.1-0.8,0.2-0.8,0.1c0.7-1.3-0.8-0.7-1-1.6c0.8-0.5,1.7,0.3,1.2-0.7c0.5-0.6,1.3-0.1,1.6,0.2c-0.9-0.9,0.7-1.6,0.9-2.1
			l0.4,0.5c-0.2-0.2-0.2-0.5-0.2-0.8l-0.9,0.2c0.2-0.3,0.2-0.5,0.6-0.5c-0.6-0.3-1.6,0.2-2.4-0.4c0.5-0.3-0.5-1.1,0.7-1.2
			c-0.4,1.1,1.3-0.1,1.5,0.9c-0.2-0.2-0.2-0.5,0-0.7c0.1,0,0.3,0,0.3,0.1c1.1-1.1-1.4-0.5-1.4-1.6c0.7,0.1,1.3-0.3,1.2-0.4
			c0,0.5-1.2,0.2-1.7-0.2c0.5-0.7-0.4-0.8-0.3-1.2l-0.3,0.4c-0.7-0.1-0.6-0.5-0.8-1c0.5-0.1,0.4,0.4,0.6,0.3c-1.2-0.5,1.3-1.3,0.4-2
			c0.5-0.4,1.3-0.1,1.6-0.4c-1-0.8,0.9-1,0.1-1.9c-0.9,0.3-0.7,0.3-1.7-0.2l0.8,1.5l-1.4-0.9c0,0.4,0.6,0.9,0.5,1.2
			c-0.8-0.4-0.6-0.4-1.3-0.1c1.4-0.7-0.9-1.2,0-1.9l2.3-0.1c0.9-1.2-1.3-1.8-0.9-3.3l-0.4,0.5c-1-0.1-0.2-0.8-0.7-1.2
			c0.5,0,1.1-0.3,1.5-0.6c-0.6,0.1-0.1-1-1.6-1l0.9-0.8c0.3-1.2-2.4-1-2.2-2.1c0.9,0.2,1.4-0.4,2.1,0.2c0-0.4,0.1-0.7-0.5-0.6
			c0.5-0.3-1.2-0.8-0.6-1.3c-0.4-0.1-1.2,0-1.2-0.4c0.1,0,0.3-0.1,0.4-0.1c-0.4,0.1-0.6-0.5-1.4,0c2.2-1.5-0.7-3,1.1-4.3
			c-0.4-0.7-0.8-1.5-1.1-2.2c0.2,0,0.4-0.1,0.3,0.1c0.5-1.1-2.3,0-1.8-1.3c1.1-0.9,0.8,0.4,1.2-0.1c2.5-0.8-0.7-1.2,0.6-2.3l0.2,0.1
			c0.4-0.4,0-0.7-0.4-1c-0.4-0.3-1-0.6-1-1.1c0.1,0,0.3-0.1,0.4-0.1c-1.2-0.3-2.2-1-2.9-2c1-0.1,0.6,0.2,1.6-0.3
			c-0.3-0.3-1.5,0.6-2,0c0.4-0.4,0.7-1.1,1.7-1.6l0.3,0.7c1.2-0.8-0.4-0.9-0.2-1.4l0.6-0.2c-0.6-1-2.1-0.5-2.4-1.7l-0.4,0.3
			c-1.7-0.1,0.6-0.8-0.7-1l1.4-0.8c-0.9-0.4-1.8-0.9-2.6-1.5c1,0.1,2.1,0.4,3,0.9c-0.2-0.4-0.7-1.4-1.5-1.3c0.2,0.1,0.6,0.2,0.5,0.4
			c-1.4,0-2.1-0.5-2.5-1.2c2.8-1.1-0.3-2.4,1.5-4c-0.8-0.4-1.3-1.2-1.4-2.1c-0.1-0.9-0.4-1.8-0.9-2.5c-1.7,1.7-0.3-0.4-2.4,0.9
			c-0.4-0.3-0.4-0.5-0.3-0.6l0.6-1.9c0.4-0.6,0.7,0.1,1.1-0.2c-0.3-0.9,0.7-0.9,0.9-1.8c-0.7,0.6-1.2,0.3-1.2-0.3
			c-0.2,0.4-0.4,0.8-0.6,1.2c-1.8-0.5,1.1-2.1-0.7-2.5h0.9c-0.8-0.3-1.4-2.2-3.4-1.6c0.2-0.3,0.6-0.8,0.9-0.6
			c-0.5-0.8-1.3-1.4-2.1-1.7c-0.9-0.5-1.6-0.9-1.5-1.8l0.5-0.3c-0.3-0.1-1.2,0.3-1-0.4c0.2-0.1,0.5-0.3,0.5-0.4
			c-0.3,0-1.3,0-1.3-0.5l0.7-0.1c-0.1-0.4-0.3-0.7-0.6-0.9c-0.3-0.2-0.7-0.3-1.1-0.3c-0.8,0-1.6-0.1-2.3-0.4
			c0.9-0.8,1.2-2.1,0.7-3.2l0.2-0.1c-1.1-1.6-3.3-1.3-5-2.1c0.2-1-0.2-2-0.9-2.6c-0.8-0.7-1.4-1.5-1.9-2.4c0,0.4-0.9,1-1.3,0.9
			c-0.1-0.5-1.6,0.2-0.6-1l0.1,0.1c0.8-1.4-0.2-1.6-0.6-2.1l-1.3,1.5c0.3-1.8-0.8-2.2-1.9-2.5s-2-0.6-1.6-2c-0.6,0.2-1-0.1-1.7,0.1
			l0.6-0.9c-0.7-0.8-1.6-1.4-2.6-1.8l0.7-0.5c-0.7-0.5-2.5,2.2-3.2,1.9l0.6-1.5c-1.2-0.7-1.8-2.6-3.7-1.9c0.1-0.2,0.4-0.6,0.6-0.6
			c-0.6-0.3-1.8-2.2-2.6,0c0.6-1.3-1.2-0.8-2.2-0.5l0.6-1c-1.2,1-1.3,1.4-2.3,1.4c-0.1-0.2,0.2-0.9,0.3-0.5
			c-0.4-0.8-0.9,0.8-1.5-0.1l0.6-0.5c-0.6-0.3-0.7,0-1.4,0.6C128.3,8,127.8,7,128,6.1c-0.3,0.5-0.9,1.1-1.2,0.7
			c0-0.3,0.2-0.5,0.4-0.6c-0.9-1.1-2.1,0.7-2.5-0.6c0.1-0.2,0.1-0.4,0.1-0.7c0.5,0.1,1.1,0.4,1.5,0.7c0.3-1-0.3-1.4,0.7-2.5
			c-0.9,0.5-2.4,1.8-3,1.1c0-0.1,0-0.2,0-0.4l0.1-0.1c-0.1-0.2-0.3-0.1-0.5,0c-0.1-0.2-0.3-0.4-0.5-0.5c0.2-0.8-0.7-0.7-1.1-0.9
			c-0.3,1.1-0.7,0.8-0.5,1.8c0-0.1,0.1-0.1,0.4-0.1c0.1,0,0.1,0,0.2-0.1v0.1c0.2,0,0.6,0.1,0.9,0.2c-0.4,0.5-0.9,0.8-1.1,0.1
			c-0.4,0.6-0.8,1.3-1,1.6c-0.1-1.7-0.8-2.7-0.8-3.6c-1.3,0.3-2.8-0.2-4,1.6c-0.4,0.2-0.2-0.7-0.3-1c0.2-0.2,0.4-0.1,0.6-0.3
			c-0.8,0.4-2-0.2-2.4,1.2c-0.7-0.8,0.7-1.2-0.5-1.2l0.2-0.4c-0.9-1.3-2-0.5-3,0.2s-2.1,1.3-3.1-0.3c0.1,0.1,0.2,0.3,0.2,0.5
			c-1.3-0.8-2.8-0.5-4.3-0.4c-0.7,0.1-1.4,0.1-2.2,0c-0.8-0.1-1.5-0.4-2.1-0.8c-0.8-0.5-0.9,0.5-1.4,1.2l-0.2-1.2l-0.8,1.4
			c-1.1,1-2.2-3-3.5-0.9l0.2,0.8C93.1,2.6,92,3.3,92,2.3c0,0.1-0.1,0.9-0.3,0.5l-0.1-0.6l-1.1,1.2c-1-0.4-0.1-2.5-1.6-2.5
			c-0.5,0.3-1.4,2-1.1,2.3c0.2,0,0.6,0.3,0.7,1l-0.4,0.4c0.1,1.8,0,3.7,1.3,4.9L90,8.3l0.3,0.9l-0.7,0.1c0.5,0.8,0.6,0,0.8-0.5
			c0.1,0.3,0.2,0.7,0.4,0.9l0.6-1.9c0.2,0.7-0.2,1.5,0.3,1.8c0.3-0.9-0.5-1.6,0.1-2.2c0.5,0.8,0.4,1.5,0.8,0.7
			c0.1,0.3,0.1,0.7-0.1,1c0.3-0.6,1-0.3,1.2-1.3c0.5,1,1.3-0.4,1.4,1.4c0.1-0.4,0.6-1.4,1-1.5c-0.6,2.1,1.4,0.1,1.2,2.4
			c0.4-1.9,1.7-0.9,2.6-1.9c0,0.2-0.2,0.4-0.2,0.4c0.5,0.2,0.6,0.7,0.9,1.1c0.1-1.6,0.9-1.9,1.3-2.8c0.6,1.5-0.4,1.8-0.3,3.2
			c0-1.3,1.1-1.2,0.9-2.2c0.3,0.5,0.5,1.2,0.5,1.8c0.2-1.9,0.4-0.3,0.9-1.5c0.6,1,0,1.8,0.8,1.3C105.3,10.2,104.6,10.8,104.6,10.8z
			 M122.1,10.7L122.1,10.7l-0.4-0.1L122.1,10.7z M123.5,11.2c-0.2-0.1-0.4-0.2-0.6-0.2c0.1-0.4,0.2-0.7,0.4-0.7
			C123.2,10.5,123.4,10.8,123.5,11.2L123.5,11.2z M122.7,2.8C123,2.7,123,3,123,3.2c-0.2,0-0.3,0-0.5,0l-0.1,0.1
			C122.5,3.1,122.6,3,122.7,2.8z"/>
		<path class="st0" d="M121.9,4.1c0,0-0.1,0-0.1,0c0,0.1,0,0.2,0.1,0.3L122,4L121.9,4.1z"/>
		<path class="st0" d="M178,120.8L178,120.8c-0.1,0-0.1,0-0.2,0C177.9,120.8,178,120.8,178,120.8z"/>
		<polygon class="st0" points="140.5,22.1 140.7,21.9 140.4,22 		"/>
		<path class="st0" d="M171.8,127.6c-0.1,0-0.2,0-0.3,0C171.6,127.6,171.7,127.6,171.8,127.6z"/>
		<path class="st0" d="M170.2,130.9l-0.6,0.3C169.8,131.1,170,131,170.2,130.9z"/>
		<path class="st0" d="M168.6,133.2c0.1,0.1,0.3,0.2,0.4,0.2l0,0L168.6,133.2z"/>
		<path class="st0" d="M176.1,90.9c0,0,0-0.1,0-0.1C175.9,90.5,175.9,90.7,176.1,90.9z"/>
		<path class="st0" d="M178,103.9c-0.2-0.1-0.3-0.3-0.5-0.5C177.5,103.7,177.4,103.9,178,103.9z"/>
		<path class="st0" d="M173.5,76.9L173.5,76.9C173.5,76.9,173.5,76.9,173.5,76.9L173.5,76.9z"/>
		<path class="st0" d="M177.7,102.9c-0.2,0.1-0.3,0.4-0.1,0.5c0,0,0,0,0,0.1C177.7,103.3,177.8,103.1,177.7,102.9z"/>
		<path class="st0" d="M162.7,143.5l-0.1,0.1c0.1,0,0.1,0.1,0.1,0.1L162.7,143.5z"/>
		<path class="st0" d="M162.7,143.6v0.2C162.8,143.8,162.8,143.7,162.7,143.6z"/>
		<path class="st0" d="M162.9,144.2l-0.1-0.4C162.7,143.9,162.6,144,162.9,144.2z"/>
		<path class="st0" d="M165,140.6l-0.3-0.2C164.7,140.4,164.9,140.5,165,140.6z"/>
		<path class="st0" d="M165.4,139.5c-0.2,0.2-1.1,0.2-1,0.6l0.3,0.2C164.2,139.9,165.9,140.1,165.4,139.5z"/>
		<path class="st0" d="M172,137.6l-0.7,0.7c0.5,0,1.1,0.1,1,0.5C173.9,138.3,171.2,138.6,172,137.6z"/>
		<path class="st0" d="M173.8,135.1c0,0.6,0.6,0.2,0.8,0.4C174.3,135,174.3,134.9,173.8,135.1z"/>
		<path class="st0" d="M180.6,114.4l1,0.3C181.5,114.2,181.2,114.6,180.6,114.4z"/>
		<polygon class="st0" points="176.2,109.4 175.5,109.7 176.4,110 		"/>
		<polygon class="st0" points="183.7,108.2 183.9,108.4 183.6,107.6 		"/>
		<path class="st0" d="M182.4,71.1l-1.2,0.4C181.5,71.7,182.8,71.4,182.4,71.1z"/>
		<path class="st0" d="M176.6,56.1c0.5-0.4,0.7-1,0-1C176.6,55.5,176.3,56,176.6,56.1z"/>
		<polygon class="st0" points="149.8,16.4 150.3,16.3 149.6,16.2 		"/>
		<path class="st0" d="M163.5,103c0.4-0.1,1-0.4,0.8-0.6l-1.3,0.4L163.5,103z"/>
		<path class="st0" d="M164.8,100.2c-1-0.1-2,0.2-2.9,0.8c1.3-0.2,0.8,0.1,2.4-0.3c0.3,0.2-0.1,0.6-0.6,0.8c0.4-0.1-0.1,0.5,0.8,0.3
			c0.8-0.8,0.6-1.2-0.4-1.3C164.2,100.4,164.5,100.3,164.8,100.2z"/>
		<path class="st0" d="M150.6,74.9v0.2C150.7,75,150.7,75,150.6,74.9z"/>
		<path class="st0" d="M138,61.6c0.1,0,0.3,0,0.3-0.1C138.2,61.5,138.1,61.5,138,61.6z"/>
		<path class="st0" d="M136.4,58.5l0.1,0.2C136.5,58.6,136.5,58.5,136.4,58.5z"/>
		<path class="st0" d="M150.6,74.9v-0.6C150.3,74.5,150.5,74.6,150.6,74.9z"/>
		<path class="st0" d="M160.2,98.1c0.1,0.1,0.3,0.1,0.4,0.1l-0.2-0.2L160.2,98.1z"/>
		<path class="st0" d="M156.5,80.4l0.1,0.1l0.5-0.2L156.5,80.4z"/>
		<path class="st0" d="M160.2,85.4c0-0.1-1,0.4-1.4,0.7c0.4-0.2,0.7-0.2,0.8-0.2C159.8,85.8,160,85.6,160.2,85.4z"/>
		<path class="st0" d="M163.6,94.8l0.2,0.1C163.8,94.9,163.7,94.8,163.6,94.8z"/>
		<path class="st0" d="M154,76.8c0.1-0.1,0.2-0.2,0.3-0.3C154.1,76.6,154.1,76.7,154,76.8z"/>
		<path class="st0" d="M12.2,83.6L12,83.5C12.1,83.5,12.2,83.6,12.2,83.6z"/>
		<path class="st0" d="M4.1,87L4.1,87l-0.5-0.4L4.1,87z"/>
		<path class="st0" d="M132.5,54L132.5,54C132.7,54,132.6,53.9,132.5,54z"/>
		<path class="st0" d="M81.7,37.4c0.6,1-1.1,1.2-0.2,2.4C81.5,39.3,82.5,38.1,81.7,37.4z"/>
		<path class="st0" d="M160.3,97.9c-0.1-0.1-0.1-0.1-0.1-0.2C160.2,97.8,160.2,97.9,160.3,97.9z"/>
		<path class="st0" d="M81.5,39.8L81.5,39.8l0.1,0.1L81.5,39.8z"/>
		<path class="st0" d="M120.5,47.7c-0.1,0.2-0.1,0.3-0.1,0.5C120.5,48,120.5,47.9,120.5,47.7z"/>
		<path class="st0" d="M128.4,54l-0.1-0.3C128.3,53.8,128.3,53.9,128.4,54z"/>
		<path class="st0" d="M115.1,46.9c-0.1-0.1-0.1-0.3-0.3-0.2c0,0,0,0.1,0,0.2C115,46.7,115.1,46.7,115.1,46.9z"/>
		<path class="st0" d="M110.2,44.9c0,0.1,0,0.2,0,0.2h0.2L110.2,44.9z"/>
		<path class="st0" d="M20.5,71.3c-0.3-0.1-0.6-0.3-0.9-0.5C20.2,71.3,20,72,20.5,71.3z"/>
		<path class="st0" d="M160.8,97.9c-0.3,0.1-0.4,0.1-0.5,0.1c0,0,0.1,0.1,0.1,0.1C160.5,98,160.7,98,160.8,97.9z"/>
		<path class="st0" d="M111.4,54.9l-0.7-0.5C110.9,54.6,111.2,54.8,111.4,54.9z"/>
		<path class="st0" d="M48.8,51.4l-0.1,0.2C48.8,51.6,48.8,51.5,48.8,51.4z"/>
		<path class="st0" d="M108.6,53.7c0-0.3,0-0.6-0.1-0.9c-0.1,0.1-0.1,0.1-0.2,0.2L108.6,53.7z"/>
		<path class="st0" d="M19.6,70.8L19.6,70.8z"/>
		<path class="st0" d="M18.4,76.4c0.5-0.6-0.9-1.2-1.5-1.8c0.2-1,1.1,0.3,1.9,0.6c0-0.7-0.8-1.9-0.5-2.2c0.2,0.1,0.3,0.1,0.5,0.4
			c-0.5-1.2,1.1-1.3,0.4-2.8c0.1,0,0.2,0.1,0.3,0.2C19,70.4,18.5,70,18,69.5c0.2-0.3-0.3-1.1,0.5-0.6c-0.2,0.1,0.1,0.4,0.3,0.7
			l-0.1-0.5c1.2,0.7,0,0.7,0.8,1.4c0.1-0.8-0.2-2.2,0.5-2.3c1.1,0.8-0.5,1.2,0.9,1.5l-0.9,0.3c2,1-0.4,0.3,1.6,1.4
			c1-0.5,0.3-1.3,1.2-1.9c-0.4-0.7-0.9-0.7-1.2-1.4c0.1-2,3.3,1.6,2.8-0.5c-0.4-0.8-1.5-2.1-0.3-2l0.9,1.3c0.8-0.6-1.1-2,0.4-2
			c0.3,0.6-0.2,0.9,0,1c1.3,0.4-0.2-1,0.2-1.3l1,0.9c0.2-0.2,0.3-0.5,0.4-0.8c0.1-0.3,0.3-0.6,0.4-0.9c0.2-0.6,0.5-1.2,0.9-1.7
			c0.2,0.3,0.3,0.8,0.8,1c0.8-1.5,2.6-2,4.3-2.1l-0.2-1.3c0.1-0.1,0.5,0.3,0.5,0.6c0.7,0-0.4-0.6-0.4-1.2c0.2-0.2,0.7,0.3,0.8,0.7
			c0.3-1.4,1.2-3.5,2.8-2.9v0.4c1,0-0.4-2.5,0.8-2v0.3c0.9-0.3,1.7-0.7,2.5-1.3c0.8-0.5,1.8-0.6,2.7-0.1c-0.5-1.6,1.9-0.1,1-2.3
			c1.4,0.6,1.3,1.1,2.9,1.2c0.4,0,0-1.5,0.3-2l0.5,1.1l0.1-1.4l0.9,1.2l0.3-0.5c-0.2,0-0.6-0.4-0.7-0.7c0.5-0.8,1.9,0.2,2.1,0.8
			c0.4-0.5,0.8-1.1,1.2-1.5c0.1,0.5-0.1,0.7-0.2,1.1c0.4-1.5,0.6,1.2,1-0.2c-0.2-0.2-0.2-0.7-0.2-1c0.6,0.5,1.5,0.4,2-0.2l0.1,0.8
			c1.2-0.1,2.3-1.2,3.7-1.4c-0.6-0.3-0.8-1.7-0.5-2l0.5,1.2c0.1-0.8-0.5-0.4-0.2-1.5c0.5,0,0.7,1.4,0.5,1.8l0.5-0.6
			c0.1,0.4,0.1,0.7,0.1,1.1c0.1-0.8,1.3,1,1.4-0.4l0.1,0.4c1.3-0.3,1.8-0.9,2.9-1.1c-0.2-1.1,0.3-0.9,0.5-1.9c0.9,0.2,1.9,1,2.9,0.7
			c0.6-0.7,0.1-1,0.3-1.7c0.2,1,1.2,0.8,0.7,1.6c1.1-0.2,2.1-0.7,3-1.4c-0.2-0.4-0.4-0.6-0.3-0.9c0.3-0.2,0.7,0.4,0.7,0.9l-0.1,0.1
			c0.8-0.8,1.8-0.2,2.8,0.5s1.8,1.2,2.5,0.2L76,46.7l1.4-1.1c0.7,0.2-0.4,0.8,0.1,1.4c1.6-1.7,2.4,0.3,3.7-0.8
			c0.4,1.5,1.2,1.5,2.2,1.4c0.4-0.1,0.9-0.1,1.3-0.1c0.5,0.1,0.9,0.4,1.1,0.8v-0.7c0.4-0.6,0.3,0.5,0.6,0.7c0-0.5-0.3-0.7,0-1
			c1.5-0.2,3,0.1,4.3,0.8c1.4,0.7,2.7,1.6,4,2.2c1,0.4,1.4-3.5,2.3-1.5L96.3,50c1.1-0.4,2.3-0.3,3.3,0.1c1,0.4,2.2,0.6,3.3,0.4
			c-0.2,0.2-0.3,0.6-0.5,0.5c0.1,1,1.5,0.6,1.8-0.2c0.3,0.2-0.2,0.7-0.1,1.1c0.2,0.7,1.5-0.8,1.4,0.2c0,0.2-0.2,0.2-0.3,0.3
			c0.4-0.3,1.2,0.5,1.4-0.6c0.6,0.7,1.6,0.1,2,0.9c0.8-1,1,1.1,1.8-0.5c-0.7,1.6,0.7,1.9,1.5,1.3c-0.4,0.4,0.2,0.7-0.3,1.3
			c0.5,0.2,1.1,0,1.3-0.4c0.1-0.1,0.1-0.2,0.1-0.3c0,2.4,2.7-0.6,2,2.1c1.8-0.2,3.5,0,5.2,0.4c-0.9,1.5-1.6-0.7-2.4,1
			c1.6,0.1,3.1-0.8,4.2,0.3c0.2,0.4-0.6,0.6-0.8,0.8c1.6,0.1,2.4,1.5,4,1.4c-0.1,0.1-0.3,0.2-0.5,0.3c0.2,0.1,0.4,0.5,0.8-0.2h-0.3
			c0.3-1.2,2.2-1.5,2.6-2c-1.7,1.7,0.8,1.2-1.4,3.3c0.4-0.1,0.7-0.4,0.9-0.7c0.1,0.3,0,0.6-0.6,1c1,0.1,1.2-0.8,1.9-0.3
			c-0.2,0.3-0.5,0.4-0.8,0.7c0.8-0.4,1.6-0.8,2-0.1c-0.2,0.2-0.3,0.5-0.4,0.3c1,0.6,2.9-0.4,3.5,1c-1.4,1.1,0,0.7-0.8,1.9l0.8,0.1
			l0.2-0.7c0.5,0.4,1.6-0.1,1.7,0.6l-0.8,0.2c0.4,0.2,0.7,0.3,1.1,0.5c0-0.3-0.1-0.6-0.2-0.9c1-0.2,1.1-1.5,1.5-0.6
			c-0.2,0,0.5,0.4,0.2,1.3l0,0c0.5-0.2,1.1-0.3,1.2,0.3c-0.2,0.4-1.1,1.2-1.3,1.5c1-0.7,1.4,0.7,2.5,0c-0.4,0.2-0.7,0.5-0.9,0.9
			l0.9-0.6c0,0.4-0.1,0.6-0.5,1c0.5,0.7,1-1.6,1.3-0.3c-0.1,0-0.2,0.2-0.4,0.2c0.5,1,1.9,0.9,2.3,2c-0.8,1.3-0.9-0.3-1.5,0.8
			c1.2,0.8,3.3,0.8,4,2l-0.1-0.3c1.6-1.3,0,1.4,1.1,1.3c-0.2,0-1,0.6-0.8,0.5c0.4,0.9,1.6,1.1,3.1,1.7l-0.5,0.2c0,0.7,0.8,1.3,1,1.9
			c0.5-0.2,0.7,0.1,1.1-0.6c-0.6,1.7,0.2,2.1,1.1,2.5c0.9,0.4,1.8,0.7,1.3,2.1c-0.1-0.2-0.7-0.1-0.6,0l1.2,0.8
			c0.7-0.6,0.3-0.5,0.7-1.1c0.4-0.2,1-0.2,1.3,0.2c-0.9-0.1-1.2,0.9-1.4,1.4c0.2-0.2,0.5-0.3,0.7-0.5c-0.9,1.5,1.6-1,1.3,0.5
			l-0.4,0.2c0.4,0.2,1.1,0.1,1.2,0.5c-0.8,0.8-0.6,0-1.4,0.4c0.4,0.4,2.3-0.2,1.7,0.8c-0.4,0-0.6-0.3-1-0.3c-0.7,1.2-0.4,1-0.4,1.5
			l0,0l0.1,1.1l0.1-0.4c2.7-1,1.2,0.9,3.3,0.7c-2,0.2-0.9,0.4-2,1c-0.1,0.4-0.3,0.9-0.6,1c1.1-0.2-0.2,1,1.3,0.8
			c-0.3,0.2,0.2,0.4-0.7,0.8c0.5,0.3,0.5-0.5,0.9-0.7c1.6,0.1-0.3,2.6,1.9,2.8c1.2,0.6,2.5,0.1,3.6,0.7c-0.4,0.6-1.4,0.4-1.4,0.4
			c-0.2,0.5,0,1.1,0.5,1.3c0,0,0.1,0,0.1,0c-0.3,0.1-0.6,0.3-0.9,0.6c0.3,0.3,1.4-0.4,1.1,0.4c-0.5,0.2-1,0.3-1.6,0.3
			c0.5,0.3,1.4,0.4,2,0.7c-0.5,0.4-1.1,0.2-1.5,0.2c0.6,0.6,1.4,0.9,2.2,0.8l0.2-0.5c0.1,0.2-0.8,0.5-1,0.4c-1-0.1,0-0.8,0.3-1
			l0.4,0.2c1.9-1.4-1-1.2-1.2-1.9l1.6-0.5h-1.6c0.3-0.3,1.1-0.9,1.5-0.7c0.5-0.9-0.7-0.2-0.1-1c0.1-0.1,0.2-0.1,0.3-0.1l-0.7-0.2
			c0.4-0.1,1-0.6,0.9-0.2c0.4-1.3-1.9-0.7-1-1.7h0.1c-1.2-0.9-1.1,0.5-2.9,0.3l2.2-2.1l-1.1,0.5c0-0.1-0.1-0.4,0.4-0.6
			c-1,0-0.4,0.3-1.2,0.5c0.6-1.1-1.4-1.3,0.2-2.4c-0.9,0.3-0.3,0.9-1.2,0.7c1.7-1.3-0.7-0.5-0.2-1.5c1-0.4,0.9,0.4,1.3-0.7
			c-1.7,0.7-0.3-1.2-0.9-1.4c-1.2,0.8-1.1-0.6-2-1c0.4-0.2-0.2-1.8-0.3-2.8l0.2-0.1c-1.3,0.7-1.5-0.1-2.1-0.4c0.4-0.4,1-0.6,1.6-0.6
			l-0.4-0.4c-0.4,0.2-0.8,0.2-1.1,0l1-0.5c-0.5-0.6-2-0.4-2-1.6c-0.8,0.6-1.8,2.3-2.9,2c0.4-0.4,1.1-1,1.5-0.9c-0.1,0-0.6,0-0.5-0.2
			l1-0.2c0-0.6-0.7,0.3-0.9,0c0.6-0.5,0.3-0.6,0.8-0.9c0.1,0-0.1,0.4,0.3,0.4c-0.1-0.5,0-1.1,0.3-1.6c-0.3,0.3-0.8,0.7-1.1,0.5
			c-0.5-0.6,0.6-0.8,0.6-1.4c-0.5,0.2-0.4-0.5-1.3,0.2c-0.1-0.2,0.2-0.6,0.4-0.8c-0.7,0-1.3-1.3-2-0.1v0.1h-0.1
			c-1.7-0.2-1.3-2.4-2.5-3l0.3-0.3c-0.8-0.3-1.4-1-2.3-0.8c-0.2-0.2,0.1-0.9,0.5-1.1c-0.6-0.2-1,0.1-1.1-1c0.9-0.1,0.3-0.6,0.8,0.1
			c-0.3-0.8,0-1.3-1.3-1.2c0.9-0.5,0.5-1.3,0-1.4l-0.1,0.9c-0.3-0.2-0.6-0.5-0.8-0.8l1-0.8c0-1.2-1-1.1-1.9-1.2
			c-0.9,0-1.6-0.1-1.2-1.5c-0.9,0.4,0.2,1-0.8,1.6c-0.4-0.6,0.3-2.5,0.1-2.7c-0.3-1.2-2,0.9-2.4-0.2c-0.2,0.5-0.9,1.5-1.8,1.3
			c-0.4-0.6,0.6-2.1,1.2-2.1c0.2,0.1,0.1,0.2,0,0.4c0.3,0,0.6,0.1,0.8-0.5l-0.4,0.3c0-0.6-0.8-1.2-0.1-1.6c-0.7,0-0.7,0.5-0.5,0.9
			c-0.3-1.1-1.1-0.9-1.6-1.8c0,0.3-0.3,0.8-0.4,0.7c-0.8-1.3-1,0.3-1.9-0.1c0-0.9,1.2-1.3,0.1-1.3c-0.2-0.7,0.6-1.1,1-1.2
			c-1.2,0.2-0.9-1.5-1.3-1.9l0.6-0.1c-0.3,0-0.5-0.1-0.7-0.2l-0.3,0.9c-0.1-0.3-0.3-0.4-0.1-0.7c-0.6,0.4-0.7,1.4-1.7,1.8
			c0-0.6-1.2-0.2-0.6-1.3c0.7,1,0.6-1.1,1.5-0.7c-0.2,0-0.4-0.1-0.6-0.4c0-0.1,0.2-0.2,0.3-0.2c-0.3-1.5-1.2,0.9-2.1,0.2
			c0.5-0.5,0.5-1.3,0.3-1.2c0.4,0.3-0.5,1.1-1.1,1.3c-0.3-0.9-0.9-0.1-1.1-0.3l0.2,0.5c-0.5,0.5-0.7,0.2-1.3,0.2
			c0.3-0.5,0.6-0.1,0.6-0.4c-1.1,0.7-0.4-1.8-1.5-1.4c-0.1-0.6,0.7-1.2,0.5-1.6c-1.2,0.4-0.3-1.3-1.5-1.1c-0.2,1-0.1,0.8-1.1,1.3
			l1.6,0.2l-1.5,0.7c0.4,0.2,1.1,0,1.3,0.2c-0.8,0.4-0.6,0.3-0.8,1c0.2-1.5-1.5,0.1-1.6-1.1l1.2-2c-0.4-1.4-2.2,0-3.2-1.1l0.2,0.3
			c-0.6,0.7-0.8-0.3-1.4-0.1c0.3-0.5,0.4-1,0.3-1.6c-0.2,0.5-0.9-0.5-1.7,0.8l-0.1-1.1c-0.8-0.9-2.1,1.5-2.9,0.7
			c0.7-0.6,0.4-1.3,1.3-1.6c-0.3-0.2-0.6-0.4-0.8,0.1c0-0.5-1.3,0.6-1.3-0.2c-0.3,0.2-0.7,1-1,0.8c0-0.1,0.1-0.3,0.2-0.4
			c-0.2,0.4-0.8,0.2-0.8,1.2c-0.1-2.7-2.9-1-3-3.3c-0.8,0-1.7-0.1-2.5-0.3c0.1-0.2,0.1-0.4,0.2-0.2c-0.7-1-1.3,1.9-2.1,0.8
			c-0.1-1.4,0.8-0.5,0.6-1c0.7-2.5-1.4-0.1-1.6-1.8l0.2-0.1c-0.2-0.5-0.6-0.4-1-0.2s-1,0.5-1.5,0.3c0.1-0.1,0.1-0.2,0.1-0.4
			c-0.9,0.8-2,1.3-3.2,1.3c0.5-0.9,0.5-0.4,0.6-1.5c-0.4,0-0.3,1.6-1.1,1.7c-0.3-0.7-0.4-1.5-0.4-2.3l0.8,0.1c0-1.5-1-0.2-1.3-0.5
			l0.2-0.6c-1.2-0.1-1.6,1.5-2.8,1.1v0.5c-1,1.4-0.4-1-1.3,0l0.1-1.6c-0.8,0.6-1.7,1-2.7,1.3c0.6-0.8,1.5-1.5,2.4-2
			c-0.4-0.1-1.5-0.2-1.9,0.5c0.2-0.1,0.5-0.5,0.6-0.2c-0.8,1.1-1.6,1.5-2.4,1.4c0.6-3-2.2-1-2.5-3.5c-0.8,0.4-1.7,0.3-2.4-0.1
			c-0.8-0.4-1.7-0.6-2.6-0.7c0.5,2.4-0.6,0-0.6,2.5c-0.4,0.1-0.6,0.1-0.6-0.1l-1.2-1.5c-0.3-0.7,0.4-0.5,0.4-1.1c-1-0.2-0.4-1-1-1.7
			c0.1,0.9-0.4,1.2-0.9,0.9c0.2,0.4,0.5,0.8,0.8,1.2c-1.4,1.2-1.1-2-2.5-0.8l0.4-0.8c-0.7,0.5-2.6,0-3.2,2c-0.1-0.3-0.3-0.9,0-1.1
			c-0.9,0-1.9,0.3-2.6,0.9c-0.9,0.5-1.7,0.8-2.3,0.3l0.1-0.6c-0.3,0.2-0.4,1.2-0.9,0.6c0-0.2,0.1-0.6-0.1-0.6
			c-0.2,0.2-0.7,1.1-1.2,0.8l0.3-0.7c-0.4-0.2-0.7-0.2-1.1,0c-0.3,0.2-0.6,0.5-0.8,0.8c-0.4,0.7-1,1.2-1.6,1.7
			c-0.2-1.2-1.1-2.1-2.3-2.3v-0.2c-2,0-2.9,2-4.5,3.1c-0.7-0.7-1.7-0.9-2.7-0.7c-1,0.3-2,0.3-3,0.2c0.3,0.5,0.4,1.1,0.1,1.6
			c-0.5-0.2-0.7,1.5-1.1-0.1h0.2c-0.8-1.4-1.5-0.8-2.1-0.6l0.6,2c-1.3-1.2-2.3-0.5-3.1,0.2s-1.6,1.3-2.5,0.2
			c-0.2,0.6-0.7,0.8-0.8,1.4l-0.4-1c-1.1,0.1-2.1,0.5-3,1.2L39.2,44c-0.8,0.3,0.5,3.4-0.1,3.7l-1-1.4c-1.2,0.6-3.2,0-3.7,2.1
			c-0.1-0.2-0.3-0.7-0.1-0.8c-0.6,0.3-2.8,0.3-1.4,2.2c-0.8-1.3-1.4,0.6-1.6,1.6l-0.5-1c0.2,1.5,0.4,1.9-0.1,2.7
			c-0.2,0-0.6-0.6-0.3-0.6c-0.9-0.1,0.1,1.2-0.9,1.2l-0.1-0.7c-0.6,0.3-0.4,0.6-0.2,1.5c-0.1,0.6-1.3,0.5-1.9-0.2
			c0.3,0.6,0.4,1.4-0.1,1.4c-0.2-0.2-0.3-0.4-0.3-0.7c-1.4,0.2-0.6,2.1-1.9,1.8c-0.1-0.2-0.3-0.3-0.5-0.4c0.8-0.6,1.4-1,1.4-0.9
			c-0.6-0.8-1.3-0.5-1.7-2c0,1,0.2,3-0.7,3.1c-0.1-0.1-0.2-0.1-0.3-0.2v-0.1c-0.2,0-0.3,0.2-0.3,0.4c-0.2,0-0.5,0-0.7,0.2
			c-0.6-0.6-1,0.2-1.3,0.4c0.8,0.8,0.2,1,1.2,1.4c-0.1,0,0-0.1,0.1-0.3c0-0.1,0.1-0.1,0-0.2v0.1c0.2-0.2,0.4-0.4,0.7-0.7
			c0.1,0.6,0.2,1.2-0.5,1c0.3,0.7,0.6,1.4,0.8,1.7c-1.4-0.8-2.7-0.8-3.5-1.4C19.3,60,18,61,19,63c0,0.4-0.7-0.2-1-0.3
			c0-0.3,0.2-0.4,0-0.7c-0.1,0.8-1.3,1.5-0.3,2.7c-1,0.2-0.7-1.3-1.2-0.3l-0.2-0.4c-1.6,0-1.6,1.4-1.5,2.6s-0.1,2.4-2,2.5
			c0.2,0,0.4,0,0.6,0.1c-1.4,0.7-2,2.1-2.7,3.3c-0.3,0.6-0.7,1.2-1.2,1.8c-0.4,0.6-1,1.1-1.7,1.4c-0.8,0.4,0,1,0.3,1.8L6.8,77
			l0.7,1.4c0.3,1.5-3.6,0.2-2.7,2.5l0.8,0.2c-0.4,0.4-0.4,1.7-1.2,1.2c0.1,0.1,0.7,0.6,0.2,0.5l-0.6-0.3l0.4,1.6
			c-0.9,0.7-2.2-1.3-3,0c0,0.6,0.9,2.2,1.4,2.2c0.4-0.3,0.8-0.3,1.2,0l0.1,0.6c1.6,0.9,3.2,2,4.8,1.6l-0.6-1.2l0.9,0.2L9,88.1
			c0.9,0,0.4-0.5,0-1c0.3,0.1,0.7,0.2,1,0.2l-1.1-1.5c0.7,0.3,1.1,1,1.7,0.7C10,85.7,9,86,8.8,85.2c0.9,0.1,1.5,0.5,1-0.2
			c0.3,0.1,0.6,0.3,0.8,0.7c-0.3-0.6,0.3-1-0.5-1.7c1.1,0.2,0.4-1.3,1.9-0.4c-0.3-0.3-0.8-1.3-0.7-1.6c1.4,1.7,0.8-1.1,2.7,0.2
			c-1.3-1.4,0.2-1.9-0.2-3.2c0.1,0.1,0.3,0.4,0.2,0.4c0.4-0.3,0.9-0.1,1.4-0.2c-1.3-0.9-1.1-1.8-1.6-2.7c1.6,0.4,1.3,1.3,2.6,2
			c-1.1-0.7-0.4-1.6-1.4-2c0.6,0,1.3,0.2,1.8,0.5c-1.5-1.2,0-0.5-0.7-1.6c1.2,0,1.6,1,1.5,0C18.2,75.5,18.4,76.4,18.4,76.4z
			 M27.9,61.7L27.9,61.7L27.7,62L27.9,61.7z M29.1,60.7c-0.2,0.1-0.4,0.2-0.5,0.4c-0.3-0.3-0.5-0.6-0.4-0.7
			C28.3,60.7,28.7,60.6,29.1,60.7L29.1,60.7z M21.6,56.9c0.1-0.3,0.3-0.2,0.5,0c-0.1,0.1-0.2,0.2-0.3,0.4l0.1,0.1
			C21.8,57.2,21.7,57.1,21.6,56.9z"/>
		<path class="st0" d="M22.2,58.2c0,0,0,0.1,0,0.1l0.3,0.1l-0.2-0.3L22.2,58.2z"/>
		<path class="st0" d="M150.6,75.1L150.6,75.1c0,0.1,0,0.1-0.1,0.2L150.6,75.1z"/>
		<polygon class="st0" points="47.5,52.5 47.4,52.2 47.4,52.5 		"/>
		<path class="st0" d="M152.9,84.1c-0.1,0.1-0.1,0.2-0.2,0.3C152.8,84.3,152.9,84.2,152.9,84.1z"/>
		<path class="st0" d="M154.8,87.2v0.7C154.8,87.6,154.8,87.4,154.8,87.2z"/>
		<path class="st0" d="M155.8,89.8c0.2-0.1,0.3-0.1,0.4-0.2l0,0L155.8,89.8z"/>
		<path class="st0" d="M124.6,60.4c0,0-0.1,0-0.1,0C124.2,60.4,124.3,60.4,124.6,60.4z"/>
		<path class="st0" d="M136.6,65.9c-0.2,0.1-0.4,0.1-0.7,0.1C136,66.3,136.1,66.4,136.6,65.9z"/>
		<path class="st0" d="M111.5,54.9L111.5,54.9L111.5,54.9L111.5,54.9z"/>
		<path class="st0" d="M135.5,65.6c0,0.2,0.2,0.4,0.4,0.4c0,0,0,0,0.1,0C135.8,65.9,135.7,65.6,135.5,65.6z"/>
		<path class="st0" d="M161.2,100.4v0.1c0,0,0.1-0.1,0.2-0.1L161.2,100.4z"/>
		<path class="st0" d="M161.4,100.4l0.2,0.1C161.6,100.5,161.5,100.4,161.4,100.4z"/>
		<path class="st0" d="M162,100.7l-0.4-0.2C161.6,100.6,161.7,100.8,162,100.7z"/>
		<path class="st0" d="M160.1,96.9l-0.4,0.2C159.8,97,159.9,96.9,160.1,96.9z"/>
		<path class="st0" d="M159.4,96c0,0.3-0.4,1,0,1.2l0.3-0.1C159.1,97.2,160.1,95.9,159.4,96z"/>
		<path class="st0" d="M161.4,89.4l0.2,1c0.3-0.4,0.7-0.9,1-0.5C163,88.2,161.9,90.6,161.4,89.4z"/>
		<path class="st0" d="M160.3,86.5c0.5,0.3,0.5-0.3,0.7-0.5C160.5,86,160.4,86,160.3,86.5z"/>
		<path class="st0" d="M146.7,69.5l0.8-0.7C147.1,68.7,147.2,69.1,146.7,69.5z"/>
		<polygon class="st0" points="140.1,70.4 140,71.1 140.7,70.6 		"/>
		<polygon class="st0" points="143.2,63.5 143.5,63.5 142.7,63.3 		"/>
		<path class="st0" d="M111.4,44.3l-0.3,1.2C111.4,45.4,112,44.1,111.4,44.3z"/>
		<path class="st0" d="M95.7,41c0-0.6-0.4-1.1-0.8-0.6C95.2,40.5,95.5,41.1,95.7,41z"/>
		<polygon class="st0" points="47.8,41.6 48,41.1 47.5,41.7 		"/>
		<path class="st0" d="M105.8,75.5c0.1-0.3,0-1.1-0.3-0.9l-0.1,1.3L105.8,75.5z"/>
		<path class="st0" d="M103.6,73.3c-0.4,0.9-0.5,2-0.2,3c0.2-1.3,0.3-0.8,0.6-2.3c0.3-0.2,0.6,0.4,0.6,0.8c0.1-0.3,0.5,0.2,0.6-0.6
			c-0.5-1-0.9-1-1.4-0.1C103.6,73.9,103.6,73.6,103.6,73.3z"/>
		<path class="st0" d="M74.9,77.9l0.2,0.1C75.1,77.9,75,77.9,74.9,77.9z"/>
		<path class="st0" d="M58.2,85.1c0.1-0.1,0.1-0.2,0-0.3C58.1,84.9,58.1,85.1,58.2,85.1z"/>
		<path class="st0" d="M54.7,85.6c0.1,0,0.1,0,0.2,0C54.8,85.5,54.7,85.5,54.7,85.6z"/>
		<path class="st0" d="M74.9,77.9l-0.6-0.2C74.5,78.1,74.7,77.9,74.9,77.9z"/>
		<path class="st0" d="M100.1,76.9c0.1-0.1,0.2-0.2,0.2-0.4c-0.1,0.1-0.1,0.1-0.2,0.2L100.1,76.9z"/>
		<path class="st0" d="M82.2,74.3h0.2c0-0.2,0-0.3,0-0.6L82.2,74.3z"/>
		<path class="st0" d="M88.2,72.5c-0.2,0,0.1,1.1,0.1,1.6c0-0.5,0-0.7,0.1-0.8C88.4,73,88.3,72.7,88.2,72.5z"/>
		<path class="st0" d="M98.2,72.5l0.2-0.2C98.2,72.4,98.2,72.5,98.2,72.5z"/>
		<path class="st0" d="M77.9,75.4c0-0.1-0.1-0.2-0.2-0.4C77.8,75.2,77.8,75.3,77.9,75.4z"/>
		<path class="st0" d="M35.5,210.9l-0.2,0.1C35.5,210.9,35.6,210.9,35.5,210.9z"/>
		<path class="st0" d="M36,219.6h-0.1l-0.5,0.4L36,219.6z"/>
		<path class="st0" d="M49.1,87.7L49.1,87.7C49.2,87.5,49.1,87.6,49.1,87.7z"/>
		<path class="st0" d="M16.1,129.7c1.2-0.2,0.8,1.4,2.2,1C17.8,130.6,17,129.2,16.1,129.7z"/>
		<path class="st0" d="M99.9,76.7c-0.1,0-0.2,0-0.2,0C99.8,76.8,99.9,76.8,99.9,76.7z"/>
		<path class="st0" d="M18.3,130.7L18.3,130.7h0.1H18.3z"/>
		<path class="st0" d="M39.1,96.9c0.1,0.1,0.3,0.2,0.4,0.3C39.4,97,39.2,96.9,39.1,96.9z"/>
		<path class="st0" d="M47.7,91.6h-0.3C47.5,91.6,47.6,91.6,47.7,91.6z"/>
		<path class="st0" d="M36.5,101.6c-0.2,0-0.3,0-0.3,0.2l0.1,0.1C36.2,101.7,36.2,101.6,36.5,101.6z"/>
		<path class="st0" d="M32.9,105.6l0.2,0.1l0.1-0.2L32.9,105.6z"/>
		<path class="st0" d="M26.9,198.9c-0.2,0.2-0.5,0.5-0.8,0.7C26.7,199.1,27.3,199.6,26.9,198.9z"/>
		<path class="st0" d="M100,76.2c0,0.3,0,0.4-0.1,0.5l0.2-0.1C100.1,76.5,100.1,76.4,100,76.2z"/>
		<path class="st0" d="M42.7,107.9l-0.6,0.5C42.3,108.2,42.5,108.1,42.7,107.9z"/>
		<path class="st0" d="M17.9,165.4l0.1,0.2C18.1,165.5,18.1,165.5,17.9,165.4z"/>
		<path class="st0" d="M40.6,110.1c-0.3-0.1-0.6-0.2-0.9-0.2c0,0.1,0.1,0.2,0.2,0.2L40.6,110.1z"/>
		<path class="st0" d="M26.1,199.6L26.1,199.6z"/>
		<path class="st0" d="M31,202.6c-0.4-0.6-1.4,0.5-2.2,0.8c-0.8-0.5,0.7-0.9,1.2-1.6c-0.6-0.2-2,0.1-2.2-0.3
			c0.2-0.1,0.2-0.3,0.5-0.3c-1.3,0.1-0.9-1.5-2.5-1.4c0.1-0.1,0.2-0.2,0.3-0.2c-0.5,0.4-1.1,0.8-1.7,1.1c-0.2-0.3-1.1-0.1-0.3-0.7
			c0.1,0.2,0.4,0,0.7,0l-0.5-0.1c1.1-0.9,0.6,0.2,1.5-0.3c-0.7-0.4-2.1-0.6-2-1.2c1.1-0.7,1,0.9,1.7-0.3l-0.1,1
			c1.6-1.5,0.1,0.5,1.8-1.1c-0.1-1.1-1.2-0.7-1.3-1.8c-0.8,0.1-1,0.6-1.7,0.7c-1.9-0.8,2.6-2.5,0.5-2.8c-0.9,0.1-2.5,0.7-2-0.4
			l1.5-0.4c-0.3-1-2.2,0.3-1.7-1.1c0.6-0.1,0.8,0.5,0.9,0.3c0.8-1.1-1-0.1-1.2-0.6l1.2-0.6c-0.2-0.2-0.4-0.5-0.6-0.7
			c-0.2-0.2-0.4-0.4-0.7-0.7c-0.5-0.4-0.9-0.9-1.3-1.5c0.4-0.1,0.9,0,1.2-0.4c-1.1-1.2-1-3.1-0.5-4.7l-1.3-0.2
			c0-0.1,0.5-0.4,0.7-0.3c0.3-0.7-0.7,0.2-1.2,0c-0.2-0.3,0.5-0.6,0.9-0.5c-1.2-0.7-2.9-2.3-1.8-3.6l0.4,0.1
			c0.3-0.9-2.5-0.5-1.6-1.5l0.2,0.1c0-0.9-0.1-1.9-0.4-2.8c-0.2-0.9,0.1-1.9,0.8-2.6c-1.7-0.1,0.6-1.8-1.8-1.8
			c1.1-1.1,1.5-0.9,2.2-2.3c0.1-0.4-1.5-0.5-1.7-1h1.2l-1.3-0.6l1.5-0.4l-0.3-0.4c-0.2,0.2-0.6,0.4-0.9,0.4
			c-0.6-0.7,0.8-1.7,1.4-1.7c-0.3-0.5-0.7-1.1-1-1.7c0.5,0,0.6,0.3,1,0.6c-1.2-0.9,1.3-0.1,0.2-1c-0.3,0.1-0.7-0.1-1-0.1
			c0.7-0.4,0.9-1.3,0.5-2l0.8,0.2c0.3-1.2-0.3-2.6-0.1-3.9c-0.5,0.4-1.9,0.2-2-0.2h1.3c-0.8-0.4-0.5,0.4-1.4-0.3
			c0.2-0.5,1.5-0.2,1.9,0.2l-0.4-0.7c0.4,0.1,0.7,0.2,1.1,0.3c-0.8-0.4,1.4-0.9,0.1-1.4H20c0.2-1.3-0.2-2,0-3.1
			c-1.1-0.2-0.8-0.6-1.6-1.1c0.5-0.8,1.6-1.5,1.7-2.5c-0.4-0.8-0.9-0.4-1.5-0.9c1,0.2,1.1-0.8,1.7-0.1c0.2-1.1,0.2-2.2-0.2-3.2
			c-0.4,0.1-0.7,0.2-1,0c-0.1-0.3,0.6-0.5,1-0.3l0.1,0.1c-0.5-1,0.5-1.8,1.4-2.5s1.8-1.3,1-2.3l0.1,0.1l-0.6-1.7
			c0.4-0.6,0.6,0.6,1.3,0.4c-1.1-2,1.1-2.1,0.5-3.7c1.6,0.1,1.9-0.6,2-1.5c0.1-0.4,0.2-0.9,0.4-1.3c0.2-0.4,0.6-0.7,1.1-0.7
			l-0.7-0.2c-0.5-0.6,0.5-0.2,0.8-0.3c-0.5-0.2-0.7,0-1-0.3c0.4-1.5,1.2-2.8,2.3-3.8c1.1-1,2.5-2,3.5-3c0.7-0.8-2.8-2.5-0.6-2.7
			l0.9,1c0-1.2,0.5-2.3,1.3-3.1c0.8-0.8,1.3-1.8,1.5-2.9c0.2,0.3,0.5,0.5,0.3,0.7c1,0.2,1.1-1.2,0.5-1.8c0.3-0.2,0.6,0.4,1,0.5
			c0.7,0-0.2-1.6,0.6-1.2c0.1,0.1,0.2,0.3,0.2,0.4c-0.2-0.5,0.9-1-0.1-1.5c0.9-0.3,0.6-1.5,1.5-1.5c-0.6-1.1,1.4-0.6,0.2-1.9
			c1.3,1.2,2,0,1.7-1c0.3,0.5,0.7,0.1,1.1,0.7c0.4-0.4,0.4-1,0.1-1.4c-0.1-0.1-0.2-0.2-0.3-0.2c2.3,0.8,0.3-2.7,2.7-1.2
			c0.5-1.7,1.2-3.3,2.2-4.8c1.1,1.4-1.2,1.2,0.1,2.6c0.6-1.5,0.3-3.2,1.7-3.8c0.5-0.1,0.3,0.7,0.4,1c0.7-1.5,2.2-1.7,2.7-3.2
			c0.1,0.2,0.1,0.4,0.1,0.6c0.2-0.2,0.6-0.2,0.1-0.8l0.1,0.3c-1.1-0.7-0.7-2.6-1-3.1c1,2.1,1.4-0.3,2.6,2.5c0-0.4-0.1-0.8-0.4-1.1
			c0.3,0,0.5,0.2,0.7,0.8c0.5-0.9-0.3-1.4,0.4-1.9c0.2,0.3,0.2,0.6,0.4,1c-0.1-0.9-0.2-1.8,0.6-1.9c0.1,0.2,0.3,0.4,0.2,0.5
			c0.9-0.8,0.6-2.8,2.2-3c0.6,1.7,0.7,0.2,1.5,1.4l0.4-0.8L59.4,91c0.5-0.3,0.5-1.6,1.2-1.4l-0.1,0.8c0.3-0.3,0.6-0.6,0.9-0.9
			c-0.3-0.1-0.6-0.1-0.9-0.1c0.2-1-1-1.6-0.1-1.7c-0.1,0.2,0.6-0.3,1.3,0.3l0,0c0-0.6,0.1-1.2,0.7-1.1c0.3,0.3,0.7,1.5,0.9,1.7
			c-0.3-1.2,1.1-1,0.8-2.4c0.1,0.4,0.3,0.8,0.5,1.2l-0.2-1c0.4,0.1,0.5,0.2,0.8,0.8c0.9-0.3-1.1-1.5,0.2-1.3c0,0.1,0.1,0.2,0,0.4
			c1.1-0.1,1.5-1.4,2.6-1.4c0.9,1.2-0.6,0.7,0.2,1.7c1.1-0.8,1.9-2.8,3.2-3.1h-0.3c-0.7-2,1.3,0.5,1.6-0.6c0,0.3,0.1,0.6,0.2,0.9
			c1,0,1.6-1.2,2.7-2.3V82c0.7,0.2,1.4-0.3,2.1-0.3c0-0.6,0.3-0.6-0.1-1.3c1.4,1.1,2.1,0.5,2.7-0.2s1.3-1.5,2.4-0.5
			c-0.2,0.1-0.3,0.6-0.2,0.6l1.2-0.9c-0.4-0.8-0.3-0.5-0.8-1.1c0-0.6,0.3-1.1,0.6-1.2c-0.4,0.8,0.4,1.4,0.8,1.8
			c-0.1-0.3-0.1-0.6-0.2-0.8c1.2,1.4-0.4-1.8,0.9-1l0.1,0.5c0.3-0.3,0.5-1,0.9-1c0.4,1-0.3,0.6-0.1,1.4c0.5-0.2,0.6-2.2,1.3-1.3
			c-0.2,0.3-0.5,0.4-0.7,0.8c0.9,1.1,0.8,0.8,1.3,0.8l0,0l1,0.3l-0.3-0.3c0-2.9,1.3-0.8,1.8-2.8c-0.5,1.9,0.1,1,0.3,2.2
			c0.3,0.3,0.7,0.6,0.7,0.9c0.2-1.1,0.9,0.6,1.2-0.9c0.1,0.4,0.5,0,0.6,0.9c0.5-0.4-0.3-0.6-0.3-1.1c0.6-1.5,2.3,1.2,3.3-0.8
			c1-0.9,1-2.2,1.9-3.1c0.4,0.6-0.1,1.4-0.1,1.4c0.4,0.4,1,0.3,1.4-0.1c0-0.1,0.1-0.1,0.1-0.2c0,0.4,0.1,0.7,0.3,1
			c0.4-0.2,0.1-1.4,0.7-0.9c0,0.5-0.1,1.1-0.2,1.6c0.4-0.4,0.8-1.2,1.3-1.6c0.2,0.7-0.2,1.1-0.3,1.5c0.5-0.4,1.4-0.8,1.5-1.8
			l-0.4-0.3c0.2-0.1,0.2,0.9,0.1,1.1c-0.4,0.9-0.8-0.3-0.8-0.7l0.3-0.3c-0.6-2.2-1.4,0.5-2.2,0.5l0.1-1.7l-0.6,1.4
			c-0.2-0.4-0.5-1.3-0.1-1.6c-0.7-0.8-0.4,0.6-1-0.2c-0.1-0.1-0.1-0.2,0-0.3l-0.4,0.6c0-0.4-0.3-1.1,0.1-1c-1.1-0.8-1.3,1.5-1.9,0.3
			l0.1-0.1c-1.2,0.8,0.1,1.2-0.7,2.8l-1.2-2.8l0.1,1.2c-0.2,0-0.4-0.1-0.5-0.5c-0.3,0.9,0.2,0.5,0,1.3c-0.9-1-1.7,0.8-2.2-1
			c0,0.9,0.8,0.6,0.2,1.3c-0.6-2-0.7,0.5-1.5-0.3c0-1.1,0.6-0.7-0.2-1.5c0,1.9-1.2-0.1-1.7,0.4c0.3,1.4-0.9,0.8-1.7,1.5
			c-0.1-0.5-1.8-0.4-2.7-0.7v-0.2c0.2,1.4-0.6,1.4-1.1,1.9c-0.2-0.5-0.2-1.1,0-1.7l-0.5,0.2c0,0.4-0.1,0.7-0.4,1l-0.2-1
			c-0.7,0.3-1.1,1.7-2.2,1.3c0.3,1,1.6,2.5,0.9,3.4c-0.2-0.5-0.5-1.4-0.4-1.7c-0.1,0.1-0.2,0.5-0.4,0.4l0.1-1
			c-0.6-0.3,0,0.8-0.3,0.8c-0.2-0.7-0.4-0.4-0.6-1c0.1-0.1,0.4,0.2,0.4-0.1c-0.6-0.1-1.1-0.4-1.4-0.8c0.2,0.4,0.3,1,0.1,1.2
			c-0.7,0.3-0.6-0.8-1.1-1c0,0.6-0.6,0.2-0.2,1.3c-0.2,0.1-0.4-0.4-0.6-0.7c-0.2,0.6-1.7,0.8-0.8,1.8h0.1c0,0,0,0,0,0.1l0,0
			c-0.8,1.6-2.7,0.3-3.7,1.3L71.5,79C70.9,79.7,70,80,69.9,81c-0.2,0.1-0.8-0.4-0.9-0.9c-0.4,0.5-0.3,0.9-1.3,0.7
			c0.2-0.9-0.4-0.5,0.3-0.7c-0.8,0-1.3-0.5-1.5,0.8c-0.2-1-1.1-0.9-1.3-0.5l0.8,0.4c-0.3,0.3-0.6,0.4-1,0.5L64.6,80
			c-1.1-0.4-1.4,0.5-1.7,1.4s-0.7,1.5-1.8,0.6c0.1,1,1.1,0.2,1.2,1.3c-0.7,0.2-2.3-1.1-2.5-1c-1.2-0.2,0.2,2.1-1,2.2
			c0.4,0.3,1.1,1.4,0.7,2.1c-0.7,0.2-1.8-1.2-1.6-1.8c0.1-0.1,0.3,0,0.3,0.1c0.1-0.3,0.3-0.6-0.2-0.9l0.2,0.4
			c-0.6-0.2-1.4,0.3-1.6-0.4c-0.2,0.7,0.2,0.8,0.7,0.8c-1.1-0.1-1.2,0.8-2.3,0.9c0.3,0.1,0.7,0.5,0.5,0.6c-1.5,0.3,0,1.1-0.7,1.8
			c-0.8-0.3-0.8-1.5-1.2-0.5c-0.8-0.1-0.8-1-0.8-1.4c-0.2,1.2-1.7,0.4-2.2,0.6l0.2-0.6c-0.1,0.3-0.2,0.5-0.5,0.6l0.8,0.6
			c-0.3,0-0.5,0.2-0.7-0.2c0.1,0.7,1.1,1.2,1.1,2.2c-0.6-0.2-0.6,1.1-1.4,0.1c1.2-0.3-0.8-0.9-0.2-1.7c-0.1,0.2-0.2,0.4-0.6,0.4
			c-0.1-0.1-0.1-0.2-0.1-0.3c-1.5-0.2,0.4,1.4-0.5,2.1c-0.3-0.7-1-0.9-1.1-0.7c0.4-0.3,0.9,0.8,0.9,1.5c-0.9,0-0.4,0.8-0.7,1
			l0.5-0.1c0.3,0.7,0,0.8-0.3,1.2c-0.4-0.4,0.1-0.6-0.2-0.7c0.3,1.3-1.8-0.2-1.8,0.9c-0.6-0.1-0.9-1-1.3-1c-0.1,1.3-1.3-0.1-1.6,1
			c0.8,0.6,0.7,0.3,0.8,1.5l0.7-1.5l0.1,1.7c0.3-0.3,0.3-1.1,0.7-1.1c0.1,0.9,0,0.7,0.7,1.1c-1.4-0.7-0.4,1.4-1.5,1.1L43,94.2
			c-1.5-0.1-0.7,2.1-2.1,2.6h0.5c0.5,0.8-0.5,0.7-0.6,1.3c-0.4-0.5-0.8-0.8-1.4-1c0.4,0.4-0.8,0.7,0.2,1.9l-1.2-0.3
			c-1.1,0.5,0.6,2.5-0.3,3c-0.4-0.8-1.1-0.9-1-1.8c-0.3,0.2-0.6,0.4-0.2,0.8c-0.5-0.2,0.1,1.5-0.7,1.2c0.2,0.3,0.7,1,0.4,1.2
			c-0.1-0.1-0.2-0.2-0.3-0.3c0.3,0.3,0,0.8,0.8,1.2c-2.5-0.8-1.9,2.4-4.1,1.7c-0.3,0.8-0.7,1.5-1.1,2.3c-0.1-0.2-0.3-0.2-0.1-0.3
			c-1.2,0.3,1.4,1.9,0,2.2c-1.4-0.3-0.2-0.9-0.8-0.9c-2.1-1.5-0.6,1.3-2.2,0.9v-0.2c-0.5,0-0.6,0.4-0.5,0.9s0.1,1.1-0.2,1.5
			c-0.1-0.1-0.2-0.2-0.3-0.2c0.5,1.1,0.5,2.3,0.1,3.5c-0.7-0.8-0.2-0.6-1.1-1.1c-0.1,0.4,1.4,0.8,1.2,1.7c-0.8,0-1.6-0.1-2.3-0.4
			l0.4-0.7c-1.4-0.5-0.5,0.8-1,1l-0.5-0.4c-0.5,1.1,0.9,2,0.1,3l0.5,0.1c1,1.4-1,0-0.4,1.2l-1.5-0.6c0.2,1,0.4,2,0.3,3
			c-0.6-0.9-0.9-1.9-1.1-2.9c-0.2,0.4-0.7,1.4-0.1,2c0-0.2-0.2-0.6,0-0.7c0.8,1.1,0.9,2,0.5,2.8c-2.6-1.6-1.7,1.7-4.1,1.2
			c0.1,0.9-0.3,1.7-0.9,2.2c-0.6,0.6-1.1,1.3-1.4,2.1c2.4,0.4-0.2,0.5,2.1,1.4c0,0.5-0.1,0.6-0.3,0.6l-1.9,0.6
			c-0.8,0-0.3-0.6-0.8-0.8c-0.6,0.8-1.1,0-2,0.3c0.9,0.2,1,0.8,0.5,1.2c0.4-0.1,0.9-0.2,1.3-0.3c0.7,1.7-2.3,0.3-1.6,2.1l-0.6-0.7
			c0.2,0.8-0.9,2.4,0.7,3.7c-0.3,0-1,0-1.1-0.4c-0.3,0.9-0.3,1.8-0.1,2.7c0.1,1,0.2,1.8-0.5,2.3l-0.5-0.3c0.1,0.4,0.9,0.8,0.2,1
			c-0.2-0.1-0.5-0.3-0.6-0.1c0.1,0.2,0.8,1.1,0.3,1.4l-0.6-0.5c-0.3,0.3-0.4,0.7-0.4,1c0.1,0.4,0.2,0.7,0.4,1.1
			c0.5,0.6,0.9,1.3,1.1,2.1c-1.2-0.3-2.4,0.3-2.9,1.4l-0.2-0.1c-0.6,1.8,0.9,3.5,1.3,5.2C9.6,154.1,9,155,9,156
			c-0.1,1-0.4,2-0.8,2.9c0.3-0.2,1.4,0.1,1.5,0.5c-0.4,0.4,1.1,1.2-0.4,1v-0.1c-1.6,0.2-1.2,1.1-1.3,1.8l2.1,0.2
			c-1.6,0.8-1.2,2-0.9,3s0.7,1.9-0.6,2.5c0.5,0.4,0.5,0.9,1.1,1.3H8.4c-0.2,1.1-0.2,2.2,0.1,3.2l-0.8-0.2c0,0.8,3.3,0.7,3.5,1.4
			l-1.7,0.5c0.1,1.4-1.1,3,0.7,4.1c-0.2,0-0.7,0.1-0.8-0.2c0.1,0.7-0.7,2.8,1.6,2.1c-1.4,0.3,0.1,1.5,0.9,2l-1.1,0.1
			c1.5,0.3,1.9,0.2,2.5,1c-0.1,0.2-0.8,0.4-0.6,0c-0.4,0.8,1.1,0.3,0.8,1.2l-0.8-0.1c0.1,0.7,0.4,0.6,1.4,0.7
			c0.5,0.3,0.1,1.4-0.9,1.8c0.6-0.1,1.5,0.1,1.3,0.5c-0.2,0.1-0.5,0.1-0.8,0c-0.3,1.4,1.8,1.3,1,2.4c-0.2,0.1-0.4,0.2-0.6,0.3
			c-0.2-0.5-0.4-1.1-0.4-1.6c-1,0.3-0.9,1.1-2.4,0.9c0.9,0.4,2.9,0.9,2.7,1.7c-0.1,0.1-0.2,0.2-0.3,0.2h-0.1c0,0.2,0.1,0.3,0.3,0.4
			c-0.1,0.2-0.1,0.5-0.1,0.7c-0.8,0.4-0.1,1,0,1.4c1-0.4,1,0.1,1.7-0.7c-0.1,0.1-0.1,0-0.3-0.2c-0.1,0-0.1-0.1-0.2-0.1h0.1
			c-0.1-0.3-0.3-0.6-0.4-0.9c0.6,0.1,1.2,0.2,0.7,0.8c0.7-0.1,1.5-0.1,1.9-0.1c-1.3,1-1.6,2.3-2.5,2.8c1,0.8,1.5,2.4,3.7,2.2
			c0.4,0.2-0.4,0.6-0.6,0.9c-0.3-0.1-0.3-0.3-0.6-0.3c0.8,0.4,1,1.7,2.4,1.2c-0.2,1-1.4,0.2-0.7,1.1l-0.5,0.1
			c-0.5,1.5,0.8,1.9,2,2.3s2.2,0.9,1.6,2.7c0-0.2,0.1-0.4,0.3-0.5c0.2,1.5,1.2,2.6,2.2,3.7c0.5,0.5,0.9,1.1,1.3,1.8
			c0.4,0.7,0.6,1.4,0.6,2.2c0.1,0.9,1,0.4,1.8,0.4l-0.9,0.9l1.6-0.2c1.5,0.3-1.1,3.5,1.4,3.4l0.5-0.7c0.2,0.5,1.5,0.9,0.7,1.5
			c0.1,0,0.7-0.4,0.6,0l-0.5,0.4l1.7,0.2c0.3,1-2,1.6-1,2.8c0.5,0.3,2.4-0.1,2.5-0.5c-0.1-0.4,0-0.9,0.4-1.1l0.6,0.1
			c1.4-1.2,3-2.3,3.2-4l-1.4,0.2l0.5-0.8l0.5,0.5c0.4-0.9-0.3-0.5-0.9-0.4c0.2-0.3,0.4-0.6,0.5-0.9l-1.8,0.6
			c0.5-0.6,1.3-0.7,1.2-1.4c-0.9,0.3-1,1.3-1.8,1.2c0.4-0.8,1-1.2,0.1-1.1c0.2-0.3,0.5-0.5,0.9-0.5c-0.7,0.1-0.9-0.6-1.8-0.1
			c0.5-1-1.1-0.8,0.3-1.9c-0.4,0.2-1.5,0.3-1.8,0.1c2-0.8-0.7-1.2,1.2-2.4c-1.8,0.8-1.7-0.9-3.1-1c0.1,0,0.5-0.1,0.4,0
			c-0.2-0.5,0.2-0.9,0.3-1.4c-1.3,0.9-2.1,0.5-3.1,0.6c0.9-1.4,1.7-0.7,2.8-1.7c-1,0.7-1.6-0.2-2.4,0.6c0.5-0.9,0.2-0.6,1.1-1.5
			c-1.7,1-0.5-0.2-1.7,0.2c0.4-1.1,1.4-1.1,0.5-1.4C30,202.4,31,202.6,31,202.6z M20.4,188.6L20.4,188.6l0.2,0.3L20.4,188.6z
			 M19.9,187.2c0,0.2,0.1,0.4,0.2,0.6c-0.3,0.2-0.7,0.2-0.8,0.1C19.6,187.9,19.7,187.5,19.9,187.2L19.9,187.2z M13.7,192.9
			c-0.2-0.2-0.1-0.4,0.1-0.5c0.1,0.1,0.2,0.3,0.3,0.4h0.1C14.1,192.8,13.9,192.9,13.7,192.9z"/>
		<path class="st0" d="M15.2,192.8c0,0,0.1,0,0.1,0.1c0.1-0.1,0.1-0.1,0.2-0.2h-0.4L15.2,192.8z"/>
		<path class="st0" d="M75.2,78L75.2,78c0,0,0.1,0.1,0.1,0.1C75.3,78,75.2,78,75.2,78z"/>
		<polygon class="st0" points="18.5,167 18.2,167 18.5,167.1 		"/>
		<path class="st0" d="M84.4,78.9c0,0.1,0.1,0.2,0.2,0.2C84.6,79,84.5,78.9,84.4,78.9z"/>
		<path class="st0" d="M88,78.2l0.6,0.3C88.4,78.4,88.2,78.3,88,78.2z"/>
		<path class="st0" d="M90.8,78.1c0-0.2,0-0.3,0-0.5l0,0V78.1z"/>
		<path class="st0" d="M52.4,97.4C52.4,97.4,52.4,97.4,52.4,97.4C52.3,97.8,52.4,97.6,52.4,97.4z"/>
		<path class="st0" d="M61.7,88c0,0.2,0,0.4-0.1,0.7C61.8,88.6,62,88.6,61.7,88z"/>
		<path class="st0" d="M42.8,107.8L42.8,107.8L42.8,107.8L42.8,107.8z"/>
		<path class="st0" d="M61.1,88.9c0.2,0.1,0.4,0,0.5-0.2c0,0,0,0,0-0.1C61.4,88.7,61.1,88.7,61.1,88.9z"/>
		<path class="st0" d="M102.5,76.7h0.1c0-0.1,0-0.1,0-0.2L102.5,76.7z"/>
		<path class="st0" d="M102.7,76.5l0.1-0.1C102.7,76.4,102.7,76.4,102.7,76.5z"/>
		<path class="st0" d="M103.1,76.1l-0.3,0.3C102.9,76.4,103.1,76.4,103.1,76.1z"/>
		<path class="st0" d="M98.9,76.6V77C98.9,76.9,98.9,76.7,98.9,76.6z"/>
		<path class="st0" d="M97.8,76.9c0.3,0,0.8,0.7,1.1,0.4V77C98.8,77.6,98,76.2,97.8,76.9z"/>
		<path class="st0" d="M92.3,72.8l1,0.2c-0.2-0.4-0.6-0.9-0.2-1.1C91.7,70.8,93.6,72.7,92.3,72.8z"/>
		<path class="st0" d="M89.2,72.8c0.5-0.3-0.2-0.6-0.2-0.9C88.8,72.4,88.8,72.5,89.2,72.8z"/>
		<path class="st0" d="M68.6,79.7l-0.4-1C67.9,79.1,68.4,79.1,68.6,79.7z"/>
		<polygon class="st0" points="67.2,86.2 67.8,86.6 67.5,85.7 		"/>
		<polygon class="st0" points="61.7,80.9 61.8,80.7 61.4,81.4 		"/>
		<path class="st0" d="M32.8,104.2l1,0.7C33.8,104.6,32.8,103.6,32.8,104.2z"/>
		<path class="st0" d="M24.2,117.8c-0.6-0.2-1.2,0-0.8,0.6C23.7,118.1,24.3,118,24.2,117.8z"/>
		<polygon class="st0" points="8.4,163 8,162.7 8.4,163.3 		"/>
		<path class="st0" d="M71.2,107.1c-0.2-0.3-1-0.6-1-0.2l1.1,0.8L71.2,107.1z"/>
		<path class="st0" d="M68.2,107.7c0.6,0.9,1.4,1.5,2.4,1.8c-1-0.9-0.5-0.7-1.6-1.7c0-0.3,0.6-0.3,1,0c-0.2-0.3,0.5-0.3-0.2-0.8
			c-1.1-0.2-1.3,0.3-0.8,1.1C68.7,108.1,68.4,107.9,68.2,107.7z"/>
		<path class="st0" d="M56.3,134.3l0.2-0.1C56.4,134.2,56.4,134.2,56.3,134.3z"/>
		<path class="st0" d="M53.2,152.3c0-0.1-0.1-0.2-0.3-0.2C53,152.2,53.1,152.3,53.2,152.3z"/>
		<path class="st0" d="M51.8,155.4c0-0.1,0.1-0.1,0.1-0.2C51.7,155.3,51.7,155.4,51.8,155.4z"/>
		<path class="st0" d="M56.3,134.3l-0.5,0.4C56.2,134.8,56.2,134.5,56.3,134.3z"/>
		<path class="st0" d="M69.3,112.6c0-0.1-0.1-0.3-0.2-0.4c0,0.1,0,0.2,0,0.3L69.3,112.6z"/>
		<path class="st0" d="M57.3,126.2v-0.1c-0.1-0.1-0.3-0.2-0.5-0.3L57.3,126.2z"/>
		<path class="st0" d="M59.1,120.2c-0.1,0.1,0.9,0.5,1.4,0.8c-0.4-0.2-0.6-0.4-0.6-0.5C59.6,120.4,59.3,120.3,59.1,120.2z"/>
		<path class="st0" d="M64.6,111.9l-0.1-0.2C64.5,111.8,64.5,111.9,64.6,111.9z"/>
		<path class="st0" d="M55.9,130.4c-0.1,0-0.3,0-0.4-0.1C55.6,130.4,55.7,130.4,55.9,130.4z"/>
		<path class="st0" d="M146.1,240v0.2C146.1,240.1,146.1,240,146.1,240z"/>
		<path class="st0" d="M153.7,244.5L153.7,244.5l0,0.7L153.7,244.5z"/>
		<path class="st0" d="M50.4,161.3L50.4,161.3C50.3,161.1,50.3,161.2,50.4,161.3z"/>
		<path class="st0" d="M67.5,211.9c0.5-1.1,1.6,0.1,2-1.3C69.2,210.9,67.6,210.9,67.5,211.9z"/>
		<path class="st0" d="M69.1,112.7c0,0.1,0,0.2-0.1,0.2C69,112.9,69.1,112.8,69.1,112.7z"/>
		<path class="st0" d="M69.5,210.6L69.5,210.6v-0.1V210.6z"/>
		<path class="st0" d="M52.6,174.7c0.2-0.1,0.3-0.1,0.5-0.2C52.9,174.5,52.7,174.6,52.6,174.7z"/>
		<path class="st0" d="M52.9,164.6l-0.1,0.3C52.8,164.8,52.9,164.7,52.9,164.6z"/>
		<path class="st0" d="M55.1,179.5c0,0.1-0.2,0.2,0,0.4l0.1-0.1C55.1,179.7,55,179.6,55.1,179.5z"/>
		<path class="st0" d="M56.5,184.6l0.2-0.2l-0.1-0.1L56.5,184.6z"/>
		<path class="st0" d="M131.3,240.7c0.1,0.3,0.1,0.7,0.1,1C131.5,240.9,132.2,240.7,131.3,240.7z"/>
		<path class="st0" d="M68.7,112.4c0.2,0.2,0.3,0.2,0.4,0.3c0-0.1,0-0.1,0-0.2C68.9,112.5,68.8,112.4,68.7,112.4z"/>
		<path class="st0" d="M63.8,177.7v0.8C63.8,178.2,63.8,177.9,63.8,177.7z"/>
		<path class="st0" d="M98.4,229.9h0.2C98.6,229.8,98.5,229.8,98.4,229.9z"/>
		<path class="st0" d="M64.5,180.6c-0.3,0.2-0.5,0.4-0.6,0.6c0.1,0,0.2,0,0.3,0L64.5,180.6z"/>
		<path class="st0" d="M131.5,241.7L131.5,241.7z"/>
		<path class="st0" d="M136.6,239.3c-0.7,0-0.4,1.4-0.5,2.3c-0.9,0.4-0.4-1.1-0.7-1.8c-0.6,0.4-1,1.7-1.4,1.7
			c-0.1-0.2-0.1-0.4,0-0.6c-0.6,1.1-1.7-0.1-2.5,1.3c0-0.1-0.1-0.2-0.1-0.4c0.1,0.7,0,1.3,0,2c-0.3,0-0.7,0.9-0.8-0.1
			c0.2,0.1,0.3-0.3,0.4-0.6l-0.4,0.4c-0.2-1.4,0.5-0.4,0.6-1.5c-0.7,0.4-1.6,1.5-2.1,1c0-1.4,1.3-0.4,0.7-1.6l0.8,0.6
			c-0.4-2.2,0.5,0.2,0.1-2.1c-1-0.5-1.2,0.6-2.2,0.1c-0.3,0.7,0,1.1-0.4,1.8c-1.7,1.1-0.7-3.5-2-1.9c-0.4,0.8-0.8,2.5-1.4,1.5
			l0.5-1.5c-1-0.3-1,2.1-1.8,0.9c0.3-0.6,0.9-0.4,0.8-0.6c-0.5-1.3-0.6,0.8-1.2,0.7l0.2-1.3c-0.3,0-0.6,0.1-0.9,0.1
			c-0.3,0.1-0.6,0.1-0.9,0.2c-0.6,0.2-1.3,0.3-1.9,0.3c0.2-0.4,0.5-0.7,0.3-1.2c-1.6,0.3-3.1-0.9-4.2-2.2l-0.9,0.9
			c-0.1-0.1-0.1-0.6,0.1-0.8c-0.4-0.6-0.3,0.7-0.7,1c-0.3,0-0.2-0.8,0.1-1c-1.2,0.6-3.5,1.1-4-0.5l0.3-0.2c-0.6-0.8-1.8,1.8-2.1,0.5
			l0.2-0.1c-0.8-0.5-1.6-0.9-2.5-1.2c-0.9-0.3-1.5-1.1-1.7-2.1c-1,1.4-1.2-1.5-2.4,0.5c-0.4-1.5,0.1-1.7-0.8-3.1
			c-0.3-0.3-1.2,1-1.8,0.9l0.6-1.1l-1.2,0.8l0.5-1.4h-0.5c0.1,0.3,0,0.7-0.2,1c-0.9,0.1-1-1.6-0.7-2.2c-0.6,0-1.3,0-2,0
			c0.3-0.4,0.6-0.4,1-0.5c-1.4,0.5,0.6-1.1-0.7-0.7c-0.1,0.3-0.5,0.6-0.6,0.8c0-0.8-0.6-1.5-1.4-1.5l0.6-0.6
			c-0.8-0.9-2.3-1.1-3.3-2.1c0.1,0.6-0.9,1.7-1.3,1.5l0.7-1.1c-0.7,0.5,0,0.7-1,1.1c-0.3-0.5,0.7-1.4,1.2-1.5l-0.8-0.1
			c0.2-0.3,0.5-0.4,0.8-0.7c-0.7,0.5,0-1.7-1.2-0.9l0.2-0.3c-1-0.9-1.8-0.9-2.6-1.7c-0.8,0.8-0.9,0.3-1.8,0.7
			c-0.3-0.9-0.4-2.1-1.2-2.8c-0.9-0.1-0.8,0.5-1.5,0.7c0.7-0.7-0.1-1.4,0.8-1.5c-0.8-0.8-1.8-1.3-2.8-1.6c-0.2,0.4-0.2,0.7-0.6,0.8
			c-0.3-0.1-0.1-0.8,0.3-1h0.1c-1.1-0.2-1.3-1.4-1.3-2.5c0-1.1-0.1-2.3-1.4-2.2h0.1l-1.7-0.5c-0.2-0.6,0.8-0.1,1.1-0.9
			c-2.3-0.2-1.2-2.1-2.8-2.5c0.7-0.6,0.7-1.6,0.2-2.3c-0.1-0.1-0.2-0.2-0.3-0.3c-0.3-0.3-0.6-0.6-0.9-1c-0.2-0.4-0.2-0.9,0-1.3
			l-0.6,0.4c-0.8,0,0.2-0.6,0.2-0.9c-0.4,0.3-0.4,0.6-0.8,0.6c-1-1.1-1.7-2.5-1.9-4c-0.2-1.5-0.3-3.1-0.6-4.6c-0.3-1-3.6,0.9-2.6-1
			l1.3-0.2c-0.9-0.7-1.6-1.6-1.9-2.8c-0.3-1.1-0.9-2.1-1.7-2.9c0.3,0,0.7-0.1,0.8,0.1c0.8-0.7-0.5-1.6-1.2-1.3c0-0.4,0.7-0.3,1-0.6
			c0.4-0.6-1.5-0.7-0.7-1.2c0.1-0.1,0.3,0,0.4,0.1c-0.5-0.1-0.3-1.3-1.3-0.7c0.2-0.9-0.9-1.3-0.4-2.1c-1.3-0.1,0.2-1.5-1.5-1.2
			c1.8-0.4,1.1-1.7,0.1-2c0.6,0,0.4-0.6,1.2-0.5c-0.1-0.5-0.6-0.9-1.2-0.8c-0.1,0-0.2,0.1-0.3,0.1c1.9-1.5-2.1-1.8,0.5-2.9
			c-1.2-1.3-2.1-2.8-2.8-4.4c1.8-0.2,0.4,1.7,2.2,1.3c-0.9-1.3-2.5-2-2.3-3.5c0.2-0.4,0.8,0.1,1.1,0.2c-0.9-1.4-0.2-2.8-1.2-4
			c0.2,0,0.4,0.1,0.5,0.2c-0.1-0.2,0.2-0.6-0.6-0.5l0.2,0.2c-1.2,0.5-2.5-0.9-3.1-0.9c2.3,0.3,0.5-1.4,3.5-0.8
			c-0.3-0.2-0.7-0.4-1.1-0.3c0.1-0.3,0.5-0.4,1.1-0.1c-0.5-0.9-1.3-0.5-1.4-1.4c0.4,0,0.5,0.2,1,0.2c-0.8-0.4-1.6-0.8-1.3-1.5
			c0.2,0,0.5,0,0.5,0.2c-0.1-1.2-2-2.1-1.3-3.4c1.7,0.4,0.6-0.4,2-0.5l-0.4-0.7l-0.7,0.3c0-0.6-1-1.2-0.5-1.8l0.6,0.5
			c-0.1-0.4-0.2-0.8-0.2-1.2c-0.2,0.2-0.4,0.4-0.6,0.7c-0.8-0.7-1.9,0-1.4-0.9c0.1,0.2,0.1-0.6,1-0.9l0,0c-0.5-0.4-0.9-0.7-0.5-1.2
			c0.5-0.1,1.6,0.2,2,0.1c-1.2-0.4-0.2-1.5-1.5-2c0.4,0.1,0.8,0.2,1.2,0.2l-1-0.3c0.3-0.3,0.5-0.3,1.1-0.2c0.2-0.9-1.9,0.1-1-0.9
			c0.1,0.1,0.2,0.1,0.4,0.2c0.5-1-0.4-2.1,0.2-3c1.5-0.1,0.2,0.9,1.5,0.7c-0.1-1.4-1.4-3.1-0.8-4.4l-0.2,0.2c-2-0.5,1.2-0.8,0.3-1.7
			c0.3,0.2,0.6,0.3,0.9,0.3c0.5-0.9-0.1-1.9-0.5-3.5l0.5,0.3c0.6-0.4,0.6-1.4,0.9-1.9c-0.5-0.3-0.3-0.6-1.1-0.6
			c1.7-0.5,1.5-1.5,1.3-2.4c-0.3-0.9-0.5-1.9,0.9-2.3c0,0.2,0.3,0.6,0.4,0.4l-0.1-1.5c-0.9-0.2-0.6,0-1.3,0.1
			c-0.5-0.3-0.8-0.8-0.7-1.2c0.4,0.8,1.4,0.4,2,0.3c-0.3,0-0.5-0.2-0.8-0.3c1.8-0.2-1.8-0.7-0.4-1.3l0.4,0.2
			c-0.1-0.4-0.6-0.9-0.3-1.3c1.1,0.2,0.3,0.5,1.2,0.8c0.1-0.5-1.5-1.7-0.4-1.8c0.2,0.3,0.1,0.7,0.3,1c1.4-0.1,1.1-0.3,1.4-0.6l0,0
			l0.8-0.7l-0.4,0.1c-2.4-1.6,0-1.5-1.4-3.1c1.3,1.5,0.9,0.5,2,1c0.4-0.1,0.9-0.3,1.1-0.1c-0.8-0.8,1-0.4-0.1-1.5
			c0.4,0.1,0.2-0.4,1.1,0c-0.1-0.6-0.7-0.1-1.1-0.3c-0.9-1.3,2.3-1.3,1.1-3.2c-0.3-1.3-1.4-2-1.5-3.3c0.7-0.1,1.2,0.9,1.2,0.9
			c0.5-0.1,0.9-0.7,0.7-1.2c0-0.1,0-0.1-0.1-0.2c0.3,0.2,0.6,0.3,1,0.3c0.1-0.4-1.1-0.9-0.4-1.1c0.4,0.3,0.8,0.7,1.2,1.1
			c-0.1-0.6-0.5-1.4-0.6-2c0.7,0.2,0.8,0.7,1.1,1.1c0.2-0.8-0.1-1.7-0.7-2.3l-0.5,0.2c0.1-0.2,0.9,0.3,1,0.6c0.5,0.8-0.7,0.5-1,0.3
			v-0.4c-2.2-0.7-0.4,1.5-0.8,2.1l-1.3-1l0.9,1.3c-0.5,0-1.3-0.3-1.4-0.8c-1,0.1,0.3,0.7-0.7,0.7c-0.1,0-0.2-0.1-0.2-0.1l0.2,0.7
			c-0.3-0.2-1.1-0.4-0.7-0.6c-1.2,0.5,0.5,1.9-0.8,1.8l-0.1-0.1c0,1.5,1.1,0.6,2,2.1l-3-0.6l1.1,0.6c-0.1,0.1-0.3,0.3-0.7,0.1
			c0.6,0.8,0.5,0.1,1.1,0.7c-1.3,0.2-0.2,1.9-2.1,1.3c0.8,0.6,0.9-0.3,1.2,0.6c-2-0.6,0,0.9-1.1,1.1c-0.9-0.6-0.2-0.9-1.3-0.7
			c1.6,1-0.8,1-0.6,1.6c1.3,0.5,0.2,1.2,0.4,2.2c-0.4-0.2-1.3,1.3-2,1.9l-0.2-0.1c1.3,0.6,0.8,1.3,1,2c-0.6-0.1-1.1-0.4-1.4-0.9
			l-0.2,0.6c0.4,0.2,0.6,0.5,0.7,0.9l-1-0.4c-0.2,0.8,0.8,1.8-0.1,2.6c1,0.3,2.9,0,3.3,1.2c-0.5-0.1-1.5-0.3-1.6-0.6
			c0,0.1,0.4,0.4,0.1,0.5l-0.8-0.6c-0.5,0.3,0.7,0.4,0.5,0.7c-0.8-0.2-0.6,0.1-1.2-0.1c0-0.1,0.4-0.2,0.1-0.4
			c-0.4,0.4-0.9,0.7-1.4,0.7c0.4,0.1,1,0.3,1,0.6c-0.2,0.8-1,0-1.5,0.4c0.5,0.3-0.2,0.6,1,0.9c0,0.2-0.6,0.1-0.9,0.1
			c0.4,0.5-0.2,1.8,1.1,1.7l0.1-0.1c0,0,0,0,0,0.1l0,0c0.9,1.5-1.2,2.5-1,3.8l-0.4-0.1c0.3,0.8,0,1.7,0.7,2.4c0,0.2-0.8,0.4-1.2,0.2
			c0.2,0.6,0.6,0.8-0.1,1.5c-0.6-0.7-0.6,0.1-0.4-0.7c-0.4,0.7-1.1,0.8-0.1,1.7c-1-0.4-1.3,0.4-1.1,0.8l0.8-0.4
			c0.1,0.4,0,0.8-0.2,1.1l-1.3-0.3c-0.9,0.7-0.3,1.5,0.2,2.2s0.9,1.4-0.5,1.8c0.9,0.5,0.7-0.8,1.8-0.3c-0.2,0.7-2.2,1.3-2.2,1.5
			c-0.8,0.9,1.9,1,1.3,2c0.5-0.1,1.8-0.2,2.1,0.6c-0.2,0.7-2,0.8-2.4,0.3c0-0.2,0.1-0.2,0.3-0.2c-0.2-0.2-0.3-0.6-0.9-0.3l0.5,0.1
			c-0.5,0.3-0.5,1.3-1.2,1.1c0.4,0.6,0.8,0.3,1-0.1c-0.7,0.9,0,1.4-0.5,2.4c0.3-0.1,0.8-0.3,0.8-0.1c-0.6,1.4,0.9,0.6,1.1,1.6
			c-0.7,0.5-1.7-0.2-1.1,0.8c-0.5,0.6-1.2,0.1-1.6-0.1c0.9,0.9-0.6,1.6-0.8,2.2l-0.4-0.4c0.2,0.2,0.3,0.5,0.2,0.7l0.9-0.3
			c-0.2,0.3-0.1,0.5-0.5,0.5c0.6,0.3,1.5-0.3,2.4,0.3c-0.5,0.4,0.6,1-0.7,1.2c0.4-1.1-1.2,0.2-1.5-0.8c0.2,0.2,0.2,0.5,0,0.7
			c-0.1,0-0.2,0-0.3-0.1c-1.1,1.1,1.4,0.4,1.5,1.5c-0.7-0.1-1.3,0.3-1.2,0.5c0-0.5,1.2-0.3,1.7,0.1c-0.5,0.8,0.5,0.8,0.4,1.1
			l0.2-0.4c0.7,0.1,0.6,0.4,0.9,0.9c-0.5,0.1-0.4-0.4-0.6-0.2c1.2,0.4-1.2,1.4-0.2,2c-0.4,0.4-1.3,0.2-1.6,0.5c1,0.8-0.8,1,0,1.9
			c0.9-0.4,0.7-0.4,1.7,0.1l-0.8-1.4l1.5,0.8c0-0.4-0.7-0.9-0.6-1.1c0.8,0.4,0.6,0.3,1.3,0c-1.3,0.8,1,1.1,0.1,1.9l-2.3,0.3
			c-0.9,1.2,1.4,1.8,1.1,3.2l0.3-0.5c1,0,0.3,0.8,0.7,1.2c-0.5,0.1-1,0.3-1.5,0.7c0.6-0.1,0.1,1,1.7,0.9l-0.9,0.8
			c-0.2,1.2,2.4,0.8,2.4,1.9c-0.9-0.1-1.3,0.5-2.1-0.1c0.1,0.4,0,0.7,0.5,0.6c-0.4,0.3,1.3,0.7,0.6,1.2c0.4,0.1,1.2-0.1,1.2,0.3
			c-0.1,0.1-0.2,0.1-0.4,0.1c0.4-0.1,0.7,0.5,1.4-0.1c-2.1,1.7,0.9,2.9-0.9,4.4c0.5,0.7,0.9,1.4,1.3,2.2c-0.2,0-0.4,0.1-0.3,0
			c-0.4,1.2,2.3-0.1,1.9,1.2c-1,0.9-0.8-0.3-1.2,0.1c-2.4,1,0.8,1.2-0.4,2.4l-0.2-0.1c-0.3,0.4,0,0.7,0.5,1s1,0.5,1.1,1
			c-0.1,0-0.3,0.1-0.4,0.1c1.2,0.2,2.3,0.8,3,1.8c-1,0.1-0.6-0.2-1.5,0.4c0.3,0.3,1.5-0.7,2-0.1c-0.4,0.4-0.6,1.2-1.6,1.7l-0.3-0.7
			c-1.2,0.9,0.4,0.9,0.3,1.4l-0.6,0.2c0.7,1,2.1,0.4,2.5,1.5l0.4-0.3c1.7,0-0.5,0.9,0.8,1l-1.3,0.9c0.9,0.3,1.8,0.8,2.6,1.3
			c-1,0-2.1-0.3-3-0.7c0.2,0.4,0.8,1.3,1.6,1.2c-0.2-0.1-0.7-0.1-0.5-0.4c1-0.2,2,0.2,2.6,1.1c-2.8,1.3,0.4,2.4-1.3,4.1
			c0.8,0.4,1.3,1.1,1.4,2c0.2,0.9,0.5,1.7,1,2.5c1.6-1.8,0.4,0.4,2.3-1c0.4,0.3,0.4,0.4,0.3,0.6l-0.5,1.9c-0.4,0.7-0.7,0-1.1,0.3
			c0.4,0.9-0.6,0.9-0.8,1.8c0.7-0.6,1.2-0.4,1.2,0.2c0.1-0.4,0.3-0.9,0.5-1.3c1.8,0.4-1,2.1,0.9,2.5l-0.9,0.1
			c0.8,0.3,1.6,2.1,3.5,1.4c-0.2,0.3-0.6,0.8-0.9,0.7c0.6,0.8,1.4,1.3,2.3,1.6c0.9,0.4,1.7,0.8,1.6,1.7l-0.5,0.3
			c0.3,0.1,1.2-0.3,1,0.4c-0.2,0.1-0.5,0.3-0.5,0.4c0.3,0,1.3-0.1,1.3,0.5l-0.7,0.2c0.1,0.4,0.3,0.7,0.7,0.9
			c0.4,0.1,0.7,0.2,1.1,0.2c0.8-0.1,1.6,0,2.3,0.2c-0.9,0.8-1.1,2.1-0.5,3.2l-0.2,0.2c1.2,1.6,3.4,1.1,5.1,1.8
			c-0.1,1,0.3,1.9,1.1,2.6c0.8,0.6,1.5,1.4,2,2.3c0-0.4,0.9-1.1,1.2-1c0.1,0.5,1.6-0.3,0.6,1l-0.1-0.1c-0.7,1.5,0.3,1.6,0.8,2.1
			l1.1-1.7c-0.2,1.8,1,2.1,2,2.4c1,0.3,2,0.5,1.7,1.9c0.6-0.2,1.1,0.1,1.7-0.2l-0.6,1c0.7,0.8,1.7,1.3,2.7,1.6l-0.6,0.6
			c0.7,0.4,2.4-2.4,3.1-2.1l-0.6,1.6c1.2,0.7,2,2.5,3.8,1.7c-0.1,0.2-0.4,0.6-0.6,0.6c0.6,0.3,1.9,2.1,2.6-0.2
			c-0.5,1.4,1.3,0.8,2.2,0.3l-0.5,1c1.1-1.1,1.2-1.5,2.2-1.6c0.2,0.2-0.1,0.9-0.3,0.5c0.5,0.8,0.8-0.8,1.4,0l-0.5,0.6
			c0.7,0.3,0.7-0.1,1.3-0.7c0.6-0.3,1.2,0.7,1,1.7c0.3-0.6,0.9-1.2,1.2-0.8c0,0.3-0.2,0.5-0.4,0.6c1,1,2.1-0.8,2.6,0.5
			c-0.1,0.2-0.1,0.4,0,0.7c-0.5-0.1-1.1-0.3-1.6-0.6c-0.3,1,0.4,1.3-0.6,2.6c0.8-0.6,2.3-1.9,2.9-1.3c0,0.1,0,0.2,0,0.4l-0.1,0.1
			c0.2,0.1,0.3,0.1,0.5,0c0.2,0.2,0.3,0.4,0.5,0.4c-0.1,0.9,0.8,0.7,1.1,0.8c0.2-1.1,0.7-0.8,0.4-1.8c0,0.1-0.1,0.1-0.3,0.1
			c-0.1,0-0.1,0-0.2,0.1v-0.1c-0.2,0-0.6-0.1-0.9-0.2c0.4-0.5,0.8-0.9,1.1-0.2c0.3-0.6,0.7-1.3,0.9-1.6c0.2,1.6,1,2.6,1,3.6
			c1.3-0.4,2.8,0.1,3.8-1.9c0.4-0.2,0.3,0.6,0.4,1c-0.2,0.2-0.4,0.1-0.6,0.4c0.7-0.4,2,0.1,2.3-1.4c0.7,0.7-0.6,1.3,0.5,1.2
			l-0.2,0.4c1,1.3,2,0.4,3-0.4c1-0.8,2-1.4,3.1,0.1c-0.2-0.1-0.2-0.3-0.3-0.5c1.4,0.7,2.9,0.4,4.3,0.2c0.7-0.1,1.4-0.2,2.2-0.1
			c0.8,0,1.5,0.3,2.1,0.7c0.8,0.4,0.9-0.6,1.3-1.3l0.3,1.2l0.7-1.4c1-1.1,2.3,2.8,3.6,0.7l-0.3-0.8c0.5,0.1,1.6-0.7,1.6,0.2
			c0-0.2,0-0.9,0.3-0.5l0.1,0.6l1.1-1.2c1.1,0.3,0.2,2.5,1.7,2.4c0.5-0.3,1.2-2,0.9-2.4c-0.2,0-0.6-0.3-0.8-0.9l0.4-0.4
			c-0.2-1.8-0.3-3.7-1.6-4.8l-0.6,1.2l-0.4-0.9l0.6-0.1c-0.5-0.8-0.6,0-0.8,0.5c-0.1-0.3-0.2-0.7-0.5-0.9l-0.5,1.9
			c-0.2-0.7,0.1-1.5-0.4-1.8c-0.2,0.9,0.6,1.6,0.1,2.2c-0.5-0.8-0.5-1.5-0.8-0.7c-0.1-0.3-0.1-0.7,0.1-1c-0.3,0.6-1,0.4-1.1,1.4
			c-0.5-1-1.3,0.5-1.5-1.3c-0.1,0.4-0.5,1.4-0.9,1.5c0.5-2.1-1.4,0-1.4-2.3c-0.3,1.9-1.7,1-2.5,2.1c0-0.1,0.1-0.5,0.2-0.4
			c-0.5-0.1-0.7-0.7-1-1c0,1.6-0.8,2-1.1,2.9c-0.6-1.5,0.3-1.8,0.1-3.3c0.1,1.3-1,1.2-0.8,2.3c-0.4-0.5-0.6-1.1-0.6-1.7
			c-0.1,1.9-0.4,0.3-0.8,1.5c-0.7-1-0.2-1.8-0.9-1.2C136,240,136.6,239.3,136.6,239.3z M119.2,240.5L119.2,240.5h0.4H119.2z
			 M117.7,240.1c0.2,0.1,0.4,0.2,0.6,0.2c0,0.4-0.2,0.8-0.3,0.7C118.1,240.8,117.8,240.5,117.7,240.1L117.7,240.1z M119.1,248.4
			c-0.3,0.1-0.3-0.1-0.3-0.4c0.2,0,0.3,0,0.5,0l0.1-0.1C119.2,248.1,119.1,248.3,119.1,248.4z"/>
		<path class="st0" d="M119.8,247.1c0,0,0.1-0.1,0.1,0c0-0.1-0.1-0.2-0.1-0.3l-0.2,0.3L119.8,247.1z"/>
		<path class="st0" d="M56.5,134.1L56.5,134.1c0.1,0,0.1,0,0.2,0H56.5z"/>
		<polygon class="st0" points="100.1,230.3 99.9,230.5 100.2,230.4 		"/>
		<path class="st0" d="M62.4,126.9c0.1,0,0.2,0,0.3,0C62.6,126.9,62.5,126.9,62.4,126.9z"/>
		<path class="st0" d="M63.8,123.6l0.5-0.3C64.1,123.3,63.9,123.4,63.8,123.6z"/>
		<path class="st0" d="M65.2,121.2c-0.1-0.1-0.3-0.2-0.4-0.2l0,0L65.2,121.2z"/>
		<path class="st0" d="M60.3,163.8c0,0,0,0.1,0.1,0.1C60.6,164.1,60.5,164,60.3,163.8z"/>
		<path class="st0" d="M57.6,150.9c0.2,0.1,0.3,0.3,0.5,0.4C58.2,151.1,58.2,150.9,57.6,150.9z"/>
		<path class="st0" d="M63.8,177.6L63.8,177.6C63.8,177.6,63.8,177.6,63.8,177.6L63.8,177.6z"/>
		<path class="st0" d="M58,152c0.2-0.1,0.2-0.4,0.1-0.6c0,0,0,0,0-0.1C58,151.5,57.9,151.8,58,152z"/>
		<path class="st0" d="M70.5,110.5L70.5,110.5l-0.1-0.2L70.5,110.5z"/>
		<path class="st0" d="M70.4,110.3v-0.2C70.3,110.2,70.3,110.2,70.4,110.3z"/>
		<path class="st0" d="M70.2,109.7l0.1,0.4C70.4,110,70.5,109.9,70.2,109.7z"/>
		<path class="st0" d="M68.4,113.5l0.3,0.2C68.6,113.7,68.5,113.6,68.4,113.5z"/>
		<path class="st0" d="M68,114.6c0.2-0.2,1-0.2,1-0.7l-0.3-0.2C69.2,114.1,67.5,114.1,68,114.6z"/>
		<path class="st0" d="M61.6,117l0.7-0.8c-0.5,0-1.1,0-1-0.5C59.6,116.4,62.2,115.9,61.6,117z"/>
		<path class="st0" d="M59.9,119.5c0-0.6-0.6-0.2-0.8-0.3C59.4,119.7,59.4,119.8,59.9,119.5z"/>
		<path class="st0" d="M54.4,140.6l-1-0.2C53.5,140.9,53.8,140.5,54.4,140.6z"/>
		<polygon class="st0" points="59.1,145.3 59.7,145 58.8,144.8 		"/>
		<polygon class="st0" points="51.6,147 51.5,146.8 51.8,147.5 		"/>
		<path class="st0" d="M55.3,184l1.2-0.5C56.2,183.3,54.8,183.6,55.3,184z"/>
		<path class="st0" d="M62,198.5c-0.5,0.4-0.7,1,0,1C62,199.2,62.2,198.6,62,198.5z"/>
		<polygon class="st0" points="91.2,236.5 90.7,236.7 91.4,236.8 		"/>
		<path class="st0" d="M85.9,162c-0.3,0.1-0.9,0.6-0.6,0.8l1.2-0.6L85.9,162z"/>
		<path class="st0" d="M85.1,165c1-0.1,2-0.6,2.7-1.4c-1.2,0.5-0.8,0.1-2.3,0.7c-0.3-0.1,0-0.6,0.4-0.9c-0.3,0.1,0-0.5-0.8-0.2
			c-0.6,0.9-0.3,1.3,0.7,1.2C85.6,164.7,85.4,164.9,85.1,165z"/>
		<path class="st0" d="M103.8,187.3l-0.1-0.2C103.7,187.1,103.7,187.2,103.8,187.3z"/>
		<path class="st0" d="M118.6,197.9c-0.1,0-0.3,0-0.3,0.1C118.5,198.1,118.6,198,118.6,197.9z"/>
		<path class="st0" d="M120.8,200.6c0-0.1-0.1-0.1-0.1-0.2C120.7,200.6,120.7,200.7,120.8,200.6z"/>
		<path class="st0" d="M103.8,187.3l0.1,0.6C104.2,187.6,103.9,187.5,103.8,187.3z"/>
		<path class="st0" d="M90,166.2c-0.1,0-0.3,0-0.4,0c0.1,0,0.2,0.1,0.3,0.1L90,166.2z"/>
		<path class="st0" d="M96.9,182.9l-0.1-0.1l-0.4,0.3L96.9,182.9z"/>
		<path class="st0" d="M92.3,178.7c0.1,0.1,0.9-0.6,1.3-0.9c-0.4,0.3-0.6,0.4-0.8,0.3C92.7,178.3,92.5,178.5,92.3,178.7z"/>
		<path class="st0" d="M87.3,170.1H87C87.1,170.1,87.2,170.1,87.3,170.1z"/>
		<path class="st0" d="M100.1,186c-0.1,0.1-0.2,0.2-0.2,0.3C100,186.2,100.1,186.1,100.1,186z"/>
		<path class="st0" d="M238.1,152.7l0.2,0.1C238.2,152.7,238.1,152.7,238.1,152.7z"/>
		<path class="st0" d="M245.4,147.9v0.1l0.6,0.2L245.4,147.9z"/>
		<path class="st0" d="M125.5,204.4L125.5,204.4C125.3,204.4,125.4,204.4,125.5,204.4z"/>
		<path class="st0" d="M178.5,211.1c-0.7-0.9,0.8-1.4-0.2-2.4C178.4,209.2,177.6,210.6,178.5,211.1z"/>
		<path class="st0" d="M89.9,166.4c0.1,0.1,0.1,0.1,0.2,0.2C90.1,166.5,90,166.4,89.9,166.4z"/>
		<path class="st0" d="M178.2,208.8L178.2,208.8l-0.1-0.1L178.2,208.8z"/>
		<path class="st0" d="M138.5,208.3c0-0.2,0-0.3,0-0.5C138.5,207.9,138.5,208.1,138.5,208.3z"/>
		<path class="st0" d="M129.5,203.6l0.2,0.2C129.6,203.8,129.6,203.7,129.5,203.6z"/>
		<path class="st0" d="M143.9,208.1c0.1,0.1,0.1,0.3,0.3,0.2c0,0,0-0.1,0-0.1C144.1,208.2,144,208.3,143.9,208.1z"/>
		<path class="st0" d="M149.1,209.1c0-0.1,0-0.2-0.1-0.2h-0.2L149.1,209.1z"/>
		<path class="st0" d="M232.3,166.3c0.3,0.1,0.7,0.2,1,0.3C232.5,166.3,232.6,165.5,232.3,166.3z"/>
		<path class="st0" d="M89.5,166.6c0.2-0.1,0.4-0.2,0.5-0.2c0,0-0.1-0.1-0.1-0.1C89.7,166.4,89.6,166.5,89.5,166.6z"/>
		<path class="st0" d="M146,199.5l0.7,0.3C146.6,199.7,146.3,199.6,146,199.5z"/>
		<path class="st0" d="M208.2,191.2l0.1-0.2C208.2,191,208.1,191,208.2,191.2z"/>
		<path class="st0" d="M149.1,200.1c0,0.3,0.1,0.6,0.3,0.9c0-0.1,0.1-0.1,0.1-0.3L149.1,200.1z"/>
		<path class="st0" d="M233.3,166.6L233.3,166.6z"/>
		<path class="st0" d="M233.4,160.9c-0.4,0.6,1.1,1,1.8,1.5c0,1-1.1-0.1-1.9-0.2c0.1,0.7,1.1,1.7,0.9,2c-0.2-0.1-0.3-0.1-0.6-0.3
			c0.8,1.1-0.8,1.5,0.1,2.8c-0.1,0-0.2-0.1-0.4-0.1c0.6,0.3,1.2,0.6,1.8,0.9c-0.1,0.3,0.5,1-0.4,0.6c0.1-0.2-0.2-0.4-0.4-0.6
			l0.2,0.5c-1.4-0.4-0.2-0.7-1-1.2c0,0.8,0.6,2.1,0,2.4c-1.2-0.6,0.2-1.3-1.1-1.3l0.9-0.4c-2.1-0.6,0.4-0.3-1.9-1
			c-0.9,0.7,0,1.4-0.9,2.1c0.5,0.6,1,0.5,1.5,1.1c0.3,2-3.5-0.9-2.6,1c0.6,0.7,1.9,1.8,0.7,2l-1.1-1.1c-0.7,0.7,1.4,1.8,0,2
			c-0.4-0.5,0.1-1-0.2-0.9c-1.4-0.1,0.4,0.9,0.1,1.4l-1.1-0.7c-0.1,0.3-0.2,0.6-0.3,0.9c-0.1,0.3-0.2,0.6-0.2,0.9
			c-0.1,0.6-0.4,1.3-0.7,1.9c-0.3-0.3-0.5-0.7-1-0.8c-0.5,1.6-2.2,2.4-3.8,2.8l0.4,1.2c-0.1,0.1-0.5-0.2-0.6-0.5
			c-0.7,0.1,0.5,0.5,0.6,1.1c-0.2,0.3-0.8-0.2-0.9-0.6c0,1.4-0.5,3.6-2.2,3.4l-0.1-0.4c-0.9,0.2,0.9,2.4-0.4,2.1V185
			c-0.8,0.5-1.5,1.1-2.2,1.7c-0.7,0.6-1.7,0.9-2.6,0.6c0.8,1.5-1.9,0.4-0.6,2.4c-1.5-0.3-1.5-0.8-3.1-0.7c-0.4,0.1,0.3,1.5,0,2
			l-0.7-1l0.1,1.4l-1.1-1l-0.2,0.5c0.2,0,0.6,0.3,0.8,0.6c-0.3,0.8-1.9,0.2-2.2-0.4c-0.3,0.6-0.6,1.2-0.9,1.7c-0.2-0.5,0-0.7,0-1.1
			c-0.1,1.5-0.8-1-0.9,0.3c0.2,0.2,0.3,0.7,0.4,0.9c-0.7-0.4-1.6-0.1-2,0.5l-0.3-0.8c-1.2,0.4-2,1.6-3.3,2.1
			c0.6,0.2,1.1,1.5,0.8,1.8l-0.7-1.1c0.1,0.8,0.6,0.3,0.5,1.4c-0.6,0.1-0.9-1.2-0.8-1.7l-0.4,0.6c-0.1-0.3-0.2-0.7-0.3-1
			c0.1,0.8-1.5-0.8-1.3,0.6l-0.2-0.3c-1.2,0.5-1.6,1.2-2.7,1.6c0.4,1.1-0.1,1-0.1,1.9c-0.9-0.1-2.1-0.6-3-0.2c-0.5,0.8,0.1,1,0,1.7
			c-0.4-0.9-1.3-0.6-1-1.4c-1,0.4-1.9,1-2.7,1.8c0.3,0.4,0.5,0.5,0.5,0.8c-0.2,0.2-0.7-0.2-0.8-0.7v-0.1c-0.6,1-1.8,0.5-2.9,0.1
			s-2-0.9-2.5,0.3l0-0.1l-1.2,1.4c-0.7,0,0.2-0.8-0.3-1.4c-1.2,2-2.4,0.1-3.5,1.4c-0.2-0.9-1.1-1.4-2-1.2c-0.1,0-0.3,0.1-0.4,0.2
			c-0.4,0.2-0.9,0.3-1.3,0.4c-0.5,0-0.9-0.2-1.2-0.6l0.1,0.7c-0.3,0.7-0.4-0.4-0.7-0.5c0.1,0.5,0.4,0.6,0.2,1c-1.4,0.4-3,0.4-4.4,0
			c-1.5-0.5-3-1.1-4.4-1.4c-1-0.2-0.7,3.7-2,1.9l0.4-1.3c-1,0.6-2.2,0.7-3.3,0.5c-1.1-0.2-2.2-0.1-3.3,0.2c0.2-0.3,0.2-0.7,0.4-0.6
			c-0.3-1-1.6-0.3-1.7,0.5c-0.3-0.1,0-0.7-0.1-1.1c-0.4-0.6-1.3,1.1-1.4,0.1c0-0.2,0.2-0.3,0.3-0.4c-0.4,0.4-1.3-0.3-1.2,0.8
			c-0.7-0.6-1.6,0.2-2.1-0.5c-0.6,1.1-1.2-0.9-1.7,0.8c0.4-1.8-1.1-1.7-1.8-1c0.3-0.5-0.3-0.6,0.1-1.3c-0.5-0.1-1.1,0.2-1.2,0.7
			c0,0.1,0,0.2,0,0.3c-0.5-2.4-2.5,1.1-2.4-1.7c-1.7,0.5-3.5,0.7-5.2,0.6c0.6-1.7,1.7,0.4,2.2-1.4c-1.6,0.2-2.9,1.4-4.1,0.5
			c-0.3-0.4,0.5-0.7,0.7-0.9c-1.6,0.2-2.6-1-4.2-0.7c0.1-0.2,0.3-0.3,0.4-0.3c-0.3-0.1-0.4-0.5-0.7,0.3l0.3-0.1
			c0,1.3-1.9,1.9-2.2,2.4c1.3-2-1-1,0.8-3.5c-0.4,0.2-0.6,0.5-0.7,0.9c-0.2-0.2-0.1-0.6,0.4-1c-1,0.1-1.1,1-1.8,0.6
			c0.2-0.4,0.4-0.4,0.7-0.8c-0.7,0.5-1.4,1.1-1.9,0.5c0.1-0.2,0.2-0.5,0.4-0.4c-1.1-0.4-2.8,0.9-3.7-0.4c1.1-1.4-0.2-0.7,0.4-2.1
			l-0.8,0.1l-0.1,0.8c-0.6-0.3-1.6,0.4-1.8-0.3l0.7-0.3c-0.4-0.1-0.8-0.2-1.2-0.3c0.1,0.3,0.2,0.6,0.3,0.8c-0.9,0.4-0.8,1.7-1.4,0.9
			c0.2,0-0.6-0.3-0.4-1.3l0,0c-0.5,0.3-1,0.5-1.3,0c0.1-0.5,0.9-1.4,1-1.7c-0.9,0.9-1.5-0.5-2.5,0.5c0.3-0.3,0.6-0.6,0.7-1l-0.7,0.6
			c-0.1-0.4,0-0.6,0.3-1.1c-0.7-0.6-0.7,1.8-1.2,0.5c0.1,0,0.2-0.2,0.4-0.2c-0.7-0.9-2.1-0.6-2.6-1.5c0.6-1.4,0.9,0.2,1.3-1.1
			c-1.3-0.5-3.4-0.1-4.3-1.2l0.1,0.3c-1.4,1.6-0.2-1.4-1.4-1c0.2,0,0.9-0.8,0.7-0.6c-0.5-0.8-1.8-0.7-3.3-1.1l0.5-0.3
			c-0.1-0.7-1-1.1-1.3-1.7c-0.5,0.3-0.7,0-1,0.8c0.2-1.7-0.6-2-1.6-2.2c-1-0.2-1.9-0.4-1.7-1.8c0.2,0.1,0.7,0,0.6-0.1l-1.4-0.6
			c-0.5,0.7-0.2,0.5-0.5,1.2c-0.4,0.3-0.9,0.3-1.3,0.1c0.9,0,1-1.1,1.1-1.6c-0.2,0.2-0.4,0.4-0.6,0.6c0.6-1.7-1.4,1.3-1.3-0.2
			l0.4-0.3c-0.4-0.1-1.1,0.1-1.3-0.3c0.6-0.9,0.6-0.1,1.2-0.7c-0.4-0.4-2.2,0.6-1.8-0.5c0.4,0,0.6,0.2,1,0.2
			c0.5-1.3,0.2-1.1,0.1-1.5l0,0l-0.3-1l-0.1,0.4c-2.5,1.4-1.4-0.7-3.3-0.1c1.9-0.5,0.8-0.6,1.8-1.4c0.1-0.4,0.1-0.9,0.4-1.1
			c-1,0.4,0.1-1.1-1.4-0.6c0.3-0.3-0.3-0.4,0.5-1c-0.6-0.2-0.4,0.6-0.8,0.9c-1.6,0.2-0.2-2.6-2.4-2.4c-1.3-0.4-2.4,0.3-3.6,0
			c0.2-0.7,1.3-0.7,1.3-0.7c0.1-0.8-0.3-1.1-0.9-1.2c0.3-0.1,0.5-0.4,0.7-0.8c-0.3-0.3-1.3,0.6-1.2-0.1c0.5-0.3,1-0.5,1.5-0.6
			c-0.6-0.2-1.4-0.1-2-0.3c0.4-0.5,1-0.4,1.5-0.5c-0.7-0.5-1.6-0.6-2.4-0.3l-0.1,0.5c-0.2-0.1,0.7-0.6,0.9-0.6
			c1-0.1,0.1,0.8-0.2,1.1l-0.4-0.1c-1.6,1.7,1.2,1,1.5,1.6l-1.5,0.8l1.5-0.2c-0.2,0.4-0.9,1.1-1.3,0.9c-0.3,1,0.7,0,0.3,1
			c0,0.1-0.1,0.2-0.2,0.2l0.7,0.1c-0.3,0.1-0.8,0.8-0.9,0.4c-0.1,1.3,2,0.4,1.2,1.4h-0.1c1.3,0.6,1-0.7,2.7-0.9l-1.8,2.5l1-0.7
			c0.1,0.1,0.2,0.4-0.2,0.7c1-0.2,0.3-0.4,1.1-0.7c-0.4,1.2,1.6,1,0.2,2.4c0.8-0.4,0.1-0.9,1-0.9c-1.4,1.6,0.8,0.4,0.5,1.4
			c-0.9,0.6-0.9-0.2-1.2,0.9c1.6-1,0.6,1.1,1.2,1.2c1.1-1,1.2,0.4,2.2,0.6c-0.4,0.3,0.6,1.7,0.8,2.7l-0.2,0.2c1.1-0.9,1.5-0.2,2.2,0
			c-0.3,0.5-0.9,0.8-1.4,0.9l0.4,0.4c0.3-0.2,0.7-0.3,1.1-0.2l-0.8,0.7c0.6,0.5,2,0,2.2,1.2c0.7-0.7,1.3-2.6,2.5-2.5
			c-0.3,0.4-0.9,1.2-1.3,1.2c0.1,0,0.5-0.1,0.5,0.1l-0.9,0.4c0.1,0.6,0.7-0.4,0.9-0.1c-0.5,0.6-0.2,0.6-0.6,1c-0.1,0,0-0.4-0.3-0.3
			c0.2,0.5,0.2,1.1,0,1.6c0.3-0.4,0.7-0.8,1-0.7c0.6,0.5-0.4,0.9-0.3,1.5c0.5-0.3,0.5,0.4,1.3-0.5c0.2,0.1-0.2,0.6-0.3,0.9
			c0.6-0.2,1.6,1,2-0.2v-0.1h0.1c1.7-0.1,1.7,2.1,3,2.5l-0.2,0.3c0.8,0.1,1.5,0.8,2.5,0.4c0.2,0.1,0,0.9-0.3,1.2
			c0.7,0.1,1-0.2,1.3,0.8c-0.9,0.2-0.2,0.6-0.8,0.1c0.4,0.7,0.2,1.3,1.5,0.9c-0.8,0.7-0.2,1.4,0.2,1.3v-0.9c0.4,0.1,0.7,0.3,0.9,0.6
			l-0.9,1c0.2,1.1,1.2,0.9,2,0.8s1.6-0.2,1.4,1.3c0.8-0.6-0.4-1,0.5-1.7c0.5,0.5,0.2,2.5,0.4,2.6c0.5,1.1,1.7-1.2,2.4-0.3
			c0.1-0.5,0.6-1.6,1.5-1.7c0.5,0.5-0.2,2.1-0.7,2.3c-0.2,0-0.2-0.2-0.1-0.4c-0.3,0-0.6,0.1-0.6,0.6l0.3-0.4c0.1,0.6,1,1,0.4,1.6
			c0.7-0.1,0.6-0.6,0.3-1c0.5,1,1.3,0.7,1.9,1.5c0-0.3,0.1-0.9,0.2-0.8c1,1.1,1-0.5,1.9-0.3c0.2,0.9-0.9,1.5,0.2,1.3
			c0.3,0.7-0.4,1.2-0.8,1.4c1.2-0.4,1.2,1.3,1.6,1.6l-0.6,0.2c0.3-0.1,0.5,0,0.8,0.1l0.1-1c0.2,0.3,0.4,0.4,0.2,0.7
			c0.5-0.5,0.4-1.5,1.3-2.1c0.1,0.6,1.2-0.1,0.8,1.1c-0.9-0.8-0.4,1.2-1.3,1c0.2-0.1,0.5,0.1,0.6,0.3c0,0.1-0.1,0.2-0.2,0.3
			c0.6,1.5,1-1.1,2-0.6c-0.4,0.6-0.3,1.3,0,1.3c-0.4-0.2,0.2-1.2,0.8-1.5c0.5,0.8,0.9-0.1,1.2,0.1l-0.3-0.4c0.4-0.6,0.7-0.4,1.2-0.4
			c-0.2,0.5-0.6,0.2-0.5,0.5c0.9-0.9,0.7,1.6,1.7,1.1c0.2,0.6-0.4,1.2-0.2,1.7c1.1-0.6,0.6,1.2,1.7,0.8c0-1-0.1-0.8,0.8-1.5
			l-1.6,0.1l1.4-1c-0.4-0.2-1.1,0.2-1.3,0c0.7-0.6,0.6-0.4,0.6-1.2c0.1,1.5,1.4-0.4,1.8,0.7l-0.8,2.2c0.7,1.3,2.2-0.5,3.3,0.4
			l-0.3-0.5c0.4-0.8,0.9,0.1,1.4-0.1c-0.2,0.5-0.2,1.1,0,1.6c0.1-0.6,1,0.3,1.5-1.2l0.3,1.2c1,0.7,1.8-1.8,2.8-1.3
			c-0.5,0.7-0.2,1.4-1,1.8c0.4,0.1,0.6,0.3,0.8-0.2c0.1,0.5,1.2-0.8,1.4,0c0.2-0.3,0.5-1.1,0.8-1c0,0.1,0,0.3-0.1,0.4
			c0.1-0.4,0.7-0.4,0.6-1.3c0.6,2.6,3,0.4,3.6,2.7c0.8-0.1,1.7-0.2,2.5-0.2c-0.1,0.2-0.1,0.4-0.2,0.3c0.9,0.9,0.9-2.1,1.9-1.2
			c0.4,1.3-0.7,0.6-0.4,1.1c-0.2,2.6,1.4-0.2,1.9,1.4l-0.2,0.1c0.2,0.5,0.6,0.3,1.1,0c0.4-0.3,0.9-0.7,1.4-0.6
			c0,0.1-0.1,0.3-0.1,0.4c0.7-1,1.7-1.7,2.9-1.9c-0.3,1-0.4,0.5-0.3,1.5c0.4-0.1,0-1.6,0.8-1.9c0.4,0.7,0.7,1.4,0.8,2.2h-0.8
			c0.3,1.5,1,0,1.4,0.3l-0.1,0.6c1.2-0.1,1.2-1.7,2.5-1.6l-0.1-0.5c0.7-1.5,0.6,0.9,1.2-0.3l0.2,1.6c0.7-0.7,1.5-1.3,2.4-1.8
			c-0.5,0.9-1.2,1.8-2,2.4c0.5,0,1.5-0.1,1.8-0.9c-0.2,0.1-0.4,0.5-0.6,0.3c0.5-1.2,1.2-1.8,2.1-1.9c0,3,2.3,0.6,3.1,2.9
			c0.7-0.5,1.6-0.6,2.4-0.4c0.9,0.2,1.8,0.3,2.7,0.2c-0.9-2.3,0.5-0.1,0.1-2.5c0.4-0.2,0.6-0.2,0.6,0l1.5,1.3
			c0.4,0.7-0.3,0.6-0.2,1.1c1,0.1,0.5,1,1.3,1.5c-0.3-0.9,0.1-1.3,0.7-1c-0.3-0.3-0.6-0.6-0.9-1c1.1-1.5,1.5,1.8,2.6,0.3l-0.3,0.8
			c0.6-0.6,2.6-0.5,2.8-2.5c0.2,0.2,0.5,0.9,0.2,1.1c0.9-0.2,1.8-0.6,2.4-1.4c0.8-0.6,1.5-1.1,2.2-0.7v0.6c0.3-0.2,0.2-1.2,0.8-0.7
			c0,0.2,0,0.6,0.2,0.6c0.1-0.2,0.5-1.2,1-1l-0.1,0.7c0.4,0.1,0.8,0,1.1-0.2c0.3-0.3,0.5-0.6,0.7-0.9c0.3-0.7,0.7-1.4,1.2-2
			c0.4,1.1,1.5,1.9,2.7,1.8l0.1,0.2c1.9-0.4,2.5-2.6,3.8-3.8c0.8,0.5,1.9,0.6,2.8,0.1c0.9-0.5,1.9-0.7,2.9-0.8
			c-0.4-0.2-0.6-1.2-0.4-1.5c0.5,0.1,0.4-1.6,1.1-0.1h-0.1c1,1.2,1.6,0.5,2.2,0.2l-0.9-1.9c1.5,0.9,2.3,0,3-0.8
			c0.7-0.8,1.3-1.6,2.4-0.7c0.1-0.7,0.5-0.9,0.6-1.6l0.6,0.9c1-0.3,1.9-0.9,2.7-1.8l0.2,0.8c0.7-0.4-1.1-3.2-0.6-3.7l1.2,1.2
			c1.1-0.8,3.1-0.6,3.2-2.7c0.1,0.2,0.4,0.6,0.3,0.8c0.5-0.4,2.7-0.8,1-2.4c1,1.1,1.2-0.8,1.3-1.8l0.7,0.9c-0.5-1.5-0.8-1.8-0.4-2.7
			c0.2,0,0.8,0.5,0.4,0.5c0.9-0.1-0.4-1.1,0.6-1.3l0.3,0.7c0.6-0.5,0.3-0.7-0.1-1.5c0-0.6,1.1-0.8,2-0.1c-0.4-0.5-0.7-1.3-0.2-1.4
			c0.2,0.1,0.4,0.4,0.4,0.6c1.3-0.4,0.2-2.2,1.5-2.1c0.2,0.2,0.4,0.3,0.6,0.3c-0.6,0.7-1.2,1.3-1.2,1.1c0.8,0.7,1.4,0.2,2,1.6
			c-0.2-1-0.7-2.9,0.1-3.2c0.1,0,0.2,0.1,0.3,0.1v0.1c0.2-0.1,0.2-0.2,0.2-0.5c0.2,0,0.5-0.1,0.6-0.3c0.7,0.5,0.9-0.4,1.2-0.7
			c-0.9-0.7-0.4-0.9-1.5-1.1c0.1,0,0.1,0.1-0.1,0.4c0,0.1,0,0.1,0,0.2l-0.1-0.1c-0.1,0.2-0.3,0.5-0.6,0.8c-0.2-0.6-0.4-1.1,0.3-1.1
			c-0.4-0.6-0.9-1.2-1.1-1.5c1.6,0.6,2.8,0.2,3.6,0.7c0.2-1.3,1.3-2.5,0-4.3c0-0.4,0.7,0,1.1,0.1c0.1,0.3-0.1,0.4,0.1,0.7
			c0-0.8,1-1.7-0.2-2.7c1-0.4,0.9,1.1,1.3,0l0.3,0.4c1.6-0.4,1.3-1.6,1-2.9c-0.3-1.2-0.4-2.4,1.5-2.8c-0.2,0.1-0.4,0.1-0.6,0
			c1.2-1,1.6-2.4,2-3.8c0.2-0.7,0.5-1.4,0.8-2c0.3-0.7,0.9-1.3,1.5-1.6c0.7-0.6-0.1-1-0.6-1.7l1.2,0.3l-1-1.3
			c-0.5-1.4,3.6-0.9,2.2-2.9l-0.8-0.1c0.3-0.5,0-1.7,0.9-1.4c-0.1-0.1-0.8-0.4-0.3-0.5l0.6,0.2l-0.6-1.6c0.7-0.8,2.3,0.9,2.9-0.5
			c-0.1-0.6-1.3-2-1.8-1.9c-0.3,0.3-0.7,0.4-1.1,0.3l-0.2-0.6c-1.8-0.6-3.5-1.4-5.1-0.7l0.9,1.1h-0.9l0.1-0.6
			c-0.9,0.1-0.3,0.6,0.1,1c-0.3-0.1-0.7-0.1-1.1,0l1.5,1.3c-0.7-0.1-1.3-0.8-1.8-0.4c0.7,0.6,1.6,0.1,2,0.9c-0.9,0.1-1.5-0.2-1,0.5
			c-0.4,0-0.7-0.2-0.9-0.5c0.4,0.6-0.1,1.1,0.8,1.6c-1.1,0-0.1,1.4-1.8,0.8c0.4,0.2,1,1.1,1,1.5c-1.7-1.4-0.6,1.2-2.6,0.3
			c1.6,1.1,0.1,1.9,0.8,3.1c-0.1-0.1-0.4-0.3-0.2-0.4c-0.3,0.4-0.9,0.3-1.3,0.4c1.4,0.7,1.4,1.5,2.1,2.3c-1.6-0.1-1.5-1.1-2.9-1.5
			c1.2,0.5,0.7,1.4,1.7,1.7c-0.6,0.1-1.3,0-1.9-0.2c1.7,0.9,0.1,0.5,1,1.4c-1.2,0.2-1.7-0.7-1.5,0.3
			C233.7,161.8,233.4,160.9,233.4,160.9z M226.7,177.1L226.7,177.1l0.2-0.3L226.7,177.1z M225.8,178.3c0.2-0.1,0.3-0.3,0.5-0.5
			c0.3,0.2,0.6,0.5,0.5,0.6C226.6,178.2,226.2,178.3,225.8,178.3L225.8,178.3z M233.9,180.7c0,0.3-0.3,0.2-0.5,0.1
			c0.1-0.1,0.1-0.3,0.2-0.4l-0.1-0.1C233.6,180.4,233.8,180.6,233.9,180.7L233.9,180.7z"/>
		<path class="st0" d="M233,179.5c0-0.1,0-0.1,0-0.1c-0.1,0-0.2,0-0.3,0l0.2,0.3L233,179.5z"/>
		<path class="st0" d="M103.7,187L103.7,187c0-0.1,0-0.1,0-0.2C103.7,186.9,103.7,186.9,103.7,187z"/>
		<polygon class="st0" points="209.2,189.9 209.4,190.1 209.4,189.8 		"/>
		<path class="st0" d="M99.8,178.6c0.1-0.1,0.1-0.2,0.1-0.3C99.8,178.4,99.8,178.5,99.8,178.6z"/>
		<path class="st0" d="M97.4,175.9l-0.1-0.6C97.3,175.5,97.3,175.7,97.4,175.9z"/>
		<path class="st0" d="M95.8,173.6c-0.2,0.1-0.3,0.2-0.4,0.3l0,0L95.8,173.6z"/>
		<path class="st0" d="M132.1,196.6c0,0,0.1,0,0.1,0C132.5,196.5,132.3,196.5,132.1,196.6z"/>
		<path class="st0" d="M119.3,193.4c0.2-0.1,0.4-0.2,0.6-0.2C119.7,193,119.6,192.9,119.3,193.4z"/>
		<path class="st0" d="M146,199.5L146,199.5L146,199.5L146,199.5z"/>
		<path class="st0" d="M120.4,193.5c0-0.2-0.2-0.4-0.5-0.3c0,0,0,0-0.1,0C120,193.3,120.2,193.5,120.4,193.5z"/>
		<path class="st0" d="M88.6,164.2V164l-0.2,0.1L88.6,164.2z"/>
		<path class="st0" d="M88.4,164.1h-0.2C88.2,164.2,88.3,164.2,88.4,164.1z"/>
		<path class="st0" d="M87.8,164l0.4,0.1C88.1,164,88.1,163.9,87.8,164z"/>
		<path class="st0" d="M90.4,167.4l0.3-0.2C90.6,167.2,90.5,167.3,90.4,167.4z"/>
		<path class="st0" d="M91.2,168.1c-0.1-0.3,0.2-1-0.2-1.2l-0.3,0.2C91.3,166.9,90.5,168.4,91.2,168.1z"/>
		<path class="st0" d="M90.5,175l-0.4-0.9c-0.2,0.4-0.5,1-0.9,0.7C89.1,176.5,89.8,173.9,90.5,175z"/>
		<path class="st0" d="M92.1,177.6c-0.5-0.2-0.4,0.4-0.6,0.6C92,178.2,92.1,178.1,92.1,177.6z"/>
		<path class="st0" d="M108.6,191.8l-0.6,0.8C108.5,192.7,108.2,192.2,108.6,191.8z"/>
		<polygon class="st0" points="114.9,189.6 114.9,188.9 114.3,189.6 		"/>
		<polygon class="st0" points="113.2,197.1 113,197.1 113.7,197.1 		"/>
		<path class="st0" d="M148,209.9l0.1-1.2C147.8,208.8,147.5,210.2,148,209.9z"/>
		<path class="st0" d="M164.1,210.2c0.2,0.6,0.6,1,0.9,0.4C164.6,210.6,164.2,210.1,164.1,210.2z"/>
		<polygon class="st0" points="211,200.6 210.9,201.1 211.3,200.5 		"/>
		<path class="st0" d="M131.8,174.8c-0.1,0.4,0,1.1,0.3,0.9l0.1-1.3L131.8,174.8z"/>
		<path class="st0" d="M133.9,177c0.4-0.9,0.5-2,0.3-3c-0.2,1.3-0.4,0.8-0.6,2.3c-0.3,0.2-0.5-0.4-0.5-0.9c-0.1,0.4-0.5-0.2-0.6,0.6
			c0.4,1,0.9,1,1.4,0.1C134,176.4,134,176.7,133.9,177z"/>
		<path class="st0" d="M162.7,172.9l-0.2-0.1C162.6,172.9,162.6,172.9,162.7,172.9z"/>
		<path class="st0" d="M179.6,165.8c-0.1,0.1-0.1,0.2,0,0.4C179.6,166,179.7,165.9,179.6,165.8z"/>
		<path class="st0" d="M183,165.4h-0.2C182.9,165.5,183,165.5,183,165.4z"/>
		<path class="st0" d="M162.7,172.9l0.6,0.2C163.2,172.6,163,172.9,162.7,172.9z"/>
		<path class="st0" d="M137.5,173.5c-0.1,0.1-0.2,0.2-0.2,0.4c0.1-0.1,0.1-0.1,0.2-0.2L137.5,173.5z"/>
		<path class="st0" d="M155.4,176.3h-0.1c0,0.2,0,0.4,0,0.6L155.4,176.3z"/>
		<path class="st0" d="M149.4,178c0.1,0,0-1.1-0.1-1.6c0,0.5,0,0.7-0.1,0.8C149.2,177.5,149.3,177.8,149.4,178z"/>
		<path class="st0" d="M139.4,177.9l-0.1,0.2C139.3,178,139.4,177.9,139.4,177.9z"/>
		<path class="st0" d="M159.7,175.3c0,0.1,0.1,0.3,0.2,0.4C159.9,175.5,159.8,175.4,159.7,175.3z"/>
		<path class="st0" d="M203.9,40.4l0.2-0.1C204,40.3,203.9,40.3,203.9,40.4z"/>
		<path class="st0" d="M203.6,31.6h0.1l0.5-0.4L203.6,31.6z"/>
		<path class="st0" d="M188.7,163.3L188.7,163.3C188.6,163.5,188.7,163.5,188.7,163.3z"/>
		<path class="st0" d="M222.3,121.8c-1.2,0.1-0.8-1.4-2.1-1C220.6,120.9,221.4,122.2,222.3,121.8z"/>
		<path class="st0" d="M137.7,173.6c0.1,0,0.2,0,0.2,0C137.9,173.6,137.8,173.6,137.7,173.6z"/>
		<path class="st0" d="M220.1,120.8L220.1,120.8H220H220.1z"/>
		<path class="st0" d="M198.8,154.4c-0.1-0.1-0.3-0.2-0.4-0.3C198.5,154.2,198.7,154.3,198.8,154.4z"/>
		<path class="st0" d="M190.1,159.5h0.3C190.3,159.5,190.2,159.5,190.1,159.5z"/>
		<path class="st0" d="M201.5,149.6c0.1,0,0.3,0,0.3-0.2c0,0-0.1,0-0.1,0C201.7,149.5,201.7,149.6,201.5,149.6z"/>
		<path class="st0" d="M205.2,145.7l-0.2-0.1l-0.1,0.2L205.2,145.7z"/>
		<path class="st0" d="M212.5,52.5c0.2-0.2,0.5-0.5,0.8-0.7C212.6,52.3,212,51.8,212.5,52.5z"/>
		<path class="st0" d="M137.6,174.1c0-0.3,0-0.4,0.1-0.5l-0.2,0.1C137.5,173.8,137.6,174,137.6,174.1z"/>
		<path class="st0" d="M195.4,143.3l0.6-0.5C195.8,143,195.5,143.1,195.4,143.3z"/>
		<path class="st0" d="M220.9,86.1l-0.1-0.2C220.7,86,220.8,86,220.9,86.1z"/>
		<path class="st0" d="M197.5,141.1c0.3,0.1,0.6,0.2,0.9,0.2c0-0.1-0.1-0.2-0.1-0.3L197.5,141.1z"/>
		<path class="st0" d="M213.2,51.8L213.2,51.8z"/>
		<path class="st0" d="M208.4,48.7c0.4,0.6,1.4-0.5,2.2-0.8c0.8,0.5-0.7,0.9-1.2,1.5c0.6,0.3,2-0.1,2.2,0.3
			c-0.2,0.2-0.2,0.3-0.5,0.3c1.3-0.1,0.8,1.5,2.5,1.4c-0.1,0.1-0.2,0.2-0.3,0.2c0.5-0.4,1.1-0.7,1.7-1c0.2,0.3,1.1,0.2,0.3,0.7
			c-0.1-0.2-0.4,0-0.7,0l0.5,0.1c-1.1,0.9-0.6-0.2-1.6,0.3c0.7,0.4,2.1,0.6,2,1.3c-1.2,0.7-1-0.9-1.7,0.3l0.1-1
			c-1.6,1.5-0.1-0.5-1.9,1c0.1,1.1,1.1,0.7,1.3,1.8c0.8-0.1,1-0.5,1.8-0.7c1.9,0.8-2.6,2.5-0.5,2.8c0.9-0.1,2.6-0.7,2,0.4l-1.5,0.3
			c0.2,1,2.2-0.3,1.7,1.1c-0.6,0-0.8-0.6-0.9-0.3c-0.9,1.1,1,0.1,1.2,0.6l-1.2,0.6c0.2,0.3,0.4,0.5,0.6,0.8c0.2,0.2,0.4,0.5,0.7,0.7
			c0.5,0.4,0.9,0.9,1.3,1.5c-0.4,0.1-0.9,0-1.2,0.4c1.1,1.2,0.9,3.1,0.4,4.7l1.3,0.3c0,0.1-0.5,0.4-0.7,0.3c-0.3,0.7,0.7-0.2,1.2,0
			c0.1,0.3-0.5,0.6-0.9,0.5c1.2,0.7,2.8,2.3,1.7,3.7l-0.4-0.1c-0.3,0.9,2.5,0.5,1.5,1.5l-0.2-0.1c0,0.9,0.1,1.9,0.3,2.8
			c0.2,0.9-0.1,1.9-0.8,2.5c1.7,0.1-0.6,1.8,1.7,1.8c-1.1,1.1-1.5,0.8-2.2,2.3c-0.1,0.4,1.5,0.5,1.7,1h-1.2l1.3,0.6l-1.5,0.4
			l0.3,0.4c0.2-0.2,0.6-0.4,0.9-0.4c0.6,0.7-0.8,1.7-1.5,1.7c0.3,0.6,0.7,1.1,1,1.7c-0.5-0.1-0.6-0.3-0.9-0.6c1.2,0.9-1.3,0.1-0.2,1
			c0.3-0.1,0.7,0.1,1,0.1c-0.7,0.4-1,1.3-0.6,2l-0.8-0.2c-0.3,1.2,0.3,2.6,0,3.9c0.5-0.4,1.9-0.2,2,0.3h-1.3
			c0.8,0.4,0.6-0.4,1.4,0.3c-0.2,0.5-1.5,0.2-1.9-0.2l0.4,0.7c-0.4-0.1-0.7-0.2-1-0.3c0.8,0.4-1.4,0.9-0.1,1.4h-0.4
			c-0.2,1.3,0.2,2,0,3.1c1.1,0.2,0.8,0.6,1.6,1.1c-0.5,0.7-1.6,1.4-1.7,2.4c0.4,0.8,0.9,0.4,1.5,0.9c-1-0.2-1.1,0.8-1.7,0.1
			c-0.2,1.1-0.2,2.2,0.1,3.2c0.4,0,0.7-0.2,1,0c0.1,0.3-0.6,0.5-1,0.3l-0.1-0.1c0.5,1.1-0.5,1.8-1.4,2.5c-0.9,0.7-1.8,1.3-1.1,2.3
			l-0.1-0.1l0.5,1.7c-0.4,0.6-0.6-0.6-1.3-0.4c1.1,2.1-1.1,2.1-0.6,3.7c-1.6-0.2-1.9,0.6-2.1,1.5c-0.1,0.4-0.2,0.9-0.4,1.3
			c-0.2,0.4-0.7,0.7-1.1,0.7l0.7,0.3c0.5,0.6-0.6,0.2-0.8,0.3c0.5,0.2,0.7,0,1,0.3c-0.4,1.4-1.2,2.7-2.3,3.7c-1.2,1-2.5,1.9-3.5,3
			c-0.7,0.8,2.7,2.6,0.5,2.7l-0.9-1.1c0,1.2-0.5,2.2-1.3,3.1c-0.8,0.8-1.4,1.8-1.7,2.8c-0.2-0.3-0.5-0.5-0.3-0.7
			c-1-0.2-1.1,1.2-0.5,1.7c-0.3,0.2-0.6-0.4-1-0.5c-0.7,0,0.2,1.6-0.7,1.2c-0.1-0.1-0.1-0.3-0.2-0.4c0.2,0.5-1,1,0.1,1.5
			c-0.9,0.3-0.6,1.5-1.6,1.5c0.6,1.1-1.4,0.6-0.2,1.9c-1.3-1.3-2,0-1.8,1c-0.3-0.5-0.7-0.1-1.1-0.7c-0.4,0.4-0.4,1-0.1,1.4
			c0.1,0.1,0.2,0.2,0.3,0.2c-2.3-0.8-0.4,2.7-2.7,1.1c-0.5,1.7-1.2,3.3-2.3,4.8c-1.1-1.4,1.2-1.2-0.1-2.6c-0.6,1.5-0.3,3.2-1.7,3.8
			c-0.5,0-0.3-0.7-0.4-1.1c-0.7,1.5-2.3,1.7-2.8,3.2c-0.1-0.2-0.1-0.4-0.1-0.5c-0.2,0.2-0.6,0.1-0.1,0.8l0.1-0.3
			c1.1,0.7,0.6,2.6,1,3.1c-1-2.1-1.4,0.3-2.6-2.5c0,0.4,0.1,0.8,0.4,1.1c-0.3,0-0.6-0.2-0.7-0.9c-0.5,0.9,0.3,1.4-0.4,1.9
			c-0.2-0.3-0.2-0.6-0.4-1c0.1,0.9,0.2,1.8-0.6,1.9c-0.1-0.2-0.3-0.4-0.2-0.5c-1,0.8-0.7,2.8-2.2,2.9c-0.6-1.7-0.7-0.2-1.5-1.5
			l-0.4,0.8l0.6,0.5c-0.5,0.3-0.5,1.5-1.2,1.4l0.1-0.8c-0.3,0.3-0.6,0.6-0.9,0.9c0.3,0.1,0.6,0.1,0.9,0.2c-0.2,1,1,1.6,0,1.6
			c0.1-0.2-0.6,0.3-1.3-0.3l0,0c0,0.6-0.1,1.2-0.7,1.1c-0.3-0.4-0.7-1.5-0.9-1.7c0.3,1.2-1.1,1-0.9,2.4c-0.1-0.4-0.3-0.8-0.5-1.2
			l0.2,1c-0.4-0.1-0.5-0.3-0.8-0.8c-0.9,0.3,1.1,1.5-0.2,1.3c0-0.1-0.1-0.2,0-0.4c-1.1,0.1-1.6,1.5-2.7,1.4
			c-0.9-1.2,0.6-0.7-0.2-1.7c-1.1,0.8-1.9,2.8-3.3,3.1h0.3c0.6,2-1.3-0.5-1.6,0.6c0-0.3-0.1-0.6-0.2-0.9c-1,0-1.6,1.1-2.7,2.3v-0.6
			c-0.7-0.3-1.5,0.2-2.1,0.2c0,0.6-0.3,0.6,0.1,1.3c-1.4-1.1-2.1-0.5-2.7,0.2s-1.3,1.5-2.5,0.5c0.2-0.1,0.3-0.6,0.2-0.5l-1.2,0.9
			c0.4,0.9,0.3,0.5,0.8,1.1c0,0.6-0.3,1.1-0.6,1.2c0.4-0.8-0.4-1.4-0.8-1.8c0.1,0.3,0.2,0.6,0.2,0.9c-1.1-1.4,0.4,1.8-0.9,1
			l-0.1-0.5c-0.3,0.3-0.5,1-0.9,1c-0.4-1,0.3-0.6,0.1-1.4c-0.5,0.2-0.6,2.2-1.4,1.3c0.2-0.4,0.5-0.4,0.7-0.8
			c-0.8-1.1-0.8-0.8-1.3-0.9l0,0l-1.1-0.3l0.3,0.3c-0.1,2.9-1.3,0.8-1.8,2.8c0.6-1.9-0.1-1-0.2-2.2c-0.3-0.3-0.7-0.6-0.7-0.9
			c-0.2,1.1-0.9-0.6-1.2,0.9c-0.1-0.4-0.5,0-0.5-0.9c-0.5,0.4,0.3,0.6,0.3,1.1c-0.6,1.5-2.3-1.2-3.3,0.8c-1,0.9-1,2.2-2,3.1
			c-0.4-0.6,0.1-1.4,0.1-1.4c-0.4-0.4-1-0.4-1.4,0c0,0-0.1,0.1-0.1,0.1c0-0.4-0.1-0.7-0.3-1c-0.4,0.1-0.1,1.4-0.7,0.9
			c0-0.5,0.1-1.1,0.2-1.6c-0.5,0.4-0.9,1.2-1.4,1.6c-0.2-0.6,0.2-1,0.3-1.5c-0.5,0.4-1.4,0.8-1.5,1.8l0.4,0.3
			c-0.2,0.1-0.2-0.9-0.1-1.1c0.4-0.9,0.8,0.3,0.8,0.7l-0.4,0.3c0.6,2.2,1.5-0.5,2.2-0.5l-0.1,1.7l0.6-1.4c0.2,0.4,0.5,1.3,0.1,1.6
			c0.6,0.8,0.4-0.6,1,0.2c0.1,0.1,0.1,0.2,0,0.3l0.5-0.6c-0.1,0.4,0.2,1.1-0.1,0.9c1.1,0.8,1.4-1.5,1.9-0.3l-0.1,0.1
			c1.2-0.8,0-1.2,0.7-2.8l1.1,2.8l0.1-1.2c0.1,0,0.4,0.1,0.5,0.5c0.4-0.9-0.2-0.5,0-1.3c0.9,1,1.7-0.8,2.2,1.1
			c0.1-0.9-0.8-0.6-0.2-1.3c0.6,2,0.7-0.5,1.5,0.3c0,1.1-0.6,0.7,0.1,1.5c0-1.9,1.2,0.1,1.7-0.3c-0.3-1.4,1-0.8,1.7-1.5
			c0.1,0.5,1.8,0.4,2.7,0.7v0.2c-0.2-1.4,0.6-1.4,1.1-1.9c0.2,0.5,0.2,1.1,0,1.7l0.5-0.2c0-0.4,0.1-0.8,0.4-1l0.2,1.1
			c0.7-0.3,1.1-1.7,2.2-1.3c-0.3-1-1.6-2.5-0.8-3.4c0.2,0.5,0.5,1.4,0.3,1.7c0.1-0.1,0.2-0.5,0.4-0.4l-0.1,1c0.5,0.3,0-0.8,0.4-0.8
			c0.2,0.8,0.4,0.5,0.6,1.1c-0.1,0.1-0.4-0.2-0.4,0.1c0.6,0.1,1.1,0.4,1.4,0.8c-0.2-0.4-0.3-1-0.1-1.2c0.7-0.3,0.5,0.8,1.1,1.1
			c0-0.6,0.6-0.2,0.3-1.3c0.2-0.1,0.4,0.4,0.6,0.7c0.2-0.6,1.7-0.8,0.8-1.8h-0.1c0,0,0,0,0-0.1l0,0c0.8-1.5,2.7-0.3,3.7-1.2l0.1,0.4
			c0.5-0.7,1.5-0.9,1.6-1.9c0.2-0.1,0.8,0.4,0.9,0.9c0.4-0.5,0.3-0.9,1.3-0.7c-0.2,0.9,0.4,0.5-0.3,0.7c0.8,0,1.2,0.5,1.6-0.8
			c0.2,1,1,0.9,1.3,0.5l-0.8-0.4c0.3-0.2,0.6-0.4,1-0.4l0.4,1.3c1.1,0.4,1.4-0.5,1.8-1.3c0.3-0.8,0.7-1.4,1.8-0.5
			c-0.1-1-1-0.2-1.2-1.3c0.7-0.2,2.3,1.1,2.5,1c1.2,0.2-0.1-2.1,1-2.2c-0.4-0.3-1.1-1.4-0.6-2.1c0.7-0.2,1.7,1.3,1.5,1.8
			c-0.1,0.1-0.3,0-0.4-0.1c-0.1,0.3-0.3,0.6,0.2,0.9l-0.1-0.5c0.6,0.3,1.4-0.3,1.6,0.5c0.2-0.7-0.2-0.8-0.7-0.8
			c1.1,0.1,1.2-0.7,2.3-0.9c-0.3-0.1-0.7-0.5-0.5-0.6c1.5-0.2,0-1.1,0.7-1.8c0.8,0.3,0.8,1.6,1.2,0.5c0.8,0.1,0.8,1,0.8,1.4
			c0.2-1.2,1.7-0.4,2.2-0.5l-0.2,0.6c0.1-0.3,0.2-0.5,0.5-0.6l-0.7-0.6c0.3,0,0.5-0.1,0.7,0.2c-0.1-0.7-1.1-1.2-1.1-2.2
			c0.6,0.2,0.6-1.1,1.4-0.1c-1.2,0.3,0.8,0.9,0.1,1.7c0.1-0.2,0.3-0.4,0.6-0.4c0.1,0.1,0.1,0.2,0.1,0.3c1.5,0.3-0.4-1.4,0.5-2.1
			c0.3,0.6,1,0.9,1.1,0.7c-0.4,0.2-0.9-0.8-0.9-1.5c0.9,0,0.4-0.8,0.7-1h-0.5c-0.3-0.6,0-0.8,0.3-1.2c0.4,0.4-0.1,0.6,0.1,0.7
			c-0.3-1.3,1.8,0.3,1.9-0.9c0.6,0.1,0.9,1,1.3,1.1c0.1-1.3,1.3,0.1,1.6-1c-0.8-0.6-0.7-0.4-0.8-1.5l-0.7,1.5l-0.1-1.7
			c-0.4,0.3-0.4,1.1-0.7,1.1c-0.1-0.9,0-0.7-0.7-1.1c1.4,0.7,0.4-1.4,1.6-1.1l1.5,1.8c1.5,0.1,0.7-2.1,2.1-2.6h-0.6
			c-0.5-0.8,0.5-0.7,0.6-1.3c0.4,0.4,0.8,0.7,1.4,0.9c-0.4-0.4,0.8-0.7-0.2-1.9l1.2,0.3c1.1-0.5-0.6-2.5,0.4-3
			c0.4,0.8,1.1,0.9,1,1.8c0.3-0.2,0.6-0.4,0.2-0.8c0.5,0.2-0.1-1.5,0.7-1.2c-0.1-0.4-0.7-1-0.4-1.2c0.1,0.1,0.2,0.2,0.3,0.3
			c-0.3-0.3,0-0.8-0.8-1.2c2.5,0.9,2-2.3,4.2-1.6c0.3-0.8,0.7-1.5,1.1-2.2c0.1,0.2,0.3,0.2,0.1,0.3c1.2-0.3-1.4-1.9,0-2.2
			c1.3,0.4,0.1,0.9,0.8,0.9c2.1,1.5,0.6-1.3,2.2-0.9v0.2c0.5,0,0.6-0.4,0.6-0.9c0-0.5-0.1-1.1,0.2-1.5c0.1,0.1,0.2,0.2,0.3,0.2
			c-0.5-1.1-0.5-2.3-0.1-3.5c0.7,0.8,0.2,0.6,1.1,1.1c0.1-0.4-1.4-0.9-1.2-1.7c0.8,0,1.6,0.1,2.3,0.5l-0.4,0.6c1.4,0.5,0.5-0.8,1-1
			l0.5,0.4c0.5-1.1-0.8-2-0.1-3l-0.5-0.1c-0.9-1.4,1,0,0.4-1.2l1.4,0.6c-0.2-1-0.3-2-0.3-3c0.5,0.9,0.9,1.9,1,3
			c0.2-0.4,0.7-1.4,0.2-2c0,0.2,0.2,0.6-0.1,0.6c-0.7-0.7-0.9-1.8-0.5-2.8c2.6,1.6,1.8-1.7,4.1-1.1c-0.1-0.9,0.3-1.7,1-2.2
			c0.7-0.6,1.2-1.4,1.6-2.2c-2.4-0.4,0.2-0.5-2.1-1.4c0-0.4,0.1-0.6,0.3-0.6l1.9-0.6c0.8,0,0.3,0.6,0.8,0.8c0.6-0.8,1.1,0,2-0.3
			c-0.9-0.2-1-0.8-0.5-1.2c-0.4,0.1-0.9,0.2-1.3,0.3c-0.7-1.7,2.3-0.3,1.6-2.1l0.6,0.7c-0.2-0.8,0.9-2.4-0.7-3.7c0.3,0,1,0,1,0.4
			c0.3-0.9,0.4-1.8,0.1-2.8c-0.1-1-0.2-1.8,0.6-2.3l0.5,0.3c-0.1-0.3-0.9-0.8-0.2-1c0.2,0.1,0.5,0.3,0.6,0.2
			c-0.1-0.2-0.8-1.1-0.3-1.4l0.5,0.5c0.3-0.3,0.4-0.6,0.4-1c-0.1-0.4-0.2-0.7-0.4-1.1c-0.5-0.6-0.8-1.3-1-2.1c1.2,0.3,2.4-0.3,3-1.3
			l0.2,0.1c0.7-1.8-0.9-3.5-1.3-5.3c0.9-0.4,1.5-1.3,1.6-2.3c0.1-1,0.4-2,0.9-2.9c-0.3,0.2-1.4-0.2-1.5-0.5c0.4-0.4-1.1-1.2,0.5-1
			v0.2c1.6-0.2,1.2-1.1,1.3-1.8l-2.1-0.2c1.6-0.8,1.3-2,1-3c-0.3-1-0.7-1.9,0.7-2.4c-0.5-0.4-0.5-0.9-1-1.3h1.1
			c0.3-1,0.2-2.1-0.1-3.2l0.8,0.2c0-0.8-3.3-0.8-3.4-1.5l1.6-0.4c-0.1-1.4,1.1-3-0.6-4.2c0.2,0,0.7,0,0.8,0.2
			c-0.1-0.7,0.7-2.8-1.5-2.1c1.5-0.3,0-1.5-0.9-2l1.1-0.1c-1.5-0.3-1.9-0.3-2.5-1c0.1-0.2,0.8-0.4,0.6,0c0.4-0.8-1.1-0.3-0.8-1.2
			l0.8,0.1c-0.1-0.7-0.4-0.6-1.3-0.8c-0.5-0.3,0-1.4,0.9-1.7c-0.6,0.1-1.5-0.1-1.3-0.6c0.2-0.1,0.5-0.1,0.8,0c0.4-1.4-1.8-1.3-1-2.4
			c0.2-0.1,0.4-0.2,0.6-0.3c0.2,0.5,0.3,1.1,0.4,1.6c1-0.3,0.9-1.1,2.5-0.9c-0.9-0.4-2.9-0.9-2.6-1.8c0.1-0.1,0.2-0.1,0.3-0.2h0.1
			c0-0.2-0.1-0.3-0.3-0.4c0.1-0.2,0.1-0.5,0.1-0.7c0.8-0.4,0.1-1,0.1-1.4c-1,0.4-1-0.1-1.8,0.6c0.1-0.1,0.1,0,0.3,0.2
			c0,0,0.1,0.1,0.2,0.1h-0.1c0.1,0.2,0.2,0.5,0.4,0.9c-0.6-0.1-1.2-0.2-0.7-0.8c-0.7,0.1-1.5,0.1-1.9,0.1c1.3-1,1.7-2.2,2.5-2.7
			c-1-0.9-1.5-2.4-3.7-2.2c-0.4-0.2,0.4-0.6,0.6-0.8c0.3,0.1,0.3,0.3,0.6,0.3c-0.7-0.4-0.9-1.7-2.4-1.2c0.2-1,1.4-0.2,0.7-1.1
			l0.5-0.1c0.5-1.5-0.7-1.9-1.9-2.4c-1.2-0.4-2.2-0.9-1.6-2.7c0,0.2-0.1,0.4-0.3,0.5c-0.2-1.5-1.2-2.6-2.2-3.7
			c-0.5-0.5-0.9-1.1-1.2-1.8c-0.4-0.7-0.6-1.4-0.6-2.2c-0.1-0.9-0.9-0.4-1.8-0.4l0.9-0.8l-1.6,0.1c-1.5-0.3,1.1-3.5-1.4-3.4
			l-0.5,0.7c-0.2-0.5-1.5-1-0.7-1.5c-0.1,0-0.8,0.4-0.6,0l0.5-0.4l-1.7-0.4c-0.3-1.1,2-1.5,1.1-2.8c-0.5-0.3-2.4,0-2.5,0.5
			c0.1,0.4,0,0.9-0.4,1.1l-0.6-0.1c-1.4,1.2-3,2.2-3.2,4l1.4-0.2l-0.5,0.8l-0.5-0.5c-0.4,0.8,0.3,0.5,0.9,0.4
			c-0.2,0.2-0.4,0.6-0.5,0.9l1.8-0.6c-0.5,0.5-1.3,0.7-1.3,1.3c0.9-0.3,1-1.3,1.8-1.2c-0.4,0.8-1,1.2-0.1,1.1
			c-0.2,0.3-0.5,0.5-0.9,0.5c0.7-0.1,0.9,0.6,1.8,0.2c-0.5,1,1.1,0.8-0.3,1.9c0.4-0.2,1.5-0.3,1.8,0c-2,0.8,0.7,1.2-1.2,2.4
			c1.8-0.7,1.7,0.9,3.1,1c-0.1,0-0.5,0.2-0.4,0c0.2,0.5-0.2,0.9-0.3,1.4c1.3-0.8,2.1-0.4,3.1-0.6c-0.9,1.3-1.7,0.7-2.8,1.7
			c1-0.7,1.6,0.2,2.4-0.6c-0.5,0.9-0.2,0.6-1.1,1.5c1.7-1,0.5,0.2,1.7-0.1c-0.5,1.1-1.5,1.1-0.6,1.4
			C209.3,48.9,208.4,48.7,208.4,48.7z M218.7,62.9L218.7,62.9l-0.2-0.3L218.7,62.9z M219.2,64.3c0-0.2-0.1-0.4-0.2-0.6
			c0.4-0.2,0.8-0.2,0.8-0.1C219.6,63.6,219.5,64,219.2,64.3L219.2,64.3z M225.5,58.7c0.2,0.2,0,0.3-0.1,0.5
			c-0.1-0.1-0.2-0.3-0.3-0.4h-0.1C225.1,58.7,225.3,58.7,225.5,58.7z"/>
		<path class="st0" d="M224,58.8c0,0-0.1,0-0.1-0.1c-0.1,0.1-0.1,0.1-0.2,0.2h0.4L224,58.8z"/>
		<path class="st0" d="M162.5,172.7L162.5,172.7c0,0-0.1-0.1-0.1-0.1C162.4,172.7,162.4,172.7,162.5,172.7z"/>
		<polygon class="st0" points="220.3,84.5 220.6,84.5 220.4,84.3 		"/>
		<path class="st0" d="M153.2,171.7c0-0.1-0.1-0.2-0.2-0.2C153.1,171.5,153.2,171.6,153.2,171.7z"/>
		<path class="st0" d="M149.7,172.3l-0.6-0.3C149.3,172.1,149.5,172.2,149.7,172.3z"/>
		<path class="st0" d="M146.9,172.4c0,0.2,0,0.3,0,0.5l0,0V172.4z"/>
		<path class="st0" d="M185.5,153.7c0,0,0-0.1,0-0.1C185.6,153.2,185.6,153.4,185.5,153.7z"/>
		<path class="st0" d="M176.1,162.9c0-0.2,0-0.4,0.1-0.7C175.9,162.2,175.8,162.3,176.1,162.9z"/>
		<path class="st0" d="M195.3,143.4L195.3,143.4C195.3,143.4,195.3,143.4,195.3,143.4L195.3,143.4z"/>
		<path class="st0" d="M176.7,161.9c-0.2-0.1-0.4,0-0.5,0.2c0,0,0,0,0,0.1C176.4,162.2,176.6,162.2,176.7,161.9z"/>
		<path class="st0" d="M135.1,173.6H135c0,0.1,0,0.1,0,0.2L135.1,173.6z"/>
		<path class="st0" d="M135,173.8l-0.1,0.1C134.9,173.9,134.9,173.9,135,173.8z"/>
		<path class="st0" d="M134.5,174.2l0.3-0.3C134.7,173.9,134.6,173.9,134.5,174.2z"/>
		<path class="st0" d="M138.8,173.8v-0.4C138.7,173.5,138.7,173.7,138.8,173.8z"/>
		<path class="st0" d="M139.8,173.5c-0.3-0.1-0.8-0.7-1.1-0.4v0.3C138.8,172.8,139.7,174.2,139.8,173.5z"/>
		<path class="st0" d="M145.3,177.7l-1-0.2c0.2,0.4,0.6,0.9,0.1,1.1C145.9,179.7,144,177.7,145.3,177.7z"/>
		<path class="st0" d="M148.4,177.7c-0.5,0.3,0.1,0.6,0.2,0.9C148.8,178.1,148.8,178,148.4,177.7z"/>
		<path class="st0" d="M169.1,171l0.4,1C169.8,171.7,169.3,171.6,169.1,171z"/>
		<polygon class="st0" points="170.6,164.6 170,164.2 170.2,165.1 		"/>
		<polygon class="st0" points="176,170 175.9,170.2 176.3,169.5 		"/>
		<path class="st0" d="M205.2,147.1l-1-0.8C204.2,146.7,205.2,147.7,205.2,147.1z"/>
		<path class="st0" d="M213.9,133.6c0.6,0.2,1.2,0,0.8-0.5C214.5,133.3,213.9,133.4,213.9,133.6z"/>
		<polygon class="st0" points="230.4,88.6 230.8,88.9 230.5,88.3 		"/>
	</g>
</g>
</svg>
