<svg xmlns="http://www.w3.org/2000/svg" viewBox="0 0 244.58 243.53"><g id="Layer_2" data-name="Layer 2"><g id="Layer_1-2" data-name="Layer 1"><path d="M160.73,184.66c-14.82-10.19-24-28.48-26.34-52.11a181.07,181.07,0,0,0,24.44,1.75c27.76,0,49.79-7.52,64.66-22.27,18.36-18.21,24.91-46.62,18.95-82.16l-14.79,2.49c5.12,30.52,0,54.39-14.72,69s-39.51,20.49-71.76,16.9A72.27,72.27,0,0,0,166.65,81.1a82.17,82.17,0,0,0,2.58-30.91,3.4,3.4,0,0,0-.06-.46c-2.88-17.78-10.84-31.11-23.63-39.6C121.52-5.8,89.39,1.74,88,2.07l3.53,14.58c.27-.07,27.06-6.37,45.67,6,9.12,6.05,14.87,15.9,17.09,29.28A67.52,67.52,0,0,1,152.23,77a57.39,57.39,0,0,1-21.34,30.28A60.82,60.82,0,0,0,111.8,78.74,69.6,69.6,0,0,0,70.29,63.13C40.81,61.87,7.65,78.48,0,118.46l14.73,2.82c6-31.19,31.89-44.16,54.92-43.16,20.2.87,41.68,12.56,47.8,36.64a60.69,60.69,0,0,1-7.48,2.48c-42.68,11.19-58.53,41.18-59.14,65.51-.69,27.71,17.22,52.13,44.57,60.78l4.52-14.31c-21.24-6.71-34.62-24.81-34.09-46.09.71-28.8,25.24-45.42,48-51.38,1.81-.48,3.6-1,5.36-1.63,2.1,30,13.69,53.56,33.08,66.9,9.48,6.52,23.59,12.5,43.47,12.5,13,0,28.54-2.57,46.84-9.25l-5.14-14.09C205.56,197.79,179.05,197.27,160.73,184.66Z"/></g></g></svg>