<svg id="Layer_1" data-name="Layer 1" xmlns="http://www.w3.org/2000/svg" viewBox="0 0 250 250"><defs><style>.cls-1{fill:#231f20;}</style></defs><path class="cls-1" d="M61.17,96h0s0,0,0,0Z"/><path class="cls-1" d="M65.66,90.31l0,0h0Z"/><path class="cls-1" d="M59.17,85.45h0Z"/><path class="cls-1" d="M215.49,125.2c0-.07-.14-.09-.17-.11l.28-.59-1.13-.18v-2.59c-.57,0-.59,0-.67-.51-.06-.35-.28-.37-.54-.39l-1.51-.11v-.55c0-.54-.09-.62-.66-.62s-1,0-1.45,0a7.72,7.72,0,0,0-.83.06c-.5,0-1,.11-1.09.77a1.45,1.45,0,0,0-1.48-.28l-.14-.75a1.26,1.26,0,0,0-1.24-.14,4.1,4.1,0,0,1-1.16.21,4.24,4.24,0,0,0-1.94.44,1.18,1.18,0,0,1-.09-.23c-.12-.82-.43-1-1.21-.73a2.57,2.57,0,0,1-.61.14c-.5,0-1,0-1.52.09s-.83.28-1,.94a.75.75,0,0,1-.1.34,1.87,1.87,0,0,1-.35.26c-.07-.11-.18-.21-.19-.33a2.59,2.59,0,0,1,0-1c.08-.32.06-.6-.21-.73a1.18,1.18,0,0,0-.84-.08,5,5,0,0,1-1.06.2,5.48,5.48,0,0,0-2.41.58c-.08.06-.21,0-.33,0,0-.43,0-.5-.31-.6a2.07,2.07,0,0,0-1.53,0c-.24.09-.51.14-.81.23-.15-.48-.28-.86-.43-1.32a1.9,1.9,0,0,0-1.37-.14c-.59.21-1.22.28-1.82.45-.41.12-.92.17-1.13.61a1.14,1.14,0,0,1-1.15.73c-.17,0-.35.11-.53.13a5.8,5.8,0,0,1-.59,0v-1.08c-.73-.36-1.38,0-2,0a3.38,3.38,0,0,0-.62-.47.94.94,0,0,0-1,.08,2,2,0,0,1-1.31.18l-.2-.5a5.1,5.1,0,0,0-1.56,0,4.39,4.39,0,0,1-2.73.27.4.4,0,0,0-.32,0,4.86,4.86,0,0,1-2.23.37c-.34,0-.68-.11-1-.08a4.92,4.92,0,0,0-1,.33c-.09-.1-.18-.28-.28-.28-.44,0-.85-.28-1.32-.07a8.32,8.32,0,0,1-1.39.44,1,1,0,0,1-.6,0c-.13,0-.2-.27-.28-.4a5.51,5.51,0,0,0-1-.1c-.34,0-.67.24-1,.27-.49,0-1,.35-1.48.13-.29-.61,0-1.33-.37-1.86a3.41,3.41,0,0,0-1.25,0,6.75,6.75,0,0,1-1.75.41c-.2,0-.41.06-.61.11-.61.17-.61.19-.63.82a1.84,1.84,0,0,1-.08.67,2.59,2.59,0,0,1-2.09.42,1.5,1.5,0,0,0-1.51-.13,2.94,2.94,0,0,1-1.36.3c-.4-.53.13-1.25-.38-1.73a8.22,8.22,0,0,0-1.23.07c-.27.06-.49.35-.76.4-.64.12-1.3.15-2,.22l-.35-1.44-1-.18c-.63.15-1.16.3-1.69.4-1.24.24-2.34.93-3.6,1.12a.83.83,0,0,1-.8-.15,1.12,1.12,0,0,0-1.33-.18c-.25.13-.6.46-.73.38-.43-.24-.83.11-1.22-.06a1,1,0,0,0-.43-.07l63.47-50.86-5-6.25L144,101.24c1.14-2.95,2.36-5.87,3.48-8.83,1.38-3.63,2.69-7.29,4-11a59.86,59.86,0,0,1,2.59-6.32c1.76-3.53,3.68-7,5.71-10.34,1.8-3,3.53-6,5.33-9,1.48-2.45,3-4.87,4.5-7.31a18.55,18.55,0,0,1,2.13-2.85c.54-.6,1-1.25,1.55-1.89.08-.1.2-.27.16-.36-.21-.54.11-1.1-.08-1.69-.5,0-.54-.5-.74-.84-.94.18-.74-.78-1.16-1.12-.39.14-.65-.14-.93-.32a8.7,8.7,0,0,1-.86-.59.71.71,0,0,0-.76-.08c-.08-.18-.1-.36-.2-.44-.32-.24-.42.27-.68.28-.25-.92-.27-.93-.93-.82-.18-.19-.33-.38-.51-.54s-.38-.23-.46-.39c-.17-.32-.44-.15-.66-.18,0-.7-.68-.8-1-1.18-.17-.18-.51-.25-.69-.51a.39.39,0,0,0-.28-.18c-.33,0-.49-.22-.7-.38a3.39,3.39,0,0,0-2.27-1c-.69,0-.72-.07-.56-.79,0,0,0-.08-.09-.18a2.89,2.89,0,0,0-1.31.75c-.22.24-.4.51-.63.74a23.28,23.28,0,0,0-2.86,3.41c-.84,1.23-1.58,2.52-2.35,3.79L150,45.67c-.9,1.49-1.83,3-2.71,4.47-1.1,1.87-2.15,3.76-3.24,5.63A91.93,91.93,0,0,0,137.17,69a3.42,3.42,0,0,1-.21.43,9.1,9.1,0,0,0-.49,1c-.41,1.15-.76,2.34-1.2,3.48-.68,1.8-1.42,3.58-2.13,5.37a11.25,11.25,0,0,1-.69,1.74,6.82,6.82,0,0,0-.62,1.53c-.22.64-.38,1.29-.58,1.94a4.77,4.77,0,0,1-.27.56,2.53,2.53,0,0,1-.09-.74c0-1.93-.07-3.86-.13-5.79,0-1.52-.09-3-.19-4.54-.14-2-.34-3.94-.49-5.91-.1-1.37-.13-2.75-.21-4.12-.11-1.81-.25-3.62-.36-5.43-.07-1-.1-1.95-.17-2.93-.11-1.69-.26-3.38-.35-5.08s-.1-3.49-.17-5.23-.18-3.26-.25-4.88c0-.88,0-1.77,0-2.65,0-1.65,0-3.3.07-5a4.62,4.62,0,0,1,.33-1.9,1.29,1.29,0,0,0-.68-1.57,4.4,4.4,0,0,0-2.25-.06,8.42,8.42,0,0,1-1.37.25,5.67,5.67,0,0,0-2.58.2,5.66,5.66,0,0,1-2.92,0,2.21,2.21,0,0,0-1.48,0,2,2,0,0,1-1.26.17.6.6,0,0,0-.34.07,2.16,2.16,0,0,1-1.48.16.67.67,0,0,0-.8.28,3.22,3.22,0,0,0-.45.91c-.17.72-.28,1.46-.39,2.19a15,15,0,0,0-.16,3.54c.18,2.16.36,4.32.5,6.48.06.92,0,1.85,0,2.77,0,.68.09,1.35.12,2s0,1.26,0,1.89c.06,1.69.13,3.39.19,5.09.05,1.09.08,2.18.12,3.27.06,1.24.11,2.47.19,3.7s.13,2.32.24,3.47c.15,1.58.34,3.14.5,4.72.08.83.13,1.66.21,2.5.15,1.64.33,3.28.45,4.93.09,1.18.11,2.37.16,3.55.09,2.21.21,4.42.26,6.63.07,2.88.1,5.77.14,8.65,0,1.51,0,3,0,4.54s.06,2.88.12,4.32a4.35,4.35,0,0,0,.51,2.08,16.6,16.6,0,0,1,.85,1.75,28,28,0,0,1,.83,3.74,7,7,0,0,1,.18,2.36c0,.55-.11,1.11-.17,1.66a4,4,0,0,0,.23,2.13c.25.56.51,1.1.79,1.64l-.86.7c-.27-.48-.52-1-.75-1.48a7.11,7.11,0,0,1-.58-4.14,6.13,6.13,0,0,0,.13-1.53c-.08-.9-.25-1.79-.4-2.68a1.46,1.46,0,0,0-.18-.45,3.38,3.38,0,0,1-.24-.51,7.22,7.22,0,0,1-.58-1.91c0-.8-.66-1.15-1-1.69-.81-1.31-1.69-2.57-2.59-3.81-.68-.94-1.47-1.81-2.13-2.77-.89-1.27-1.72-2.6-2.55-3.92a12.93,12.93,0,0,1-.92-1.72c-.44-1-.78-2-1.25-3-1.35-2.79-2.74-5.55-4.11-8.33a4.67,4.67,0,0,0-.5-1,12.61,12.61,0,0,1-1.25-2,32,32,0,0,1-2.74-5.87c-.45-1.25-.9-2.49-1.4-3.72a11.42,11.42,0,0,0-1.42-3.07,1.58,1.58,0,0,1-.19-.44c-.3-.69-.6-1.37-.88-2.06s-.51-1.29-.73-1.95-.35-1.4-.61-2.06c-.5-1.28-.75-2.63-1.31-3.9a18.36,18.36,0,0,1-1-3.27c-.37-1.56-.66-3.14-1-4.71-.12-.59-.21-1.18-.37-1.76-.59-2.2-1.2-4.4-1.61-6.65a25.5,25.5,0,0,0-1.53-5.63A6.43,6.43,0,0,0,83.74,34a2.77,2.77,0,0,0-2.06-.88c-.25,0-.54.06-.81-.24L82,32.73v-.81c-.21-.06-.45-.06-.59-.19a.78.78,0,0,1-.28-.57c0-.14.25-.29.42-.38a.73.73,0,0,1,.41,0l1.54.44a.28.28,0,0,0-.08-.11,1,1,0,0,0-.16-.12,5.43,5.43,0,0,0-3.88-.73,4.58,4.58,0,0,0-3.28,2.24,6.63,6.63,0,0,0-.86,2.7c-.11,1.09-.26,2.24.58,3.19a2.76,2.76,0,0,1,.34.9,3.5,3.5,0,0,0,.14.46,17.26,17.26,0,0,1,1.11,3.44c.33,1.47.79,2.91,1.21,4.37.32,1.13.68,2.26,1,3.41.38,1.36.7,2.74,1.11,4.1.66,2.23,1.44,4.42,2,6.67a38,38,0,0,0,2,5.51c.76,1.74,1.56,3.48,2.34,5.22.12.24.25.48.4.76.22-.35.42-.28.54,0,.38.85.74,1.71,1.07,2.57.09.23,0,.53.08.76.26.67.56,1.33.86,2,1.07,2.28,2.62,4.3,3.53,6.66,0,.13.15.33.23.33.68,0,.75.58,1,1,.33.56.65,1.13.95,1.7A11.34,11.34,0,0,1,96.57,90a6.43,6.43,0,0,0,.75,1.48c.49.77,1,1.51,1.44,2.31.27.54.61,1,.88,1.56a10.48,10.48,0,0,0,1.52,2c.63.72,1.24,1.45,1.84,2.19.19.22.34.48.48.67-.21.47-.59.46-.94.54.11.69.7,1.18.66,1.94a2.74,2.74,0,0,1-.43-.17c-.87-.58-1.76-1.13-2.6-1.75a23.77,23.77,0,0,1-2.73-2.16,20.89,20.89,0,0,0-3.12-2.45c-1.45-1-2.83-2-4.23-3a4.67,4.67,0,0,0-1-.57c-1.28-.54-2.57-1.05-3.86-1.56a20.44,20.44,0,0,0-4.07-1.62c-1.12-.18-2.21-.59-3.33-.69a4.81,4.81,0,0,1-2-.69A9.41,9.41,0,0,0,73,86.94a3.24,3.24,0,0,1-.52-.19L71,86.16c-.65-.27-1.3-.51-1.92-.81s-1.51-.85-2.28-1.23-1.43-.64-2.16-1-1.21-.48-1.81-.72l-.51-.21c-.37-.18-.76-.33-1.12-.53a7.38,7.38,0,0,0-1.6-1,20.46,20.46,0,0,0-3.55-.62,13.43,13.43,0,0,0-2.68-.31.13.13,0,0,1-.11,0c-.27-.45-.77-.52-1.19-.67A20.25,20.25,0,0,1,49.46,78a6.71,6.71,0,0,0-.84-.34A15.87,15.87,0,0,1,45.12,76c-.48-.31-1-.58-1.57-.92.18.38.31.67.46.94a.69.69,0,0,0,.25.23l1,.6c.58.36,1.18.69,1.75,1.11a22,22,0,0,0,2.61,1.44c.36.2.86.4,1,.71.18.48.44.44.8.45a1.09,1.09,0,0,1,.52.16,3,3,0,0,0,1.55.57.79.79,0,0,1,.5.24c.53.62,1.47.55,2,1.19.06.07.22.07.33.09a2.7,2.7,0,0,1,1.56.68c1-.18,1.67.44,2.42.74,0,.33,0,.63-.06.88l-.95.32c.49.28.9,0,1.33-.14,0-.27.07-.51.12-.83l2.12,1.19s0,.14.07.22h0a1.12,1.12,0,0,1,1,.64c.16.31.41.43.72.17-.34.52-.17.56-1.15.18.1.19.21.47.37.5a1.36,1.36,0,0,0,.85-.13c.25-.15.19-.44-.07-.63.59.2,1.27.29,1.31,1.15l.63-.15v.3l-1,.27c-.25-.14-.47-.52-.88-.26a.13.13,0,0,1-.13,0c-.31-.35-.75-.16-1.09-.32-.16.26-.3.48-.45.69l-.15,0,.08-.83-.69-.45c-.15.3-.26.53-.39.78l.48.1c-.36.44.31.56.11.92l1.09-.37c.21.27.29.47.05.71l-.55-.17c-.37.5-.37.51,0,.79l0,0,0,0h0l0,0,.9-.35a1.11,1.11,0,0,0,1.23,0,.6.6,0,0,1,.63,0c-.17.21-.31.38-.45.57l.39.4c.18.06.41.07.51.19a1.54,1.54,0,0,1,.22.61s-.17.1-.27.15L66,90.75c-.33.11-.72,0-.67.56.39,0,.8,0,1.19.35l-.63.07.18.4-.44.36-.91-.72H63.42a2.55,2.55,0,0,1,.08-.25,1.58,1.58,0,0,1,.12-.15c.5.19.5.19.66-.13a1.51,1.51,0,0,0-.18-.09l-.34-.06c-.46,0-.56,0-.7.51-.09.32-.19.64-.28,1,.55.09.33.63.75,1l-1.15.12c-.05,0-.1.07-.18.13l.43.36h-.28c-.08.18-.15.37-.23.58h-.56v.08l1.12.31-.7.52.63.36a1.45,1.45,0,0,1-1.4,0c.23.58.82.47,1.33.58-.5.47-1,.25-1.56.37l.88.38c-.45.25-.62.71-1.12.82l-.2-.72-.8.11c-.09.33.43.49.08.77-.66-.51-1.28-1-1.91-1.49a1.58,1.58,0,0,0-.44-.19c.31-.61.3-.67-.18-.8-.05.22-.1.45-.17.71l.34,0c-.11.25,0,.39.22.52.39.3.76.62,1.17.88s.77.74,1.37.44a.27.27,0,0,1,.19,0c.63.35,1.27.69,1.87,1.08a6.46,6.46,0,0,0,2.48,1,9.27,9.27,0,0,1,2.26.64,17.55,17.55,0,0,0,3.35,1.18,20.88,20.88,0,0,1,3.43.92c1.39.58,2.69,1.38,4,2a8.33,8.33,0,0,1,2.64,2,8.31,8.31,0,0,0,3.41,2.25,24.24,24.24,0,0,1,3.94,2.07,9,9,0,0,0,1.54.79,4.08,4.08,0,0,1,1.38.77,6.48,6.48,0,0,0,3,1.44c.71.14,1.44.14,2.15.24a3.33,3.33,0,0,1,.94.24,10.72,10.72,0,0,1,3.81,3.3,2,2,0,0,1,.14.26c-.08.07-.17.19-.22.18a.77.77,0,0,0-1,.38c-.07.1-.29.21-.37.17-.45-.23-.83,0-1.29.22-.05-.47-.1-.87-.15-1.28-.63-.11-1.23-.28-1.72.31a.49.49,0,0,1-.38.11,4.15,4.15,0,0,0-1.73.41.53.53,0,0,0-.44.62c0,.5.11,1,.15,1.51,0,.2,0,.41,0,.61a2.08,2.08,0,0,0,0,.55,6.43,6.43,0,0,1,0,2.1c0,.21-.15.27-.36.15a1.05,1.05,0,0,1,0-.19c-.1-1.36-.19-2.73-.3-4.1-.09-1-.23-1.08-1.13-1.09a1.31,1.31,0,0,0-.5.15,4.14,4.14,0,0,1-.55.29c-.55.13-1.11.22-1.71.33a4.13,4.13,0,0,1-.15-.5c0-.25,0-.56-.33-.62s-.79-.4-1.18-.09c-.69.53-1.55.45-2.28.82-.11-.41-.21-.74-.3-1.08-.59-.07-1.13-.23-1.61.23a.74.74,0,0,1-.54.23c-.67-.2-1.13.23-1.65.48a.58.58,0,0,0-.33.81,1.09,1.09,0,0,1,0,1c-.23-.58-.24-.57-.91-.54a1.64,1.64,0,0,1-.44-.15c-.12.13-.21.24-.31.33-.36.27-.63.21-.86-.18a1,1,0,0,1-.14-.31.7.7,0,0,0-.63-.56c-.58,0-.76-.32-.8-.83-.56.13-1.16-.14-1.58.38a.47.47,0,0,1-.19.08l-1.83.39c-.08-.32-.18-.64-.25-1s-.23-.66-.68-.7a1.25,1.25,0,0,0-1,.22c-.47.36-.76.3-1.24-.1-.06-.06-.16-.14-.24-.12-.43.06-.93-.08-1.29.3a1,1,0,0,1-1,.24l-.24-.93a4,4,0,0,0-1.36.34,2.61,2.61,0,0,1-1.32.47c-.15,0-.31.07-.49.11-.25-.23-.48-.59-.91-.26-.46-.21-.71.21-1,.36a5,5,0,0,1-.48.21c-.38.1-.78.13-1.14.26-.86.31-1,.72-.94,1.67.06.59.06,1.2.07,1.8a1.62,1.62,0,0,1-.12.43,22.45,22.45,0,0,1-.58-2.87c-.08-.55-.09-1.11-.16-1.66s-.23-.56-.7-.52a2.89,2.89,0,0,0-1.27.51,1.37,1.37,0,0,1-.62.2c-.41.06-.87,0-1.23.25a2.86,2.86,0,0,1-1.54.64,7.35,7.35,0,0,0-1.39.47c-.07-.28-.15-.51-.19-.74s0-.42,0-.63-.17-.4-.42-.36c-.41.08-.86,0-1.2.36a1,1,0,0,1-1,.35.28.28,0,0,0-.25.07c-.32.42-.76.3-1.26.36,0-.43,0-.82-.06-1.21s-.07-.57-.38-.55a2.53,2.53,0,0,0-1,.29,9.31,9.31,0,0,1-2,.77,1.13,1.13,0,0,0-.94,1.49,15.54,15.54,0,0,1,.29,1.77,4.72,4.72,0,0,1,0,2c-.15-.61-.22-1.22-.32-1.83q-.3-1.89-.63-3.78c0-.15-.18-.39-.29-.4a1.85,1.85,0,0,0-1,.12,4.38,4.38,0,0,1-1.7.68c-.29-.6-.29-.6-.89-.4-.06,0-.15,0-.19,0-.33-.23-.51.1-.74.2s-.58.34-.89.49a.65.65,0,0,1-.83-.39c-.14-.53-.25-1.06-.38-1.64-.13,0-.3-.14-.43-.1-.45.15-1,.05-1.34.48a.92.92,0,0,1-.58.32,3.78,3.78,0,0,0-1.62.69.74.74,0,0,0-.39.68,1.27,1.27,0,0,1-.25.75,1.33,1.33,0,0,1-.75.39,4.09,4.09,0,0,0-1.45.58.9.9,0,0,0-.47.94c.06.53.09,1.07.18,1.59.07.36.07.63-.33.78a.36.36,0,0,0-.25.51l.59.2a1.35,1.35,0,0,0-.16,1.58.33.33,0,0,1,0,.14c-.14.87-.24,1.75-.41,2.61s-.51,1.77-.65,2.67a13.55,13.55,0,0,0,0,2.12l.61.44c.36-.08.63-.12.89-.2a11.53,11.53,0,0,0,2.37-1.15.69.69,0,0,0,.2-.42,3.38,3.38,0,0,0,0-.55.64.64,0,0,1,.56-.68,12.42,12.42,0,0,0,1.55-.55c.65-.24.8-.16.83.51s0,1.11,0,1.67c.64.26,1.1-.22,1.65-.26l.61,2c.14.47.38.68.82.53a12.18,12.18,0,0,0,3.19-1.15,1.73,1.73,0,0,1,.65-.17,7.27,7.27,0,0,0,.83-.09,13.3,13.3,0,0,0,2.89-.91c.51.76.62.8,1.5.53l.33-.12,2.25-.67c.21.66.41,1.29.6,1.92a7.27,7.27,0,0,0,3.28-.77c1-.45,2.13-.64,3.16-1a1,1,0,0,1,.34,0c.13.37.25.72.38,1.07s.3.54.65.41a16.93,16.93,0,0,0,3.11-1.11,1.9,1.9,0,0,1,.42-.13,6.17,6.17,0,0,0,.21.61.71.71,0,0,0,1,.55c.47-.1.94-.22,1.41-.35s.61-.19.88.41.42.68,1,.61a11.29,11.29,0,0,0,1.5-.28,5.81,5.81,0,0,0,2.65-1.25,1,1,0,0,1,.9-.27,3.84,3.84,0,0,0,1.9-.31c.25-.08.51-.13.75-.19a1.79,1.79,0,0,1,.32,1.29c0,.74.19.92.92.75a19.92,19.92,0,0,0,2.54-.72,2.91,2.91,0,0,0,1.59-1.07.74.74,0,0,1,.92-.31,2.38,2.38,0,0,0,1.3-.05c.46-.09.9-.25,1.36-.32a4.26,4.26,0,0,1,.87,0,5.74,5.74,0,0,0,1.09,0c.57-.1,1.11-.28,1.74-.44.1.33.19.64.29.94s.29.85.43,1.28a4.57,4.57,0,0,0-1-.12,5,5,0,1,0,5,5,5.39,5.39,0,0,0-2.06-4l.57-.1c.38-.09.76-.21,1.11-.32a5.13,5.13,0,0,0,.51.63,1.36,1.36,0,0,0,1.37.31,13.23,13.23,0,0,0,3.13-.92c.4-.21.79-.41,1.24-.07a.87.87,0,0,0,.54,0A17.61,17.61,0,0,0,100,134c.74-.25,1.51-.43,2.27-.62a1.73,1.73,0,0,1,.47,0c-.09.16-.13.26-.19.35l-1.09,1.61L42.38,182.68l5,6.24,39.46-31.61c-2.23,3.18-4.46,6.37-6.72,9.54S75.71,173,73.52,176c-2,2.74-3.9,5.51-5.83,8.27-1.44,2.06-2.91,4.11-4.29,6.2s-2.76,4.37-4.13,6.56c-1.48,2.37-2.94,4.75-4.44,7.1-.66,1-1.42,2-2.11,3.05a4.6,4.6,0,0,0-.59,1.44c-.14.52-.54,1-.43,1.58l.87.83.9-.12c0,.28,0,.51.05.74a2.64,2.64,0,0,1,3,.93c.38-.41.7-.19,1.06,0,.53.31,1.1.54,1.65.82a.57.57,0,0,1,.22.15c.16.23.27.53.62.47s.51-.12.8-.19c.18.28.38.61.59,1a.77.77,0,0,1,1.14.19,1.82,1.82,0,0,1,.33.53.88.88,0,0,0,.92.63,1.62,1.62,0,0,1,1.09.36c.43.36,1,.92,1.62.37l.65.38v.38c.75,0,.75,0,1.09-.55.19-.31.41-.62.61-.93,1.57-2.42,3.26-4.78,4.7-7.28,2.1-3.63,4.25-7.23,6.63-10.68,1.36-2,2.75-3.93,4.13-5.89,2.13-3,4.24-6.08,6.38-9.09,1.91-2.7,3.89-5.35,5.79-8.05,2.07-2.93,4.09-5.89,6.12-8.85,1.62-2.36,3.26-4.71,4.84-7.1,1.76-2.68,3.46-5.41,5.21-8.1,1.14-1.74,2.31-3.44,3.48-5.16.09-.14.22-.26.33-.4l.15,0c0,.41.06.81,0,1.22,0,1.65-.12,3.3-.18,5,0,.88,0,1.76-.09,2.64-.08,1.37-.22,2.74-.31,4.11s-.09,2.46-.15,3.7c0,.79-.11,1.58-.11,2.37,0,2.19,0,4.38,0,6.57,0,1.81.1,3.63.16,5.45,0,1.14.06,2.28.13,3.42.09,1.67.25,3.34.31,5s0,3.4,0,5.1.18,3.53.23,5.3c.05,2,.05,4,.06,5.94,0,2.49.05,5,0,7.47s-.08,5.13-.23,7.69a41.62,41.62,0,0,1-.59,4.7,3.27,3.27,0,0,0,.1,1.76c.12.31.29.67.65.74a10.19,10.19,0,0,0,2.52.33,3.19,3.19,0,0,1,.61.08,6.5,6.5,0,0,0,1.36.21,3.71,3.71,0,0,0,2.08-.37,1,1,0,0,1,1.4.47,1.39,1.39,0,0,0,1.52.82c.28,0,.56,0,.84,0a.82.82,0,0,0,.44-.11,2.27,2.27,0,0,1,1.44-.34,1.7,1.7,0,0,0,.86-.23,3.48,3.48,0,0,1,1.23-.43c.46-.1.58-.25.61-.72,0-.14,0-.28,0-.42,0-1.18-.06-2.36,0-3.55,0-2.07.08-4.14.08-6.22,0-4.07,0-8.15,0-12.23l-.09-13.35c-.05-5.94-.09-11.89-.15-17.83,0-3.47-.09-7-.13-10.42,0-.18,0-.37,0-.55l.15,0a18.33,18.33,0,0,1,1.39,2.72,12.64,12.64,0,0,0,.87,1.82c.6,1.1,1.24,2.18,1.84,3.28.86,1.62,1.67,3.26,2.55,4.87s1.64,2.92,2.48,4.37c.55.95,1.12,1.89,1.71,2.8s1.4,2.08,2.09,3.13c.41.63.79,1.26,1.17,1.9s.86,1.6,1.32,2.38c.74,1.22,1.51,2.41,2.26,3.61.45.74.86,1.5,1.36,2.2,1.19,1.63,2.43,3.24,3.65,4.86a7.67,7.67,0,0,1,1.12,1.92c.53,1.43,1.12,2.85,1.69,4.27,0,.11.05.23.08.34a14.75,14.75,0,0,0,1.82,4.07A12.31,12.31,0,0,1,160.2,210a18,18,0,0,0,1.26,3.4,1.35,1.35,0,0,1,.12,1.11,2.24,2.24,0,0,1-.34-.07.34.34,0,0,0-.5.22c-.05.18,0,.52,0,.56.39.17.37.55.53.85a2.77,2.77,0,0,0,.83,1.26c-.05-.42-.08-.74-.12-1.16.25.33.44.59.64.84a5.51,5.51,0,0,0,7.69,1,3.19,3.19,0,0,0,1.42-2.74,4.79,4.79,0,0,0-.62-1.9c-.28-.67-.73-1.28-1.07-1.94a30.07,30.07,0,0,0-1.86-3.26,19.7,19.7,0,0,1-2.36-3.68c-.38-.95-.82-1.87-1.24-2.8-.5-1.1-.95-2.23-1.54-3.28a18,18,0,0,0-1.64-2.25,34,34,0,0,0-3.48-3.72,21.16,21.16,0,0,1-2.19-2.35,20.37,20.37,0,0,1-3-5.94,24.42,24.42,0,0,0-1.5-3.3,30.3,30.3,0,0,0-3.11-4.36c-.34-.44-.71-.87-1-1.33a26.85,26.85,0,0,1-2.6-5.94c-.48-1.38-1-2.75-1.61-4.09-.7-1.6-1.5-3.15-2.24-4.73s-1.45-3.23-2.19-4.83c-.32-.7-.66-1.39-1-2.06-.79-1.48-1.61-2.94-2.41-4.41-.15-.29-.27-.59-.42-.88-.43-.8-.91-1.57-1.28-2.39A21.83,21.83,0,0,1,132,142c-.36-1.48-.91-2.92-1.41-4.37-.34-1-.72-2-1.12-2.92a17.06,17.06,0,0,0-2.4-3.65,6.64,6.64,0,0,0-.74-.84c-.87-.81-1.77-1.59-2.64-2.39l1-.8c1.06.87,2.17,1.7,3.27,2.52a4.76,4.76,0,0,1,1.48,1.74c.7,1.47,1.3,3,2,4.48a3.54,3.54,0,0,0,.36.53,7.07,7.07,0,0,0,.23,1.13,13.33,13.33,0,0,1,.63,1.53c.3,1.45,1.11,2.77,1,4.33.55,0,.84.42,1.19.73a9.1,9.1,0,0,0,1.5,1.22c1.45.8,2.79,1.76,4.31,2.43s2.85,2.16,4.34,3.16a3.55,3.55,0,0,1,.55.7,2.82,2.82,0,0,0,.36.33c.32.23.64.47,1,.67a5,5,0,0,0,2.07.76c.23,0,.44,0,.64.16s.35.12.43-.07c-.36-.34-.7-.67-1.06-1s-.84-.89-1.55-.65c-.11-.44.13-.46.42-.47a2.15,2.15,0,0,0,1.73-.85,3.09,3.09,0,0,0,.73-2.72c-.12-.49-.31-1-.46-1.46a1.45,1.45,0,0,1-.14-.59.86.86,0,0,0-.29-.74,12.46,12.46,0,0,0-2-1.88c-.78-.64-1.49-1.35-2.32-1.95a21.75,21.75,0,0,0-2.08-1.61c-.09-.05-.14-.18-.21-.27a2.77,2.77,0,0,0-1.24-1.08c-.18-.06-.31-.27-.45-.42a5.22,5.22,0,0,0-2.16-1.28c.43-.95-.2-1.63-.68-2.38.71-.12,1.34-.24,2-.32a.73.73,0,0,1,.54.2,1.66,1.66,0,0,0,1.46.5l.82-.11a10,10,0,0,0,2.21-.41,9.87,9.87,0,0,1,2.05-.34,3.56,3.56,0,0,0,.73-.19,7.4,7.4,0,0,1,3.08-.47,6,6,0,0,0,1.79,0c.58-.12,1.18-.15,1.79-.23.07.25.13.42.17.6.16.64.4.86,1.07.86s1.1-.08,1.66-.14c.22,0,.41,0,.52.23a.79.79,0,0,0,.82.4,11.35,11.35,0,0,0,3.23-.45,1.8,1.8,0,0,0,.9-.5,1.16,1.16,0,0,1,1.34-.3,5,5,0,0,0,2.4.14,8.05,8.05,0,0,1,1-.07,10.09,10.09,0,0,0,3.86-.48,1.83,1.83,0,0,0,.7-.41.9.9,0,0,1,1-.34,2.84,2.84,0,0,0,.59,0,1,1,0,0,0,1.19.67c.56,0,1.11-.08,1.66-.11.72,0,1.44,0,2.15-.13a.94.94,0,0,1,.88.27,1.25,1.25,0,0,0,.56.37,6.36,6.36,0,0,0,1.38.06,9.51,9.51,0,0,0,2.8-.43,1.86,1.86,0,0,1,.48-.05,5.78,5.78,0,0,0,1.48-.23,3.88,3.88,0,0,1,2.11-.26c.25,0,.51-.06.77,0a2.36,2.36,0,0,1,.93.13,2.64,2.64,0,0,0,1.43.22l1.39-.1a1,1,0,0,0,1.12.69c.25,0,.51,0,.76-.06a1.22,1.22,0,0,1,1.24.42.86.86,0,0,0,.54.25,19.15,19.15,0,0,0,5.05-.22,1.85,1.85,0,0,1,.62,0c.89.12,1.78.28,2.67.36a12.41,12.41,0,0,0,2.36,0c.53-.05,1.16,0,1.49-.41a5,5,0,0,0,.89.28,15.39,15.39,0,0,0,2.63,0c.29,0,.58,0,.85,0,.18-1.64.34-3.18.51-4.76a7.59,7.59,0,0,1,1-.08.57.57,0,0,0,.68-.53c0-.13.08-.27.09-.4.06-.77.14-1.54.15-2.31C215.82,125.63,215.62,125.41,215.49,125.2Zm-87-50.65h0l0-.11ZM86.91,101.06h0c0-.06,0-.14,0-.18S86.91,101,86.91,101.06Zm.13,3.69Zm-.16-3.67h0l-.48.11Zm-5.82-.54-.39-.35.39.35Zm.89.72c0-.28-.21-.38-.44-.46.23.08.42.18.44.46Zm-4.3-5.91a.16.16,0,0,1-.08-.09A.16.16,0,0,0,77.65,95.35Zm4.31,5.9-.33.58h0ZM80.72,92.6c-.27,0-.36.13-.35.38h0C80.36,92.73,80.45,92.55,80.72,92.6Zm-.38.39h0c-.15,0-.3.06-.32.22C80,93.05,80.19,93,80.34,93Zm-2.51-1h0c-.31-.28-.63-.56-.93-.86C77.19,91.42,77.51,91.7,77.83,92Zm-11,4.94h0l.44-.24Zm6.2.67.26,0-.26,0Zm-3.83-6h0Zm0-.62c.08,0,.15-.11.25-.29h0C69.3,90.91,69.23,91,69.15,91Zm-.28-.32h0l.35-.3ZM68,89.05a.66.66,0,0,0,.24,0h0A.66.66,0,0,1,68,89.05ZM66.76,96.6c.06,0,0,.2.06.31h0C66.8,96.8,66.82,96.63,66.76,96.6ZM71.31,100l.42.21h0Zm.43.21-.22-.7.22.7Zm-8.38-3.82h0c.32.08.64.16,1,.22C64,96.54,63.68,96.45,63.36,96.38Zm0,0h0l-.06.4Zm22.18,8a.37.37,0,0,0,.09-.57h0A.36.36,0,0,1,85.51,104.42Zm.11-.59h0c.15,0,.29,0,.38-.12C85.91,103.88,85.77,103.87,85.62,103.83Zm48.47,31.44h0l-.42,0Zm5.36,3.91s0-.05,0-.08h0S139.46,139.16,139.45,139.18Z"/><path class="cls-1" d="M209.73,162.65a7.19,7.19,0,0,0-2.28-3,1.81,1.81,0,0,0-.48-.29c-.63-.28-1.26-.57-1.91-.81a1.42,1.42,0,0,0-.87-.14,1.64,1.64,0,0,1-1.38-.27c-.63-.38-1.24-.81-1.89-1.15a5.62,5.62,0,0,0-2.91-.83,4,4,0,0,1-1.1-.06,1.58,1.58,0,0,1-.7-.39c-.39-.34-.68-.84-1.13-1.06A10.14,10.14,0,0,0,193,154c-.63-.15-1.28-.22-1.92-.33a10.23,10.23,0,0,1-3.4-1.2c-.78-.45-1.52-1-2.28-1.46s-1.31-.89-2-1.28a11.4,11.4,0,0,0-3.46-1.26,12.19,12.19,0,0,1-2.15-.58,16.6,16.6,0,0,0-3.93-.9,3.73,3.73,0,0,0-1.28-.21c-.82.19-1.37-.51-2.15-.48-.4,0-.82-.42-1.24-.63-.16-.08-.36-.22-.51-.18-.36.08-.61-.16-.88-.19a2.85,2.85,0,0,1-1.05-.36.42.42,0,0,0-.38,0c-.29.21-.45.05-.67-.13a2.5,2.5,0,0,0-1.93-.62,1.58,1.58,0,0,1-1.67-.71l-.52.18a2.33,2.33,0,0,0-.52-.29,16.47,16.47,0,0,0-1.84-.6c-.34-.05-.65-.26-1-.34-.63-.16-1.26-.27-1.89-.41-.12,0-.22-.16-.34-.23a1.59,1.59,0,0,0-1.36-.23,7.39,7.39,0,0,0,.68.48,7.49,7.49,0,0,0,1.66.86,13.77,13.77,0,0,1,3.57,1.3,1.83,1.83,0,0,0,.33.11c.33.12.66.21,1,.35.86.41,1.71.84,2.56,1.26a8.76,8.76,0,0,1,1.3.65,1.83,1.83,0,0,0,.73.35c.54.1,1.07.22,1.6.35s.88.63,1.46.6c.05,0,.1.1.16.13l.82.36c.54.22,1.1.39,1.62.65a10.4,10.4,0,0,0,2.59,1,4.13,4.13,0,0,1,.45.17A14.65,14.65,0,0,0,178,151a4,4,0,0,1,1.59.47,2.65,2.65,0,0,0,1.75.35,1.6,1.6,0,0,1,.47.08,13.78,13.78,0,0,1,3.3,1.48,24.61,24.61,0,0,1,2.29,1.4,7.94,7.94,0,0,0,1.65,1.13c.65.22,1,1.05,1.82.85,0,0,.09,0,.12.06a7.72,7.72,0,0,0,1.95,1.12,1.79,1.79,0,0,0,.94.19,4.22,4.22,0,0,0,1-.36c-.38-.1-.64-.15-.89-.23a10,10,0,0,1-1.36-.49c-.8-.42-1.56-.9-2.34-1.36a2.34,2.34,0,0,1-.27-.2l.08-.15c.44.18.88.37,1.33.54a11.07,11.07,0,0,0,1.38.44c1.26.28,2.54.5,3.81.78a13.3,13.3,0,0,1,1.39.46l1.51.54a1.18,1.18,0,0,1,.37.19,4.75,4.75,0,0,0,2.1,1.14,3.49,3.49,0,0,1,.79.26c1,.54,2,1.06,3,1.65a3.66,3.66,0,0,0,2.38.64,5.44,5.44,0,0,1-.34,2.47.63.63,0,0,1-.28.37c-1.1.54-2.21.9-3.33,0a.92.92,0,0,0-.32-.14l-2.26-.68h0a1.25,1.25,0,0,0,0,.47c.1.3.26.59.4.9.51-.12.79-.06.84.25a5.62,5.62,0,0,1,0,1c-.1,0-.16,0-.18,0-.47-.67-.47-.67-1.26-.5,0,0-.1,0-.13,0l-1.2-.47a3.32,3.32,0,0,0-.51-.23c-.58-.13-1.16-.24-1.77-.36,0,0,0,0-.06.08-.28.51-.26.47-.78.26a2.7,2.7,0,0,0-1.48-.31,2.12,2.12,0,0,1-1.34-.29,2.12,2.12,0,0,0-.91-.26,2.23,2.23,0,0,1-1.28-.48c-.35-.22-.72-.41-1.07-.63s-.49-.09-.75.14c-.05-.29-.09-.48-.1-.58-.22-.1-.46-.14-.53-.26-.18-.36-.44-.28-.71-.21s-.34.15-.52.19-.24-.24-.29-.33a3.23,3.23,0,0,1-.92-.09c-.67-.29-1.55-.19-1.91-1.06,0-.12-.26-.17-.4-.25s-.54-.26-.78-.41-.6-.45-.91-.65c-.08-.05-.22,0-.37,0l.86.76a26,26,0,0,0,3.26,2.49,3.67,3.67,0,0,1,.63.67l-.12.15c-.21-.12-.41-.24-.63-.35-.37-.19-.68-.61-1.19-.3-.07.05-.26-.06-.37-.13-.64-.37-1.27-.76-1.91-1.14,0,0-.11,0-.3.06a29.4,29.4,0,0,0,4.9,3.48,1.36,1.36,0,0,1-1.3-.23,1.62,1.62,0,0,0-1-.34.51.51,0,0,1-.33-.07,2.3,2.3,0,0,0-1.25-.71,3.62,3.62,0,0,1-1.28-.76c-.46-.3-.91-.62-1.38-.94-.16.54.59.69.44,1.22-.13,0-.29.05-.39,0-.6-.33-1.22-.65-1.79-1a4.21,4.21,0,0,0-2.24-.85c-.34,0-.65,0-.77-.42a1.49,1.49,0,0,1-1.5-.13,3.17,3.17,0,0,0-1.81-.65,8.83,8.83,0,0,1-1.37-.14c-1-.24-2-.53-3-.81l-1.37-.37-.46.26c.19.68.79.88,1.25,1.07,1.22.5,2.5.84,3.76,1.25.75.24,1.51.46,2.25.74a8.42,8.42,0,0,1,2.24,1.26c1.08.84,2.2,1.64,3.33,2.41.79.54,1.63,1,2.44,1.5a7.81,7.81,0,0,0,3.18,1.15,11.56,11.56,0,0,1,4.55,1.68c1.61,1,3.2,2,4.88,2.84a14,14,0,0,0,5.14,1.86,7,7,0,0,0,2.84-.13c.53-.17,1.06-.34,1.6-.46a8,8,0,0,0,4.53-3.08,11,11,0,0,0,1.73-3.24,4.83,4.83,0,0,0,0-3.41C210.42,164.27,210,163.47,209.73,162.65Zm-30.12-12.31a.42.42,0,0,0,0-.1.42.42,0,0,1,0,.1Z"/><path class="cls-1" d="M168.28,150.94a10.78,10.78,0,0,0,1.41.66,3.49,3.49,0,0,0,1.35.2.72.72,0,0,1,.54.09c.31.21.63.51.95.52.75,0,1.3.53,2,.7.48.12.92.38,1.4.5,1.62.41,3.28.68,4.87,1.18a17.88,17.88,0,0,1,3.9,1.6,6.07,6.07,0,0,1,1.75,1.1,11.5,11.5,0,0,0,1.4,1.2c-.24,0-.36.13-.29.35.36.24.68.46,1,.66a6.4,6.4,0,0,0,1.61.93,4.55,4.55,0,0,0,1.89.4.42.42,0,0,1,.3.14,1.15,1.15,0,0,0,1.28.23c.09,0,.24-.08.25-.06.33.57.7.11,1.18.1l-.44-.73a3.75,3.75,0,0,1-2.09-.68,3.55,3.55,0,0,0-.53-.32,13.53,13.53,0,0,1-2.63-1.33,25.41,25.41,0,0,0-3.15-1.76c-.48-.26-.57-.37-.49-1,.25,0,.46,0,.47.35s.23.38.48.4h.59l1.2.87a7.16,7.16,0,0,0-1-1.17.87.87,0,0,0-.24-.15c-.49-.28-1-.55-1.48-.84-.06,0-.06-.16-.11-.24s-.11-.16-.19-.18c-.45-.15-.92-.27-1.38-.41L182.84,153a1,1,0,0,1-1.07.2,2.55,2.55,0,0,0-.81,0,3.86,3.86,0,0,0,1.83.91c.4.08.4.22,0,.59a2.41,2.41,0,0,0-.7-.27,11.58,11.58,0,0,1-2.78-.83c-.1,0-.28-.07-.31,0-.16.22-.31,0-.47,0-.35,0-.65-.41-1-.14,0,0-.14-.08-.21-.13a1.78,1.78,0,0,0-.36-.19c-1-.25-1.92-.47-2.87-.75a17.16,17.16,0,0,1-2.86-1A4.45,4.45,0,0,0,168.28,150.94Z"/><path class="cls-1" d="M35.28,76.5c.47,0,.65.39.78.77.08.22.06.47.12.69a1.51,1.51,0,0,0,.26.61,3.87,3.87,0,0,1,1.2,2.12c1,.06,1.28.83,1.51,1.55l.8-.13a1.14,1.14,0,0,1-.66-.77,5.06,5.06,0,0,1-.16-1.93c0-.63,0-.65.57-1,0-.07,0-.17,0-.2-.31-.24-.24-.55-.13-.84a3.63,3.63,0,0,0,.25-1.63s.09-.08.15-.15c.46.39-.14.93.22,1.3l.87.17a4.09,4.09,0,0,0,.14-1.93c-.61.3-.61.3-.85-.39a1.15,1.15,0,0,0-.29.16c-.33.36-.62.75-1,1.09a.86.86,0,0,0-.24.87,1.48,1.48,0,0,1,0,.81,4.72,4.72,0,0,0-.24,2.44c0,.21,0,.38-.34.33a2.28,2.28,0,0,1,0-1.19,2.27,2.27,0,0,0,0-1.48,2.62,2.62,0,0,1-.32-1.22c0-.59.18-.8.79-.93a1.94,1.94,0,0,1,.16-1.45c.25-.36.46-.61.85-.45a1.32,1.32,0,0,0,.88,0c.41-.11.5-.46.17-.7a1.83,1.83,0,0,0-1.42-.46,2.16,2.16,0,0,1-.62,0,1.87,1.87,0,0,0-1.92.67c-.24.29-.36.68-.58,1s-.08.89-.09,1.45a3.09,3.09,0,0,1-.31-.3c-.06-.07-.1-.17-.18-.29-.19.59-.19.59-.71.82C34.91,76.23,34.89,76.47,35.28,76.5Z"/><path class="cls-1" d="M199.24,164.39a9,9,0,0,1,1.61.82c.2.11.38.26.67,0a2.66,2.66,0,0,0-.52-.57,4.94,4.94,0,0,0-2.4-1,.51.51,0,0,1-.2-.06,6.1,6.1,0,0,0-2.49-.51,1.82,1.82,0,0,1-.81-.19,3.35,3.35,0,0,0-1.67-.4,2,2,0,0,1-.72-.17,8.21,8.21,0,0,0-2.45-.95,1.19,1.19,0,0,1-.9-.76c-.36.27-.65.1-.91-.23-.08-.11-.24-.14-.35-.22a5.52,5.52,0,0,1-1-.66,2.25,2.25,0,0,0-1.25-.7c-.22-.05-.53-.1-.63-.26a2.58,2.58,0,0,0-1.63-.92,2.5,2.5,0,0,1-.74-.3,1.56,1.56,0,0,0-1.95,0l1.56.54a1.92,1.92,0,0,1,.44.17c.65.47,1.29,1,1.93,1.44s1.12.89,1.7,1.32a14,14,0,0,0,1.73,1.15,16,16,0,0,0,1.67.65,9.1,9.1,0,0,0,1.6.65,18.77,18.77,0,0,0,3.17.36A17.2,17.2,0,0,1,199.24,164.39Z"/><path class="cls-1" d="M41.06,80.69c.06,0,.09,0,.09,0a4.47,4.47,0,0,0-.35-2.2c0-.08-.11-.16-.18-.2s-.47-.17-.62.07c-.33.56.08,1.12,0,1.69a.69.69,0,0,0,.48.77V79.23C41.13,79.62,40.66,80.3,41.06,80.69Z"/><path class="cls-1" d="M172.07,151a3,3,0,0,0,.68.21l.06-.18a11.51,11.51,0,0,0-3.52-1.35,1.14,1.14,0,0,0,.9.63A9,9,0,0,1,172.07,151Z"/><path class="cls-1" d="M165.86,158.77a8,8,0,0,0-.82.1c.19.72,1.06.58,1.33,1.22a.57.57,0,0,0,.2-.85A.76.76,0,0,0,165.86,158.77Z"/><path class="cls-1" d="M177.3,152.66h.81c-.05-.15-.07-.39-.15-.42a1.62,1.62,0,0,0-1.33,0l-.7-.37A1.27,1.27,0,0,0,177.3,152.66Z"/><path class="cls-1" d="M175.93,151.89v0h0Z"/><path class="cls-1" d="M191,158.55c.1-.12.08-.35.1-.43l-1.39-.41a1,1,0,0,0,.8.79C190.66,158.54,190.92,158.62,191,158.55Z"/><path class="cls-1" d="M61.34,93.69v0h0Z"/><path class="cls-1" d="M61.76,92.63l-.61-.19c-.32.51,0,.86.18,1.23C61.79,93.45,61.56,93,61.76,92.63Z"/><path class="cls-1" d="M160.7,157.48c-.44-.29-.59-.72-1.12-.7C159.72,157.46,159.8,157.52,160.7,157.48Z"/><path class="cls-1" d="M40.44,83.55a1.18,1.18,0,0,0,.15-1.17C40.1,82.8,40.08,83,40.44,83.55Z"/><path class="cls-1" d="M65.66,90.31l0,0,0,0Z"/><path class="cls-1" d="M64.52,90.48c0,.12,0,.24,0,.53l1.15-.7-1-.11A1.87,1.87,0,0,0,64.52,90.48Z"/><path class="cls-1" d="M179.93,153.24l.09-.19a2.72,2.72,0,0,0-.47-.31c-.06,0-.24.07-.26.14a.3.3,0,0,0,.13.27A2.58,2.58,0,0,0,179.93,153.24Z"/><path class="cls-1" d="M167.74,149.34c.39.14.72.54,1.28.27a9.27,9.27,0,0,0-.92-.35C168,149.23,167.86,149.3,167.74,149.34Z"/><path class="cls-1" d="M167.71,149.35h0Z"/><path class="cls-1" d="M59.36,97.66l.34-.59-.83,0Z"/><path class="cls-1" d="M47.4,91.45l.36.67C48.16,91.68,48.15,91.65,47.4,91.45Z"/><path class="cls-1" d="M167.07,151.52c.42-.06.71.39,1.17.09l-1.13-.26Z"/><path class="cls-1" d="M175.91,151.88h0Z"/><path class="cls-1" d="M174.94,151.92a.72.72,0,0,0,1,0C175.6,151.89,175.29,151.53,174.94,151.92Z"/><path class="cls-1" d="M192.79,159.3l-.74-.28-.07.16.7.36Z"/><path class="cls-1" d="M62.77,93.09a.47.47,0,0,0-.75,0C62.45,93.24,62.45,93.24,62.77,93.09Z"/><path class="cls-1" d="M61.34,93.69h0Z"/><path class="cls-1" d="M60.83,94.15l.49-.46-.54-.06Z"/><path class="cls-1" d="M200.91,164.31c.38,0,.39,0,.73-.28C201.09,164,201.08,164,200.91,164.31Z"/><path class="cls-1" d="M43.88,89.82l-.18-.7C43.45,89.46,43.48,89.64,43.88,89.82Z"/><path class="cls-1" d="M167.05,150.08l-.52-.18-.06.19.52.18Z"/><path class="cls-1" d="M46.81,91.11l-.57.25C46.64,91.43,46.64,91.43,46.81,91.11Z"/><path class="cls-1" d="M61.16,96c-.38-.3-.47-.27-.63.17Z"/><path class="cls-1" d="M61.19,96h0Z"/><path class="cls-1" d="M40.58,77.67l-.2-.32-.15.08.13.34Z"/><path class="cls-1" d="M59.66,94.29c.05,0,.12-.09.23-.19-.14-.06-.22-.13-.29-.12s-.13.1-.19.15A.76.76,0,0,0,59.66,94.29Z"/><path class="cls-1" d="M39.52,79.38c-.22.11-.18.28-.05.5.3-.08.32-.24.22-.43A.17.17,0,0,0,39.52,79.38Z"/><path class="cls-1" d="M41.92,80.74l-.2-.08a3.66,3.66,0,0,0-.13.44s.09.06.19.13Z"/><path class="cls-1" d="M62.31,91.74c0-.32-.16-.41-.54-.23Z"/><path class="cls-1" d="M42.35,87.78c-.4,0-.4,0-.52.34Z"/><path class="cls-1" d="M58.69,83.81a.76.76,0,0,0-.2.13s.11.13.16.14.13-.08.23-.14C58.79,83.87,58.73,83.8,58.69,83.81Z"/><path class="cls-1" d="M57.71,93.31l.12-.08-.25-.4-.13.08Z"/><path class="cls-1" d="M61.83,95.43l0-.15c-.14,0-.24-.29-.5,0Z"/><path class="cls-1" d="M42.58,89h-.42C42.44,89.36,42.44,89.36,42.58,89Z"/><path class="cls-1" d="M56.25,93.11,55.78,93l-.05.14.48.14Z"/><path class="cls-1" d="M58.24,92.58l.48.08v-.21l-.47,0Z"/><path class="cls-1" d="M167.51,150.68l.12,0,.1-.39-.16,0Z"/><path class="cls-1" d="M62.32,94.15h0Z"/><path class="cls-1" d="M62.32,94.15l-.6-.28A.45.45,0,0,0,62.32,94.15Z"/><path class="cls-1" d="M46.81,87.73l-.43,0v.09h.43Z"/><path class="cls-1" d="M162.2,158.34l0-.12-.34-.15-.05.13Z"/><path class="cls-1" d="M186.43,158.05l-.12.12.24.18.07-.08Z"/><path class="cls-1" d="M63.29,86.25l-.45-.37C63,86.26,63,86.26,63.29,86.25Z"/><path class="cls-1" d="M58.67,85l.49.38C59.13,85.18,59,85,58.67,85Z"/><path class="cls-1" d="M59.17,85.45v0h0S59.17,85.44,59.17,85.45Z"/><path class="cls-1" d="M41.17,81.07h-.09v.29l.15,0Z"/><path class="cls-1" d="M63.6,90.14l-.21-.2-.1.14.23.15Z"/><path class="cls-1" d="M60.54,91.36l.18.2s.09-.08.08-.09a1.62,1.62,0,0,0-.18-.19Z"/><path class="cls-1" d="M59.22,92.79a.52.52,0,0,0,.06.15l.17-.11a.41.41,0,0,0-.13-.1S59.22,92.77,59.22,92.79Z"/><path class="cls-1" d="M57.41,87.15l.08.12a.53.53,0,0,0,.13-.13s0-.06,0-.1Z"/><path class="cls-1" d="M43.78,87.45a.64.64,0,0,0-.15.13s0,.07,0,.1l.16-.1S43.8,87.51,43.78,87.45Z"/><path class="cls-1" d="M146.27,137.74l.07-.09-.29-.23-.07.09Z"/><path class="cls-1" d="M175.79,155.78l.06-.08s0-.1,0-.1a1.38,1.38,0,0,0-.2,0Z"/><path class="cls-1" d="M57.93,88.19l0,.09.23.11.06-.13Z"/><path class="cls-1" d="M167.71,149.35l0,0,0,0Z"/><path class="cls-1" d="M167.4,149l.31.34C167.7,149.16,167.77,149,167.4,149Z"/><path class="cls-1" d="M64.2,89.82l-.33.05,0,.12.33,0Z"/><path class="cls-1" d="M62.81,90.06l.11-.32-.24.24Z"/><path class="cls-1" d="M44.59,89.8l-.15.12s.07.06.1.06a.17.17,0,0,0,.11-.06S44.61,89.85,44.59,89.8Z"/><path class="cls-1" d="M159.75,146.08l-.16-.08s0,.08,0,.11a.15.15,0,0,0,.1.06S159.71,146.12,159.75,146.08Z"/><path class="cls-1" d="M61.8,89.45s.1,0,.11,0,.05-.09.08-.14l-.14,0A.88.88,0,0,0,61.8,89.45Z"/><path class="cls-1" d="M45.7,90.63s0,.07,0,.1l.17,0c0-.06,0-.11,0-.12A.13.13,0,0,0,45.7,90.63Z"/><path class="cls-1" d="M43.1,88.27s0-.11,0-.12a.76.76,0,0,0-.15,0s0,.09.06.11S43.06,88.27,43.1,88.27Z"/><path class="cls-1" d="M61.89,91.07s.07,0,.1,0,0-.09,0-.1-.07,0-.11,0S61.87,91.06,61.89,91.07Z"/><path class="cls-1" d="M60.25,91.78s-.07.06-.1.09a.91.91,0,0,0,.14.07s0-.07.06-.11A.24.24,0,0,0,60.25,91.78Z"/><path class="cls-1" d="M50.91,92.52s-.07.06-.07.09,0,.07,0,.11l.11-.13Z"/><path class="cls-1" d="M58.66,86.11l.05-.11-.11,0s0,0,0,.06Z"/><path class="cls-1" d="M57.24,84.72l-.11-.06s-.07.06-.07.08,0,.07.08.1Z"/><path class="cls-1" d="M61,99.19l0,.1.25.15.07-.13Z"/><path class="cls-1" d="M193.16,164.2s.08,0,.12,0l-.08-.1-.12.05S193.13,164.19,193.16,164.2Z"/><path class="cls-1" d="M59.52,93.32s0,.09,0,.1a.12.12,0,0,0,.11,0s0,0,.1-.08Z"/><path class="cls-1" d="M42.66,75.29a.48.48,0,0,0,.16-.08s0-.1-.07-.1a.67.67,0,0,0-.18.07S42.64,75.29,42.66,75.29Z"/><path class="cls-1" d="M54.71,93.89l-.26.09.27,0Z"/><path class="cls-1" d="M44.6,155.85a5,5,0,1,0-5,5A5.09,5.09,0,0,0,44.6,155.85Z"/><path class="cls-1" d="M58.47,151.89a5,5,0,1,0-5,5A5.09,5.09,0,0,0,58.47,151.89Z"/><path class="cls-1" d="M74.32,147.27a5,5,0,1,0-5,5A5.08,5.08,0,0,0,74.32,147.27Z"/><path class="cls-1" d="M147.55,112.26a5,5,0,1,0,5-5A5.09,5.09,0,0,0,147.55,112.26Z"/><path class="cls-1" d="M164.07,105a5,5,0,1,0,5-5A5.08,5.08,0,0,0,164.07,105Z"/><path class="cls-1" d="M181.24,99.71a5,5,0,1,0,5-5A5.09,5.09,0,0,0,181.24,99.71Z"/><path class="cls-1" d="M195.77,97.07a5,5,0,1,0,5-5A5.09,5.09,0,0,0,195.77,97.07Z"/></svg>