<?xml version="1.0" encoding="utf-8"?>
<!-- Generator: Adobe Illustrator 25.0.1, SVG Export Plug-In . SVG Version: 6.00 Build 0)  -->
<svg version="1.1" id="Layer_1" xmlns="http://www.w3.org/2000/svg" xmlns:xlink="http://www.w3.org/1999/xlink" x="0px" y="0px"
	 viewBox="0 0 250 250" style="enable-background:new 0 0 250 250;" xml:space="preserve">
<g>
	<path d="M133.5,113.1c-6,0-11.6,0-17.6,0c-6.5,40.6-13,80.9-19.5,121.3c-1.3,0.1-2.6,0.2-3.8,0.3c0,0.2-0.1,0.4,0,0.5
		c1,1.5,3.3,3.5,2.9,4.5c-0.6,1.7-2.6,3.6-4.4,4.2c-6,2.2-12.3,2-18.4,0.1c-0.9-0.3-1.8-0.8-2.6-1.4c-2.7-2-2.9-4.8,0.1-6.5
		c1.9-1.1,2.3-2.5,2.6-4.3c4.2-25,8.3-50.1,12.5-75.1c3.2-19.3,6.4-38.5,9.5-57.8c0.2-1.3-0.7-3-1.6-4.2
		C77.9,74.6,62.6,54.5,47.3,34.4c-1.6-2.1-3.2-4.1-4.7-6.2c-2.9-4.1-1.9-6.8,2.9-7.9c0.4-0.1,0.7-0.4,1-0.7c0.1-0.1,0.2-0.4,0.3-0.5
		c2.9-1.7,5.7-4,8.9-5c1.3-0.4,3.9,1.6,5.2,3.1c3.8,4.4,7.3,9.2,10.9,13.8c10.7,13.8,21.3,27.5,32,41.3c0.4,0.5,0.9,1,1.8,2
		c-1.5-7.9-0.3-14.6,4.6-20.4c3.1-3.7,7-5.9,11.8-6.2c6.4-0.3,11.3,2.5,15,7.6c3.5,4.9,4.5,10.4,4.4,16.5
		c3.5-5.4,6.9-10.7,10.4-16.1C162,40,172.1,24.2,182.3,8.4c1.5-2.3,3.5-4.8,6.7-3.8c3.1,1,5.9,2.8,8.8,4.2c0.3,0.2,0.7,0.1,1.1,0.2
		c1.5,0.6,3.8,0.9,4.4,2.1c0.9,1.7,1.1,3.9-0.3,6.1c-16.2,24.6-32.2,49.2-48.3,73.9c-0.8,1.2-1.2,3.1-0.9,4.6
		c2.2,14.9,4.5,29.8,6.8,44.7c2.3,14.8,4.5,29.6,6.8,44.4c2.1,13.7,4.2,27.4,6.3,41.2c0.4,2.9,0.5,5.8,0.9,8.7
		c0.1,0.5,0.9,0.9,1.4,1.3c2.8,2.3,2.7,5.1-0.5,6.9c-1.8,1-3.9,2-5.8,2c-4.8,0-9.7-0.1-14.4-1c-1.8-0.3-4-2.5-4.6-4.3
		c-0.4-1.3,1.6-3.3,2.5-5c-1,0-2.6,0-4.5,0C143.6,194,138.5,153.5,133.5,113.1z M184.3,8.1c-0.5,0.7-1,1.3-1.4,2
		c-10.1,15.7-20.2,31.4-30.3,47.2c-5.1,7.9-9.9,15.8-15.2,23.5c-7.1,10.5-20.5,11-28,1.2C98.2,67.5,87,53,75.8,38.6
		c-5.5-7.1-11.1-14.2-16.7-21.5c-5.2,3.5-10.2,6.8-15.3,10.3c2.6,3.5,5,6.6,7.4,9.8c14.6,19.2,29.1,38.3,43.7,57.5
		c0.7,0.9,1.5,2.3,1.3,3.4c-1.4,9.5-3,19-4.6,28.5c-2.5,15-5,29.9-7.5,44.9c-2.5,15.2-5,30.3-7.5,45.5c-0.9,5.3-1.8,10.7-2.7,16.3
		c6.8,0,13.3,0.1,19.7-0.1c0.6,0,1.7-1.2,1.8-2c2.6-15.7,5.2-31.5,7.7-47.3c3.5-21.7,6.9-43.5,10.3-65.2c1-6.3,1.1-6.4,7.3-6.8
		c4.6-0.3,9.3-0.1,13.9-0.1c5.1,40.6,10.1,80.9,15.2,121.2c7.9,0,15.5,0,23.2,0c0-0.8,0.1-1.4,0-2c-1.6-10.7-3.3-21.4-4.9-32.1
		c-2.3-14.9-4.7-29.8-7-44.7c-2.8-17.8-5.6-35.7-8.2-53.5c-0.6-3.8-1.8-7.5,1-11.6c12.2-18,24-36.3,35.9-54.6
		c4.1-6.3,8.2-12.6,12.3-18.9c-0.7-0.4-1.1-0.6-1.6-0.8C195.2,12.5,189.8,10.3,184.3,8.1z M123,59.3c-4.2,0-8.4,0.1-12.5,0
		c-1.6,0-2.5,0.5-3,2.1c-1.8,5.7-1.6,11.2,1.1,16.5c3.9,7.9,11.5,11.5,18.9,9.1c9.9-3.2,15.1-16.1,10.8-26.5
		c-0.3-0.7-1.7-1.2-2.7-1.2C131.4,59.2,127.2,59.3,123,59.3z M134,54.5c-4.6-7.2-17.7-7.1-21.9,0C119.4,54.5,126.7,54.5,134,54.5z
		 M46.7,23.6c0.1-0.4,0.1-0.7,0.2-1.1c-1.1-0.1-2.6-0.6-3.2-0.1c-0.8,0.6-0.8,2.1-1.2,3.2c0.3,0.1,0.6,0.2,0.9,0.3
		C44.5,25.1,45.6,24.3,46.7,23.6z M52.2,19.9c0-0.4,0-0.7,0-1.1c-1.2,0.1-2.5-0.2-3.4,0.4c-0.6,0.4-0.5,1.8-0.8,2.8
		c0.3,0.1,0.5,0.1,0.8,0.2C49.9,21.5,51,20.7,52.2,19.9z M192.2,8.6c0,0.4,0,0.8-0.1,1.1c1.3,0.5,2.6,1.1,3.9,1.6
		c0.2-0.2,0.4-0.4,0.6-0.6c-0.5-0.8-0.7-2.1-1.4-2.3C194.4,8.1,193.3,8.5,192.2,8.6z M202,13.7c0.2-0.2,0.4-0.4,0.7-0.6
		c-0.6-0.8-1-2-1.8-2.4c-0.7-0.3-1.9,0.2-2.8,0.4c0,0.3,0,0.7,0,1C199.4,12.7,200.7,13.2,202,13.7z"/>
	<path d="M123.7,73.9c0.2,0,0.9,0,1.5,0.2c1.8,0.6,3.7,1.4,3.6,3.7c0,2.4-1.8,3.3-3.9,3.9c-0.6,0.1-1.2,0.2-1.8,0.2
		c-3.3,0.1-6.1-1.7-6.1-4C117.1,75.7,119.8,73.9,123.7,73.9z M122.9,73.9c-1.9,1.7-4.3,2.8-4.3,4c-0.1,2.4,2.5,2.7,4.5,2.7
		c2,0,4.6-0.4,4.3-2.9C127.3,76.6,124.9,75.5,122.9,73.9z"/>
	<path d="M115.4,71c-1.3,1.1-2,1.7-2.8,2.3c-0.6-0.7-1.6-1.4-1.7-2.3c-0.1-0.6,1-1.9,1.5-1.9C113.3,69.2,114.1,70.1,115.4,71z"/>
	<path d="M135.4,71.5c-1,0.7-1.7,1.4-2.2,1.3c-0.5,0-1-0.9-1.5-1.3c0.6-0.5,1-1.4,1.7-1.5C133.8,69.9,134.5,70.8,135.4,71.5z"/>
</g>
</svg>
