<?xml version="1.0" encoding="utf-8"?>
<!-- Generator: Adobe Illustrator 25.0.1, SVG Export Plug-In . SVG Version: 6.00 Build 0)  -->
<svg version="1.1" id="Layer_1" xmlns="http://www.w3.org/2000/svg" xmlns:xlink="http://www.w3.org/1999/xlink" x="0px" y="0px"
	 viewBox="0 0 250 250" style="enable-background:new 0 0 250 250;" xml:space="preserve">
<style type="text/css">
	.st0{fill-rule:evenodd;clip-rule:evenodd;}
</style>
<path class="st0" d="M136.4,189.2c-3.7-18.3-8.2-40.5-8.2-64.2c0-23.9,5-46.1,9.1-64.5C144.3,30,148.8,10,124.4,10
	c-24.3,0-19.8,19.9-12.8,50.1c4.2,18.5,9.4,40.8,9.4,64.9c0,24-4.6,46.2-8.4,64.6c-6.3,30.4-10.4,50.4,11.8,50.4
	C146.7,240,142.6,219.9,136.4,189.2z M108.4,128.5c0-27.5-28.5-45-52.1-59.6C36.2,56.5,19.7,46.3,27.1,34C45,4.5,118,77.7,118,128.5
	c0,50.8-72.5,119.5-90.9,87.1c-8.7-15.4,9.2-24.3,30.4-35C81,168.9,108.4,155.2,108.4,128.5z M141.6,128.5c0-27.5,28.5-45,52.1-59.6
	c20.1-12.4,36.6-22.6,29.2-34.8C205,4.5,132,77.7,132,128.5c0,50.8,72.5,119.5,90.9,87.1c8.7-15.4-9.2-24.3-30.4-35
	C169.1,168.9,141.6,155.2,141.6,128.5z M96.5,127.8c0-10.3-17.7-10-37-9.7c-24.8,0.4-52.2,0.7-48.6-20.9
	c5.4-32.2,39.7-10.9,65.2,4.9c4,2.5,7.8,4.9,11.3,6.9c1.3,0.8,2.6,1.5,3.9,2.2c7,3.8,12.8,6.8,12.8,16.7c0,11.6-10,15.2-17.7,17.9
	c-5.6,2-12.6,5.6-20.1,9.4l0,0c-22.7,11.7-49.8,25.6-55.4,2.6c-5.9-24.3,23-22.9,48.8-21.6C79,136.9,96.5,137.8,96.5,127.8z
	 M190.5,118c-19.3-0.3-37-0.5-37,9.7c0,10,17.5,9.2,36.8,8.2c25.8-1.2,54.7-2.6,48.8,21.6c-5.6,23-32.7,9-55.4-2.6
	c-7.5-3.8-14.5-7.4-20.1-9.4c-7.7-2.7-17.7-6.2-17.7-17.9c0-9.9,5.7-12.9,12.8-16.7c1.3-0.7,2.6-1.4,3.9-2.2c3.4-2,7.2-4.4,11.3-6.9
	c25.5-15.8,59.7-37.1,65.2-4.9C242.7,118.8,215.3,118.4,190.5,118z"/>
</svg>
