<svg width="234" height="229" viewBox="0 0 234 229" fill="none" xmlns="http://www.w3.org/2000/svg">
<path fill-rule="evenodd" clip-rule="evenodd" d="M133.551 114.5C133.551 150.226 146.877 182.131 155.648 203.129C162.402 219.298 166.454 229 159.641 229C143.979 229 105.193 177.737 105.193 114.5C105.193 113.201 105.209 111.907 105.241 110.618C87.0447 111.548 70.076 114.443 55.3043 117.214C56.4726 163.728 87.3985 197.858 103.362 215.475C111.374 224.318 115.616 229 110.435 229C95.2324 229 31.1216 198.911 27.039 122.246C10.1554 124.527 0 123.011 0 110.312C0 99.5489 10.4187 97.2153 27.6948 97.9331C35.6066 23.7675 95.7714 0 110.435 0C115.284 0 111.879 3.40806 104.854 10.4382C90.5358 24.7682 61.1798 54.1479 56.045 100.39C70.7208 101.924 87.5281 103.68 105.53 104.242C109.364 45.8115 144.835 0 159.641 0C166.454 0 162.402 9.70205 155.648 25.8712C147.737 44.8111 136.12 72.6244 133.918 104.112C149.278 103.563 163.672 102.386 176.493 101.337L176.504 101.337L176.505 101.336C178.648 101.161 180.747 100.99 182.799 100.825C184.834 58.0622 196.259 25.3166 210.05 25.3166C218.509 25.3166 216.07 37.6369 212.229 57.0324C209.879 68.9042 207.004 83.4267 205.781 99.397C223.371 98.9177 234 101.031 234 110.312C234 122.617 223.181 123.738 205.311 121.298C206.006 140.535 209.477 158.068 212.229 171.968C216.07 191.363 218.509 203.683 210.05 203.683C195.129 203.683 182.976 165.347 182.492 117.465C168.143 114.904 151.524 112.059 133.596 110.876C133.566 112.079 133.551 113.287 133.551 114.5Z" fill="black"/>
</svg>
