<?xml version="1.0" encoding="utf-8"?>
<!-- Generator: Adobe Illustrator 25.0.1, SVG Export Plug-In . SVG Version: 6.00 Build 0)  -->
<svg version="1.1" id="Layer_1" xmlns="http://www.w3.org/2000/svg" xmlns:xlink="http://www.w3.org/1999/xlink" x="0px" y="0px"
	 viewBox="0 0 250 250" style="enable-background:new 0 0 250 250;" xml:space="preserve">
<g>
	<path d="M235.75,92.48C224.22,78.7,210.6,71.61,198.79,66.5c-21.1-9.14-47.31-14.17-73.79-14.17c-26.49,0-52.71,5.04-73.82,14.18
		c-11.8,5.11-25.42,12.2-36.94,25.98C5.79,102.61,1.5,113.55,1.5,125c0,11.46,4.29,22.4,12.75,32.52
		c11.52,13.79,25.15,20.87,36.95,25.98c21.1,9.14,47.31,14.17,73.79,14.17c26.49,0,52.71-5.04,73.82-14.18
		c11.8-5.11,25.42-12.2,36.94-25.98c8.46-10.12,12.75-21.06,12.75-32.51C248.5,113.54,244.21,102.6,235.75,92.48z M224.24,147.89
		c-7.56,9.05-16.95,15.58-31.39,21.83c-19.27,8.35-43.36,12.94-67.85,12.94c-24.48,0-48.57-4.59-67.83-12.94
		c-14.45-6.25-23.84-12.79-31.41-21.84c-6.15-7.35-9.26-15.05-9.26-22.9c0-7.84,3.11-15.54,9.26-22.89
		c7.56-9.05,16.95-15.58,31.39-21.84c19.27-8.35,43.36-12.94,67.85-12.94c24.48,0,48.57,4.59,67.83,12.94
		c14.45,6.26,23.84,12.79,31.41,21.84c6.14,7.35,9.26,15.05,9.26,22.9C233.5,132.84,230.39,140.55,224.24,147.89z"/>
	<polygon points="118.49,95.99 90.75,112.01 90.75,79.97 75.75,79.97 75.75,112.01 48,95.99 40.5,108.98 68.25,125 40.5,141.02 
		48,154.01 75.75,137.99 75.75,170.03 90.75,170.03 90.75,137.99 118.49,154.01 125.99,141.02 98.25,125 125.99,108.98 	"/>
</g>
</svg>
