<?xml version="1.0" encoding="utf-8"?>
<!-- Generator: Adobe Illustrator 25.0.1, SVG Export Plug-In . SVG Version: 6.00 Build 0)  -->
<svg version="1.1" id="Layer_1" xmlns="http://www.w3.org/2000/svg" xmlns:xlink="http://www.w3.org/1999/xlink" x="0px" y="0px"
	 viewBox="0 0 250 250" style="enable-background:new 0 0 250 250;" xml:space="preserve">
<g>
	<path d="M236.3,94.09c-9.03-10.8-19.99-18.49-36.65-25.7c-21.31-9.23-47.82-14.31-74.65-14.31c-26.84,0-53.36,5.08-74.67,14.32
		C33.68,75.61,22.72,83.3,13.7,94.1C5.6,103.78,1.5,114.18,1.5,125c0,10.83,4.1,21.23,12.2,30.91c11.35,13.58,24.9,20.61,36.65,25.7
		c21.31,9.23,47.82,14.31,74.65,14.31c26.84,0,53.35-5.08,74.67-14.32c11.75-5.09,25.29-12.13,36.64-25.7
		c8.09-9.68,12.2-20.08,12.2-30.9C248.5,114.17,244.39,103.77,236.3,94.09z M230.93,151.41c-8.28,9.91-18.46,17.01-34.05,23.77
		c-20.45,8.86-45.98,13.74-71.88,13.74c-25.89,0-51.41-4.88-71.87-13.73c-15.59-6.75-25.78-13.86-34.06-23.77
		C12.06,143.03,8.5,134.14,8.5,125c0-9.14,3.56-18.02,10.57-26.41c8.28-9.91,18.46-17.01,34.05-23.77
		C73.57,65.96,99.1,61.08,125,61.08c25.89,0,51.42,4.88,71.87,13.73c15.59,6.75,25.78,13.86,34.06,23.77
		c7.01,8.39,10.57,17.28,10.57,26.42C241.5,134.14,237.95,143.03,230.93,151.41z"/>
	<polygon points="127.83,95.22 86.75,118.94 86.75,71.5 79.75,71.5 79.75,118.94 38.66,95.22 35.16,101.28 76.25,125 35.16,148.72 
		38.66,154.78 79.75,131.06 79.75,178.5 86.75,178.5 86.75,131.06 127.83,154.78 131.33,148.72 90.25,125 131.33,101.28 	"/>
</g>
</svg>
