<?xml version="1.0" encoding="utf-8"?>
<!-- Generator: Adobe Illustrator 25.0.1, SVG Export Plug-In . SVG Version: 6.00 Build 0)  -->
<svg version="1.1" id="Layer_1" xmlns="http://www.w3.org/2000/svg" xmlns:xlink="http://www.w3.org/1999/xlink" x="0px" y="0px"
	 viewBox="0 0 250 250" style="enable-background:new 0 0 250 250;" xml:space="preserve">
<path d="M235.88,95.74c-10.06-12.03-22.08-19.18-36.09-25.25c-23.1-10-49.91-14.31-74.78-14.31c-24.88,0-51.7,4.31-74.8,14.32
	c-14.01,6.07-26.02,13.22-36.08,25.25C7.21,104.01,2.5,113.86,2.5,125c0,11.15,4.72,21,11.62,29.26
	c10.06,12.03,22.08,19.18,36.09,25.25c23.1,10,49.91,14.31,74.78,14.31c24.88,0,51.7-4.31,74.8-14.32
	c14.01-6.07,26.02-13.22,36.08-25.25c6.91-8.26,11.62-18.11,11.62-29.26C247.5,113.85,242.78,104,235.88,95.74z M131.17,148.12
	l-3.41,5.91l-40.04-23.12v46.24H80.9v-46.24l-40.05,23.12l-3.41-5.91L77.49,125l-40.05-23.12l3.41-5.91l40.05,23.12V72.86h6.82
	v46.24l40.04-23.12l3.41,5.91L91.13,125L131.17,148.12z"/>
</svg>
