<?xml version="1.0" encoding="utf-8"?>
<!-- Generator: Adobe Illustrator 25.0.1, SVG Export Plug-In . SVG Version: 6.00 Build 0)  -->
<svg version="1.1" id="Layer_1" xmlns="http://www.w3.org/2000/svg" xmlns:xlink="http://www.w3.org/1999/xlink" x="0px" y="0px"
	 viewBox="0 0 247.9 250" style="enable-background:new 0 0 247.9 250;" xml:space="preserve">
<style type="text/css">
	.st0{fill-rule:evenodd;clip-rule:evenodd;}
</style>
<path class="st0" d="M91.3,44.6C98.5,34,110.7,27,124.5,27c13.7,0,25.8,6.8,33,17.3c12.5-2.2,25.8,1.5,35.4,11.2
	c9.7,9.7,13.4,23.1,11.1,35.6c10.8,7.2,17.9,19.5,17.9,33.4c0,14-7.1,26.3-17.9,33.5c2.4,12.7-1.2,26.3-11,36.1
	c-9.6,9.6-22.7,13.3-35.1,11.2c-7.2,10.7-19.5,17.8-33.4,17.8c-14,0-26.4-7.2-33.5-18c-12.8,2.6-26.6-1-36.6-10.9
	c-9.9-9.9-13.6-23.7-11-36.4C32.9,150.3,26,138.2,26,124.4c0-13.7,6.9-25.8,17.4-33.1c-2.4-12.6,1.3-26.2,11.1-36
	C64.4,45.4,78.4,41.8,91.3,44.6z M106,97.5c0-10.3,8.4-18.7,18.7-18.7c10.4,0,18.7,8.4,18.7,18.7v8h8c10.4,0,18.7,8.4,18.7,18.7
	s-8.4,18.7-18.7,18.7h-8v8.5c0,10.4-8.4,18.7-18.7,18.7c-10.4,0-18.7-8.4-18.7-18.7v-8.5h-8.5c-10.4,0-18.7-8.4-18.7-18.7
	s8.4-18.7,18.7-18.7h8.5V97.5z"/>
</svg>
