<?xml version="1.0" encoding="utf-8"?>
<!-- Generator: Adobe Illustrator 25.0.1, SVG Export Plug-In . SVG Version: 6.00 Build 0)  -->
<svg version="1.1" id="Default" xmlns="http://www.w3.org/2000/svg" xmlns:xlink="http://www.w3.org/1999/xlink" x="0px" y="0px"
	 viewBox="0 0 250 250" style="enable-background:new 0 0 250 250;" xml:space="preserve">
<style type="text/css">
	.st0{fill:#FFFFFF;}
</style>
<path d="M93.9,26.6c2.6-2.7,4.5-6,7.3-7.3c3-1.4,6.9-1,10.4-1.1c5.1-0.1,10.3-0.2,15.4,0.4c3.9,0.4,7.6,1.9,9.6,2.5
	c3.9,4.3,6.7,7.4,10.1,11.2c-1.2,4.1-2.5,8.9-3.9,14c1.4,1.2,3.2,2.4,4.5,4c0.8,0.9,1.7,2.9,1.3,3.5c-2.2,3.4-0.1,6,1.1,8.7
	c1.5,3.4,2.3,6-2.7,6.8c-1.4,0.2-2.5,1.7-3.2,2.2c0.4,2.5,0.9,4.4,0.9,6.3c0,4.7,3.2,6.7,6.8,8.1c1,0.4,2.5-0.6,3.7-1
	c-0.7-1-1.5-1.9-2-3c-1.3-2.8-2.5-5.7-3.9-8.8c8.1-0.1,7.2,7.1,11.4,11.6c0.6-6.2,1-10.7,1.5-16.2c3.1,0.8,6.2,1.5,9.7,2.3
	c1.6-3.7,3.7-5.8,7.8-2c1,1,3.4,0.9,5.1,0.7c2.9-0.5,4.9,0,6.9,2.5c0.8,1,4.2-0.1,6.3-0.2c0-0.5,0-0.9,0-1.4
	c-1.6-1.1-3.3-2.2-5.2-3.4c7.8-6.2,14.7-5.4,22.6-2.7c-0.4-2.1-0.7-3.4-1.1-5.3c1.6-0.2,3.3-0.3,5.2-0.5c2.3,6.7,4.5,13.2,6.9,20.1
	c-1.5,0.8-2.8,1.4-4.1,2.1c0.4,0.1,0.7,0.2,1.1,0.3c-1.1,3.5-1.5,7.5-3.5,10.3c-1.4,1.9-5.1,2.6-7.8,2.8c-5.5,0.3-7.5,4.3-10,8.1
	c0.8,0.6,1.6,1.2,2.6,2.1c-1.8,0.5-3,0.8-4.4,1.2c2.7,5.8,1.8,6.5-8,6.8c-0.6,9.2-8.8,3-12.8,6.9c1.2,2.2,2.7,4.8,4.3,7.6
	c-1.3,0-2.6,0-4.2,0c1.8,2.2,1.7,1.9,6.2,0.1c2.2-0.9,5-0.5,8.7-0.7c-2.3,4.7-4,8.3-5.8,12c1.9,0.7,3.7,1.4,5.4,2.1
	c2.6,1.2,4.4,1.1,6.1-1.7c1.9-3,4.1-2.7,6.6,0.1c3.1,3.6,6.8,6.6,10.6,10.3c-0.3,0.5-1.3,2.1-2.7,4.1c8.4-0.1,9,7.2,12,12
	c3.4,5.3-4.8,9.8,0.2,16.1c-5.8-2-9.4-3.1-12.6,1.4c-1.5,2.2-5.1,2.8-7.3,4.7c-1.1,0.9-1.4,2.9-2,4.5c-0.1,0.4,0.6,1,0.5,1.4
	c-1.7,5.4-2.3,11.7-5.6,15.8c-3.4,4.2-10,3-15.2,1.7c-1.5-0.4-2.4-3.8-3.4-6c-0.3-0.6-0.5-1.5-0.2-2.1c0.7-1.6,2.7-3.4,2.4-4.7
	c-0.8-3.2-3.5-4.5-6.9-4.1c-0.5,0.1-1-0.2-1.5-0.4c-0.4-1.9-0.5-3.9-1.2-5.6c-0.4-1.1-1.6-1.8-2.5-2.7c-0.8,1.1-2,2-2.5,3.2
	c-0.4,1.2,0.1,2.8-0.3,4.1c-0.4,1.3-1.3,2.7-2.4,3.7c-1.6,1.5-3.6,2.7-5.4,4c1.7,1.6,3.3,3.3,5.3,5.2c-0.9,0.3-2,0.8-3.1,1.2
	c-2.9,1-4.3,2.5-5.2,6.1c-1.9,7.4-3.2,15.7-13.6,17.3c-3.1,0.5-5.5,2.9-8.7,0.2c-0.9-0.8-3.5-0.7-4.5,0c-4.3,3.2-5.1,0.9-6.6-2.9
	c-2.7-6.5-5.6-13-14-14.9c-2.9-0.7-6.1-4.3-7-7.2c-0.8-2.5,1.3-6,2.7-9c-2.7-7.9-10.7-9.6-17.7-12.5c-1.4-0.6-4.4,1.6-6.1,3.2
	c-4.7,4.5-8.3,10.3-16.1,9.6c-1.1-0.1-2.3,1.4-3.5,2.1c-2.3,1.3-4.1,1.7-6.4-0.7c-1.4-1.5-4.2-1.9-6.5-2.2c-3.4-0.4-6.4-0.6-5.5-5.4
	c0.2-0.8-1.3-2.2-2.3-2.8c-1.3-0.8-2.9-1.2-4.4-1.7c-6.1-2.3-7.8-8.2-3.3-12.6c2.7-2.6,2.8-4.7,2-8.2c-0.8-3.4-0.3-6.8,3.8-9.2
	c4.5-2.6,8.3-6.4,12.6-9.9c-0.9-1.7-1.7-3.2-2.4-4.5c2.1-1.6,5.2-2.7,6-4.7c0.9-2.2-0.4-5.3-0.6-8c-0.1-1.9,0-3.8-1.1-5.2
	c-1.1-2-2.4-3.9-3.4-5.9c-1.4-2.8-1.2-6.7-6.3-5.7c-3.6,0.7-5-2.2-6-5.3c-0.5-1.5-1.3-3-2.4-4.1c-1.8-1.8-4-3.2-6.5-5.2
	c-0.3,0.2-1.4,0.8-2.5,1.6c-1,0.7-1.9,1.6-3.1,2.7c-0.9-5.1-1.7-9.4-2.3-13.6c-0.1-1,0-2.2,0.5-2.9c2.3-3.6,4.4-6.8,4.4-11.8
	c0-2.8,4.7-5.9,7.8-8.4c4.5-3.7,10.1-1.8,15.1-1.9c4.2-0.1,8.5,1.1,12.8,1.9c0.9,0.2,1.5,1.4,2.3,1.7c4.4,1.5,8.2,4.2,12.2,6.4
	c2.1,1.2,5.7-0.3,6.2,3.8c1.6-0.3,3.3-0.3,4.7-0.8c1.5-0.6,3.1-2.8,4-2.5c4.5,1.7,8.8,0.2,14.3-0.7c-0.9-2-1.3-4.4-2.8-5.4
	c-1.6-1-4.1-0.5-6.1-1c-1.5-0.4-4-1.1-4.1-2c-0.5-4.4-3.2-5.8-6.7-6.3c0.2-2.2,0.3-4.5,0.4-5.6c5.2-2.2,10.3-3.6,14.4-6.4
	c1.7-1.2,1.3-5.6,1.4-8.5c0.1-1.3-1.3-2.8-1.2-4.1c0.7-5.4-0.1-6.5-5.5-6.8C95.5,26.8,94.5,26.7,93.9,26.6z M164.5,183
	c-0.4-0.5-0.9-1.1-1.3-1.6c-2,0-4.4-0.6-6,0.2c-1.9,0.9-3.1,3.1-4.6,4.8c1.8,0.5,3.9,2,5.2,1.4C160.3,186.8,162.3,184.7,164.5,183z
	 M94,52.8c-1.1,1.9-2.2,3.2-2,3.6c1,1.6,2.5,2.9,3.9,4.2c0.7-0.8,2.3-2,2.1-2.3C97,56.6,95.7,55.1,94,52.8z M174.7,181.5
	c-0.3-0.9-0.6-1.9-0.8-2.8c-1.9,0.4-3.8,0.8-5.7,1.2c0.5,1.1,1.1,3,1.5,3C171.4,182.8,173,182,174.7,181.5z"/>
<path class="st0" d="M172.9,182.9c-2.1,1.6-4,3.6-6.3,4.5c-1.3,0.5-3.3-0.8-4.9-1.3c1.4-1.6,2.6-3.6,4.4-4.5
	c1.5-0.8,3.8-0.2,5.7-0.2C172.1,182,172.5,182.4,172.9,182.9z"/>
<path class="st0" d="M106.6,60.6c1.7,2.2,2.9,3.6,3.7,5.2c0.2,0.3-1.3,1.4-2,2.2c-1.2-1.3-2.6-2.5-3.6-4
	C104.5,63.6,105.6,62.4,106.6,60.6z"/>
<path class="st0" d="M182.4,181.5c-1.6,0.5-3.1,1.2-4.7,1.3c-0.4,0-1-1.8-1.4-2.8c1.8-0.4,3.6-0.7,5.4-1.1
	C181.9,179.8,182.2,180.7,182.4,181.5z"/>
</svg>
