<svg id="Layer_1" data-name="Layer 1" xmlns="http://www.w3.org/2000/svg" viewBox="0 0 250 250"><path d="M246.38,120.55H175.86L245.3,108.3l-1.54-8.76-69.44,12.25,66.26-24.12-3.05-8.36-66.26,24.11,61.07-35.25-4.45-7.71L166.83,95.71l54-45.32-5.72-6.82-54,45.33,45.33-54-6.82-5.72-45.33,54,35.26-61.07-7.71-4.45L146.58,78.73l24.11-66.26-8.36-3.05L138.21,75.68,150.46,6.24,141.69,4.7,129.45,74.14V3.62h-8.9V74.14L108.3,4.7,99.54,6.24l12.25,69.44L87.67,9.42l-8.36,3.05,24.11,66.26L68.17,17.66l-7.71,4.45L95.72,83.18l-45.33-54-6.82,5.72,45.33,54-54-45.33-5.72,6.82,54,45.33L22.11,60.46l-4.45,7.71,61.07,35.26L12.47,79.31,9.42,87.67l66.26,24.12L6.24,99.54,4.7,108.3l69.44,12.25H3.62v8.9H74.14L4.7,141.69l1.54,8.77,69.45-12.25L9.42,162.33l3.05,8.36,66.26-24.11L17.66,181.83l4.45,7.71,61.07-35.26-54,45.33,5.72,6.82,54-45.33-45.33,54,6.82,5.72,45.32-54L60.46,227.89l7.71,4.45,35.25-61.07L79.31,237.53l8.36,3.05,24.12-66.26L99.54,243.76l8.76,1.54,12.25-69.44v70.52h8.9V175.86l12.24,69.44,8.77-1.54-12.25-69.44,24.12,66.26,8.36-3.05-24.11-66.26,35.25,61.07,7.71-4.45-35.26-61.07,45.33,54,6.82-5.72-45.33-54,54,45.33,5.72-6.82-54-45.33,61.07,35.26,4.45-7.71-61.07-35.25,66.26,24.11,3.05-8.36-66.27-24.12,69.45,12.25,1.54-8.77-69.44-12.24h70.52ZM125,166.22A41.22,41.22,0,1,1,166.22,125,41.23,41.23,0,0,1,125,166.22Z"/></svg>