<?xml version="1.0" encoding="utf-8"?>
<!-- Generator: Adobe Illustrator 25.0.1, SVG Export Plug-In . SVG Version: 6.00 Build 0)  -->
<svg version="1.1" id="Layer_1" xmlns="http://www.w3.org/2000/svg" xmlns:xlink="http://www.w3.org/1999/xlink" x="0px" y="0px"
	 viewBox="0 0 250 250" style="enable-background:new 0 0 250 250;" xml:space="preserve">
<style type="text/css">
	.st0{fill:none;stroke:#000000;stroke-miterlimit:10;}
</style>
<path d="M23.6,119.9c0.1-0.5,0.3-1,0.6-1.3c0.6-0.5,1.4-0.7,2.2-0.5c1.1,0,2.1,0.6,2.7,1.4c0.4,0.6,0.5,1.4,0.2,2.1
	c-0.2,0.3-0.5,0.5-1.1,0.8c-0.8,0.6-1.9,0.9-2.9,0.7c-0.4-0.1-0.7-0.3-1-0.6c-0.5-0.5-0.5-1.3-0.7-1.3c0,0-0.1,0-0.2,0.1
	c-0.2,0.2-0.4,0.5-0.5,0.7c-0.6,0.7-1.6,0.9-2.5,0.5c-0.4-0.3-0.6-0.7-1.1-0.7c-0.1,0-0.2,0-0.3,0c-1.5,0.2-1.5,0.2-1.5,0.2
	c-0.6,0-1.1-0.3-1.4-0.7c-0.3-0.4-0.3-0.9-0.2-1.4l0.1-0.1l0.1-0.1c0.3-0.3,0.7-0.4,1.2-0.4c0.7,0,1,0.4,1.7,0.3s0.5-0.5,1.2-0.7
	c0.7-0.3,1.5-0.2,2.2,0.2c0.4,0.3,0.5,0.8,1,0.9C23.4,120,23.5,120,23.6,119.9z"/>
<path d="M14,120c-0.4-0.9-1.1-1.6-1.9-2c-1-0.4-2-0.4-3-0.1c-2.3,0.4-5.1,1.6-4.9,2.5c0,0.1,0.1,0.3,0.3,0.4
	c2.1,1.7,3.2,2.7,5.1,2.7c1.8-0.1,3.6-0.9,4.7-2.3"/>
<path d="M15,121.1"/>
<path d="M15,120"/>
<path d="M15.9,121.2v-1.4c-0.4,0.1-0.8,0.1-1.2,0.1c-0.3,0-0.8-0.2-0.8-0.2l0.2,1.6"/>
<path class="st0" d="M27.1,115.3l-4.8,1.5c0,0-2.8,1.4-2.5,2.4"/>
<path class="st0" d="M19.6,121.7c0,0,0.1,1.3,0.6,1.5c0.7,0.5,1.4,0.9,2.2,1.2c0.7,0.2,4,1,4.3,1.5"/>
<path class="st0" d="M33.3,115.3c-1.1,0.4-2.2,0.9-3.3,1.5l-1.5,2.3l0,0"/>
<polyline class="st0" points="28.9,121.7 29.2,123.3 33.2,125.9 "/>
<line class="st0" x1="18.7" y1="110" x2="17.4" y2="119.6"/>
<line class="st0" x1="17.2" y1="121.8" x2="18.4" y2="131"/>
<polyline class="st0" points="16.7,121.7 15.4,123.1 15.5,124.6 8.4,131.6 "/>
<polyline class="st0" points="16.4,119.7 15.2,118.3 15.5,116.5 8.8,110.3 8.2,109.1 "/>
<path d="M55.7,116.6c0.1-0.5,0.3-1,0.6-1.3c0.6-0.5,1.4-0.7,2.2-0.5c1.1,0,2,0.6,2.6,1.4c0.4,0.6,0.5,1.4,0.2,2.1
	c-0.2,0.3-0.5,0.5-1.1,0.8c-0.8,0.6-1.9,0.8-2.9,0.7c-0.4-0.1-0.7-0.3-1-0.6c-0.5-0.5-0.5-1.3-0.7-1.3c0,0-0.1,0-0.2,0.1
	c-0.2,0.2-0.4,0.4-0.5,0.7c-0.6,0.7-1.7,0.9-2.5,0.4c-0.4-0.2-0.6-0.7-1.1-0.7c-0.1,0-0.2,0-0.3,0c-1.5,0.2-1.5,0.2-1.5,0.2
	c-0.6,0-1.1-0.3-1.4-0.7c-0.3-0.4-0.3-0.9-0.2-1.4c0,0,0-0.1,0.1-0.1l0.1-0.1c0.3-0.3,0.7-0.5,1.2-0.4c0.7,0,1,0.4,1.7,0.3
	s0.5-0.4,1.2-0.7c0.7-0.3,1.5-0.2,2.2,0.2c0.4,0.3,0.5,0.8,1,0.9C55.4,116.6,55.5,116.6,55.7,116.6z"/>
<path d="M46,116.6c-0.4-0.9-1.1-1.6-1.9-2c-1-0.4-2-0.4-3-0.1c-2.3,0.4-5.1,1.6-4.9,2.5c0,0.1,0.1,0.3,0.3,0.4
	c2.1,1.7,3.2,2.7,5.1,2.7c1.8-0.1,3.6-0.9,4.7-2.3"/>
<path d="M47,117.7"/>
<path d="M47.1,116.7"/>
<path d="M47.9,117.8v-1.4c-0.4,0.1-0.8,0.1-1.2,0.1c-0.3,0-0.8-0.2-0.8-0.2L46,118"/>
<path class="st0" d="M59.2,111.9l-4.8,1.5c0,0-2.8,1.4-2.5,2.4"/>
<path class="st0" d="M51.6,118.4c0,0,0.1,1.3,0.6,1.5c0.7,0.5,1.4,0.9,2.2,1.2c0.7,0.2,4,1,4.3,1.5"/>
<path class="st0" d="M65.3,112c-1.1,0.4-2.2,0.9-3.3,1.5l-1.5,2.3l0,0"/>
<polyline class="st0" points="60.9,118.4 61.3,119.9 65.3,122.6 "/>
<line class="st0" x1="50.7" y1="106.7" x2="49.5" y2="116.3"/>
<line class="st0" x1="49.2" y1="118.5" x2="50.5" y2="127.7"/>
<polyline class="st0" points="48.7,118.3 47.4,119.8 47.5,121.2 40.4,128.3 "/>
<polyline class="st0" points="48.5,116.3 47.2,114.9 47.5,113.2 40.9,106.9 40.2,105.7 "/>
<path d="M86.4,123c0.1-0.5,0.3-1,0.6-1.3c0.6-0.5,1.4-0.7,2.2-0.5c1.1,0,2.1,0.6,2.7,1.4c0.4,0.6,0.5,1.4,0.2,2.1
	c-0.2,0.3-0.5,0.5-1.1,0.8c-1.1,0.6-2,1-2.9,0.7c-0.4-0.1-0.7-0.3-1-0.6c-0.5-0.5-0.5-1.3-0.7-1.3c0,0-0.1,0-0.2,0.1
	c-0.2,0.2-0.4,0.5-0.5,0.7c-0.6,0.7-1.7,0.9-2.5,0.5c-0.4-0.3-0.6-0.7-1.1-0.7c-0.1,0-0.2,0-0.3,0l-1.5,0.2c-0.6,0-1.1-0.3-1.4-0.7
	c-0.3-0.4-0.4-0.9-0.2-1.4c0,0,0-0.1,0.1-0.1l0.1-0.1c0.3-0.3,0.7-0.4,1.2-0.4c0.7,0,1,0.4,1.7,0.3c0.7-0.1,0.5-0.5,1.2-0.7
	c0.7-0.3,1.5-0.2,2.2,0.2c0.4,0.3,0.5,0.8,1,0.9C86.1,123,86.3,123,86.4,123z"/>
<path d="M76.7,123c-0.4-0.9-1.1-1.6-1.9-2c-1-0.4-2-0.4-3-0.1c-2.3,0.4-5.1,1.6-4.9,2.5c0,0.1,0.1,0.3,0.2,0.4
	c2.1,1.7,3.2,2.7,5.2,2.7c1.8-0.1,3.6-0.9,4.7-2.3"/>
<path d="M77.8,124.1"/>
<path d="M77.8,123.1"/>
<path d="M78.6,124.2v-1.4c-0.4,0.1-0.8,0.1-1.2,0.1c-0.3,0-0.8-0.2-0.8-0.2l0.2,1.6"/>
<path class="st0" d="M89.9,118.3l-4.8,1.5c0,0-2.8,1.4-2.5,2.4"/>
<path class="st0" d="M82.3,124.8c0,0,0.1,1.3,0.5,1.6c0.7,0.4,1.4,0.8,2.2,1.2c0.7,0.2,4,1,4.3,1.5"/>
<path class="st0" d="M96.1,118.4c-1.1,0.4-2.2,0.9-3.3,1.5l-1.5,2.3l0,0"/>
<polyline class="st0" points="91.6,124.8 92,126.3 96,129 "/>
<line class="st0" x1="81.4" y1="113" x2="80.2" y2="122.7"/>
<line class="st0" x1="79.9" y1="124.9" x2="81.2" y2="134.1"/>
<polyline class="st0" points="79.4,124.7 78.1,126.2 78.3,127.6 71.2,134.7 "/>
<polyline class="st0" points="79.2,122.7 78,121.3 78.3,119.6 71.6,113.3 71,112.1 "/>
<path d="M115.9,115.7c0.1-0.5,0.3-0.9,0.6-1.3c0.6-0.5,1.4-0.7,2.2-0.5c1.1,0,2.1,0.6,2.7,1.4c0.4,0.6,0.5,1.4,0.2,2.1
	c-0.2,0.3-0.5,0.5-1.1,0.8c-1.1,0.6-2,1-2.9,0.7c-0.4-0.1-0.7-0.3-1-0.6c-0.5-0.5-0.5-1.3-0.7-1.3c0,0-0.1,0-0.2,0.1
	c-0.2,0.2-0.4,0.4-0.5,0.7c-0.6,0.7-1.7,0.9-2.5,0.5c-0.4-0.2-0.6-0.7-1.1-0.7c-0.1,0-0.2,0-0.3,0c-1.5,0.2-1.5,0.2-1.5,0.2
	c-0.6,0-1.1-0.3-1.4-0.7c-0.3-0.4-0.3-0.9-0.2-1.4c0,0,0-0.1,0.1-0.1l0.1-0.1c0.3-0.3,0.7-0.4,1.2-0.4c0.7,0,1,0.4,1.7,0.3
	c0.7-0.1,0.5-0.4,1.2-0.7c0.7-0.3,1.5-0.2,2.2,0.2c0.4,0.3,0.5,0.8,1,0.9C115.6,115.7,115.7,115.7,115.9,115.7z"/>
<path d="M106.2,115.7c-0.4-0.9-1.1-1.6-1.9-2c-1-0.4-2-0.4-3-0.1c-2.3,0.4-5.1,1.6-4.9,2.5c0,0.1,0.1,0.3,0.3,0.4
	c2.1,1.7,3.2,2.7,5.1,2.7c1.8-0.1,3.6-0.9,4.7-2.3"/>
<path d="M107.3,116.8"/>
<path d="M107.3,115.8"/>
<path d="M108.1,117v-1.4c-0.4,0.1-0.8,0.1-1.2,0.1c-0.3,0-0.8-0.2-0.8-0.2l0.2,1.6"/>
<path class="st0" d="M119.4,111l-4.8,1.5c0,0-2.7,1.4-2.5,2.4"/>
<path class="st0" d="M111.8,117.5c0,0,0.1,1.3,0.5,1.5c0.7,0.5,1.4,0.9,2.2,1.2c0.7,0.2,4,1.1,4.3,1.5"/>
<path class="st0" d="M125.5,111.1c-1.1,0.4-2.2,0.9-3.3,1.5l-1.6,2.2l0,0"/>
<polyline class="st0" points="121.1,117.5 121.5,119 125.5,121.7 "/>
<line class="st0" x1="110.9" y1="105.8" x2="109.7" y2="115.4"/>
<line class="st0" x1="109.4" y1="117.6" x2="110.7" y2="126.8"/>
<polyline class="st0" points="108.9,117.4 107.6,118.9 107.7,120.4 100.7,127.4 "/>
<polyline class="st0" points="108.7,115.4 107.5,114 107.7,112.3 101.1,106 100.5,104.8 "/>
<path d="M170.5,118.5c0.1-0.5,0.3-1,0.6-1.3c0.6-0.5,1.4-0.7,2.2-0.5c1.1,0,2.1,0.6,2.7,1.4c0.4,0.6,0.5,1.4,0.2,2.1
	c-0.2,0.3-0.5,0.5-1.1,0.8c-1.1,0.6-2,1-2.9,0.7c-0.4-0.1-0.7-0.3-1-0.6c-0.5-0.5-0.5-1.3-0.7-1.3c0,0-0.1,0-0.2,0.1
	c-0.2,0.2-0.4,0.5-0.5,0.7c-0.6,0.7-1.6,0.9-2.5,0.5c-0.4-0.3-0.6-0.7-1.1-0.7c-0.1,0-0.2,0-0.3,0c-1.4,0.2-1.5,0.2-1.5,0.2
	c-0.6,0-1.1-0.3-1.4-0.7c-0.3-0.4-0.3-0.9-0.2-1.4c0,0,0.1-0.1,0.1-0.1l0.1-0.1c0.3-0.3,0.7-0.4,1.2-0.4c0.7,0,1,0.4,1.7,0.3
	s0.5-0.5,1.2-0.7c0.7-0.3,1.5-0.2,2.2,0.2c0.4,0.3,0.5,0.8,1,0.9C170.2,118.6,170.3,118.6,170.5,118.5z"/>
<path d="M160.8,118.6c-0.4-0.9-1.1-1.6-1.9-2c-1-0.4-2-0.4-3-0.1c-2.3,0.4-5.1,1.6-4.9,2.5c0,0.2,0.1,0.3,0.2,0.4
	c2.1,1.7,3.2,2.7,5.1,2.7c1.8-0.1,3.6-0.9,4.7-2.3"/>
<path d="M161.8,119.7"/>
<path d="M161.9,118.6"/>
<path d="M162.7,119.8v-1.4c-0.4,0.1-0.8,0.1-1.2,0.1c-0.3-0.1-0.8-0.2-0.8-0.2l0.2,1.6"/>
<path class="st0" d="M174,113.9l-4.8,1.5c0,0-2.8,1.4-2.5,2.4"/>
<path class="st0" d="M166.4,120.3c0,0,0.1,1.3,0.6,1.5c0.7,0.5,1.4,0.9,2.2,1.2c0.7,0.2,4,1.1,4.3,1.5"/>
<path class="st0" d="M180.1,113.9c-1.1,0.4-2.2,0.9-3.3,1.5l-1.5,2.3l0,0"/>
<polyline class="st0" points="175.7,120.3 176.1,121.9 180.1,124.5 "/>
<line class="st0" x1="165.5" y1="108.6" x2="164.3" y2="118.2"/>
<line class="st0" x1="164" y1="120.4" x2="165.3" y2="129.6"/>
<polyline class="st0" points="163.5,120.3 162.2,121.7 162.3,123.2 155.2,130.2 "/>
<polyline class="st0" points="163.3,118.3 162,116.9 162.3,115.1 155.7,108.9 155,107.7 "/>
<path d="M203,122.6c0.1-0.5,0.3-1,0.6-1.3c0.6-0.5,1.4-0.7,2.2-0.5c1.1,0,2.1,0.6,2.7,1.4c0.4,0.6,0.5,1.4,0.2,2.1
	c-0.2,0.3-0.5,0.5-1.1,0.8c-0.8,0.6-1.9,0.9-2.9,0.7c-0.4-0.1-0.7-0.3-1-0.6c-0.5-0.5-0.5-1.3-0.7-1.3c0,0-0.1,0-0.2,0.1
	c-0.2,0.2-0.4,0.5-0.5,0.7c-0.6,0.7-1.6,0.9-2.5,0.5c-0.4-0.2-0.6-0.7-1.1-0.7h-0.3c-1.5,0.2-1.5,0.2-1.5,0.2
	c-0.6,0-1.1-0.3-1.4-0.7c-0.3-0.4-0.3-0.9-0.2-1.4l0.1-0.1l0.1-0.1c0.3-0.3,0.7-0.4,1.2-0.4c0.7,0,1,0.4,1.7,0.3
	c0.7-0.1,0.5-0.5,1.2-0.7c0.7-0.3,1.5-0.2,2.2,0.2c0.4,0.3,0.5,0.8,1,0.9C202.8,122.7,202.9,122.7,203,122.6z"/>
<path d="M193.4,122.7c-0.4-0.9-1.1-1.6-1.9-2c-1-0.4-2-0.4-3-0.1c-2.3,0.4-5.1,1.6-4.9,2.5c0,0.1,0.1,0.3,0.3,0.4
	c2.1,1.7,3.2,2.7,5.1,2.7c1.8-0.1,3.6-0.9,4.7-2.3"/>
<path d="M194.4,123.8"/>
<path d="M194.4,122.7"/>
<path d="M195.3,123.9v-1.4c-0.4,0.1-0.8,0.1-1.2,0.1c-0.3,0-0.8-0.2-0.8-0.2l0.2,1.6"/>
<path class="st0" d="M206.5,118l-4.8,1.5c0,0-2.8,1.4-2.5,2.4"/>
<path class="st0" d="M198.9,124.4c0,0,0.1,1.3,0.6,1.5c0.7,0.5,1.4,0.9,2.2,1.2c0.7,0.2,4,1,4.3,1.5"/>
<path class="st0" d="M212.7,118.1c-1.1,0.4-2.2,0.9-3.3,1.5l-1.5,2.3l0,0"/>
<polyline class="st0" points="208.3,124.5 208.6,126 212.6,128.7 "/>
<line class="st0" x1="198.1" y1="112.7" x2="196.8" y2="122.3"/>
<line class="st0" x1="196.5" y1="124.6" x2="197.8" y2="133.7"/>
<polyline class="st0" points="196,124.4 194.8,125.9 194.9,127.3 187.8,134.3 "/>
<polyline class="st0" points="195.8,122.4 194.6,121 194.9,119.2 188.2,113 187.6,111.8 "/>
<path d="M236,120.2c0.1-0.5,0.3-0.9,0.6-1.3c0.6-0.5,1.4-0.7,2.2-0.5c1.1,0,2.1,0.6,2.7,1.4c0.4,0.6,0.5,1.4,0.2,2.1
	c-0.2,0.3-0.5,0.5-1.1,0.8c-1.1,0.6-2,1-2.9,0.7c-0.4-0.1-0.7-0.3-1-0.6c-0.5-0.5-0.5-1.3-0.7-1.3c0,0-0.1,0-0.2,0.1
	c-0.2,0.2-0.4,0.5-0.5,0.7c-0.6,0.7-1.7,0.9-2.5,0.5c-0.4-0.2-0.6-0.7-1.1-0.7c-0.1,0-0.2,0-0.3,0c-0.5,0.1-1,0.1-1.5,0.2
	c-0.6,0-1.1-0.3-1.4-0.7c-0.3-0.4-0.4-0.9-0.2-1.4c0,0,0-0.1,0.1-0.1l0.1-0.1c0.3-0.3,0.7-0.4,1.2-0.4c0.7,0,1,0.4,1.7,0.3
	c0.7-0.1,0.5-0.4,1.2-0.7c0.7-0.3,1.5-0.2,2.2,0.2c0.4,0.3,0.5,0.8,1,0.9C235.8,120.2,235.9,120.2,236,120.2z"/>
<path d="M226.4,120.3c-0.4-0.9-1.1-1.6-1.9-2c-1-0.4-2-0.4-3-0.1c-2.3,0.4-5.1,1.6-4.9,2.5c0,0.1,0.1,0.3,0.2,0.4
	c2.1,1.7,3.2,2.7,5.2,2.7c1.8-0.1,3.6-0.9,4.7-2.3"/>
<path d="M227.4,121.4"/>
<path d="M227.4,120.3"/>
<path d="M228.3,121.5v-1.4c-0.4,0.1-0.8,0.2-1.2,0.2c-0.3,0-0.8-0.2-0.8-0.2l0.2,1.6"/>
<path class="st0" d="M239.5,115.5l-4.8,1.5c0,0-2.8,1.4-2.5,2.4"/>
<path class="st0" d="M232,122c0,0,0.1,1.3,0.5,1.6c0.7,0.5,1.5,0.9,2.2,1.2c0.7,0.2,4,1,4.3,1.5"/>
<path class="st0" d="M245.7,115.6c-1.1,0.4-2.2,0.9-3.3,1.5l-1.5,2.3l0,0"/>
<polyline class="st0" points="241.3,122 241.6,123.5 245.6,126.2 "/>
<line class="st0" x1="231.1" y1="110.3" x2="229.8" y2="119.9"/>
<line class="st0" x1="229.6" y1="122.1" x2="230.8" y2="131.3"/>
<polyline class="st0" points="229,122 227.8,123.4 227.9,124.9 220.8,131.9 "/>
<polyline class="st0" points="228.8,120 227.6,118.6 227.9,116.8 221.2,110.5 220.6,109.3 "/>
<path d="M77.4,215.1c-0.3-0.4-0.6-0.8-0.6-1.3c0-0.8,0.3-1.5,0.9-2c0.7-0.8,1.7-1.3,2.8-1.2c0.1,0,1.4,0.2,1.8,1.1
	c0.1,0.4,0.1,0.9-0.1,1.3c-0.3,1.2-0.5,2.2-1.3,2.7c-0.3,0.2-0.7,0.4-1.1,0.4c-0.7,0.1-1.3-0.4-1.5-0.2c0,0,0,0,0,0.2
	c0,0.3,0.1,0.6,0.3,0.8c0.2,0.9-0.3,1.8-1.1,2.2c-0.4,0.2-0.9,0-1.3,0.4c0,0.1-0.1,0.1-0.2,0.3c-0.8,1.2-0.8,1.2-0.8,1.3
	c-0.4,0.4-0.9,0.7-1.5,0.7c-0.5,0-0.9-0.3-1.2-0.7c0,0,0-0.1,0-0.1V221c0-0.4,0.1-0.9,0.4-1.2c0.5-0.6,0.9-0.5,1.3-1.1
	c0.4-0.6,0-0.7,0.2-1.4c0.2-0.7,0.8-1.4,1.5-1.6c0.5-0.1,1,0.1,1.3-0.2C77.4,215.4,77.4,215.2,77.4,215.1z"/>
<path d="M71.5,222.7c-0.9-0.2-1.9-0.1-2.8,0.3c-0.9,0.5-1.6,1.3-2,2.3c-1.1,2.1-1.9,5-1.1,5.4c0.1,0.1,0.3,0.1,0.4,0
	c2.7-0.5,4.1-0.8,5.3-2.4c1.1-1.5,1.5-3.4,1.1-5.2"/>
<path d="M73,222.5"/>
<path d="M72.2,221.8"/>
<path d="M73.6,221.9l-1.1-0.9c-0.2,0.4-0.4,0.7-0.7,1c-0.2,0.2-0.7,0.5-0.7,0.5l1.3,0.9"/>
<path class="st0" d="M76,209.4l-1.7,4.7c0,0-0.6,3,0.3,3.4"/>
<path class="st0" d="M76.3,219.4c0,0,1.1,0.8,1.6,0.5c0.8-0.3,1.6-0.6,2.3-1c0.6-0.4,3.3-2.5,3.8-2.4"/>
<path class="st0" d="M79.9,204.7c-0.4,1.1-0.7,2.3-0.9,3.5l0.8,2.6l0,0"/>
<polyline class="st0" points="82.1,212.1 83.5,212.8 88.1,211.3 "/>
<line class="st0" x1="66.6" y1="212.8" x2="73.3" y2="219.7"/>
<line class="st0" x1="74.9" y1="221.3" x2="82.9" y2="226"/>
<polyline class="st0" points="74.5,221.6 74.8,223.5 76,224.3 77.1,234.3 "/>
<polyline class="st0" points="72.8,220.6 70.9,220.6 69.7,219.3 60.7,220.6 59.3,220.4 "/>
<path d="M90.7,183.6c-0.4-0.3-0.7-0.6-0.9-1.1c-0.2-0.8,0-1.6,0.4-2.2c0.5-1,1.4-1.6,2.4-1.8c0.7-0.1,1.5,0.2,2,0.7
	c0.2,0.4,0.3,0.9,0.2,1.3c0,1.3,0,2.2-0.6,2.9c-0.2,0.3-0.6,0.5-0.9,0.7c-0.7,0.2-1.4-0.1-1.5,0.1c0,0,0,0.1,0,0.2
	c0.1,0.3,0.2,0.5,0.4,0.8c0.4,0.9,0.1,1.9-0.6,2.5c-0.4,0.3-0.9,0.2-1.1,0.7c0,0.1-0.1,0.2-0.1,0.3c-0.4,1.4-0.4,1.4-0.5,1.5
	c-0.3,0.5-0.7,0.8-1.3,1c-0.5,0.1-1-0.1-1.3-0.5l-0.1-0.1v-0.1c-0.1-0.4-0.1-0.9,0.1-1.3c0.3-0.7,0.8-0.7,1-1.4s-0.2-0.7-0.2-1.4
	c0-0.8,0.4-1.5,1.1-1.9c0.5-0.2,1-0.1,1.2-0.5C90.7,183.9,90.7,183.7,90.7,183.6z"/>
<path d="M86.7,192.3c-0.9,0-1.9,0.3-2.6,0.9c-0.7,0.7-1.2,1.7-1.4,2.7c-0.6,2.3-0.7,5.3,0.1,5.5c0.1,0,0.3,0,0.4-0.1
	c2.5-1.1,3.8-1.7,4.6-3.5c0.7-1.7,0.7-3.6-0.1-5.3"/>
<path d="M88.1,191.9"/>
<path d="M87.2,191.4"/>
<path d="M88.6,191.1l-1.3-0.6c-0.1,0.4-0.2,0.8-0.4,1.1c-0.2,0.3-0.5,0.6-0.5,0.6l1.5,0.5"/>
<path class="st0" d="M88,178.4l-0.7,5c0,0,0.1,3.1,1.1,3.3"/>
<path class="st0" d="M90.6,188c0,0,1.2,0.5,1.6,0.2c0.7-0.5,1.4-1,2-1.5c0.5-0.6,2.7-3.2,3.1-3.3"/>
<path class="st0" d="M90.7,172.9c-0.1,1.2-0.2,2.4-0.1,3.6l1.4,2.3l0,0"/>
<polyline class="st0" points="94.6,179.6 96.1,179.9 100.3,177.4 "/>
<line class="st0" x1="79.6" y1="183.9" x2="87.8" y2="189.1"/>
<line class="st0" x1="89.7" y1="190.3" x2="98.6" y2="193"/>
<polyline class="st0" points="89.4,190.7 90.1,192.4 91.5,192.9 94.9,202.3 "/>
<polyline class="st0" points="87.5,190 85.7,190.5 84.2,189.5 75.7,192.9 74.4,192.9 "/>
<path d="M111,162.2c-0.3-0.4-0.5-0.8-0.5-1.3c0-0.8,0.4-1.5,1-2c0.7-0.8,1.8-1.2,2.9-1.1c0.1,0,1.4,0.3,1.7,1.2
	c0.1,0.5,0,0.9-0.2,1.3c-0.3,1.2-0.6,2.1-1.4,2.6c-0.3,0.2-0.7,0.4-1.1,0.4c-0.7,0-1.3-0.5-1.5-0.3c0,0,0,0,0,0.2
	c0,0.3,0.1,0.6,0.2,0.9c0.1,0.9-0.4,1.8-1.3,2.2c-0.4,0.1-0.9,0-1.3,0.4c-0.1,0.1-0.1,0.2-0.2,0.3c-0.8,1.2-0.8,1.2-0.9,1.3
	c-0.4,0.4-0.9,0.6-1.5,0.6c-0.5-0.1-0.9-0.4-1.1-0.8c0,0,0-0.1,0-0.1c0,0,0-0.1,0-0.1c0-0.4,0.2-0.9,0.5-1.2c0.5-0.5,1-0.5,1.4-1.1
	s0-0.7,0.2-1.4c0.3-0.7,0.8-1.3,1.6-1.5c0.5-0.1,0.9,0.2,1.3-0.1C110.9,162.4,111,162.3,111,162.2z"/>
<path d="M104.6,169.5c-0.9-0.3-1.9-0.2-2.8,0.1c-0.9,0.5-1.7,1.2-2.1,2.2c-1.2,2-2.2,4.8-1.4,5.3c0.1,0.1,0.3,0.1,0.4,0.1
	c2.7-0.4,4.1-0.6,5.5-2.1c1.2-1.4,1.7-3.3,1.4-5.1"/>
<path d="M106.1,169.5"/>
<path d="M105.4,168.7"/>
<path d="M106.8,168.9l-1.1-0.9c-0.2,0.4-0.4,0.7-0.7,1c-0.3,0.2-0.7,0.5-0.7,0.5l1.3,0.9"/>
<path class="st0" d="M109.9,156.5l-2.1,4.6c0,0-0.8,3,0.1,3.5"/>
<path class="st0" d="M109.6,166.5c0,0,1.1,0.8,1.5,0.6c0.8-0.2,1.6-0.5,2.4-0.9c0.7-0.4,3.4-2.3,3.9-2.2"/>
<path class="st0" d="M114,152c-0.5,1.1-0.8,2.3-1.1,3.4l0.7,2.7l0,0"/>
<polyline class="st0" points="115.8,159.5 117.2,160.3 121.9,159.1 "/>
<line class="st0" x1="100.3" y1="159.4" x2="106.7" y2="166.7"/>
<line class="st0" x1="108.1" y1="168.4" x2="115.8" y2="173.5"/>
<polyline class="st0" points="107.7,168.6 107.9,170.6 109.1,171.4 109.6,181.4 "/>
<polyline class="st0" points="106,167.5 104.2,167.4 103,166.1 93.9,166.9 92.6,166.6 "/>
<path d="M118.7,131.9c-0.3-0.4-0.5-0.8-0.5-1.3c0-0.8,0.4-1.5,1-2c0.7-0.8,1.8-1.2,2.9-1.1c0.1,0,1.4,0.3,1.7,1.2
	c0.1,0.5,0,0.9-0.2,1.3c-0.3,1.2-0.6,2.1-1.4,2.6c-0.3,0.2-0.7,0.4-1.1,0.4c-0.7,0-1.3-0.5-1.5-0.3c0,0,0,0,0,0.2
	c0,0.3,0.1,0.6,0.2,0.8c0.1,0.9-0.4,1.8-1.3,2.2c-0.4,0.1-0.9,0-1.3,0.4c-0.1,0.1-0.1,0.2-0.2,0.3c-0.8,1.2-0.8,1.2-0.9,1.3
	c-0.4,0.4-0.9,0.6-1.5,0.6c-0.5-0.1-0.9-0.4-1.1-0.8c0,0,0-0.1,0-0.1c0,0,0-0.1,0-0.1c0-0.4,0.2-0.9,0.5-1.2c0.5-0.5,1-0.5,1.4-1
	c0.4-0.6,0-0.7,0.3-1.4c0.2-0.7,0.8-1.3,1.6-1.5c0.5-0.1,1,0.2,1.3-0.2C118.7,132.1,118.7,132,118.7,131.9z"/>
<path d="M112.4,139.2c-0.9-0.3-1.9-0.2-2.8,0.1c-0.9,0.5-1.7,1.2-2.1,2.2c-1.2,2-2.2,4.8-1.4,5.3c0.1,0.1,0.3,0.1,0.4,0.1
	c2.7-0.4,4.1-0.6,5.5-2.1c1.2-1.4,1.7-3.3,1.4-5.1"/>
<path d="M113.9,139.1"/>
<path d="M113.1,138.4"/>
<path d="M114.5,138.5l-1.1-0.9c-0.2,0.4-0.4,0.7-0.7,1c-0.3,0.2-0.7,0.5-0.7,0.5l1.3,0.9"/>
<path class="st0" d="M117.6,126.2l-2.1,4.6c0,0-0.8,3,0.1,3.5"/>
<path class="st0" d="M117.4,136.1c0,0,1.1,0.8,1.5,0.6c0.8-0.2,1.6-0.5,2.4-0.9c0.7-0.4,3.4-2.3,3.9-2.2"/>
<path class="st0" d="M121.7,121.7c-0.5,1.1-0.8,2.3-1.1,3.4l0.7,2.7l0,0"/>
<polyline class="st0" points="123.6,129.2 125,129.9 129.6,128.7 "/>
<line class="st0" x1="108" y1="129" x2="114.4" y2="136.3"/>
<line class="st0" x1="115.9" y1="138" x2="123.6" y2="143.2"/>
<polyline class="st0" points="115.4,138.3 115.6,140.2 116.8,141.1 117.4,151 "/>
<polyline class="st0" points="113.8,137.1 111.9,137.1 110.8,135.7 101.7,136.5 100.4,136.2 "/>
<path d="M166.8,59.1c-0.3-0.4-0.5-0.8-0.6-1.3c0-0.8,0.4-1.5,0.9-2c0.7-0.8,1.7-1.3,2.8-1.2c0.1,0,1.4,0.2,1.8,1.2
	c0.1,0.4,0.1,0.9-0.1,1.3c-0.3,1.2-0.5,2.2-1.3,2.7c-0.3,0.2-0.7,0.4-1.1,0.4c-0.7,0.1-1.3-0.4-1.5-0.2c0,0,0,0.1,0,0.2
	c0,0.3,0.1,0.6,0.3,0.8c0.1,0.9-0.4,1.8-1.2,2.2c-0.4,0.2-0.9,0-1.3,0.4c-0.1,0.1-0.1,0.2-0.2,0.3c-0.8,1.2-0.8,1.2-0.8,1.3
	c-0.4,0.4-0.9,0.6-1.5,0.6c-0.5,0-0.9-0.3-1.2-0.8V65v-0.1c0-0.4,0.1-0.9,0.4-1.2c0.5-0.6,0.9-0.5,1.3-1.1c0.4-0.6,0-0.7,0.2-1.4
	c0.2-0.8,0.8-1.4,1.5-1.6c0.5-0.1,1,0.1,1.3-0.2C166.7,59.4,166.7,59.3,166.8,59.1z"/>
<path d="M160.7,66.7c-0.9-0.2-1.9-0.2-2.7,0.2c-0.9,0.5-1.6,1.3-2,2.3c-1.2,2.1-2,4.9-1.2,5.5c0.1,0,0.3,0,0.4,0
	c2.7-0.5,4.1-0.8,5.3-2.3c1.1-1.5,1.6-3.3,1.2-5.2"/>
<path d="M162.2,66.6"/>
<path d="M161.4,65.9"/>
<path d="M162.9,66l-1.1-0.9c-0.2,0.4-0.4,0.7-0.7,1c-0.3,0.2-0.7,0.5-0.7,0.5l1.3,0.9"/>
<path class="st0" d="M165.4,53.5l-1.9,4.7c0,0-0.6,3,0.3,3.5"/>
<path class="st0" d="M165.6,63.5c0,0,1.1,0.8,1.5,0.6c0.8-0.3,1.6-0.6,2.3-1c0.6-0.4,3.3-2.5,3.8-2.4"/>
<path class="st0" d="M169.3,48.8c-0.4,1.1-0.7,2.3-0.9,3.5l0.8,2.6l0,0"/>
<polyline class="st0" points="171.5,56.3 172.9,56.9 177.5,55.5 "/>
<line class="st0" x1="155.9" y1="56.8" x2="162.6" y2="63.8"/>
<line class="st0" x1="164.2" y1="65.4" x2="172.1" y2="70.2"/>
<polyline class="st0" points="163.7,65.7 164,67.6 165.3,68.4 166.2,78.4 "/>
<polyline class="st0" points="162,64.6 160.2,64.7 159,63.3 149.9,64.5 148.6,64.3 "/>
<path d="M153.1,85.6c-0.3-0.4-0.5-0.8-0.6-1.3c0-0.8,0.3-1.5,0.9-2c0.7-0.8,1.7-1.2,2.8-1.2c0.1,0,1.4,0.2,1.8,1.2
	c0.1,0.4,0.1,0.9-0.1,1.3c-0.3,1.2-0.5,2.2-1.3,2.7c-0.3,0.2-0.7,0.4-1.1,0.4c-0.7,0-1.3-0.4-1.5-0.2c0,0,0,0.1,0,0.2
	c0,0.3,0.1,0.6,0.3,0.8c0.1,0.9-0.4,1.8-1.2,2.2c-0.4,0.2-0.9,0-1.3,0.4c-0.1,0.1-0.1,0.2-0.2,0.3c-0.8,1.2-0.8,1.2-0.8,1.3
	c-0.4,0.4-0.9,0.6-1.5,0.6c-0.5,0-0.9-0.3-1.2-0.8v-0.1v-0.1c0-0.4,0.1-0.9,0.4-1.2c0.5-0.6,0.9-0.5,1.3-1.1c0.4-0.6,0-0.7,0.2-1.4
	c0.2-0.8,0.8-1.4,1.5-1.6c0.5-0.1,1,0.1,1.3-0.2C153,85.8,153,85.7,153.1,85.6z"/>
<path d="M147,93.1c-0.9-0.2-1.9-0.2-2.7,0.2c-0.9,0.5-1.6,1.3-2,2.3c-1.2,2.1-2,4.9-1.2,5.5c0.1,0.1,0.3,0.1,0.4,0
	c2.7-0.5,4.1-0.8,5.3-2.3c1.1-1.5,1.6-3.3,1.2-5.2"/>
<path d="M148.5,93"/>
<path d="M147.7,92.3"/>
<path d="M149.2,92.4l-1.1-0.9c-0.2,0.4-0.4,0.7-0.7,1c-0.3,0.2-0.7,0.5-0.7,0.5l1.3,0.9"/>
<path class="st0" d="M151.7,79.9l-1.9,4.7c0,0-0.6,3,0.3,3.5"/>
<path class="st0" d="M151.9,89.9c0,0,1.1,0.8,1.6,0.6c0.8-0.3,1.6-0.6,2.3-1c0.6-0.4,3.3-2.5,3.8-2.4"/>
<path class="st0" d="M155.6,75.2c-0.4,1.1-0.7,2.3-0.9,3.5l0.8,2.6l0,0"/>
<polyline class="st0" points="157.8,82.7 159.2,83.4 163.8,82 "/>
<line class="st0" x1="142.3" y1="83.2" x2="148.9" y2="90.2"/>
<line class="st0" x1="150.5" y1="91.8" x2="158.4" y2="96.6"/>
<polyline class="st0" points="150.1,92.1 150.3,94 151.6,94.9 152.5,104.8 "/>
<polyline class="st0" points="148.3,91 146.5,91.1 145.3,89.8 136.2,91 134.9,90.7 "/>
<path d="M190.3,26.2c-0.3-0.4-0.6-0.8-0.6-1.3c0-0.8,0.4-1.5,0.9-2c0.7-0.8,1.7-1.2,2.8-1.2c0.1,0,1.4,0.2,1.8,1.2
	c0.1,0.4,0.1,0.9-0.1,1.3c-0.3,1.2-0.5,2.1-1.3,2.7c-0.3,0.2-0.7,0.4-1.1,0.4c-0.7,0-1.3-0.4-1.5-0.2c0,0,0,0.1,0,0.2
	c0,0.3,0.1,0.6,0.3,0.8c0.1,0.9-0.4,1.8-1.2,2.2c-0.4,0.2-0.9,0-1.3,0.4c-0.1,0.1-0.1,0.2-0.2,0.3c-0.8,1.2-0.8,1.2-0.8,1.3
	c-0.4,0.4-0.9,0.6-1.5,0.6c-0.5,0-0.9-0.3-1.2-0.8c0,0,0-0.1,0-0.1V32c0-0.4,0.1-0.9,0.4-1.2c0.5-0.6,0.9-0.5,1.3-1.1
	c0.4-0.6,0-0.7,0.2-1.4c0.2-0.8,0.8-1.3,1.5-1.6c0.5-0.1,0.9,0.1,1.3-0.2C190.2,26.4,190.3,26.3,190.3,26.2z"/>
<path d="M184.3,33.7c-0.9-0.2-1.9-0.2-2.8,0.2c-0.9,0.5-1.6,1.3-2,2.3c-1.2,2.1-2,4.9-1.2,5.4c0.1,0.1,0.3,0.1,0.4,0
	c2.7-0.5,4.1-0.8,5.3-2.3c1.1-1.5,1.6-3.3,1.2-5.1"/>
<path d="M185.8,33.6"/>
<path d="M185,32.9"/>
<path d="M186.4,33l-1.1-0.9c-0.2,0.4-0.4,0.7-0.7,1c-0.2,0.2-0.7,0.5-0.7,0.5l1.3,0.9"/>
<path class="st0" d="M189,20.5l-1.9,4.8c0,0-0.7,3,0.3,3.4"/>
<path class="st0" d="M189.2,30.5c0,0,1.1,0.8,1.5,0.6c0.8-0.3,1.6-0.6,2.3-1c0.6-0.4,3.3-2.5,3.8-2.4"/>
<path class="st0" d="M192.9,15.8c-0.4,1.1-0.7,2.3-0.9,3.5l0.8,2.6l0,0"/>
<polyline class="st0" points="195.1,23.3 196.5,24 201.1,22.6 "/>
<line class="st0" x1="179.5" y1="23.8" x2="186.2" y2="30.8"/>
<line class="st0" x1="187.7" y1="32.4" x2="195.7" y2="37.2"/>
<polyline class="st0" points="187.3,32.7 187.6,34.6 188.8,35.5 189.8,45.4 "/>
<polyline class="st0" points="185.6,31.6 183.7,31.7 182.6,30.4 173.5,31.6 172.2,31.3 "/>
<path d="M187.8,213.5c-0.5,0.2-1,0.2-1.4,0.1c-0.7-0.3-1.3-0.8-1.6-1.6c-0.5-0.9-0.6-2.1-0.2-3c0-0.1,0.7-1.3,1.7-1.3
	c0.3,0,0.6,0.2,1.2,0.5c1.1,0.7,1.8,1.2,2.1,2.1c0.1,0.4,0.1,0.7,0,1.1c-0.2,0.7-0.9,1.1-0.7,1.3c0,0,0,0,0.2,0.1
	c0.3,0.1,0.6,0.1,0.9,0c0.7-0.1,1.7,1,1.7,1.9c0,0.5-0.3,0.9,0,1.3c0.1,0.1,0.1,0.2,0.2,0.3l1,1.2c0.3,0.5,0.3,1.1,0.1,1.6
	c-0.2,0.5-0.6,0.8-1.1,0.9h-0.2c-0.4-0.1-0.8-0.4-1-0.8c-0.4-0.6-0.2-1.1-0.6-1.6c-0.4-0.5-0.7-0.2-1.2-0.6c-0.6-0.5-1-1.2-1-2
	c0.1-0.5,0.4-0.9,0.2-1.3C188,213.6,187.9,213.6,187.8,213.5z"/>
<path d="M192.9,221.7c-0.5,0.8-0.8,1.7-0.7,2.7c0.2,1,0.7,1.9,1.5,2.6c1.5,1.8,4,3.5,4.7,2.9c0.1-0.1,0.2-0.2,0.2-0.4
	c0.4-2.7,0.6-4.1-0.4-5.8c-1-1.5-2.6-2.6-4.5-2.8"/>
<path d="M193.3,220.2"/>
<path d="M192.4,220.8"/>
<path d="M192.9,219.4l-1.2,0.7c0.3,0.3,0.5,0.6,0.7,1c0.1,0.3,0.3,0.8,0.3,0.8l1.3-1"/>
<path class="st0" d="M182,212.9l3.8,3.3c0,0,2.6,1.6,3.4,0.9"/>
<path class="st0" d="M191.5,216c0,0,1.1-0.8,1.1-1.3c0-0.8,0-1.7-0.1-2.5c-0.2-0.7-1.2-4-1-4.4"/>
<path class="st0" d="M178.9,207.6c0.9,0.8,1.9,1.5,3,2l2.7,0.1l0,0"/>
<polyline class="st0" points="186.6,208.1 187.7,206.9 187.9,202.1 "/>
<line class="st0" x1="181.9" y1="222.9" x2="190.8" y2="218.9"/>
<line class="st0" x1="192.8" y1="218" x2="200" y2="212.1"/>
<polyline class="st0" points="193,218.5 194.9,218.9 196,218 205.7,220.4 "/>
<polyline class="st0" points="191.4,219.7 190.8,221.5 189.1,222.2 187.3,231.1 186.6,232.3 "/>
<path d="M171.3,180.4c-0.5,0.2-1,0.3-1.4,0.1c-0.7-0.3-1.3-0.8-1.6-1.6c-0.5-0.9-0.6-2-0.2-3c0-0.1,0.7-1.3,1.7-1.3
	c0.5,0.1,0.9,0.3,1.2,0.5c1.1,0.7,1.9,1.2,2.1,2.1c0.1,0.4,0.1,0.7,0,1.1c-0.2,0.7-0.9,1.1-0.7,1.3c0,0,0,0.1,0.2,0.1
	c0.3,0.1,0.6,0.1,0.9,0c0.7,0,1.7,1,1.7,1.9c0,0.5-0.3,0.9,0,1.3c0,0.1,0.1,0.2,0.2,0.3c0.3,0.4,0.7,0.8,1,1.2
	c0.3,0.5,0.3,1.1,0.1,1.6c-0.2,0.5-0.6,0.8-1.1,0.8h-0.1h-0.1c-0.4-0.1-0.8-0.4-1-0.8c-0.4-0.6-0.2-1.1-0.6-1.6
	c-0.4-0.5-0.7-0.2-1.2-0.6c-0.6-0.5-1-1.2-1-2c0.1-0.5,0.4-0.9,0.2-1.3C171.5,180.6,171.4,180.5,171.3,180.4z"/>
<path d="M176.4,188.6c-0.5,0.8-0.8,1.7-0.7,2.7c0.2,1,0.7,1.9,1.5,2.6c1.5,1.8,4,3.5,4.7,2.9c0.1-0.1,0.2-0.3,0.2-0.4
	c0.4-2.7,0.6-4.1-0.4-5.8c-1-1.5-2.6-2.6-4.5-2.8"/>
<path d="M176.8,187.1"/>
<path d="M175.9,187.7"/>
<path d="M176.4,186.3l-1.2,0.7c0.3,0.3,0.5,0.6,0.7,1c0.1,0.3,0.3,0.8,0.3,0.8l1.3-0.9"/>
<path class="st0" d="M165.5,179.8l3.8,3.3c0,0,2.6,1.6,3.3,0.9"/>
<path class="st0" d="M175,182.9c0,0,1.1-0.8,1.1-1.3c0-0.8,0-1.7-0.1-2.5c-0.2-0.7-1.2-4-1-4.4"/>
<path class="st0" d="M162.4,174.5c0.9,0.8,1.9,1.5,3,2l2.7,0.1l0,0"/>
<polyline class="st0" points="170.1,175 171.2,173.9 171.4,169 "/>
<line class="st0" x1="165.4" y1="189.8" x2="174.3" y2="185.8"/>
<line class="st0" x1="176.3" y1="184.9" x2="183.5" y2="179"/>
<polyline class="st0" points="176.5,185.4 178.3,185.8 179.5,184.9 189.2,187.3 "/>
<polyline class="st0" points="174.8,186.7 174.3,188.4 172.6,189.1 170.7,198 170.1,199.2 "/>
<path d="M148,156.8c-0.5,0.2-1,0.2-1.4,0.1c-0.7-0.3-1.3-0.8-1.6-1.6c-0.5-0.9-0.6-2.1-0.2-3c0.1-0.1,0.7-1.3,1.7-1.3
	c0.5,0.1,0.9,0.3,1.2,0.6c1.1,0.7,1.9,1.2,2.1,2.1c0.1,0.4,0.1,0.7,0,1.1c-0.2,0.7-0.9,1.1-0.7,1.3c0,0,0,0.1,0.2,0.1
	c0.3,0.1,0.6,0.1,0.9,0c0.7-0.1,1.7,1,1.7,1.9c0,0.5-0.3,0.9,0,1.3c0,0.1,0.1,0.2,0.2,0.3c0.9,1.1,0.9,1.1,1,1.2
	c0.3,0.5,0.3,1.1,0.1,1.6c-0.2,0.5-0.6,0.8-1.1,0.9h-0.3c-0.4-0.1-0.8-0.4-1-0.8c-0.4-0.6-0.2-1.1-0.6-1.6c-0.4-0.5-0.7-0.2-1.2-0.6
	c-0.6-0.4-1-1.2-1-2c0.1-0.5,0.4-0.9,0.2-1.3C148.2,157,148.1,156.9,148,156.8z"/>
<path d="M153.1,165c-0.5,0.8-0.8,1.7-0.7,2.7c0.2,1,0.7,1.9,1.5,2.6c1.5,1.8,4,3.5,4.7,2.9c0.1-0.1,0.2-0.3,0.2-0.4
	c0.4-2.7,0.6-4.1-0.4-5.8c-1-1.5-2.6-2.6-4.5-2.8"/>
<path d="M153.5,163.6"/>
<path d="M152.6,164.1"/>
<path d="M153.1,162.7l-1.2,0.7c0.3,0.3,0.5,0.6,0.7,1c0.1,0.3,0.3,0.8,0.3,0.8l1.3-1"/>
<path class="st0" d="M142.2,156.2l3.8,3.3c0,0,2.6,1.6,3.3,0.9"/>
<path class="st0" d="M151.6,159.3c0,0,1.1-0.8,1.1-1.3c0-0.8,0-1.7-0.1-2.5c-0.2-0.7-1.2-4-1-4.4"/>
<path class="st0" d="M139.1,151c0.9,0.8,1.9,1.5,3,2l2.7,0.1l0,0"/>
<polyline class="st0" points="146.8,151.4 147.9,150.3 148.1,145.5 "/>
<line class="st0" x1="142.1" y1="166.2" x2="151" y2="162.2"/>
<line class="st0" x1="153" y1="161.3" x2="160.2" y2="155.5"/>
<polyline class="st0" points="153.1,161.8 155,162.2 156.2,161.3 165.9,163.7 "/>
<polyline class="st0" points="151.5,163.1 151,164.8 149.3,165.5 147.4,174.5 146.8,175.6 "/>
<path d="M135.6,119.8c-0.4,0.2-1,0.2-1.4,0.1c-0.7-0.3-1.3-0.8-1.6-1.6c-0.5-0.9-0.6-2.1-0.2-3c0-0.1,0.7-1.3,1.7-1.3
	c0.5,0.1,0.9,0.3,1.2,0.5c1.1,0.7,1.8,1.2,2.1,2.1c0.1,0.4,0.1,0.7,0,1.1c-0.2,0.7-0.9,1.1-0.7,1.3c0,0,0,0.1,0.2,0.1
	c0.3,0.1,0.6,0.1,0.9,0c0.7-0.1,1.7,1,1.7,1.9c0,0.5-0.3,0.9,0,1.3c0.1,0.1,0.1,0.2,0.2,0.3c0.3,0.4,0.7,0.8,1,1.2
	c0.3,0.5,0.3,1.1,0.1,1.6c-0.2,0.5-0.6,0.8-1.1,0.8h-0.1h-0.1c-0.4-0.1-0.8-0.4-1-0.8c-0.4-0.6-0.2-1.1-0.6-1.6
	c-0.4-0.5-0.6-0.2-1.2-0.6c-0.6-0.5-1-1.2-1-2c0.1-0.5,0.4-0.9,0.3-1.3C135.8,120,135.7,119.9,135.6,119.8z"/>
<path d="M140.6,128c-0.5,0.8-0.8,1.7-0.7,2.7c0.2,1,0.7,1.9,1.5,2.6c1.5,1.8,4,3.5,4.7,2.9c0.1-0.1,0.2-0.3,0.2-0.4
	c0.4-2.7,0.6-4.1-0.4-5.8c-1-1.5-2.6-2.6-4.4-2.8"/>
<path d="M141,126.6"/>
<path d="M140.1,127.1"/>
<path d="M140.7,125.7l-1.2,0.7c0.3,0.3,0.5,0.6,0.7,1c0.1,0.3,0.3,0.8,0.3,0.8l1.3-0.9"/>
<path class="st0" d="M129.8,119.2l3.8,3.3c0,0,2.6,1.6,3.4,0.9"/>
<path class="st0" d="M139.2,122.3c0,0,1.1-0.8,1-1.3c0-0.8,0-1.7-0.1-2.5c-0.2-0.7-1.2-4-1-4.4"/>
<path class="st0" d="M126.6,113.9c0.9,0.8,1.9,1.5,3,2l2.8,0.1l0,0"/>
<polyline class="st0" points="134.4,114.4 135.5,113.3 135.7,108.5 "/>
<line class="st0" x1="129.7" y1="129.2" x2="138.5" y2="125.2"/>
<line class="st0" x1="140.6" y1="124.3" x2="147.7" y2="118.5"/>
<polyline class="st0" points="140.7,124.8 142.6,125.2 143.8,124.3 153.5,126.7 "/>
<polyline class="st0" points="139.1,126.1 138.5,127.8 136.9,128.5 135,137.5 134.3,138.6 "/>
<path d="M118.2,87.5c-0.4,0.2-1,0.2-1.4,0.1c-0.7-0.3-1.3-0.8-1.6-1.6c-0.5-0.9-0.6-2.1-0.2-3c0-0.1,0.7-1.3,1.7-1.3
	c0.3,0,0.7,0.2,1.2,0.5c1.1,0.7,1.8,1.2,2.1,2.1c0.1,0.4,0.1,0.7,0,1.1c-0.2,0.7-0.9,1.1-0.7,1.3c0,0,0,0,0.2,0.1
	c0.3,0.1,0.6,0.1,0.9,0c0.7,0,1.7,1,1.7,1.9c0,0.5-0.3,0.9,0,1.3c0.1,0.1,0.1,0.2,0.2,0.3c0.9,1.1,0.9,1.1,1,1.2
	c0.3,0.5,0.3,1.1,0.1,1.6c-0.2,0.5-0.6,0.8-1.1,0.9h-0.2c-0.4-0.1-0.8-0.4-1-0.8c-0.4-0.6-0.2-1.1-0.6-1.6c-0.4-0.5-0.6-0.2-1.2-0.6
	c-0.6-0.5-1-1.2-1-2c0.1-0.5,0.4-0.9,0.3-1.3C118.4,87.7,118.3,87.6,118.2,87.5z"/>
<path d="M123.3,95.7c-0.5,0.8-0.8,1.7-0.7,2.7c0.2,1,0.7,1.9,1.5,2.6c1.5,1.8,4,3.5,4.7,2.9c0.1-0.1,0.2-0.2,0.2-0.4
	c0.4-2.7,0.6-4.1-0.4-5.8c-1-1.5-2.6-2.6-4.5-2.8"/>
<path d="M123.7,94.2"/>
<path d="M122.8,94.8"/>
<path d="M123.4,93.4l-1.2,0.7c0.3,0.3,0.5,0.6,0.7,1c0.1,0.3,0.3,0.8,0.3,0.8l1.3-1"/>
<path class="st0" d="M112.4,86.9l3.8,3.3c0,0,2.6,1.6,3.4,0.9"/>
<path class="st0" d="M121.9,90c0,0,1.1-0.8,1.1-1.3c0-0.8,0-1.7-0.1-2.5c-0.2-0.7-1.2-4-1-4.4"/>
<path class="st0" d="M109.3,81.6c0.9,0.8,1.9,1.5,3,2l2.7,0.1l0,0"/>
<polyline class="st0" points="117,82.1 118.1,80.9 118.3,76.1 "/>
<line class="st0" x1="112.3" y1="96.9" x2="121.2" y2="92.9"/>
<line class="st0" x1="123.2" y1="92" x2="130.4" y2="86.1"/>
<polyline class="st0" points="123.4,92.5 125.2,92.9 126.4,92 136.1,94.4 "/>
<polyline class="st0" points="121.7,93.8 121.2,95.5 119.5,96.2 117.7,105.1 117,106.3 "/>
<path d="M100.4,57.3c-0.5,0.2-1,0.3-1.4,0.1c-0.7-0.3-1.3-0.9-1.5-1.6c-0.5-0.9-0.6-2.1-0.2-3c0-0.1,0.7-1.2,1.7-1.3
	c0.4,0.1,0.9,0.3,1.2,0.5c1.1,0.7,1.8,1.2,2.1,2.1c0.1,0.4,0.1,0.7,0,1.1c-0.2,0.7-0.9,1.1-0.7,1.3c0,0,0,0.1,0.2,0.1
	c0.3,0.1,0.6,0.1,0.9,0c0.7-0.1,1.7,1,1.7,1.9c0,0.5-0.3,0.9,0,1.3c0.1,0.1,0.1,0.2,0.2,0.3l1,1.2c0.3,0.5,0.3,1.1,0.1,1.6
	c-0.2,0.5-0.6,0.8-1.1,0.9h-0.2c-0.4-0.1-0.8-0.4-1-0.8c-0.4-0.6-0.2-1.1-0.6-1.6c-0.4-0.5-0.7-0.2-1.2-0.6c-0.6-0.5-1-1.2-1-2
	c0.1-0.5,0.4-0.9,0.3-1.3C100.6,57.5,100.5,57.4,100.4,57.3z"/>
<path d="M105.5,65.5c-0.5,0.8-0.8,1.7-0.7,2.7c0.2,1,0.7,1.9,1.5,2.6c1.5,1.8,4,3.5,4.7,2.9c0.1-0.1,0.2-0.3,0.2-0.4
	c0.4-2.7,0.6-4.1-0.4-5.8c-1-1.5-2.6-2.6-4.5-2.8"/>
<path d="M105.9,64.1"/>
<path d="M105,64.6"/>
<path d="M105.6,63.3l-1.2,0.7c0.3,0.3,0.5,0.6,0.7,1c0.1,0.3,0.3,0.8,0.3,0.8l1.3-1"/>
<path class="st0" d="M94.6,56.8l3.8,3.3c0,0,2.6,1.6,3.4,0.9"/>
<path class="st0" d="M104.1,59.9c0,0,1.1-0.8,1.1-1.3c0-0.8,0-1.7-0.1-2.5c-0.2-0.7-1.2-4-1-4.4"/>
<path class="st0" d="M91.5,51.5c0.9,0.8,1.9,1.5,3,2l2.7,0.1l0,0"/>
<polyline class="st0" points="99.3,51.9 100.4,50.8 100.6,46 "/>
<line class="st0" x1="94.6" y1="66.7" x2="103.4" y2="62.8"/>
<line class="st0" x1="105.4" y1="61.9" x2="112.6" y2="56"/>
<polyline class="st0" points="105.6,62.4 107.5,62.7 108.7,61.8 118.3,64.2 "/>
<polyline class="st0" points="104,63.6 103.4,65.4 101.8,66.1 99.9,75 99.2,76.1 "/>
<path d="M76.7,30.2c-0.5,0.2-1,0.2-1.4,0.1c-0.7-0.3-1.3-0.8-1.6-1.6c-0.5-0.9-0.6-2.1-0.2-3c0.1-0.1,0.7-1.3,1.7-1.3
	c0.5,0.1,0.9,0.3,1.2,0.6c1.1,0.7,1.9,1.2,2.1,2.1c0.1,0.4,0.1,0.7,0,1.1c-0.2,0.7-0.9,1.1-0.7,1.3c0,0,0,0,0.2,0.1
	c0.3,0.1,0.6,0.1,0.9,0c0.7-0.1,1.7,1,1.7,1.9c0,0.5-0.3,0.9,0,1.3c0.1,0.1,0.1,0.2,0.2,0.3c0.9,1.1,0.9,1.1,1,1.2
	c0.3,0.5,0.3,1.1,0.1,1.6c-0.2,0.5-0.6,0.8-1.1,0.9h-0.3c-0.4-0.1-0.8-0.4-1-0.8c-0.4-0.6-0.2-1.1-0.6-1.6c-0.4-0.5-0.7-0.2-1.2-0.6
	c-0.6-0.5-1-1.2-1-2c0.1-0.5,0.4-0.9,0.2-1.3C76.9,30.3,76.9,30.2,76.7,30.2z"/>
<path d="M81.8,38.4c-0.5,0.8-0.8,1.7-0.7,2.7c0.2,1,0.7,1.9,1.5,2.6c1.5,1.8,4,3.5,4.7,2.9c0.1-0.1,0.2-0.2,0.2-0.4
	c0.4-2.7,0.6-4.1-0.4-5.8c-1-1.5-2.6-2.6-4.5-2.8"/>
<path d="M82.2,36.9"/>
<path d="M81.3,37.4"/>
<path d="M81.9,36.1l-1.2,0.7c0.3,0.3,0.5,0.6,0.7,1c0.1,0.3,0.3,0.8,0.3,0.8l1.3-1"/>
<path class="st0" d="M71,29.6l3.8,3.4c0,0,2.6,1.6,3.4,0.9"/>
<path class="st0" d="M80.4,32.7c0,0,1.1-0.8,1-1.3c0-0.8,0-1.7-0.1-2.5c-0.2-0.7-1.2-4-1-4.4"/>
<path class="st0" d="M67.8,24.3c0.9,0.8,1.9,1.5,3,2l2.7,0.1l0,0"/>
<polyline class="st0" points="75.6,24.7 76.7,23.6 76.9,18.8 "/>
<line class="st0" x1="70.9" y1="39.6" x2="79.7" y2="35.6"/>
<line class="st0" x1="81.7" y1="34.7" x2="88.9" y2="28.8"/>
<polyline class="st0" points="81.9,35.2 83.8,35.5 85,34.7 94.6,37 "/>
<polyline class="st0" points="80.3,36.4 79.7,38.2 78.1,38.9 76.2,47.8 75.5,49 "/>
</svg>
