<?xml version="1.0" encoding="utf-8"?>
<!-- Generator: Adobe Illustrator 25.0.1, SVG Export Plug-In . SVG Version: 6.00 Build 0)  -->
<svg version="1.1" id="Layer_1" xmlns="http://www.w3.org/2000/svg" xmlns:xlink="http://www.w3.org/1999/xlink" x="0px" y="0px"
	 viewBox="0 0 250 250" style="enable-background:new 0 0 250 250;" xml:space="preserve">
<g>
	<path d="M27.9,121.6L27.9,121.6c0.2-0.7,0.1-1.5-0.3-2.1c0-0.1-0.1-0.1-0.2-0.2l1.4-2.2c1-0.6,2-1,3.1-1.4l-0.3-1.1
		c-1.2,0.4-2.3,0.9-3.4,1.5l-0.1,0.1l-1.5,2.3c-0.5-0.3-1.1-0.5-1.7-0.5c-0.8-0.2-1.6,0-2.2,0.5c-0.4,0.4-0.6,0.8-0.6,1.3
		c-0.1,0-0.3,0-0.4,0c-0.5-0.1-0.6-0.6-1-0.9c-0.5-0.3-1.2-0.4-1.8-0.3c0.3-0.4,1.1-1,2-1.5l4.9-1.6l-0.3-1.1l-5,1.6
		c-1,0.5-3.2,1.8-2.8,3.1l0.3-0.1c-0.1,0.2-0.3,0.3-0.7,0.4c-0.4,0-0.6-0.1-0.9-0.2l1.2-9.5l-1.1-0.1l-1.2,9.5c0,0-0.1,0-0.1,0
		L14,118l0.3-1.8l-6.9-6.5l-0.6-1.1l-1,0.5l0.6,1.2l6.7,6.3l-0.3,1.7l1.2,1.4c-0.4,0.1-0.8,0.1-1.2,0.1c-0.3,0-0.8-0.2-0.8-0.2l0,0
		c-0.4-0.8-1.1-1.4-1.9-1.8c-1-0.4-2.1-0.4-3.1-0.1c-2.4,0.4-5.1,1.6-5,2.5c0,0.2,0.1,0.3,0.3,0.4c2.1,1.8,3.2,2.7,5.2,2.7
		c1.8-0.1,3.4-0.8,4.6-2.1l0,0l1.9-0.1v-0.2c0,0.1,0.1,0.2,0.2,0.3c0,0,0.1,0.1,0.1,0.1l-1.4,1.5l0.1,1.5l-7,6.9l0.8,0.8l7.4-7.3
		l-0.1-1.5l0.8-0.9l1.2,8.8l1.1-0.2L16,122c0.2,0,0.6-0.1,1.3-0.2c0,0,0,0,0,0c0,0.5,0.2,1.6,0.8,1.9c0.7,0.5,1.5,0.9,2.4,1.3
		c0.2,0.1,0.5,0.1,0.8,0.2c0.8,0.2,2.9,0.8,3.2,1l1-0.6c-0.2-0.4-1-0.7-3.8-1.5c-0.4-0.1-0.6-0.2-0.7-0.2c-0.7-0.4-1.5-0.8-2.2-1.2
		c-0.1-0.1-0.1-0.2-0.2-0.4c0.1,0.1,0.1,0.1,0.2,0.2c0.9,0.4,1.9,0.2,2.5-0.5c0.1-0.3,0.3-0.5,0.5-0.7c0.1-0.1,0.2-0.1,0.2-0.1
		c0.3,0,0.3,0.8,0.8,1.3c0.3,0.3,0.6,0.5,1,0.6c1,0.1,2.1-0.1,2.9-0.7c0.1,0,0.1-0.1,0.2-0.1l0.3,1.3l4.2,2.8l0.6-0.9l-3.9-2.6
		L27.9,121.6z M14.1,119.9L14.1,119.9L14.1,119.9L14.1,119.9C14.1,119.9,14.1,119.9,14.1,119.9z"/>
	<path d="M54.1,120.8c-0.3-0.1-0.6-0.2-0.7-0.2c-0.7-0.3-1.5-0.7-2.2-1.2c-0.1-0.1-0.1-0.2-0.2-0.4c0.1,0,0.1,0.1,0.2,0.1
		c0.9,0.5,1.9,0.3,2.6-0.4c0.1-0.3,0.3-0.5,0.5-0.7c0.1-0.1,0.2-0.1,0.2-0.1c0.3,0,0.3,0.8,0.8,1.3c0.3,0.3,0.6,0.5,1,0.6
		c1,0.1,2.1-0.1,2.9-0.7c0.1,0,0.1-0.1,0.2-0.1l0.3,1.3L64,123l0.6-0.9l-3.9-2.6l-0.3-1.3l-0.1,0c0.3-0.7,0.2-1.5-0.2-2.1
		c0-0.1-0.1-0.1-0.2-0.2l1.4-2.2c1-0.6,2-1,3.1-1.4l-0.3-1.1c-1.2,0.4-2.3,0.9-3.4,1.6l-0.1,0.1l-1.5,2.3c-0.5-0.3-1.1-0.5-1.7-0.5
		c-0.8-0.2-1.6,0-2.2,0.5c-0.4,0.4-0.6,0.8-0.6,1.3c-0.2,0-0.3,0-0.5,0c-0.5-0.1-0.6-0.6-1-0.9c-0.5-0.3-1.1-0.4-1.7-0.3
		c0.4-0.4,1.1-1,1.9-1.4l4.9-1.6l-0.3-1.1l-5,1.6c-1,0.5-3.2,1.8-2.8,3.1l0.2,0c-0.1,0.1-0.3,0.2-0.6,0.3c-0.4,0-0.6,0-0.8-0.1
		l1.2-9.5l-1.1-0.1l-1.2,9.5c0,0-0.1,0-0.1,0l-1-1.2l0.3-1.8l-6.9-6.5l-0.6-1.1l-1,0.5l0.6,1.2l6.7,6.3l-0.3,1.8l1.2,1.4
		c-0.4,0.1-0.8,0.1-1.2,0.1c-0.3,0-0.8-0.2-0.8-0.2l0,0c-0.4-0.8-1.1-1.4-1.8-1.8c-1-0.4-2.1-0.4-3.1-0.1c-2.4,0.4-5.1,1.6-5,2.5
		c0,0.1,0.1,0.3,0.3,0.4c2.1,1.8,3.2,2.7,5.2,2.7c1.8-0.1,3.4-0.8,4.6-2.1l0,0l1.9-0.1v-0.2c0,0.1,0.1,0.2,0.1,0.2
		c0.1,0.1,0.1,0.1,0.2,0.2l-1.4,1.5l0.1,1.5l-7,6.9l0.8,0.8l7.4-7.3l-0.1-1.5l0.8-0.9l1.2,8.8l1.1-0.2l-1.3-9.1
		c0.2,0,0.6-0.1,1.3-0.2c0,0,0,0,0,0c0,0.5,0.2,1.7,0.8,1.9c0.7,0.5,1.5,0.9,2.4,1.3c0.2,0.1,0.5,0.1,0.8,0.2c0.8,0.2,2.9,0.8,3.2,1
		l0.9-0.6C57.7,121.9,56.9,121.6,54.1,120.8z M47.7,118.4L47.7,118.4L47.7,118.4C47.6,118.4,47.7,118.4,47.7,118.4z"/>
	<path d="M71.4,126.5c1.8-0.1,3.4-0.8,4.6-2.1l1.9-0.1v-0.3c0,0.1,0.1,0.3,0.2,0.4c0,0,0.1,0.1,0.1,0.1l-1.4,1.5l0.1,1.5l-7,6.9
		l0.8,0.8l7.4-7.3l-0.1-1.5l0.8-0.9l1.2,8.8l1.1-0.2l-1.3-9.1l1.3-0.2c0,0,0,0,0,0c0,0.5,0.2,1.6,0.8,1.9c0.7,0.5,1.5,0.9,2.3,1.3
		c0.2,0.1,0.5,0.2,1,0.3c0.8,0.2,2.8,0.8,3,1l1-0.6c-0.2-0.4-1-0.7-3.7-1.5c-0.4-0.1-0.8-0.2-0.9-0.2c-0.7-0.3-1.5-0.7-2.2-1.2
		c-0.1-0.1-0.1-0.2-0.2-0.4c0.1,0.1,0.1,0.1,0.2,0.1c0.9,0.4,1.9,0.2,2.5-0.5c0.1-0.3,0.3-0.5,0.5-0.7c0.1-0.1,0.2-0.1,0.2-0.1
		c0.3,0,0.3,0.8,0.8,1.3c0.3,0.3,0.6,0.5,1,0.6c1,0.3,1.8-0.2,3-0.7c0.1,0,0.1-0.1,0.2-0.1l0.3,1.3l4.3,2.8l0.6-0.9L92,126l-0.3-1.3
		l-0.1,0c0.3-0.7,0.2-1.5-0.2-2.1c0-0.1-0.1-0.1-0.1-0.2l1.4-2.2c1-0.6,2-1,3.1-1.4l-0.3-1.1c-1.2,0.4-2.4,0.9-3.4,1.5l-0.1,0.1
		l-1.5,2.3c-0.5-0.3-1.1-0.5-1.7-0.6c-0.8-0.2-1.6,0-2.2,0.5c-0.4,0.4-0.6,0.8-0.7,1.3c-0.1,0-0.3,0.1-0.4,0c-0.5-0.1-0.6-0.6-1-0.9
		c-0.5-0.3-1.2-0.4-1.8-0.3c0.3-0.4,1.1-1,2-1.5l4.9-1.6l-0.3-1.1l-5,1.6c-1,0.5-3.2,1.8-2.8,3.1l0.3-0.1c-0.1,0.2-0.3,0.3-0.7,0.4
		c-0.4,0-0.6-0.1-0.9-0.2l1.2-9.5l-1.1-0.1l-1.2,9.5c0,0-0.1,0-0.1,0l-1.1-1.2l0.3-1.8l-6.9-6.5l-0.6-1.1l-1,0.5l0.6,1.2l6.7,6.3
		l-0.3,1.8l1.2,1.4c-0.4,0.1-0.8,0.1-1.2,0.1c-0.3,0-0.7-0.2-0.8-0.2c-0.4-0.8-1-1.4-1.8-1.8c-1-0.4-2.1-0.4-3.1-0.1
		c-2.4,0.4-5.1,1.6-5,2.5c0,0.2,0.1,0.3,0.2,0.4C68.3,125.5,69.4,126.5,71.4,126.5z M77.9,122.9C77.9,122.9,77.9,122.9,77.9,122.9
		c0,0.1,0,0.1-0.1,0.2L77.9,122.9L77.9,122.9z"/>
	<path d="M115,117.7c0.1-0.3,0.3-0.5,0.5-0.7c0.1-0.1,0.2-0.1,0.2-0.1c0.3,0,0.3,0.8,0.8,1.3c0.3,0.3,0.6,0.5,1,0.6
		c1,0.3,1.8-0.1,3-0.7c0.1,0,0.1-0.1,0.2-0.1l0.3,1.3l4.2,2.8l0.6-0.9l-3.9-2.6l-0.3-1.3l-0.1,0c0.3-0.7,0.2-1.5-0.2-2.1
		c-0.1-0.1-0.1-0.1-0.2-0.2l1.5-2.1c1-0.6,2-1,3.1-1.4l-0.3-1.1c-1.2,0.4-2.3,0.9-3.4,1.6l-1.7,2.3c-0.5-0.3-1.1-0.5-1.7-0.5
		c-0.8-0.2-1.6,0-2.2,0.5c-0.4,0.4-0.6,0.8-0.7,1.3c-0.1,0-0.3,0.1-0.4,0c-0.5-0.1-0.6-0.6-1-0.9c-0.5-0.3-1.2-0.4-1.8-0.3
		c0.3-0.4,1.1-1,2-1.5l4.9-1.6l-0.3-1.1l-5,1.6c-1,0.5-3.1,1.8-2.8,3.1l0.2-0.1c-0.1,0.2-0.3,0.3-0.7,0.3c-0.4,0-0.6,0-0.9-0.1
		l1.2-9.5l-1.1-0.1l-1.2,9.5c0,0-0.1,0-0.1,0l-1.1-1.2l0.3-1.8l-6.9-6.5l-0.6-1.1l-1,0.5l0.6,1.2l6.6,6.3l-0.3,1.8l1.2,1.4
		c-0.4,0.1-0.8,0.1-1.2,0.1c-0.3,0-0.8-0.2-0.8-0.2l0,0c-0.4-0.8-1.1-1.4-1.8-1.8c-1-0.4-2.1-0.4-3.1-0.1c-2.4,0.4-5.1,1.6-5,2.5
		c0,0.2,0.1,0.3,0.3,0.4c2.1,1.8,3.2,2.7,5.2,2.7c1.8-0.1,3.4-0.8,4.6-2.1l0,0l1.9-0.1v-0.2c0,0.1,0.1,0.2,0.1,0.3
		c0,0.1,0.1,0.1,0.1,0.1l-1.4,1.5l0.1,1.5l-7,6.9l0.8,0.8l7.4-7.3l-0.1-1.5l0.8-0.9l1.2,8.8l1.1-0.2l-1.3-9.1c0.2,0,0.6-0.1,1.3-0.2
		c0,0,0,0,0,0c0,0.5,0.2,1.6,0.8,1.9c0.7,0.5,1.5,0.9,2.4,1.3c0.2,0.1,0.4,0.1,0.8,0.2c0.8,0.2,3,0.9,3.2,1l0.9-0.6
		c-0.2-0.3-0.8-0.6-3.9-1.5c-0.3-0.1-0.6-0.2-0.7-0.2c-0.7-0.3-1.5-0.7-2.2-1.2c0-0.1-0.1-0.2-0.2-0.4c0.1,0,0.1,0.1,0.2,0.1
		C113.3,118.7,114.4,118.5,115,117.7z M107.9,115.5L107.9,115.5C107.9,115.5,107.9,115.5,107.9,115.5L107.9,115.5z"/>
	<path d="M170.5,120.6c0.1-0.3,0.3-0.5,0.5-0.7c0.1-0.1,0.2-0.1,0.2-0.1c0.3,0,0.3,0.8,0.8,1.3c0.3,0.3,0.6,0.5,1,0.6
		c0.9,0.3,1.8-0.1,3-0.7c0.1,0,0.1-0.1,0.2-0.1l0.3,1.3l4.3,2.8l0.6-0.9l-3.9-2.6l-0.3-1.3l-0.1,0c0.3-0.7,0.2-1.5-0.2-2.1
		c0-0.1-0.1-0.1-0.2-0.2l1.4-2.2c1-0.6,2-1,3.1-1.4l-0.3-1.1c-1.2,0.4-2.4,0.9-3.4,1.5l-0.1,0.1l-1.5,2.3c-0.5-0.3-1.1-0.5-1.7-0.6
		c-0.8-0.2-1.6,0-2.2,0.5c-0.4,0.4-0.6,0.8-0.6,1.3c-0.1,0-0.3,0.1-0.4,0c-0.5-0.1-0.6-0.6-1-0.9c-0.5-0.3-1.2-0.4-1.8-0.3
		c0.3-0.4,1.1-1,2-1.5l4.9-1.6l-0.3-1.1l-5,1.6c-1,0.5-3.2,1.8-2.8,3.1l0.3-0.1c-0.1,0.2-0.3,0.3-0.7,0.4c-0.4,0-0.6-0.1-0.9-0.2
		l1.2-9.5l-1.1-0.1l-1.2,9.5c0,0-0.1,0-0.1,0l0,0l-1.1-1.2l0.3-1.8l-6.9-6.5l-0.6-1.1l-1,0.5l0.6,1.2l6.7,6.3l-0.3,1.8l1.2,1.4
		c-0.4,0.1-0.8,0.1-1.2,0.1c-0.3-0.1-0.8-0.2-0.8-0.2l0,0.1c-0.4-0.8-1.1-1.4-1.9-1.8c-1-0.4-2.1-0.4-3.1-0.1
		c-2.4,0.4-5.1,1.6-5,2.5c0,0.2,0.1,0.3,0.2,0.4c2.1,1.8,3.2,2.7,5.2,2.7c1.8-0.1,3.4-0.8,4.6-2.1l0,0l1.9-0.1v-0.2
		c0,0.1,0.1,0.2,0.2,0.3c0,0.1,0.1,0.1,0.1,0.1l-1.4,1.5l0.1,1.5l-7,6.9l0.8,0.8l7.4-7.3l-0.1-1.5l0.8-0.9l1.2,8.8l1.1-0.2l-1.3-9.1
		c0.2,0,0.6-0.1,1.3-0.2c0,0,0,0,0,0c0,0.5,0.2,1.6,0.8,1.9c0.7,0.5,1.5,0.9,2.3,1.3c0.2,0.1,0.5,0.2,0.9,0.3c0.9,0.2,2.9,0.8,3.1,1
		l0.9-0.6c-0.2-0.4-1-0.6-3.7-1.4c-0.4-0.1-0.7-0.2-0.8-0.2c-0.7-0.3-1.5-0.7-2.2-1.2c-0.1-0.1-0.1-0.2-0.2-0.4
		c0.1,0.1,0.1,0.1,0.2,0.2C168.8,121.6,169.8,121.4,170.5,120.6z M163.3,118.4L163.3,118.4C163.3,118.4,163.3,118.4,163.3,118.4
		L163.3,118.4z"/>
	<path d="M210.1,124.3L210.1,124.3c0.2-0.7,0.1-1.5-0.3-2.1c0-0.1-0.1-0.1-0.2-0.2l1.4-2.2c1-0.6,2-1,3.1-1.4l-0.3-1.1
		c-1.2,0.4-2.3,0.9-3.4,1.5l-0.1,0.1l-1.5,2.2c-0.5-0.3-1.1-0.5-1.7-0.5c-0.8-0.2-1.6,0-2.2,0.5c-0.4,0.4-0.6,0.8-0.6,1.3
		c-0.1,0-0.3,0-0.4,0c-0.5-0.1-0.6-0.6-1-0.9c-0.5-0.3-1.2-0.4-1.8-0.3c0.3-0.4,1.1-1,2-1.5l4.9-1.6l-0.3-1.1l-5,1.6
		c-1,0.5-3.2,1.8-2.8,3.1l0.3-0.1c-0.2,0.2-0.3,0.3-0.7,0.4c-0.4,0-0.6-0.1-0.9-0.2l1.2-9.5l-1.1-0.1l-1.2,9.5c0,0-0.1,0-0.1,0
		l-1.1-1.2l0.3-1.8l-6.9-6.5l-0.6-1.1l-1,0.5l0.6,1.2l6.7,6.3l-0.3,1.8l1.2,1.4c-0.4,0.1-0.8,0.1-1.2,0.1c-0.3,0-0.8-0.2-0.8-0.2
		l0,0c-0.4-0.8-1-1.4-1.8-1.8c-1-0.4-2.1-0.4-3.1-0.1c-2.4,0.4-5.1,1.6-5,2.5c0,0.2,0.1,0.3,0.3,0.4c2.1,1.8,3.2,2.7,5.2,2.7
		c1.8-0.1,3.4-0.8,4.6-2.1l0,0l1.9-0.1v-0.2c0,0.1,0.1,0.2,0.2,0.3c0,0,0.1,0.1,0.1,0.1l-1.4,1.5l0.1,1.5l-7,6.9l0.8,0.8l7.4-7.3
		l-0.1-1.5l0.8-0.9l1.2,8.8l1.1-0.2l-1.3-9.1c0.2,0,0.6-0.1,1.3-0.2c0,0.5,0.2,1.6,0.8,1.9c0.7,0.5,1.5,0.9,2.4,1.3
		c0.2,0.1,0.5,0.1,0.8,0.2c0.8,0.2,2.9,0.8,3.2,1l1-0.6c-0.2-0.4-1-0.7-3.9-1.5c-0.3-0.1-0.6-0.2-0.7-0.2c-0.7-0.4-1.5-0.8-2.2-1.2
		c-0.1-0.1-0.1-0.2-0.2-0.4c0.1,0.1,0.1,0.1,0.2,0.2c0.9,0.4,1.9,0.2,2.5-0.5c0.1-0.3,0.3-0.5,0.5-0.7c0.1-0.1,0.2-0.1,0.2-0.1
		c0.3,0,0.3,0.8,0.8,1.3c0.3,0.3,0.6,0.5,1,0.6c1,0.1,2.1-0.1,3-0.7c0.1,0,0.1-0.1,0.2-0.1l0.3,1.3l4.2,2.8l0.6-0.9l-3.9-2.6
		L210.1,124.3z M196.4,122.7v-0.1V122.7L196.4,122.7C196.4,122.6,196.4,122.7,196.4,122.7z"/>
	<path d="M244,123.2l-0.3-1.4l-0.1,0c0.3-0.7,0.2-1.5-0.2-2.1c-0.1-0.1-0.1-0.1-0.2-0.2l1.4-2.1c1-0.6,2-1,3.1-1.4l-0.3-1.1
		c-1.2,0.4-2.3,0.9-3.4,1.6l-0.1,0.1l-1.5,2.2c-0.5-0.3-1.1-0.5-1.7-0.5c-0.8-0.2-1.6,0-2.2,0.5c-0.4,0.4-0.6,0.8-0.7,1.3
		c-0.1,0-0.3,0.1-0.4,0c-0.5-0.1-0.6-0.6-1-0.9c-0.5-0.3-1.2-0.4-1.8-0.3c0.3-0.4,1.1-1,2-1.5l4.9-1.6l-0.3-1.1l-5,1.6
		c-1,0.5-3.2,1.8-2.8,3.1l0.3-0.1c-0.1,0.2-0.3,0.3-0.7,0.3c-0.4,0-0.6,0-0.9-0.1l1.2-9.5l-1.1-0.1l-1.2,9.5c0,0-0.1,0-0.1,0
		l-1.1-1.2l0.3-1.8l-6.9-6.5l-0.6-1.1l-1,0.5l0.6,1.2l6.7,6.3l-0.3,1.8l1.2,1.4c-0.4,0.1-0.8,0.1-1.2,0.2c-0.3,0-0.8-0.2-0.8-0.2
		c-0.4-0.8-1-1.4-1.8-1.8c-1-0.4-2.1-0.4-3.1-0.1c-2.4,0.4-5.1,1.6-5,2.5c0,0.1,0.1,0.3,0.2,0.4c2.1,1.8,3.2,2.7,5.2,2.7
		c1.8-0.1,3.4-0.8,4.6-2.1l0,0l1.9-0.2v-0.2c0,0.1,0.1,0.2,0.2,0.3c0,0.1,0.1,0.1,0.1,0.1l-1.4,1.5l0.1,1.5l-7,6.9l0.8,0.8l7.4-7.3
		l-0.1-1.5l0.8-0.9l1.2,8.8l1.1-0.2l-1.3-9.1c0.4,0,0.9-0.1,1.3-0.1c0,0,0,0,0,0c0,0.5,0.2,1.6,0.8,1.9c0.8,0.5,1.5,0.9,2.4,1.3
		c0.2,0.1,0.5,0.1,0.8,0.2c0.8,0.2,2.9,0.8,3.2,1l1-0.6c-0.2-0.4-1-0.7-3.8-1.5c-0.4-0.1-0.6-0.2-0.7-0.2c-0.8-0.3-1.5-0.7-2.2-1.2
		c-0.1-0.1-0.1-0.2-0.2-0.4c0.1,0.1,0.1,0.1,0.2,0.1c0.9,0.4,1.9,0.2,2.5-0.5c0.1-0.3,0.3-0.5,0.5-0.7c0.1-0.1,0.2-0.1,0.2-0.1
		c0.3,0,0.3,0.8,0.8,1.3c0.3,0.3,0.6,0.5,1,0.6c1,0.3,1.8-0.1,3-0.7c0.1,0,0.1-0.1,0.2-0.1l0.3,1.3l4.3,2.8l0.6-0.9L244,123.2z
		 M229.9,120.1L229.9,120.1C229.9,120.1,229.9,120.1,229.9,120.1L229.9,120.1z"/>
	<path d="M79.1,217.7c0.4,0,0.8-0.2,1.1-0.4c0.8-0.5,1-1.5,1.3-2.8c0-0.1,0-0.2,0.1-0.3l1.3,0.6l4.9-1.6l-0.3-1.1l-4.5,1.4l-1.3-0.6
		l0,0.1c-0.4-0.9-1.7-1.2-1.8-1.2c-0.1,0-0.2,0-0.2,0l-0.8-2.5c0.2-1.1,0.5-2.2,0.9-3.3l-1-0.4c-0.4,1.2-0.8,2.4-0.9,3.7l0,0.1
		l0.8,2.6c-0.6,0.2-1.1,0.5-1.5,1c-0.6,0.5-0.9,1.3-0.9,2c0.1,0.5,0.3,1,0.6,1.3c0,0.1-0.1,0.3-0.1,0.4c-0.4,0.3-0.8,0.1-1.3,0.2
		c-0.6,0.2-1.1,0.7-1.3,1.2c-0.1-0.5-0.1-1.5,0.1-2.6l1.8-4.8l-1-0.4l-1.8,4.9c-0.2,1.1-0.6,3.6,0.6,4.1l0.1-0.3
		c0,0.3,0.1,0.5-0.1,0.9c-0.2,0.3-0.4,0.4-0.7,0.6l-6.8-7l-0.8,0.8l6.8,7c0,0.1-0.1,0.1-0.1,0.2l0-0.2l-1.6,0.1l-1.2-1.4l-9.4,1.3
		l-1.2-0.2l-0.2,1.1l1.4,0.3l9-1.3l1.2,1.3l1.9-0.1c-0.2,0.4-0.4,0.7-0.7,1c-0.2,0.2-0.7,0.5-0.7,0.5l0,0c-0.9-0.2-1.7-0.1-2.5,0.3
		c-0.9,0.5-1.6,1.3-2,2.3c-1.1,2.1-1.9,5-1.1,5.5c0.1,0.1,0.3,0.1,0.4,0c2.7-0.5,4.2-0.8,5.4-2.4c1-1.4,1.4-3.2,1.2-4.9l1.1-1.5l0,0
		c0.1,0,0.1,0,0.2,0c0.1,0,0.1,0,0.2,0l0.3,2l1.2,0.8l1.1,9.8l1.1-0.1l-1.1-10.3l-1.3-0.8l-0.2-1.1l7.6,4.5l0.6-1l-7.9-4.6
		c0.1-0.2,0.3-0.5,0.6-1c0,0,0-0.1,0.1-0.1c0.4,0.2,1,0.6,1.6,0.6c0.1,0,0.3,0,0.4-0.1c0.8-0.3,1.7-0.6,2.5-1.1
		c0.2-0.1,0.4-0.3,0.7-0.5c0.7-0.5,2.4-1.8,2.7-1.9l0.1-1.1c-0.5-0.1-1.3,0.4-3.5,2.1c-0.3,0.2-0.6,0.4-0.6,0.5
		c-0.7,0.4-1.5,0.7-2.3,1c-0.1,0-0.2,0-0.3-0.1c0.1,0,0.1,0,0.2,0c0.9-0.4,1.3-1.3,1.2-2.3c-0.1-0.3-0.2-0.6-0.3-0.9
		c0-0.2,0-0.2,0-0.2C77.8,217.2,78.4,217.7,79.1,217.7z M71.7,222.7L71.7,222.7C71.8,222.7,71.8,222.7,71.7,222.7L71.7,222.7z"/>
	<path d="M113.2,164.1c0.4,0,0.8-0.2,1.1-0.4c0.8-0.5,1.1-1.4,1.4-2.7c0-0.1,0-0.2,0.1-0.2l1.2,0.7l4.9-1.3l-0.3-1.1l-4.5,1.2
		l-1.2-0.6l0,0.1c0,0,0,0,0,0c-0.3-1-1.6-1.3-1.7-1.3c-0.1,0-0.2,0-0.3,0l-0.7-2.5c0.2-1.1,0.6-2.2,1-3.3l-1-0.4
		c-0.5,1.2-0.9,2.4-1.1,3.6l0,0.1l0.7,2.6c-0.6,0.2-1.1,0.5-1.5,1c-0.6,0.5-1,1.2-1,2c0,0.5,0.2,1,0.5,1.4c0,0.1-0.1,0.2-0.1,0.3
		c-0.4,0.3-0.8,0.1-1.3,0.1c-0.7,0.2-1.2,0.7-1.5,1.3c-0.1-0.5,0-1.5,0.2-2.6l2.1-4.7l-1-0.4l-2.1,4.8c-0.3,1-0.8,3.5,0.4,4.2
		l0.2-0.4c0,0.3,0.1,0.4-0.2,0.8c-0.2,0.4-0.5,0.5-0.7,0.6l-6.4-7.3l-0.8,0.7l6.4,7.3c0,0.1-0.1,0.1-0.1,0.2l0-0.2l-1.6,0l-1.2-1.4
		l-9.5,0.8l-1.2-0.3l-0.3,1.1l1.4,0.3l9-0.8l1.1,1.4l1.8,0c-0.2,0.3-0.4,0.7-0.7,1c-0.3,0.2-0.7,0.5-0.7,0.5l0,0
		c-0.8-0.2-1.7-0.1-2.5,0.2c-0.9,0.5-1.7,1.3-2.1,2.2c-1.3,2-2.2,4.9-1.5,5.4c0.1,0.1,0.3,0.1,0.4,0.1c0.4-0.1,0.8-0.1,1.1-0.2
		l-3.9,2.4l-1.4-0.3l0,0.1c-0.5-0.5-1.3-0.8-2-0.7c-0.1,0-0.1,0-0.2,0.1l-1.4-2.2c-0.1-1.1-0.1-2.3,0.1-3.4l-1.1-0.1
		c-0.2,1.2-0.2,2.5-0.1,3.8l0,0.1l1.4,2.3c-0.5,0.3-1,0.8-1.2,1.3c-0.5,0.6-0.6,1.4-0.4,2.2c0.2,0.5,0.5,0.8,0.9,1.1
		c0,0.2,0,0.3,0,0.5c-0.3,0.4-0.8,0.3-1.3,0.5c-0.5,0.4-0.9,0.9-1,1.6c-0.2-0.4-0.5-1.4-0.5-2.6l0.7-5.1l-1.1-0.1l-0.7,5.2
		c0,1.1,0.3,3.6,1.6,3.9l0.1-0.4c0.1,0.3,0.3,0.4,0.1,0.9c-0.1,0.3-0.3,0.5-0.5,0.7l-8.2-5.2l-0.6,0.9l8.2,5.2c0,0.1,0,0.1-0.1,0.2
		l0-0.2l-1.6,0.4l-1.5-1l-8.8,3.5l-1.3,0.1l0.1,1.1l1.4-0.1l8.5-3.3l1.5,1l1.8-0.5c-0.1,0.4-0.2,0.8-0.4,1.1
		c-0.2,0.2-0.4,0.5-0.5,0.6c-0.9,0-1.7,0.3-2.4,0.9c-0.8,0.7-1.2,1.7-1.4,2.7c-0.6,2.3-0.7,5.3,0.1,5.6c0.2,0,0.3,0,0.4-0.1
		c2.5-1.1,3.8-1.8,4.7-3.6c0.7-1.6,0.7-3.4,0-5l0.7-1.7c0.1,0,0.1,0,0.2,0c0.1,0,0.1,0,0.2-0.1l0.8,1.8l1.4,0.5l3.3,9.3l1-0.4
		l-3.5-9.8l-1.4-0.5l-0.4-1.1l8.4,2.6l0.3-1.1l-8.7-2.7c0.1-0.2,0.2-0.5,0.4-1.2c0,0,0-0.1,0-0.1c0.3,0.1,0.8,0.3,1.3,0.3
		c0.3,0,0.5-0.1,0.7-0.2c0.7-0.5,1.5-1,2.2-1.6c0.1-0.1,0.4-0.4,0.7-0.8c0.6-0.7,1.9-2.2,2.2-2.4l-0.2-1.1c-0.5,0.1-1,0.6-2.9,2.8
		c-0.3,0.3-0.5,0.6-0.6,0.7c-0.6,0.5-1.3,1-2,1.5c-0.1,0-0.2,0-0.3,0c0,0,0.1,0,0.1-0.1c0.8-0.6,1-1.6,0.6-2.5
		c-0.2-0.2-0.4-0.5-0.5-0.8c0-0.2,0-0.2,0-0.2c0.1-0.2,0.8,0.1,1.5-0.1c0.4-0.1,0.7-0.4,0.9-0.7c0.6-0.8,0.6-1.7,0.6-3
		c0-0.1,0-0.2,0-0.3l1.4,0.3l4.4-2.6l-0.5-0.9c1.9-0.3,3.2-0.7,4.3-1.9c1.2-1.4,1.7-3.2,1.5-5l1.1-1.4l-0.1-0.1
		c0.1,0,0.2,0.1,0.3,0.1c0.1,0,0.1,0,0.2,0l0.2,2l1.2,0.9l0.5,9.9l1.1-0.1l-0.6-10.4l-1.2-0.9l-0.1-1.2l7.4,4.9l0.6-0.9l-7.6-5.1
		c0.1-0.2,0.3-0.5,0.7-1c0,0,0,0,0,0c0.4,0.3,1.1,0.7,1.6,0.7c0.1,0,0.2,0,0.3-0.1c0.8-0.2,1.7-0.5,2.6-0.9c0.1-0.1,0.4-0.2,0.7-0.4
		c0.7-0.5,2.6-1.7,2.9-1.7l0.3-1.1c-0.5-0.1-1.3,0.2-3.8,1.9c-0.3,0.2-0.5,0.3-0.6,0.4c-0.8,0.3-1.6,0.6-2.4,0.9c0,0,0,0,0,0
		c-0.1,0-0.2-0.1-0.4-0.1c0.1,0,0.2,0,0.2,0c0.9-0.3,1.4-1.3,1.3-2.2c-0.1-0.3-0.2-0.6-0.2-0.9c0-0.2,0-0.2,0-0.2
		C111.9,163.6,112.5,164.1,113.2,164.1z M86.8,191.7L86.8,191.7L86.8,191.7L86.8,191.7z M105.4,168.7l0.1,0c0,0,0,0,0,0.1
		c0,0,0,0.1,0.1,0.1L105.4,168.7z"/>
	<path d="M159.3,62.9l1.2,1.3l1.8-0.1c-0.2,0.4-0.4,0.7-0.7,1c-0.3,0.2-0.7,0.5-0.7,0.5l0,0c-0.9-0.2-1.7-0.1-2.5,0.3
		c-0.9,0.5-1.6,1.3-2,2.3c-1.2,2.1-2,5-1.2,5.5c0.1,0,0.3,0,0.4,0c2.7-0.5,4.2-0.8,5.4-2.3c1.1-1.4,1.5-3.2,1.3-4.9l1.1-1.5
		l-0.2-0.1c0.1,0,0.2,0.1,0.3,0.1c0.1,0,0.1,0,0.2,0l0.3,2l1.2,0.8l0.9,9.8l1.1-0.1l-1-10.3l-1.3-0.9l-0.2-1.1l7.6,4.6l0.6-0.9
		l-7.9-4.8c0.1-0.2,0.3-0.5,0.7-1.1c0,0,0,0,0,0c0.4,0.2,1.1,0.7,1.7,0.7c0.1,0,0.3,0,0.4-0.1c0.8-0.3,1.7-0.6,2.5-1
		c0.1-0.1,0.3-0.2,0.6-0.4c0.7-0.5,2.6-1.8,2.9-1.9l0.1-1.1c-0.5-0.1-1.3,0.4-3.7,2.1c-0.3,0.2-0.5,0.3-0.5,0.4
		c-0.7,0.4-1.5,0.7-2.3,1c-0.1,0-0.3-0.1-0.5-0.2c0.1,0,0.2,0,0.4-0.1c0.9-0.4,1.4-1.3,1.2-2.2c-0.2-0.3-0.2-0.6-0.3-0.9
		c0-0.2,0-0.2,0-0.2c0.2-0.2,0.8,0.3,1.5,0.2c0.4,0,0.8-0.2,1.1-0.4c0.8-0.5,1-1.5,1.3-2.7c0-0.1,0-0.2,0.1-0.2l1.3,0.6l4.9-1.5
		l-0.3-1.1l-4.5,1.4l-1.2-0.6l0,0.1c0,0,0,0,0,0c-0.3-1-1.7-1.2-1.8-1.2c-0.1,0-0.2,0-0.2,0l-0.8-2.4c0.2-1.1,0.5-2.2,0.9-3.3
		l-1-0.4c-0.5,1.2-0.8,2.4-1,3.7l0,0.1l0.8,2.6c-0.6,0.2-1.1,0.5-1.5,1c-0.6,0.5-1,1.2-1,2c0,0.5,0.3,1,0.6,1.3
		c0,0.1-0.1,0.2-0.2,0.3c-0.4,0.3-0.8,0.1-1.3,0.2c-0.6,0.2-1.1,0.7-1.4,1.3c-0.1-0.5-0.1-1.5,0.1-2.5l1.9-4.8l-1-0.4l-1.9,4.9
		c-0.2,1.1-0.6,3.6,0.6,4.1l0.2-0.3c0,0.3,0.1,0.4-0.1,0.8c-0.2,0.3-0.5,0.5-0.7,0.6l-6.6-7L156,56l6.6,7c0,0,0,0.1-0.1,0.1l0-0.1
		l-1.6,0.1l-1.2-1.4l-9.4,1.2l-1.2-0.2l-0.2,1.1l1.4,0.3L159.3,62.9z M162.4,64.2L162.4,64.2L162.4,64.2
		C162.4,64.2,162.5,64.2,162.4,64.2L162.4,64.2z M164.6,64.7L164.6,64.7L164.6,64.7L164.6,64.7z"/>
	<path d="M145.4,89.8l1.2,1.3l1.8-0.1c-0.2,0.4-0.4,0.7-0.7,1c-0.3,0.2-0.7,0.5-0.7,0.5l0,0c-0.9-0.2-1.7-0.1-2.5,0.3
		c-0.9,0.5-1.6,1.3-2,2.3c-1.2,2.1-2,5-1.2,5.5c0.1,0.1,0.3,0.1,0.4,0c2.7-0.5,4.2-0.8,5.4-2.3c1.1-1.4,1.5-3.2,1.3-4.9l1.1-1.5
		l-0.1-0.1c0.1,0,0.2,0,0.2,0c0.1,0,0.1,0,0.2,0l0.3,2l1.2,0.8l1,9.8l1.1-0.1l-1-10.3l-1.3-0.9l-0.2-1.1l7.6,4.6l0.6-0.9l-7.9-4.8
		c0.1-0.2,0.3-0.5,0.7-1.1c0,0,0,0,0-0.1c0.4,0.2,1.1,0.7,1.6,0.7c0.1,0,0.3,0,0.4-0.1c0.8-0.3,1.7-0.6,2.5-1
		c0.1-0.1,0.4-0.3,0.6-0.5c0.7-0.5,2.5-1.8,2.9-1.9l0.1-1.1c-0.5-0.1-1.3,0.4-3.6,2.1c-0.3,0.2-0.5,0.4-0.6,0.4
		c-0.7,0.4-1.5,0.7-2.3,1c-0.1,0-0.3,0-0.5-0.1c0.1,0,0.2,0,0.3-0.1c0.9-0.4,1.4-1.3,1.2-2.2c-0.2-0.3-0.2-0.6-0.3-0.9
		c0-0.2,0-0.2,0-0.2c0.2-0.2,0.8,0.2,1.5,0.2c0.4,0,0.8-0.2,1.1-0.4c0.8-0.5,1-1.5,1.3-2.7c0-0.1,0-0.2,0.1-0.3l1.2,0.6l4.9-1.5
		l-0.3-1.1l-4.5,1.4l-1.2-0.6l0,0.1c-0.3-0.9-1.7-1.2-1.8-1.2c-0.1,0-0.2,0-0.2,0l-0.8-2.5c0.2-1.1,0.5-2.2,0.9-3.3l-1-0.4
		c-0.5,1.2-0.8,2.4-1,3.7l0,0.1l0.8,2.6c-0.6,0.2-1.1,0.5-1.5,1c-0.6,0.5-1,1.2-1,2c0,0.5,0.3,1,0.6,1.3c0,0.1-0.1,0.2-0.2,0.3
		c-0.4,0.3-0.8,0.1-1.3,0.2c-0.6,0.2-1.1,0.6-1.4,1.2c-0.1-0.5-0.1-1.5,0.1-2.5l1.9-4.8l-1-0.4l-1.9,4.9c-0.2,1.1-0.6,3.6,0.6,4.1
		l0.1-0.3c0,0.2,0.1,0.4-0.2,0.8c-0.2,0.3-0.4,0.5-0.7,0.6l-6.7-7l-0.8,0.8l6.6,7c0,0,0,0.1-0.1,0.1l0-0.1l-1.6,0l-1.2-1.4l-9.4,1.2
		l-1.2-0.2l-0.2,1.1l1.4,0.3L145.4,89.8z M148.5,91.1L148.5,91.1L148.5,91.1L148.5,91.1z"/>
	<path d="M183.3,29.4l1.2,1.3l1.8-0.1c-0.2,0.4-0.4,0.7-0.7,1c-0.2,0.2-0.7,0.5-0.7,0.5l0,0c-0.9-0.2-1.7-0.1-2.6,0.3
		c-0.9,0.5-1.6,1.3-2,2.3c-1.2,2.1-2,5-1.2,5.5c0.1,0.1,0.3,0.1,0.5,0c2.7-0.5,4.2-0.8,5.4-2.3c1.1-1.4,1.5-3.1,1.3-4.9l1.1-1.5
		l-0.1-0.1c0.1,0,0.2,0,0.2,0c0.1,0,0.2,0,0.2,0l0.3,2l1.2,0.8l1,9.8l1.1-0.1l-1-10.3l-1.3-0.9l-0.2-1.1l7.6,4.6l0.6-0.9l-7.9-4.8
		c0.1-0.2,0.3-0.5,0.7-1.1c0,0,0,0,0-0.1c0.4,0.2,1.1,0.7,1.6,0.7c0.1,0,0.3,0,0.4-0.1c0.8-0.3,1.7-0.6,2.5-1
		c0.2-0.1,0.4-0.3,0.8-0.5c0.7-0.5,2.4-1.7,2.7-1.8l0.2-1.1c-0.5-0.1-1.2,0.3-3.5,2c-0.3,0.2-0.6,0.4-0.7,0.5
		c-0.7,0.4-1.5,0.7-2.3,1c-0.1,0-0.2-0.1-0.4-0.1c0.1,0,0.2,0,0.2-0.1c0.9-0.4,1.3-1.3,1.2-2.2c-0.1-0.3-0.2-0.6-0.3-0.9
		c0-0.2,0-0.2,0-0.2c0.2-0.2,0.8,0.2,1.5,0.2c0.4,0,0.8-0.2,1.1-0.4c0.8-0.6,1-1.5,1.3-2.7c0-0.1,0-0.2,0.1-0.3l1.2,0.6l4.9-1.5
		l-0.3-1.1l-4.5,1.4l-1.3-0.6l0,0.1c-0.4-0.9-1.7-1.2-1.8-1.2c-0.1,0-0.2,0-0.2,0l-0.8-2.5c0.2-1.1,0.5-2.2,0.9-3.3l-1-0.4
		c-0.4,1.2-0.8,2.4-1,3.6l0,0.1l0.8,2.6c-0.6,0.2-1.1,0.5-1.5,1c-0.6,0.5-1,1.2-1,2c0,0.5,0.3,1,0.6,1.3c0,0.1-0.1,0.2-0.2,0.3
		c-0.4,0.3-0.8,0.1-1.3,0.2c-0.6,0.2-1.1,0.7-1.4,1.3c-0.1-0.5-0.1-1.5,0.1-2.5l1.9-4.8l-1-0.4l-1.9,4.9c-0.2,1-0.6,3.6,0.6,4.1
		l0.2-0.3c0,0.2,0.1,0.4-0.1,0.8c-0.2,0.3-0.4,0.5-0.7,0.6l-6.7-7l-0.8,0.8l6.6,7c0,0,0,0.1-0.1,0.1l0-0.1l-1.6,0l-1.2-1.4l-9.4,1.2
		l-1.3-0.2l-0.2,1.1l1.4,0.3L183.3,29.4z M186.4,30.7L186.4,30.7C186.4,30.7,186.4,30.7,186.4,30.7L186.4,30.7z"/>
	<path d="M195.8,219.8l-1.2-0.2l6.9-5.6l-0.7-0.9l-7,5.8l-0.8-1c0,0,0,0,0,0c0.4-0.3,1.2-1,1.2-1.6c0-0.9,0-1.8-0.1-2.7
		c0-0.2-0.1-0.5-0.2-0.8c-0.2-0.8-0.8-2.9-0.8-3.3l-0.5-0.2l-0.5-0.3c-0.2,0.4-0.1,1.2,0.7,4c0.1,0.3,0.2,0.6,0.2,0.7
		c0.1,0.8,0.1,1.7,0.1,2.5c0,0.1-0.1,0.2-0.3,0.4c0-0.1,0-0.2,0-0.3c0-0.9-1-2-1.7-1.9c-0.3,0.1-0.6,0.1-0.9,0
		c-0.2-0.1-0.2-0.1-0.2-0.1c-0.1-0.2,0.5-0.6,0.7-1.3c0.1-0.4,0.1-0.7,0-1.1c-0.3-0.9-1-1.5-2.2-2.1c-0.1-0.1-0.2-0.1-0.2-0.1l1-1
		l0.2-5.1l-1.1,0l-0.2,4.7l-1,1l0.1,0.1c-1,0-1.7,1.2-1.7,1.3c0,0.1,0,0.1-0.1,0.2l-2.6-0.1c-1-0.5-1.9-1.2-2.8-1.9l-0.7,0.8
		c1,0.8,2,1.5,3.1,2.1l2.8,0.2c0,0.6,0.1,1.2,0.4,1.8c0.3,0.7,0.8,1.3,1.6,1.6c0.5,0.1,1,0.1,1.5-0.1c0.1,0.1,0.2,0.2,0.3,0.3
		c0.2,0.5-0.2,0.8-0.2,1.3c0,0.6,0.2,1.2,0.7,1.7c-0.5-0.1-1.5-0.4-2.3-1l-3.9-3.3l-0.7,0.8l4,3.4c0.7,0.4,2.1,1.2,3.1,1.2
		c0.4,0,0.7-0.1,1-0.3l-0.2-0.2c0.2,0.1,0.4,0.1,0.7,0.4c0.2,0.3,0.3,0.5,0.3,0.8l-8.9,4l0.5,1l8.9-4c0,0.1,0.1,0.1,0.2,0.2
		l-0.2-0.1l-0.5,1.5l-1.7,0.7l-1.9,9.3l-0.6,1.1l1,0.6l0.7-1.2l1.9-9l1.7-0.7l0.6-1.8c0.3,0.3,0.5,0.6,0.7,1
		c0.1,0.3,0.3,0.8,0.3,0.8l0,0c-0.4,0.8-0.7,1.6-0.6,2.5c0.2,1,0.7,2,1.5,2.7c1.6,1.8,4.1,3.5,4.8,3c0.1-0.1,0.2-0.2,0.2-0.4
		c0.4-2.7,0.6-4.2-0.4-5.9c-1-1.5-2.5-2.5-4.2-2.8l0,0L194,221l-0.1,0.1c0.1-0.1,0.1-0.2,0.2-0.3c0,0,0-0.1,0-0.1l2,0.4l1.2-0.9
		l9.6,2.4l0.3-1.1l-10.1-2.5L195.8,219.8z M192.9,221.7L192.9,221.7l0.1-0.1L192.9,221.7z"/>
	<path d="M182.8,198c0.1-0.1,0.2-0.3,0.2-0.4c0.4-2.7,0.6-4.2-0.4-5.9c-1-1.5-2.5-2.5-4.2-2.8l0,0l-1.1-1.6l-0.1,0.1
		c0.1-0.1,0.1-0.2,0.1-0.2c0-0.1,0-0.1,0-0.2l2,0.4l1.2-0.9l9.6,2.4l0.3-1.1l-10.1-2.5l-1.2,0.9l-1.1-0.2l6.8-5.6l-0.7-0.9l-7.1,5.8
		c-0.3-0.3-0.5-0.7-0.8-1c0,0,0,0,0,0c0.4-0.3,1.2-1,1.2-1.7c0-0.9,0-1.8-0.1-2.7c0-0.2-0.1-0.5-0.2-0.8c-0.2-0.8-0.8-2.9-0.8-3.3
		l-0.5-0.2l-0.5-0.3c-0.2,0.4-0.2,1,0.7,4.1c0.1,0.3,0.2,0.6,0.2,0.7c0.1,0.8,0.1,1.7,0.1,2.5c0,0.1-0.2,0.2-0.3,0.4
		c0-0.1,0-0.2,0-0.3c0-0.9-1.1-1.9-1.7-1.9c-0.3,0.1-0.6,0.1-0.9,0c-0.2-0.1-0.2-0.1-0.2-0.1c-0.1-0.2,0.5-0.6,0.7-1.3
		c0.1-0.4,0.1-0.7,0-1.1c-0.3-1-1-1.5-2.2-2.2c-0.1-0.1-0.2-0.1-0.2-0.1l1-1l0.2-5.1l-1.1,0l-0.2,4.7l-1,1l0.1,0.1c0,0,0,0,0,0
		c-1,0-1.7,1.2-1.7,1.3c0,0.1,0,0.1-0.1,0.2l-2.6-0.1c-1-0.6-1.9-1.2-2.8-1.9l-0.7,0.8c1,0.8,2,1.5,3.1,2.1l0.1,0.1l2.7,0.1
		c0,0.6,0.1,1.2,0.4,1.8c0.3,0.7,0.9,1.3,1.6,1.6c0.5,0.1,1,0.1,1.5-0.1c0.1,0.1,0.2,0.2,0.3,0.3c0.2,0.4-0.2,0.8-0.2,1.3
		c0,0.6,0.2,1.2,0.6,1.6c-0.5-0.1-1.4-0.4-2.2-0.9l-3.9-3.3l-0.7,0.8l4,3.4c0.7,0.4,2.1,1.2,3.1,1.2c0.4,0,0.7-0.1,1-0.3l-0.1-0.1
		c0.2,0,0.4,0.1,0.6,0.4c0.2,0.3,0.3,0.5,0.3,0.8l-8.8,3.9l0.5,1l8.8-3.9c0,0,0.1,0.1,0.1,0.1l-0.1,0l-0.5,1.5l-1.7,0.7l-2,9.3
		l-0.6,1.1l1,0.6l0.7-1.2l1.9-9l1.6-0.7l0.6-1.8c0.3,0.3,0.5,0.6,0.7,1c0.1,0.3,0.3,0.8,0.3,0.8l0,0c-0.5,0.8-0.7,1.6-0.6,2.5
		c0.2,1,0.7,2,1.5,2.7C179.6,196.8,182.1,198.6,182.8,198z M176.1,188L176.1,188L176.1,188L176.1,188z"/>
	<path d="M154.7,164.9L154.7,164.9l-1.1-1.6l-0.1,0.1c0.1-0.1,0.1-0.2,0.2-0.3c0,0,0-0.1,0-0.1l2,0.4l1.2-0.9l9.6,2.4l0.3-1.1
		l-10.1-2.5l-1.2,0.9l-1.1-0.2l6.8-5.6l-0.7-0.9l-7,5.8c-0.1-0.2-0.4-0.5-0.8-1c0,0,0,0,0,0c0.4-0.3,1.2-1,1.2-1.7
		c0-0.9,0-1.8-0.1-2.7c0-0.2-0.1-0.5-0.2-0.8c-0.2-0.8-0.8-2.9-0.8-3.3l-0.5-0.2l-0.5-0.3c-0.2,0.4-0.1,1.2,0.7,4
		c0.1,0.3,0.2,0.6,0.2,0.7c0.1,0.8,0.1,1.7,0.1,2.5c0,0.1-0.1,0.2-0.3,0.4c0-0.1,0-0.2,0-0.3c0-0.9-1.1-2-1.7-1.9
		c-0.3,0.1-0.6,0.1-0.9,0c-0.2-0.1-0.2-0.1-0.2-0.1c-0.1-0.2,0.5-0.6,0.7-1.3c0.1-0.4,0.1-0.7,0-1.1c-0.3-1-1-1.5-2.2-2.1
		c-0.1-0.1-0.2-0.1-0.2-0.1l1-1l0.2-5.1l-1.1,0l-0.2,4.7l-1,1l0.1,0.1c-1,0-1.6,1.2-1.7,1.3c0,0.1,0,0.1-0.1,0.2l-2.6-0.1
		c-1-0.5-1.9-1.2-2.8-1.9l-0.7,0.8c1,0.8,2,1.5,3.1,2.1l0.1,0.1l2.7,0.1c0,0.6,0.1,1.2,0.4,1.8c0.3,0.7,0.8,1.3,1.6,1.6
		c0.5,0.1,1,0.1,1.5-0.1c0.1,0.1,0.2,0.2,0.3,0.3c0.2,0.5-0.2,0.8-0.2,1.3c0,0.6,0.3,1.3,0.7,1.7c-0.5-0.1-1.5-0.4-2.4-1l-3.9-3.4
		l-0.7,0.8l4,3.4c0.7,0.4,2.1,1.2,3.1,1.2c0.4,0,0.7-0.1,1-0.3l-0.2-0.2c0.2,0.1,0.4,0.1,0.7,0.4c0.2,0.3,0.3,0.5,0.3,0.8l-8.8,4
		l0.5,1l8.8-4c0,0.1,0.1,0.1,0.1,0.1l-0.1,0l-0.5,1.6l-1.7,0.7l-2,9.3l-0.6,1.1l1,0.6l0.7-1.2l1.9-9l1.6-0.7l0.6-1.8
		c0.3,0.3,0.5,0.6,0.7,1c0.1,0.3,0.3,0.8,0.3,0.8l0,0c-0.4,0.8-0.7,1.6-0.6,2.5c0.2,1,0.7,2,1.5,2.7c1.6,1.8,4.1,3.5,4.8,3
		c0.1-0.1,0.2-0.3,0.2-0.4c0.4-2.7,0.6-4.2-0.4-5.9C157.9,166.3,156.4,165.3,154.7,164.9z M152.4,164L152.4,164L152.4,164L152.4,164
		z"/>
	<path d="M139.8,126.5c0.3,0.3,0.5,0.6,0.7,1c0.1,0.3,0.3,0.8,0.3,0.8l0,0c-0.5,0.8-0.7,1.6-0.6,2.5c0.2,1,0.7,2,1.5,2.7
		c1.6,1.8,4.1,3.5,4.8,3c0.1-0.1,0.2-0.3,0.2-0.4c0.4-2.7,0.6-4.2-0.4-5.9c-1-1.5-2.5-2.5-4.2-2.8l0,0l-1.1-1.6l-0.1,0
		c0-0.1,0.1-0.1,0.1-0.2c0,0,0-0.1,0-0.2l2,0.4l1.2-0.9l9.6,2.4l0.3-1.1l-10.1-2.5l-1.2,0.9l-1.1-0.2l6.8-5.6l-0.7-0.9l-7.1,5.8
		c-0.3-0.3-0.5-0.7-0.8-1c0,0,0,0,0,0c0.5-0.3,1.2-1,1.2-1.7c0-0.9,0-1.8-0.1-2.7c0-0.2-0.1-0.5-0.3-1c-0.2-0.8-0.8-2.8-0.7-3.2
		l-0.5-0.2l-0.5-0.3c-0.2,0.4-0.1,1.2,0.7,3.9c0.1,0.4,0.2,0.7,0.2,0.8c0.1,0.8,0.1,1.7,0.1,2.5c0,0.1-0.1,0.2-0.3,0.4
		c0-0.1,0-0.2,0-0.3c0-0.9-1.1-2-1.7-1.9c-0.3,0.1-0.6,0.1-0.9,0c-0.2-0.1-0.2-0.1-0.2-0.1c-0.1-0.2,0.5-0.6,0.7-1.3
		c0.1-0.4,0.1-0.7,0-1.1c-0.3-1-1-1.5-2.1-2.2c-0.1-0.1-0.2-0.1-0.2-0.1l1-1l0.2-5.1l-1.1,0l-0.2,4.7l-1,1l0.1,0.1
		c-1,0-1.7,1.2-1.7,1.3c0,0.1,0,0.2-0.1,0.2l-2.6-0.1c-1-0.6-1.9-1.2-2.8-1.9l-0.7,0.8c1,0.8,2,1.5,3.1,2.1l0.1,0.1l2.7,0.1
		c0,0.6,0.1,1.2,0.4,1.8c0.3,0.7,0.9,1.3,1.6,1.6c0.5,0.1,1,0.1,1.5-0.1c0.1,0.1,0.2,0.2,0.3,0.3c0.2,0.4-0.2,0.8-0.3,1.3
		c0,0.6,0.2,1.1,0.6,1.6c-0.5-0.1-1.4-0.4-2.3-0.9l-3.9-3.3l-0.7,0.8l4,3.4c0.7,0.4,2.1,1.2,3.1,1.2c0.4,0,0.7-0.1,1-0.3l-0.1-0.1
		c0.2,0,0.4,0.1,0.6,0.4c0.2,0.3,0.3,0.5,0.3,0.8l-8.7,3.9l-0.1-0.5l-4.5,1.2l-1.2-0.7l0,0.1c0,0,0,0,0,0c-0.3-1-1.6-1.3-1.7-1.3
		c-0.1,0-0.2,0-0.3,0l-0.7-2.5c0.2-1.1,0.6-2.2,1-3.3l-1-0.4c-0.5,1.2-0.9,2.4-1.1,3.6l0,0.1l0.7,2.6c-0.6,0.2-1.1,0.5-1.5,1
		c-0.6,0.5-1,1.2-1.1,2c0,0.5,0.2,1,0.6,1.4c0,0.1-0.1,0.2-0.1,0.3c-0.4,0.3-0.8,0.1-1.3,0.2c-0.6,0.2-1.2,0.7-1.5,1.3
		c-0.1-0.4-0.1-1.5,0.2-2.6l2.1-4.7l-1-0.4l-2.1,4.8c-0.3,1-0.8,3.5,0.4,4.2l0.2-0.4c0,0.3,0.1,0.5-0.2,0.9
		c-0.2,0.3-0.5,0.4-0.7,0.6l-6.4-7.3l-0.8,0.7l6.4,7.3c0,0.1-0.1,0.1-0.1,0.2l0-0.2l-1.6,0l-1.2-1.4l-9.5,0.8l-1.2-0.3l-0.3,1.1
		l1.4,0.3l9-0.8l1.1,1.4l1.8,0c-0.2,0.3-0.4,0.7-0.7,1c-0.3,0.2-0.7,0.5-0.7,0.5l0,0c-0.8-0.2-1.7-0.1-2.5,0.2
		c-0.9,0.5-1.7,1.3-2.1,2.2c-1.3,2-2.2,4.9-1.5,5.4c0.1,0.1,0.3,0.1,0.4,0.1c2.7-0.4,4.2-0.6,5.5-2.1c1.2-1.4,1.7-3.2,1.5-4.9
		l1.2-1.4l-0.1-0.1c0.1,0,0.2,0.1,0.3,0.1c0.1,0,0.1,0,0.2,0l0.2,2l1.2,0.9l0.5,9.9l1.1-0.1l-0.6-10.4l-1.2-0.9l-0.1-1.2l7.4,4.9
		l0.6-0.9l-7.6-5.1c0.1-0.2,0.3-0.5,0.7-1c0,0,0,0,0,0c0.4,0.3,1.1,0.7,1.6,0.7c0.1,0,0.2,0,0.3-0.1c0.9-0.2,1.7-0.5,2.6-0.9
		c0.1-0.1,0.4-0.2,0.7-0.4c0.7-0.5,2.6-1.7,2.9-1.7l0.3-1.1c-0.5-0.1-1.3,0.2-3.8,1.9c-0.3,0.2-0.5,0.3-0.6,0.4
		c-0.8,0.3-1.6,0.6-2.4,0.9c0,0,0,0,0,0c-0.1,0-0.2-0.1-0.4-0.1c0.1,0,0.2,0,0.2,0c0.9-0.4,1.4-1.3,1.3-2.2
		c-0.1-0.3-0.2-0.6-0.2-0.9c0-0.2,0-0.2,0-0.2c0.2-0.2,0.8,0.3,1.5,0.3c0.4,0,0.8-0.2,1.1-0.4c0.8-0.5,1.1-1.4,1.4-2.7
		c0-0.1,0-0.2,0.1-0.2l1.2,0.7l4.9-1.3l0.2,0.4l8.8-3.9c0,0,0.1,0.1,0.1,0.1l-0.1,0l-0.5,1.6l-1.7,0.7l-1.9,9.3l-0.7,1.1l1,0.6
		l0.7-1.2l1.9-9l1.6-0.7L139.8,126.5z M113.3,137.9l0.1,0c0,0,0,0,0,0.1c0,0,0,0.1,0.1,0.1L113.3,137.9z M139.8,126.5L139.8,126.5
		L139.8,126.5L139.8,126.5z"/>
	<path d="M118.8,75.4l-1.1,0l-0.2,4.7l-1,1l0.1,0.1c0,0,0,0,0,0c-1,0-1.7,1.2-1.7,1.3c0,0.1,0,0.1-0.1,0.2l-2.6-0.1
		c-1-0.5-1.9-1.2-2.8-1.9l-0.7,0.8c1,0.8,2,1.5,3.1,2.1l0.1,0.1l2.7,0.1c0,0.6,0.1,1.2,0.4,1.8c0.3,0.7,0.9,1.3,1.6,1.6
		c0.5,0.1,1,0.1,1.5-0.1c0.1,0.1,0.2,0.2,0.3,0.3c0.2,0.4-0.2,0.8-0.3,1.3c0,0.6,0.2,1.2,0.6,1.6c-0.5-0.1-1.4-0.4-2.2-0.9l-3.9-3.3
		l-0.7,0.8l4,3.4c0.7,0.4,2.1,1.2,3.1,1.2c0.4,0,0.7-0.1,1-0.3l-0.1-0.1c0.2,0,0.3,0.1,0.6,0.4c0.2,0.3,0.3,0.5,0.3,0.8l-8.8,4
		l0.5,1l8.8-4c0,0,0.1,0.1,0.1,0.1l-0.1,0l-0.5,1.6l-1.7,0.7l-1.9,9.3l-0.7,1.1l1,0.6l0.7-1.2l1.9-9l1.6-0.7l0.6-1.8
		c0.3,0.3,0.5,0.6,0.7,1c0.1,0.3,0.3,0.8,0.3,0.8c-0.4,0.8-0.7,1.6-0.6,2.5c0.2,1,0.7,2,1.5,2.7c1.6,1.8,4.1,3.5,4.8,3
		c0.1-0.1,0.2-0.2,0.2-0.4c0.4-2.7,0.6-4.2-0.4-5.9c-1-1.5-2.5-2.5-4.2-2.8l0,0l-1.1-1.6l-0.1,0.1c0.1-0.1,0.1-0.2,0.1-0.3
		c0,0,0-0.1,0-0.2l2,0.4l1.2-0.9l9.6,2.4l0.3-1.1l-10.1-2.5l-1.2,0.9l-1.1-0.2l6.9-5.6l-0.7-0.9l-7,5.8c-0.1-0.2-0.4-0.4-0.8-1
		c0,0,0,0,0,0c0.4-0.3,1.2-1,1.2-1.7c0-0.9,0-1.8-0.1-2.7c0-0.2-0.1-0.5-0.3-0.9c-0.2-0.8-0.8-2.8-0.7-3.2l-0.5-0.2l-0.5-0.3
		c-0.2,0.4-0.1,1.2,0.7,3.9c0.1,0.4,0.2,0.7,0.2,0.8c0.1,0.8,0.1,1.7,0.1,2.5c0,0.1-0.2,0.2-0.3,0.4c0-0.1,0-0.2,0-0.3
		c0-0.9-1.1-1.9-1.7-1.9c-0.3,0.1-0.6,0.1-0.9,0c-0.2-0.1-0.2-0.1-0.2-0.1c-0.1-0.2,0.5-0.6,0.7-1.3c0.1-0.4,0.1-0.7,0-1.1
		c-0.3-0.9-1-1.5-2.1-2.1c-0.1-0.1-0.2-0.1-0.2-0.2l1-1L118.8,75.4z M122.2,93.6L122.2,93.6L122.2,93.6L122.2,93.6z"/>
	<path d="M94.2,51.9c-1-0.5-1.9-1.2-2.8-1.9l-0.7,0.8c1,0.8,2,1.5,3.1,2.1l0.1,0.1l2.7,0.1c0,0.6,0.1,1.2,0.4,1.7
		c0.3,0.7,0.8,1.3,1.6,1.6c0.5,0.1,1,0.1,1.5-0.1c0.1,0.1,0.2,0.2,0.3,0.3c0.2,0.4-0.2,0.8-0.3,1.3c0,0.6,0.3,1.2,0.7,1.7
		c-0.5-0.1-1.5-0.4-2.4-1l-3.9-3.3l-0.7,0.8l4,3.4c0.7,0.4,2.1,1.2,3.1,1.2c0.4,0,0.7-0.1,1-0.3l-0.2-0.2c0.2,0.1,0.4,0.1,0.7,0.4
		c0.2,0.3,0.3,0.6,0.3,0.8l-8.9,4l0.5,1l8.9-4c0.1,0.1,0.1,0.1,0.2,0.2l-0.2-0.1l-0.5,1.5l-1.7,0.7L99,74l-0.7,1.1l1,0.6l0.7-1.2
		l1.9-9l1.7-0.7l0.6-1.8c0.3,0.3,0.5,0.6,0.7,1c0.1,0.3,0.3,0.8,0.3,0.8l0,0c-0.5,0.8-0.7,1.6-0.6,2.5c0.2,1,0.7,2,1.5,2.7
		c1.6,1.8,4.1,3.5,4.8,3c0.1-0.1,0.2-0.3,0.2-0.4c0.4-2.7,0.6-4.2-0.4-5.9c-1-1.5-2.5-2.5-4.2-2.8l0,0l-1.1-1.6l-0.1,0.1
		c0.1-0.1,0.1-0.2,0.2-0.3c0,0,0-0.1,0-0.1l2,0.4l1.2-0.9l9.6,2.4l0.3-1.1l-10.1-2.5l-1.2,0.9l-1.1-0.2l6.8-5.6l-0.7-0.9l-7,5.8
		l-0.8-1c0,0,0,0,0,0c0.4-0.3,1.2-1,1.2-1.6c0-0.9,0-1.8-0.1-2.7c0-0.2-0.1-0.5-0.2-0.8c-0.2-0.8-0.8-2.9-0.8-3.3l-0.5-0.2l-0.5-0.3
		c-0.2,0.4-0.1,1.2,0.7,4c0.1,0.3,0.2,0.6,0.2,0.7c0.1,0.8,0.1,1.7,0.1,2.5c0,0.1-0.2,0.2-0.3,0.4c0-0.1,0-0.2,0-0.4
		c0-0.9-1-2-1.7-1.9c-0.3,0.1-0.6,0.1-0.9,0c-0.2-0.1-0.2-0.1-0.2-0.1c-0.1-0.2,0.5-0.6,0.7-1.3c0.1-0.4,0.1-0.7,0-1.1
		c-0.3-1-1-1.5-2.1-2.2c-0.1-0.1-0.1-0.1-0.2-0.1l1-1l0.2-5.1l-1.1,0l-0.2,4.7l-1,1l0,0c-1,0.1-1.7,1.2-1.7,1.3
		c0,0.1-0.1,0.2-0.1,0.3L94.2,51.9z M104.3,62.9l-0.2,0.1l0-0.1L104.3,62.9C104.2,62.9,104.3,62.9,104.3,62.9z"/>
	<path d="M69.8,25.3l2.7,0.1c0,0.6,0.1,1.2,0.4,1.8c0.3,0.7,0.8,1.3,1.6,1.6c0.5,0.1,1,0.1,1.5-0.1c0.1,0.1,0.2,0.2,0.3,0.3
		c0.2,0.5-0.2,0.8-0.2,1.3c0,0.7,0.3,1.3,0.8,1.8c-0.5,0-1.5-0.4-2.4-1l-3.9-3.4l-0.7,0.8l4,3.5c0.7,0.4,2.1,1.2,3.1,1.2
		c0.4,0,0.7-0.1,1-0.3l-0.3-0.3c0.3,0.1,0.5,0,0.8,0.4c0.2,0.3,0.3,0.5,0.3,0.8l-8.8,4l0.5,1l8.8-4c0,0.1,0.1,0.1,0.1,0.1l-0.1,0
		l-0.5,1.6l-1.7,0.7l-2,9.3l-0.6,1.1l1,0.6l0.7-1.2l1.9-9l1.6-0.7l0.6-1.8c0.3,0.3,0.5,0.6,0.7,1c0.1,0.3,0.3,0.8,0.3,0.8l0.1,0
		c-0.5,0.8-0.7,1.7-0.6,2.6c0.2,1,0.7,2,1.5,2.7c1.6,1.8,4.1,3.5,4.8,3c0.1-0.1,0.2-0.3,0.2-0.4c0.4-2.7,0.6-4.2-0.4-5.9
		c-1-1.5-2.5-2.5-4.2-2.8l0.1,0l-1.1-1.6l-0.1,0.1c0.1-0.1,0.1-0.2,0.2-0.3c0,0,0-0.1,0-0.1l2,0.4l1.2-0.9l9.6,2.4l0.3-1.1
		l-10.1-2.5L83,33.5l-1.1-0.2l6.8-5.6L88,26.8l-7,5.8c-0.1-0.2-0.4-0.5-0.8-1c0,0,0,0,0,0c0.5-0.3,1.2-1,1.2-1.7
		c0-0.9,0-1.8-0.2-2.7c0-0.2-0.1-0.5-0.2-0.8c-0.2-0.8-0.8-2.9-0.8-3.3l-0.5-0.2l-0.5-0.3c-0.3,0.4-0.1,1.2,0.7,4.1
		c0.1,0.3,0.2,0.6,0.2,0.7c0.1,0.8,0.1,1.7,0.1,2.5c0,0.1-0.1,0.2-0.3,0.4c0-0.1,0-0.2,0-0.3c0-0.9-1.1-2-1.7-1.9
		c-0.3,0.1-0.6,0.1-0.9,0c-0.2-0.1-0.2-0.1-0.2-0.1c-0.1-0.2,0.5-0.6,0.7-1.3c0.1-0.4,0.1-0.7,0-1.1c-0.3-0.9-1-1.5-2.2-2.1
		c-0.1-0.1-0.2-0.1-0.2-0.1l1-1l0.2-5.1l-1.1,0l-0.2,4.7l-1,1l0.1,0.1c-1,0-1.6,1.2-1.7,1.3c0,0.1,0,0.1-0.1,0.2l-2.6-0.1
		c-1-0.6-1.9-1.2-2.8-1.9l-0.7,0.8c1,0.8,2,1.5,3.1,2.1L69.8,25.3z M80,35.4L80,35.4L80,35.4L80,35.4z"/>
</g>
</svg>
