<?xml version="1.0" encoding="utf-8"?>
<!-- Generator: Adobe Illustrator 25.0.1, SVG Export Plug-In . SVG Version: 6.00 Build 0)  -->
<svg version="1.1" id="Layer_1" xmlns="http://www.w3.org/2000/svg" xmlns:xlink="http://www.w3.org/1999/xlink" x="0px" y="0px"
	 viewBox="0 0 250 250" style="enable-background:new 0 0 250 250;" xml:space="preserve">
<style type="text/css">
	.st0{fill:none;}
</style>
<g id="Calque_1">
</g>
<g id="intersection">
	<path d="M225.2,247.5H24.8c-12.2,0-22.1-9.9-22.1-22.1V25.1C2.8,12.9,12.7,3,24.8,3h200.3c12.2,0,22.1,9.9,22.1,22.1v200.3
		C247.2,237.6,237.3,247.5,225.2,247.5z M24.8,10c-8.3,0-15.1,6.8-15.1,15.1v200.3c0,8.3,6.8,15.1,15.1,15.1h200.3
		c8.3,0,15.1-6.8,15.1-15.1V25.1c0-8.3-6.8-15.1-15.1-15.1H24.8z"/>
	<g>
		<g>
			<line class="st0" x1="23.7" y1="115.8" x2="98.1" y2="115.8"/>
			<path d="M98.1,121.3H23.7c-3,0-5.5-2.5-5.5-5.5s2.5-5.5,5.5-5.5H98c3,0,5.5,2.5,5.5,5.5S101.1,121.3,98.1,121.3z"/>
		</g>
		<g>
			<line class="st0" x1="119.7" y1="24.3" x2="119.7" y2="98.7"/>
			<path d="M119.7,104.2c-3,0-5.5-2.5-5.5-5.5V24.3c0-3,2.5-5.5,5.5-5.5s5.5,2.5,5.5,5.5v74.3C125.2,101.7,122.8,104.2,119.7,104.2z
				"/>
		</g>
		<path d="M150.1,231.2h-44V130.8c0-12.2,9.8-22,22-22h103.7v44h-81.7V231.2z"/>
	</g>
</g>
</svg>
