<?xml version="1.0" encoding="utf-8"?>
<!-- Generator: Adobe Illustrator 25.0.1, SVG Export Plug-In . SVG Version: 6.00 Build 0)  -->
<svg version="1.1" id="Layer_1" xmlns="http://www.w3.org/2000/svg" xmlns:xlink="http://www.w3.org/1999/xlink" x="0px" y="0px"
	 viewBox="0 0 250 250" style="enable-background:new 0 0 250 250;" xml:space="preserve">
<polygon points="241.7,121.3 133.7,121.3 233.1,21.9 233.1,86.8 241.5,86.8 241.5,7.6 162.3,7.6 162.3,16 227.1,16 127.8,115.4 
	127.8,7.4 119.3,7.4 119.3,115.4 44,40 38,46 113.4,121.3 6.8,121.3 6.8,129.8 113.4,129.8 38,205.1 44,211.1 119.3,135.7 
	119.3,242.3 127.8,242.3 127.8,135.7 204.1,212 210.1,206.1 133.7,129.8 241.7,129.8 "/>
</svg>
