<?xml version="1.0" encoding="utf-8"?>
<!-- Generator: Adobe Illustrator 25.0.1, SVG Export Plug-In . SVG Version: 6.00 Build 0)  -->
<svg version="1.1" id="Layer_1" xmlns="http://www.w3.org/2000/svg" xmlns:xlink="http://www.w3.org/1999/xlink" x="0px" y="0px"
	 viewBox="0 0 250 250" style="enable-background:new 0 0 250 250;" xml:space="preserve">
<polygon points="242.7,115.2 148.7,115.2 222.6,41.3 222.6,88.7 242.6,88.7 242.6,7.5 161.4,7.5 161.4,27.5 208.1,27.5 134.5,101 
	134.5,7 114.5,7 114.5,101 49,35.5 34.9,49.7 100.4,115.2 7.7,115.2 7.7,135.2 100.4,135.2 34.9,200.7 49,214.9 114.5,149.3 
	114.5,242 134.5,242 134.5,149.3 201,215.8 215.2,201.7 148.7,135.2 242.7,135.2 "/>
</svg>
