<?xml version="1.0" encoding="utf-8"?>
<!-- Generator: Adobe Illustrator 25.0.1, SVG Export Plug-In . SVG Version: 6.00 Build 0)  -->
<svg version="1.1" id="Layer_1" xmlns="http://www.w3.org/2000/svg" xmlns:xlink="http://www.w3.org/1999/xlink" x="0px" y="0px"
	 viewBox="0 0 250 250" style="enable-background:new 0 0 250 250;" xml:space="preserve">
<style type="text/css">
	.st0{stroke:#000000;stroke-miterlimit:10;}
</style>
<path class="st0" d="M239.4,183.4c-0.5-1.3-1.4-2.7-2.9-4.4c-5.7-4.4-11.6-8.9-17.9-13.5c-6.3-4.5-12.5-8.5-18.7-12
	c-3.4-1.9-7-3.5-10.7-4.8c-3.7-1.3-7.4-2.4-11.2-3.5c-3.8-1.1-7.5-2.3-11.2-3.5c-1.1-0.4-2.2-0.8-3.2-1.2l-15.2-8.8
	c-2.9-1.4-5.2-2.5-7.1-3.2c-1.9-0.7-5.2-1.8-10.1-3.2c4.3-1.1,7.5-2.2,9.6-3.2s4.6-2.4,7.5-4.1l5.4-3.1c2.5-0.7,8.4-2.4,11.2-3.6
	c3.6-1.6,7.3-3.1,11-4.5c3.7-1.4,7.4-2.9,11.1-4.4c3.7-1.5,7.2-3.3,10.6-5.3c0.6-0.4,2.1-1.4,4.4-3c2.3-1.6,4.8-3.3,7.6-5.2
	c2.7-1.8,5.4-3.7,8.1-5.7s4.7-3.4,6.1-4.4c1.7-1.2,3.5-2.5,5.5-4c2-1.5,3.7-3,5.1-4.6c1.5-1.6,2.5-3.2,3.1-5
	c0.6-1.7,0.4-3.4-0.6-5.1c-0.8-1.3-1.8-2.1-3.2-2.4c-1.4-0.3-3.1-0.2-5.2,0.3c-6.7,2.7-13.6,5.5-20.7,8.6
	c-7.1,3.1-13.7,6.5-19.8,10.1c-3.4,2-6.6,4.3-9.5,6.8c-3,2.5-5.9,5.2-8.7,7.9s-5.8,5.4-8.7,7.9c-1.4,1.2-2.9,2.4-4.4,3.4l-8.5,5
	l0,0.1l-4.1,2.4c-3.1,1.7-5.5,3.3-7.1,4.7c-1.6,1.4-4.4,4.1-8.4,8.1c1.4-5.1,2.2-8.8,2.4-11.1c0.1-2.3,0.2-5.1,0.2-8.6
	c0,0,2.4-8.8,2.9-12.7c0.5-3.9,1-7.9,1.7-11.8s1.2-7.9,1.8-11.8c0.6-3.9,0.8-7.9,0.8-11.8c0-0.8-0.1-2.5-0.3-5.3
	c-0.2-2.8-0.4-5.8-0.6-9.1c-0.2-3.3-0.5-6.5-0.8-9.8c-0.4-3.3-0.6-5.8-0.7-7.4c-0.1-2.1-0.4-4.3-0.6-6.7s-0.7-4.7-1.4-6.7
	s-1.5-3.8-2.7-5.2s-2.8-2.1-4.7-2.1c-1.5,0-2.8,0.5-3.7,1.5s-1.7,2.6-2.4,4.6c-1.1,7.1-2.1,14.5-3,22.2c-0.9,7.7-1.4,15.1-1.4,22.2
	c0,3.9,0.3,7.8,1,11.7c0.7,3.8,1.5,7.7,2.4,11.5c0.9,3.8,1.7,7.7,2.4,11.5c0.3,1.8,0.6,3.7,0.8,5.5v9.9c0,3.4,0.2,6.3,0.6,8.6
	c0.4,2.3,1.2,6,2.4,11.1c-2.3-2-4.1-3.6-5.3-4.9c-1.3-1.3-2.4-2.4-3.2-3.2c-0.9-0.9-1.8-1.6-2.8-2.4c-1-0.7-2.2-1.5-3.6-2.3
	l-9.3-5.4l0-0.1c0,0-6.5-6.4-9.7-8.7c-3.2-2.3-6.4-4.7-9.5-7.2s-6.3-4.9-9.4-7.3c-3.2-2.4-6.5-4.6-9.9-6.5c-0.7-0.4-2.3-1.1-4.8-2.3
	s-5.3-2.5-8.3-3.9c-3-1.4-6-2.8-9-4.1s-5.3-2.3-6.9-3c-1.9-0.9-3.9-1.8-6.2-2.7c-2.3-0.9-4.5-1.6-6.5-2.1S17,56.6,15.2,57
	c-1.8,0.3-3.2,1.4-4.1,3.1c-0.7,1.3-0.9,2.7-0.4,3.9s1.4,2.7,2.9,4.4c5.7,4.4,11.7,8.9,17.9,13.4c6.3,4.5,12.5,8.5,18.7,12
	c3.4,1.9,7,3.5,10.7,4.8c3.7,1.3,7.4,2.4,11.2,3.5s7.5,2.2,11.2,3.5c1.4,0.5,2.8,1,4.1,1.6l18.9,10.9c2.8,1.7,5.3,2.9,7.3,3.4
	c2,0.6,5.4,1.9,10.3,3.8c-4.6,1.4-7.9,2.5-10.1,3.2s-4.6,1.8-7.5,3.2l-2.8,1.6l-0.1-0.1c0,0-8.8,2.6-12.4,4.2s-7.2,3.2-10.9,4.7
	s-7.3,3.1-11,4.6c-3.6,1.6-7.1,3.4-10.5,5.4c-0.6,0.4-2.1,1.4-4.4,3.1s-4.8,3.4-7.5,5.3s-5.3,3.8-8,5.9c-2.6,2-4.6,3.5-6,4.5
	c-1.7,1.2-3.5,2.6-5.4,4.1s-3.6,3.1-5,4.7c-0.5,0.6-0.9,1.2-1.3,1.7l-1.2,0.7l0.4,0.7c-0.3,0.6-0.6,1.2-0.8,1.9
	c-0.6,1.7-0.4,3.4,0.7,5.1c0.8,1.3,1.9,2.1,3.2,2.3c1.4,0.2,3.1,0.1,5.2-0.4c6.7-2.8,13.5-5.8,20.5-9s13.6-6.7,19.6-10.4
	c3.3-2.1,6.5-4.4,9.4-7c2.9-2.6,5.8-5.3,8.6-8.1c2.8-2.8,5.7-5.5,8.6-8.1c1.1-1,2.2-1.9,3.4-2.8l12-7c3.4-2,5.8-3.5,7.3-4.5
	s4-3.4,7.7-7.1c-1.2,4.9-1.9,8.4-2.4,10.5s-0.6,4.8-0.6,7.9l-0.3,0.4c0,0-2.2,8.9-2.6,12.8c-0.4,3.9-0.9,7.9-1.4,11.8
	c-0.6,3.9-1.1,7.9-1.6,11.8s-0.7,7.9-0.6,11.8c0,0.8,0.2,2.5,0.4,5.3c0.3,2.8,0.5,5.8,0.8,9.1c0.3,3.3,0.6,6.5,1,9.8
	c0.4,3.3,0.7,5.8,0.9,7.4c0.2,2.1,0.4,4.3,0.8,6.7s0.8,4.7,1.5,6.7c0.3,1,0.7,1.9,1.1,2.7l0.7,1.1c0.3,0.5,0.6,0.9,1,1.3
	c1.2,1.4,2.8,2.1,4.7,2c1.5,0,2.7-0.6,3.6-1.6c0.9-1.1,1.6-2.6,2.3-4.7c1-7.1,1.8-14.6,2.6-22.2c0.8-7.7,1.1-15.1,0.9-22.2
	c-0.1-3.9-0.5-7.8-1.3-11.6s-1.6-7.6-2.6-11.5s-1.9-7.6-2.6-11.5c-0.3-1.7-0.6-3.3-0.8-5v-10.7c0-3.1-0.2-5.8-0.6-7.9
	s-1.1-5.8-1.9-10.9c2,2.3,3.7,4,5.1,5.1c1.4,1.1,2.6,2.1,3.6,2.8c1,0.7,2,1.4,3,1.9c1,0.6,2.2,1.3,3.6,2.1l4.8,2.8l-0.1,0.1
	c0,0,6.5,6.4,9.7,8.7c3.2,2.3,6.4,4.8,9.5,7.2c3.1,2.5,6.3,4.9,9.4,7.3c3.2,2.4,6.5,4.6,9.9,6.5c0.6,0.4,2.3,1.1,4.8,2.3
	s5.3,2.5,8.3,3.9s6,2.8,9,4.1s5.3,2.3,6.9,3c1.9,0.9,3.9,1.8,6.2,2.7c2.3,0.9,4.4,1.6,6.6,2.1c2.1,0.5,4.1,0.5,5.9,0.2
	s3.2-1.4,4.1-3.1C239.7,186,239.8,184.7,239.4,183.4z"/>
</svg>
