<?xml version="1.0" encoding="utf-8"?>
<!-- Generator: Adobe Illustrator 26.2.1, SVG Export Plug-In . SVG Version: 6.00 Build 0)  -->
<svg version="1.1" id="Layer_1" xmlns="http://www.w3.org/2000/svg" xmlns:xlink="http://www.w3.org/1999/xlink" x="0px" y="0px"
	 viewBox="0 0 250 250" style="enable-background:new 0 0 250 250;" xml:space="preserve">
<path d="M172.8,78.4c20.1-5.1,39.5-10,58.1-14.7c-13.5,14.1-27.4,28.6-41.5,43.3c19.8,5.9,39.7,11.9,60.3,18
	c-20.5,6.3-40.5,12.5-59.9,18.5c14,14.5,28,29,42.5,44c-20-5.1-39.4-10.1-59.5-15.2c5.8,20.1,11.5,39.7,17.2,59.3
	c-0.2,0.1-0.3,0.2-0.5,0.3c-16-14.6-32-29.2-48.5-44.2c-5.7,20.7-11.2,41-16.8,61.2c-0.2,0-0.4,0.1-0.6,0.1
	c-5.1-19.8-10.1-39.6-15.2-59.2c-15.1,14.9-30,29.6-45.4,44.7c5.2-20.4,10.3-40.1,15.5-60.4c-20.5,5.1-40.4,10.2-60.3,15.2
	c-0.1-0.2-0.2-0.3-0.4-0.5c14.7-15.3,29.4-30.7,44.3-46.3c-20.7-5.9-41-11.6-61.3-17.4c0-0.2,0-0.5,0-0.7
	c20.4-5.5,40.8-10.9,61.7-16.5C47.6,92.4,33,77.2,18.3,62c0.1-0.2,0.2-0.4,0.2-0.5c19.8,5.1,39.7,10.1,60.1,15.3
	c-5.2-20.5-10.3-40.6-15.6-61.4C78.5,31,93.2,46,108.4,61.4c5.2-20.3,10.3-40.1,15.3-59.9c0.2,0,0.4,0,0.6,0
	c5.6,20.4,11.1,40.8,16.8,61.7c16.4-15.1,32.4-29.9,48.4-44.6c0.2,0.1,0.3,0.2,0.5,0.3C184.4,38.5,178.7,58.2,172.8,78.4z"/>
</svg>
