<?xml version="1.0" encoding="utf-8"?>
<!-- Generator: Adobe Illustrator 26.2.1, SVG Export Plug-In . SVG Version: 6.00 Build 0)  -->
<svg version="1.1" id="Layer_1" xmlns="http://www.w3.org/2000/svg" xmlns:xlink="http://www.w3.org/1999/xlink" x="0px" y="0px"
	 viewBox="0 0 250 250" style="enable-background:new 0 0 250 250;" xml:space="preserve">
<path d="M216,207c-2.8,3.1-5.5,6-8.5,9.2c-22.4-23.2-44.8-46.4-67.1-69.5c-0.2,0.1-0.4,0.2-0.5,0.3c12.8,29.6,25.7,59.2,38.6,89
	c-4.1,1.6-8.1,3.2-12.4,4.9C154,211.2,142,181.6,130,152c-0.2,0-0.4,0.1-0.5,0.1c0.9,31.8,1.8,63.5,2.7,95.5c-4.4,0-8.7,0-13.4,0
	c0.4-31.8,0.8-63.6,1.2-95.4c-0.2-0.1-0.4-0.1-0.5-0.2c-11.3,29.6-22.6,59.2-33.9,89c-4.3-1.7-8.4-3.3-12.7-4.9
	c12.2-29.4,24.3-58.5,36.4-87.6c-0.2-0.1-0.4-0.3-0.6-0.4c-21.7,22.8-43.4,45.5-64.7,67.9c-3.3-3.1-6.5-6-9.8-9.1
	c22.5-22.2,45-44.3,67.4-66.4c-0.1-0.2-0.2-0.4-0.4-0.6c-28.9,12.7-57.7,25.5-86.9,38.4c-1.7-4.1-3.3-8.1-5.1-12.4
	c29.7-11.6,59.2-23,88.6-34.5c0-0.2-0.1-0.4-0.1-0.6c-31.5,0.6-63,1.1-94.8,1.7c0-4,0-7.9,0-12c31.6,0,63.3,0,95,0
	c0.1-0.3,0.1-0.5,0.2-0.8C68.7,108,39.1,96.3,9.3,84.4c1.7-4,3.3-7.9,5-12.1c29,12.3,57.7,24.5,86.5,36.7c0.1-0.2,0.3-0.4,0.4-0.7
	c-22.3-21.5-44.7-43-67.1-64.6c3.2-3,6.3-6,9.7-9.1c21.4,21.8,43.1,43.9,64.8,66.1c0.2-0.1,0.4-0.2,0.6-0.4
	C96.7,71.7,84.3,43,71.7,14.1c4.1-1.6,8.1-3.1,12.4-4.8c11.4,29.3,22.7,58.3,34.1,87.4c0.2,0,0.3-0.1,0.5-0.1c0-31.3,0-62.6,0-94.1
	c4.5,0,8.7,0,13.5,0c-0.9,31.3-1.8,62.8-2.7,94.2c0.1,0.1,0.3,0.1,0.4,0.2c11.4-29,22.7-58.1,34.3-87.5c4.1,1.6,8.1,3.1,12.2,4.7
	c-12.2,29.1-24.2,57.9-36.3,86.7c0.2,0.1,0.3,0.2,0.5,0.3c21.7-22.2,43.4-44.4,65.5-67c3.3,3.2,6.5,6.2,9.9,9.5
	c-22.5,21.8-44.9,43.5-67.2,65.1c0.1,0.2,0.2,0.3,0.3,0.5c28.6-12.3,57.2-24.5,85.9-36.9c1.8,4.2,3.5,8.1,5.4,12.4
	c-29.7,11.7-59.2,23.4-88.7,35c0,0.2,0.1,0.4,0.1,0.5c31.7-0.6,63.4-1.2,95.3-1.8c0,4.8,0,9.3,0,14.1c-31.3-0.6-62.5-1.1-93.6-1.7
	c-0.1,0.2-0.1,0.4-0.2,0.6c29,11.5,58,22.9,87.2,34.5c-1.8,4.2-3.5,8.1-5.3,12.4c-28.7-12.8-57.3-25.6-85.9-38.4
	c-0.1,0.2-0.2,0.4-0.3,0.5C171.2,162.6,193.5,184.7,216,207z"/>
</svg>
