<?xml version="1.0" encoding="utf-8"?>
<!-- Generator: Adobe Illustrator 26.2.1, SVG Export Plug-In . SVG Version: 6.00 Build 0)  -->
<svg version="1.1" id="Layer_1" xmlns="http://www.w3.org/2000/svg" xmlns:xlink="http://www.w3.org/1999/xlink" x="0px" y="0px"
	 viewBox="0 0 250 250" style="enable-background:new 0 0 250 250;" xml:space="preserve">
<path d="M132,216.2c2.4-1.9,4-3.2,5.4-4.4c9.9,5.1,19.7,10.2,29.6,15c7,3.3,14.1,6.4,21.4,9.1c6.7,2.5,11.4,0.2,13.5-5.9
	c0.5-1.4,0.7-2.9,0.9-4.4c1.3-10.1-0.9-19.8-3-29.6c-6.6-29.7-17.7-57.8-31.5-84.8c-0.5-1-0.9-1.9-1.4-2.9c-0.1-0.1,0-0.3-0.1-0.7
	c1.6-1.2,3.3-2.5,5.1-3.9c0.4,0.5,0.8,1,1.1,1.5c11.3,21.6,22.4,43.4,30,66.6c4.9,14.8,9.4,29.7,11.1,45.2
	c0.7,6.5,0.5,12.9-1.6,19.2c-2.5,7.1-7.1,9.8-14.6,8.8c-9.6-1.4-18.5-4.8-27-8.9C158.1,229.8,145.4,223,132,216.2z"/>
<path d="M166,60.8c-0.3,0.1-0.4,0.2-0.5,0.2c-6.1,0.5-6.2,0.5-8.5-5.1c-5-12-10.4-23.8-17.7-34.6c-2.2-3.2-5-6-8-8.5
	c-2.8-2.4-5.3-2.1-7.8,0.6c-2.9,3.2-5.7,6.6-7.9,10.3c-11.1,19-19.4,39.2-26.8,59.8c-6.5,17.9-11.9,36.3-17.8,54.4
	c-1.2,3.6-2.2,3.7-5.2,1.4c-3.5-2.6-3.9-5.2-2.4-9.4c6.4-17.4,11.8-35.2,18.4-52.5C90.2,56,98.9,34.6,111.2,15
	c4.4-7,10.2-11.6,18.8-11.8c4.1-0.1,7.6,1.4,10,4.7c2.3,3.2,4.7,6.6,6.4,10.1c6.6,13.8,13,27.7,19.4,41.6
	C165.8,59.9,165.9,60.3,166,60.8z"/>
<path d="M49.5,170.8c2.7,2.8,5,5.1,7.2,7.5c0.4,0.4,0.2,1.5,0.1,2.2c-1.9,10.1-4.2,20.2-5.5,30.4c-0.7,5.8-0.5,11.9,0.5,17.7
	c1.2,7,5.6,9.4,12.2,6.4c7.1-3.2,14.2-6.7,20.7-11c23.1-14.9,44.4-32.1,65.7-49.4c6.5-5.3,13-10.6,19.7-16c1.4,1.6,2.8,3.2,4.4,5
	c-5.1,4.3-9.9,8.6-15,12.5c-19.9,15.5-39.6,31.1-59.8,46.2c-10.5,7.9-21.7,14.9-33.9,20.3c-2.6,1.2-5.6,1.9-8.4,2.3
	c-4.6,0.6-9.2-2.5-10.7-7.8c-1.4-4.7-2.4-9.7-2.7-14.6c-0.7-12.1,1-24.1,2.8-36.1C47.6,181.5,48.5,176.5,49.5,170.8z"/>
<path d="M210,163.1c-1.5-1.8-2.8-3.5-4.2-5.3c3.2-3.5,6.4-6.8,9.5-10.3c8.1-9,16.1-18.2,22-28.8c2.1-3.8,3.7-8.1,4.8-12.3
	c1.5-5.9-1.3-10.4-7.1-12.6c-7.6-2.8-15.6-3.8-23.5-4.5c-30.6-2.7-61.3-1.7-91.9-0.8c-3,0.1-6.1,0.1-9.1,0.3
	c-1.4,0.1-2.1-0.3-2.4-1.7c-0.3-1.8-0.9-3.6-1.6-6.2c5.8,0,11.2,0,16.6,0c23.5,0.1,47.1-0.1,70.6,0.6c14.1,0.4,28.3,1.8,41.9,6.3
	c4.6,1.5,9.2,3.3,12.1,7.7c2.5,3.8,2.8,8,2,12.3c-1.2,7-4.6,13.1-8.4,18.9C232.4,140,221.5,151.7,210,163.1z"/>
<path d="M69.2,81.2c-0.7,1.5-1.3,3.1-2.3,4.4c-0.4,0.6-1.6,1-2.4,1c-7,0.1-14.1-0.2-21.1,0.1c-9.6,0.5-19.2,1.4-28.2,5.3
	c-6.7,2.9-7.9,7.7-3.8,13.7c6.9,10,15.6,18.3,25.2,25.6c22.7,17.1,45.6,33.8,68.4,50.7c2.6,1.9,5.3,3.9,8.2,6
	c-1.6,1.5-3.1,2.9-4.8,4.5c-3.8-2.6-7.5-5-11.2-7.6C75.1,169.6,53,154,32.4,136.7c-9.5-8-18.8-16.1-26.4-26c-1.6-2-3-4.2-4.2-6.5
	C-1.9,96.7,0.1,91,7.7,87.3c6.7-3.3,13.8-4.7,21.1-5.2c13.3-0.9,26.7-1.3,40-1.9C68.9,80.5,69,80.9,69.2,81.2z"/>
</svg>
