<?xml version="1.0" encoding="utf-8"?>
<!-- Generator: Adobe Illustrator 26.2.1, SVG Export Plug-In . SVG Version: 6.00 Build 0)  -->
<svg version="1.1" id="Layer_1" xmlns="http://www.w3.org/2000/svg" xmlns:xlink="http://www.w3.org/1999/xlink" x="0px" y="0px"
	 viewBox="0 0 250 250" style="enable-background:new 0 0 250 250;" xml:space="preserve">
<path d="M174.8,142.6c13.6,22.5,27,44.8,40.4,67.1c-1,1-1.9,2-2.8,3c-21.8-13.7-43.5-27.4-65.6-41.2c-2.1,8.6-4.2,16.9-6.2,25.2
	c-4.1,16.7-8.3,33.3-12.4,50c-0.4,1.6-0.8,2.7-2.8,2.6c-2.1,0-2.1-1.4-2.4-2.7c-4.9-23.4-9.8-46.9-14.8-70.3c-0.1-0.6-0.3-1.1-0.6-2
	c-23,13.8-45.8,27.4-68.8,41.2c-0.8-0.9-1.7-1.7-2.6-2.6c13.7-22,27.2-43.8,41-65.9c-8-1.9-15.7-3.8-23.4-5.6
	c-16.9-4-33.8-8-50.7-12c-1.3-0.3-3.1,0-3.1-2.4c0-2.4,1.8-2.1,3.1-2.4c24.2-5.5,48.5-10.9,72.7-16.3c0.4-0.1,0.7-0.2,1.4-0.4
	C63.5,84.3,50,61,36.3,37.6c0.9-0.9,1.7-1.8,2.6-2.6c21.6,14.1,43,28,64.7,42.2c2-7.6,3.9-14.8,5.8-22c4.4-17,9-34,13.3-51
	c0.7-2.8,1.8-4,5-2.9c5.4,24.7,10.9,49.6,16.4,74.9c3-1.8,5.8-3.5,8.4-5.1c19.5-11.9,39-23.8,58.5-35.9c2.4-1.5,4.1-1.6,5.7,1.2
	c-14.3,21.9-28.8,43.9-43.5,66.4c25.7,6.3,51,12.5,76.3,18.7c1.1,3-0.1,3.9-2.8,4.6c-23.1,5.2-46.1,10.6-69.2,15.9
	C176.7,142,175.9,142.2,174.8,142.6z M10.9,126.1c0.6,0.4,0.8,0.6,0.9,0.6c22.7,5,45.5,10,68.2,15.1c2.5,0.6,4.6,0.2,6.8-0.9
	c9.5-4.8,19.2-9.4,28.7-14.1c0.8-0.4,1.7-0.9,3.3-1.8C82.5,125.4,47,125.8,10.9,126.1z M121.6,131.3c-24.7,24.2-50.2,49.1-75.8,74.1
	c0.2,0.2,0.3,0.4,0.5,0.6c0.8-0.5,1.6-0.9,2.4-1.4c15.3-9.8,30.6-19.5,45.9-29.3c4.4-2.8,9.7-4.9,12.8-8.7c3.1-3.8,4.2-9.4,6-14.2
	C116.4,144.9,119.3,137.4,121.6,131.3z M47,46.4c-0.1,0.1-0.2,0.3-0.3,0.4c0.1,0.2,0.1,0.4,0.2,0.5C59,67.1,71.1,86.8,83.3,106.4
	c0.6,1,1.9,1.8,3,2.2c10.3,3.9,20.6,7.7,30.9,11.4c0.7,0.3,1.5,0.4,2.3,0.7c0.1-0.2,0.2-0.3,0.2-0.5C95.5,95.6,71.2,71,47,46.4z
	 M125.5,13.2c-0.3,0.5-0.4,0.7-0.5,0.9c-5.2,22.3-10.4,44.6-15.4,67c-0.3,1.3,0,3,0.6,4.3c4.1,9.3,8.4,18.5,12.6,27.8
	c0.7,1.6,1.5,3.2,2.2,4.7c0.1,0,0.3-0.1,0.4-0.1C125.5,83.1,125.5,48.3,125.5,13.2z M126.2,131.1c-0.2,0-0.3,0.1-0.5,0.1
	c0,34.6,0,69.3,0,104.8c0.5-1.6,0.8-2.4,1-3.2c4.7-20.3,9.2-40.6,14-60.8c0.9-3.6,0.6-6.6-1-10C135.1,151.8,130.8,141.4,126.2,131.1
	z M129.8,118.9c0.1,0.1,0.3,0.1,0.4,0.2c24.6-24.9,49.3-49.8,73.9-74.7c-0.2,0.5-0.7,0.8-1.2,1.1c-16.7,10.7-33.3,21.6-50.3,31.9
	c-6.1,3.7-10.2,8.2-12.5,15C137.2,101.4,133.3,110.1,129.8,118.9z M235.6,123.6c-0.5-0.3-0.7-0.4-0.9-0.5c-21.4-5-42.9-10-64.3-14.9
	c-1.2-0.3-2.8,0-4,0.5c-7.9,3.3-15.8,6.7-23.7,10c-3.4,1.5-6.9,2.9-10.3,4.4c0,0.1,0.1,0.3,0.1,0.4
	C166.8,123.6,201,123.6,235.6,123.6z M204,201.6c0.1-0.1,0.2-0.2,0.3-0.3c-0.1-0.3-0.2-0.5-0.4-0.8c-12.1-18.8-24.2-37.6-36.3-56.3
	c-0.7-1.1-2.1-2.1-3.4-2.6c-9.9-4-19.9-7.8-29.8-11.7c-0.8-0.3-1.6-0.5-2.2-0.7C156,153.3,180,177.4,204,201.6z"/>
</svg>
