<?xml version="1.0" encoding="utf-8"?>
<!-- Generator: Adobe Illustrator 26.2.1, SVG Export Plug-In . SVG Version: 6.00 Build 0)  -->
<svg version="1.1" id="Layer_1" xmlns="http://www.w3.org/2000/svg" xmlns:xlink="http://www.w3.org/1999/xlink" x="0px" y="0px"
	 viewBox="0 0 250 250" style="enable-background:new 0 0 250 250;" xml:space="preserve">
<path d="M202.9,244.5c-26.3-19.3-51.9-38-77.7-57c-25.6,18.8-51.2,37.5-77.5,56.8c0.5-1.7,0.7-2.6,1-3.6
	c9.1-28.2,18.1-56.5,27.3-84.6c0.8-2.5,0.4-3.8-1.7-5.4c-23.7-17.1-47.3-34.2-70.9-51.4C2.4,98.7,1.5,98,0,96.8
	c32.2,0,63.7,0,95.4,0c9.9-30.3,19.7-60.4,29.8-91.4c2.6,8,5,15.3,7.4,22.5c7.1,21.7,14.1,43.5,21.1,65.3c0.8,2.6,2,3.5,4.9,3.5
	c29.1-0.1,58.2-0.1,87.4-0.1c1.3,0,2.5,0,3.8,0c0.1,0.2,0.2,0.5,0.4,0.7c-25.5,18.5-51,36.9-76.7,55.5
	C183.1,183.2,192.8,213.4,202.9,244.5z"/>
</svg>
