<?xml version="1.0" encoding="utf-8"?>
<!-- Generator: Adobe Illustrator 24.3.0, SVG Export Plug-In . SVG Version: 6.00 Build 0)  -->
<svg version="1.1" id="Layer_1" xmlns="http://www.w3.org/2000/svg" xmlns:xlink="http://www.w3.org/1999/xlink" x="0px" y="0px"
	 viewBox="0 0 250 250" style="enable-background:new 0 0 250 250;" xml:space="preserve">
<g>
	<path d="M23,135.6c-1-0.6-1.9-1.2-2.9-1.8c-0.4-0.3-1-0.4-1.5-0.5c-0.1,0.1-0.1,0.2-0.2,0.4c0.6,0.5,1.2,1,1.9,1.5
		c0,0.1-0.1,0.2-0.1,0.3c-0.9-0.2-1.7-0.3-2.7-0.5c0,0.5,0,0.8,0,1.3c-0.6-0.2-1.2-0.4-1.7-0.6c0,0.1-0.1,0.1-0.1,0.2
		c1.5,1.5,2.9,3.2,4.5,4.6c1.6,1.3,3.6,2,5,3.4c-0.1,0.1-0.2,0.3-0.3,0.4c-1.6-0.8-3.1-1.8-4.8-2.3c-1.5-0.4-3.1-1.6-5-0.2
		c0.1,0.3,0.3,1.1,0.7,1.5c2.2,2,4.4,3.8,6.7,5.7c0.4,0.3,0.7,0.6,1.2,1.1c-1.8,0.3-2.2-1.4-3.6-1.5c2.3,2.4,4.7,4.8,7,7.2
		c0,0.1-0.1,0.1-0.1,0.2c-3.9-2.8-7.7-5.7-11.6-8.5c-0.1,0.1-0.2,0.2-0.3,0.3c2.1,2.8,5.2,4.7,7.9,7.2c-1.6,0.8-2.2-0.6-3.4-1.1
		c-0.1,0.5-0.1,0.8-0.2,1.2c-0.4-0.2-0.9-0.3-1.3-0.6c-0.8-0.8-1.5-1.7-2.3-2.5c-0.9-0.8-1.9-1.6-2.8-2.3c-0.1,0.1-0.1,0.1-0.2,0.2
		c0.8,1.3,1.7,2.5,2.5,3.8c-0.1,0.1-0.3,0.2-0.4,0.3c-1.5-1.5-2.9-3-4.4-4.4c0.1,0.5,0.3,0.9,0.6,1.3c1.3,1.4,2.7,2.8,4,4.2
		c0.6,0.6,1,0.9,1.6,0.1c1.3,0.7,1.5,2.7,3.5,2.3c-0.3-0.9-0.6-1.6-0.8-2.4c0.6,0.5,1.2,1.1,1.7,1.6c0.6,0.6,1.3,1.2,2.1,1.9
		c-0.5,0.1-0.8,0.2-1.1,0.2c-0.7,2.2-0.4,2.6,1.5,3.8c0.3,0.2,0.6,1.2,0.5,1.4c-0.3,0.4-1,0.5-1.7,0.8c0.3,0.4,0.8,1,1.3,1.7
		c-0.1,0.1-0.1,0.2-0.2,0.3c-1.8-1-3.2-2.8-5-3.9c-2,2.5-1.5,5-0.8,7.6c0.2,0.9,0.8,1.4,1.9,1c0.1,0.1,0.1,0.2,0.2,0.3
		c-0.2,0.4-0.5,0.8-0.7,1.2c-0.2,0.4-0.7,0.8-0.6,1.1c0.8,2.3,1.3,4.8,3.1,6.7c1.1,1.1,2.4,1.9,3.7,2.7c1.2,0.7,2.2,1.5,2.2,3.1
		c0,1.3,0.4,2.5,1.7,3.1c-0.1,0.1-0.1,0.2-0.2,0.2c-0.4-0.1-0.9-0.1-1.6-0.3c0.4,0.7,0.7,1.2,0.9,1.5c0,0.5,0,1,0.1,1.3
		c0.5,1.1,1.5,2.2,1.7,3.3c0.2,1.9,1.5,2.5,2.7,3.4c0.4,0.3,0.8,0.6,1.2,0.9c0.6,0.5,0.9,1-0.2,1.4c1,1.6,2,2.9,4.1,3.2
		c1,0.1,2,0.7,2.9,1.3c-1.4,0-2.9,0-4.3,0c0,0.1-0.1,0.2-0.1,0.3c1.3,0.8,2.6,1.6,4.1,2.5c0.3,0.4,0.8,1,1.3,1.6
		c0.7,1,1.4,2,2.2,2.9c2.4,2.7,5.2,4.6,9.1,4.6c1.4,0,2.7,0.1,3.7,1.4c1.1,1.3,2.9,1,4.4,0.7c1.1-0.2,2.1-0.5,3.2-0.8
		c0.4-0.1,0.8-0.2,1.1-0.1c0.9,0.4,1.6,0.4,2.4-0.2c0.2-0.1,0.8-0.1,0.9,0c0.2,0.4,0.5,0.9,0.4,1.3c-0.6,3.6,0.7,5.9,4.2,7.1
		c1.9,0.7,3.7,1.4,5.6,2.1c0.3,0.1,0.6,0.3,0.7,0.5c0.8,1.4,2.2,1.4,3.5,1.9c0.4,0.2,1.1-0.2,1.6-0.5c1.1-0.5,2-0.6,3.2,0.2
		c0.9,0.7,2.2,0.9,3.3,1.4c0.6,0.3,1.1,0.7,1.6,1.1c0,0-0.2,0.5-0.3,0.6c-0.6,0-1.3,0.1-1.8-0.1c-1.1-0.6-2.2-0.9-3.3,0.1
		c-0.6-1.4-1.5-1.5-2.7-1.2c-0.6,0.2-1.3,0.1-1.9-0.1c-2.1-0.9-4-2-6.1-2.8c-1.5-0.6-3.2-1-4.8-1.3c-1.1-0.2-1.8-0.3-2.1-1.6
		c-0.3-1-1.3-1.7-1.8-2.7c-0.5-0.9-1-1.8-1.3-2.8c-0.3-1-0.6-1.3-1.5-0.6c-1.4,1-2.9,1.3-4.5,0.9c-2-0.4-4.1-0.7-6.1-1.2
		c-1.2-0.3-2.4-0.1-3.5-0.8c-0.7-0.4-1.7-0.1-2.2,0.7c-0.2,0.2-0.4,0.4-0.6,0.7c-0.1,0-0.2-0.1-0.3-0.1c0.1-0.3,0.2-0.6,0.3-0.9
		c0.3-0.8,0-1.3-0.9-1.2c-0.5,0-1.1,0.2-1.4,0.5c-1.7,1.8-3,3.9-3.8,6.2c-0.2,0.5,0.2,1.5,0.6,1.9c0.9,1,0.4,1.3-0.5,1.6
		c-0.2,0-0.3,0.1-0.3,0.1c-0.9-0.6-1.7-1.2-2.4-1.8c-0.2-0.2-0.6-0.5-0.6-0.7c0.2-1.3-0.2-2.8,0.8-4c0.6-0.7,1.1-1.6,1.7-2.3
		c0.2,0.1,0.3,0.2,0.5,0.3c-0.2,0.4-0.4,0.8-0.6,1.2c-0.7,1.3-1.5,2.5-1.1,4c0.1,0.4,0.5,0.7,0.7,1c0.2-0.3,0.6-0.6,0.7-0.9
		c0.6-2.4,1.8-4.5,3.3-6.5c0.6-0.7,0.5-1-0.5-1.2c-0.8-0.2-1.8-0.8-2.1-1.4c-1.1-2.3-1.1-2.5-3.2-1.2c-1,0.6-2.1,0.9-3.2,1.4
		c-0.4,0.2-0.7,0.7-1.1,1.1c0.1,0.1,0.2,0.2,0.3,0.3c0.4-0.2,0.9-0.3,1.5-0.5c-0.2,0.5-0.2,0.8-0.4,1c-0.7,1.2-1.7,2.3-2.2,3.5
		c-0.6,1.5-0.7,3.1-1,4.7c0,0.2,0.2,0.6,0.4,0.7c0.7,0.6,1.4,1.1,2.2,1.7c0.2-0.1,0.5-0.3,0.8-0.4c1.9,2,1.9,2,4.1,1.9
		c0.1-0.4,0.1-0.8,0.2-1.3c1.5,0.5,2.3,1.5,2.9,3.1c-0.7,0.1-1.3,0.3-1.8,0.2c-1.4-0.3-2.8,0.1-4.1-0.9c-1.7-1.3-3.6-2.5-5.2-3.9
		c-0.5-0.4-0.6-1.5-0.4-2.2c0.4-1.8,1.1-3.5,1.7-5.2c0.1-0.3,0.2-0.7,0.1-0.9c-0.6-1.2-0.1-2.1,0.7-3c0.9-1.2,1.7-2.4,2.6-3.6
		c-1.3-0.7-3-0.4-3.7,0.8c-0.5,0.8-0.9,1.7-1.4,2.5c-0.5,0.8-1.3,1.4-1.8,2.2c-0.3,0.4-0.4,1-0.6,1.6c-0.9,0.1-1,0-1.4-1.9
		c0.3-0.2,0.6-0.4,1-0.6c-0.4-0.6-0.7-1.3-1.2-1.6c-0.7-0.4-1.1,0.3-1.3,0.8c-0.2,0.4-0.3,0.9-0.4,1.4c-0.1,0-0.3,0-0.4,0
		c-0.1-1-0.2-2.1-0.3-3.1c0.2,0,0.6,0.1,1.2,0.2c-0.7-1.6-0.5-3.3-1.9-4.5c-0.8-0.7-1.3-1.7-2.5-2c-0.3-0.1-0.5-0.7-0.7-0.9
		c0.5-0.1,0.9-0.3,1.4-0.4c-0.4-0.4-0.7-0.8-1.1-1c-0.8-0.4-1.4-1.9-0.9-2.7c-0.9-0.6-1.8-1.2-3-0.9c-0.3,0.1-0.7,0-0.9-0.2
		c-0.9-1.2-1.7-2.3-1.6-3.9c0-0.4-0.1-1-0.3-1.1c-0.9-0.3-0.9-0.8-0.7-1.6c0.2-1.4,0.3-2.8,0.3-4.2c0-0.8-0.6-1.4-1.7-1.1
		c0.2,0.5,0.4,0.8,0.5,1.2c-0.8,0-1.2-0.3-1-1c0.8-2.6-0.4-4.9-1-7.3c0-0.2-0.1-0.4-0.2-0.4c-1.8-1.2-1.2-2.8-0.5-4.3
		c-1.5-1-1.8-0.9-2.7,0.3c-0.3,0.3-0.9,0.4-1.3,0.6c-0.1-0.1-0.2-0.3-0.3-0.4c0.2-0.3,0.6-0.5,0.7-0.9c0.2-0.4,0.4-1.2,0.2-1.3
		c-0.6-0.5-1.2-0.3-1.6,0.4c-0.2,0.4-0.4,0.8-0.7,1.2c-0.2,0.3-0.5,0.6-1,1.2c-0.2-1.5-0.3-2.6-0.5-3.7c0-0.2,0-0.4-0.1-0.5
		c-1.9-1-0.3-2.1,0.2-2.5c1.1-0.9,0.3-1.8,0.2-2.6c-0.1-0.6-0.3-1.2-0.1-1.7c0.9-4.5,2.4-8.9,4.2-13.1c0.2-0.5,0.3-1,0.3-1.5
		c0.3-3,0.6-6.1,0.9-9.1c0.4-4.5,0.9-8.9,1.4-13.4c0.6-5.4,1.4-10.7,2.1-16.1c0.4-3.6,0.7-7.3,1.2-10.9c0.2-1.2,0.9-2.4,1.4-3.6
		c0.7-1.7,1.5-3.4,2.2-5.1c0.8-2,1.7-4.1,2.3-6.2C21,86,22.2,81.5,23.5,77c0.7-2.2,1.8-4.2,2.6-6.3c0.3-0.7,0.4-1.4,0.4-2.1
		c0-0.8,0-1.5,1-1.7c0.8-0.1,0.9-0.6,0.7-1.3c-0.2-1-0.3-2.1-0.4-3.1c0-0.4,0-0.8-0.1-1.1c-1-2.1-0.1-4,0.9-5.8
		c0.4-0.8,0.8-1.5,1.2-2.3c0.2-0.3,0.6-0.7,1-0.7c1.4-0.1,2-0.9,2.4-2.1c0.2-0.6,0.3-1.3,0.6-1.8c0.3-0.5,0.7-0.8,1.1-1.2
		c0.1-0.1,0.4-0.1,0.5-0.3c1.4-1.3,2.9-2.5,4.2-3.8c1.2-1.3,2.2-2.7,1.5-4.7c-0.1-0.2,0.3-0.8,0.4-0.8c0.4,0.1,0.8,0.3,1.4,0.6
		c0.1-0.1,0.5-0.2,0.8-0.5c1-0.9,2.3-0.9,3.6-0.9c0.4,0,0.9-0.1,1.3-0.3c2.4-1.3,3.6-3.6,4.8-6c0,0,0.2,0,0.2,0
		c1.4,1,2.3,0.7,3.4-0.8c1.2-1.7,2.8-3,4.9-3.8c0.7-0.2,1.3-0.6,2-0.9c1.2-0.6,2.6-1,3.7-1.8c1.2-0.8,2.2-1.9,3.3-2.8
		c0.2-0.2,0.4-0.4,0.6-0.4c0.4-0.1,0.9,0,1.3,0c-0.1,0.4-0.2,0.9-0.4,1.1c-1.7,1.5-3.4,2.8-5.1,4.3c-1.1,1-2.1,2.1-3.2,3.1
		c-0.2,0.2-0.5,0.6-0.7,0.6c-1.8,0-2.6,1.6-4,2.2c-0.1,0.1-0.3,0.2-0.3,0.3c-0.4,1.7-1.7,2.2-3,3c-1.2,0.7-2,2.1-3,3.1
		c-0.3,0.3-0.6,0.8-0.8,0.7c-1-0.1-1.4,0.5-1.9,1.1c-0.8,1.1-1.9,1-3.1,1.1c-0.7,0.1-1.3,0.4-2,0.7c-0.2,0.1-0.4,0.6-0.3,0.7
		c0.1,0.2,0.5,0.4,0.8,0.4c0.7,0,1.4-0.2,2.1-0.2c0.4,0,0.7,0.3,1.1,0.5c-0.3,0.3-0.5,0.7-0.8,0.9c-1.2,0.5-2.4,1-3.9,1.6
		c0.9,0.1,1.5,0.2,2.1,0.3c0,0.1,0,0.2,0,0.3c-0.9,0.2-1.7,0.4-2.6,0.6c-0.6,0.1-1.4,0-1.8,0.4c-2,1.8-4.5,3.2-5.7,5.7
		c-1.3,2.6-2.5,5.2-3.9,8.1c1.7-0.7,3.1-1.3,4.6-2c0.9-0.4,1.6-1.1,2.5-1.5c0.3-0.1,0.8,0,1.1,0.1c0,0.1,0,0.2,0,0.3
		c-2.3,1.5-4.7,3.1-7,4.6c0.1,0.1,0.1,0.3,0.2,0.4c1.8-0.7,3.5-1.3,5.3-2c0,0.1,0.1,0.2,0.1,0.3c-0.9,0.4-1.8,0.8-2.6,1.3
		c0,0.1,0,0.2,0,0.2c1.7,0,3.4,0,5.2,0c0,0.2,0,0.3,0.1,0.5c-2.5-0.2-4.6,0.9-6.8,1.7c-0.9,0.3-1.8,0.7-2.7,1.1
		c-0.8,0.3-0.9,1-0.7,1.7c0.2,0.8,0.6,1.4,1.5,1.3c1.7-0.1,3.4-0.3,5.1-0.4c0.7,0,1.5,0.1,2.2,0.3c-1.6,0.3-3.3,0.5-4.9,0.8
		c0,0.1,0,0.3,0,0.4c1,0.1,2,0.2,3,0.3c0,0.1,0,0.3,0,0.4c-0.9,0.1-1.7,0.3-2.6,0.4c0,0.1,0,0.2-0.1,0.3c1.1,0.5,2.2,0.9,3.3,1.4
		c0,0.1-0.1,0.3-0.1,0.4c-0.7,0-1.4,0-2.2,0c0,1.4-0.7,1.2-1.5,0.9c-1.8-0.7-3.6-0.6-5.8,0.2c1.7,1.2,3.2,2.3,4.8,3.2
		c1.1,0.6,2.4,0.9,3.6,1.3c0.4,0.2,0.8,0.4,1.5,0.8c-2.2,0.4-4,0.6-6,1c0.3,0.6,0.5,0.9,0.9,1.6c-2.4,0.2-4.2-1.4-6.5-1.7
		c0.9,0.6,1.5,1.2,2.3,1.7c1.7,1.1,3.6,1,5.6,0.7c1.8-0.3,3.5-0.8,5-2.1c0.6-0.5,1.6-0.7,2.5-1c0.8,0.8,0.2,1.5-0.4,2.1
		c-1-1-1.9-0.2-2.6,0.3c-1.5,1-2.9,2.1-5,1.7c-0.7-0.1-1.7,0.1-2.2,0.5c-1.2,1.1-2.4,0.7-3.7,0.6c-0.4,0-0.7-0.1-1.1-0.1
		c0,0.2-0.1,0.3-0.1,0.5c1.2,0.4,2.4,0.7,3.6,1.1c0.2,1.4,0.2,1.4,3.2,1.9c0,1.3-1.1,1-1.8,1.2c-0.8,0.2-1.6,0.2-2.5,0.5
		c0.5,0.2,1,0.4,1.7,0.7c-0.3,0.2-0.5,0.4-0.8,0.6c0.3,0.2,0.5,0.4,0.8,0.6c-2.2,1.6-4.1,0.3-6.2-0.3c2.6,1.9,5.6,2.7,8.7,3.9
		c-0.8,0-1.6,0-2.4,0c-0.8,0-1.6,0-2.4,0c3.6,1.4,7.2,2.8,11.1,2.5c-3.4,0.7-6.8,0.1-10.2-0.1c0,0.2-0.1,0.4-0.1,0.5
		c1.9,0.8,3.9,1.5,5.8,2.3c0,0.2-0.1,0.3-0.1,0.5c-1.3-0.2-2.6-0.4-3.9-0.5c0,0.1-0.1,0.2-0.1,0.2c0.9,0.4,1.7,0.7,2.6,1.1
		c0,0.1-0.1,0.3-0.1,0.4c-2.2-0.5-4.4-1.1-6.4-1.6c1.9,2.6,4.8,3.8,8,4.5c0.2,0,0.4,0.2,0.6,0.3c-0.1,0.5-0.3,1-0.4,1.7
		c-1.7-0.1-3.2-0.8-4.5-2c-0.3-0.2-0.8-0.2-1.2-0.3c0.1,0.3,0.2,0.8,0.5,0.9c2.4,1.6,4.9,3,7.8,3.7c1.3,0.3,2.3,1.3,3.5,1.8
		c0.3,0.2,1,0.2,1.2,0c0.9-0.7,1.6-0.6,2.4,0.1c-0.8,1.4-1.1,1.3-2.5,1c-1.5-0.3-2.8-1.3-4.6-1.1c-0.7,0.1-1.5-0.8-2.3-1.2
		c-2.1-1-4.2-2-6.3-2.9c-0.4-0.2-0.9-0.1-1.4-0.2c0.3,2,1.5,2.9,3.1,3.6c1,0.4,2,1.1,3,1.6c0.3,0.2,0.7,0.2,1,0.3
		c0.4,0.2,0.8,0.4,1.1,0.8c-4.1-0.9-7.7-3.3-11.7-4.7c0.9,0.9,1.9,1.7,2.8,2.7c0.5,0.5,0.8,1.2,1.1,1.7c-0.1,0.1-0.2,0.2-0.3,0.4
		c-0.4-0.1-0.9-0.2-1.4-0.3c0,0.3,0,0.6,0.1,1c-1.4-0.6-2.6-1.2-4.1-1.8c0.9,2.4,3.7,2.9,4.5,5.4c-1.8,0.2-2.3-1.5-3.5-2
		c-1.5,1.2,0.1,1.8,0.4,2.6c-0.1,0.1-0.2,0.2-0.3,0.3c-0.8-0.6-1.7-1.2-2.5-1.8c-0.1,0.1-0.2,0.2-0.2,0.2c1.7,1.7,3.5,3.2,4.9,5.1
		c1.5,2.1,4.1,2.3,5.8,3.9c-0.1,0.1-0.1,0.3-0.2,0.4c-1.3-0.6-2.5-1.2-3.8-1.8c-1-0.5-2-1.1-3-1.6c-0.2-0.1-0.4-0.1-0.6-0.2
		c-0.5-0.4-0.9-1.1-1.5-1.2c-0.5-0.1-1.1,0.3-1.7,0.7c0.5,0.1,1,0.2,1.5,0.4c0.2,0,0.4,0.1,0.6,0.1c-0.1,0.2-0.1,0.6-0.2,0.7
		c-0.6,0.5-1.1,0.4-1.6-0.2c-0.9-1-1.8-1.9-2.7-2.8c-0.1,0.1-0.3,0.2-0.4,0.4c0.7,0.9,1.4,1.8,2,2.7c0.3,0.5,0.4,1,0.6,1.6
		c-0.1,0.1-0.3,0.1-0.4,0.2c-0.2-0.1-0.5-0.3-0.7-0.3c-0.5-0.1-1.2-0.3-1.6-0.1c-0.3,0.3-0.6,1.2-0.4,1.5c0.5,0.7,1.2,1.4,1.9,1.9
		c0.5,0.4,1.3,0.6,1.8,1c1.3,1.1,2.8,0.8,4.3,0.7c1.4-0.1,2.6-0.4,3.6-1.4c0.3-0.3,1.1-0.2,1.6-0.2c0,1.1-1.3,2.1-4,3.1
		c0.7,0.7,1.2,1.4,1.9,2.1c-0.6,0.7-1.4,0.5-2.2,0.2c-1.3-0.5-2.6,0.2-2.9,1.6c-0.1,0.4-0.7,0.9-1.1,0.9C23.1,137,23,136.3,23,135.6
		c0.5-0.1,1.9-1.5,1.7-2c0-0.2-0.7-0.3-0.7-0.3C23.7,134.1,23.3,134.8,23,135.6z M33.1,209.8c-0.2-0.3-0.5-0.8-1-1.4
		c-1,0-1.2,1-1.7,1.7c-0.5,0.7-0.1,1.9-1.4,2.3c-0.6,0.2-0.8,1.5-1.2,2.3c0,0.1,0.1,0.4,0.2,0.4c0.7,0.1,1.4,0.2,2.1,0.3
		c0.1-0.5,0.1-1.1,0.2-1.7c1.2,0,1.3-1.3,1.8-2.2C32.5,211,32.8,210.4,33.1,209.8z M7.5,170.1c1.7-0.2,6.4-6,6.1-7.4
		C11.3,165,8.8,166.9,7.5,170.1z M29.1,203.5c-0.5-0.2-0.9-0.5-1.2-0.5c-0.3,0-0.8,0.1-1,0.3c-0.4,0.7-0.8,1.5-1,2.3
		c-0.1,0.5,0.1,1.1,0.2,1.6c0.5-0.3,1.2-0.4,1.5-0.8C28.2,205.6,28.5,204.6,29.1,203.5z M31.1,205c-0.1-0.1-0.3-0.3-0.4-0.4
		c-0.4,0.2-1,0.3-1.2,0.6c-0.7,1.1-1.4,2.2-1.9,3.3c-0.1,0.2,0.2,0.7,0.4,1c0.3-0.2,0.6-0.3,0.8-0.5c0.4-0.6,0.6-1.3,1-1.9
		C30.1,206.4,30.6,205.7,31.1,205z M19.5,191c-0.9-0.1-2.1,1-2.1,1.7c0,0.8,1.2,1.6,2.5,1.6c-1.4-1.4,0.5-1.5,1-2.5
		c-0.7,0.2-1.1,0.3-1.6,0.4C19.4,191.7,19.4,191.4,19.5,191z M10.6,161c-0.1-0.1-0.3-0.1-0.4-0.2c-1.3,2-2.6,4-3.9,6
		C9,165.7,9.4,163,10.6,161z M17.6,201.8c0.4,0.3,0.7,0.6,1,0.7c0.2,0.1,0.6-0.2,0.7-0.4c0.1-1.1,0.2-2.3,0.3-3.5
		C18.1,199.2,18.1,200.6,17.6,201.8z M18.2,186.1c0,0.1-0.1,0.2-0.1,0.3c0.5,0.1,0.9,0.2,1.4,0.2c0.2,0,0.4-0.1,0.7-0.1
		c-0.1-0.2-0.1-0.5-0.2-0.6c-0.8-0.6-1.6-1.1-2.5-1.6c-0.1-0.1-0.5,0.2-0.8,0.4c0.1,0.2,0.3,0.4,0.4,0.6
		C17.4,185.4,17.8,185.7,18.2,186.1z M25.7,198.8c-0.2-0.1-0.3-0.1-0.5-0.2c-0.6,0.8-1.3,1.5-1.9,2.3c-0.2,0.2-0.2,0.6-0.2,0.9
		c0.3-0.2,0.7-0.3,1-0.5c0.5-0.4,1-0.9,1.4-1.4C25.6,199.6,25.6,199.2,25.7,198.8z M22.7,189.7c-0.3-0.5-0.5-0.8-0.7-1.1
		c-0.4,0.4-0.9,0.7-1.2,1.2c-0.1,0.2,0.5,0.7,0.8,1.1C22,190.5,22.3,190.1,22.7,189.7z M23,198.1c-0.7,0-1.1-0.1-1.4,0
		c-0.3,0.2-0.6,0.7-0.7,1c-0.1,0.2,0.2,0.5,0.4,0.7c0.3-0.2,0.6-0.4,0.9-0.6C22.4,199,22.6,198.6,23,198.1z M16.6,195.7
		c0.6,0.8,1,1.4,1.6,0.8c0.2-0.2,0-0.8,0-1.2C17.8,195.5,17.3,195.6,16.6,195.7z M39.8,213.2c-2-0.6-1.9,1.2-2.8,1.6
		c0.1,0.1,0.1,0.2,0.2,0.3C37.9,214.5,38.7,214,39.8,213.2z M16.9,158.9c0.1-0.1,0.3-0.3,0.4-0.4c-1-0.8-2-1.6-3-2.4
		c-0.1,0.1-0.2,0.2-0.2,0.3C15,157.1,15.9,158,16.9,158.9z M23.4,203.3c1,0.2,1.9-0.6,1.8-1.3c0-0.1-0.2-0.3-0.3-0.3
		c-0.2,0-0.4,0.1-0.5,0.2C24.1,202.3,23.8,202.8,23.4,203.3z M28.9,209.7c0.1,0.1,0.3,0.2,0.4,0.4c0.5-0.6,1-1.3,1.6-1.9
		c-0.1-0.1-0.3-0.2-0.4-0.4C29.9,208.4,29.4,209.1,28.9,209.7z M17.3,187.4c-0.1-0.1-0.2-0.2-0.3-0.3c-0.4,0.1-0.9,0.3-1.3,0.4
		c0,0.1,0,0.2,0,0.3c0.3,0.2,0.7,0.5,0.9,0.4C16.9,188.2,17.1,187.7,17.3,187.4z M10.8,170.2c-1.4,0.8-1.7,1.5-1.1,2.4
		C10,171.9,10.3,171.2,10.8,170.2z"/>
	<path d="M76.4,104.7c0.2-0.2,0.2-0.2,0.2-0.2c0.7-0.2,1.6-0.8,2-0.6c1.1,0.8,2.1,1.9,3.1,2.9c0.6,0.5,1,1.3,1.7,1.6
		c1.4,0.5,2.7,1.6,4.4,0.6c0.1-0.1,0.3,0,0.5,0c1.9,0.9,3.4,0,4.9-0.8c0.3-0.2,0.7-0.3,1-0.5c0.7-0.4,1.4-0.7,2.2-1.2
		c-0.7-0.6-1.2-1-1.7-1.4c0-0.1,0.1-0.2,0.1-0.3c0.3,0,0.7,0,0.9,0.2c1.4,1.2,2.9,0.8,4.5,0.3c1.7-0.5,3.5-0.7,5.3-0.2
		c1.4,0.4,2.7,0.6,4.1,0.9c0.2,0,0.7-0.1,0.7-0.3c0.1-0.4,0.1-0.8-0.1-1.2c-0.1-0.3-0.5-0.5-0.7-0.7c0.2-1.1,0.4-2.1,0.6-3.2
		c0.1-0.9,0-1.7-0.8-2.4c-0.8-0.7-0.7-1.5-0.2-2.4c0.4-0.8,0.9-1.7,1-2.5c0.4-3.9,2.3-6.4,6-8c1.4-0.6,2.2-0.8,3.7-0.2
		c2,0.7,4.3,0.5,6.5,0.6c0.3,0,0.8,0.1,1,0.3c0.7,0.6,1.2,1.3,2.2,0.5c0.1-0.1,0.6,0.2,0.7,0.4c0.7,1.2,1.3,2.5,2,3.7
		c0.2,0.3,0.4,0.6,0.7,0.7c1.3,0.3,1.7,0.8,1.7,2c-0.1,1.3-0.4,2.7-0.4,4c-0.1,2.9-0.9,5.7-1.8,8.4c-0.3,0.9-0.1,2-0.3,3
		c-0.2,0.6-0.7,1.1-1.1,1.6c-0.3,0.4-0.8,0.7-1.1,1.1c-0.6,0.8-0.3,1.6,0.6,1.9c1.3,0.4,2.7,0.8,4,1.3c0.8,0.3,1.6,0.7,2.2,1.2
		c1.8,1.7,4.1,2.3,6.4,2.8c3,0.6,6.1,1.2,9.1,1.8c0.3,0.1,0.7,0.1,0.9,0.3c1.1,0.7,2.1,0.8,2.8-0.6c0.2-0.4,0.9-0.4,1.4-0.7
		c1.5-0.9,2.4-2.4,3-4c0.1-0.3,0.3-0.6,0.6-0.8c1.3-1,1.4-2.1,0.4-3.5c-0.5-0.7-0.3-1.4,0.4-1.9c0.4-0.2,0.8-0.4,1.2-0.6
		c-0.6-1-1.2-1.9-1.8-2.8c-0.1-0.2-0.5-0.4-0.7-0.3c-2,0.1-2.2,0-2.8-1.9c0-0.2-0.1-0.3-0.2-0.4c0.8-0.6,2.3-0.3,3.2,0.5
		c1,0.9,1.9,1.7,2.9,2.6c0,0,0.1,0.1,0.1,0.1c1,0.9,1.8,5.5,1.3,6.8c-0.9,2.5-2.7,4.2-4.6,5.9c-1,0.9-2.2,1.6-3.3,2.4
		c-0.6,0.4-0.5,0.7,0,1.1c1.5,1.2,3.1,2.2,4.4,3.6c1,1.1,1.8,2.4,2.4,3.8c2.2,5.1,2.4,10.4,1.1,15.8c0,0.1-0.1,0.2-0.3,0.5
		c-0.2-0.3-0.5-0.5-0.5-0.7c0-1.3,0.1-2.6,0.1-3.8c0.1-1.5,0.6-3.1-0.5-4.5c-0.1-0.1-0.1-0.5,0-0.7c0.7-4.8-1.4-8.5-4.9-11.6
		c-2.9-2.5-5.9-2.5-9.3-1.1c-1.6,0.7-3.3,1-5.1,0.1c-1.8-0.9-3.9-1.4-6-2.1c0,0.5,0,0.7,0,0.8c-0.1,0.3-0.1,0.8-0.3,0.9
		c-0.3,0.1-0.9,0.1-1.1-0.1c-0.9-1-2.5-1.1-3.1-2.6c-0.2-0.6-1.1-1-1.8-1.4c-1.3-0.8-2.6-1.4-3.9-2.2c-0.9-0.6-2.3-0.1-2.3,1
		c0,1.7-0.5,3.2-1.6,4.5c-0.2,0.3-0.1,1.1,0.1,1.5c0.7,1.2,0.4,2-0.8,2.4c-0.6,0.2-1.2,0.7-1.5,1.2c-0.5,0.8-1,1.5-2,1.9
		c-0.5,0.2-0.8,1-1,1.5c-0.9,2.6-0.9,5.3-0.6,8c0.2,2.1,1.8,3,3.1,4.2c0.4,0.3,0.9,0.6,1.7,1.1c0-1.1,0.2-1.9-0.1-2.5
		c-0.6-1.1,0.2-1.8,0.4-2.6c0.4-1.5,0.7-3.1,0.9-4.7c0-0.2-0.5-0.4-0.7-0.6c-0.3-0.3-0.9-0.8-0.9-1c0.2-0.5,0.8-1.3,1.1-1.2
		c1.6,0.2,1.5-0.8,1.5-1.8c0-0.6,0-1.3,0-1.9c1.4,0.9,1.8,2.3,1.1,4.2c-0.4,1.1-0.9,2.1-0.2,3.3c0.1,0.1,0,0.4-0.1,0.6
		c-0.6,0.8-1,1.4,0.2,2c0,0-0.1,0.8-0.4,1c-0.7,0.5-0.8,0.9-0.4,1.7c0.4,0.6,0.3,1.5,0.6,2.2c0.4,1.4,0.9,2.8,1.4,4.3
		c0.1,0.3,0.3,0.7,0.5,1c1.3,1.9,2.5,3.6,5.1,4c1.3,0.2,2.5,0.1,3.7,0c0.4,0,1-0.5,1.2-1c0.4-0.8,0.8-1.1,1.7-1.1
		c0.5,0,1.1-0.3,1.4-0.6c0.8-0.9,1.6-1.8,2.1-2.9c0.4-0.9,0.6-2.1,0.5-3.1c-0.1-0.8-0.7-1.7-1.3-2.3c-1.1-0.9-1.2-0.9-0.2-2
		c0.2-0.3,0.4-0.8,0.3-1.2c-0.8-2.2-1.8-4.2-3.9-5.7c-1-0.7-1.5-2.2-2.2-3.3c-0.5-0.8-1-1.7-1.5-2.7c0.1-0.1,0.4-0.3,0.8-0.7
		c1.2,1.4,2.3,2.8,3.5,4.1c1.1,1.2,2.4,2.4,3.4,3.7c1.4,1.8,2.5,3.6,2.4,6.1c0,1.1,0.7,2.2,1,3.4c0.3,1.1,0.2,2.1-0.5,3.1
		c-0.6,0.8-0.8,1.8-1.2,2.8c-0.7,2.1-2.7,3.5-4.8,3.6c-0.6,0-1.2,0.6-1.7,1c-0.4,0.3-0.8,1-1.1,1c-1.7-0.1-3.4-0.3-5.2-0.5
		c-0.2,0.9-0.7,0.8-1.5,0.4c-1.1-0.5-1.9-1.2-2.7-2.1c-1.1-1.2-2.8-2-4.3-2.9c-1.4-0.9-2.8-1.6-4.2-2.5c-0.3-0.2-0.5-0.8-0.7-1.3
		c-0.4-1.4-0.8-2.9-1.3-4.3c-0.2-0.5-0.7-1-1.2-1.7c0.2,0.1,0.1,0,0.1,0c-2,0.6-2.1,0.6-2.6-1.5c-0.2-0.9-2.3-2-3.3-1.8
		c-1.1,0.3-2.2,0.5-3.3,0.9c-0.4,0.1-0.8,0.4-1.2,0.6c-0.4,0.2-0.9,0.4-1.2,0.4c-1.7-0.3-3.5-0.6-5.2-1.1c-0.8-0.2-1.5-0.7-2.3-1.1
		c-0.5-0.2-0.9-0.7-1.4-0.8c-1.4-0.2-2.2-1.2-2.9-2.2c-0.5-0.7-0.9-1.6-1.9-2c-0.4-0.2-0.5-1.4-0.4-2.1c0.1-1.2,0.3-2.6,0.8-3.7
		c0.6-1.3,1.6-2.4,2.5-3.4c0.4-0.5,1.3-0.6,1.8-0.9c0.6-0.4,1.1-0.9,1.7-1.2c1.4-0.9,2.8-1.9,4.3-2.8c1.6-0.9,3.2-0.7,4.8,0
		c2,0.9,3.7,0.5,5.1-1c0.5-0.6,0.8-0.4,1.4-0.2c0.9,0.4,2,0.9,2.9,0.8c1-0.1,1.9-1,2.8-1.5c-0.2-0.3-0.4-0.8-0.6-0.9
		c-1.1-0.4-2.3-0.7-3.4-1.2c-0.8-0.4-1.3-1.1-2-1.6c-0.7-0.5-1.3-1.3-2.1-1.5c-1.5-0.4-3.1-0.6-4.6-0.9c-0.5-0.1-1-0.5-1.5-0.5
		c-1.5,0-3-0.1-4.5,0.1c-2.3,0.3-4.5,1.1-6.8,1.9c-2,0.7-4.3,0.5-6.5,0.3c-1.7-0.2-3.2-1.1-4.8-1.6c-0.1,0-0.2-0.1-0.2-0.1
		C79.9,107.8,78.2,106.3,76.4,104.7z M122.9,111c0.4-0.2,1-0.3,1.1-0.6c0.3-1,0.5-2,0.5-3c0-0.8,0.2-1.2,1-1.4
		c0.4-0.1,1-0.5,1.1-0.8c0.3-1.5,0.6-3.1,0.7-4.7c0.1-1.4-0.1-2.9,0.1-4.3c0.1-0.9-0.1-1.5-0.8-2c-0.3-0.2-0.4-0.9-0.3-1.2
		c0.4-1.1-0.5-4.2-1.5-4.8c-0.4-0.2-1-0.4-1.1-0.8c-0.4-0.9-1-0.8-1.8-0.7c-0.8,0.1-1.8,0.3-2.5,0c-1.3-0.6-2.3-0.1-3.2,0.7
		c-0.6,0.5-1.2,0.9-1.7,1.5c-1.3,1.4-2.7,2.8-1.8,5.1c0.2,0.4-0.2,1.1-0.5,1.6c-0.7,1-0.3,2.4,0.8,2.7c0.9,0.2,0.9,0.8,0.7,1.5
		c-0.1,0.3-0.4,0.8-0.3,1c0.7,0.9,1.3,2,2.2,2.5c1.1,0.6,1.7,1.2,1.4,2.6c-0.2,1.1,0.9,3.5,1.7,3.5c1.5-0.1,2.5,0.8,3.6,1.4
		C122.2,110.8,122.5,110.9,122.9,111z M107.1,121.5c-0.1-0.1-0.2-0.1-0.3-0.2c-0.8-1.6-1.4-2.7-3.7-1.8c-2,0.7-3.1,1.1-3.8,3.1
		c-0.2,0.5-1.1,1.2-1.6,1.1c-2.2-0.5-3.3,1.1-4.4,2.3c-1.5,1.7-0.5,3.7,0.3,5.4c0.6,1.4,1.9,2.1,3.5,2.2c0.4,0,1,0.3,1.2,0.6
		c0.9,1.6,2.5,1.1,3.9,1.4c1,0.2,2.1,0.1,3.1,0c1.5-0.2,2.9-0.5,4.3-0.9c0.4-0.1,0.8-0.7,0.9-1.2c0.3-1.5,0.9-3,0.6-4.4
		c-0.4-2,1.4-3.2,1.2-5c0-0.2,0.4-0.4,0.6-0.7c0.6-0.6,1.2-1.2,1.6-1.9c0.6-1,0-1.9-1.1-2c-0.6-0.1-1.2,0-1.7-0.2
		c-0.8-0.4-1.5-0.2-2.2,0.3C108.8,120.3,107.9,120.9,107.1,121.5z"/>
	<path d="M165.2,226.5c0.1-0.6,0.1-0.8,0.1-1.2c-2.4,0-4.7,0-7.1,0c-0.2,0-0.4,0.1-0.5,0.2c-1.5,1.4-3,0.5-4.5,0.2
		c-0.2,0-0.3-0.1-0.5-0.1c-1.2,0.3-1.6-0.3-1.7-1.3c-0.1-1.2,0.4-1.9,1.6-2c2.2-0.1,4.3-0.2,6.5-0.2c2.5-0.1,5,0,7.5-0.1
		c0.7,0,1.4-0.4,2.1-0.6c1.7-0.6,3.4-1.2,5.1-1.8c0.6-0.2,1.4-0.4,1.9-0.9c1.4-1.6,3.4-2.2,5.2-3c0.9-0.4,1.8-1,2.5-1.7
		c2.9-3,5.8-6.1,8.6-9.1c0.5-0.5,1.1-0.9,1.5-1.4c0.7-1.1,1.4-2.3,2-3.4c0.6-1,1.5-1.3,2.6-1.6c1-0.3,2-0.8,3-1.3
		c1.7-1,3.4-2,5.1-3.1c0.6-0.4,1-0.9,1.6-1.4c0.8-0.8,1.6-1.5,2.5-2.3c1-0.9,2.3-1.6,2.8-3.1c0.2-0.5,0.7-0.9,1.2-1.3
		c0.6-0.4,1.3-0.7,1.8-1.2c0.3-0.3,0.5-1,0.4-1.4c-0.4-1.5,0.3-3.7,1.6-4.5c1-0.7,1.1-1.3,0.3-2.3c1.4,0.3,1.6-0.5,1.7-1.6
		c0-0.4,0.2-0.9,0.4-1.3c0.8-1.8,1.7-3.5,2.6-5.3c0.5-1.2,1.1-2.3,1.6-3.5c0.5-1.2,0.9-2.3,1.3-3.5c0.5-1.4,1.1-1.7,2.4-0.9
		c0.2,0.1,0.5,0.1,0.8,0.1c0-0.3,0.1-0.7-0.1-1c-1.2-1.9-1.2-2.9,0.6-4.2c1.8-1.3,2.4-3.3,3.4-5.2c1-2.1,2.4-4.1,3.8-5.9
		c1.9-2.4,3.2-5,4.3-7.8c0.6-1.4,0.4-3.1,0.5-4.7c0.1-1.6,0.3-3.3,0-4.9c-0.2-1.1-1-2.1-1.6-3.1c-0.8-1.1-1-2.2-1.2-3.5
		c-0.4-2.9,0.9-5.4,1.1-8.1c0.1-0.7-0.4-1.5-0.6-2.3c-0.1-0.8-0.2-1.7-0.1-2.6c0.1-0.8,0.5-1.7,0.5-2.5c-0.1-1-0.4-2.1-0.9-3
		c-0.1-0.3-1-0.2-1.7-0.3c0.5-0.3,0.9-0.5,1.4-0.8c0.6-0.4,0.9-0.8,0.5-1.5c-0.1-0.2-0.2-0.6-0.1-0.8c0.8-1.8,0.2-3.6,0-5.4
		c0-0.6-0.2-1-1-0.9c-0.9,0.2-1.5-0.3-1.8-1.1c-0.3-0.9,0.1-1.6,0.9-1.9c0.7-0.3,0.8-0.8,0.6-1.5c-0.3-1.8-0.8-3.5-2.7-4.5
		c-1.4-0.8-1.3-1.6,0-2.6c0.2-0.1,0.4-0.3,0.6-0.5c1.3-1,1.8-0.7,2.5,0.8c0.5,1,1.6,1.7,2.5,2.6c0.2,0.2,0.6,0.4,1.1,0.8
		c-0.6,0.1-1,0.1-1.2,0.2c0.5,2.1,0.9,4.1,1.5,6c0.4,1.2,1.1,2.4,1.4,3.6c0.4,1.4-0.1,2.8-0.8,4.1c-0.7,1.3-1.3,2.7-1.1,4.3
		c0.2,1.2,0.1,2.5,0,3.8c-0.1,2.1,0.4,4,1.3,5.8c0.1,0.2,0,0.6,0,0.9c-0.1,0.4-0.4,0.9-0.3,1.2c0.4,1.7-0.2,3.1-0.8,4.6
		c-0.2,0.6-0.1,1.6,0.3,2.1c1.3,2,1.5,4.4,2.4,6.5c0.3,0.6,0.8,1.1,1.3,1.5c0.4,0.4,1,0.7,1.6,1.2c-2,0.4-2,0.5-1.3,3.2
		c-0.6-0.2-1.1-0.3-1.5-0.4c0.1,1.4,0.2,2.7,0.4,4.1c-0.1,0-0.2,0-0.3,0c0.7,0.5,1.4,1,2.1,1.4c0,0.1,0,0.2-0.1,0.3
		c-0.9,0-1.8,0-2.8,0c0,0.5,0,0.8,0.1,1.3c-1.7-0.1-2.1,1.2-2.8,2.3c-1.2,1.9-2.6,3.7-3.8,5.6c-0.2,0.3-0.4,0.6-0.5,1
		c-0.4,1.5-0.8,3-2.1,4.1c-0.5,0.4-0.6,1.5-0.8,2.2c-0.6,2-2,3.2-3.9,4.3c0.4,0.6,0.8,1.1,1.1,1.6c0.1,0.3,0.2,0.7,0.1,0.9
		c-0.1,0.2-0.5,0.4-0.8,0.4c-1.4,0-2.5,1.2-2.7,2.6c-0.3,2.1-0.8,4.1-1.2,6.4c-0.5-0.3-0.7-0.5-1-0.7c-0.3,1.1-0.5,2.1-1,3
		c-0.6,1-1.6,1.7-1.5,3c0,0.1,0,0.2-0.1,0.2c-0.8,0.9-1.6,1.8-2.5,2.6c-0.1,0.1-0.2,0.1-0.2,0.2c-0.6,1.6-1.1,3.3-1.9,4.8
		c-0.7,1.3-1.7,2.5-2.7,3.6c-2.2,2.5-4.4,5-6.8,7.3c-1.7,1.6-3.7,2.8-5.5,4.4c-1.8,1.5-3.5,3.3-5.2,4.9c-0.3,0.3-0.6,0.6-0.9,0.8
		c-3.7,2.5-6.6,5.9-9.4,9.3c-1.5,1.7-2.8,3.6-4.7,4.8c-0.8,0.5-1.7,0.8-2.5,1.2c-1.7,0.9-3.3,1.9-5,2.6c-0.6,0.3-1.5,0-2.2,0.2
		c-1.4,0.4-2.8,1-4.2,1.5C167.6,225.6,166.5,226,165.2,226.5z"/>
	<path d="M240,77.9c-1.1-0.7-2-1.2-2.9-1.7c-0.1,0.1-0.1,0.2-0.2,0.3c0.1,0.3,0.3,0.6,0.4,0.9c-0.7,0.6-1.2,1.3-1.9,1.7
		c-1,0.6-1.4,0.2-1.5-1c-0.2-1.9-0.6-3.8-2.2-5.2c-0.7-0.6-1-1.7-1.7-2.5c-0.8-0.9-1.7-1.7-2.5-2.6c-0.5-0.6-0.8-1.3-1.3-2
		c-0.6-0.9-1.5-1.7-1.7-3c-0.1-0.3-0.5-0.6-0.9-0.8c-1.1-0.9-2.4-1.6-2.3-3.4c0-0.1,0-0.2-0.1-0.3c-0.7-1-1.4-2-2.1-3
		c-0.7-1.1-1.3-2.2-2-3.3c-0.8-1.5-1.5-1.7-2.9-0.7c0-0.2,0-0.4,0.1-0.5c1.2-1.1,0.5-2.5,0.4-3.8c0-0.3-0.8-0.6-1.3-0.7
		c-0.3-0.1-0.7,0.2-1.2,0.3c0.2-0.3,0.2-0.5,0.3-0.6c1.5-0.9,0.9-2,0.2-3c-0.7-1.1-0.8-2.3-0.7-3.6c0-0.6-0.3-1.3-0.6-1.8
		c-1-1.9-3.3-2.8-4.4-4.5c-2.6-4-6.4-6.5-9.9-9.4c-1.9-1.6-4.2-2.5-6.6-3.1c-1-0.2-2-1-3-0.9c-2.3,0.1-4.1-1.1-6.1-1.8
		c-1.7-0.6-3.6-0.6-5.4,0.3c-1.5,0.7-1.7,0.6-2.6-0.9c-0.3-0.5-0.9-0.7-1.3-1c-0.6-0.4-1.3-0.6-1.8-1c-2.1-1.9-4.2-3.6-7-4.2
		c-1.7-0.4-3.4-0.9-5.1-1.4c-0.1,0-0.3-0.1-0.3-0.1c-1.4-1.6-3.5-1.6-5.3-1.9c-1.8-0.3-3.8,0-5.7-0.1c-1.2,0-2.4-0.2-3.6-0.3
		c-0.5-0.1-1-0.2-1.5-0.3c-1.3-0.3-2.5-0.8-3.8,0.3c-0.5,0.5-1.9,0.1-2.8-0.1c-1.4-0.3-2.5,0.2-3.6,1.1c-0.3,0.3-0.7,0.6-1,0.6
		c-0.4,0-1.2-0.5-1.2-0.6c0.4-1.1-0.6-1.1-1.2-1.6c0.3-0.1,0.7-0.5,0.9-0.4c1,0.4,1.7,0,2.6-0.3c1.2-0.4,2.6-0.3,3.8-0.5
		c1.9-0.2,3.9,0.3,5.8-0.5c0.6-0.2,1.4,0.1,2.2,0.2c1.3,0.1,2.6,0.1,3.9,0.1c0.8,0,1.6-0.1,2.4-0.1c1.2,0.1,2.4,0.3,3.6,0.3
		c1.8,0,3.5,0.5,5.2,1.2c1.4,0.6,3.1,0.7,4.7,1.1c0.3,0.1,0.6,0.2,0.9,0.3c0.8,0.4,1.6,0.8,2.4,1.2c0.7,0.3,1.5,0.5,2,0.9
		c1.6,1.5,3.7,2.5,4.8,4.6c0.2,0.3,1.4,0.4,2,0.2c0.8-0.2,1.5-1,2.4-1.1c0.7-0.1,1.5,0.4,2.2,0.7c0.7,0.3,1.4,0.7,2.1,0.9
		c4.4,1.4,8.8,2.7,13.2,4.1c1.5,0.5,2.9,1.4,4.3,2.1c0.1,0,0.1,0.1,0.2,0.1c1.5-0.1,2.1,0.7,2.7,2.1c0.3,0.8,1.5,1.3,2.3,1.9
		c0.5,0.4,1,0.7,1.4,1.1c1.4,1.4,2.9,2.8,4.2,4.3c1,1.1,1.9,2.4,2.8,3.6c0.7,0.9,1.4,1.7,2.1,2.5c0.2,0.2,0.3,0.6,0.4,0.9
		c0.3,1.3,0.5,2.6,0.7,4c0.2,1.1,0.5,2,1.4,2.7c0.4,0.3,0.3,1,0.6,1.5c0.3,0.7,0.7,1.4,1.1,2.1c0.6,1.1,1.2,2.2,1.9,3.2
		c1.8,2.8,3.7,5.7,5.6,8.5c2,3,4,6.1,6.2,9c1,1.4,2.3,2.7,3.4,4c1,1.2,2.1,2.3,3.1,3.4C239.7,77.1,239.7,77.4,240,77.9z"/>
	<path d="M126.9,236.4c0.3-0.5,0.7-0.9,1.1-1.5c-0.5-0.1-0.8-0.2-1.3-0.3c0.3-0.3,0.5-0.6,0.7-0.9c-0.2-0.1-0.4-0.2-0.6-0.2
		c-0.5,0.2-1,0.4-1.5,0.5c-0.7,0.2-1.3,0.4-1.8,0.5c-0.4,0.1-0.8,0.1-1.2,0.1c-1.2,0-2.5-0.3-3.4,0.9c-0.2-0.3-0.4-0.5-0.7-0.8
		c-0.5,0.6-0.9,1.1-1.4,1.6c-0.1-0.1-0.3-0.1-0.4-0.2c0.2-0.6,0.5-1.1,0.7-1.6c-0.2-0.4-0.5-0.8-0.8-1.4c-0.4,0.4-0.9,0.8-1.2,1.3
		c-0.5,0.7-0.9,1.6-1.5,2.2c-1.1,1.3-1.5,2.7-1.1,4.3c0.1,0.2,0,0.5,0,0.7c-0.7,0.3-1.1,0.1-1.2-0.6c-0.4-2.4-1-4.9-0.2-7.4
		c-0.9-0.4-1.7-0.2-2.6,0.3c-1.5,0.8-3.2,1.3-4.8,2c-0.1,0-0.2,0.1-0.3,0.1c-1.2-0.1-2.3-0.1-3.5-0.2c-1.6-0.1-3.2-0.2-4.9-0.4
		c-0.5-0.1-1.1-0.3-1.6-0.5c0-0.2,0-0.4,0-0.5c0.6-0.2,1.2-0.5,1.8-0.5c3.4-0.2,6.7-0.4,9.9-1.6c0.9-0.3,1.8-0.7,2.4-1.3
		c1.2-1.1,2.6-1.4,4.1-1.7c0.6-0.1,1.3,0,1.9,0.1c2.8,0.2,5.7,0.4,8.5,0.7c0.8,0.1,1.6,0.4,2.2,0.9c1,0.9,1.9,1,3,0.3
		c0.7-0.4,1.4-0.7,2.1-0.9c2.9-0.8,5.9-1.8,8.9-2.3c2.4-0.4,4-1.7,5.9-3c1-0.7,1.9-1.5,2.9-2c0.6-0.3,1.4-0.1,2.2-0.2
		c0,0.7,0.3,1.6,0,2c-0.9,1.2-2,2.3-3.2,3.3c-1.3,1.1-2.8,2.1-4.2,3.2c-0.2,0.1-0.4,0.2-0.7,0.3c-1,0.2-2.1,0.2-3.1,0.5
		c-2,0.6-3.9,1.6-5.9,1.9C130.4,234.5,128.8,235.6,126.9,236.4z M113,233.9c-0.3,0.8-0.4,1.3-0.6,1.8
		C113.4,235.5,114,235.2,113,233.9z"/>
	<path d="M60.8,57.6c0,0.5-0.1,1.1-0.1,1.6c0.1,1.6,0.3,3.2,0.5,4.8c0,0.3,0.1,0.7,0.3,0.8c1.1,0.6,0.9,1.4,0.8,2.4
		c-0.2,1.5,1.1,2.8,2.6,2.9c0.7,0,1.3,0.3,2,0.5c0,0.2,0,0.4,0,0.6c-1,0.4-2.1,0.8-3.2,1.3c0.4,0.6,0.6,1.3,1.1,1.7
		c1.4,1.2,1.5,3,2.1,4.6c0.6,1.7,1.2,3.4,1.8,5.1c0,0.1,0.1,0.2,0.1,0.4c-0.1,1.2-0.2,2.3-0.1,3.5c0.1,1.1,0.5,2.2,0.6,3.4
		c-1.6-3.1-3.4-6.1-3.4-9.7c0-2.3-1.4-4.1-2.5-6c-0.7-1.1-1.6-2.1-2.5-3.2c-0.1-0.2-0.3-0.3-0.3-0.5c-0.5-3.2-1-6.4-1.3-9.6
		c-0.1-1.3,0.5-2.6,0.8-3.9c0-0.2,0.3-0.3,0.4-0.5C60.6,57.5,60.7,57.6,60.8,57.6z"/>
	<path d="M131,205.4c-0.4-1.2-0.7-2.3-1-3.4c-0.1-0.2-0.1-0.5-0.2-0.7c-0.7-1.7-0.7-1.7,1-2c0.7-0.1,1.1-0.5,1.2-1.3
		c0.1-0.5,0.4-1,0.5-1.6c0.1,0,0.3,0.1,0.4,0.1c0.1,0.4,0.2,0.7,0.3,1.1c2.4-0.4,2.4-0.4,2-2.6c1.6-0.7,1.8-1.4,1.1-3.1
		c-0.1-0.4-0.1-0.8-0.1-1.2c0.1,0,0.3-0.1,0.4-0.1c0.2,0.4,0.3,0.8,0.5,1.3c0.5,2,0,3.9-0.8,5.6c-0.6,1.2-1.4,2.2-1.6,3.7
		c-0.1,0.4-0.7,0.7-1.2,1c-1.1,0.6-1.2,1.4-0.7,2.5c0.7,1.3,0,2.7-1.5,2.9c-0.8,0.1-1.3,0.3-0.7,1.5c-0.7-0.3-1.3-0.3-1.6-0.7
		c-0.4-0.4-0.7-1.1-0.6-1.6c0.1-0.3,0.8-0.6,1.3-0.8C130.2,205.6,130.6,205.5,131,205.4z"/>
	<path d="M117,165.1c0.1,0.1,0.4,0.1,0.4,0.2c1,2,3.1,2.2,4.9,3c0.7,0.3,1.3,1,1.6,1.7c0.7,1.6,1.5,2.2,3.2,1.9
		c1.1-0.2,1.7,0.2,2.2,1.1c0.3,0.5,0.7,1,1.3,1.8c-1.2-0.3-2.2-0.1-2.8-1.1c-0.1-0.2-0.3-0.3-0.4-0.4c-1.4-0.4-2.7-0.8-4.1-1.2
		c-0.2-0.1-0.4-0.2-0.5-0.3c-0.4-1.1-1.3-1.1-2.2-1.1c-1.2,0-2-0.5-2.4-1.7c-0.1-0.2-0.2-0.4-0.3-0.5
		C117,167.1,116.8,166.5,117,165.1L117,165.1z"/>
	<path d="M134.3,111.7c1.3-0.9,2.5-1.8,3.8-2.7c1-0.8,1.9-1.6,2.8-2.4c0.2-0.2,0.5-0.5,0.8-0.5c1.5,0,2.4-0.9,3.4-1.8
		c0.3-0.3,1-0.3,1.4-0.2c0.2,0.1,0.5,0.8,0.4,0.9c-0.3,0.4-0.8,0.9-1.1,0.8c-1.5-0.3-2,1.3-3.2,1.6c-0.2,0.1-0.2,0.8-0.2,1.3
		c-0.1,1.4-0.4,1.6-1.7,1.1c-0.2-0.1-0.5-0.2-0.7-0.1c-1.2,0.7-2.4,1.4-3.6,2.1c-0.6,0.3-1.3,0.3-1.9,0.4
		C134.5,112.1,134.4,111.9,134.3,111.7z"/>
	<path d="M129.1,170.5c1.7-0.7,2.9,0.3,4.2,0.7c0.2,0.1,0.2,0.5,0.3,0.7c0,0.2-0.1,0.5-0.1,0.7c-0.3,2.4,0.2,2.8,2.6,2
		c0.2,1,0.4,2,0.7,3c-0.2,0-0.3,0.1-0.5,0.1c-0.1-0.4,0-0.8-0.2-1.2c-0.2-0.4-0.5-0.7-0.9-0.9c-0.2-0.1-0.6,0.3-0.8,0.5
		c-0.2,0.1-0.3,0.4-0.5,0.5c-1.1,0.3-1.5,0.9-1.3,2c0,0.2-0.4,0.6-0.7,0.9c-0.2-0.3-0.6-0.5-0.6-0.8c-0.2-2-0.3-4-0.1-6
		c0-0.4-0.5-1-0.9-1.4C130,171,129.6,170.8,129.1,170.5z"/>
	<path d="M107.8,216.6c1.3-0.5,2.1-0.4,2.8,0.7c0.7,1.1,1.3,1,2.3,0.1c0.3-0.3,1-0.2,1.4-0.5c0.8-0.6,2-1.1,2.3-1.9
		c0.5-1.6,1.3-2.7,3.1-2.9c-0.2-0.4-0.4-0.6-0.8-1.2c0.7-0.1,1.1-0.2,1.6-0.2c0.1,0.4,0.1,0.9,0.2,1.3c0.1,0.9-0.1,1.5-1.3,1.4
		c-0.3,0-0.9,0.4-1,0.7c-1.6,2.8-4,4-7.1,4.4c-1.2,0.1-2.2,0.3-3-0.7c-0.6-0.8-2-0.9-2.1-2.2c0-0.3-0.5-0.5-0.6-0.8
		c-0.1-0.3,0.1-0.7,0.1-1.1c0.4,0.2,0.9,0.3,1,0.6C107.3,215,107.5,215.8,107.8,216.6z"/>
	<path d="M80.5,17.4c-1.5-1-2.3,0.6-3.4,1.4C76.8,19,76.3,19,76,19.2c-0.3,0.2-0.6,0.4-1,0.6c-0.4,0.2-0.7,0.4-1.1,0.6
		c-0.1,0-0.4-0.4-0.4-0.5c0.2-0.3,0.5-0.6,0.7-0.8c1.3-1.4,3.8-0.9,4.8-2.9c0-0.1,0.2-0.2,0.3-0.2c2.1-0.4,4.1-0.9,6.2-1.3
		c0.6-0.1,1.3-0.4,1.9-0.3c0.4,0,1.1,0.3,1.3,0.7c0.3,0.5,0,1-0.7,1.1c-1.3,0.2-2.6,0.4-3.8,0.6C83,16.9,81.9,17.1,80.5,17.4z"/>
	<path d="M77.7,70.9c0.2,1,0.4,2.1,0.6,3.1c0.3,1.3,0.6,2.5,1,3.7c0.1,0.5,0.2,1,0.4,1.5c0.3,1,0.7,1.9,1.1,2.8
		c0.2,0.4,0.2,0.9,0.3,1.1c-1.2-0.2-2.3-0.4-3.5-0.6c-1-0.1-1.7-1.2-1.3-2.1c0.2-0.4,0.4-0.7,0.7-1c1.5-1.3,1.6-2,1-3.9
		c-0.4-1-0.6-2-0.9-3c-0.1-0.6,0-1.2,0-1.8C77.2,71,77.5,71,77.7,70.9z"/>
	<path d="M96.1,8.9c-0.5,0.3-0.9,0.6-1.4,0.7c-1.3,0.3-1.9,1.2-2.5,2.3c-0.3,0.6-1,1-1.5,1.5c-0.1-0.7-0.4-1.5-0.3-2.2
		c0.3-1.5,1.9-2.6,3.5-2.5c0.7,0,1.4-0.1,2.1-0.1C96,8.7,96,8.8,96.1,8.9z"/>
	<path d="M116.6,207.9c-0.8-0.6-1.5-1-1.7-1.6c-0.1-0.3,0.7-1,1.1-1.5c0.1-0.1,0.3-0.2,0.4-0.2c0.7,0,1.5,0.1,2.2,0.2
		c0.1,0,0.2,0.8,0,1.1C118.1,206.7,117.4,207.2,116.6,207.9z"/>
	<path d="M117,165c-1-0.4-1.3-1.2-1.2-2.1c0.1-1.2,0.3-2.3,0.5-3.5c0.1-0.7,0.5-0.9,1.1-0.4c0.5,0.4,1.2,0.6,2.1,1.1
		c-0.5,0.2-0.8,0.4-1.2,0.4c-1.1,0-1.7,0.7-1.5,1.8C116.9,163.2,116.9,164.1,117,165C117,165.1,117,165,117,165z"/>
	<path d="M138.7,158.8c0.8,0,1.3,0.6,1.2,1.5c-0.1,0.5,0,1.1-0.2,1.6c-0.1,0.4-0.5,0.9-0.8,1c-0.6,0.2-1.7-1.1-1.7-2
		C137,159.8,137.8,158.8,138.7,158.8z"/>
	<path d="M85.6,99.5c-0.3,0.3-0.6,0.9-1,1c-1.1,0.2-2.2-0.5-2.2-1.2c0-0.8,0.7-1.6,1.7-1.6C85.2,97.7,85.5,98.3,85.6,99.5z"/>
	<path d="M114.9,142.6c-0.3,0.2-0.7,0.8-1.3,1c-0.6,0.2-1.7-1.1-1.5-1.9c0.1-0.4,0.7-1,1.2-1.1C114.1,140.5,114.9,141.4,114.9,142.6
		z"/>
	<path d="M126.9,160.7c-0.7,0.5-1.2,1-1.8,1.3c-0.3,0.2-1.1,0.1-1.2-0.1c-0.3-0.5-0.3-1.1-0.3-1.6c0-0.2,0.7-0.5,1-0.4
		C125.3,160,125.9,160.3,126.9,160.7z"/>
	<path d="M155.4,149.5c-0.5,1-0.9,1.8-1.4,2.6c-0.1,0.2-0.6,0.3-0.9,0.2c-0.2-0.1-0.4-0.5-0.4-0.8
		C152.9,149.6,152.9,149.6,155.4,149.5z"/>
	<path d="M128.9,81c-0.4,0.3-0.9,0.8-1.3,0.9c-0.7,0.1-1.4-0.4-1.3-1.2c0-0.9,0.7-1.1,1.4-1c0.5,0.1,0.9,0.6,1.3,0.8
		C129,80.6,129,80.8,128.9,81z"/>
	<path d="M72.6,83.7c0.3,0.5,0.9,1,0.8,1.4c0,0.4-0.6,1-1.1,1.1c-0.8,0.1-1.4-0.4-1.2-1.2c0.1-0.5,0.6-0.9,0.9-1.3
		C72.2,83.7,72.4,83.7,72.6,83.7z"/>
	<path d="M142.2,125.3c0.8,0.8,1.5,1.5,2.2,2.2c-0.3,0.2-0.6,0.6-0.8,0.6c-0.7-0.3-1.4-0.7-2-1.1c-0.2-0.2-0.3-0.7-0.2-1
		C141.4,125.8,141.8,125.7,142.2,125.3z"/>
	<path d="M137.5,146.8c-0.7,0.6-1.1,1.1-1.5,1.1c-0.8,0.1-1.3-0.6-1.2-1.3c0.1-0.4,0.8-1.1,1.1-1.1
		C136.5,145.5,136.9,146.2,137.5,146.8z"/>
	<path d="M129.3,158c-0.8,0.5-1.2,1-1.7,1.1c-0.3,0-1-0.7-0.9-1c0.1-0.5,0.6-1,1-1.4C128.1,157,128.5,157.4,129.3,158z"/>
	<path d="M41.6,97.9c0.6-0.5,1.2-0.9,1.7-1.3c-0.4-0.5-0.8-1-1.4-1.8c0.5,0.1,1,0,1.4,0.2c0.8,0.5,0.9,1.6,0.4,2.4
		C43.2,98,42.7,98.7,41.6,97.9z"/>
	<path d="M164.3,188.3c0.5,0.7,1,1.3,0.9,1.3c-0.5,0.5-1.1,0.9-1.7,1.3c-0.1,0.1-0.8-0.7-0.8-0.8
		C163.1,189.6,163.6,189.1,164.3,188.3z"/>
	<path d="M140.2,99.9c-0.8,0.6-1.2,1.1-1.8,1.2c-0.3,0.1-1-0.7-1-0.9c0.2-0.5,0.6-1.1,1-1.3C138.8,98.8,139.4,99.4,140.2,99.9z"/>
	<path d="M136.1,75.3c-0.5-0.7-1.1-1.2-1.1-1.4c0.2-0.5,0.7-0.9,1.2-1.1c0.3-0.1,1.1,0.6,1.1,0.8C137,74.2,136.6,74.6,136.1,75.3z"
		/>
	<path d="M42.4,92c-0.7-0.2-1.1-0.3-1.8-0.4c0.3-0.6,0.6-1.3,1.1-1.8c0.1-0.1,1.1,0.3,1.2,0.5C42.9,90.9,42.6,91.5,42.4,92z"/>
	<path d="M88,65.8c-0.7,0.6-1.1,1.1-1.5,1.1c-0.4,0-1-0.6-1-1c0-0.3,0.6-1,1-1C86.8,64.8,87.2,65.3,88,65.8z"/>
	<path d="M55.2,55.1c-0.5-0.7-1-1-1.1-1.5c0-0.3,0.6-0.7,0.9-1.1c0.4,0.4,1,0.7,1.2,1.1C56.3,53.9,55.7,54.4,55.2,55.1z"/>
	<path d="M133.7,82.6c0.5,0.7,0.9,1.1,0.9,1.3c-0.2,0.5-0.6,1-1,1.5c-0.3-0.3-1-0.7-0.9-0.9C132.8,84,133.2,83.5,133.7,82.6z"/>
	<path d="M70.7,218.3c0.5,0.7,1.1,1.2,1,1.4c-0.2,0.4-0.7,0.8-1.2,1c-0.2,0.1-0.9-0.5-0.9-0.7C69.9,219.5,70.2,219.1,70.7,218.3z"/>
	<path d="M33.6,117c-1-0.5-1.9-1-3.1-1.6c1.5-0.8,2.3-0.3,3.3,1.3C33.7,116.8,33.7,116.9,33.6,117z"/>
	<path d="M142.8,68.5c-0.7,0.4-1.2,0.9-1.5,0.9c-0.4-0.1-0.7-0.6-1-1c0.3-0.3,0.7-0.9,1-0.9C141.7,67.5,142,68,142.8,68.5z"/>
	<path d="M104.1,148.4c-0.2-0.4-0.7-0.8-0.7-1.2c0-0.3,0.5-0.7,0.8-1c0.3,0.3,0.8,0.6,0.9,0.9c0,0.4-0.4,0.8-0.6,1.3
		C104.4,148.4,104.2,148.4,104.1,148.4z"/>
	<path d="M158.8,83.2c-0.4,0.1-0.8,0.4-1.2,0.4c-0.4-0.1-0.6-0.6-1-0.9c0.4-0.2,0.7-0.7,1.1-0.7c0.4,0,0.8,0.5,1.2,0.7
		C158.8,82.9,158.8,83,158.8,83.2z"/>
	<path d="M38.7,102.7c1,0,1.9,0,2.9,0c0.1,0,0.3,0.3,0.3,0.4c0,0.2-0.2,0.4-0.3,0.4c-0.9,0-1.9,0-2.8,0
		C38.7,103.2,38.7,102.9,38.7,102.7z"/>
	<path d="M175.9,200.3c-0.7,0.4-1.1,0.9-1.4,0.8c-0.4-0.1-0.6-0.6-0.9-0.9c0.3-0.3,0.6-0.8,1-0.8
		C174.8,199.3,175.2,199.8,175.9,200.3z"/>
	<path d="M29.4,120.4c1.3-0.3,2.7,0.7,2.7,2C31,121.6,30.2,121,29.4,120.4z"/>
	<path d="M67.1,52.5c-0.5,0.4-1,0.8-1.5,1c-0.2,0.1-0.6-0.1-0.9-0.2c0.1-0.3,0.2-0.8,0.4-0.9c0.6-0.2,1.2-0.2,1.8-0.4
		C67,52.2,67,52.3,67.1,52.5z"/>
	<path d="M124.5,190.6c0.4-0.4,0.7-0.7,1-1c0.2,0.3,0.7,0.7,0.6,0.9c-0.1,0.5-0.5,0.9-0.7,1.3C125.2,191.4,124.9,191.1,124.5,190.6z
		"/>
	<path d="M83.8,133.4c-0.7,0.5-1,1-1.4,0.9c-0.3,0-0.8-0.5-0.9-0.9c-0.1-0.2,0.5-0.8,0.8-0.8C82.7,132.6,83.1,133,83.8,133.4z"/>
	<path d="M60.8,196c-0.7,0.4-1.1,0.8-1.4,0.8c-0.3,0-0.6-0.5-0.8-0.8c0.3-0.3,0.6-0.7,1-0.8C59.8,195.1,60.2,195.5,60.8,196z"/>
	<path d="M102.3,165c-0.6,0.4-1,0.9-1.3,0.9c-0.3,0-0.8-0.6-0.7-0.8c0.1-0.4,0.5-0.8,0.9-0.9C101.3,164.1,101.7,164.5,102.3,165z"/>
	<path d="M225.7,69.7c-0.6,0.3-1,0.7-1.4,0.8c-0.2,0-0.5-0.4-0.7-0.6c0.4-0.4,0.8-0.8,1.3-1.1C224.9,68.8,225.3,69.3,225.7,69.7z"/>
	<path d="M165.1,194.2c-0.6,0.4-0.9,0.8-1.2,0.8c-0.4-0.1-0.7-0.5-1-0.8c0.3-0.3,0.6-0.7,1-0.8C164.2,193.3,164.5,193.8,165.1,194.2
		z"/>
	<path d="M85.7,92c-1.8-0.7-2.2-1.4-1.6-2.5C84.6,90.4,85.2,91.2,85.7,92z"/>
	<path d="M130.9,48.1c-0.4-0.7-0.7-1-0.8-1.4c0-0.2,0.4-0.5,0.7-0.8c0.3,0.3,0.7,0.6,0.8,1C131.7,47.1,131.3,47.5,130.9,48.1z"/>
	<path d="M161.6,177.9c-0.3-0.5-0.7-0.8-0.7-1c0-0.3,0.5-0.8,0.7-0.7c0.3,0.1,0.7,0.5,0.8,0.8C162.4,177.1,162,177.4,161.6,177.9z"
		/>
	<path d="M164.3,207.1c-0.5,0.4-0.8,0.8-1.1,0.7c-0.3,0-0.5-0.4-0.8-0.7c0.3-0.3,0.5-0.7,0.8-0.7
		C163.5,206.4,163.8,206.7,164.3,207.1z"/>
	<path d="M166.4,74.6c-0.5,0.2-0.9,0.5-1.4,0.6c-0.2,0-0.5-0.3-0.8-0.5c0.2-0.2,0.5-0.5,0.7-0.5c0.5,0,1,0.1,1.4,0.2
		C166.4,74.5,166.4,74.6,166.4,74.6z"/>
	<path d="M57.4,225.9c0.2,1.6-1.1,1.3-1.8,1.9c-0.1-0.1-0.1-0.2-0.2-0.2C56.1,227,56.7,226.5,57.4,225.9z"/>
	<path d="M151.5,162.7c-0.4,0.4-0.8,0.8-0.9,0.7c-0.3-0.1-0.6-0.4-0.8-0.7c-0.1-0.2,0.4-0.7,0.6-0.7
		C150.8,162,151.1,162.3,151.5,162.7z"/>
	<path d="M107.4,24.1c-0.3-0.5-0.6-0.8-0.6-1.1c0-0.2,0.4-0.4,0.7-0.7c0.2,0.3,0.6,0.5,0.6,0.8C108.1,23.4,107.7,23.7,107.4,24.1z"
		/>
	<path d="M220.5,62.5c-0.3-0.5-0.6-0.8-0.6-1c0-0.3,0.4-0.5,0.6-0.7c0.2,0.3,0.6,0.5,0.6,0.8C221.2,61.7,220.9,62,220.5,62.5z"/>
	<path d="M194.3,122c-0.5,0.3-0.8,0.6-0.9,0.6c-0.3-0.2-0.6-0.5-0.9-0.8c0.2-0.2,0.5-0.5,0.7-0.5C193.5,121.3,193.8,121.6,194.3,122
		z"/>
	<path d="M72.2,97c0.4,0.8,0.8,1.6,1.3,2.3c-0.1,0.1-0.3,0.2-0.4,0.2c-0.5-0.7-0.9-1.5-1.4-2.2C71.9,97.2,72.1,97.1,72.2,97z"/>
	<path d="M157.4,104.5c-0.4,0.3-0.8,0.7-0.9,0.7c-0.3-0.1-0.5-0.5-0.7-0.7c0.2-0.2,0.5-0.6,0.7-0.6
		C156.7,103.8,156.9,104.2,157.4,104.5z"/>
	<path d="M165.1,192.4c-0.5,0.3-0.8,0.7-1,0.6c-0.3-0.1-0.5-0.4-0.7-0.7c0.2-0.2,0.5-0.6,0.7-0.6
		C164.4,191.7,164.7,192.1,165.1,192.4z"/>
	<path d="M77.5,184.2c-0.3-0.4-0.7-0.8-0.6-1c0.1-0.3,0.5-0.5,0.8-0.7c0.2,0.2,0.6,0.5,0.6,0.7C78.2,183.6,77.9,183.8,77.5,184.2z"
		/>
	<path d="M165.8,182.5c-0.5,0.3-0.8,0.6-1,0.6c-0.3-0.1-0.5-0.4-0.7-0.7c0.2-0.2,0.5-0.6,0.7-0.6
		C165.1,181.8,165.3,182.1,165.8,182.5z"/>
	<path d="M161.9,182.4c0.4,0.4,0.8,0.7,0.8,0.9c0,0.2-0.4,0.7-0.6,0.7c-0.2,0-0.6-0.3-0.7-0.6C161.3,183.1,161.6,182.8,161.9,182.4z
		"/>
	<path d="M162.9,37.7c0.3,0.5,0.6,0.8,0.5,1.1c0,0.2-0.4,0.4-0.6,0.6c-0.2-0.2-0.6-0.5-0.6-0.7C162.2,38.5,162.5,38.2,162.9,37.7z"
		/>
	<path d="M202.8,101.2c-0.4,0.3-0.7,0.6-0.9,0.6c-0.3-0.1-0.6-0.4-0.8-0.8c0-0.1,0.4-0.6,0.5-0.6
		C202.1,100.6,202.4,100.9,202.8,101.2z"/>
	<path d="M55.2,238.5c-0.3,0.5-0.6,1.1-1,1.7C53.5,239.1,53.6,239,55.2,238.5z"/>
	<path d="M29.7,140.8c-0.5,0.4-0.7,0.7-1,0.7c-0.2,0-0.5-0.3-0.7-0.5c0.2-0.2,0.4-0.6,0.7-0.7C28.9,140.3,29.2,140.6,29.7,140.8z"/>
</g>
</svg>
