<?xml version="1.0" encoding="utf-8"?>
<!-- Generator: Adobe Illustrator 26.2.1, SVG Export Plug-In . SVG Version: 6.00 Build 0)  -->
<svg version="1.1" id="Layer_1" xmlns="http://www.w3.org/2000/svg" xmlns:xlink="http://www.w3.org/1999/xlink" x="0px" y="0px"
	 viewBox="0 0 250 250" style="enable-background:new 0 0 250 250;" xml:space="preserve">
<path d="M248.1,125.4c0.4,67.2-55.4,122.1-123.2,122.1C57.6,247.4,1.7,192.7,1.8,125.2C1.8,57.8,58.5,2.5,125.1,2.6
	C192.9,2.6,248.9,59,248.1,125.4z M124.9,23.9c-55.9-0.6-102,45.6-102.1,101.3C22.8,180.5,68.7,226.4,125,226.4
	c56.7,0.1,102.2-47.1,102.1-101.3C227,70.7,181.5,23.2,124.9,23.9z"/>
<path d="M120.5,130.7c-6.4,5.1-13.1,9.9-19.2,15.4c-5.6,5-10.4,10.8-15.8,16.1c-3.1,3.1-7.2,4.1-11.6,3.6c-5.5-0.7-9.8-4.7-11-10
	c-1.2-5.5,0.8-9.9,5-13.5c4.6-3.9,10.2-4.2,15.7-5.2c11.9-2.3,23.5-5.7,35-12.4c-6.9-2.8-13-5.9-19.4-7.8
	c-8.7-2.7-17.8-4.4-26.6-6.7c-5.2-1.3-9.5-6.7-10-11.9c-0.5-6,2.4-11.1,7.9-13.6c4.6-2.1,11.4-0.5,15,3.1
	c8.1,8.2,16.1,16.4,24.5,24.3c3.1,2.9,7.2,4.9,10.8,7.3c0.3-0.1,0.5-0.3,0.8-0.4c-0.6-5.4-0.7-10.9-1.8-16.2
	c-1.7-7.8-3.9-15.5-6.2-23.2c-1.4-4.7-2.5-9.2-1.4-14c1.7-7.7,7.2-9.8,13.5-9.6c11.1,0.4,13.4,9.1,12.4,17.4
	c-0.3,2.8-1.6,5.5-2.6,8.1c-4.1,10.6-6.8,21.5-7.4,32.9c-0.1,1.5,0,3,0,5.3c4.6-3.3,8.9-5.8,12.5-9.2c8.2-7.5,15.9-15.4,23.9-23.1
	c4.8-4.6,12.6-4.8,18.2-0.4c4.8,3.7,6.3,10.9,3,16.2c-2.8,4.6-7.1,7-12.4,8.2c-9.6,2.2-19.3,4.3-28.8,6.9c-4.6,1.3-8.9,3.9-13.3,5.9
	c0,0.4,0,0.7-0.1,1.1c4.3,1.9,8.6,3.9,13,5.6c8.7,3.5,17.7,5.9,27,7.4c4.9,0.8,9.7,2.1,13.1,6.4c4.5,5.8,4.1,13-1.4,18
	c-5,4.6-13.6,4.4-18.4-0.3c-7.4-7.3-14.6-14.8-22.3-21.8c-4-3.7-8.9-6.4-13.3-9.6c-0.3,0.1-0.6,0.3-0.9,0.4
	c0.4,4.3,0.5,8.5,1.1,12.8c1.2,8.9,3.3,17.6,6.9,25.9c1.7,4,2.9,8.2,2.3,12.8c-1,7.8-5.3,11.6-13.4,11.6c-7.5,0-12.2-4.3-13.1-11.7
	c-0.6-4.8,1-9,2.6-13.3c4.2-11.6,7.1-23.6,7-36c0-0.6,0-1.2,0-1.8C121.1,131.2,120.8,130.9,120.5,130.7z"/>
</svg>
