<?xml version="1.0" encoding="utf-8"?>
<!-- Generator: Adobe Illustrator 26.1.0, SVG Export Plug-In . SVG Version: 6.00 Build 0)  -->
<svg version="1.1" id="Layer_1" xmlns="http://www.w3.org/2000/svg" xmlns:xlink="http://www.w3.org/1999/xlink" x="0px" y="0px"
	 viewBox="0 0 250 250" style="enable-background:new 0 0 250 250;" xml:space="preserve">
<style type="text/css">
	.st0{stroke:#000000;stroke-width:0.5;stroke-linecap:round;stroke-linejoin:round;stroke-miterlimit:10;}
</style>
<g>
	<g>
		<g>
			<path class="st0" d="M17.6,219.1v13.2h12.7v3.4H17.6v13.3H14v-13.3H1.3v-3.4H14v-13.2H17.6z"/>
			<path class="st0" d="M55.8,183.9l-1.6,12.5l12,1.5l-0.4,3.2l-12-1.5l-1.6,12.6l-3.4-0.4l1.6-12.6l-12-1.5l0.4-3.2l12,1.5
				l1.6-12.5L55.8,183.9z"/>
			<path class="st0" d="M94.1,148.7L91,160.6l11.4,3l-0.8,3l-11.4-3l-3.1,12l-3.2-0.8l3.1-12l-11.4-3l0.8-3l11.4,3l3.1-11.9
				L94.1,148.7z"/>
			<path class="st0" d="M132.3,113.5l-4.7,11.2l10.8,4.5l-1.2,2.9l-10.8-4.5l-4.7,11.3l-3.1-1.3l4.7-11.3l-10.8-4.5l1.2-2.9
				l10.8,4.5l4.7-11.2L132.3,113.5z"/>
			<path class="st0" d="M170.6,78.3l-6.2,10.6l10.2,6l-1.6,2.7l-10.2-6l-6.3,10.7l-2.9-1.7l6.3-10.7l-10.2-6l1.6-2.7l10.2,6
				l6.2-10.6L170.6,78.3z"/>
			<path class="st0" d="M208.9,43.1l-7.8,9.9l9.6,7.5l-2,2.5l-9.6-7.5l-7.8,10l-2.7-2.1l7.8-10l-9.6-7.5l2-2.5l9.6,7.5l7.8-9.9
				L208.9,43.1z"/>
			<path class="st0" d="M247.1,7.9l-9.3,9.3l9,9l-2.4,2.4l-9-9L226,29l-2.5-2.5l9.4-9.4l-9-9l2.4-2.4l9,9l9.3-9.3L247.1,7.9z"/>
		</g>
	</g>
	<g>
		<g>
			<path class="st0" d="M32.2,17.4H19.1V30h-3.4V17.4H2.5v-3.6h13.3V1.1h3.4v12.7h13.2V17.4z"/>
			<path class="st0" d="M67.5,55.6l-12.5-1.6l-1.5,12l-3.2-0.4l1.5-12l-12.6-1.6l0.4-3.4l12.6,1.6l1.5-12l3.2,0.4l-1.5,12l12.5,1.6
				L67.5,55.6z"/>
			<path class="st0" d="M102.7,93.9l-11.9-3.1l-3,11.4l-3-0.8l3-11.4l-12-3.1l0.8-3.2l12,3.1l3-11.4l3,0.8l-3,11.4l11.9,3.1
				L102.7,93.9z"/>
			<path class="st0" d="M137.9,132.1l-11.2-4.7l-4.5,10.8l-2.9-1.2l4.5-10.8l-11.3-4.7l1.3-3.1l11.3,4.7l4.5-10.8l2.9,1.2l-4.5,10.8
				l11.2,4.7L137.9,132.1z"/>
			<path class="st0" d="M173.1,170.4l-10.6-6.2l-6,10.2l-2.7-1.6l6-10.2l-10.7-6.3l1.7-2.9l10.7,6.3l6-10.2l2.7,1.6l-6,10.2
				l10.6,6.2L173.1,170.4z"/>
			<path class="st0" d="M208.3,208.6l-9.9-7.8l-7.5,9.6l-2.5-2l7.5-9.6l-10-7.8l2.1-2.7l10,7.8l7.5-9.6l2.5,2l-7.5,9.6l9.9,7.8
				L208.3,208.6z"/>
			<path class="st0" d="M243.5,246.9l-9.3-9.3l-9,9l-2.4-2.4l9-9l-9.4-9.4l2.5-2.5l9.4,9.4l9-9l2.4,2.4l-9,9l9.3,9.3L243.5,246.9z"
				/>
		</g>
	</g>
	<g>
		<path class="st0" d="M136,6.8l-9.3,9.3l9,9l-2.4,2.4l-9-9l-9.4,9.4l-2.5-2.5l9.4-9.4l-9-9l2.4-2.4l9,9l9.3-9.3L136,6.8z"/>
		<path class="st0" d="M136.5,45.2l-9.9,7.8l7.5,9.6l-2.5,2l-7.5-9.6l-10,7.8l-2.1-2.7l10-7.8l-7.5-9.6l2.5-2l7.5,9.6l9.9-7.8
			L136.5,45.2z"/>
		<path class="st0" d="M137.1,83.6l-10.6,6.2l6,10.2l-2.7,1.6l-6-10.2l-10.7,6.3l-1.7-2.9l10.7-6.3l-6-10.2l2.7-1.6l6,10.2l10.6-6.2
			L137.1,83.6z"/>
		<path class="st0" d="M137.6,122.1l-11.2,4.7l4.5,10.8l-2.9,1.2l-4.5-10.8l-11.3,4.7l-1.3-3.1l11.3-4.7l-4.5-10.8l2.9-1.2l4.5,10.8
			l11.2-4.7L137.6,122.1z"/>
		<path class="st0" d="M138.1,160.5l-11.9,3.1l3,11.4l-3,0.8l-3-11.4l-12,3.1l-0.8-3.2l12-3.1l-3-11.4l3-0.8l3,11.4l11.9-3.1
			L138.1,160.5z"/>
		<path class="st0" d="M138.6,198.9l-12.5,1.6l1.5,12l-3.2,0.4l-1.5-12l-12.6,1.6l-0.4-3.4l12.6-1.6l-1.5-12l3.2-0.4l1.5,12
			l12.5-1.6L138.6,198.9z"/>
		<path class="st0" d="M139.1,237.3H126V250h-3.4v-12.7h-13.3v-3.6h13.3v-12.7h3.4v12.7h13.2V237.3z"/>
	</g>
	<g>
		<path class="st0" d="M5.4,113.5l9.3,9.3l9-9l2.4,2.4l-9,9l9.4,9.4l-2.5,2.5l-9.4-9.4l-9,9l-2.4-2.4l9-9l-9.3-9.3L5.4,113.5z"/>
		<path class="st0" d="M43.9,113l7.8,9.9l9.6-7.5l2,2.5l-9.6,7.5l7.8,10l-2.7,2.1l-7.8-10l-9.6,7.5l-2-2.5l9.6-7.5l-7.8-9.9
			L43.9,113z"/>
		<path class="st0" d="M82.3,112.5l6.2,10.6l10.2-6l1.6,2.7l-10.2,6l6.3,10.7l-2.9,1.7l-6.3-10.7l-10.2,6l-1.6-2.7l10.2-6l-6.2-10.6
			L82.3,112.5z"/>
		<path class="st0" d="M120.7,112l4.7,11.2l10.8-4.5l1.2,2.9l-10.8,4.5l4.7,11.3l-3.1,1.3l-4.7-11.3l-10.8,4.5l-1.2-2.9l10.8-4.5
			l-4.7-11.2L120.7,112z"/>
		<path class="st0" d="M159.1,111.5l3.1,11.9l11.4-3l0.8,3l-11.4,3l3.1,12l-3.2,0.8l-3.1-12l-11.4,3l-0.8-3l11.4-3l-3.1-11.9
			L159.1,111.5z"/>
		<path class="st0" d="M197.6,110.9l1.6,12.5l12-1.5l0.4,3.2l-12,1.5l1.6,12.6l-3.4,0.4l-1.6-12.6l-12,1.5l-0.4-3.2l12-1.5
			l-1.6-12.5L197.6,110.9z"/>
		<path class="st0" d="M236,110.4v13.2h12.7v3.4H236v13.3h-3.6v-13.3h-12.7v-3.4h12.7v-13.2H236z"/>
	</g>
</g>
</svg>
