<?xml version="1.0" encoding="utf-8"?>
<!-- Generator: Adobe Illustrator 26.1.0, SVG Export Plug-In . SVG Version: 6.00 Build 0)  -->
<svg version="1.1" id="Layer_1" xmlns="http://www.w3.org/2000/svg" xmlns:xlink="http://www.w3.org/1999/xlink" x="0px" y="0px"
	 viewBox="0 0 250 250" style="enable-background:new 0 0 250 250;" xml:space="preserve">
<style type="text/css">
	.st0{fill:#020202;}
</style>
<path class="st0" d="M117.9,123.3l-68,40.7H14.1c-2.3,0-4.2,1.9-4.2,4.2s1.9,4.2,4.2,4.2h29.7L28.9,199c-1.1,2-0.4,4.6,1.6,5.8
	c0.7,0.4,1.4,0.5,2.1,0.5c1.5,0,2.9-0.8,3.7-2.1l17.9-31.8l31-18.6c-9.5,15.8-7.9,29.5-7.4,32.3v13.7l-29.1,19
	c-2,1.3-2.5,3.9-1.2,5.8c0.8,1.2,2.2,1.9,3.5,1.9c0.8,0,1.6-0.2,2.3-0.7l24.5-16v29.8c0,2.3,1.9,4.2,4.2,4.2s4.2-1.9,4.2-4.2v-54
	l-0.1-0.9c-0.2-1.1-4.9-26.5,27.9-48.4l8.7-5.2v80l-18.2,33.6c-1.1,2.1-0.4,4.6,1.7,5.7c0.6,0.3,1.3,0.5,2,0.5c1.5,0,3-0.8,3.7-2.2
	l15.1-27.8l15.1,27.8c1.1,2.1,3.7,2.8,5.7,1.7c2.1-1.1,2.8-3.7,1.7-5.7L131.3,210V175c8,15.8,19.1,19.7,22.1,20.5
	c20.6,11,13.6,41.8,13.5,42.1c-0.5,2.3,0.8,4.5,3.1,5.1c0.3,0.1,0.7,0.1,1,0.1c1.9,0,3.6-1.3,4.1-3.2c0.1-0.4,2.2-9.5,1.2-20.3
	c-0.4-3.9-1.1-7.5-2.2-10.8l26.4,16.3c0.7,0.4,1.5,0.6,2.2,0.6c1.4,0,2.8-0.7,3.6-2c1.2-2,0.6-4.6-1.4-5.8l-42.1-26
	c-1.8-1.5-3.9-2.8-6.1-3.9l-0.5-0.3l-0.5-0.1c-1-0.2-24-5.8-24.3-54.5c1.6,1,3.3,1.9,4.9,2.8l63.3,35.7l16.7,31.7
	c0.8,1.4,2.2,2.3,3.7,2.3c0.7,0,1.3-0.2,2-0.5c2.1-1.1,2.9-3.6,1.8-5.7l-14-26.6h27.6c2.3,0,4.2-1.9,4.2-4.2s-1.9-4.2-4.2-4.2h-33.5
	l-31.6-17.8c0.7,0,1.4,0,2.1,0c17.9,0,28.9-7.5,30.7-8.8l13.1-8l24.9,16c0.7,0.5,1.5,0.7,2.3,0.7c1.4,0,2.7-0.7,3.6-1.9
	c1.3-2,0.7-4.6-1.3-5.8l-21.4-13.8l21.3-13c2-1.2,2.6-3.8,1.4-5.8c-1.2-2-3.8-2.6-5.8-1.4l-42.6,26l-0.4,0.3
	c-0.3,0.2-25.5,18.9-64.9-5.3l68.7-38.5l33.5-0.9c2.3-0.1,4.2-2,4.1-4.3c-0.1-2.3-2-4.2-4.3-4.1l-26.9,0.7l15-25.2
	c1.2-2,0.5-4.6-1.5-5.8c-2-1.2-4.6-0.5-5.8,1.5l-18.4,30.8l-30.3,17c6.7-15.4,7.5-36.4,7.6-41.8c8.3-16.9,28.1-19.3,28.4-19.3
	c2.3-0.2,4-2.3,3.8-4.6c-0.2-2.3-2.3-4-4.6-3.8c-0.8,0.1-16.5,1.8-28,13.8l-1.1-29.8c-0.1-2.3-1.9-4.2-4.4-4.1
	c-2.3,0.1-4.2,2-4.1,4.4l1.6,42.4c0,10.5-2.4,39.7-13.4,49c-0.8,0.7-1.3,1.6-1.4,2.5l-22,12.3c1.4-8.5,1.1-16.3-0.5-23.2
	c0-0.1,0-0.2,0-0.3V39.4l18.3-33.1c1.1-2,0.4-4.6-1.7-5.7c-2-1.1-4.6-0.4-5.7,1.7l-14,25.4L111.9,2c-1.3-2-3.9-2.5-5.8-1.3
	c-2,1.3-2.5,3.9-1.3,5.8L123,35.1c-0.1,0.3-0.1,0.6-0.1,0.9v38.5C112.5,58.3,97.5,50.1,97.2,50l-10.9-5.7V12.6
	c0-2.3-1.9-4.2-4.2-4.2s-4.2,1.9-4.2,4.2v27.2L53,26.7c-2.1-1.1-4.6-0.3-5.7,1.8c-1.1,2.1-0.3,4.6,1.8,5.7l44.1,23.2
	c1.6,0.8,37.1,20.4,30.1,59.3L54.1,76.8L36.2,48.5c-1.2-2-3.9-2.6-5.8-1.3c-2,1.2-2.6,3.9-1.3,5.8l14.4,22.7H14.1
	c-2.3,0-4.2,1.9-4.2,4.2s1.9,4.2,4.2,4.2h35.8l30.1,17.3c-16.7,2.1-35.2,12.2-39.8,14.8c-18.9,1.5-31-14.3-31.2-14.5
	c-1.4-1.9-4-2.3-5.9-0.9c-1.9,1.4-2.3,4-0.9,5.9c0.5,0.7,10.1,13.2,26.2,17L3.5,140.2c-2,1.3-2.5,3.9-1.3,5.8
	c0.8,1.3,2.2,1.9,3.6,1.9c0.8,0,1.6-0.2,2.3-0.7l35.7-23.1c9-5.4,37.8-19.7,50.5-14.1"/>
</svg>
