<?xml version="1.0" encoding="utf-8"?>
<!-- Generator: Adobe Illustrator 26.0.2, SVG Export Plug-In . SVG Version: 6.00 Build 0)  -->
<svg version="1.1" id="Layer_1" xmlns="http://www.w3.org/2000/svg" xmlns:xlink="http://www.w3.org/1999/xlink" x="0px" y="0px"
	 viewBox="0 0 250 250" style="enable-background:new 0 0 250 250;" xml:space="preserve">
<style type="text/css">
	.st0{fill:#FFFFFF;}
</style>
<g>
	<g>
		<g>
			<rect x="123" y="16.2" width="4" height="108.8"/>
		</g>
		<g>
			<g>
				<g>
					<path class="st0" d="M110,17c0-8.3,6.7-15,15-15s15,6.7,15,15s-6.7,15-15,15S110,25.3,110,17z"/>
				</g>
				<g>
					<path d="M108,17c0,9.4,7.6,17,17,17s17-7.6,17-17s-7.6-17-17-17S108,7.6,108,17S108,7.6,108,17z M138,17c0,7.2-5.8,13-13,13
						s-13-5.8-13-13s5.8-13,13-13S138,9.8,138,17S138,9.8,138,17z"/>
				</g>
			</g>
		</g>
	</g>
</g>
<g>
	<g>
		<g>
			<rect x="16.2" y="123" width="108.8" height="4"/>
		</g>
		<g>
			<g>
				<g>
					<path class="st0" d="M17,140c-8.3,0-15-6.7-15-15s6.7-15,15-15s15,6.7,15,15C32.1,133.3,25.3,140,17,140z"/>
				</g>
				<g>
					<path d="M17,142c9.4,0,17-7.6,17-17s-7.6-17-17-17s-17,7.6-17,17S7.6,142,17,142S7.6,142,17,142z M17,112c7.2,0,13,5.8,13,13
						s-5.8,13-13,13s-13-5.8-13-13S9.8,112,17,112S9.8,112,17,112z"/>
				</g>
			</g>
		</g>
	</g>
</g>
<g>
	<g>
		<g>
			<rect x="125" y="123" width="108.8" height="4"/>
		</g>
		<g>
			<g>
				<g>
					<path class="st0" d="M233,110c8.3,0,15,6.7,15,15s-6.7,15-15,15s-15-6.7-15-15S224.7,110,233,110z"/>
				</g>
				<g>
					<path d="M233,108c-9.4,0-17,7.6-17,17s7.6,17,17,17s17-7.6,17-17S242.4,108,233,108S242.4,108,233,108z M233,138
						c-7.2,0-13-5.8-13-13s5.8-13,13-13s13,5.8,13,13S240.2,138,233,138S240.2,138,233,138z"/>
				</g>
			</g>
		</g>
	</g>
</g>
<g>
	<g>
		<g>
			<rect x="109.1" y="84.6" transform="matrix(0.7071 -0.7071 0.7071 0.7071 -13.3267 140.9267)" width="108.8" height="4"/>
		</g>
		<g>
			<g>
				<g>
					<path class="st0" d="M190.7,38c5.9-5.9,15.4-5.9,21.3,0c5.9,5.9,5.9,15.4,0,21.3s-15.4,5.9-21.3,0
						C184.8,53.4,184.8,43.9,190.7,38z"/>
				</g>
				<g>
					<path d="M189.3,36.6c-6.6,6.6-6.6,17.5,0,24.1s17.5,6.6,24.1,0s6.6-17.5,0-24.1S195.9,30,189.3,36.6
						C182.6,43.3,195.9,30,189.3,36.6z M210.6,57.9c-5.1,5.1-13.4,5.1-18.4,0c-5.1-5.1-5.1-13.4,0-18.4c5.1-5.1,13.4-5.1,18.4,0
						C215.6,44.5,215.6,52.8,210.6,57.9C205.5,63,215.6,52.8,210.6,57.9z"/>
				</g>
			</g>
		</g>
	</g>
</g>
<g>
	<g>
		<g>
			<rect x="123" y="125" width="4" height="108.8"/>
		</g>
		<g>
			<g>
				<g>
					<path class="st0" d="M140,233c0,8.3-6.7,15-15,15s-15-6.7-15-15s6.7-15,15-15S140,224.7,140,233z"/>
				</g>
				<g>
					<path d="M142,233c0-9.4-7.6-17-17-17s-17,7.6-17,17s7.6,17,17,17S142,242.4,142,233S142,242.4,142,233z M112,233
						c0-7.2,5.8-13,13-13s13,5.8,13,13s-5.8,13-13,13S112,240.2,112,233S112,240.2,112,233z"/>
				</g>
			</g>
		</g>
	</g>
</g>
<g>
	<g>
		<g>
			<rect x="161.5" y="109.1" transform="matrix(0.7071 -0.7071 0.7071 0.7071 -67.7033 163.4502)" width="4" height="108.8"/>
		</g>
		<g>
			<g>
				<g>
					<path class="st0" d="M212,190.7c5.9,5.9,5.9,15.4,0,21.3c-5.9,5.9-15.4,5.9-21.3,0c-5.9-5.9-5.9-15.4,0-21.3
						C196.6,184.8,206.1,184.8,212,190.7z"/>
				</g>
				<g>
					<path d="M213.4,189.3c-6.6-6.6-17.5-6.6-24.1,0s-6.6,17.5,0,24.1s17.5,6.6,24.1,0S220,195.9,213.4,189.3
						C206.7,182.6,220,195.9,213.4,189.3z M192.1,210.6c-5.1-5.1-5.1-13.4,0-18.4c5.1-5.1,13.4-5.1,18.4,0c5.1,5.1,5.1,13.4,0,18.4
						C205.5,215.6,197.2,215.6,192.1,210.6C187,205.5,197.2,215.6,192.1,210.6z"/>
				</g>
			</g>
		</g>
	</g>
</g>
<g>
	<g>
		<g>
			<rect x="32.2" y="161.5" transform="matrix(0.7071 -0.7071 0.7071 0.7071 -90.2268 109.0736)" width="108.8" height="4"/>
		</g>
		<g>
			<g>
				<g>
					<path class="st0" d="M59.3,212c-5.9,5.9-15.4,5.9-21.3,0s-5.9-15.4,0-21.3c5.9-5.9,15.4-5.9,21.3,0
						C65.2,196.6,65.2,206.1,59.3,212z"/>
				</g>
				<g>
					<path d="M60.7,213.4c6.6-6.6,6.6-17.5,0-24.1s-17.5-6.6-24.1,0s-6.6,17.5,0,24.1S54.1,220,60.7,213.4
						C67.4,206.7,54.1,220,60.7,213.4z M39.4,192.1c5.1-5.1,13.4-5.1,18.4,0c5.1,5.1,5.1,13.4,0,18.4c-5.1,5.1-13.4,5.1-18.4,0
						S34.4,197.2,39.4,192.1C44.5,187,34.4,197.2,39.4,192.1z"/>
				</g>
			</g>
		</g>
	</g>
</g>
<g>
	<g>
		<g>
			<rect x="84.6" y="32.2" transform="matrix(0.7071 -0.7071 0.7071 0.7071 -35.8502 86.55)" width="4" height="108.8"/>
		</g>
		<g>
			<g>
				<g>
					<path class="st0" d="M38,59.3c-5.9-5.9-5.9-15.4,0-21.3s15.4-5.9,21.3,0s5.9,15.4,0,21.3S43.9,65.2,38,59.3z"/>
				</g>
				<g>
					<path d="M36.6,60.7c6.6,6.6,17.5,6.6,24.1,0s6.6-17.5,0-24.1s-17.5-6.6-24.1,0S30,54.1,36.6,60.7C43.3,67.4,30,54.1,36.6,60.7z
						 M57.9,39.4c5.1,5.1,5.1,13.4,0,18.4c-5.1,5.1-13.4,5.1-18.4,0c-5.1-5.1-5.1-13.4,0-18.4C44.5,34.4,52.8,34.4,57.9,39.4
						C63,44.5,52.8,34.4,57.9,39.4z"/>
				</g>
			</g>
		</g>
	</g>
</g>
</svg>
