<?xml version="1.0" encoding="utf-8"?>
<!-- Generator: Adobe Illustrator 26.2.1, SVG Export Plug-In . SVG Version: 6.00 Build 0)  -->
<svg version="1.1" id="Layer_1" xmlns="http://www.w3.org/2000/svg" xmlns:xlink="http://www.w3.org/1999/xlink" x="0px" y="0px"
	 viewBox="0 0 250 250" style="enable-background:new 0 0 250 250;" xml:space="preserve">
<style type="text/css">
	.st0{fill:#FFFFFF;}
</style>
<g>
	<path class="st0" d="M124.6,7.4C188.9,7.4,241,59.5,241,123.9s-52.1,116.4-116.4,116.4S8.1,188.2,8.1,123.9"/>
	<path d="M124.6,243.3c-65.9,0-119.5-53.6-119.5-119.4c0-1.7,1.3-3,3-3s3,1.3,3,3c0,62.5,50.9,113.4,113.5,113.4
		c62.5,0,113.4-50.9,113.4-113.4c0-62.6-50.9-113.5-113.4-113.5c-1.7,0-3-1.3-3-3s1.3-3,3-3C190.4,4.4,244,58,244,123.9
		C244,189.7,190.4,243.3,124.6,243.3z"/>
</g>
<g>
	<path class="st0" d="M124.6,39.5c46.6,0,84.3,37.8,84.3,84.3s-37.8,84.3-84.3,84.3s-84.3-37.8-84.3-84.3"/>
	<path d="M124.6,211.1c-48.1,0-87.3-39.2-87.3-87.3c0-1.7,1.3-3,3-3s3,1.3,3,3c0,44.8,36.5,81.3,81.3,81.3
		c44.8,0,81.3-36.5,81.3-81.3s-36.5-81.3-81.3-81.3c-1.7,0-3-1.3-3-3s1.3-3,3-3c48.1,0,87.3,39.2,87.3,87.3
		C211.9,171.9,172.7,211.1,124.6,211.1z"/>
</g>
<g>
	<path class="st0" d="M124.6,72.1c28.6,0,51.7,23.2,51.7,51.7s-23.2,51.7-51.7,51.7s-51.7-23.2-51.7-51.7"/>
	<path d="M124.6,178.5c-30.2,0-54.7-24.5-54.7-54.7c0-1.7,1.3-3,3-3s3,1.3,3,3c0,26.9,21.8,48.7,48.7,48.7
		c26.9,0,48.7-21.8,48.7-48.7c0-26.9-21.8-48.7-48.7-48.7c-1.7,0-3-1.3-3-3s1.3-3,3-3c30.2,0,54.7,24.5,54.7,54.7
		C179.3,154,154.8,178.5,124.6,178.5z"/>
</g>
</svg>
