<?xml version="1.0" encoding="utf-8"?>
<!-- Generator: Adobe Illustrator 26.2.1, SVG Export Plug-In . SVG Version: 6.00 Build 0)  -->
<svg version="1.1" id="Layer_1" xmlns="http://www.w3.org/2000/svg" xmlns:xlink="http://www.w3.org/1999/xlink" x="0px" y="0px"
	 viewBox="0 0 250 250" style="enable-background:new 0 0 250 250;" xml:space="preserve">
<path d="M249,124.3c0.8,70.3-58,124.9-124.2,124.7C55,248.9,0,192.8,0.1,124.2C0.1,54.4,57.3,0,124.8,0
	C191.6,0,249.9,54.6,249,124.3z M124.9,64.8c-31.9-0.2-59.7,24.7-60.2,57.1c-0.5,33.9,25,61.3,59,62c32.7,0.7,59.5-25.3,59.9-57.2
	C184.1,93.8,161,65.2,124.9,64.8z M97.5,61.8c-19.2-8.4-37.8-16.5-57.2-25c7.5,20.3,14.7,39.7,21.6,58.4c4.8-6.6,9.2-13.5,14.5-19.6
	C81.9,69.4,89.1,65.2,97.5,61.8z M211.1,38.2c-19.8,8-38.8,15.7-58.3,23.7c15.7,7.5,27.1,18.7,34.1,34.7
	C195,76.9,202.9,57.9,211.1,38.2z M125,246.4c8-19.5,15.7-38.4,23.7-57.8c-16.3,5.5-31.9,5.3-47.9,0C109,208,116.9,226.9,125,246.4z
	 M188.8,149.3c19.3-8.3,37.9-16.2,57.1-24.4c-19.3-8.3-37.9-16.3-57.1-24.5C194.3,116.9,195.3,132.8,188.8,149.3z M61.1,100.3
	c-19.4,8.4-37.8,16.4-56.9,24.7c19,8.2,37.5,16.2,56,24.1c0.2-0.1,0.5-0.3,0.7-0.4C54.8,132.7,55.2,116.9,61.1,100.3z M153.1,187.3
	c18.9,8,37.6,15.9,57.1,24.1c-7.7-19.5-15.1-38.2-22.5-57.1C174.4,173.9,174.4,173.9,153.1,187.3z M124.6,3
	c-8,19.2-15.7,37.8-23.7,56.9c16.2-4.9,31.6-5.5,47.6,0C140.4,40.7,132.6,22.1,124.6,3z M40.8,211.4c18.8-8.2,36.8-16.1,55.2-24.2
	c-14.3-7.7-25.1-18.4-33-33C55.6,173.5,48.4,192,40.8,211.4z"/>
</svg>
