<?xml version="1.0" encoding="utf-8"?>
<!-- Generator: Adobe Illustrator 26.2.1, SVG Export Plug-In . SVG Version: 6.00 Build 0)  -->
<svg version="1.1" id="Layer_1" xmlns="http://www.w3.org/2000/svg" xmlns:xlink="http://www.w3.org/1999/xlink" x="0px" y="0px"
	 viewBox="0 0 250 250" style="enable-background:new 0 0 250 250;" xml:space="preserve">
<path d="M140.5,187.2c-5.7,20.9-11.3,41.1-16.9,61.3c-0.2,0-0.4,0-0.5,0.1c-5.1-19.8-10.2-39.6-15.3-59.4
	c-15.2,14.9-30.2,29.6-45.5,44.6c5.2-20.2,10.3-39.9,15.5-60.2c-20.5,5.1-40.5,10.2-60.5,15.2c-0.1-0.2-0.2-0.3-0.3-0.5
	c14.7-15.3,29.5-30.7,44.5-46.3c-20.8-5.9-41.1-11.6-61.5-17.4c0-0.2,0-0.5,0-0.7c20.4-5.5,40.9-10.9,61.8-16.5
	c-15.1-15.6-29.8-30.8-44.5-46c0.1-0.2,0.2-0.4,0.2-0.5C37.5,66,57.4,71.1,77.9,76.3c-5.2-20.5-10.3-40.5-15.3-60.4
	c0.1-0.1,0.3-0.2,0.4-0.3c14.8,15,29.5,30,44.7,45.4C112.9,40.6,118,20.8,123.1,1c0.2,0,0.4,0,0.6,0c5.6,20.4,11.1,40.8,16.9,61.7
	C157,47.6,173,32.9,189,18.1c0.2,0.1,0.3,0.2,0.5,0.3C183.9,38,178.2,57.7,172.3,78c20-5.1,39.5-10,58.5-14.7
	c-13.7,14.2-27.7,28.7-41.8,43.4c19.8,5.9,39.8,11.9,60.4,18c-20.6,6.3-40.6,12.5-60.2,18.5c14.1,14.5,28.1,29,42.6,43.9
	c-20-5.1-39.4-10-59.6-15.2c5.8,20.1,11.6,39.7,17.3,59.3c-0.2,0.1-0.3,0.2-0.5,0.3C173,216.9,157,202.2,140.5,187.2z"/>
</svg>
