<?xml version="1.0" encoding="utf-8"?>
<!-- Generator: Adobe Illustrator 26.2.1, SVG Export Plug-In . SVG Version: 6.00 Build 0)  -->
<svg version="1.1" id="Layer_1" xmlns="http://www.w3.org/2000/svg" xmlns:xlink="http://www.w3.org/1999/xlink" x="0px" y="0px"
	 viewBox="0 0 250 250" style="enable-background:new 0 0 250 250;" xml:space="preserve">
<path d="M100.4,140.4c0-0.4,0.1-0.5,0.1-0.6c-2.6-7.4-2.6-7.3-10.4-6.2c-22.7,3.2-45.4,6.3-68.1,9.2c-3.4,0.4-7.1,0-10.4-0.9
	c-7-1.9-10.9-8.7-10.5-17.3c0.5-13.4,11.8-21.4,23.7-19.6c19,3,37.8,7,56.6,10.6c5.3,1,10.6,2.1,16.1,3.2c1-2.4,2.1-4.7,3.2-7.3
	c-1.1-0.7-2.1-1.5-3.2-2.2C79,97.3,60.5,85.2,42.1,72.9c-5.7-3.8-10.3-8.4-11.3-15.8c-1.6-11.4,5.6-21.1,17-22.8
	c7.6-1.1,13.4,1.7,17.8,7.5c14.3,19,28.4,38.2,42.6,57.3c0.5,0.7,1.1,1.4,1.8,2.4c2.6-1.1,5.2-2.2,8-3.4c-1.4-8.1-2.9-16-4.3-24
	c-2.9-16-5.8-32-8.7-48c-1.3-7.4-0.4-14.4,5-19.9c8.9-9.1,24.8-6.1,31.2,5.4c3.2,5.8,3.1,11.9,2.1,18.1c-3.6,21.9-7.2,43.7-11,65.6
	c-0.4,2.6-0.1,3.9,2.4,4.7c1.3,0.4,2.5,1.1,4,1.8c0.7-1,1.3-1.9,1.9-2.8C153.8,80.1,166.9,61,180.2,42c4.6-6.6,11-10.9,19.4-10.6
	c8.2,0.3,14.9,6,17.6,14.1c2.6,7.9,0.2,16.7-6.6,21.8c-10.1,7.6-20.4,14.8-30.7,22c-10.3,7.3-20.6,14.5-31.2,21.8c1,2.5,2,5,3.1,7.7
	c7.5-1.4,14.9-2.9,22.4-4.3c17.3-3.2,34.6-6.7,51.9-9.5c8-1.3,14.9,1.8,19.3,8.9c4.2,6.9,4.8,14.4,0.8,21.7c-2.9,5.3-8,7.5-13.6,7.2
	c-9-0.4-18-1.2-26.9-2.5c-17.8-2.5-35.6-5.3-53.7-8.1c-1,2.5-2.1,5-3.3,7.8c1,0.7,2,1.4,3,2.1c18.2,12.2,36.5,24.3,54.6,36.6
	c3.4,2.3,6.8,5.1,9.4,8.3c5.7,7,5.3,16.7-0.6,24.4c-5.1,6.8-14.3,8.9-23.1,5.6c-6.1-2.3-9.7-7.3-13.3-12.2
	c-12.8-17.4-25.5-34.9-38.2-52.3c-0.6-0.8-1.2-1.6-1.7-2.3c-0.3,0-0.4-0.1-0.5,0c-6.6,2.4-6.6,2.4-5.3,9.3
	c3.8,20.6,7.7,41.2,11.2,61.9c0.8,5.1,1.1,10.8-0.3,15.6c-3.2,10.6-12.1,14.2-23.6,12.3c-10.1-1.7-16.7-10.7-15.4-21.4
	c1.3-10.3,3.3-20.5,5.1-30.7c2.6-14.6,5.3-29.3,7.9-44.2c-2.2-0.9-4.4-2-6.6-2.5c-0.7-0.2-2,0.9-2.6,1.7
	c-11.3,15.5-22.4,31.2-33.9,46.6c-4.3,5.8-9.4,11.2-14.6,16.2c-5.7,5.3-12.4,4.4-18.7,1c-6-3.1-9.4-10.4-8.6-17.3
	c1-8.4,5.6-14.8,12.2-19.6c14.5-10.5,29.3-20.6,44-30.9C92.8,145.7,96.5,143.1,100.4,140.4z"/>
</svg>
