<?xml version="1.0" encoding="utf-8"?>
<!-- Generator: Adobe Illustrator 25.3.1, SVG Export Plug-In . SVG Version: 6.00 Build 0)  -->
<svg version="1.1" id="Layer_1" xmlns="http://www.w3.org/2000/svg" xmlns:xlink="http://www.w3.org/1999/xlink" x="0px" y="0px"
	 viewBox="0 0 250 250" style="enable-background:new 0 0 250 250;" xml:space="preserve">
<g>
	<path d="M89.1,127.9c-9.9,2.5-19.1,6.2-28.4,9.7c-11.1,4.3-22.8,7.6-34.6,9.3c-10,1.4-18.6-3.6-23.3-13.1
		c-4.7-9.4-3.1-18.4,2.8-26.8c5.3-7.6,13.4-10.5,21.5-9.1c14.5,2.5,28.7,7,43,10.4c6.1,1.4,12.1,2.7,18.4,3.9
		C87.3,117.4,87.5,122.9,89.1,127.9z"/>
	<path d="M231.3,145.7c-14.8,3.3-28.3-1.4-41.8-6.5c-8.6-3.3-17.5-6.1-26.8-7.8c1.3-5.2,1.1-10.6-0.4-15.7c4.5-1.2,9-2.4,13.4-3.8
		c10.5-3.4,20.4-8.9,30.9-11.8c7.7-2.1,16.2-2.7,24.1-1.9c11.6,1.3,19.1,11.5,19.3,23.3C250.1,133.1,242.5,143.1,231.3,145.7z"/>
	<path d="M100,148.9l-33.1,26.4c3.5,14.8-0.3,25.7-11,30.7c-10.1,4.7-21.6,1.8-28.3-7c-6.8-9.1-6.2-21.1,1.6-29.6
		c7.6-8.2,19-9,31.2-1.9L93.6,141c0.7,1.3,1.5,2.6,2.5,3.8C97.3,146.4,98.5,147.7,100,148.9z"/>
	<path d="M221.3,47.2c6,8.9,5.3,20.6-1.8,28.5c-7.8,8.7-19.3,9.5-32.6,1.9l-33.4,25.1c-0.7-1.3-1.6-2.7-2.5-3.9
		c-1.1-1.4-2.2-2.7-3.5-3.8l33.6-25.3c-2.7-16.4,1-26,12.2-30.6C203.5,34.9,215.5,38.4,221.3,47.2z"/>
	<path d="M123.6,147.7c-12.9,0-23-10.2-22.8-22.9c0.2-12.7,9.9-22.3,22.6-22.4c13,0,23.1,9.8,23.3,22.6
		C146.8,137.7,136.7,147.7,123.6,147.7z"/>
	<path d="M223.7,188c-2.8,2.6-25.4,25.3-28.4,28c-19.1-19.1-27-45.2-46-64.2c2.2-1.7,4.1-3.1,6.6-5c4,6.8,13.9,21.6,32.8,31.6
		C202.9,186,216.1,187.6,223.7,188z"/>
	<path d="M154.7,201.9c-3.2-13.2-9.4-25.7-14.4-38.6c-0.5-1.3-1-2.5-1.7-3.8c-1.7,0.9-3.4,1.6-5.2,2.1c4.9,12.5,9.5,24.6,13.4,36.9
		c5.9,19-3.1,34-22.1,40.6v-76.1c-5.2,0.2-10.4-1-15-3.4c-0.3,0.6-0.6,1.2-0.9,1.8c-4.5,10.5-10.1,20.8-13.5,31.7
		c-7.6,24.5,1.6,43,25.1,52.9c1.7,0.8,4,1.3,5.8,0.8C145.9,241.6,159.4,221.6,154.7,201.9z"/>
	<path d="M127.4,3.7c-1.5-0.6-3.7-1-5.1-0.4c-18.2,7.8-33,19.8-28.8,44.1c2.3,12.9,8.6,24.9,13.3,37.3c0.7,1.9,1.6,3.8,2.4,5.8
		c1.9-1,4-1.8,6-2.4c-4-10.1-8.7-19.9-12.3-30.2c-7.6-21.3-1.2-37.5,17.5-46.3c0.7-0.3,1.5-0.3,3.1-0.6v75.8
		c5.2-0.1,10.3,1.1,14.9,3.5c5-10.8,10.5-21.3,14.3-32.5C161.2,33.4,151.4,13.4,127.4,3.7z"/>
	<path d="M18.6,59.4c2.8-3.2,25.3-31.3,28.1-34.6c21.7,20.8,32.1,50.6,53.8,71.4c-2.3,2.1-4.1,3.9-6.6,6.3
		C87.7,94,74.7,78.8,52.8,68.6C39.5,62.5,27.3,60.2,18.6,59.4z"/>
</g>
</svg>
