<?xml version="1.0" encoding="utf-8"?>
<!-- Generator: Adobe Illustrator 26.2.1, SVG Export Plug-In . SVG Version: 6.00 Build 0)  -->
<svg version="1.1" id="Layer_1" xmlns="http://www.w3.org/2000/svg" xmlns:xlink="http://www.w3.org/1999/xlink" x="0px" y="0px"
	 viewBox="0 0 250 250" style="enable-background:new 0 0 250 250;" xml:space="preserve">
<style type="text/css">
	.st0{display:none;opacity:0.22;}
	.st1{font-family:'MyriadPro-Regular';}
	.st2{font-size:417.9186px;}
	.st3{display:none;}
</style>
<text transform="matrix(1 0 0 1 35.9868 331.9829)" class="st0 st1 st2">*</text>
<path class="st3" d="M38.1,27.4c13.5-8,26.9-16,40.4-24c15.4,32.7,30.9,65.3,46.3,98c14.4-33,28.7-66.1,43.1-99.1
	c14,7.9,27.9,15.8,41.9,23.7c-21.7,29.1-43.4,58.2-65.1,87.3c34.7-4.2,69.4-8.4,104.2-12.7c0,15.8,0,31.6,0,47.4
	c-35.4-3.9-70.8-7.8-106.2-11.7c22.6,28.1,45.2,56.2,67.8,84.3c-14.7,8.4-29.3,16.7-44,25.1c-13.8-32.4-27.5-64.8-41.3-97.2
	c-15.8,32.6-31.6,65.2-47.3,97.8c-13.3-8.4-26.5-16.7-39.8-25.1c22.6-28.5,45.2-57.1,67.8-85.6C71,139.8,36.1,144,1.2,148.1
	c0-15.8,0-31.6,0-47.4c34,4,68,8,102,12.1C81.5,84.3,59.8,55.8,38.1,27.4z"/>
<g>
	<path d="M124.1,91.2c-2.4-7.1-3.1-14.4-2.5-21.7c0.5-3.6,1.6-7.2,1.8-10.8c0.3-3.6-0.1-7.2-0.7-10.9c-1.9-10.7-2.4-21.7-0.7-32.6
		c0.6-3.7,1.3-7.3,2.5-10.8c0.1-0.3,0.6-0.3,0.7,0c3.2,10.5,3.9,21.7,2.8,32.6c-0.3,7.3-2.8,14.4-2.3,21.7c0.2,3.6,1.3,7.2,1.7,10.9
		c0.4,3.6,0.1,7.2-0.2,10.8c-0.4,3.6-1.1,7.2-2.4,10.8C124.7,91.5,124.2,91.6,124.1,91.2L124.1,91.2z"/>
	<path d="M125.1,105l-6.6-13.5c-0.8-1.7-0.1-3.8,1.6-4.7c1.6-0.8,3.5-0.2,4.5,1.2c0.8-1.7,2.8-2.4,4.5-1.7c1.8,0.8,2.6,2.8,1.9,4.6
		L125.1,105z"/>
</g>
<g>
	<path d="M153,108c5.4-5.2,11.6-9,18.6-11.5c3.5-1.1,7.2-1.6,10.6-3c3.4-1.3,6.5-3.2,9.5-5.3c8.9-6.3,18.6-11.5,29.1-14.6
		c3.6-1.1,7.1-2,10.8-2.4c0.3,0,0.6,0.4,0.3,0.6c-8.2,7.4-17.9,12.8-28.2,16.5c-6.7,2.9-14.2,3.6-20.6,7.2c-3.2,1.7-6,4.3-9.1,6.2
		c-3.1,1.9-6.5,3.2-9.9,4.4c-3.5,1.2-7,2.1-10.8,2.5C153,108.7,152.8,108.3,153,108L153,108z"/>
	<path d="M141,114.8l9.4-11.7c1.2-1.5,3.4-1.8,4.9-0.5c1.4,1.1,1.7,3.1,0.8,4.6c1.8,0,3.4,1.5,3.5,3.3c0.1,1.9-1.4,3.6-3.3,3.7
		L141,114.8z"/>
</g>
<g>
	<path d="M151.8,140.5c7.4,1.2,14.2,3.8,20.4,7.8c3,2.1,5.7,4.8,8.8,6.6c3.1,1.9,6.5,3.3,10,4.3c10.4,3.3,20.4,7.9,29.2,14.4
		c3,2.2,5.9,4.5,8.5,7.2c0.2,0.2,0,0.7-0.3,0.6c-10.8-2-21-6.5-30.2-12.5c-6.3-3.6-11.5-9.1-18.2-12c-3.3-1.5-7-2.2-10.4-3.5
		c-3.4-1.3-6.5-3.2-9.5-5.2c-3-2.1-5.9-4.3-8.5-7.1C151.3,140.9,151.5,140.4,151.8,140.5L151.8,140.5z"/>
	<path d="M151.6,148c-1,0-2-0.4-2.7-1.3l-9.7-11.7l15,0.4c1.9,0.1,3.5,1.7,3.4,3.6c0,1.8-1.4,3.2-3.2,3.4c1.1,1.5,0.9,3.6-0.6,4.8
		C153.2,147.7,152.4,148,151.6,148z"/>
</g>
<g>
	<path d="M93.6,107.6c-7.4-1-14.3-3.4-20.6-7.2c-3.1-2-5.8-4.6-9-6.4c-3.1-1.8-6.6-3.1-10.1-4c-10.5-3-20.6-7.3-29.6-13.5
		c-3.1-2.1-6-4.3-8.7-6.9c-0.2-0.2,0-0.7,0.3-0.6c10.9,1.7,21.2,5.9,30.6,11.6C52.9,83.9,58.2,89.3,65,92c3.3,1.4,7.1,2,10.5,3.1
		c3.4,1.2,6.6,3,9.7,4.9c3.1,2,6,4.1,8.7,6.9C94.1,107.2,93.9,107.6,93.6,107.6L93.6,107.6z"/>
	<path d="M105.8,113.9L90.7,113c-1.9-0.1-3.4-1.8-3.3-3.7c0.1-1.9,1.7-3.3,3.5-3.3c0,0,0,0,0,0c-0.9-1.5-0.6-3.5,0.9-4.6
		c1.5-1.2,3.7-0.9,4.9,0.6L105.8,113.9z"/>
</g>
<g>
	<path d="M97.8,140.3c-5.1,5.5-11.1,9.7-17.8,12.6c-3.4,1.3-7.1,2.1-10.4,3.6c-3.3,1.5-6.3,3.6-9.2,5.9
		c-8.5,6.8-17.9,12.6-28.2,16.3c-3.5,1.3-7,2.4-10.7,3.1c-0.3,0.1-0.6-0.4-0.3-0.6c7.7-7.9,17.1-13.8,27.2-18.2
		c6.5-3.3,14-4.5,20.1-8.5c3.1-1.9,5.7-4.6,8.7-6.8c3-2.1,6.3-3.6,9.6-5c3.4-1.4,6.9-2.5,10.7-3.1C97.8,139.6,98,140.1,97.8,140.3
		L97.8,140.3z"/>
	<path d="M97.8,147.2c-0.8,0-1.5-0.3-2.2-0.8c-1.5-1.2-1.7-3.3-0.6-4.8c-1.7-0.1-3.1-1.6-3.2-3.3c-0.1-1.9,1.4-3.6,3.4-3.6l15-0.6
		l-9.5,11.8C99.8,146.7,98.8,147.2,97.8,147.2z"/>
</g>
<g>
	<path d="M125.1,159.6c2.4,7.1,3.2,14.3,2.7,21.7c-0.4,3.6-1.6,7.2-1.7,10.9c-0.2,3.6,0.1,7.2,0.8,10.8c2,10.7,2.6,21.7,1,32.5
		c-0.5,3.7-1.2,7.3-2.4,10.9c-0.1,0.3-0.6,0.3-0.7,0c-3.3-10.5-4.1-21.6-3.1-32.5c0.2-7.3,2.7-14.4,2.1-21.7
		c-0.2-3.6-1.4-7.2-1.8-10.8c-0.5-3.6-0.2-7.2,0.1-10.9c0.4-3.6,1-7.2,2.3-10.9C124.5,159.3,125,159.3,125.1,159.6L125.1,159.6z"/>
	<path d="M128,164.8c-1.3,0-2.5-0.7-3.1-2c-0.9,1.5-2.9,2-4.5,1.2c-1.7-0.8-2.5-2.9-1.6-4.7l6.6-13.5l5.9,14
		c0.8,1.8-0.1,3.8-1.9,4.6C129,164.7,128.5,164.8,128,164.8z"/>
</g>
</svg>
