<?xml version="1.0" encoding="utf-8"?>
<!-- Generator: Adobe Illustrator 26.2.1, SVG Export Plug-In . SVG Version: 6.00 Build 0)  -->
<svg version="1.1" id="Layer_1" xmlns="http://www.w3.org/2000/svg" xmlns:xlink="http://www.w3.org/1999/xlink" x="0px" y="0px"
	 viewBox="0 0 250 250" style="enable-background:new 0 0 250 250;" xml:space="preserve">
<path d="M144.6,88.6c-12.9,0-25.7,0-38.8,0c0-29.4,0-58.7,0-88.3c12.8,0,25.7,0,38.8,0C144.6,29.6,144.6,58.9,144.6,88.6z"/>
<path d="M82.9,126.7c6.8,11.7,13.3,23.1,20,34.7C78,176.2,53.2,190.9,28,205.8c-6.8-11.5-13.6-23-20.5-34.5
	C32.7,156.4,57.6,141.7,82.9,126.7z"/>
<path d="M147.7,161.9c6.6-11.7,13.2-23.1,19.8-34.8c25.1,14.8,50,29.4,75.2,44.3c-6.6,11.7-13.2,23.2-19.8,34.9
	C197.8,191.3,172.9,176.6,147.7,161.9z"/>
<path d="M222.3,44.4c6.8,11.5,13.6,22.9,20.5,34.5c-25.1,14.8-50,29.5-75.2,44.3c-6.8-11.2-13.5-22.2-20.3-33.4
	C172.3,74.6,197.2,59.5,222.3,44.4z"/>
<path d="M102.6,90.5c-6.7,11-13.3,21.8-20.1,33c-25-14.7-50-29.4-75.2-44.2c6.3-11.6,12.5-23.1,18.9-34.9
	C51.6,59.8,77,75.1,102.6,90.5z"/>
<path d="M144.6,249.7c-13,0-25.8,0-38.8,0c0-28.7,0-57.3,0-86.1c12.9,0,25.8,0,38.8,0C144.6,192.2,144.6,220.8,144.6,249.7z"/>
</svg>
