<?xml version="1.0" encoding="utf-8"?>
<!-- Generator: Adobe Illustrator 26.2.1, SVG Export Plug-In . SVG Version: 6.00 Build 0)  -->
<svg version="1.1" id="Layer_1" xmlns="http://www.w3.org/2000/svg" xmlns:xlink="http://www.w3.org/1999/xlink" x="0px" y="0px"
	 viewBox="0 0 250 250" style="enable-background:new 0 0 250 250;" xml:space="preserve">
<style type="text/css">
	.st0{fill:#050606;}
	.st1{fill:#060707;}
</style>
<path class="st0" d="M125.3,189c-35,0-63.5-28.5-63.5-63.5c0-35,28.5-63.5,63.5-63.5c35,0,63.5,28.5,63.5,63.5
	C188.8,160.5,160.3,189,125.3,189z M125.3,71.8c-29.6,0-53.7,24.1-53.7,53.7s24.1,53.7,53.7,53.7c29.6,0,53.7-24.1,53.7-53.7
	S154.9,71.8,125.3,71.8z"/>
<path class="st0" d="M125.3,217.8c-50.9,0-92.3-41.4-92.3-92.3c0-50.9,41.4-92.3,92.3-92.3c50.9,0,92.3,41.4,92.3,92.3
	C217.6,176.4,176.2,217.8,125.3,217.8z M125.3,40.8c-46.7,0-84.7,38-84.7,84.7s38,84.7,84.7,84.7s84.7-38,84.7-84.7
	S172,40.8,125.3,40.8z"/>
<path class="st0" d="M125.3,246.7c-66.9,0-121.2-54.4-121.2-121.2C4.1,58.6,58.4,4.3,125.3,4.3c66.9,0,121.2,54.4,121.2,121.2
	C246.5,192.4,192.2,246.7,125.3,246.7z M125.3,9.7C61.5,9.7,9.5,61.7,9.5,125.5s51.9,115.8,115.8,115.8s115.8-51.9,115.8-115.8
	S189.1,9.7,125.3,9.7z"/>
<circle class="st1" cx="125.3" cy="125.5" r="30.7"/>
</svg>
