<?xml version="1.0" encoding="utf-8"?>
<!-- Generator: Adobe Illustrator 25.0.1, SVG Export Plug-In . SVG Version: 6.00 Build 0)  -->
<svg version="1.1" id="Layer_1" xmlns="http://www.w3.org/2000/svg" xmlns:xlink="http://www.w3.org/1999/xlink" x="0px" y="0px"
	 viewBox="0 0 250 250" style="enable-background:new 0 0 250 250;" xml:space="preserve">
<g>
	<path d="M135,231.7c-0.1-2.2,0-4.4,0-6.5c0-4.3-0.2-8.7-0.7-13c-0.6-5.5-1.6-11.1-2.6-16.6c0.1-2.7,0.2-5.4-0.1-8
		c-0.2-1.7-0.5-3.5-1.4-5c-0.8-1.3-2.2-2-3.6-2.5c-0.4-0.1-0.8-0.2-1.1-0.3c-0.6-1.8-2.6-3.3-4.9-2.3c-5.2,2.5-8,7.6-9.7,12.9
		c-2.1,6.6,0.1,14,0.9,20.7c0.4,3.2,1,6.7,2,9.8c0.9,3,2.7,5.2,4.2,8c1.6,2.9,3.1,5.5,4.9,8.2c1.6,2.5,2.6,5.4,4.9,7.4
		c0.1,0,0.1,0.1,0.2,0.1c0.2,0.5,0.3,1,0.6,1.5c1.4,3.1,6.2,1.4,6.2-1.7c0-2.6,0.6-5.1,0.5-7.8c0-0.8-0.1-1.5-0.1-2.3
		C135.1,233.6,135,232.7,135,231.7z M130.5,213.8C130.6,213.8,130.6,213.8,130.5,213.8c0.1,0.1,0.1,0.3,0.1,0.4
		C130.6,214.1,130.6,214,130.5,213.8z M126.3,190.9C126.3,190.9,126.3,190.9,126.3,190.9c0-0.9,0-1.9,0-2.8c0.1,0.4,0.2,0.8,0.2,1.1
		c0.1,0.5,0.2,0.9,0.3,1.4C126.7,190.7,126.5,190.8,126.3,190.9z M124.2,224.6c0,0.2,0,0.4,0.1,0.6c-0.6-1.1-1.2-2.2-1.8-3.3
		c-0.1-0.3-0.2-0.6-0.4-0.8C122.9,222.1,123.6,223.3,124.2,224.6z"/>
	<path d="M245.2,122c-0.3-0.2-0.7-0.3-1.1-0.4c-0.1-0.1-0.2-0.2-0.3-0.4c-1-0.9-2.4-1-3.6-1.5c-2.8-1.1-5.6-2.2-8.3-3.5
		c-2.9-1.4-5.5-3-8.2-4.6c-2.6-1.6-5.3-3.2-8.2-4.2c-2.9-1-5.9-1.5-8.9-2.4c-3.3-0.9-6.4-1.5-9.8-1.2c-3.6,0.3-7.2,0.6-10.7,1.2
		c-2.6,0.5-5.1,1.2-7.6,2c-0.2,0-0.4,0-0.7,0c-0.2-0.1-0.3-0.1-0.5-0.2c0.5-0.4,1-0.7,1.6-1.1c1.9-1.3,3.8-2.6,5.6-4
		c1.9-1,3.8-2,5.6-3.3c0.8-0.5,1.5-1.2,2.2-1.8c2.1-1.2,4.2-2.3,6.3-3.5c1.7-0.7,3.5-1.4,5.3-2c3.3-1.2,6.7-2.5,10-3.8
		c2-0.6,4-1.2,5.9-1.8c1.7-0.5,3.4-1.4,5.1-1.7c0.6-0.1,1.2-0.3,1.7-0.4c1.5-0.2,3-0.3,4.5-0.3c2.7,0,5.6-0.2,8-1.4
		c2.3-1.2,4.1-3,6.4-4.3c0.5-0.3,0.1-1.1-0.5-0.8c-2,1.1-3.6,2.7-5.5,3.8c-2.2,1.3-4.8,1.7-7.3,1.8c-1.3,0-2.7,0-4,0.2c0,0,0,0,0,0
		c0.1-0.1,0.2-0.3,0.3-0.4c1.5-0.3,3-0.6,4.5-0.6c0.3,0.1,0.5,0.2,0.7,0.5c0.3,0.4,0.8,0,0.8-0.4c0.5-0.1,0.5-0.9-0.1-0.9
		c-0.4,0-0.8,0-1.2,0c-0.2-0.1-0.5-0.1-0.7-0.1c0.6-0.1,1.1-0.3,1.4-0.7c0.1,0,0.1,0,0.2,0c1.2-0.1,2.1-0.8,3.2-1.3
		c0.9-0.4,0.4-1.8-0.5-1.8c-2.1,0.1-4.2-0.2-6.3,0.2c-2.2,0.5-4.5,1.4-6.8,1.6c-1,0.1-2,0.1-3,0.2c-1.2,0.1-2.4,0.3-3.6,0.3
		c-2.3,0-4.4,0-6.7,0.3c-4.5,0.5-9.3-0.1-13.6,1.4c-4.3,1.5-9.1,1.2-13.4,2.7c-1.5,0.5-3,0.9-4.6,1.3c-0.6,0-1.2,0-1.7,0
		c2.4-3.1,4.5-6.4,6.5-9.6c3.4-5.5,5-13,9.6-17.6c9.4-9.4,25.2-1.9,36.1-7.4c3.1-1.6,4.8-6.8,2.6-9.8c-0.9-1.2-3.2-3.7-3.5-5.2
		c-0.5-2.2-2.7-4.6-5-5c-10.3-1.7-22.2,2.7-31,8.1c-9.5,5.8-17.7,13.6-26,21c-3.2,2.9-6.4,5.8-9.6,8.7c0.2-2.1,0.3-4.2,0.3-6.4
		c0.2-8.3-1.9-15.3-4.4-23.2c-4.4-13.3-11-24.7-22.4-32.3c-1.1-1.1-2.2-2.1-3.6-2.6c-0.4-0.2-0.9-0.3-1.3-0.3
		c-0.1-0.1-0.3-0.1-0.4-0.2c-3.4-1.7-6.5,0.1-7.9,2.7c-1.4,1-2.7,2.3-3.7,3.6c-3.5,4.3-5.9,9.9-8.3,14.9c-2.1,4.4-3.2,8-3.1,12.2
		c-2,6.1-3.6,12.3-4,18.8c-0.5,7.4-0.1,15.6,1.8,22.9c-5.1-8.5-11.2-16.9-17.8-24.1c-3.4-3.7-7.2-7.2-10.6-10.8
		c-3.8-4.1-7.2-8.6-11.1-12.5c-7.5-7.5-17.2-13.7-26.8-18c-6.4-2.8-15.2-4.6-21.2,0.1c-8.5,6.6-1.5,16.9,5.3,21.2
		c8.5,5.5,13.3,15.6,20.6,22.7c1.6,1.5,3.5,3,4.7,4.9c1.5,2.3,2.5,4.9,4,7.3c3.2,4.9,5,10.3,8.8,14.8c7.2,8.5,16.7,14.8,27.2,18.5
		c2.7,1,5.3,2.4,8.1,3.2c2.7,0.8,4.6,1.4,7.1,3c2.4,1.6,4.7,3.3,6.8,5.3c0.3,0.2,0.5,0.5,0.8,0.8c-0.5,0.2-1,0.5-1.5,0.7
		c-2.9,1.6-5.9,4.2-8.5,6.2c-3.5,2.7-6.5,6-9.7,9C79,135.8,72,141,65,146.2c-7,5.1-13.9,10.4-20.5,16c-3.9,3.2-7.8,6.6-10.2,11
		c-0.9,0.9-1.8,1.9-2.6,2.9c-2.6,1.9-4.5,4.5-5.8,7.5c-1,2.3-1.1,4.8-1.4,7.3c-0.3,1.3-0.6,2.7-0.8,4.1c-0.1,0.3-0.1,0.7,0,1
		c-9.5,8.2-10.4,25,0.5,32.4c1.2,0.8,2.5,1.5,3.8,2c3.1,3.9,8.5,6.1,13.4,4.5c0,0,0,0,0,0c0.1,0,0.2-0.1,0.2-0.1
		c3.9-1.3,7.9-2.7,11.3-5c0.9-0.6,1.2-0.8,1.2-0.9c-0.1,0.1,0,0.2,2.5-1.1c9.5-1.1,19.1-7.8,26.3-13.5c7.1-5.6,12.2-12.2,18-19.1
		c6.1-7.4,10.1-14.9,14.1-23.5c1.9-4,4.3-7.8,6.1-11.9c1.8-4.1,3.1-8.4,4.6-12.6c0.1-0.2,0.2-0.5,0.2-0.7c0.3,4.8,0.6,9.6,1.5,14.4
		c1.5,7.6,4.2,14.9,6.3,22.3c1,3.5,2.4,6.8,2.9,10.4c0.6,3.7,1.8,6.8,3.9,9.9c4.1,6.2,9,11.6,15.7,15c6.1,3.1,12.9,4.4,19.7,5
		c0.9,0.3,1.9,0.6,2.8,0.8c3.7,0.7,7.4,0.9,11,1.6c3.9,0.8,7.5,2.4,11.4,3.3c1.6,0.4,3.2,0.5,4.8,0.8c1,0.1,1.9,0.4,2.9,0.6
		c4,1.5,8.1,2.9,12.2,3.1c1.9,0.5,3.8,0.8,5.8,0.9c4.1,0.1,11.2-0.3,9.9-6.2c-0.3-1.2-0.9-2.4-1.5-3.5c-0.7-1.3-1.2-2.6-2-3.9
		c-1.7-2.7-3.9-5.1-6-7.6c-2.2-2.6-4.7-5-7.7-6.7c-2.8-1.7-5.9-2.8-9.1-3.7c-1.1-0.3-2.2-0.6-3.4-0.9c-2.4-0.9-4.7-1.8-6.9-2.6
		c-5.2-2-9.3-5.2-13.1-9.1c-1.5-1.5-3.4-3.3-4.4-5.3c-0.7-1.5-1.1-3.1-1.7-4.6c-0.2-1.5-0.7-3-1.7-4.2c0.1,0.8,0,0.8-0.2,0
		c-0.4-1.2-0.9-2.3-1.4-3.4c-0.7-1.3-1.9-2.7-2.6-3.8c-2-3-4-5.7-6.1-8.6c-2.8-4-5.7-9.7-8.6-14.4c-0.6-1-1.2-2-1.7-3
		c3.3,0.7,6.7,1.1,10,1.8c3.5,0.7,7,1.5,10.6,1.9c3.5,0.4,7.1,0.5,10.6,0.8c7.1,0.6,14.2,1.1,21.3,0c3.4-0.5,6.8-1.2,10.2-2
		c2.9-0.7,5.7-2.2,8.2-3.9c2.8-1.9,5.7-4,8.1-6.3c0.5-0.5,1-1.1,1.5-1.6c0.2-0.2,0.5-0.4,0.7-0.5c1.8-1.4,3.6-2.8,4.9-4.6
		C245.9,126.9,247.3,123.3,245.2,122z M231.4,225.8c0.2,0.4,0.4,0.7,0.5,1c-0.3-0.1-0.6-0.2-0.9-0.2c0.1-0.3,0.2-0.7,0.3-1
		C231.3,225.7,231.4,225.7,231.4,225.8z M208.3,81.1c0.2,0,0.3,0,0.5,0c0.9,0,1.9-0.1,2.8-0.2c0.5,0,1.1-0.1,1.6-0.1
		c-3.6,1-7,2.6-10.4,4c-1.6,0.7-3.2,1.4-4.7,2.3c-0.2,0-0.4,0.1-0.5,0.1c-1-0.4-2.2,0-3.4,0.5c-3.4,0.5-6.8,0.9-10.2,1.3
		c-4.2,0.5-8.3,0.9-12.5,1.2c0.8-0.8,1.6-1.5,2.3-2.4c1.9-0.2,3.8-0.7,5.7-0.9c1.9-0.2,3.8-0.5,5.7-0.7c0.8-0.1,1.5,0,2.3-0.3
		c0.8-0.3,1.5-0.8,2.4-0.9c0.4,0,0.7-0.3,0.8-0.6c1.1-0.3,2.2-0.7,3.3-1c1.8-0.7,3.5-1,5.4-1.2c2-0.2,3.9-0.7,5.8-1
		c0.4-0.1,0.9-0.1,1.3-0.2C207.1,81.2,207.7,81.2,208.3,81.1z M169.4,94.4c5.6-0.4,11.3-1.1,16.9-1.8c-4.1,2.5-8.6,4.6-13,6.5
		c-4.5,2-9.1,3.8-13.8,5.3c-4.9,1.6-9.9,2.7-14.7,4.5c-0.7-0.2-1.3-0.5-2-0.7c0.6-0.6,0.7-1.6,0.3-2.4c2.7-1.4,5.4-2.7,8.1-4.1
		c4.9-2.5,10.2-4.3,14.9-7.2C167.1,94.5,168.2,94.4,169.4,94.4z M226.6,130.2c-0.3-3.5-1.4-7-2.6-9.5c0-0.1-0.1-0.1-0.1-0.2
		c0,0,0,0,0,0c4.7,1.4,9.5,3,14.4,3.7c-1,0.5-1.9,1-2.9,1.4c-1.3,0.5-2.5,1.3-3.7,2c-1.4,0.9-3,1.5-4.5,2.2
		C227,130,226.8,130.1,226.6,130.2z M172.2,126.4c8.1-1.5,16.3-2.9,24.4-3.8c4.4-0.5,8.7-0.3,12.5,2.3c2.2,1.5,2.5,3,2.9,5.5
		c-0.5,0-1.1,0-1.6-0.1C197.5,129.6,184.8,128.6,172.2,126.4z M121.7,42c0.3-0.1,0.6-0.2,0.9-0.3c0.3,0.8,0.7,1.7,0.8,2.3
		c0.5,1.9,0.7,3.8,0.9,5.8c0.3,3.5,0.3,7,0.3,10.5c-0.1,7.8-0.5,15.2-2.1,22.8c-0.3-3.2-0.5-6.4-0.6-9.6c-0.3-8.2-0.1-16.4-0.1-24.5
		C121.9,46.9,121.3,44.1,121.7,42z M121.8,23.1c0.8,1.2,1.3,2.5,1.8,3.8c-2.9,0.2-6,1.1-8.7,2.5c0.7-1.6,1.5-3.2,2.4-4.7
		C118.7,22.4,120,20.3,121.8,23.1z M169.9,208.3c-0.6-0.1-1.3-0.3-1.9-0.5c0.5,0.1,1.1,0.2,1.6,0.2
		C169.7,208.1,169.8,208.2,169.9,208.3z M196.8,92.8c0.9-0.7,1.8-1.4,2.8-2c0.7-0.1,1.3-0.2,2-0.4c-1.1,0.6-2.3,1.3-3.4,1.9
		C197.7,92.4,197.3,92.6,196.8,92.8z M204.7,89.7c0.1,0,0.2,0,0.3-0.1c-0.2,0.1-0.3,0.1-0.5,0.2C204.5,89.8,204.6,89.8,204.7,89.7z
		 M232.2,79.2C232.2,79.2,232.2,79.2,232.2,79.2C232.2,79.2,232.2,79.2,232.2,79.2z M112.1,126.7c0,0,0.1,0.1,0.1,0.1
		c0.7,8-0.6,16.2-4.2,23.6c-4.1,8.3-8.4,16.5-12.8,24.6c-1.8,3.4-3.5,7.2-5.9,10.2c-3,3.9-7.3,6.7-11.4,9.3c-4.2,2.7-9,4.6-13.9,5.6
		c-0.9,0.2-3.2,0.4-5.6,0.3c-0.1,0-0.2,0-0.4,0c-0.2-0.1-0.4-0.1-0.5-0.2c-0.3-0.9-0.9-1.6-2-2.1c-0.9-0.3-1.6-0.7-2.2-1.2
		c-1.4-2-2.3-4.6-2.8-7.5c-0.1-0.3-0.1-0.5-0.1-0.8c1.1-5.5,5.9-11.5,10-13.9c4-2.4,8.5-3.9,12.3-6.5c3.8-2.5,7.1-5.5,10.5-8.5
		c3.2-2.8,6.7-4.9,9.8-7.8c3.2-3,5.8-6.5,8.6-9.9c2.7-3.3,4.1-7.6,6.4-11.2c0.8-1.3,1.7-2.5,2.7-3.8
		C111.2,127,111.7,126.8,112.1,126.7z M72.6,159c1-0.4,2-0.8,3-1.3c-2.4,2-4.8,4-7.5,5.6C69.6,162,71.1,160.6,72.6,159z
		 M150.1,187.7c-0.7-3.3-1.8-6.6-2.9-9.9c3.8,5.5,7.7,10.9,11.6,16.3c2.2,3.1,4.5,6.2,6.9,9.3c-0.5-0.1-1-0.3-1.6-0.5
		c-5.5-1.8-9.5-6-12.7-10.8c-0.2-0.3-0.4-0.6-0.6-0.9C150.6,190.1,150.4,189,150.1,187.7z M230.6,136
		C230.7,136.1,230.7,136.1,230.6,136c-0.2,0.2-0.4,0.3-0.6,0.5C230.2,136.4,230.4,136.2,230.6,136z M236.4,130.9
		c0.3-0.3,0.7-0.7,1-1c-0.2,0.2-0.5,0.5-0.7,0.7C236.6,130.7,236.5,130.8,236.4,130.9z M20.2,23.6c0,0.1-0.1,0.1-0.1,0.1
		C20.2,23.7,20.2,23.6,20.2,23.6z M81.7,86.3c-8.1-4.2-15.9-10.5-19.7-19c-1.9-4.2-4.5-7.9-6.6-12c-2.5-4.7-6.6-7.9-10.2-11.6
		c-4.9-5.1-8.6-11.2-13.4-16.2c7.7,4.2,15,9.4,20.9,15.9c6.4,7,13.1,13.9,19.4,21c6.9,7.7,12.4,16.4,17.6,25.3
		C87,88.6,84.3,87.6,81.7,86.3z"/>
	<path d="M24.2,125.7c9.3,3.2,19.1,6.7,28.9,8.1c8.5,1.2,18.3,2,25.9-2.6c7.2-4.4,11.8-11.8,8.4-20.1c-0.6-1.4-1.5-2.2-2.7-2.7
		c-0.8-1.1-1.8-2-2.9-2.8c-3.9-2.6-8.9-2.6-13.4-2.7c-5.8-0.1-11.6,0.8-17.2,2.2c-3.2,0.8-6.3,1.7-9.5,2.7c-2.2,0.7-4.4,1.3-6.7,1.8
		c-3.6,0-7.2,0-10.8,0c-1.3,0-2.4,0.3-3.3,0.9c-0.1,0-0.2,0-0.3,0c-0.5,0-1,0-1.5,0c-2.7,0-5.4,0.5-8.1,0.6c-0.2,0-0.3,0-0.5,0.1
		c-2.8-3.7-8.7-0.9-8.5,3.1c-0.4,1.2-0.2,2.5,1,3.7c1,0.9,2.2,1.6,3.6,2.2C11.7,123.1,19.6,124.1,24.2,125.7z M63.4,109.4
		c0.3,0.2,0.7,0.4,1.1,0.4c0,0,0,0,0,0c0.7,0,1.4,0,2.1-0.1c0.6,0,1.3,0,1.9-0.1c1.2,0,2.3,0.1,3.5,0.6c0.4,0.2,0.9,0.3,1.3,0.4
		c-1.3,0.1-2.6,0.1-3.9,0.1c-1.1-0.2-2.2-0.2-3.1-0.2c-1.2,0-2.3,0.1-3.4,0.2c-0.8,0-1.6,0-2.3,0c-0.2,0-0.3-0.1-0.4-0.2
		c-0.1-0.1-0.2-0.2-0.3-0.3C60.9,109.9,62.1,109.6,63.4,109.4z M79.8,108.7c-0.6-0.3-1.2-0.5-1.8-0.7c-0.3-0.2-0.5-0.3-0.8-0.5
		C78.1,107.8,79,108.2,79.8,108.7C79.8,108.7,79.8,108.7,79.8,108.7z"/>
</g>
</svg>
