<?xml version="1.0" encoding="utf-8"?>
<!-- Generator: Adobe Illustrator 26.2.1, SVG Export Plug-In . SVG Version: 6.00 Build 0)  -->
<svg version="1.1" id="Layer_1" xmlns="http://www.w3.org/2000/svg" xmlns:xlink="http://www.w3.org/1999/xlink" x="0px" y="0px"
	 viewBox="0 0 250 250" style="enable-background:new 0 0 250 250;" xml:space="preserve">
<path d="M137.4,124.9c14.7,8.8,29.2,17.5,43.5,26.2c1.6,1,2.5,0.4,3.6-0.7c5.7-5.2,12.1-8.9,20-9.2c9.3-0.3,17.3,2.4,23.6,9.6
	c8.1,9.3,10.3,19.8,6.4,31.4c-5.2,15.3-22.2,23.2-38,17.9c-12.8-4.3-20.5-15.6-20.4-30.2c0-1.3-0.2-2.7,0.2-3.9
	c1.3-3.8-0.9-5.1-3.8-6.7c-13.6-7.7-27.1-15.5-41-23.5c-0.1,1.3-0.2,2.2-0.2,3.2c0,15.9,0.1,31.7-0.1,47.6c0,2.5,0.9,3.5,3,4.3
	c7.8,2.8,14.3,7.2,18.3,14.7c7.3,13.9,3.3,36.4-18.1,43c-21.1,6.6-40.8-9.5-39.6-31.6c0.7-13,8.1-20.8,19.2-26c1-0.5,2.2-0.6,3-1.3
	c0.9-0.7,1.9-1.8,2-2.7c0.1-16.9,0.1-33.7,0.1-50.6c0-0.5-0.1-0.9-0.2-1.9c-15.6,8.9-30.9,17.7-46.4,26.6c3.3,8.3,3.2,16.3-1,24
	c-3.6,6.8-9.4,11.5-16.4,14.4c-13,5.4-29.6-0.2-37-11.4c-7.9-11.9-5.1-28.8,5.9-39.5c9-8.8,27.8-12.2,43.8,3.3
	c15-8.9,30.1-17.9,45.4-27.1c-15.3-8.9-30.4-17.7-45.5-26.5c-14.7,15.5-33.6,13.1-44.4,3c-9.9-9.3-13-25.4-6.3-36.6
	c8.2-13.8,24.1-19.1,39.4-13c14,5.5,20.2,19,16.7,36.6c15.1,8.9,30.3,17.7,45.8,26.8c0.1-1.3,0.2-2.2,0.2-3.2
	c0-16.1,0-32.1,0.1-48.2c0-2.3-0.7-3.3-2.9-4c-7.8-2.7-14.5-6.9-18.3-14.6c-5.2-10.7-4.3-21.3,1.5-31.4
	c10.8-18.6,41.5-18.3,51.9,0.6c9.4,17,3.5,36.3-16.2,44.6c-1.3,0.5-2.6,1-3.9,1.4c0,18.1,0,36,0,54.5c15.3-9,30.3-17.8,45.4-26.6
	c-0.2-2.8-0.6-5.6-0.7-8.3C175,58,198.4,42.3,219,52.2c12.5,6,18.6,16.3,17.2,29.2c-1.5,14.1-10.2,24.8-23.4,27.6
	c-10.5,2.2-19.9-0.9-27.6-8.3c-2-1.9-3.3-2-5.5-0.6C165.8,108.3,151.7,116.4,137.4,124.9z"/>
</svg>
