<?xml version="1.0" encoding="utf-8"?>
<!-- Generator: Adobe Illustrator 26.2.1, SVG Export Plug-In . SVG Version: 6.00 Build 0)  -->
<svg version="1.1" id="a" xmlns="http://www.w3.org/2000/svg" xmlns:xlink="http://www.w3.org/1999/xlink" x="0px" y="0px"
	 viewBox="0 0 250 250" style="enable-background:new 0 0 250 250;" xml:space="preserve">
<rect x="-5.8" y="121" transform="matrix(0.9296 -0.3685 0.3685 0.9296 -37.2663 54.8599)" width="261.7" height="8"/>
<rect x="121" y="-5.8" transform="matrix(0.3685 -0.9296 0.9296 0.3685 -37.2672 195.1375)" width="8" height="261.7"/>
<rect x="120.8" y="-6.6" transform="matrix(0.9188 -0.3948 0.3948 0.9188 -39.1904 59.4401)" width="8" height="263.2"/>
<rect x="-7.7" y="120.9" transform="matrix(0.3845 -0.9231 0.9231 0.3845 -39.4769 190.6905)" width="261.9" height="8"/>
<g>
	<rect x="91.2" y="0.1" width="67.6" height="8"/>
	<rect x="91.2" y="242.2" width="67.6" height="8"/>
</g>
<g>
	<rect x="-0.1" y="91.2" width="8" height="67.6"/>
	<rect x="242.1" y="91.2" width="8" height="67.6"/>
</g>
<g>
	<rect x="5.6" y="35.4" transform="matrix(0.7071 -0.7071 0.7071 0.7071 -16.3158 39.3899)" width="67.6" height="8"/>
	<rect x="176.8" y="206.6" transform="matrix(0.7071 -0.7071 0.7071 0.7071 -87.2375 210.6099)" width="67.6" height="8"/>
</g>
<g>
	<rect x="35.4" y="176.8" transform="matrix(0.7071 -0.7071 0.7071 0.7071 -137.386 89.5382)" width="8" height="67.6"/>
	<rect x="206.6" y="5.6" transform="matrix(0.7071 -0.7071 0.7071 0.7071 33.834 160.4616)" width="8" height="67.6"/>
</g>
</svg>
