<?xml version="1.0" encoding="utf-8"?>
<!-- Generator: Adobe Illustrator 26.2.1, SVG Export Plug-In . SVG Version: 6.00 Build 0)  -->
<svg version="1.1" id="Layer_1" xmlns="http://www.w3.org/2000/svg" xmlns:xlink="http://www.w3.org/1999/xlink" x="0px" y="0px"
	 viewBox="0 0 250 250" style="enable-background:new 0 0 250 250;" xml:space="preserve">
<path d="M176.6,238c-17.2-29.7-34.2-58.9-51.6-89.1c-17.4,30.2-34.2,59.3-51.3,89.1c-7.3-4.1-14.4-8-22.1-12.2
	c17.1-29.7,33.9-58.9,51.3-89.1c-34.8,0-68.6,0-102.8,0c0-8-0.1-15.4,0.1-22.7c0-1,1.7-2.2,2.8-2.7c0.9-0.5,2.2-0.1,3.3-0.1
	c30.1,0,60.2,0,90.3,0c1.6,0,3.2,0,5.7,0c-0.8-1.8-1.3-3.1-2-4.2C85,80.2,69.8,53.5,54.3,27c-2.3-3.9-2.1-6,2.1-8
	c5.7-2.8,11.1-6.2,17.2-9.7c17,29.6,33.8,58.7,51,88.6c1.4-2.1,2.7-3.6,3.7-5.3c15.3-26.3,30.6-52.5,45.6-78.9
	c2.2-3.8,3.9-4.1,7.4-1.8c4.2,2.8,8.7,5.4,13.3,7.6c3.5,1.7,3.6,3.4,1.7,6.7c-15.2,25.9-30.2,52-45.2,78c-1.1,1.9-2.1,3.8-3.6,6.5
	c2.6,0.1,4.2,0.3,5.9,0.3c30.1,0,60.2,0,90.3,0c6.4,0,6.4,0,6.4,6.3c0,6.2,0,12.4,0,19.2c-34.3,0-68,0-102.9,0
	c3.3,5.8,6.1,10.7,9,15.6c13.4,23.1,26.7,46.3,40.2,69.3c2.1,3.6,1.5,5.1-2,6.9C188.5,231.1,183,234.4,176.6,238z"/>
</svg>
