<?xml version="1.0" encoding="utf-8"?>
<!-- Generator: Adobe Illustrator 26.2.1, SVG Export Plug-In . SVG Version: 6.00 Build 0)  -->
<svg version="1.1" id="Layer_1" xmlns="http://www.w3.org/2000/svg" xmlns:xlink="http://www.w3.org/1999/xlink" x="0px" y="0px"
	 viewBox="0 0 250 250" style="enable-background:new 0 0 250 250;" xml:space="preserve">
<path d="M47.7,244c3.3-10.2,6.3-19.6,9.3-29c6.4-19.9,12.8-39.7,19.4-59.5c0.6-1.8,0.3-2.7-1.2-3.8c-24.2-17.6-48.4-35.3-72.5-53
	c-0.7-0.5-1.3-1-2.6-2.1c1.8,0,2.8,0,3.7,0c29.4,0,58.9,0,88.3,0.1c2.6,0,3.7-0.6,4.5-3.2c9-28.4,18.2-56.7,27.3-85.1
	c0.2-0.7,0.5-1.4,0.9-2.5c0.5,1.2,0.8,1.9,1.1,2.7c9.2,28.2,18.4,56.5,27.4,84.8c0.8,2.4,1.8,3.3,4.4,3.3
	c29.4-0.1,58.7-0.1,88.1-0.1c1,0,2,0,3.8,0c-1.3,1-2,1.6-2.7,2.1c-23.9,17.5-47.8,34.9-71.8,52.3c-1.8,1.3-2.3,2.4-1.5,4.6
	c9.3,28.4,18.4,56.9,27.6,85.3c0.3,0.8,0.4,1.6,0.8,3c-1.7-1.2-2.8-2-4-2.9c-23.7-17.2-47.4-34.3-71-51.6c-1.7-1.2-2.7-1.3-4.4,0
	c-24,17.5-48,35-72,52.4C49.9,242.5,49.1,243.1,47.7,244z M226.9,104.2c-0.1-0.2-0.2-0.4-0.3-0.6c-0.9,0-1.9,0-2.8,0
	c-24.1,0-48.2,0-72.3,0c-1.9,0-2.8-0.5-3.4-2.4c-7.3-22.8-14.7-45.6-22.2-68.4c-0.3-1-0.7-1.9-1.2-3.4c-0.5,1.3-0.7,2.1-1,2.9
	c-7.4,22.9-14.8,45.8-22,68.7c-0.6,2-1.4,2.6-3.5,2.6c-24.3-0.1-48.6-0.1-72.8-0.1c-0.9,0-1.8,0-2.7,0c0,0.2-0.1,0.3-0.1,0.5
	c21,15.4,42,30.7,63.1,46.1c-8.1,24.9-16.1,49.6-24.4,75c1.7-1.2,2.7-2,3.7-2.7c19.2-14,38.3-28,57.5-42.1c1.7-1.3,2.8-1.4,4.6-0.1
	c19.3,14.2,38.8,28.3,58.2,42.5c1,0.7,1.9,1.4,3.4,2.4c-8.3-25.4-16.3-50.2-24.4-75C185.2,134.8,206,119.5,226.9,104.2z"/>
</svg>
