<?xml version="1.0" encoding="utf-8"?>
<!-- Generator: Adobe Illustrator 26.2.1, SVG Export Plug-In . SVG Version: 6.00 Build 0)  -->
<svg version="1.1" id="Layer_1" xmlns="http://www.w3.org/2000/svg" xmlns:xlink="http://www.w3.org/1999/xlink" x="0px" y="0px"
	 viewBox="0 0 250 250" style="enable-background:new 0 0 250 250;" xml:space="preserve">
<style type="text/css">
	.st0{fill:#FFFFFF;stroke:#000000;stroke-miterlimit:10;}
	.st1{stroke:#FFFFFF;stroke-miterlimit:10;}
</style>
<path class="st0" d="M42.1,32.6"/>
<polygon class="st0" points="138.2,23.6 124.6,23.6 110.9,23.6 117.7,11.8 124.6,0 131.4,11.8 "/>
<polygon class="st0" points="138.2,32 124.6,32 110.9,32 117.7,20.1 124.6,8.3 131.4,20.1 "/>
<polygon class="st0" points="138.2,40.3 124.6,40.3 110.9,40.3 117.7,28.5 124.6,16.6 131.4,28.5 "/>
<polygon class="st0" points="138.2,48.6 124.6,48.6 110.9,48.6 117.7,36.8 124.6,25 131.4,36.8 "/>
<polygon class="st0" points="138.2,56.9 124.6,56.9 110.9,56.9 117.7,45.1 124.6,33.3 131.4,45.1 "/>
<polygon class="st0" points="138.2,65.2 124.6,65.2 110.9,65.2 117.7,53.4 124.6,41.6 131.4,53.4 "/>
<polygon class="st0" points="138.2,73.6 124.6,73.6 110.9,73.6 117.7,61.7 124.6,49.9 131.4,61.7 "/>
<polygon class="st0" points="138.2,81.9 124.6,81.9 110.9,81.9 117.7,70.1 124.6,58.2 131.4,70.1 "/>
<polygon class="st0" points="138.2,90.2 124.6,90.2 110.9,90.2 117.7,78.4 124.6,66.6 131.4,78.4 "/>
<g>
	<polygon class="st1" points="205,63.7 195.4,54 185.7,44.4 198.9,40.8 212.1,37.3 208.5,50.5 	"/>
	<polygon class="st1" points="199.1,69.6 189.5,59.9 179.8,50.3 193,46.7 206.2,43.2 202.7,56.4 	"/>
	<polygon class="st1" points="193.2,75.4 183.6,65.8 173.9,56.1 187.1,52.6 200.3,49.1 196.8,62.3 	"/>
	<polygon class="st1" points="187.4,81.3 177.7,71.7 168.1,62 181.2,58.5 194.4,55 190.9,68.1 	"/>
	<polygon class="st1" points="181.5,87.2 171.8,77.6 162.2,67.9 175.4,64.4 188.5,60.8 185,74 	"/>
	<polygon class="st1" points="175.6,93.1 165.9,83.4 156.3,73.8 169.5,70.3 182.7,66.7 179.1,79.9 	"/>
	<polygon class="st1" points="169.7,99 160.1,89.3 150.4,79.7 163.6,76.1 176.8,72.6 173.2,85.8 	"/>
	<polygon class="st1" points="163.8,104.9 154.2,95.2 144.5,85.6 157.7,82 170.9,78.5 167.4,91.7 	"/>
	<polygon class="st1" points="157.9,110.8 148.3,101.1 138.6,91.4 151.8,87.9 165,84.4 161.5,97.6 	"/>
</g>
<polygon class="st0" points="225,138.5 225,124.9 225,111.2 236.8,118.1 248.7,124.9 236.8,131.7 "/>
<polygon class="st0" points="216.7,138.5 216.7,124.9 216.7,111.2 228.5,118.1 240.3,124.9 228.5,131.7 "/>
<polygon class="st0" points="208.4,138.5 208.4,124.9 208.4,111.2 220.2,118.1 232,124.9 220.2,131.7 "/>
<polygon class="st0" points="200.1,138.5 200.1,124.9 200.1,111.2 211.9,118.1 223.7,124.9 211.9,131.7 "/>
<polygon class="st0" points="191.7,138.5 191.7,124.9 191.7,111.2 203.6,118.1 215.4,124.9 203.6,131.7 "/>
<polygon class="st0" points="183.4,138.5 183.4,124.9 183.4,111.2 195.2,118.1 207.1,124.9 195.2,131.7 "/>
<polygon class="st0" points="175.1,138.5 175.1,124.9 175.1,111.2 186.9,118.1 198.7,124.9 186.9,131.7 "/>
<polygon class="st0" points="166.8,138.5 166.8,124.9 166.8,111.2 178.6,118.1 190.4,124.9 178.6,131.7 "/>
<polygon class="st0" points="158.4,138.5 158.4,124.9 158.4,111.2 170.3,118.1 182.1,124.9 170.3,131.7 "/>
<g>
	<polygon class="st1" points="185.7,205.8 195.4,196.2 205,186.5 208.5,199.7 212.1,212.9 198.9,209.4 	"/>
	<polygon class="st1" points="179.8,199.9 189.5,190.3 199.1,180.6 202.7,193.8 206.2,207 193,203.5 	"/>
	<polygon class="st1" points="173.9,194.1 183.6,184.4 193.2,174.8 196.8,187.9 200.3,201.1 187.1,197.6 	"/>
	<polygon class="st1" points="168.1,188.2 177.7,178.5 187.4,168.9 190.9,182.1 194.4,195.2 181.2,191.7 	"/>
	<polygon class="st1" points="162.2,182.3 171.8,172.6 181.5,163 185,176.2 188.5,189.4 175.4,185.8 	"/>
	<polygon class="st1" points="156.3,176.4 165.9,166.8 175.6,157.1 179.1,170.3 182.7,183.5 169.5,179.9 	"/>
	<polygon class="st1" points="150.4,170.5 160.1,160.9 169.7,151.2 173.2,164.4 176.8,177.6 163.6,174.1 	"/>
	<polygon class="st1" points="144.5,164.6 154.2,155 163.8,145.3 167.4,158.5 170.9,171.7 157.7,168.2 	"/>
	<polygon class="st1" points="138.6,158.8 148.3,149.1 157.9,139.5 161.5,152.6 165,165.8 151.8,162.3 	"/>
</g>
<polygon class="st0" points="24.7,111.2 24.7,124.9 24.7,138.5 12.9,131.7 1,124.9 12.9,118.1 "/>
<polygon class="st0" points="33,111.2 33,124.9 33,138.5 21.2,131.7 9.4,124.9 21.2,118.1 "/>
<polygon class="st0" points="41.3,111.2 41.3,124.9 41.3,138.5 29.5,131.7 17.7,124.9 29.5,118.1 "/>
<polygon class="st0" points="49.7,111.2 49.7,124.9 49.7,138.5 37.8,131.7 26,124.9 37.8,118.1 "/>
<polygon class="st0" points="58,111.2 58,124.9 58,138.5 46.2,131.7 34.3,124.9 46.2,118.1 "/>
<polygon class="st0" points="66.3,111.2 66.3,124.9 66.3,138.5 54.5,131.7 42.7,124.9 54.5,118.1 "/>
<polygon class="st0" points="74.6,111.2 74.6,124.9 74.6,138.5 62.8,131.7 51,124.9 62.8,118.1 "/>
<polygon class="st0" points="82.9,111.2 82.9,124.9 82.9,138.5 71.1,131.7 59.3,124.9 71.1,118.1 "/>
<polygon class="st0" points="91.3,111.2 91.3,124.9 91.3,138.5 79.4,131.7 67.6,124.9 79.4,118.1 "/>
<g>
	<polygon class="st1" points="63.7,43.9 54.1,53.6 44.4,63.2 40.9,50 37.3,36.8 50.5,40.4 	"/>
	<polygon class="st1" points="69.6,49.8 59.9,59.5 50.3,69.1 46.8,55.9 43.2,42.7 56.4,46.3 	"/>
	<polygon class="st1" points="75.5,55.7 65.8,65.3 56.2,75 52.6,61.8 49.1,48.6 62.3,52.1 	"/>
	<polygon class="st1" points="81.4,61.6 71.7,71.2 62.1,80.9 58.5,67.7 55,54.5 68.2,58 	"/>
	<polygon class="st1" points="87.2,67.5 77.6,77.1 67.9,86.8 64.4,73.6 60.9,60.4 74.1,63.9 	"/>
	<polygon class="st1" points="93.1,73.3 83.5,83 73.8,92.6 70.3,79.5 66.8,66.3 79.9,69.8 	"/>
	<polygon class="st1" points="99,79.2 89.4,88.9 79.7,98.5 76.2,85.3 72.6,72.2 85.8,75.7 	"/>
	<polygon class="st1" points="104.9,85.1 95.2,94.8 85.6,104.4 82.1,91.2 78.5,78 91.7,81.6 	"/>
	<polygon class="st1" points="110.8,91 101.1,100.6 91.5,110.3 87.9,97.1 84.4,83.9 97.6,87.5 	"/>
</g>
<polygon class="st0" points="110.9,225.7 124.6,225.7 138.2,225.7 131.4,237.5 124.6,249.3 117.7,237.5 "/>
<polygon class="st0" points="110.9,217.4 124.6,217.4 138.2,217.4 131.4,229.2 124.6,241 117.7,229.2 "/>
<polygon class="st0" points="110.9,209 124.6,209 138.2,209 131.4,220.9 124.6,232.7 117.7,220.9 "/>
<polygon class="st0" points="110.9,200.7 124.6,200.7 138.2,200.7 131.4,212.6 124.6,224.4 117.7,212.6 "/>
<polygon class="st0" points="110.9,192.4 124.6,192.4 138.2,192.4 131.4,204.2 124.6,216.1 117.7,204.2 "/>
<polygon class="st0" points="110.9,184.1 124.6,184.1 138.2,184.1 131.4,195.9 124.6,207.7 117.7,195.9 "/>
<polygon class="st0" points="110.9,175.8 124.6,175.8 138.2,175.8 131.4,187.6 124.6,199.4 117.7,187.6 "/>
<polygon class="st0" points="110.9,167.4 124.6,167.4 138.2,167.4 131.4,179.3 124.6,191.1 117.7,179.3 "/>
<polygon class="st0" points="110.9,159.1 124.6,159.1 138.2,159.1 131.4,170.9 124.6,182.8 117.7,170.9 "/>
<g>
	<polygon class="st1" points="44.4,186.5 54.1,196.2 63.7,205.8 50.5,209.4 37.3,212.9 40.9,199.7 	"/>
	<polygon class="st1" points="50.3,180.6 59.9,190.3 69.6,199.9 56.4,203.5 43.2,207 46.8,193.8 	"/>
	<polygon class="st1" points="56.2,174.8 65.8,184.4 75.5,194.1 62.3,197.6 49.1,201.1 52.6,187.9 	"/>
	<polygon class="st1" points="62.1,168.9 71.7,178.5 81.4,188.2 68.2,191.7 55,195.2 58.5,182.1 	"/>
	<polygon class="st1" points="67.9,163 77.6,172.6 87.2,182.3 74.1,185.8 60.9,189.4 64.4,176.2 	"/>
	<polygon class="st1" points="73.8,157.1 83.5,166.8 93.1,176.4 79.9,179.9 66.8,183.5 70.3,170.3 	"/>
	<polygon class="st1" points="79.7,151.2 89.4,160.9 99,170.5 85.8,174.1 72.6,177.6 76.2,164.4 	"/>
	<polygon class="st1" points="85.6,145.3 95.2,155 104.9,164.6 91.7,168.2 78.5,171.7 82.1,158.5 	"/>
	<polygon class="st1" points="91.5,139.5 101.1,149.1 110.8,158.8 97.6,162.3 84.4,165.8 87.9,152.6 	"/>
</g>
</svg>
