<?xml version="1.0" encoding="utf-8"?>
<!-- Generator: Adobe Illustrator 26.2.1, SVG Export Plug-In . SVG Version: 6.00 Build 0)  -->
<svg version="1.1" id="Layer_1" xmlns="http://www.w3.org/2000/svg" xmlns:xlink="http://www.w3.org/1999/xlink" x="0px" y="0px"
	 viewBox="0 0 250 250" style="enable-background:new 0 0 250 250;" xml:space="preserve">
<path d="M110.5,124.3c-12.6-2.4-25.2-4.7-37.8-7.3c-12.4-2.6-24.9-5.1-37.2-8.6c-8.4-2.4-15.6-7.4-19.9-15.5
	c-3.7-7.1-2.8-14.5-2-22.1c0.6-6.3,3.3-11.2,8.5-14.7c2.2-1.5,4.3-3.3,6.5-4.9c9.2-6.6,18.5-6.6,28.1-0.8
	c10.9,6.7,20.1,15.3,28.6,24.8c9.1,10.2,17.7,20.8,26.5,31.2c1.1,1.3,2.1,2.5,3.5,3.5c-3.1-8.3-6.2-16.7-9.3-25
	C100.8,70.9,95.6,57,93.4,42.2c-0.6-3.8-0.8-7.6-1-11.4c-0.6-11.1,4.5-19.2,14.2-24.2c5.1-2.6,10.7-4.5,16.2-6.5
	c0.9-0.3,2.2-0.2,3.1,0.2c4.8,2,9.6,4.1,14.3,6.3c8.6,4,12.3,11.1,13.1,20.1c1,11.3-1.2,22.3-4.6,32.9c-5.2,16.1-11.1,32-16.7,48
	c-0.5,1.3-1,2.6-1.5,3.9c0.3,0.2,0.5,0.5,0.8,0.7c0.3-0.6,0.5-1.4,1-1.9c12-14.1,23.6-28.5,36.1-42c6.3-6.8,14.1-12.5,21.7-18.1
	c8-5.9,16.7-6,25.1-0.6c5.5,3.5,10.5,7.7,15.7,11.7c0.4,0.3,0.9,0.9,1,1.4c1.8,8.1,3.4,16.2,1.4,24.4c-2,8.6-8.1,13.9-15.6,17.7
	c-12.3,6.2-25.5,9.5-39,12c-12.7,2.4-25.5,4.5-38.2,6.7c-0.5,0.1-1.1,0.3-1.6,1.1c6.3,1.2,12.7,2.4,19,3.7c15.1,3,30.3,5.8,45.4,9.3
	c9.4,2.2,18,6.2,24.7,13.5c4.2,4.5,6.2,9.9,6,15.9c-0.2,6-1,12-1.7,18c-0.1,0.9-0.6,2-1.3,2.5c-5,3.8-9.9,7.9-15.2,11.3
	c-9,5.7-17.9,5-26.8-0.8c-11.3-7.3-20.6-16.7-29.3-26.7c-9.1-10.4-17.9-21.2-26.9-31.7c-0.6-0.8-1.3-1.5-2.4-2
	c1.1,2.8,2.3,5.7,3.4,8.6c7.1,18.3,14.1,36.7,18,56.1c1.6,7.8,2.5,15.7,0.9,23.6c-1.3,6.7-4.6,12.1-10.6,15.3
	c-5.5,2.9-11.2,5.4-16.9,7.9c-0.6,0.3-1.6,0.3-2.3,0.1c-6.6-2.9-13.4-5.4-19.7-8.9c-7.3-4.1-10.6-11-10.9-19.3
	c-0.5-13.6,3.1-26.5,7.6-39.1c4.9-13.8,10.4-27.4,15.7-41c0.4-1.1,0.8-2.2,0.8-3.5c-4.3,5.4-8.6,10.7-12.9,16.1
	c-10.6,13.2-21.3,26.2-34.4,37c-5.1,4.2-10.8,7.6-16.6,10.8c-5.8,3.2-12.1,2.3-17.6-0.9c-6.4-3.7-12.3-8.2-18.5-12.4
	c-0.5-0.3-1-0.8-1.1-1.4c-1.8-8.2-3.8-16.5-1.7-25c2.1-8.3,7.9-13.5,15.1-17.5c7.5-4.2,15.9-5.4,24.1-7.2c18.5-4,37.1-7.8,55.6-11.7
	c0.7-0.1,1.3-0.3,2-0.5C110.5,124.6,110.5,124.4,110.5,124.3z M124.3,7.8c-18.6,1-23.7,9.3-24.4,21.8c-0.6,11.7,1.5,23.1,5.5,33.9
	c5.7,15.5,12.1,30.8,18.2,46.1c0.1,0.2,0.3,0.3,0.6,0.5C124.3,76,124.3,42,124.3,7.8z M23,181.2c1.2,1.5,2.1,2.8,3.1,4.1
	c7.1,8.7,14.9,10.8,25.1,6.1c4.8-2.2,9.4-5,13.6-8.2c12.9-9.7,23.3-22,33.4-34.6c4.6-5.8,9.1-11.9,13.6-17.8
	c-0.2-0.2-0.3-0.4-0.5-0.6C82,147.2,52.7,164.1,23,181.2z M110.2,117.1c-29.3-17-58.6-34-88.2-51.2c-0.8,2.2-1.6,4.1-2.2,6
	c-3.2,9.4-1.5,16,6.3,22.1c3.8,2.9,8,5.4,12.3,7.3C61.2,111.2,85.7,113.7,110.2,117.1z M223.9,65.8c-6.7-11.6-15.6-14.6-27.6-9.8
	c-8,3.2-14.8,8.2-20.5,14.4c-11.7,12.8-22.9,26-34.3,39.1c-2.2,2.5-4.2,5.1-6.3,7.6c0.2,0.2,0.3,0.3,0.5,0.5
	C165.1,100.3,194.5,83.1,223.9,65.8z M124.5,240.6c9.7,0.4,19.6-5,21.6-15.4c1.4-7,0.8-14-0.4-20.9c-2.8-16.6-8.1-32.5-14-48.2
	c-2.2-5.8-4.5-11.5-6.7-17.2c-0.2,0.1-0.3,0.1-0.5,0.2C124.5,172.9,124.5,206.7,124.5,240.6z M136.6,130.1c-0.1,0.2-0.1,0.4-0.2,0.7
	c29.5,16.8,59,33.6,88.8,50.5c1-3.3,2.1-6,2.8-8.8c1.9-7.8-1.5-13.7-7.2-18.5c-8-6.9-17.6-10.9-27.7-13.3c-14.4-3.4-29-5.8-43.6-8.6
	C145.2,131.3,140.9,130.8,136.6,130.1z"/>
</svg>
