<?xml version="1.0" encoding="utf-8"?>
<!-- Generator: Adobe Illustrator 25.4.1, SVG Export Plug-In . SVG Version: 6.00 Build 0)  -->
<svg version="1.1" id="Layer_1" xmlns="http://www.w3.org/2000/svg" xmlns:xlink="http://www.w3.org/1999/xlink" x="0px" y="0px"
	 viewBox="0 0 250 250" style="enable-background:new 0 0 250 250;" xml:space="preserve">
<path d="M44.3,231.5c-1.2,0.8-6.9,7.6-7.1,7c-0.4-0.7,17.4-24,22.5-29c3-3,0.6,1.8,9.7-9.4c8.2-10.1,16.9-22.2,26.2-34.2
	c8.8-11.5,17.5-21.3,25.6-32.4c5.6-7.7,0.1-1.7,0.9-3.8c1.3-3.4,16-22,19-24.6c3-2.6-0.7,3.4,3.6-1.7c5.3-6.2,13.6-18,22-28.5
	c6.1-7.7,7.2-8.3,13.1-15.7c7.7-9.7,19.4-25.6,27-34c5.2-5.8,2.7-1.9,3.8-2.5c1.4-1.1,6.5-7,4-2.7c-3,4.8-9.8,13.4-17.2,23.3
	c-7,9.3-5.2,8-13.5,19c-11.7,15.5-22.9,27.9-13.9,15.1c7.1-10.1,32.1-41.7,28.8-39.3c-2.4,1.8-16,20.2-24,30.5
	c-9.4,11.9-10.9,12.5-20.4,25.3c-8.9,11.9,1.8-0.4,1.4,1.1c-1,3.2-22.5,30.8-23.5,30c-0.6-0.5,3.9-7.7-0.7-2.3
	c-4.4,5.1-10.2,13.6-15.6,20.5c-6.1,7.8-7.5,8.9-13.5,16.8c-6,7.8-7.4,9.9-12.4,16.3c-6,7.8-10,12.3-14.5,18.7
	c-4.5,6.3,3.7-3,4.9-3.4c2.1-0.6-13.7,19.7-17.8,23.7c-2.3,2.2-2.2,1-5.4,4.3c-3.4,3.6-7.4,8.5-11.4,12.6
	C42.2,235.8,46.1,230.3,44.3,231.5z"/>
<path d="M61.9,46.3C56.4,38.5,43.1,21,48.3,26.9c3.6,4.1,16.3,20.9,29.1,38.3c6.1,8.4,19.9,26.1,27.3,36.1
	c9.4,12.7,16.4,22.4,24.4,33c10.6,13.9,14.1,17.9,4.6,4.8c-8.3-11.4-18.2-24.2-25.5-34.3c-4.4-6-5.3-7.5-13.5-18.4
	c-7-9.3-16.1-21.1-24.8-32.7c-11.4-15.3-11.6-16.7,8,9c10.3,13.5,20.1,26.9,28.9,38.5c8.7,11.6,20.9,27.3,28.2,36.9
	c8.3,10.9,17.9,23.9,23.4,31.2c8.2,10.9,12.4,16.1,7.7,9.3c-3.3-4.8-11-15.1-10.8-15.3c0.3-0.2,14.9,18.9,21,27.2
	c6.4,8.7,7.1,10.2,11.4,16.3c5.1,7.1,12.7,17.4,12.4,17.7c-0.4,0.3-13.4-16.4-21.3-27c-8-10.6-31.6-42.7-35.7-47.4
	c-2.5-2.8,9,12.5,15,20.9c8.2,11.5,9,13.5-0.1,2.1c-12.7-15.9-17.7-23.5-30.8-40.7c-12.8-16.8-8.9-11.5-18-23.3
	c-8.8-11.5-17.7-24.1-22.1-29.6c-4.2-5.2,3.7,5.5,4.3,6.6c0.8,1.5-3.4-3.7-10.2-12.6C66.6,54.8,67.4,54.1,61.9,46.3z"/>
<path d="M80.1,125.2c0,0.4-8.5,0.5-3.3,1c8.1,0.8,42.3,1.7,71.7,1.3c20.9-0.2,47-1.2,45.1-2.3c-3.3-1.5-45.6-2.1-44.6-3
	c0.5-1.1,32.8-1.3,48.9-0.6c12.4,0.5,10.9,1,16.6,1.7c7.1,0.8,27.1,1.2,26.1,2.4c-1,1.2-26.1,1.4-39.4,2
	c-14.7,0.6-19.5,1.8-60.3,1.8c-33.2,0-50.8-1-78.4-1.7c-26.1-0.7-48.9-1-52.7-1.9c-4.3-1,19.9-1.5,20.4-2.2
	c0.5-0.7-11.9-1.2-6.6-1.9c12.3-1.7,59.8-0.9,60.3,0.3c0.5,0.9-15.2,1.3-15.7,1.9C67.8,124.4,80.1,124.7,80.1,125.2z"/>
<path d="M122.6,22.3c0.8-6.6,0.9-16.5,1.7-17.4c0.6-0.6,0.9,6.8,0.9,15.1c-0.1,8.8-0.6,12-0.6,18.2c0,6.8,0.3,9.7,0.3,20.2
	c0,17.1-1,27.6-1,37.6c0,6.8,0.2,12.5,0.7,12.5c0.6,0,1.1-15.7,2-13.7c0.9,2,0.5,15.1,0.8,20.8c0.2,6,1,6,1,20.5
	c0,8.3-0.8,18.5-1.5,18.5c-0.7,0-1.1-5.4-1.7-4.8c-0.6,0.6-1.1,6.8-1,12.8c0.2,9.1,1.6,5.4,2.3,12c0.7,6,0.9,19.1,1.7,18.2
	c1-1.1,0.5-19.7,1.3-26.2c0.6-4.3,1.3,5.4,1.1,17.4c-0.3,16.5-1.3,37-2.1,37.3c-0.6,0.3-0.9-5.7-1.2-7.4c-0.5-2.6-1-0.9-1.5-6.3
	c-0.8-7.7-0.7-25.9-1.6-26.8c-0.7-0.6-1.2,4.3-1.2,14.8c0,6.6,0.3,14.8,1,14.8c0.6,0,1.1,3.7,1.1,12c0.1,8.5-0.6,16-1.4,16
	c-0.8,0-1.1-4.3-1.7-2c-0.6,2.3-1.2,10.5-2,8.8c-0.6-1.7-1-17.1-0.1-23.9c0.5-4,1.4-5.4,1.6-12c0.2-6.6-0.2-15.7,0-22.2
	c0.2-8,0.6-11.1,0.7-19.9c0.1-6.6-0.2-12-0.1-20.2c0.1-11.4,0.6-15.7,0.7-28.2c0-12.5-0.2-23.6-0.1-34.2c0.1-10.5,0.8-21.9,0.9-31.3
	c0-7.7-0.4-10.5-0.7-6.8c-0.4,4.3-0.7,17.4-1.7,16.2c-1-1.1-0.7-22.5,0.1-30.5C121.5,26.8,122,28,122.6,22.3z M125.2,122.3
	c-0.4,1.1-0.7-1.7-1,2.6c-0.3,4-0.7,11.7-0.4,15.1c0.3,3.7,0.7-3.4,1.2-4.3c0.7-1.1,1.1,3.7,1.4-5.4c0.1-4.3,0.1-12.8-0.2-14
	C125.6,114.8,125.6,121.1,125.2,122.3z"/>
</svg>
