<?xml version="1.0" encoding="utf-8"?>
<!-- Generator: Adobe Illustrator 26.2.1, SVG Export Plug-In . SVG Version: 6.00 Build 0)  -->
<svg version="1.1" id="Layer_1" xmlns="http://www.w3.org/2000/svg" xmlns:xlink="http://www.w3.org/1999/xlink" x="0px" y="0px"
	 viewBox="0 0 250 250" style="enable-background:new 0 0 250 250;" xml:space="preserve">
<path d="M120.4,0.5c2.1,0,3.9,0,5.6,0c19.2,63,60.9,102.5,123.9,120.4c0,0.4,0.1,1.2,0.1,2c0,1.4,0,2.8,0,4.2
	c-5.6,1.7-11.1,3.2-16.5,4.9c-19.6,6.3-36.8,16.8-52.2,30.3c-17.3,15.2-32.3,32.5-42.1,53.6c-4.7,9.9-8.2,20.4-11.8,30.7
	c-1,2.7-2.3,2.7-4.5,2.9c-2.6,0.2-2.9-1.3-3.3-3.2c-3.6-15.8-9.6-30.7-18.1-44.5c-7.7-12.6-17.3-23.7-28-33.8
	C53.1,149,29.7,135.6,2.8,128.2c-2.7-0.7-2.8-2.2-2.8-4.3c0-2.1,0.1-3.6,2.8-4.3c24-5.9,45-17.7,63.6-33.8
	C91.5,64,109.1,37.3,118.8,5.3C119.3,3.8,119.8,2.3,120.4,0.5z M13.4,123.5c0,0.2,0,0.4,0.1,0.7c9.8,2.1,19.7,4.2,29.5,6.4
	c18.1,4.1,35.9,9.2,52.2,18.5c1.3,0.7,2.5,2,3.2,3.3c9.1,16.5,14.5,34.3,18.7,52.6c2,8.8,4.1,17.6,6.2,26.4
	c1.9-6.8,3.2-13.6,4.6-20.5c4.2-20.2,9.7-40,19.8-58.2c0.6-1.1,1.3-2.4,2.4-2.9c6.9-3.5,13.8-7.2,21-10.1
	c15.4-6.1,31.7-8.7,47.8-12.1c5.2-1.1,10.4-2.2,15.5-3.3c-0.4-0.6-0.7-0.8-1.1-0.9c-8.5-1.6-17.1-3.1-25.5-4.9
	c-16.5-3.5-32.7-8.1-48.3-14.7c-7.4-3.1-13.2-7.4-15.5-15.5c-0.7-2.5-2-4.8-2.9-7.2c-7-18.4-11.5-37.4-15.6-56.6
	c-0.6-2.7-1.1-5.4-1.7-8.1c-1.6,5-2.7,9.9-3.7,14.9c-4.4,22.5-10.4,44.4-21.5,64.5c-0.8,1.5-2.3,3.1-3.8,3.9
	c-18.7,9.8-38.8,15.5-59.5,19.5C27.9,120.5,20.7,122.1,13.4,123.5z"/>
</svg>
