<?xml version="1.0" encoding="utf-8"?>
<!-- Generator: Adobe Illustrator 26.2.1, SVG Export Plug-In . SVG Version: 6.00 Build 0)  -->
<svg version="1.1" id="Layer_1" xmlns="http://www.w3.org/2000/svg" xmlns:xlink="http://www.w3.org/1999/xlink" x="0px" y="0px"
	 viewBox="0 0 250 250" style="enable-background:new 0 0 250 250;" xml:space="preserve">
<path d="M152.7,125.6c-0.1,16.4-12.3,28.9-28.4,29c-16.3,0.1-29.8-13.3-29.7-29.5c0-15.9,13.5-29.7,29.1-29.7
	C140.2,95.2,152.8,108.4,152.7,125.6z"/>
<path d="M124.4,161.3c6.3,23.1,15.9,44.3,17.9,67.5c0.6,7-1,12.9-7.2,16.8c-6.8,4.2-14,4.9-21.2,1.2c-6.7-3.5-10.2-9.1-9.7-16.8
	c1.6-23.3,9.7-44.9,18.3-66.3C122.9,163.1,123.4,162.6,124.4,161.3z"/>
<path d="M156.9,105.3c2.6-2.9,5.3-5.7,8-8.6c11-11.7,21.9-23.5,33-35.1c2.2-2.3,4.8-4.1,7.4-5.8c9.9-6.6,20.6-4.1,26.7,6.3
	c6.4,10.7,2.3,23.6-9.3,28c-19.3,7.3-39.1,12.8-59.5,16c-1.9,0.3-3.8,0.3-5.7,0.4C157.4,106,157.1,105.7,156.9,105.3z"/>
<path d="M123.8,88.1c-1.7-3.7-3.1-6.6-4.2-9.6c-6.2-17-12.3-34.1-14.6-52.1c-0.9-7.3-1.4-14.5,5-20.2c7.1-6.3,18.6-7.3,26.3-1.9
	c5.8,4.1,6.6,10.1,6.1,16.5c-1.1,14.9-6,28.9-10.4,43.1c-2.3,7.2-4.5,14.4-6.8,21.5C124.9,86.1,124.5,86.6,123.8,88.1z"/>
<path d="M91.6,106.9c-8.1-1.4-16.3-2.2-24.2-4.2c-12.1-3.1-24-6.8-35.8-10.7c-7-2.3-13.7-5.5-16.2-13.3c-2.4-7.5-0.1-14,4.7-19.9
	c4.5-5.5,10.4-8.4,17.1-5.9c4.8,1.7,9.5,4.6,13.1,8.2c13.9,14.1,27.3,28.6,40.9,43c0.4,0.5,0.7,1.1,1,1.6
	C91.9,106,91.8,106.5,91.6,106.9z"/>
<path d="M91.3,146.7c-3.3,4-6.5,8-9.9,11.9c-8.8,10.1-16.6,21.3-27.6,29.4c-3.8,2.8-7.5,5.6-11.6,7.8c-10.5,5.5-24.3-1.8-26.1-13.7
	c-1.7-11.1,2.2-18.4,13-21.5c14.6-4.2,29.5-7.6,44.2-11.3c4-1,8-1.9,12.1-2.7c1.8-0.4,3.6-0.5,5.4-0.8
	C90.9,146.2,91.1,146.5,91.3,146.7z"/>
<path d="M158,145.4c7.3,1.5,13.5,2.7,19.6,4c13.3,3,26.5,5.8,39.7,9.1c8.4,2.1,14.7,6.8,16.1,16.1c1.2,8.3-3.1,16.8-10.5,21.2
	c-7.7,4.6-14.6,1.7-20.4-3.2c-8.2-7-16.2-14.4-23.7-22.2c-6.7-6.9-12.6-14.5-18.8-21.9C159.4,148,159.1,147.3,158,145.4z"/>
</svg>
