<?xml version="1.0" encoding="UTF-8"?>
<svg id="Layer_1" data-name="Layer 1" xmlns="http://www.w3.org/2000/svg" viewBox="0 0 250 250">
  <g>
    <path d="M118.36937,45.56l-11.10999,37.84003c-.10004,.33997-.35004,.47998-.53003,.54999-.15997,.04999-.45996,.08997-.76001-.13l-26.09998-20.06-5.16998-3.97003c-.92999-.70996-2-1.15997-3.10004-1.32996-1.73999-.28003-3.56,.13-5.06995,1.22998-2.47003,1.79999-3.43005,4.92999-2.41003,7.81l2.84998,7.96997,2.16003,6.06006,8.25,23.09998c.12,.33997,0,.59998-.10999,.76001-.12,.15997-.33002,.34998-.69,.33997l-6.23004-.16998-10.66998-.27997-22.52002-.60004c-3.04999-.08002-5.72998,1.81-6.66998,4.71002-.94,2.90997,.12,6.01001,2.64001,7.73999l11.64001,7.96002,5.32001,3.62994,14.60999,9.99005,.97998,.66998c.29999,.20001,.35999,.48999,.35999,.67999,0,.20001-.06,.47003-.34998,.66998l-6,4.12-26.51001,18.20001c-2.52002,1.73004-3.58002,4.84003-2.63,7.73999,.95001,2.90002,3.63,4.79004,6.67999,4.70001l29.86005-.85999,6.44-.17999,3.12-.09003c.37-.01001,.58997,.21002,.67999,.34003,.12,.15997,.22998,.41998,.10999,.76001l-2.57001,7.25995-3.16998,8.93005-7.44,20.96997c-1.02002,2.88-.04004,6.01001,2.42999,7.79999,2.46997,1.79999,5.75,1.75,8.16998-.12l31.22003-24.08002c.29999-.22998,.59998-.17999,.76001-.12994,.17999,.06,.42999,.20996,.52997,.54999l11.17999,37.81c.85999,2.92999,3.5,4.89001,6.54999,4.89001s5.68005-1.97003,6.53003-4.90002l11.10999-37.84003c.10004-.33997,.35004-.47998,.53003-.53998,.15997-.04999,.45996-.09998,.76001,.13l31.26996,24.02002c2.41998,1.85999,5.70001,1.89996,8.16998,.09998,2.47003-1.78998,3.43005-4.92999,2.41003-7.79999l-7.48999-20.97003-3.20001-8.97998-2.57001-7.19c-.12-.35999,.02002-.63,.10999-.76001,.10004-.13,.31-.34998,.69-.33997l3.17999,.07996,6.43005,.18005,29.81,.78998c3.04999,.08002,5.72998-1.81,6.66998-4.71002,.22998-.70996,.33997-1.42999,.33997-2.13,0-2.19995-1.06995-4.29999-2.97998-5.59998l-26.54999-18.16003-6-4.09998c-.29999-.20001-.35999-.47998-.35999-.67999,0-.19,.06-.47003,.35999-.66998l1-.69,14.59998-10.02002,5.31-3.65002,11.59003-7.95996c2.52002-1.73004,3.57001-4.84003,2.63-7.73999-.95001-2.90002-3.63-4.79004-6.67999-4.70001l-22.46002,.64001-10.65997,.31-6.30005,.17999c-.35999,.01001-.56995-.17999-.67999-.34003-.09998-.13-.23999-.39996-.12-.76001l8.21002-23.12,2.14996-6.06,2.83002-7.97998c1.02002-2.88,.04004-6.01001-2.42999-7.79999-1.5-1.09003-3.28998-1.5-5.01001-1.23004-1.12,.16003-2.20001,.61005-3.15997,1.35004l-5.08002,3.90997-26.14001,20.17004c-.27997,.21997-.57001,.18994-.75,.12994-.15997-.04999-.42999-.19-.53998-.54999l-11.17999-37.81c-.85999-2.92999-3.48999-4.89001-6.54999-4.89001-3.05005,0-5.67004,1.97003-6.53003,4.90002Zm7.33002,1.69l11.17999,37.81c.64001,2.15997,2.29999,3.85999,4.44,4.56,2.14001,.69,4.47998,.28003,6.26001-1.08997l19-14.65002,8.53998-6.59003,3.69-2.83997c.32001-.25,.65002-.26001,.97998-.02002,.33002,.23999,.42999,.56,.29004,.94l-3.61005,10.16998-2.14996,6.07001-7.41998,20.92999c-.75,2.12-.41003,4.47003,.90997,6.29004,1.33002,1.82001,3.46002,2.87,5.71002,2.79999l4.62-.13,7.15997-.21002,27.64001-.78998c.40997-.01001,.67999,.17999,.79999,.57001,.13,.39001,.02002,.70001-.31,.92999l-13.52002,9.28003-5.29999,3.63995-13.69,9.40002c-1.41998,.96997-2.39996,2.42999-2.77997,4.07001-.12,.5-.17999,1.01996-.17999,1.54999v.01001c0,1.66998,.60999,3.26001,1.69,4.48999,.38,.42999,.79999,.81,1.27997,1.13l32.54999,22.26001c.34003,.22998,.45001,.53998,.32001,.92999s-.39996,.58002-.79999,.57001l-32.13-.86005-6.42999-.17999-.85999-.01996c-2.25-.06-4.38,1-5.71002,2.82001-.84998,1.17999-1.28998,2.57996-1.28998,4,0,.29999,.01996,.60999,.07001,.90997,.04999,.46997,.15997,.92999,.31995,1.38l3.16003,8.85999,10.09998,28.28003c.13,.38,.04004,.69995-.28998,.94-.33002,.23999-.65997,.23999-.98999-.01001l-31.27002-24.02002c-1.77997-1.37-4.13-1.77997-6.27002-1.08002-2.13995,.70001-3.78998,2.41003-4.42999,4.56l-11.09998,37.84003c-.12,.39001-.38,.59003-.78998,.59003-.41003,0-.67004-.20001-.79004-.59003l-11.17999-37.81c-.64001-2.15997-2.28998-3.85999-4.44-4.56-2.14001-.69-4.47998-.28003-6.26001,1.08997l-31.22998,24.08002c-.32001,.25-.65002,.26001-.97998,.02002-.33002-.23999-.42999-.56-.29004-.94l10.02002-28.23999,3.15997-8.92999c.15002-.44,.26001-.89001,.32001-1.34003,.25-1.72998-.17999-3.51001-1.22998-4.95001-1.33002-1.82001-3.46002-2.87-5.71002-2.79999l-.79999,.02002-6.44,.19-32.17999,.91998c-.40997,.01001-.67999-.17999-.79999-.57001-.13-.39001-.02002-.70001,.31-.92999l32.51001-22.32001c.47998-.33002,.90997-.71002,1.27997-1.14001,1.07001-1.21997,1.67999-2.81,1.67999-4.47998v-.01001c0-.52997-.06-1.04999-.17999-1.54999-.38-1.64001-1.37-3.09998-2.78998-4.07001l-13.67999-9.34998-5.31-3.63-13.56-9.28003c-.34003-.22998-.44-.53998-.32001-.92999,.13-.38,.39996-.57001,.79999-.56l27.69,.73999,7.16998,.19,4.56,.12c2.25,.06,4.38-.98999,5.71002-2.82001,1.32001-1.81995,1.65002-4.16998,.90002-6.28998l-7.47003-20.90997-2.15997-6.06-3.63-10.17004c-.13-.38-.04004-.69995,.28998-.94,.33002-.23999,.65997-.23999,.98999,.01001l3.76001,2.89001,8.53998,6.56,18.97003,14.57001c1.77997,1.38,4.13,1.77997,6.27002,1.08002,2.13995-.70001,3.78998-2.40002,4.42999-4.56l11.09998-37.84003c.12-.39001,.38-.59003,.78998-.59003,.41003,0,.67004,.20001,.79004,.59003Z" style="fill: #231f20;"/>
    <path d="M179.78935,64.42999c.33002,.23999,.42999,.56,.29004,.94l-3.61005,10.16998-3.12,.09003c-.35999,.02002-.56995-.16998-.67999-.33002-.09998-.13-.23999-.39996-.12-.76001l2.57001-7.25,3.69-2.83997c.32001-.25,.65002-.26001,.97998-.02002Z" style="fill: #231f20;"/>
    <path d="M71.04936,64.54999l3.76001,2.89001,2.57001,7.19c.12,.33997,0,.59998-.10999,.76001-.12,.15997-.33002,.34998-.69,.33997l-3.17999-.07996-3.63-10.17004c-.13-.38-.04004-.69995,.28998-.94,.33002-.23999,.65997-.23999,.98999,.01001Z" style="fill: #231f20;"/>
    <path d="M36.99938,110.67999l27.69,.73999-14.60999,10.03003-13.56-9.28003c-.34003-.22998-.44-.53998-.32001-.92999,.13-.38,.39996-.57001,.79999-.56Z" style="fill: #231f20;"/>
  </g>
  <g>
    <path d="M118.36937,15.56l-11.10999,37.84003c-.10004,.33997-.35004,.47998-.53003,.53998-.15997,.04999-.45996,.09998-.76001-.13l-31.26996-24.02002c-2.41998-1.85999-5.70001-1.89996-8.16998-.09998-2.47003,1.79999-3.43005,4.92999-2.41003,7.81l7.47998,20.96002,3.21002,8.97998,2.57001,7.19c.12,.33997,0,.59998-.10999,.76001-.12,.15997-.33002,.34998-.69,.33997l-3.17999-.07996-6.43005-.18005-29.81-.78998c-3.04999-.08997-5.72998,1.81-6.66998,4.71002-.94,2.90997,.12,6.01001,2.64001,7.72998l26.54999,18.16003,6,4.09998c.31,.21002,.35999,.52002,.35999,.67999,0,.19-.06,.47003-.34998,.66998l-1,.69-14.60999,10.03003-5.31,3.64001-11.59003,7.95996c-2.52002,1.73004-3.58002,4.84003-2.63,7.73999,.95001,2.90002,3.63,4.79004,6.67999,4.70001l22.46002-.64001,10.66998-.31,6.29004-.17999c.35999-.01001,.56995,.17999,.67999,.34003,.12,.15997,.22998,.41998,.10999,.76001l-8.20001,23.12-2.14996,6.04999-2.83002,7.98999c-1.02002,2.88-.04004,6.01001,2.42999,7.79999,1.5,1.09003,3.28998,1.5,5.01001,1.23004,1.12-.16003,2.20001-.61005,3.15997-1.35004l5.08002-3.90997,26.14001-20.17004c.29999-.22998,.59998-.17999,.76001-.12994,.17999,.06,.42999,.20996,.52997,.54999l11.17999,37.81c.85999,2.92999,3.5,4.89001,6.54999,4.89001s5.68005-1.97003,6.53003-4.90002l11.10999-37.84003c.10004-.33997,.35004-.47998,.53003-.53998,.15997-.06,.45996-.09998,.76001,.12l26.09998,20.06,5.16998,3.97003c.92999,.70996,1.98999,1.15997,3.09003,1.32996,1.73999,.28003,3.56-.13,5.07996-1.22998,2.47003-1.78998,3.43005-4.92999,2.41003-7.81l-2.84998-7.96997-2.16003-6.06006-8.25-23.09998c-.12-.33997,0-.59998,.10999-.76001,.12-.15997,.33002-.34998,.69-.33997l6.23004,.16998,10.66998,.27997,22.52002,.60004c3.04999,.08002,5.72998-1.81,6.66998-4.71002,.22998-.70996,.33997-1.42999,.33997-2.13,0-2.19995-1.06995-4.29999-2.97998-5.60999l-11.64001-7.96002-5.32001-3.62994-14.60999-9.99005-.97998-.66998c-.29999-.20001-.35999-.47998-.35999-.67999s.06-.47003,.35999-.66998l5.98999-4.12,26.51001-18.20001c2.52002-1.73004,3.57001-4.84003,2.63-7.73999-.95001-2.90002-3.63-4.79004-6.67999-4.70001l-29.86005,.84998-6.44,.17999-3.12,.09003c-.35999,.02002-.56995-.16998-.67999-.33002-.09998-.13-.23999-.39996-.12-.76001l2.57001-7.25,3.17999-8.94,7.44-20.96997c1.02002-2.88,.04004-6.01001-2.42999-7.79999-2.46997-1.79999-5.75-1.75-8.16998,.12l-31.22003,24.08002c-.27997,.21997-.57001,.18994-.75,.12994-.19-.06-.44-.20996-.53998-.54999l-11.17999-37.81c-.85999-2.92999-3.48999-4.89001-6.54999-4.89001-3.05005,0-5.67004,1.97003-6.53003,4.90002Zm7.33002,1.69l11.17999,37.81c.64001,2.15997,2.29999,3.85999,4.44,4.56,2.14001,.69,4.47998,.28003,6.26001-1.08997l31.22998-24.08002c.32001-.25,.65002-.26001,.97998-.02002,.33002,.23999,.42999,.56,.29004,.94l-10.02002,28.23999-3.15997,8.92999c-.15002,.44-.26001,.89001-.32001,1.34003-.25,1.72998,.17999,3.51001,1.22998,4.95001,1.33002,1.82001,3.46002,2.87,5.71002,2.79999l.79999-.02002,6.44-.19,32.17999-.91998c.40997-.01001,.67999,.17999,.79999,.57001,.13,.39001,.02002,.70001-.31,.92999l-32.51001,22.32001c-.46997,.33002-.89996,.71002-1.26996,1.14001-1.08002,1.21997-1.69,2.81-1.69,4.47998v.01001c0,.52997,.06,1.04999,.17999,1.54999,.38,1.64001,1.37,3.09998,2.78998,4.07001l13.67999,9.34998,5.31,3.64001,13.56,9.27002c.34003,.22998,.45001,.53998,.32001,.92999-.13,.38-.39996,.58002-.79999,.56l-27.67999-.73999-7.17999-.19-4.56-.12c-2.25-.06-4.38,.98999-5.70001,2.82001-.85999,1.17999-1.29999,2.57996-1.29999,4,0,.76996,.13,1.54999,.38995,2.28998l7.47003,20.90997,2.15997,6.06,3.63,10.17004c.13,.38995,.04004,.69995-.28998,.94-.33002,.23999-.65997,.23999-.98999-.01001l-3.76001-2.89001-8.53998-6.56-18.97003-14.57001c-1.77997-1.38-4.13-1.77997-6.27002-1.08002-2.13995,.70001-3.78998,2.40002-4.42999,4.56l-11.09998,37.84003c-.12,.39001-.38,.59003-.78998,.59003-.41003,0-.67004-.20001-.79004-.59003l-11.17999-37.81c-.64001-2.15997-2.28998-3.85999-4.44-4.56-2.14001-.69-4.47998-.28003-6.26001,1.08997l-19,14.65002-8.54999,6.59998-3.67999,2.83002c-.32001,.25-.65002,.26001-.97998,.02002-.33002-.23999-.42999-.56-.29004-.94l3.61005-10.17999,2.14996-6.06,7.41998-20.92999c.75-2.12,.41003-4.47003-.90997-6.29004-1.33002-1.82001-3.46002-2.87-5.71002-2.79999l-4.62,.13-7.15997,.21002-27.64001,.78998c-.40997,.01001-.67999-.17999-.79999-.57001-.13-.39001-.02002-.70001,.31-.92999l13.52002-9.28003,5.29999-3.63995,13.69-9.40002c1.41998-.96997,2.39996-2.42999,2.77997-4.07001,.12-.5,.17999-1.01996,.17999-1.54999v-.01001c0-1.66998-.60999-3.26001-1.69-4.48999-.38-.42999-.79999-.81-1.27997-1.13l-32.54999-22.26001c-.34003-.22998-.44-.53998-.32001-.92999,.13-.39001,.39996-.58002,.79999-.57001l32.13,.86005,6.42999,.17999,.85999,.01996c2.25,.06,4.38-1,5.71002-2.82001,1.03998-1.42999,1.46002-3.19,1.21997-4.90997-.04999-.46002-.15997-.92999-.31995-1.38l-3.16003-8.85999-10.09998-28.28003c-.13-.38995-.04004-.69995,.28998-.94,.33002-.23999,.65997-.23999,.98999,.01001l31.27002,24.02002c1.77997,1.37,4.13,1.77997,6.27002,1.08002,2.13995-.70001,3.78998-2.40002,4.42999-4.57001l11.09998-37.83002c.12-.39001,.38-.59003,.78998-.59003,.41003,0,.67004,.20001,.79004,.59003Z" style="fill: #231f20;"/>
    <path d="M36.99938,80.66998l32.13,.86005,8.25,23.09998c.12,.33997,0,.59998-.10999,.76001-.12,.15997-.33002,.34998-.69,.33997l-6.23004-.16998c-.38-.42999-.79999-.81-1.27997-1.13l-32.54999-22.26001c-.34003-.22998-.44-.53998-.32001-.92999,.13-.39001,.39996-.58002,.79999-.57001Z" style="fill: #231f20;"/>
    <path d="M212.93938,80.5c.40997-.01001,.67999,.17999,.79999,.57001,.13,.39001,.02002,.70001-.31,.92999l-32.51001,22.32001c-.46997,.33002-.89996,.71002-1.26996,1.14001l-6.30005,.17999c-.35999,.01001-.56995-.17999-.67999-.34003-.09998-.13-.23999-.39996-.12-.76001l8.21002-23.12,32.17999-.91998Z" style="fill: #231f20;"/>
    <path d="M124.90935,16.65997c.41003,0,.67004,.20001,.79004,.59003l11.17999,37.81c.64001,2.15997,2.29999,3.85999,4.44,4.56,2.14001,.69,4.47998,.28003,6.26001-1.08997l31.22998-24.08002c.32001-.25,.65002-.26001,.97998-.02002,.33002,.23999,.42999,.56,.29004,.94l-10.02002,28.23999-26.14001,20.17004c-.27997,.21997-.57001,.18994-.75,.12994-.15997-.04999-.42999-.19-.53998-.54999l-11.17999-37.81c-.85999-2.92999-3.48999-4.89001-6.54999-4.89001-3.05005,0-5.67004,1.97003-6.53003,4.90002l-11.10999,37.84003c-.10004,.33997-.35004,.47998-.53003,.54999-.15997,.04999-.45996,.08997-.76001-.13l-26.09998-20.06-10.09998-28.28003c-.13-.38995-.04004-.69995,.28998-.94,.33002-.23999,.65997-.23999,.98999,.01001l31.27002,24.02002c1.77997,1.37,4.13,1.77997,6.27002,1.08002,2.13995-.70001,3.78998-2.40002,4.42999-4.57001l11.09998-37.83002c.12-.39001,.38-.59003,.78998-.59003Z" style="fill: #231f20;"/>
  </g>
</svg>