<?xml version="1.0" encoding="utf-8"?>
<!-- Generator: Adobe Illustrator 25.0.1, SVG Export Plug-In . SVG Version: 6.00 Build 0)  -->
<svg version="1.1" id="Layer_1" xmlns="http://www.w3.org/2000/svg" xmlns:xlink="http://www.w3.org/1999/xlink" x="0px" y="0px"
	 viewBox="0 0 250 250" style="enable-background:new 0 0 250 250;" xml:space="preserve">
<style type="text/css">
	.st0{fill:#FFFFFF;}
</style>
<g>
	<path class="st0" d="M248,244c-82,0-164,0-246,0C2,164.7,2,85.3,2,6c82,0,164,0,246,0C248,85.3,248,164.7,248,244z M153.7,18.9
		c-0.5,0-1,0-1.6,0c-0.4,2.3-0.8,4.5-1.1,6.8c-3,20.1-5.9,40.2-8.9,60.3c-1.8,12.1-8.8,19.9-20.2,23.7c-5.5,1.8-11.2,3.5-16.9,4.2
		c-8.9,1.1-17.9,1.3-26.9,1.9c-2.5,0.2-5,0.4-7.5,0.6c3.1,1.5,6,1.8,9,2c11.6,0.9,22.5,4.5,33.1,9.2c17.6,7.7,28,20.7,30.7,40
		c2.7,19,6,37.8,9,56.8c0.3,1.8,0.7,3.5,1,5.3c1.3-1.5,1.6-2.8,1.8-4.1c3.3-20.2,6.6-40.4,9.9-60.7c2.4-14.9,10.4-25.6,23.8-32.5
		c13.8-7.2,28.4-11.3,43.8-13.2c1.9-0.2,3.8-0.7,5.7-1.1c-3.3-1.3-6.4-1.5-9.6-1.8c-10.8-1-21.6-1.6-32.3-3.2
		c-21.7-3.3-31-12.5-34.4-34c-2.8-17.9-5-36-7.5-54C154.3,23,154,21,153.7,18.9z M42.5,113.5c0.5,0.1,1,0.1,1.4,0.2
		c1.3-7.8,3.1-15.6,3.7-23.5c1-13.3,8.1-21.3,20-25.9c2.7-1,5.4-2.1,8.1-3.2c-4.5-1.6-8.9-2-13.2-3c-8.2-1.8-13.7-6.6-15-15.3
		c-1.2-8.2-2.4-16.5-3.6-24.7c-0.2-1.7-0.6-3.3-0.9-5c-1.4,1.8-1.7,3.6-2,5.3c-1,7.1-1.8,14.2-2.9,21.3c-2.1,12.9-7.6,18-20.8,19.4
		c-2,0.2-4.1,0.4-6.1,0.7c0.6,1.3,1.3,1.8,2,2c16.5,4,25,14.5,26.1,31.6C39.8,100.2,41.4,106.8,42.5,113.5z M113.6,188
		c0.1-0.3,0.1-0.5,0.2-0.8c-4.5-0.5-9.1-0.8-13.6-1.5c-10.7-1.6-15.4-6.2-17.4-16.9c-0.8-4.3-1.4-8.5-2-12.8
		c-0.6-3.9-1-7.8-1.5-11.7c-0.4,0-0.8,0-1.2,0c-0.3,1.7-0.6,3.4-0.9,5.1c-1.1,7.6-2.2,15.2-3.3,22.7c-0.9,6-4.4,10.1-10.1,11.9
		c-4.1,1.3-8.4,1.7-12.7,2.5c-1.5,0.3-3,0.3-4.5,0.5c2.4,1.8,5,2.5,7.4,3.3c11.8,3.8,19.5,11,20.9,24c0.7,6.3,1.9,12.5,2.9,18.8
		c0.2,1.1,0.7,2.2,1.1,3.4c2.4-8.2,4-16.4,5.1-24.5c1.2-8.5,5.6-14.6,13.4-17.9C102.6,191.6,108.2,190,113.6,188z"/>
	<path d="M153.7,18.9c0.3,2.1,0.6,4.1,0.9,6.2c2.5,18,4.7,36,7.5,54c3.4,21.6,12.6,30.8,34.4,34c10.7,1.6,21.5,2.2,32.3,3.2
		c3.1,0.3,6.3,0.5,9.6,1.8c-1.9,0.4-3.8,0.9-5.7,1.1c-15.4,1.9-30,6.1-43.8,13.2c-13.4,7-21.4,17.6-23.8,32.5
		c-3.3,20.2-6.6,40.4-9.9,60.7c-0.2,1.3-0.5,2.6-1.8,4.1c-0.3-1.8-0.7-3.5-1-5.3c-3-18.9-6.4-37.8-9-56.8
		c-2.7-19.3-13.1-32.2-30.7-40c-10.6-4.7-21.5-8.2-33.1-9.2c-3-0.2-5.9-0.6-9-2c2.5-0.2,5-0.4,7.5-0.6c9-0.6,18-0.8,26.9-1.9
		c5.7-0.7,11.4-2.4,16.9-4.2c11.4-3.8,18.4-11.7,20.2-23.7c3-20.1,5.9-40.2,8.9-60.3c0.3-2.3,0.7-4.5,1.1-6.8
		C152.6,18.9,153.1,18.9,153.7,18.9z M151.6,195.1c0.6,0,1.2,0,1.8,0c0.4-6,1.1-11.9,1.1-17.9c-0.1-7.2-0.2-14.5-1.4-21.6
		c-1.1-6.3-3.4-12.5-5.6-18.6c-1.5-4.2-3.5-8.2-8.4-9.5c-6.1-1.6-12.1-3.2-18.2-4.8c4.7,4.2,10.7,6.5,13.1,13
		c-1.1-0.6-2.2-1.1-3.3-1.7c-0.3,0.4-0.7,0.8-1,1.2c1.7,1.3,3.6,2.3,4.9,3.9c7.6,9.1,14.9,18.4,15.5,31.1
		C150.4,178.5,151.1,186.8,151.6,195.1z M157.6,73.1c-2.8,17.9,2,30.1,13.8,34.2C159.3,98.7,157.8,86.1,157.6,73.1z M125.2,114.1
		c2-0.7,3.9-1.5,5.9-2.1c5-1.4,9.2-4.1,12-8.6c1.5-2.5,2.8-5-0.5-7.9C139.4,104.8,133,110.2,125.2,114.1z M143.8,92.6
		c2.3-3.3,4.6-6.6,6.9-9.9c1.5-2.2-0.1-7-2.9-8.1C146.4,80.6,145.1,86.7,143.8,92.6z M187.6,125.7c-7.1,0.6-12.2,4.3-17,10.9
		C177,132.4,182.3,129.1,187.6,125.7z"/>
	<path d="M42.5,113.5c-1.1-6.7-2.7-13.4-3.1-20.1c-1.1-17-9.6-27.5-26.1-31.6c-0.7-0.2-1.4-0.7-2-2c2-0.2,4.1-0.4,6.1-0.7
		c13.2-1.4,18.7-6.4,20.8-19.4c1.1-7.1,1.9-14.2,2.9-21.3c0.2-1.8,0.5-3.5,2-5.3c0.3,1.7,0.7,3.3,0.9,5c1.2,8.2,2.4,16.5,3.6,24.7
		c1.3,8.7,6.8,13.5,15,15.3c4.3,1,8.7,1.4,13.2,3c-2.7,1.1-5.4,2.1-8.1,3.2c-11.9,4.6-19,12.7-20,25.9c-0.6,7.9-2.4,15.6-3.7,23.5
		C43.5,113.7,43,113.6,42.5,113.5z"/>
	<path d="M113.6,188c-5.4,1.9-11,3.6-16.3,5.9c-7.8,3.3-12.2,9.4-13.4,17.9c-1.2,8.2-2.7,16.3-5.1,24.5c-0.4-1.1-0.9-2.2-1.1-3.4
		c-1-6.2-2.2-12.5-2.9-18.8c-1.3-13-9.1-20.2-20.9-24c-2.5-0.8-5-1.5-7.4-3.3c1.5-0.2,3-0.2,4.5-0.5c4.2-0.8,8.6-1.2,12.7-2.5
		c5.7-1.8,9.2-5.8,10.1-11.9c1.1-7.6,2.2-15.2,3.3-22.7c0.3-1.7,0.6-3.4,0.9-5.1c0.4,0,0.8,0,1.2,0c0.5,3.9,1,7.8,1.5,11.7
		c0.6,4.3,1.2,8.6,2,12.8c2,10.7,6.7,15.3,17.4,16.9c4.5,0.7,9.1,1,13.6,1.5C113.7,187.5,113.7,187.7,113.6,188z M78.9,215.4
		c1-8.5,4.2-18.4,14.5-23.6c-4.5-1.6-9.3-3.3-13.8-4.9c-1.9,2.6-3.8,5.5-6.2,8c-1.9,2-1.9,3.2-0.7,5.6
		C75.3,205.9,77.3,211.6,78.9,215.4z"/>
	<path class="st0" d="M151.6,195.1c-0.5-8.3-1.3-16.6-1.6-24.9c-0.5-12.7-7.8-22-15.5-31.1c-1.3-1.6-3.3-2.6-4.9-3.9
		c0.3-0.4,0.7-0.8,1-1.2c1.1,0.6,2.2,1.1,3.3,1.7c-2.4-6.5-8.4-8.8-13.1-13c6.1,1.6,12.1,3.2,18.2,4.8c4.9,1.3,6.9,5.4,8.4,9.5
		c2.2,6.1,4.6,12.3,5.6,18.6c1.2,7.1,1.3,14.4,1.4,21.6c0,6-0.7,11.9-1.1,17.9C152.8,195.1,152.2,195.1,151.6,195.1z"/>
	<path class="st0" d="M157.6,73.1c0.2,13.1,1.7,25.6,13.8,34.2C159.6,103.2,154.9,91,157.6,73.1z"/>
	<path class="st0" d="M125.2,114.1c7.9-3.9,14.3-9.3,17.3-18.6c3.3,3,2,5.5,0.5,7.9c-2.8,4.6-6.9,7.2-12,8.6
		C129.1,112.6,127.1,113.4,125.2,114.1z"/>
	<path class="st0" d="M143.8,92.6c1.3-5.9,2.6-11.9,3.9-18.1c2.8,1.1,4.4,6,2.9,8.1C148.4,86,146.1,89.3,143.8,92.6z"/>
	<path class="st0" d="M187.6,125.7c-5.3,3.4-10.5,6.8-17,10.9C175.4,129.9,180.5,126.3,187.6,125.7z"/>
	<path class="st0" d="M78.9,215.4c-1.6-3.8-3.6-9.6-6.2-14.9c-1.2-2.5-1.2-3.7,0.7-5.6c2.4-2.5,4.3-5.4,6.2-8
		c4.6,1.6,9.3,3.3,13.8,4.9C83.1,197,79.9,206.9,78.9,215.4z"/>
</g>
</svg>
