<?xml version="1.0" encoding="utf-8"?>
<!-- Generator: Adobe Illustrator 25.0.1, SVG Export Plug-In . SVG Version: 6.00 Build 0)  -->
<svg version="1.1" id="Layer_1" xmlns="http://www.w3.org/2000/svg" xmlns:xlink="http://www.w3.org/1999/xlink" x="0px" y="0px"
	 viewBox="0 0 250 250" style="enable-background:new 0 0 250 250;" xml:space="preserve">
<style type="text/css">
	.st0{fill:#FFFFFF;}
</style>
<g>
	<path d="M155,15c0.3,2.1,0.7,4.3,1,6.4c2.6,18.7,4.9,37.4,7.8,56.1c3.5,22.4,13.1,32,35.7,35.4c11.1,1.7,22.4,2.3,33.6,3.3
		c3.2,0.3,6.5,0.5,9.9,1.9c-2,0.4-4,0.9-6,1.2c-16,2-31.2,6.3-45.5,13.8c-13.9,7.2-22.2,18.3-24.7,33.8c-3.4,21-6.8,42-10.3,63.1
		c-0.2,1.3-0.5,2.7-1.8,4.2c-0.4-1.8-0.8-3.6-1.1-5.5c-3.2-19.7-6.6-39.3-9.4-59c-2.8-20-13.6-33.5-31.9-41.5
		c-11-4.8-22.3-8.5-34.4-9.5c-3.1-0.3-6.2-0.6-9.3-2.1c2.6-0.2,5.2-0.5,7.8-0.6c9.3-0.6,18.7-0.8,28-2c6-0.7,11.8-2.5,17.6-4.4
		c11.9-4,19.2-12.1,21-24.7c3.1-20.9,6.1-41.8,9.2-62.7c0.3-2.4,0.8-4.7,1.1-7C153.9,15,154.5,15,155,15z M152.9,198.1
		c0.6,0,1.2,0,1.8,0c0.4-6.2,1.1-12.4,1.1-18.6c-0.1-7.5-0.2-15.1-1.4-22.4c-1.1-6.6-3.6-13-5.9-19.3c-1.6-4.3-3.7-8.5-8.7-9.9
		c-6.3-1.7-12.6-3.3-18.9-5c4.8,4.4,11.1,6.7,13.6,13.5c-1.1-0.6-2.3-1.2-3.4-1.8c-0.4,0.4-0.7,0.8-1.1,1.3c1.7,1.3,3.8,2.4,5.1,4.1
		c7.9,9.5,15.5,19.1,16.1,32.3C151.6,180.9,152.3,189.5,152.9,198.1z M159.1,71.2c-2.9,18.6,2,31.3,14.3,35.5
		C160.9,97.8,159.3,84.8,159.1,71.2z M125.4,113.9c2-0.7,4-1.6,6.1-2.1c5.2-1.5,9.6-4.2,12.4-9c1.6-2.6,2.9-5.2-0.5-8.3
		C140.2,104.2,133.6,109.9,125.4,113.9z M190.3,125.9c-7.4,0.6-12.7,4.4-17.6,11.3C179.3,133,184.8,129.5,190.3,125.9z"/>
	<path d="M39.5,113.3c-1.1-7-2.8-13.9-3.3-20.9c-1.1-17.7-10-28.6-27.1-32.8c-0.8-0.2-1.5-0.7-2.1-2.1c2.1-0.2,4.3-0.5,6.4-0.7
		c13.8-1.5,19.4-6.7,21.6-20.1c1.2-7.3,2-14.8,3-22.1c0.2-1.8,0.5-3.6,2.1-5.5c0.3,1.7,0.7,3.4,0.9,5.2c1.3,8.6,2.5,17.1,3.7,25.7
		c1.3,9.1,7,14,15.6,15.9c4.5,1,9.1,1.4,13.8,3.1c-2.8,1.1-5.6,2.2-8.4,3.3c-12.4,4.8-19.8,13.2-20.8,27c-0.6,8.2-2.5,16.3-3.9,24.4
		C40.5,113.5,40,113.4,39.5,113.3z"/>
	<path d="M113.4,190.7c-5.7,2-11.4,3.8-17,6.1c-8.1,3.5-12.7,9.8-13.9,18.6c-1.2,8.5-2.8,16.9-5.3,25.5c-0.4-1.2-0.9-2.3-1.1-3.5
		c-1.1-6.5-2.3-13-3-19.5c-1.4-13.5-9.5-21-21.7-24.9c-2.6-0.8-5.2-1.5-7.7-3.4c1.6-0.2,3.2-0.2,4.7-0.5c4.4-0.8,8.9-1.3,13.2-2.6
		c5.9-1.8,9.6-6.1,10.5-12.3c1.2-7.9,2.3-15.8,3.5-23.6c0.3-1.8,0.6-3.5,0.9-5.3c0.4,0,0.8,0,1.3,0c0.5,4.1,1,8.1,1.6,12.1
		c0.6,4.5,1.2,8.9,2.1,13.3c2.1,11.1,6.9,15.9,18.1,17.6c4.7,0.7,9.5,1,14.2,1.6C113.5,190.2,113.4,190.4,113.4,190.7z M77.3,219.2
		c1.1-8.8,4.4-19.1,15.1-24.6c-4.7-1.7-9.6-3.4-14.4-5.1c-2,2.7-4,5.8-6.5,8.3c-2,2-2,3.3-0.7,5.9C73.6,209.3,75.7,215.2,77.3,219.2
		z"/>
	<path class="st0" d="M152.9,198.1c-0.6-8.6-1.3-17.2-1.7-25.9c-0.6-13.2-8.2-22.9-16.1-32.3c-1.4-1.6-3.4-2.7-5.1-4.1
		c0.4-0.4,0.7-0.8,1.1-1.3c1.1,0.6,2.3,1.2,3.4,1.8c-2.5-6.8-8.8-9.1-13.6-13.5c6.3,1.7,12.6,3.3,18.9,5c5.1,1.4,7.2,5.6,8.7,9.9
		c2.3,6.3,4.7,12.7,5.9,19.3c1.2,7.4,1.4,14.9,1.4,22.4c0,6.2-0.7,12.4-1.1,18.6C154.1,198.1,153.5,198.1,152.9,198.1z"/>
	<path class="st0" d="M159.1,71.2c0.2,13.6,1.8,26.6,14.3,35.5C161.2,102.6,156.3,89.8,159.1,71.2z"/>
	<path class="st0" d="M125.4,113.9c8.2-4,14.8-9.7,18-19.4c3.5,3.1,2.1,5.7,0.5,8.3c-2.9,4.7-7.2,7.5-12.4,9
		C129.5,112.4,127.4,113.2,125.4,113.9z"/>
	<path class="st0" d="M190.3,125.9c-5.5,3.5-11,7-17.6,11.3C177.6,130.4,182.9,126.5,190.3,125.9z"/>
	<path class="st0" d="M77.3,219.2c-1.6-4-3.7-9.9-6.5-15.5c-1.3-2.6-1.3-3.8,0.7-5.9c2.5-2.6,4.4-5.7,6.5-8.3
		c4.7,1.7,9.7,3.5,14.4,5.1C81.6,200.1,78.4,210.4,77.3,219.2z"/>
</g>
</svg>
