<?xml version="1.0" encoding="utf-8"?>
<!-- Generator: Adobe Illustrator 25.0.1, SVG Export Plug-In . SVG Version: 6.00 Build 0)  -->
<svg version="1.1" id="_2_Image" xmlns="http://www.w3.org/2000/svg" xmlns:xlink="http://www.w3.org/1999/xlink" x="0px" y="0px"
	 viewBox="0 0 250 250" style="enable-background:new 0 0 250 250;" xml:space="preserve">
<style type="text/css">
	.st0{fill:#FFFFFF;}
</style>
<g>
	<path d="M147.1,128.9l1.1-4.4c0-0.1,0-0.1,0-0.2c-0.4-1.2-0.7-2.5-1.1-3.7c-0.2-0.6-0.3-0.6,0.5-1.6c0.2,0.6,0.4,1.1,0.5,1.5
		c0.3,1.2,0.6,2.3,0.9,3.5c0.4,1.1,0.2,2.3-0.3,3.4c0.2,0.9,0.3,1.9,0.3,2.8c0,1.8-0.2,3.7-0.3,5.5c0,0.2-0.1,0.4-0.1,0.6
		c-0.3,1.8-0.7,3.5-0.9,5.3c-0.1,1.3-0.7,2.4-1.5,3.4c-3.1,3.5-6.7,6.4-10.8,8.6c-1.8,1-3.9,1.1-5.8,0.3c-1.2-0.5-2.4-0.6-3.7-0.5
		c-2.5,0.2-5,0.1-7.5-0.1c-2.4-0.4-4.7-1-7-1.8c-1.4-0.5-2.7-1.2-3.9-2c-1.1-0.7-2.4-1.1-3.7-1.1c-0.5,0.1-1-0.2-1.4-0.6
		c-0.2-0.3-0.5-0.5-0.8-0.8c-1.3-1.4-1.3-1.5-1.9-4.2c-0.1-0.4-0.1-0.7-0.2-1.1l1.1-0.5c0.1-1.1-0.3-2.1-1.1-2.8v2
		c-1-0.7-1.4-1.9-1-3.1c-1.1,0.1-0.9-0.6-0.9-1.2l1.9-1l0.2-0.4l-1.4-0.7l0.4-0.3c-0.1-1.3-0.2-2.6-0.4-3.8c-0.4-2-0.4-4.1,0-6.1
		c0.2-1.2,0.3-2.4,0.4-3.5c0.2-1.6,0.8-3.1,1.7-4.3c0.2-0.3,0.4-0.6,0.6-0.9c1-2.5,3.1-4.5,5.7-5.5c3.2-1.3,6.2-2.8,9.3-4.3
		c1.1-0.5,2.1-1,3-1.6c1.6-0.8,3.4-1.1,5.2-0.7c0.5,0.1,1,0.2,1.5,0.2c1.3-0.3,2.3,0.5,3.3,1c0.5,0.3,1.1,0.5,1.7,0.7
		c1.8,0.3,3.4,1.3,4.4,2.7c0.2,0.3,0.5,0.6,0.9,0.9c1.9,1.3,3.7,2.8,5.2,4.5c0.4,0.5,0.7,1.1,0.9,1.8c0.1,0.2,0.1,0.6,0.2,0.7
		c0.9,0.7,1.5,1.7,1.7,2.7c1,2.6,1.9,5.3,2.7,8c0.1,0.7,0,1.3-0.1,2c0,0.3,0.1,0.6,0.2,0.9L147.1,128.9z M115.9,112.5v0.4
		c0.8-0.1,1.7-0.2,2.5-0.2c0.5,0,1.1-0.2,1.5,0c1.2,0.7,2.7,0.3,3.8,1.3c0.1,0.1,0.3,0.1,0.4,0.1c1.4,0.1,2.9,0,3.7,1.5
		c1.7,0.4,2.6,1.9,3.9,2.8c0.8,0.5,1.9,1.1,1.7,2.4c0,0.1,0,0.2,0.1,0.3c1.1,0.6,1.4,1.8,2,2.7c0.2,0.4,0.4,0.7,0.6,1
		c1.3-0.9,1.3-1,1.8-3l-0.7,0.2l-1-1.5l1.3-0.7l-1.2-1.1c-1.5,0.1-1.5,0.1-2.2-1.4c-0.1-0.3-0.3-0.7-0.6-0.9c-0.7-0.7-1.1-2-2.4-2
		c-1-1.2-2.4-1.4-3.7-1.8c-0.2-0.1-0.5-0.2-0.7-0.3l0.1-0.2h1.9C124.6,110.4,119.9,110.6,115.9,112.5L115.9,112.5z M107.1,114.7
		l0.3-0.3c-0.2-0.5-0.4-1-0.6-1.5c-0.3-0.2-0.6-0.3-0.9-0.2c-0.4,0.1-0.7,0.4-0.8,0.8c0,0.3,0.2,0.7,0.5,0.9
		C106.1,114.5,106.6,114.6,107.1,114.7L107.1,114.7z M104.6,136.5c0-0.6,0-1.1-0.1-1.7c-0.1-0.2-0.3-0.4-0.6-0.4
		c-0.2,0.1-0.4,0.3-0.5,0.5C103.4,135.7,103.6,136.3,104.6,136.5L104.6,136.5z M121.9,105.4c0.9,0.2,1.4,0.2,1.9-0.5
		C123,104.3,122.5,104.5,121.9,105.4z M118.7,104.7l-0.2,1.5C119.5,105.7,119.4,105.4,118.7,104.7L118.7,104.7z M120.6,104.1
		l-0.3,0.4c0.1,0.1,0.3,0.2,0.5,0.3c0.1,0,0.2-0.2,0.3-0.3L120.6,104.1z M111.8,150c0.1-0.2,0.3-0.3,0.3-0.4c0-0.1-0.2-0.3-0.3-0.3
		c-0.1,0-0.2,0.1-0.3,0.3C111.5,149.8,111.6,149.9,111.8,150L111.8,150z M146.6,130.5c-0.1,0.2-0.2,0.4-0.2,0.5s0.2,0.2,0.3,0.2
		c0.1,0.1,0.1-0.2,0.1-0.2C146.8,130.8,146.7,130.6,146.6,130.5z M112,107.7v0.3l0.7,0.1v-0.2L112,107.7z M101.8,142.5
		c-0.1-0.1-0.3-0.1-0.4-0.1c0,0-0.1,0.2-0.1,0.2c0.1,0.1,0.2,0.1,0.3,0.2L101.8,142.5z M109.8,110.5c-0.1-0.1-0.2-0.1-0.3-0.1
		c-0.1,0-0.2,0.1-0.2,0.2c0,0,0.1,0.1,0.1,0.2L109.8,110.5z"/>
	<path d="M181,82l-1.4-1.2c1.1-0.8,2.2-1.5,3.2-2.2c2.8-1.8,5.6-3.5,8.4-5.3c3.6-2.3,7.1-4.7,10.8-6.8c2.3-1.3,4.8-2.5,7.1-3.8
		c1.1-0.7,2.5-0.5,3.4,0.4c2.4,2.1,4.4,4.6,5.9,7.4c1,2.1,1.9,4.2,2.6,6.4c0.7,1.8,0.4,2.3-1.2,3.4c-4.5,2.8-8.9,5.5-13.4,8.3
		c-7.5,4.6-14.9,9.3-22.3,13.9c-1.8,1.1-2.4,1.1-4.2-0.4c-3.9-3.4-6.7-7.8-8.1-12.7c-0.1-0.4-0.2-0.8-0.3-1.2
		c-0.5-1.8-0.4-2.1,1.1-3.2c0.9-0.6,1.8-1.2,2.8-1.7c0.4-0.3,1-0.4,1.5-0.4C178.4,83.2,179.5,82.4,181,82z"/>
	<path d="M139.5,21.3c1.9,0.1,3.7-0.6,5.1-1.9c0.5-0.4,1.1-0.5,1.8-0.4c4.4,0.4,8.7,1.8,12.4,4.1c1.1,0.7,1.2,0.9,0.9,2.2
		c-0.6,2.5-1.2,5-1.8,7.5c-0.8,3.4-1.6,6.8-2.4,10.2c-1.8,7.5-3.6,15-5.3,22.5c-0.9,3.8-1.7,4.5-5.6,4.4c-4.6,0-9.2-1.3-13.1-3.8
		c-1.6-1-1.9-1.7-1.6-3.5c0.7-3.3,1.3-6.6,2.1-9.8c1-4.3,2.1-8.6,3.1-12.9c1.3-5.5,2.7-11.1,4-16.6C139.1,22.7,139.3,22,139.5,21.3z
		"/>
	<path d="M77.5,29.4l4.4,7.2c5,8,9.9,16.1,14.9,24.2c1.2,2,2.5,4,3.7,6.1c1.2,2,1,3-0.5,4.7c-3.5,4.1-8.2,6.9-13.4,8.1
		c-1.8,0.4-1.9,0.4-2.9-1.3c-1.2-2-2.4-4.1-3.7-6.1c-3.4-5.5-6.9-10.9-10.3-16.4c-1.6-2.6-3.2-5.2-4.7-7.8c-0.5-0.7-0.8-1.6-0.7-2.5
		c0.1-0.9-0.3-1.8-1-2.4c-0.7-0.7-1.4-1.4-2.1-2.1c-0.7-0.7-0.9-1-0.1-1.8c3-3.8,6.9-6.7,11.4-8.5c0.3-0.1,0.6-0.2,0.9-0.3
		C74.4,29.6,76,29.2,77.5,29.4z"/>
	<path d="M24.3,92.1c0.4,0,0.8,0,1.2,0c2.8,0.7,5.6,1.4,8.4,2c2.3,0.5,4.6,1,6.9,1.6l18.1,4.4l8.1,2c1.2,0.3,2.3,1.4,2.2,2.5
		c-0.2,1.3,0.3,2.4,0.1,3.7s-0.3,2.5-0.5,3.7c-0.4,3-1.5,5.9-3.1,8.5c-0.5,1.3-2,1.9-3.3,1.4c-5.2-1.3-10.4-2.5-15.6-3.8
		c-7.1-1.7-14.3-3.3-21.5-5c-1-0.2-1.9-0.5-2.9-0.7c-1.4-0.3-2.4-1.4-2.7-2.8c-0.4-2.3-0.3-4.6,0.1-6.9c0.3-2.6,1.1-5.2,2.3-7.5
		C22.8,94.1,23.6,93.1,24.3,92.1z"/>
	<path d="M174,186.6c1.2,1.7,2.4,3.3,3.4,5.1c3.4,5.3,6.7,10.7,10,16c0.5,0.8,1,1.5,0.2,2.5l1,0.6c-0.1,0.1-0.1,0.3-0.2,0.4
		c-3.7,4.4-8.7,7.6-14.2,9.2c-0.8,0.3-1.7,0.1-2.2-0.6c-1.2-1.4-2.3-2.9-3.4-4.4c-5.9-9.2-11.8-18.5-17.6-27.8
		c-0.8-1.3-1.5-2.7-2.3-4c-0.4-0.6-0.3-1.5,0.2-2c1.3-1.8,2.9-3.3,4.7-4.6c2.9-2.2,7.7-4.7,11.7-4.5c1,1.5,2.1,3,3.1,4.6
		c1.7,2.6,3.3,5.3,4.9,7.9C173.6,185.6,173.9,186.1,174,186.6c-0.3,0.2-0.7,0.3-1,0.5c-0.4,0.1-0.6,0.6-0.5,1c0,0.1,0.1,0.1,0.1,0.2
		c0.3,0.5,0.8,0.5,1.2,0.4c0.5-0.1,0.6-0.5,0.5-1C174.2,187.2,174.1,187,174,186.6z M169.5,189.6c-0.9-0.3-1.2-1.5-2.1-1.3l1,3.8
		c0,0.1,0,0.2,0.1,0.3c0.4,0.3,0.7,0.8,1.2,0.9c0.6,0.1,0.6-0.5,0.7-1c0-1,0.4-2,1.1-2.7c0.2-0.3,0.3-0.6,0.2-1
		c-0.6-1.1-0.2-2.2,0-3.3c0.2-1.5,0.2-1.5-1.2-2.1c-0.7-0.3-0.9-0.6-0.5-1.3c0.1-0.2,0.3-0.4,0.4-0.6c-0.3-0.4-0.5-0.7-0.8-0.9
		c-0.5-0.4-1.3-0.5-1.9-0.1c-0.5,0.6-0.1,1.1,0.3,1.5c0.4,0.4,0.6,0.9,0.9,1.3c-0.1,0.2-0.3,0.3-0.5,0.5c-1.5,1.1-1.6,1.6-0.4,3.1
		c0.2,0.3,0.4,0.5,0.6,0.7C169.2,188.1,169.5,188.8,169.5,189.6z M174.4,191.5c-0.3-0.3-0.6-0.8-0.9-0.8c-0.7,0.1-1.4,0.3-2,0.6
		c-0.5,0.3-0.6,0.8-0.1,1.3c0.5,0.5,1.1,0.7,1.6,0.2L174.4,191.5z M165.6,181.4c-0.1,0.7-0.3,1.4,0.5,1.7c0.2,0,0.4,0,0.5-0.2
		c0.2-0.6,0-1.3-0.6-1.5C166,181.4,165.9,181.3,165.6,181.4L165.6,181.4z M165.5,185.5c-0.3,1-0.3,1.4,0.1,1.9
		c0.1,0.1,0.4,0.1,0.8,0.2L165.5,185.5z M166.4,177.8c0,0.9,0.2,1.4,1,1.5C167.4,178.3,167.4,178.3,166.4,177.8L166.4,177.8z
		 M172.3,197l0.3,0.2c0.6-0.6,0.6-0.6,0.4-1.3L172.3,197z M174.4,194.2c-0.1-0.1-0.2-0.1-0.4-0.1c0,0-0.1,0.2-0.1,0.2
		c0.1,0.1,0.2,0.1,0.3,0.2C174.3,194.4,174.4,194.3,174.4,194.2L174.4,194.2z M177.2,194.1c0-0.1,0-0.2-0.1-0.2c0,0-0.1,0-0.1,0
		c0,0.1,0,0.2,0,0.2L177.2,194.1z"/>
	<path d="M185.1,142.8c0.2-0.7,0.5-1.5,0.7-2.3c-0.8-0.2-1.4-0.9-2.1,0c-0.1,0.1-0.6-0.1-0.9-0.2c-0.7,0.6-0.6,1.3-0.5,2.2
		c0.1,0.6,0.1,1.1,0,1.7c-0.3,0.5-0.7,1-1.1,1.5l-0.4-1c1.5-0.8,1.6-1.1,0.6-2.3c-0.4-0.4-0.5-1.1-0.3-1.6c0.6-1.7,1.2-3.3,1.9-5
		c0.4-1,0.9-1.9,1.4-2.8c0.9-1.6,1.6-2,3.5-1.6c7.7,1.8,15.3,3.7,23,5.5c4.2,1,8.5,1.9,12.7,2.9c2.1,0.3,4.1,1,5.9,2.1
		c0.7,0.3,1.1,1,1,1.8c0,2-0.1,4.1-0.3,6.1c-0.5,3.5-1.8,6.9-3.7,9.8c-0.8,1.2-1.1,1.3-2.5,1l-20.4-4.7c-3.9-0.9-7.8-1.8-11.6-2.7
		c-0.6-0.1-1.1-0.3-1.8-0.5c0.3-1.3,0.3-2.6,1-3.8c0.3-0.7,0.5-1.4,0.5-2.1c0.1-0.5-0.1-1,0-1.4c0.6-1.8-0.4-2.9-1.6-3.9
		c-0.1-0.1-0.2-0.2-0.3-0.3c-0.7-1.1-0.7-1.1-1.5,0.2c-0.7-0.7,0.6-2.5-1.3-2.6c-0.1,0.2-0.2,0.3-0.2,0.4c0.4,1.1,0.4,2.1-0.9,2.8
		c-0.3,0.2-0.5,0.7-0.7,1L185.1,142.8z M183.4,138.6l-0.3-0.2c-0.1,0.1-0.1,0.3-0.1,0.4c0,0.1,0.1,0.3,0.2,0.4
		c0.1,0,0.4-0.1,0.4-0.1C183.5,139,183.5,138.8,183.4,138.6z M192.5,150.7l0.1-0.3c-0.2-0.1-0.4-0.1-0.5-0.2c-0.2,0-0.4,0-0.6,0.1
		v0.2L192.5,150.7z"/>
	<path d="M107.6,231c-4.7-0.3-9.4-1.6-13.6-3.9c-0.7-0.3-1.1-1-1.1-1.7c-0.3-1.9,0.4-3.6,0.7-5.4c1.1-5.5,2.2-11,3.4-16.5
		c0.4-2.2,0.7-4.4,1.4-6.5c0.5-1.8,0.6-3.6,1-5.4c0.6-2.5,1.3-4.9,2-7.3c0.3-1.3,1.5-2.3,2.8-2.3c5.6-0.4,11.2,1,15.9,4.1
		c1.1,0.5,1.6,1.7,1.2,2.9c-0.9,3.3-1.6,6.6-2.3,10c-1.3,5.9-2.7,11.9-4,17.8c-0.8,3.5-1.6,7-2.3,10.4c-0.1,0.6-0.3,1.1-0.5,1.7
		c-0.3,1-0.6,1.9-2,1.6C109.3,230.6,108.5,230.8,107.6,231z M110.4,188c-0.6-1.2-0.6-1.2-3.2-2.2c0-0.1,0-0.3,0-0.4
		c-0.1-0.3-0.1-0.8-0.3-0.9c-0.5-0.2-0.8,0.1-0.9,0.5c-0.1,0.4-0.2,1.1-0.3,1.7l-0.8,0.1v1.8l-1.6-0.5l-0.5,4.3l2.4,1.3
		c-0.1,0.8-0.4,1.1-1.2,1c-0.7,0-1.3,0-2,0c0.1,0.3,0.3,0.5,0.5,0.8c0.8,0.7,1.4,1.5,2,2.4c0.8,1.2,2.3,1.7,3.6,1.1
		c1-0.6,2.2-0.5,3.1,0.2c0.4,0.4,1,0.4,1.3,0c0.1-0.1,0.1-0.1,0.2-0.2c0.3-0.5,0.1-1.2-0.4-1.5c-0.9-0.9-1.3-2.2-1-3.5
		c0.3-0.7,1-1.1,1.7-1c0.4,0,0.8,0.1,1.2,0.2c0.2-0.8-0.3-1.6-1.1-1.8c-0.9-0.3-1.9-0.6-2.8-0.9c-0.5-0.1-0.8-0.5-0.8-1
		c0-0.1,0-0.1,0-0.2C109.8,188.8,110.1,188.4,110.4,188z M113,197c0.4-0.7,0.7-1.4,0.9-2.2c0.1-0.3-0.3-0.7-0.6-0.9
		c-0.3,0-0.6,0.1-0.9,0.4C112.5,195.1,112.1,196,113,197z M106.6,199.4c-0.1,1.2-0.1,1.2,0.4,1.5c0.5,0.2,0.9,0.3,1.4,0.4
		c0.1,0,0.3-0.3,0.3-0.5c0-0.2-0.1-0.5-0.3-0.6C108,199.9,107.3,199.7,106.6,199.4L106.6,199.4z M112.1,200.4
		c-0.4-0.9-0.9-1-1.5-0.6c-0.5,0.2-0.7,0.7-0.5,1.1c0,0.1,0.1,0.2,0.2,0.3L112.1,200.4z M112.8,186.1c-0.3,0.3-0.5,0.6-0.7,0.9
		c0,0.1,0.3,0.3,0.4,0.5c0.3-0.2,0.5-0.4,0.7-0.6C113.3,186.7,113,186.4,112.8,186.1z M100.7,191.8l-0.4,0.5
		c0.3,0.2,0.5,0.4,0.8,0.6c0.1-0.1,0.2-0.2,0.3-0.4C101.2,192.2,101,192,100.7,191.8z M110.9,184.3l-0.1-0.4c-0.6-0.1-0.9,0.1-1.2,1
		L110.9,184.3z M103.7,184.7c-0.1-0.1-0.3-0.1-0.4-0.1c0,0-0.1,0.1-0.1,0.2c0.1,0.1,0.2,0.1,0.4,0.2
		C103.5,184.9,103.6,184.8,103.7,184.7L103.7,184.7z M113.8,201.2l0.3-0.1c0-0.1-0.1-0.2-0.2-0.3c0,0-0.2,0.1-0.2,0.1
		C113.7,201,113.8,201.1,113.8,201.2L113.8,201.2z M110.1,203.3c0.1-0.1,0.2-0.3,0.1-0.3c-0.1-0.1-0.2-0.2-0.3-0.2
		c0,0.1-0.1,0.2-0.1,0.2C109.9,203.2,110,203.3,110.1,203.3L110.1,203.3z"/>
	<path d="M36.5,170c1.7-1.1,3.3-2.2,5-3.3c4.8-3.1,9.7-6.1,14.5-9.2c1.3-0.8,2.7-1.4,4-2.2c1.3-0.8,2.3-1.6,3.4-2.4
		c1.1-0.8,1.9-1.5,3-2.1c0.7-0.5,1.6-1,2.4-0.2c0.1,0.1,0.2,0.1,0.3,0.1c1.5-0.3,2.3,0.8,3.2,1.7c1.8,1.8,3.4,3.9,4.6,6.2
		c0.1,0.2,0.2,0.5,0.3,0.8c-1.3-0.4-2.5-0.7-3.2-1.8c-0.2-0.2-0.6-0.2-1.2-0.4c0.2,1-0.4,1.3-1.1,1.7c-0.6,0.5-1.4,0.4-1.9-0.2
		c0,0-0.1-0.1-0.1-0.1c-0.4,0.4-0.8,0.7-1.3,1c-0.5,0.2-0.9,0.4-1.4,0.5l0.9,1.3l-1.1,1.8l-1.1-0.7c-0.7,0.3-1,0.9-0.6,1.5
		c0.5,1.2,1.7,2,3,2c0,1.2,0.8,2.2,1.9,2.6c0.4,0.2,0.7,0.8,0.9,1.2c0.4,0.7,0.7,1.5,1.9,1v0.4c-1.5,1-3,2-4.6,2.9
		c-7.9,4.9-15.8,9.9-23.8,14.8c-2.9,1.8-2.2,2-5-0.5c-1.6-1.3-3-3-4-4.8c-0.7-1.3-1.7-2.4-2.4-3.7c-0.7-1.1-1.1-2.4-1.1-3.7
		c0-0.6,0.3-1.2,0.9-1.5c0.5-0.3,1-0.6,1.5-0.8c1.1-0.3,2.1-0.9,2.8-1.9C38.1,171.1,38,170.6,36.5,170L36.5,170z"/>
	<path d="M97.4,115.9c-1-3.4-0.1-7,2.3-9.6c1.7-1.9,3.2-4.1,5.6-5.3c2.4-1.2,4.7-2.6,7.3-3.2c1.8-0.4,3.6-1,5.5-1.5
		c0.7-0.4,1.6-0.3,2.2,0.3c0.5,0.3,1.1,0.4,1.6,0.3c2.2-0.2,4.3,0.6,5.8,2.2c-1,0.1-2,0.3-3,0.5c-1.7,0.5-3.3,1.2-4.9,2.1
		c-1.8,1-3.6,1.9-5.5,2.7c-2.8,1.3-5.5,2.5-8.3,3.8c-1,0.5-2,1-3.2,0.1c-0.1,0.5-0.3,0.7-0.2,0.9c0.2,0.5,0,1-0.4,1.2
		c-0.6,0.5-1.2,1.1-1.9,1.7C99,112.9,98,114.3,97.4,115.9z M104.6,106.3l2.3-0.1c0.3-0.4,0.6-0.7,0.9-1c1.5-1.2,3.4-1.8,5-2.8
		c0.2-0.1,0.5,0,0.8-0.1c1.2-0.5,2.5-1,3.7-1.5c-1-0.5-2.2,0.1-3.2-1.1l2.1-0.3c0.3-0.4,0.6-1,0.9-1c1.7,0.1,3.5-0.7,5,0.6
		c0,0,0.2-0.1,0.3-0.1c-0.2-1-1-1.7-2-1.6c-0.4,0-0.7-0.3-1-0.3c-0.6,0-1.2,0.1-1.8,0.2c0.2,1.1-0.6,0.7-1.1,0.7
		c-2.3,0.3-4.6,1-6.7,2.1c-2.2,0.8-4.1,2.1-5.7,3.8c-0.3,0.3-0.7,0.6-1.1,0.9c-1.9,1.5-3.2,3.7-3.4,6.1c1.7-1.2,2-3.1,3.3-4.2
		C104,107,104,107,104.6,106.3L104.6,106.3z"/>
	<path d="M190.9,146.8c-0.2-1-0.4-2-0.7-3.1c0.2,0,0.4,0,0.5,0.1C191.2,144.7,191.3,145.8,190.9,146.8z"/>
	<path d="M96.7,118l-0.4,1.9C95.2,119.4,95.2,119.3,96.7,118z"/>
	<path d="M36.5,170l-1.9,1.3l0,0L36.5,170z"/>
	<path d="M34.6,171.2l-1.4,1.2l-0.2-0.4L34.6,171.2L34.6,171.2z"/>
	<path class="st0" d="M115.9,112.5c4.1-1.9,8.7-2.1,13-0.5h-1.9l-0.1,0.2c0.2,0.1,0.5,0.2,0.7,0.3c1.3,0.4,2.8,0.6,3.7,1.8
		c1.3,0.1,1.6,1.3,2.4,2c0.2,0.3,0.4,0.6,0.6,0.9c0.6,1.5,0.6,1.5,2.2,1.4l1.2,1.1l-1.3,0.7l1,1.5l0.7-0.2c-0.4,2-0.4,2.1-1.8,3
		c-0.2-0.3-0.4-0.6-0.6-1c-0.6-1-0.9-2.1-2-2.7c-0.1-0.1-0.1-0.2-0.1-0.3c0.2-1.3-0.8-1.9-1.7-2.4c-1.4-0.9-2.2-2.4-3.9-2.8
		c-0.8-1.5-2.3-1.4-3.7-1.5c-0.2,0-0.3,0-0.4-0.1c-1.1-1-2.6-0.6-3.8-1.3c-0.4-0.2-1,0-1.5,0c-0.8,0.1-1.6,0.1-2.5,0.2L115.9,112.5z
		"/>
	<path class="st0" d="M107.2,114.7c-0.5-0.1-1.1-0.2-1.6-0.4c-0.3-0.2-0.5-0.5-0.5-0.9c0.2-0.4,0.4-0.7,0.8-0.8
		c0.3-0.1,0.7,0,0.9,0.2c0.3,0.5,0.5,1,0.6,1.5L107.2,114.7z"/>
	<path class="st0" d="M104.7,136.6c-1.1-0.3-1.2-0.9-1.1-1.6c0.1-0.2,0.2-0.4,0.5-0.5c0.2,0,0.5,0.2,0.6,0.4
		C104.7,135.5,104.7,136.1,104.7,136.6z"/>
	<path class="st0" d="M121.9,105.4c0.6-0.9,1.1-1.1,1.9-0.5C123.3,105.6,122.7,105.6,121.9,105.4z"/>
	<path class="st0" d="M118.7,104.7c0.7,0.7,0.8,1.1-0.2,1.5L118.7,104.7z"/>
	<path class="st0" d="M120.6,104.2l0.5,0.4c-0.1,0.1-0.2,0.3-0.3,0.3c-0.2-0.1-0.3-0.2-0.5-0.3L120.6,104.2z"/>
	<path class="st0" d="M111.8,150c-0.1-0.2-0.3-0.3-0.3-0.4c0.1-0.1,0.2-0.2,0.3-0.3c0.1,0,0.3,0.2,0.3,0.3
		C112,149.8,111.9,149.9,111.8,150z"/>
	<path class="st0" d="M146.6,130.5c0.1,0.1,0.2,0.3,0.2,0.4c0,0.1-0.1,0.2-0.1,0.2c0,0.1-0.3-0.1-0.3-0.2
		C146.4,130.9,146.5,130.7,146.6,130.5z"/>
	<path class="st0" d="M112,107.7l0.7,0.1v0.2l-0.7-0.1V107.7z"/>
	<path class="st0" d="M101.8,142.5l-0.1,0.3c-0.1-0.1-0.2-0.1-0.3-0.2c0,0,0.1-0.2,0.1-0.2C101.6,142.5,101.7,142.5,101.8,142.5z"/>
	<path class="st0" d="M109.8,110.5l-0.3,0.3c-0.1-0.1-0.2-0.2-0.1-0.2c0-0.1,0.1-0.2,0.2-0.2C109.6,110.3,109.7,110.4,109.8,110.5z"
		/>
	<path class="st0" d="M169.5,189.6c0-0.8-0.3-1.5-0.8-2.1c-0.2-0.2-0.4-0.4-0.6-0.7c-1.2-1.5-1.1-2,0.4-3.1c0.2-0.1,0.3-0.3,0.5-0.5
		c-0.3-0.4-0.6-0.9-0.9-1.3s-0.8-0.9-0.3-1.5c0.6-0.4,1.3-0.4,1.9,0.1c0.3,0.3,0.5,0.6,0.8,0.9c-0.2,0.2-0.3,0.4-0.4,0.6
		c-0.4,0.8-0.2,1,0.5,1.3c1.4,0.6,1.3,0.6,1.2,2.1c-0.1,1.1-0.5,2.2,0,3.3c0.1,0.3,0,0.7-0.2,1c-0.7,0.7-1.1,1.7-1.1,2.7
		c0,0.5-0.1,1.1-0.7,1c-0.4-0.1-0.8-0.6-1.2-0.9c-0.1-0.1,0-0.2-0.1-0.3l-1-3.8C168.2,188,168.5,189.2,169.5,189.6z"/>
	<path class="st0" d="M174.4,191.5l-1.4,1.4c-0.5,0.5-1,0.5-1.6-0.2c-0.6-0.6-0.4-1,0.1-1.3c0.6-0.3,1.3-0.5,2-0.6
		C173.8,190.7,174.1,191.2,174.4,191.5z"/>
	<path class="st0" d="M174,186.6c0.1,0.4,0.1,0.7,0.2,1.1s0,0.8-0.5,1c-0.5,0.1-1,0.2-1.2-0.4c-0.2-0.4-0.2-0.8,0.2-1.1
		c0.1,0,0.1-0.1,0.2-0.1C173.3,187,173.7,186.9,174,186.6L174,186.6z"/>
	<path class="st0" d="M165.6,181.3c0.3,0,0.4,0,0.4,0c0.6,0.3,0.9,0.9,0.6,1.5c-0.1,0.1-0.3,0.2-0.5,0.2
		C165.3,182.7,165.5,182,165.6,181.3z"/>
	<path class="st0" d="M165.5,185.4l0.9,2.1c-0.4-0.1-0.7-0.1-0.8-0.2C165.1,186.8,165.1,186.4,165.5,185.4z"/>
	<path class="st0" d="M166.4,177.7c1,0.6,1,0.6,1,1.5C166.6,179.1,166.4,178.6,166.4,177.7z"/>
	<path class="st0" d="M172.3,196.9l0.7-1.2c0.2,0.8,0.2,0.8-0.4,1.3L172.3,196.9z"/>
	<path class="st0" d="M174.4,194.1c0,0.1-0.1,0.2-0.1,0.3c-0.1,0-0.2-0.1-0.3-0.2c0,0,0.1-0.2,0.1-0.2
		C174.2,194,174.3,194.1,174.4,194.1z"/>
	<path class="st0" d="M177.2,194h-0.3c0-0.1,0-0.2,0-0.2c0,0,0.1,0,0.1,0C177.1,193.9,177.1,194,177.2,194z"/>
	<path class="st0" d="M183.4,138.6c0.1,0.2,0.1,0.4,0.1,0.5c0,0-0.3,0.2-0.4,0.1c-0.1-0.1-0.2-0.2-0.2-0.4c0-0.1,0-0.3,0.1-0.4
		L183.4,138.6z"/>
	<path class="st0" d="M192.5,150.7l-1-0.1v-0.2c0.2-0.1,0.4-0.1,0.6-0.1c0.2,0,0.4,0.1,0.5,0.2L192.5,150.7z"/>
	<path class="st0" d="M110.4,188c-0.3,0.4-0.5,0.8-0.7,1.3c-0.2,0.5,0.1,1,0.6,1.1c0.1,0,0.1,0,0.2,0c0.9,0.3,1.9,0.6,2.8,0.9
		c0.8,0.2,1.3,1,1.1,1.8c-0.5-0.1-0.9-0.2-1.2-0.2c-0.8-0.1-1.5,0.3-1.8,1c-0.3,1.3,0.1,2.6,1,3.5c0.5,0.3,0.7,1,0.4,1.5
		c-0.3,0.5-0.8,0.6-1.3,0.3c-0.1,0-0.1-0.1-0.2-0.2c-0.9-0.7-2.1-0.8-3.1-0.2c-1.3,0.6-2.9,0.1-3.6-1.1c-0.6-0.9-1.3-1.6-2-2.4
		c-0.2-0.2-0.3-0.5-0.5-0.8c0.7,0,1.3,0,2,0c0.8,0.1,1.2-0.2,1.2-1l-2.4-1.3l0.5-4.3l1.6,0.5v-1.9l0.8-0.1c0.1-0.6,0.1-1.1,0.3-1.7
		c0.1-0.6,0.5-0.8,0.9-0.5c0.2,0.1,0.2,0.6,0.3,0.9c0,0.1,0,0.3,0,0.4C109.8,186.7,109.8,186.7,110.4,188z M105.2,197.1
		c0.2-0.2,0.3-0.4,0.3-0.4c-0.1-0.2-0.2-0.3-0.3-0.5c-0.1,0.1-0.3,0.3-0.4,0.4S105.1,196.9,105.2,197.1z"/>
	<path class="st0" d="M113,197c-0.8-1-0.4-1.9-0.5-2.7c0.2-0.2,0.5-0.4,0.9-0.4c0.3,0.1,0.7,0.6,0.6,0.9
		C113.7,195.6,113.4,196.3,113,197z"/>
	<path class="st0" d="M106.6,199.4c0.7,0.3,1.3,0.5,1.8,0.8c0.2,0.2,0.3,0.4,0.3,0.6c0,0.1-0.2,0.5-0.3,0.5c-0.5-0.1-1-0.2-1.4-0.4
		C106.5,200.6,106.5,200.6,106.6,199.4z"/>
	<path class="st0" d="M112.1,200.4l-1.8,0.9c-0.4-0.3-0.4-0.9,0-1.3c0.1-0.1,0.2-0.2,0.3-0.2C111.3,199.5,111.8,199.6,112.1,200.4z"
		/>
	<path class="st0" d="M112.8,186.1c0.2,0.4,0.5,0.6,0.4,0.7c-0.2,0.2-0.4,0.5-0.7,0.6c-0.1-0.2-0.4-0.4-0.4-0.5
		C112.3,186.6,112.6,186.3,112.8,186.1z"/>
	<path class="st0" d="M100.7,191.8c0.3,0.2,0.5,0.4,0.7,0.7c-0.1,0.1-0.2,0.3-0.3,0.4c-0.3-0.2-0.6-0.4-0.8-0.6L100.7,191.8z"/>
	<path class="st0" d="M110.9,184.3l-1.3,0.6c0.3-0.9,0.7-1.1,1.2-1L110.9,184.3z"/>
	<path class="st0" d="M103.7,184.7c-0.1,0.1-0.1,0.3-0.2,0.3c-0.1,0-0.2-0.1-0.4-0.2c0-0.1,0.1-0.2,0.1-0.2
		C103.4,184.6,103.6,184.7,103.7,184.7z"/>
	<path class="st0" d="M113.8,201.2c-0.1-0.1-0.1-0.3-0.1-0.4c0,0,0.2-0.1,0.2-0.1c0.1,0.1,0.1,0.2,0.2,0.3L113.8,201.2z"/>
	<path class="st0" d="M110.2,203.3c-0.1-0.1-0.2-0.2-0.3-0.3c0,0,0.1-0.2,0.1-0.2c0.1,0.1,0.2,0.2,0.3,0.2
		C110.3,203.1,110.2,203.2,110.2,203.3z"/>
	<path class="st0" d="M104.6,106.3c-0.5,0.8-0.5,0.8-1.8,0.4c-1.3,1.1-1.7,3-3.3,4.2c0.2-2.4,1.4-4.6,3.4-6.1
		c0.4-0.3,0.8-0.5,1.1-0.9c1.6-1.7,3.5-3,5.7-3.8c2.1-1.1,4.4-1.8,6.7-2.1c0.4,0,1.3,0.4,1.1-0.7c0.6-0.1,1.2-0.2,1.8-0.2
		c0.3,0,0.7,0.3,1,0.3c1-0.1,1.9,0.6,2,1.6c-0.1,0-0.2,0.2-0.3,0.1c-1.5-1.3-3.3-0.5-5-0.6c-0.3,0-0.6,0.6-0.9,1l-2.1,0.3
		c1,1.2,2.2,0.6,3.2,1.1c-1.2,0.5-2.4,1-3.7,1.5c-0.2,0.1-0.6,0-0.8,0.1c-1.6,1-3.5,1.6-5,2.8c-0.3,0.3-0.6,0.6-0.9,1L104.6,106.3
		l0.5-1.2C104.3,105.5,103.8,105.8,104.6,106.3z M111.8,100.9c-0.8,0.6-2.3-0.3-3,1.2C110,101.8,111.1,102.1,111.8,100.9z"/>
	<path d="M105.2,197.1c-0.2-0.2-0.4-0.4-0.4-0.5c0-0.1,0.2-0.3,0.4-0.4c0.1,0.1,0.2,0.3,0.3,0.5
		C105.6,196.8,105.4,196.9,105.2,197.1z"/>
	<path d="M111.8,100.9c-0.6,1.2-1.8,0.9-3,1.2C109.5,100.6,110.9,101.5,111.8,100.9z"/>
	<path d="M104.6,106.3c-0.8-0.5-0.3-0.8,0.4-1.3L104.6,106.3L104.6,106.3z"/>
</g>
</svg>
