<?xml version="1.0" encoding="utf-8"?>
<!-- Generator: Adobe Illustrator 25.0.1, SVG Export Plug-In . SVG Version: 6.00 Build 0)  -->
<svg version="1.1" id="Layer_1" xmlns="http://www.w3.org/2000/svg" xmlns:xlink="http://www.w3.org/1999/xlink" x="0px" y="0px"
	 viewBox="0 0 250 250" style="enable-background:new 0 0 250 250;" xml:space="preserve">
<g>
	<path d="M3.7,90V128h127.7L3.7,90z M8.7,96.7L97,123H8.7V96.7z"/>
</g>
<g>
	<polygon points="93.3,19.4 123.6,8.9 128.5,121.4 	"/>
	<path d="M129.2,124.9L92.7,19l31.4-10.8L129.2,124.9z M93.9,19.7l33.9,98.4L123.1,9.6L93.9,19.7z"/>
</g>
<g>
	<polygon points="184.8,225.7 157,241.8 130.6,132.3 	"/>
	<path d="M156.7,242.5l-0.2-0.7L129.3,129l56.2,96.8L156.7,242.5z M131.9,135.5L157.4,241l26.7-15.5L131.9,135.5z"/>
</g>
<g>
	<polygon points="205.9,41.1 230.2,62 135.5,123 	"/>
	<path d="M132.9,125.3l73-84.9L231,62.1L132.9,125.3z M205.9,41.8l-67.8,78.9L229.3,62L205.9,41.8z"/>
</g>
<g>
	<polygon points="56.2,216.3 31.2,196.1 124,132.3 	"/>
	<path d="M56.2,217l-25.9-20.9l96.2-66.2L56.2,217z M32.1,196.2l24,19.4l65.4-80.9L32.1,196.2z"/>
</g>
<g>
	<polygon points="244.9,138.9 242,170.9 137.4,129.1 	"/>
	<path d="M242.4,171.6l-0.6-0.2l-107.8-43l111.5,10.2L242.4,171.6z M140.7,129.9l100.8,40.2l2.8-30.8L140.7,129.9z"/>
</g>
</svg>
