<svg id="Layer_1" data-name="Layer 1" xmlns="http://www.w3.org/2000/svg" viewBox="0 0 244.28 235.07"><g id="HWWORG.tif-4"><g id="Layer_1-5" data-name="Layer 1-5"><path d="M112.67,45.31,115,47.74c2.69-8,5.37-15.91,8.17-24.22l-4.88,0,.42-3.39-4.67,1.73,2.79-4.63.76-.62-3.48-2.15c-.52-1.05-.83-2.74-3.56-2.54-.85.06-1.73-.56-2.62-.74-2.07-.41-2.25-1.74-1-2.85a7.57,7.57,0,0,1,4.54-2c1.34,0,2.72,1.48,3.92,2.48.22.19-.31,1.28-.49,2l2,.77,1.32-3.14c1.59-.38,3.29-.84,4.53,1.29.29.51,1.12.79,1.77,1,5.44,1.87,8.07,6.5,10.28,11.21,1.46,3.13,2.1,6.68,2.85,10.1a3.17,3.17,0,0,0,3.05,2.81c.91.15,2.23.83,2.45,1.55.35,1.13.39,2.87-.26,3.68a3,3,0,0,0-.41,3.9,84.44,84.44,0,0,1,3.52,7.9c.39,1,.87,2.52.42,3.14-1.44,1.94-.81,3.6-.26,5.6,1.19,4.3-1.45,7.84-3.13,11.34-2.52,5.23-5.9,10-8.68,15.16-1.18,2.18-2.48,3.79-4.35,3.83-.73,9-1.45,17.71-2.15,26.27-.94-1.93-1.7-4.32-3.12-6.21-3.52-4.7-6.49-9.66-7.69-15.42-1-4.75-1.49-9.59-2.22-14.39-.18-1.19-.44-2.37-.6-3.57-1-7.49-.39-15-.22-22.48C114.17,52.06,113.24,49,112.67,45.31Z"/></g></g><g id="HWWORG.tif-4-2" data-name="HWWORG.tif-4"><g id="Layer_1-5-2" data-name="Layer 1-5"><path d="M183.64,68.68l-1,3.25,25.14-4.68L205.4,63l3.17-1.29-3.79-3.23,5.4.17.92.36.18-4.08c.66-1,2-2.07.48-4.35-.47-.71-.36-1.78-.64-2.65-.64-2,.43-2.81,2-2.21a7.53,7.53,0,0,1,4,3c.63,1.19,0,3.09-.25,4.63,0,.29-1.26.36-1.95.53l.31,2.13,3.39-.38c1.11,1.2,2.33,2.46,1.07,4.58a3.37,3.37,0,0,0,0,2c1,5.66-1.74,10.21-4.77,14.44-2,2.81-4.81,5.1-7.43,7.42a3.17,3.17,0,0,0-1,4c.32.87.37,2.35-.15,2.9-.81.85-2.31,1.73-3.35,1.56a3,3,0,0,0-3.6,1.55,84.65,84.65,0,0,1-5.17,6.92c-.67.82-1.78,2-2.54,1.9-2.4-.31-3.54,1.06-5,2.51-3.19,3.13-7.56,2.56-11.44,2.79-5.79.35-11.64-.25-17.46-.18-2.48,0-4.53-.32-5.47-1.93l-24,10.94c1.22-1.76,2.94-3.6,3.9-5.76,2.39-5.36,5.27-10.37,9.71-14.23,3.66-3.18,7.65-6,11.48-9,1-.74,1.86-1.54,2.82-2.26,6.05-4.53,12.89-7.64,19.53-11.16C178.48,73.27,180.71,71,183.64,68.68Z"/></g></g><g id="HWWORG.tif-4-3" data-name="HWWORG.tif-4"><g id="Layer_1-5-3" data-name="Layer 1-5"><path d="M192.08,154.67l-3.39.12,12.46,22.32,3.26-3.64,2.23,2.6,1.85-4.63,1.56,5.18-.05,1,3.93-1.13c1.13.31,2.59,1.22,4.27-.94.53-.67,1.58-.91,2.31-1.45,1.7-1.25,2.8-.49,2.75,1.22a7.61,7.61,0,0,1-1.54,4.72c-.94,1-2.92,1-4.48,1.24-.28,0-.74-1.08-1.12-1.68l-1.91,1,1.43,3.09c-.78,1.43-1.59,3-4,2.48a3.33,3.33,0,0,0-1.93.63c-5,2.78-10.24,1.62-15.21.09-3.31-1-6.37-2.92-9.4-4.67a3.19,3.19,0,0,0-4.14.38c-.72.57-2.1,1.1-2.78.78-1.08-.5-2.39-1.64-2.56-2.68a3,3,0,0,0-2.62-2.91c-2.78-.74-5.51-1.69-8.21-2.7-1-.37-2.46-1.05-2.61-1.8-.47-2.37-2.13-3-4-3.95-4-2-4.84-6.34-6.3-9.94-2.19-5.38-3.48-11.11-5.4-16.6-.83-2.35-1.15-4.4.07-5.81l-18-19.22c2.06.59,4.35,1.63,6.7,1.85,5.85.55,11.52,1.68,16.59,4.66,4.19,2.45,8.11,5.33,12.16,8,1,.66,2.05,1.26,3,1.94,6.22,4.29,11.36,9.78,16.81,15C186.07,151.24,189,152.62,192.08,154.67Z"/></g></g><g id="HWWORG.tif-4-4" data-name="HWWORG.tif-4"><g id="Layer_1-5-4" data-name="Layer 1-5"><path d="M126.84,190.52l-1.75-2.91c-4.43,7.14-8.85,14.27-13.48,21.72l4.76,1.09-1.18,3.21,4.94-.63-3.77,3.88-.88.43,2.89,2.89c.27,1.14.19,2.86,2.89,3.28.84.14,1.56.94,2.39,1.32,1.92.87,1.79,2.21.27,3a7.53,7.53,0,0,1-4.88.94c-1.3-.34-2.31-2-3.26-3.31-.17-.23.59-1.17.93-1.79l-1.78-1.21-2,2.76c-1.63,0-3.39.06-4.11-2.3-.17-.56-.92-1-1.49-1.38-4.87-3.06-6.38-8.17-7.46-13.26-.71-3.38-.52-7-.47-10.49a3.18,3.18,0,0,0-2.33-3.43c-.85-.35-2-1.31-2-2.06-.08-1.18.28-2.88,1.1-3.53a3,3,0,0,0,1.29-3.7c-.71-2.79-1.2-5.64-1.63-8.49-.15-1-.27-2.66.31-3.16,1.85-1.56,1.61-3.32,1.53-5.39-.18-4.46,3.2-7.31,5.63-10.33,3.65-4.52,8-8.43,11.91-12.78,1.65-1.85,3.28-3.13,5.11-2.74q4.14-12.84,8.08-25.09c.48,2.1.67,4.6,1.62,6.77,2.36,5.37,4.12,10.88,4,16.76-.12,4.85-.74,9.68-1.12,14.52-.1,1.2-.11,2.41-.23,3.61-.73,7.52-3,14.67-4.92,21.94C126.92,183.61,127.12,186.81,126.84,190.52Z"/></g></g><g id="HWWORG.tif-4-5" data-name="HWWORG.tif-4"><g id="Layer_1-5-5" data-name="Layer 1-5"><path d="M67.66,159.75,69,156.62l-25.48,2,1.94,4.49-3.29.94,3.43,3.61-5.36-.74-.87-.46-.61,4.05c-.76.89-2.2,1.84-.94,4.27.39.76.17,1.81.35,2.7.43,2.06-.72,2.75-2.25,2a7.56,7.56,0,0,1-3.64-3.38c-.5-1.25.28-3.08.74-4.58.08-.28,1.29-.22,2-.31L34.89,169h-3.4c-1-1.31-2.06-2.7-.58-4.67a3.35,3.35,0,0,0,.22-2c-.41-5.74,2.81-10,6.28-13.86,2.3-2.58,5.32-4.56,8.17-6.59A3.18,3.18,0,0,0,47,138c-.22-.9-.12-2.37.45-2.86.91-.77,2.49-1.48,3.5-1.2a3,3,0,0,0,3.75-1.16c1.83-2.22,3.83-4.31,5.87-6.34.76-.74,2-1.79,2.73-1.61,2.35.56,3.63-.68,5.25-2,3.49-2.78,7.78-1.74,11.66-1.57,5.8.27,11.55,1.49,17.35,2,2.47.24,4.47.8,5.24,2.5l25-8.34c-1.4,1.63-3.3,3.26-4.48,5.31-2.94,5.08-6.33,9.76-11.16,13.13-4,2.78-8.24,5.14-12.37,7.69-1,.63-2,1.34-3,1.95-6.5,3.87-13.63,6.24-20.6,9C73.28,155.72,70.82,157.78,67.66,159.75Z"/></g></g><g id="HWWORG.tif-4-6" data-name="HWWORG.tif-4"><g id="Layer_1-5-6" data-name="Layer 1-5"><path d="M56.77,98.07l3.24-1L42.19,78.75,40,83.11l-2.83-1.93-.58,4.95-2.85-4.6-.21-1L30,82.69c-1.17,0-2.82-.51-3.89,2-.33.78-1.28,1.28-1.85,2-1.31,1.65-2.58,1.2-3-.47a7.6,7.6,0,0,1,.27-5c.65-1.18,2.55-1.74,4-2.36.26-.11,1,.86,1.51,1.34l1.6-1.45-2.19-2.61c.39-1.58.76-3.3,3.22-3.43.59,0,1.21-.65,1.7-1.12,4.15-4,9.47-4.21,14.67-4,3.45.12,6.91,1.18,10.29,2.07a3.16,3.16,0,0,0,3.89-1.43c.55-.74,1.75-1.61,2.5-1.48,1.16.21,2.73,1,3.15,1.92a3,3,0,0,0,3.29,2.14,85.88,85.88,0,0,1,8.63.47c1,.1,2.65.38,3,1.06,1.07,2.17,2.84,2.36,4.86,2.78,4.38.91,6.32,4.87,8.67,8,3.5,4.63,6.24,9.83,9.52,14.64,1.4,2,2.25,3.94,1.43,5.62l22.4,13.89c-2.15,0-4.63-.45-7-.05-5.78,1-11.55,1.37-17.23-.19-4.67-1.28-9.21-3-13.82-4.6-1.14-.38-2.31-.68-3.44-1.08-7.13-2.53-13.51-6.5-20.11-10.07C63.46,99.82,60.3,99.24,56.77,98.07Z"/></g></g></svg>