<svg id="Layer_1" data-name="Layer 1" xmlns="http://www.w3.org/2000/svg" viewBox="0 0 250 250"><path d="M6.51,112.44c0,13.35,16.11,14,16.11,14S97.3,113,124,113C97.3,113,22.62,98.93,22.62,98.93S6.51,99.09,6.51,112.44Z"/><path d="M125,229.94c13.35,0,14-16.11,14-16.11S125,139.7,125,113c0,26.7-13.51,100.83-13.51,100.83S111.65,229.94,125,229.94Z"/><path d="M232.5,227.73c-2-13.21-18-11.48-18-11.48s-71.78,24.93-98.19,28.89c26.41-4,102.27-1.66,102.27-1.66S234.48,240.93,232.5,227.73Z"/><path d="M33.93,188.13c8.55,10.26,21.35.45,21.35.45S104.49,130.1,125,113c-20.51,17.1-87.36,54.44-87.36,54.44S25.38,177.88,33.93,188.13Z"/><path d="M64.65,127.76c-12.82,3.73-9,19.39-9,19.39S90,214.94,97.48,240.58C90,214.94,82.13,139.45,82.13,139.45S77.47,124,64.65,127.76Z"/><path d="M52.15,236.37c5.27,12.26,20.33,6.52,20.33,6.52s63.1-42.34,87.63-52.87c-24.53,10.53-98.49,27.57-98.49,27.57S46.89,224.1,52.15,236.37Z"/><path d="M241,113c0-13.35-16.11-14-16.11-14S150.7,113,124,113c26.7,0,100.89,13.46,100.89,13.46S241,126.3,241,113Z"/><path d="M218,183.22c8.06-10.64-4.37-20.9-4.37-20.9S146.28,129.12,125,113c21.28,16.12,72,71.27,72,71.27S209.92,193.86,218,183.22Z"/></svg>