<?xml version="1.0" encoding="utf-8"?>
<!-- Generator: Adobe Illustrator 25.0.1, SVG Export Plug-In . SVG Version: 6.00 Build 0)  -->
<svg version="1.1" id="Layer_1" xmlns="http://www.w3.org/2000/svg" xmlns:xlink="http://www.w3.org/1999/xlink" x="0px" y="0px"
	 viewBox="0 0 250 250" style="enable-background:new 0 0 250 250;" xml:space="preserve">
<path d="M10.3,66.6l102.6,48.7L49.7,32.2c13.9-6.1,4.4-28.3,32.6-29.5l36.5,106l14-106c15.7,7.4,17.8,19.5,33.5,13.9l-42.6,99.1
	L211,34.8c0,17.8,7.4,28.6,22.2,28.6l-103.4,56.5l107.3-37.3c-10.5,8.7,1.7,29.5,4.7,38.2l-103.4,5.6l95.1,32.1
	c-16.9,0,0,44.3-15.7,34.3l-89.5-64.3l69.6,97.7c-16.5-4.7-23.4-6.1-35.2,3l-41.7-99.5l13.3,117.5c-8.7-11.3-23.9-16.1-36.1-6.1
	l18.3-115.5L58.5,229c-8.7-13.1-10-20.9-31.7-20.9l82.5-86.9l-97.3,52.2c3.5-10,3.5-19.2-1.7-29.1l79-25.3l-79-9.6
	C17.6,101.3,2.8,76.5,10.3,66.6z"/>
</svg>
