<svg height="250" viewBox="0 0 250 250" width="250" xmlns="http://www.w3.org/2000/svg" xmlns:xlink="http://www.w3.org/1999/xlink"><mask id="a" fill="#fff"><path d="m0 154.349832h250v-154.349832h-250z" fill="#fff" fill-rule="evenodd"/></mask><mask id="b" fill="#fff"><path d="m0 154.349832h250v-154.349832h-250z" fill="#fff" fill-rule="evenodd"/></mask><mask id="c" fill="#fff"><path d="m0 154.349832h250v-154.349832h-250z" fill="#fff" fill-rule="evenodd"/></mask><mask id="d" fill="#fff"><path d="m0 156.349832h250v-154.349832h-250z" fill="#fff" fill-rule="evenodd"/></mask><g fill="none" fill-rule="evenodd" stroke="#000" stroke-linecap="square" stroke-width="1.625" transform="matrix(.70710678 -.70710678 .70710678 .70710678 -18.189123 158.087572)"><path d="m5.07916667 66.9672819.06458333.0655369h.065625l.19479167.1300335.26041666.1300336.58645834.3245638 1.171875.6501677 2.34375 1.3003356 5.14270833 2.6662081 4.753125 2.4051006 4.6875 2.2105705 5.078125 2.2105705 4.6875 2.0160403 5.1427083 2.0160402 5.0135417 1.8204698 4.6875 1.6248993 5.1427083 1.5604027 4.6875 1.4303692 4.6875 1.2358389 5.078125 1.2358389 4.6875 1.1047651 5.14375 1.1047651 5.0125.9757718 4.6875.9102349 5.078125.9757718h.065625l.0645834.0644967h.1302083l.3260417.0644966.5854166.1300336 1.171875.2600671h.065625.0645834l.1958333.0644966.2604167.0644967.5854166.1300335 1.171875.2600672h.1302084.065625l.1302083.0644966.325.0644966.6510417.1955705 1.3020833.3245638h.065625.064583l.195834.0665772.325.0644966.651041.1955705 1.2375.3901006.064584.0644967h.130208l.130208.0644966.326042.0644967.651042.2600671h.064583l.065625.0644966h.130208l.325.1300332.651042.260068h.065625l.064583.064496.195834.064497.325.130033.586458.260067 1.302083.584631.064584.064497.065625.064497.130208.064496.325.130034.586458.324564.064584.064496.065625.064497.130208.064497.325.19557.586458.390101.064584.071778.065625.064497.130208.064496.325.260068.586458.455637.064584.064497.065625.064496.130208.130034.325.260067.586458.520134.064584.064497.065625.130034.194791.130033.326042.324564.064583.130033.065625.064497.194792.195571.260417.3901.130208.130034.065625.064496.130208.195571.325.455637.651042.975772.065625.130034.064583.130033.195834.260068.325.58463.065625.130034.064583.130033.195833.324564.325.650168.065625.195571.064584.19557.195833.324564.260417.780201.651041 1.82047.064584.19557.065625.260067.194791.455638.260417 1.040269.065625.260067.130208.260067.130209.584631.260416 1.235839.130209.324563.064583.390101.130208.650168.326042 1.560402.064583.390101.065625.455638.130209.844698.325 1.950503.065625.520134.064583.520134.130208 1.170302.065625.584631.130209.584631.130208 1.300336.064583.715705.065625.715704.130209 1.495906.325 3.380873.065625.975772.064583.975771.195833 2.080537.064584 1.104765.065625 1.170302.130208 2.536175.064583 1.364832.065625 1.430369.194792 3.056309v.910235" mask="url(#a)"/><path d="m126.822917 3.18634228v.52013423l.064583 3.25083893.130208 3.05526846.064584 2.8607382.064583 2.6006712.130208 4.746745.064584 2.340604.064583 2.2105705.130208 2.015.064584 1.9505033.064583 1.8204698.06875 1.6904362.195833 3.1208054.064584 1.4303691.064583 1.3658725.195833 2.5351343.064584 1.170302.064583 1.1058053.130208 2.080537.130209.9747315.064583.9102349.130208 1.7559731.130209.7802014.064583.7802013.132292 1.4948658.064583.7157047.130208.6501678.130209 1.3003356.325 2.2750671.064583.5201342.064583.5201342.195834.9757718.325 1.7549329.064583.3901007.064583.3901007.130209.7157047.325 1.4303691.130208.3245638.06875.325604.130208.5846309.325 1.1058053.064584.2600671.064583.2600671.195833.5201343.325.9102349.064584.1945302.064583.1955704.130208.3901007.325.7146644.064584.1955705.064583.1300336.130208.3245637.325.6501678.064584.1300336.070833.1300335.130208.3256041.325.5201342.585417.9747315.064583.0655369.064584.1300336.195833.1945302.260417.3901007.064583.1300335.066667.0655369.195833.1945302.260417.3256041.064583.1300335.064583.0644967.195834.1300335.260416.3256041.585417.5846308.130208.0655369.064584.0644967.130208.1300335.325.2600672.064583.0655369.132292.0644966.130208.1300336.325.1955704.064584.0644967.064583.0655369.195833.0644966.325.1955705.651042.3901007h.064583l.064584.0644966.195833.0644967.260417.1955704h.130208l.064583.0644967.130209.0644966.325.1300336h.130208l.064583.0644966.130209.0644967.325.1300335.651041.1955705h.064584.064583l.195833.0644966.325.0644967.064584.0644966h.064583l.130208.0644967.325.0644966h.130209.064583l.1375.069698.325.0644967h.064583.064584l.195833.0644966h.325l.066667.0655369h.064583.130208l.325.0644967h.064584.130208.130208l.325.0644966h.064584.064583.195833l.064584.0644966h.064583.195833.064584.064583.134375.130208.064584.130208l.064583.0644967h.064584.195833.064583.064584.130208.064583.067709.130208.064583.064584.064583.064583.064584.064583.064583.130209.064583.064583.064584.064583.070833.064584.064583.130208.064584.064583.064583.064584.064583.064583.064584.130208.064583.064584.070833.130208.064584.064583.195833.064584.064583.130208.064584l.064583-.0644967h.197917.260416.064584.064583.195833l.260417-.0644966h.064583.13125.130209.325.064583l.064583-.0644966h.195834.325.064583.064583l.195834-.0644967h.325l.585416-.0644966.130209-.0644967h.064583.130208l.325-.0644966.651042-.0644967 1.2375-.1955704h.064583l.130209-.0644967h.134375l.260416-.0644966.651042-.0676175 1.171875-.2600671 2.34375-.5201342h.064583.064584l.195833-.0644967.260417-.0644966.586458-.1310738 1.171875-.3245638 2.34375-.5846309.064583-.0644966h.064584l.196875-.0665772.260416-.0644966.651042-.1955705 1.2375-.3901007 2.539583-.844698 4.751042-1.6259396 5.078125-2.015 4.752083-2.0805369 4.6875-2.1460738 5.078125-2.5351342 4.752084-2.5361745 5.14375-2.8607383 5.0125-2.9907718 4.6875-2.9907718 5.078125-3.3153356 4.752083-3.3163758 4.6875-3.3153356 5.078125-3.7709731 4.6875-3.6409396 5.144792-4.0965772v-.0644967h.064583v-.0655369h.064583" mask="url(#b)"/><path d="m124.935417 151.229027v-148.042685" mask="url(#c)"/><path d="m5.07916667 65.6669463h.06458333l.065625.0655369.19479167.0644967.26041666.1955704.58645834.3245638 1.171875.5856711 2.34375 1.3003356 5.14270833 2.6006711 4.753125 2.3406041 4.6875 2.0805369 5.078125 2.2105705 4.6875 1.8849664 5.1427083 1.8849664 5.0135417 1.7559732 4.6875 1.4303691 5.1427083 1.4959061 4.6875 1.2358389 4.6875 1.0402684 5.078125 1.0402685h.065625.0645834l.1302083.0644966.3260417.0644967.5854166.0644966 1.171875.1955705 2.34375.4556376h.065625.1302084.1302083l.325.0644966.6510417.1300336 1.2375.1955705 2.6041666.3245637h.0645834.065625l.1302083.0644967h.325l.6510417.0644966 1.2375.1955705h.0645833.1302083.1302084l.3260416.0644966.5854167.0644967 1.3020833.1300335h.065625.0645834.1302083l.3260417.0644967.5854166.0644966 1.171875.0676175.065625.0644966h.0645834.1302083.3260417l.5854166.0644966 1.171875.0644967h.065625l.0645834.0644966h.1302083.3260417l.6510416.0644967h.0645834.1302083.1302083.3260417l.6510417.0644966h.0645833.065625.1302083l.325.0644967h.6510417l1.3020833.0644966h.065625.0645834.1302083.3260417l.5854166.0644967h.065625.0645834.1302083.3260417.5854166l.065625.0644966h.0645834.1958333.2604167.0645833.065625.1947917.2604166.065625.0645834.1958333.2604167.0645833.1302083.1302084.2604166.1302084.065625.1302083l.1302083.0644966h.0645834.1302083.065625.1302083.1302084.325.065625.1302083.1302083.0645834.065625.1947916.065625.0645834.1302083.065625.064583.065625.130209.064583.065625.064583.130209.065625.064583.065625.064583.130209.065625.064583.065625.130208.064584.065625.064583.130208.065625.064584.065625.064583.130208.065625.130209.130208.064583.130209.130208.065625.130208.064584.130208.130208.326042.064583.065625l.194792-.0644966h.326042.064583.065625.130208.325.651042.065625.064583.195834.325l.586458-.0644966h.130208.064584.130208.326042.651041.064584.065625l.130208-.0644967h.325.586458.064584.065625.130208l.325-.0644966h.586458.064584.065625.130208l.325-.0644967h.586458l1.171875-.0644966h.064584.065625l.194791-.0644967h.326042l.585417-.0644966 1.302083-.0644967h.065625.064583l.195834-.0644966h.325l.651041-.0644966 1.2375-.1300336h.064584.065625.194791l.260417-.0644966.586458-.0644967 1.236459-.1300335 2.34375-.2600672h.065625.130208.130208l.260417-.0644966.585417-.0644966 1.171875-.1955705 2.34375-.3245638h.064583.064583l.195834-.0644966h.325l.585416-.1300336 1.302084-.1955704 2.539583-.4556376 4.6875-.9102349 5.14375-1.170302 5.0125-1.235839 4.6875-1.3003355 5.078125-1.5604027 4.752083-1.6248994 4.6875-1.6904362 5.0125-2.0160403 4.754167-1.9515436 5.078125-2.2750671 4.752083-2.2761074 4.6875-2.4051007 5.078125-2.666208 4.752084-2.6651678 5.14375-3.0563087 5.0125-3.1208054 4.6875-3.0552684 5.079166-3.4464094 4.752084-3.3153356 4.6875-3.3808725 5.078125-3.9010067 4.6875-3.7064765 5.14375-4.1610738.064583-.0644967v-.0655369h.064583" mask="url(#d)" stroke-dasharray="3.188"/></g></svg>