<?xml version="1.0" encoding="utf-8"?>
<!-- Generator: Adobe Illustrator 25.0.1, SVG Export Plug-In . SVG Version: 6.00 Build 0)  -->
<svg version="1.1" id="Layer_1" xmlns="http://www.w3.org/2000/svg" xmlns:xlink="http://www.w3.org/1999/xlink" x="0px" y="0px"
	 viewBox="0 0 250 250" style="enable-background:new 0 0 250 250;" xml:space="preserve">
<g>
	<path d="M113.02,102.41c-3.85,0-7.15-1.02-9.89-3.06s-5-4.78-6.76-8.22c-1.76-3.44-3.02-7.38-3.77-11.82
		c-0.75-4.44-1.07-9.1-0.95-13.98c0.12-4.88,0.67-9.76,1.65-14.64c0.99-4.88,2.37-9.48,4.16-13.8c1.74-4.48,3.93-8.8,6.59-12.96
		c2.65-4.16,5.49-7.82,8.52-10.98c3.03-3.16,6.14-5.7,9.33-7.62c3.19-1.92,6.2-2.88,9.01-2.88c3.94,0,7.32,1.02,10.14,3.06
		c2.82,2.04,5.11,4.78,6.87,8.22c1.76,3.44,3.04,7.38,3.84,11.82c0.8,4.44,1.14,9.1,1.02,13.98c-0.12,4.88-0.67,9.76-1.66,14.64
		c-0.99,4.88-2.37,9.48-4.16,13.8c-1.74,4.48-3.91,8.8-6.51,12.96c-2.61,4.16-5.43,7.82-8.49,10.98c-3.05,3.16-6.21,5.7-9.47,7.62
		C119.23,101.45,116.07,102.41,113.02,102.41z M117.1,97.85c2.68,0.08,5.21-0.46,7.61-1.62c2.39-1.16,4.61-2.86,6.66-5.1
		c2.04-2.24,3.93-4.92,5.67-8.04c1.74-3.12,3.29-6.64,4.65-10.56c1.69-4.56,3.02-9.36,3.98-14.4c0.96-5.04,1.52-10,1.69-14.88
		c0.16-4.88-0.09-9.52-0.77-13.92c-0.68-4.4-1.83-8.28-3.45-11.64s-3.71-6.02-6.27-7.98c-2.56-1.96-5.65-2.94-9.26-2.94
		c-5.49,0-10.22,2.26-14.19,6.78c-3.97,4.52-7.41,10.86-10.32,19.02c-1.69,4.64-3.03,9.44-4.01,14.4
		c-0.99,4.96-1.56,9.84-1.73,14.64c-0.17,4.8,0.09,9.38,0.77,13.74c0.68,4.36,1.82,8.2,3.42,11.52c1.6,3.32,3.69,5.96,6.27,7.92
		C110.39,96.75,113.49,97.77,117.1,97.85z"/>
</g>
<g>
	<path d="M100.8,126.15c-1.93,3.33-4.46,5.68-7.6,7.04c-3.14,1.36-6.64,1.94-10.5,1.74c-3.86-0.19-7.9-1.08-12.12-2.65
		c-4.22-1.57-8.41-3.62-12.58-6.17c-4.17-2.54-8.12-5.46-11.85-8.75c-3.73-3.29-7.02-6.79-9.87-10.5c-3.01-3.74-5.66-7.8-7.93-12.18
		c-2.28-4.38-4.02-8.67-5.25-12.87c-1.22-4.2-1.87-8.17-1.93-11.89c-0.07-3.72,0.6-6.81,2.01-9.25c1.97-3.42,4.55-5.83,7.72-7.25
		c3.18-1.42,6.69-2.03,10.55-1.84c3.86,0.2,7.91,1.06,12.16,2.59c4.24,1.53,8.45,3.57,12.62,6.11c4.17,2.54,8.12,5.46,11.85,8.75
		c3.73,3.29,7.02,6.79,9.87,10.5c3.01,3.74,5.67,7.79,7.97,12.12c2.3,4.34,4.06,8.62,5.27,12.84c1.21,4.22,1.83,8.23,1.86,12.01
		C103.07,120.3,102.32,123.51,100.8,126.15z M98.89,120.34c1.41-2.28,2.21-4.74,2.4-7.4c0.19-2.65-0.17-5.43-1.09-8.31
		c-0.92-2.89-2.29-5.86-4.13-8.93c-1.83-3.06-4.11-6.17-6.82-9.31c-3.1-3.74-6.6-7.29-10.48-10.65c-3.88-3.35-7.9-6.32-12.04-8.9
		c-4.14-2.58-8.29-4.68-12.44-6.29c-4.15-1.61-8.09-2.55-11.81-2.83c-3.72-0.28-7.07,0.2-10.04,1.44c-2.98,1.24-5.37,3.42-7.18,6.55
		c-2.75,4.76-3.15,9.98-1.22,15.68c1.93,5.7,5.7,11.84,11.31,18.45c3.17,3.78,6.66,7.34,10.46,10.68c3.8,3.33,7.74,6.27,11.82,8.81
		c4.07,2.54,8.17,4.61,12.29,6.2c4.12,1.59,8.01,2.53,11.68,2.8c3.67,0.28,7-0.21,9.99-1.47C94.58,125.6,97.01,123.43,98.89,120.34z
		"/>
</g>
<g>
	<path d="M115.25,148.61c1.93,3.33,2.69,6.7,2.3,10.1c-0.39,3.4-1.64,6.72-3.74,9.97c-2.1,3.24-4.88,6.3-8.35,9.17
		c-3.47,2.87-7.35,5.48-11.63,7.81c-4.28,2.34-8.79,4.3-13.51,5.89c-4.72,1.59-9.4,2.69-14.03,3.3c-4.75,0.74-9.59,1-14.52,0.78
		c-4.93-0.22-9.52-0.85-13.77-1.89c-4.25-1.04-8.01-2.47-11.26-4.27c-3.26-1.8-5.59-3.93-7-6.37c-1.97-3.42-2.78-6.85-2.42-10.31
		c0.36-3.46,1.59-6.81,3.69-10.06c2.1-3.24,4.87-6.32,8.32-9.23c3.45-2.91,7.31-5.54,11.6-7.87c4.29-2.34,8.79-4.3,13.51-5.89
		c4.72-1.59,9.4-2.69,14.03-3.3c4.75-0.74,9.58-1.02,14.48-0.84c4.91,0.18,9.49,0.8,13.75,1.86c4.26,1.06,8.04,2.53,11.34,4.39
		C111.31,143.71,113.72,145.97,115.25,148.61z M109.26,147.35c-1.27-2.36-3-4.28-5.21-5.78c-2.2-1.49-4.78-2.57-7.74-3.21
		c-2.96-0.65-6.23-0.94-9.8-0.89c-3.57,0.06-7.39,0.47-11.47,1.25c-4.79,0.82-9.61,2.07-14.46,3.75c-4.85,1.69-9.42,3.68-13.73,5.98
		c-4.31,2.3-8.2,4.84-11.67,7.63c-3.47,2.79-6.26,5.73-8.36,8.81s-3.36,6.22-3.78,9.42c-0.42,3.2,0.28,6.36,2.08,9.49
		c2.75,4.76,7.07,7.72,12.97,8.9c5.9,1.18,13.11,0.98,21.63-0.57c4.86-0.86,9.69-2.1,14.48-3.72c4.79-1.63,9.3-3.57,13.54-5.83
		c4.24-2.26,8.08-4.77,11.51-7.54c3.44-2.77,6.19-5.68,8.27-8.72c2.08-3.04,3.32-6.17,3.73-9.39
		C111.66,153.72,111,150.53,109.26,147.35z"/>
</g>
<g>
	<path d="M141.92,147.32c3.85,0,7.15,1.02,9.89,3.06c2.75,2.04,5,4.78,6.76,8.22c1.76,3.44,3.02,7.38,3.77,11.82
		c0.75,4.44,1.07,9.1,0.95,13.98c-0.12,4.88-0.67,9.76-1.65,14.64c-0.99,4.88-2.37,9.48-4.16,13.8c-1.74,4.48-3.93,8.8-6.59,12.96
		c-2.65,4.16-5.49,7.82-8.52,10.98c-3.03,3.16-6.14,5.7-9.33,7.62c-3.19,1.92-6.2,2.88-9.01,2.88c-3.94,0-7.32-1.02-10.14-3.06
		c-2.82-2.04-5.11-4.78-6.87-8.22c-1.76-3.44-3.04-7.38-3.84-11.82c-0.8-4.44-1.14-9.1-1.02-13.98c0.12-4.88,0.67-9.76,1.66-14.64
		c0.99-4.88,2.37-9.48,4.16-13.8c1.74-4.48,3.91-8.8,6.51-12.96c2.61-4.16,5.43-7.82,8.49-10.98c3.05-3.16,6.21-5.7,9.47-7.62
		C135.72,148.28,138.87,147.32,141.92,147.32z M137.84,151.88c-2.68-0.08-5.21,0.46-7.61,1.62c-2.39,1.16-4.61,2.86-6.66,5.1
		c-2.04,2.24-3.93,4.92-5.67,8.04c-1.74,3.12-3.29,6.64-4.65,10.56c-1.69,4.56-3.02,9.36-3.98,14.4c-0.96,5.04-1.52,10-1.69,14.88
		c-0.16,4.88,0.09,9.52,0.77,13.92c0.68,4.4,1.83,8.28,3.45,11.64c1.62,3.36,3.71,6.02,6.27,7.98c2.56,1.96,5.65,2.94,9.26,2.94
		c5.49,0,10.22-2.26,14.19-6.78c3.97-4.52,7.41-10.86,10.32-19.02c1.69-4.64,3.03-9.44,4.01-14.4c0.99-4.96,1.56-9.84,1.73-14.64
		c0.17-4.8-0.09-9.38-0.77-13.74c-0.68-4.36-1.82-8.2-3.42-11.52c-1.6-3.32-3.69-5.96-6.27-7.92
		C144.55,152.98,141.46,151.96,137.84,151.88z"/>
</g>
<g>
	<path d="M154.15,123.58c1.93-3.33,4.46-5.68,7.6-7.04c3.14-1.36,6.64-1.94,10.5-1.74c3.86,0.19,7.9,1.08,12.12,2.65
		c4.22,1.57,8.41,3.62,12.58,6.17c4.17,2.54,8.12,5.46,11.85,8.75c3.73,3.29,7.02,6.79,9.87,10.5c3.01,3.74,5.66,7.8,7.93,12.18
		c2.28,4.38,4.02,8.67,5.25,12.87c1.22,4.2,1.87,8.17,1.93,11.89c0.07,3.72-0.6,6.81-2.01,9.25c-1.97,3.42-4.55,5.83-7.72,7.25
		c-3.18,1.42-6.69,2.03-10.55,1.84c-3.86-0.2-7.91-1.06-12.16-2.59c-4.24-1.53-8.45-3.57-12.62-6.11
		c-4.17-2.54-8.12-5.46-11.85-8.75c-3.73-3.29-7.02-6.79-9.87-10.5c-3.01-3.74-5.67-7.79-7.97-12.12c-2.3-4.34-4.06-8.62-5.27-12.84
		c-1.21-4.22-1.83-8.23-1.86-12.01C151.87,129.44,152.62,126.22,154.15,123.58z M156.05,129.4c-1.41,2.28-2.21,4.74-2.4,7.4
		c-0.19,2.65,0.17,5.43,1.09,8.31c0.92,2.89,2.29,5.86,4.13,8.93c1.83,3.06,4.11,6.17,6.82,9.31c3.1,3.74,6.6,7.29,10.48,10.65
		c3.88,3.35,7.9,6.32,12.04,8.9c4.14,2.58,8.29,4.68,12.44,6.29c4.15,1.61,8.09,2.55,11.81,2.83c3.72,0.28,7.07-0.2,10.04-1.44
		c2.98-1.24,5.37-3.42,7.18-6.55c2.75-4.76,3.15-9.98,1.22-15.68c-1.93-5.7-5.7-11.84-11.31-18.45c-3.17-3.78-6.66-7.34-10.46-10.68
		c-3.8-3.33-7.74-6.27-11.82-8.81c-4.07-2.54-8.17-4.61-12.29-6.2c-4.12-1.59-8.01-2.53-11.68-2.8c-3.67-0.28-7,0.21-9.99,1.47
		C160.36,124.13,157.93,126.31,156.05,129.4z"/>
</g>
<g>
	<path d="M139.69,101.12c-1.93-3.33-2.69-6.7-2.3-10.1c0.39-3.4,1.64-6.72,3.74-9.97c2.1-3.24,4.88-6.3,8.35-9.17
		c3.47-2.87,7.35-5.48,11.63-7.81c4.28-2.34,8.79-4.3,13.51-5.89c4.72-1.59,9.4-2.69,14.03-3.3c4.75-0.74,9.59-1,14.52-0.78
		c4.93,0.22,9.52,0.85,13.77,1.89c4.25,1.04,8.01,2.47,11.26,4.27c3.26,1.8,5.59,3.93,7,6.37c1.97,3.42,2.78,6.85,2.42,10.31
		c-0.36,3.46-1.59,6.81-3.69,10.06c-2.1,3.24-4.87,6.32-8.32,9.23c-3.45,2.91-7.31,5.54-11.6,7.87c-4.29,2.34-8.79,4.3-13.51,5.89
		c-4.72,1.59-9.4,2.69-14.03,3.3c-4.75,0.74-9.58,1.02-14.48,0.84c-4.91-0.18-9.49-0.8-13.75-1.86c-4.26-1.06-8.04-2.53-11.34-4.39
		C143.63,106.02,141.22,103.76,139.69,101.12z M145.69,102.38c1.27,2.36,3,4.28,5.21,5.78c2.2,1.49,4.78,2.57,7.74,3.21
		c2.96,0.65,6.23,0.94,9.8,0.89c3.57-0.06,7.39-0.47,11.47-1.25c4.79-0.82,9.61-2.07,14.46-3.75c4.85-1.69,9.42-3.68,13.73-5.98
		c4.31-2.3,8.2-4.84,11.67-7.63c3.47-2.79,6.26-5.73,8.36-8.81c2.1-3.08,3.36-6.22,3.78-9.42c0.42-3.2-0.28-6.36-2.08-9.49
		c-2.75-4.76-7.07-7.72-12.97-8.9c-5.9-1.18-13.11-0.98-21.63,0.57c-4.86,0.86-9.69,2.1-14.48,3.72c-4.79,1.63-9.3,3.57-13.54,5.83
		c-4.24,2.26-8.08,4.77-11.51,7.54c-3.44,2.77-6.19,5.68-8.27,8.72c-2.08,3.04-3.32,6.17-3.73,9.39
		C143.28,96.02,143.95,99.21,145.69,102.38z"/>
</g>
</svg>
