<?xml version="1.0" encoding="utf-8"?>
<!-- Generator: Adobe Illustrator 25.0.1, SVG Export Plug-In . SVG Version: 6.00 Build 0)  -->
<svg version="1.1" id="Layer_1" xmlns="http://www.w3.org/2000/svg" xmlns:xlink="http://www.w3.org/1999/xlink" x="0px" y="0px"
	 viewBox="0 0 250 250" style="enable-background:new 0 0 250 250;" xml:space="preserve">
<path d="M213.9,136.7c-10.7-10.5-25-16.4-40-16.3h-0.6l-37.5,0.4l26.4-26.9c8.8-9.1,20.9-14.2,33.6-14.3l49.5-0.5l-0.1-9.5
	l-49.5,0.5c-15.2,0.1-29.7,6.3-40.3,17.1l-25.1,25.6L130,76.7c-0.2-12.6,4.7-24.8,13.6-33.8l34.7-35.3l-6.8-6.7l-34.7,35.4
	c-10.6,10.8-16.5,25.4-16.3,40.6l0.4,37.1L93.7,87.5c-9.1-8.8-14.2-20.9-14.3-33.6L78.9,4.4l-9.5,0.1l0.5,49.5
	C70,69.2,76.2,83.7,87,94.3l26.4,25.9l-36.9,0.4h-0.5c-12.5,0-24.5-4.9-33.3-13.6L7.4,72.3l-6.7,6.8l35.3,34.7
	c10.7,10.5,25,16.4,40,16.3l0.7,0l37.4-0.4l-26.4,26.9c-8.8,9-20.9,14.2-33.5,14.3l-49.5,0.5l0,9.5l49.5-0.5
	c15.2-0.1,29.7-6.3,40.2-17.1l25.9-26.5l0.4,36.4c0.2,12.6-4.7,24.8-13.6,33.8l-34.7,35.4l6.8,6.7l34.7-35.4
	c10.6-10.8,16.5-25.4,16.3-40.6l-0.4-37.5l26.9,26.4c9.1,8.8,14.2,20.9,14.3,33.5l0.5,49.5l9.5-0.1l-0.5-49.5
	c-0.1-15.2-6.3-29.6-17.2-40.2l-25.5-25l35.4-0.4c12.6-0.2,24.8,4.7,33.8,13.6l35.4,34.7l6.7-6.8L213.9,136.7z"/>
</svg>
