<?xml version="1.0" encoding="utf-8"?>
<!-- Generator: Adobe Illustrator 25.0.1, SVG Export Plug-In . SVG Version: 6.00 Build 0)  -->
<svg version="1.1" id="Layer_1" xmlns="http://www.w3.org/2000/svg" xmlns:xlink="http://www.w3.org/1999/xlink" x="0px" y="0px"
	 viewBox="0 0 250 250" style="enable-background:new 0 0 250 250;" xml:space="preserve">
<polygon points="239,121.8 229.2,121.8 229.2,119.3 212,119.3 212,116.9 138.4,116.9 156.4,98.9 158.6,101.1 200,59.7 197.8,57.5 
	203.4,51.9 202.3,50.8 207.9,45.2 201.1,38.5 195.6,44.1 194.4,42.9 128.7,108.7 128.7,83.8 132.4,83.8 132.4,23.7 128.7,23.7 
	128.7,16.4 127.5,16.4 127.5,9 117.6,9 117.6,16.4 116.4,16.4 116.4,107.3 100.4,91.3 102.6,89 61.2,47.6 59,49.9 53.4,44.3 
	52.3,45.4 46.7,39.8 40,46.5 45.6,52.1 44.4,53.2 108.1,116.9 85.8,116.9 85.8,113.2 25.7,113.2 25.7,116.9 18.4,116.9 18.4,118.1 
	11,118.1 11,127.9 18.4,127.9 18.4,129.1 108.2,129.1 57.9,179.5 60.1,181.7 47.8,194.1 48.9,195.2 42.2,201.9 44.4,204.1 
	51.2,197.4 52.3,198.5 64.6,186.2 66.8,188.5 116.4,138.9 116.4,210 118.9,210 118.9,227.2 121.3,227.2 121.3,237 123.8,237 
	123.8,227.2 126.2,227.2 126.2,210 128.7,210 128.7,137.4 181,189.8 183.2,187.5 195.6,199.8 196.7,198.7 203.4,205.4 205.6,203.2 
	198.9,196.5 200,195.4 187.7,183.1 190,180.8 138.3,129.1 212,129.1 212,126.7 229.2,126.7 229.2,124.2 239,124.2 "/>
</svg>
